<svg xmlns="http://www.w3.org/2000/svg" version="1.1" id="图层_1" x="0" y="0" width="34" height="34" xml:space="preserve"><style>.st1{fill:#fff}</style><path fill="none" d="M0 0h34v34H0z"/><path class="st1" d="M29.3 29.2H4.7c-.7 0-1.2-.3-1.6-.9-.3-.6-.3-1.3 0-1.8L15.4 5.7c.3-.6.9-.9 1.6-.9.6 0 1.2.3 1.6.9l12.3 20.8c.3.6.3 1.3 0 1.8-.4.6-1 .9-1.6.9zM16.5 6.3L4.2 27.1c-.2.3-.1.5 0 .6 0 .1.2.3.5.3h24.5c.3 0 .5-.2.5-.3.1-.1.2-.3 0-.6L17.5 6.3c-.1-.3-.4-.3-.5-.3-.1 0-.4 0-.5.3z"/><path class="st1" d="M17 22.6c-.3 0-.6-.3-.6-.6V11.2c0-.3.3-.6.6-.6s.6.3.6.6V22c0 .3-.3.6-.6.6z"/><circle class="st1" cx="17" cy="25" r=".8"/></svg>