<svg version="1.1" id="图层_1" xmlns="http://www.w3.org/2000/svg" x="0" y="0" width="34" height="34" xml:space="preserve"><style>.st1{fill:#fff}</style><path fill="none" d="M0 0h34v34H0z"/><path class="st1" d="M11.3 17c0-3.6.5-6.3 1.4-8 .9-1.7 2.3-2.6 4.3-2.6s3.4.8 4.3 2.5c.9 1.7 1.4 4.4 1.4 8 0 3.6-.5 6.3-1.4 8s-2.4 2.6-4.3 2.6-3.4-.9-4.3-2.6c-.9-1.6-1.4-4.3-1.4-7.9zm1.7 0c0 3.1.3 5.3 1 6.8s1.7 2.2 3 2.2c1.4 0 2.4-.7 3-2.2.6-1.5 1-3.7 1-6.8 0-3.1-.3-5.4-1-6.8-.6-1.5-1.6-2.2-3-2.2s-2.4.7-3 2.2c-.7 1.4-1 3.7-1 6.8zM9.8 18.6c-.7-.9-1.8-1.6-3.3-2.3-.1-.1-.4-.2-.6-.3-1.5-.6-2.5-1.2-3-1.8-.3-.3-.5-.7-.6-1.2-.1-.4-.2-.9-.2-1.4 0-1.1.3-2 1-2.7S4.6 8 5.6 8s1.7.3 2.3 1c.6.6.9 1.6.9 2.7.1.4.4.7.7.7.4 0 .7-.3.7-.7v-.1c0-1.6-.4-2.8-1.3-3.7-.7-1-1.9-1.5-3.4-1.5s-2.7.5-3.7 1.5S.4 10.2.4 11.7c0 1.4.3 2.5.9 3.4.7.9 1.7 1.6 3.2 2.3.3.1.6.3 1.1.5 1.1.4 1.9.8 2.3 1.2.4.4.8.8.9 1.2.2.4.3 1 .3 1.6 0 1.3-.3 2.3-1 3-.7.7-1.6 1.1-2.8 1.1-1.1 0-2-.4-2.6-1.2-.6-.8-1-1.9-1-3.4 0-.5-.4-.8-.8-.8-.5 0-.8.4-.8.9v.1c.1 1.9.5 3.4 1.5 4.5.9 1.1 2.2 1.6 3.9 1.6 1.7 0 3-.5 4-1.5S11 23.8 11 22c-.2-1.5-.5-2.6-1.2-3.4zM33 18.6c-.7-.9-1.8-1.6-3.3-2.3-.1-.1-.4-.2-.6-.3-1.5-.6-2.5-1.2-3-1.8-.3-.3-.5-.7-.6-1.2-.1-.4-.2-.9-.2-1.4 0-1.1.3-2 1-2.7.6-.6 1.5-.9 2.5-.9s1.7.3 2.3 1c.6.6.9 1.6.9 2.7.1.4.4.7.7.7.4 0 .7-.3.7-.7v-.1c0-1.6-.4-2.8-1.3-3.7-.9-.9-2.1-1.4-3.6-1.4S25.8 7 24.8 8s-1.4 2.3-1.4 3.8c0 1.4.3 2.5.9 3.4.6.9 1.7 1.6 3.2 2.3.3.1.6.3 1.1.5 1.1.4 1.9.8 2.3 1.2.4.4.8.8.9 1.2.2.4.3 1 .3 1.6 0 1.3-.3 2.3-1 3-.7.7-1.7 1.1-2.9 1.1-1.1 0-2-.4-2.6-1.2-.6-.8-1-1.9-1-3.4 0-.5-.4-.8-.8-.8-.5 0-.8.4-.8.9v.1c.1 1.9.5 3.4 1.5 4.5.9 1.1 2.2 1.6 3.9 1.6 1.7 0 3-.5 4-1.5s1.5-2.4 1.5-4.2c.1-1.6-.2-2.7-.9-3.5z"/></svg>