<svg version="1.1" id="图层_1" xmlns="http://www.w3.org/2000/svg" x="0" y="0" width="80" height="79.9" xml:space="preserve"><style>.st0{fill:#b2ddff}</style><path class="st0" d="M32.4 16.2c1.9 0 3.5 1.6 3.5 3.5V41c0 .9.7 1.3 1.3 1.3.7 0 1.3-.4 1.3-1.3v-9.4c0-1.9 1.6-3.5 3.5-3.5h.2c1.9 0 3.5 1.6 3.5 3.5v11.8c0 .9.7 1.3 1.3 1.3.7 0 1.3-.4 1.3-1.3v-7.8c0-1.9 1.6-3.5 3.5-3.5h.2c1.9 0 3.5 1.6 3.5 3.5v10.2c0 .9.7 1.3 1.3 1.3.7 0 1.3-.4 1.3-1.3v-7c0-1.9 1.6-3.5 3.5-3.5h.2c1.9 0 3.5 1.6 3.5 3.5v19.7c0 7.6-6.1 13.7-13.7 13.7H38.2c-4.4 0-8.5-2.1-11.1-5.6L13.7 48.1c-.9-1.3-.9-3.1.2-4.3l.6-.7c.6-.7 1.4-1 2.3-1.1h.1c.8 0 1.6.3 2.2.9l2.6 2.5c.8.8 1.8 1.2 2.9 1.2 1.1 0 2.2-.4 3-1.3.7-.8 1.2-1.8 1.2-2.9V19.7c0-1.9 1.6-3.5 3.5-3.5h.1m0-3.1h-.2c-3.7 0-6.6 3-6.6 6.7v22.7c0 .3-.1.5-.3.7-.2.3-.5.3-.7.3-.2 0-.4 0-.7-.3l-2.6-2.5c-1.2-1.2-2.8-1.8-4.4-1.8h-.2c-1.7.1-3.4.8-4.5 2.1l-.6.7c-2 2.3-2.2 5.7-.4 8.2l13.4 18.5c3.2 4.3 8.2 6.9 13.6 6.9h13.7c9.3 0 16.8-7.6 16.8-16.9V38.7c0-3.7-3-6.7-6.6-6.7h-.2c-1.3 0-2.5.4-3.5 1-1-2.4-3.4-4.2-6.2-4.2H52c-1.2 0-2.3.3-3.3.9-.8-2.7-3.4-4.7-6.4-4.7h-.2c-1.1 0-2.1.3-3.1.7v-6c0-3.6-2.9-6.6-6.6-6.6z"/><path class="st0" d="M46.1 21c-.6 0-1.1-.5-1.1-1.1C45 13 39.4 7.5 32.6 7.5S20.1 13 20.1 19.8c0 .6-.5 1.1-1.1 1.1s-1.1-.5-1.1-1.1c0-8.1 6.6-14.7 14.7-14.7s14.7 6.6 14.7 14.7c-.1.7-.6 1.2-1.2 1.2z"/></svg>