<svg version="1.1" id="图层_1" xmlns="http://www.w3.org/2000/svg" x="0" y="0" width="80" height="80" xml:space="preserve"><style>.st0{fill:#b2ddff}</style><path class="st0" d="M41 73.7H8.9c-2 0-3.6-1.6-3.6-3.6V14.3c0-2 1.6-3.6 3.6-3.6h51.8c2 0 3.6 1.6 3.6 3.6v20.1c0 .9-.7 1.6-1.6 1.6s-1.6-.7-1.6-1.6V14.3c0-.3-.2-.5-.5-.5H8.9c-.3 0-.5.2-.5.5V70c0 .3.2.5.5.5H41c.9 0 1.6.7 1.6 1.6s-.7 1.6-1.6 1.6z"/><path class="st0" d="M62.7 27.4H6.8c-.9 0-1.6-.7-1.6-1.6s.7-1.6 1.6-1.6h55.9c.9 0 1.6.7 1.6 1.6s-.7 1.6-1.6 1.6zM24.1 18.2c-.9 0-1.6-.7-1.6-1.6V7.9c0-.9.7-1.6 1.6-1.6s1.6.7 1.6 1.6v8.8c0 .8-.7 1.5-1.6 1.5zM45.7 18.2c-.9 0-1.6-.7-1.6-1.6V7.9c0-.9.7-1.6 1.6-1.6s1.6.7 1.6 1.6v8.8c0 .8-.7 1.5-1.6 1.5z"/><g><path class="st0" d="M19.7 36.8c-2 0-3.6 1.6-3.6 3.6s1.6 3.6 3.6 3.6 3.6-1.6 3.6-3.6-1.6-3.6-3.6-3.6zM33.4 36.8c-2 0-3.6 1.6-3.6 3.6s1.6 3.6 3.6 3.6 3.6-1.6 3.6-3.6-1.6-3.6-3.6-3.6zM23.3 54.1c0-2-1.6-3.6-3.6-3.6s-3.6 1.6-3.6 3.6 1.6 3.6 3.6 3.6 3.6-1.6 3.6-3.6z"/></g><g><path class="st0" d="M50.9 43.2c.2-.9.7-1.3 1.5-1 .8.3 1 .9.8 1.9-.2.6-.6 1.5-1 2.7-.3.9-.6 1.7-.8 2.3v19c-.1.8-.5 1.2-1.2 1.2-.8 0-1.2-.4-1.2-1.2V53c-.2.5-.7 1.3-1.5 2.2-.6.7-1.2.8-1.6.2-.3-.6-.3-1.3 0-2.1 2.2-2.3 3.9-5.7 5-10.1zm12.8-.1v4.1h8.8c.6.1 1 .5 1 1.2-.1.7-.4 1-1 1h-8.4c1.1 3.3 3.9 7 8.5 11.2.6.6 1.1 1 1.5 1.3.7.8.8 1.4.3 2-.5.5-1.2.4-2-.2-4.3-3.4-7.2-6.9-8.8-10.6v15.3c-.1.6-.5 1-1.3 1s-1.2-.3-1.2-.9V53.6c-1.9 3.7-4.2 7-6.9 9.8-.6.6-1.2.7-1.9.1-.5-.6-.5-1.2.1-1.9 4-4.2 6.8-8.3 8.4-12.2h-7c-.8 0-1.2-.3-1.2-1s.4-1.1 1.2-1.2H61v-4.1c0-.6.4-1 1.2-1 1 .1 1.5.4 1.5 1z"/></g></svg>