<svg version="1.1" id="图层_1" xmlns="http://www.w3.org/2000/svg" x="0" y="0" width="80" height="80" xml:space="preserve"><style>.st0{fill:#b2ddff}</style><path class="st0" d="M55.7 26.5c-.3 0-.5-.1-.7-.3l-2.5-3-3.9.2c-.4 0-.7-.2-.8-.5-.2-.3-.1-.7.1-1l2.3-3.2-1.4-3.7c-.1-.3-.1-.7.2-.9.2-.3.6-.3.9-.3l3.7 1.1 3-2.7c.3-.2.6-.3.9-.2.3.1.5.4.5.8l.2 3.9 3.4 2.3c.3.2.4.5.4.9 0 .3-.3.6-.6.7l-3.9 1.2-.9 3.9c-.1.3-.3.6-.7.7 0 0-.1.1-.2.1zm-2.8-5.2c.3 0 .5.1.7.3l1.6 2 .6-2.6c.1-.3.3-.6.6-.7l2.6-.8-2.3-1.6c-.2-.2-.4-.4-.4-.7l-.1-2.5-2 1.8c-.2.2-.6.3-.8.2l-2.4-.8 1 2.5c.1.3.1.6-.1.8l-1.5 2.1h2.5z"/><path class="st0" d="M40.9 64.2c-17.2 0-31.2-14-31.2-31.3C9.7 20.3 17.2 9 28.8 4.1c.6-.2 1.2-.1 1.7.4.5.4.6 1.1.4 1.7-1.2 3.2-1.8 6.5-1.8 9.9 0 15.5 12.6 28.1 28.1 28.1 3.8 0 7.5-.7 10.9-2.2.6-.2 1.2-.1 1.7.3s.6 1.1.4 1.7c-4.6 12.1-16.3 20.2-29.3 20.2zM26.8 8.7c-8.6 5-14 14.2-14 24.3 0 15.5 12.6 28.1 28.1 28.1 10.4 0 20-5.9 24.8-15-2.8.8-5.7 1.2-8.6 1.2-17.2 0-31.2-14-31.2-31.3 0-2.5.3-4.9.9-7.3z"/><path class="st0" d="M73.7 64.3H6.3c-.9 0-1.6-.7-1.6-1.6s.7-1.6 1.6-1.6h67.4c.9 0 1.6.7 1.6 1.6s-.7 1.6-1.6 1.6zM57.6 76H22.4c-.9 0-1.6-.7-1.6-1.6s.7-1.6 1.6-1.6h35.2c.9 0 1.6.7 1.6 1.6s-.7 1.6-1.6 1.6z"/></svg>