<svg version="1.1" id="图层_1" xmlns="http://www.w3.org/2000/svg" x="0" y="0" width="80" height="80" xml:space="preserve"><style>.st0{fill:#b2ddff}</style><path class="st0" d="M35.7 73.7H8.4c-2 0-3.6-1.6-3.6-3.6V14.3c0-2 1.6-3.6 3.6-3.6h51.8c2 0 3.6 1.6 3.6 3.6v15.5c0 .9-.7 1.6-1.6 1.6s-1.6-.7-1.6-1.6V14.3c0-.3-.2-.5-.5-.5H8.4c-.3 0-.5.2-.5.5V70c0 .3.2.5.5.5h27.3c.9 0 1.6.7 1.6 1.6s-.8 1.6-1.6 1.6z"/><path class="st0" d="M62.3 27.4H6.4c-.9 0-1.6-.7-1.6-1.6s.7-1.6 1.6-1.6h55.9c.9 0 1.6.7 1.6 1.6s-.8 1.6-1.6 1.6zM62.9 55.5h-6.4c-.6 0-1.1-.5-1.1-1.1s.5-1.1 1.1-1.1h6.4c.6 0 1.1.5 1.1 1.1s-.5 1.1-1.1 1.1z"/><path class="st0" d="M56.5 55.5c-.6 0-1.1-.5-1.1-1.1v-9.5c0-.6.5-1.1 1.1-1.1s1.1.5 1.1 1.1v9.5c.1.6-.4 1.1-1.1 1.1zM32.2 43.3H15.1c-.6 0-1.1-.5-1.1-1.1s.5-1.1 1.1-1.1h17.1c.6 0 1.1.5 1.1 1.1s-.5 1.1-1.1 1.1zM32.2 56.3H15.1c-.6 0-1.1-.5-1.1-1.1s.5-1.1 1.1-1.1h17.1c.6 0 1.1.5 1.1 1.1s-.5 1.1-1.1 1.1zM23.6 18.2c-.9 0-1.6-.7-1.6-1.6V7.9c0-.9.7-1.6 1.6-1.6s1.6.7 1.6 1.6v8.8c0 .8-.7 1.5-1.6 1.5zM45.2 18.2c-.9 0-1.6-.7-1.6-1.6V7.9c0-.9.7-1.6 1.6-1.6s1.6.7 1.6 1.6v8.8c0 .8-.7 1.5-1.6 1.5z"/><path class="st0" d="M56 73.7c-10.7 0-19.3-8.7-19.3-19.3S45.4 35 56 35s19.3 8.7 19.3 19.3S66.7 73.7 56 73.7zm0-35.6c-8.9 0-16.2 7.3-16.2 16.2S47.1 70.5 56 70.5s16.2-7.3 16.2-16.2S64.9 38.1 56 38.1z"/></svg>