<svg version="1.1" id="图层_1" xmlns="http://www.w3.org/2000/svg" x="0" y="0" width="80" height="79.9" xml:space="preserve"><style>.st0{fill:#b2ddff}</style><path class="st0" d="M40 74.4C21 74.4 5.6 58.9 5.6 40 5.6 21 21 5.6 40 5.6S74.4 21 74.4 40C74.4 58.9 59 74.4 40 74.4zm0-65.7C22.8 8.7 8.7 22.7 8.7 40s14 31.3 31.3 31.3 31.3-14 31.3-31.3S57.2 8.7 40 8.7z"/><path class="st0" d="M29.5 38.1c-1.2 0-2.2-1-2.2-2.2v-9c0-1.2 1-2.2 2.2-2.2s2.2 1 2.2 2.2v9c.1 1.2-.9 2.2-2.2 2.2zM50.5 38.1c-1.2 0-2.2-1-2.2-2.2v-9c0-1.2 1-2.2 2.2-2.2s2.2 1 2.2 2.2v9c0 1.2-1 2.2-2.2 2.2zM40 55.9c-6.4 0-12.2-3.1-15.6-8.2-.3-.5-.2-1.2.3-1.6.5-.3 1.2-.2 1.6.3 3 4.5 8.1 7.2 13.7 7.2s10.8-2.7 13.7-7.2c.3-.5 1-.7 1.6-.3s.7 1 .3 1.6c-3.4 5.1-9.2 8.2-15.6 8.2z"/></svg>