<svg version="1.1" id="图层_1" xmlns="http://www.w3.org/2000/svg" x="0" y="0" width="30" height="40" xml:space="preserve"><style>.st0{fill:#fff}</style><path class="st0" d="M9.6 32.8h10.7c.9 0 1.6.7 1.6 1.6 0 .9-.7 1.6-1.6 1.6H9.6c-.9 0-1.6-.7-1.6-1.6 0-.9.7-1.6 1.6-1.6zm0 0M11.3 37.1h7.1c.6 0 1.1.7 1.1 1.5s-.5 1.5-1.1 1.5h-7.1c-.6 0-1.1-.7-1.1-1.5.1-.9.6-1.5 1.1-1.5zm0 0M15 0C6.7 0 0 6.7 0 15c0 5.5 3.1 10.6 7.9 13.2v2.2c0 .6.5 1.2 1.2 1.2h11.8c.6 0 1.2-.5 1.2-1.2v-2.2C26.9 25.6 30 20.5 30 15c0-8.3-6.8-15-15-15zm-3 25.1l2.4-9.7H7.7L17.9 4l-2.6 9.9h6.4L12 25.1z"/></svg>