<svg version="1.1" id="图层_1" xmlns="http://www.w3.org/2000/svg" x="0" y="0" width="40" height="40" xml:space="preserve"><style>.st0{fill:#fff}</style><path class="st0" d="M39.4 3.6C39 3.2 38.5 3 38 3h-6v3c0 1.7-1.3 3-3 3s-3-1.3-3-3V3h-3v3c0 1.7-1.3 3-3 3s-3-1.3-3-3V3h-3v3c0 1.7-1.3 3-3 3S8 7.7 8 6V3H2C.9 3 0 3.9 0 5v33c0 .5.2 1 .6 1.4.4.4.9.6 1.4.6h29c-1.8 0-3.4-1.2-3.9-2.9-.3.1-.7.1-1.1.1-.3 0-.7 0-1-.1-1.1-.2-2-.9-2.6-1.9-.6-1-.7-2.1-.4-3.2.2-.6.5-1.2.9-1.7-.5-.5-.9-1.1-1.1-1.8-.3-1.1-.2-2.2.4-3.2.9-1.5 2.7-2.3 4.5-1.9.5-1.8 2-3.1 3.9-3.1 1.8 0 3.5 1.2 4 2.9.7-.2 1.4-.2 2.1 0 1.1.2 2 .9 2.6 1.9.6 1 .7 2.1.4 3.2-.2.6-.5 1.2-1 1.6 1.3 1.3 1.6 3.4.7 5-.8 1.3-2.1 2-3.6 2-.3 0-.6 0-.9-.1-.5 1.8-2.1 3.1-4 3.1h7c.5 0 1-.2 1.4-.6.5-.3.7-.8.7-1.3V5c0-.5-.2-1-.6-1.4zM7.5 30c-.8 0-1.5-.7-1.5-1.5S6.7 27 7.5 27s1.5.7 1.5 1.5S8.3 30 7.5 30zm0-5c-.8 0-1.5-.7-1.5-1.5S6.7 22 7.5 22s1.5.7 1.5 1.5S8.3 25 7.5 25zm0-5c-.8 0-1.5-.7-1.5-1.5S6.7 17 7.5 17s1.5.7 1.5 1.5S8.3 20 7.5 20zm0-5c-.8 0-1.5-.7-1.5-1.5S6.7 12 7.5 12s1.5.7 1.5 1.5S8.3 15 7.5 15zm5 15c-.6 0-1.2-.4-1.4-.9-.2-.6-.1-1.2.3-1.6.4-.4 1.1-.6 1.6-.3.6.2.9.8.9 1.4.1.7-.6 1.4-1.4 1.4zm0-5c-.6 0-1.2-.4-1.4-.9-.2-.6-.1-1.2.3-1.6.4-.4 1.1-.6 1.6-.3.6.2.9.8.9 1.4.1.7-.6 1.4-1.4 1.4zm0-5c-.6 0-1.2-.4-1.4-.9-.2-.6-.1-1.2.3-1.6.4-.4 1.1-.6 1.6-.3.6.2.9.8.9 1.4.1.7-.6 1.4-1.4 1.4zm0-5c-.6 0-1.2-.4-1.4-.9-.2-.6-.1-1.2.3-1.6.4-.4 1.1-.6 1.6-.3.6.2.9.8.9 1.4.1.7-.6 1.4-1.4 1.4zm5 5c-.6 0-1.2-.4-1.4-.9-.2-.6-.1-1.2.3-1.6.4-.4 1.1-.6 1.6-.3.6.2.9.8.9 1.4.1.7-.6 1.4-1.4 1.4zm0-5c-.6 0-1.2-.4-1.4-.9-.2-.6-.1-1.2.3-1.6.4-.4 1.1-.6 1.6-.3.6.2.9.8.9 1.4.1.7-.6 1.4-1.4 1.4zm5 0c-.6 0-1.2-.4-1.4-.9-.2-.6-.1-1.2.3-1.6.4-.4 1.1-.6 1.6-.3.6.2.9.8.9 1.4.1.7-.6 1.4-1.4 1.4zm5 0c-.6 0-1.2-.4-1.4-.9-.2-.6-.1-1.2.3-1.6.4-.4 1.1-.6 1.6-.3.6.2.9.8.9 1.4.1.7-.6 1.4-1.4 1.4z"/><path class="st0" d="M29 7c.3 0 .5-.1.7-.3.2-.2.3-.4.3-.7V1c0-.6-.4-1-1-1s-1 .4-1 1v5c0 .3.1.5.3.7.2.2.4.3.7.3zM20 7c.3 0 .5-.1.7-.3.2-.2.3-.4.3-.7V1c0-.6-.4-1-1-1s-1 .4-1 1v5c0 .6.4 1 1 1zM34.5 33.6c.6-.6 1-1.4 1.3-2.2.1-.2.1-.4.1-.7v-1.4c-.1-1.1-.7-2.2-1.5-3-.2-.2-.3-.3-.5-.4l-.3-.2-.6-.3-.3-.1c-.2-.1-.4-.1-.7-.2-.3-.1-.6-.1-1-.1-.8 0-1.5.2-2.2.5l-.3.2c-.2.1-.4.2-.5.3l-.3.2c-1 .8-1.7 2.1-1.8 3.4v.4c0 .2 0 .4.1.6v.3c0 .2.1.5.2.7.3 1 .9 1.8 1.7 2.4l.2.2.6.3.3.1c1.2.5 2.5.5 3.7 0l.3-.1.6-.3.4-.2c.2-.1.4-.3.5-.4zM11 7c.3 0 .5-.1.7-.3.2-.2.3-.4.3-.7V1c0-.6-.4-1-1-1s-1 .4-1 1v5c0 .3.1.5.3.7.2.2.4.3.7.3z"/></svg>