<svg version="1.1" id="图层_1" xmlns="http://www.w3.org/2000/svg" x="0" y="0" width="40" height="40" xml:space="preserve"><style>.st0{fill:#fff}</style><circle transform="matrix(.9992 -.04039 .04039 .9992 -.344 .815)" class="st0" cx="20" cy="8.9" r="8.9"/><path class="st0" d="M20 19.1l-2.6 2.3 2 1.9-.3 1.3h1.8l-.3-1.3 2-1.9zM38.8 30.3l-5.1-4.2c-.6-.5-1.4-.1-1.4.7v1.4H17.9c-.9 0-1.6.7-1.6 1.6v2.4c0 .9.7 1.6 1.6 1.6h14.4v1.4c0 .7.8 1.1 1.4.7l5.1-4.2c.4-.4.4-1.1 0-1.4z"/><path class="st0" d="M39.1 38.2h-6c-.6.1-1.3-.3-1.3-1.1v-1.5h-15c-1.1 0-2-.9-2-2v-5.1c0-1.1.9-2 2-2h15v-.8c0-.8.8-1.3 1.5-1-2.5-2.9-4.9-5.6-5.5-5.6h-1.9v5.5H14.1v-5.5h-1.9c-1.2.1-9.6 10.5-11 12.5-.9 1.3-1.6 3-.7 4.5 1.2 1.9 4 2.1 5.9 2.2H.9c-.5 0-.9.4-.9.9s.4.8.9.8h38.2c.5 0 .9-.4.9-.9s-.4-.9-.9-.9z"/></svg>