<svg version="1.1" id="图层_1" xmlns="http://www.w3.org/2000/svg" x="0" y="0" width="40" height="40" xml:space="preserve"><style>.st0{fill:#fff}</style><path class="st0" d="M12.1 13.1c3.6 0 6.6-2.9 6.6-6.6 0-3.6-2.9-6.6-6.6-6.6-3.6.1-6.5 3-6.5 6.7 0 3.6 2.9 6.5 6.5 6.5zM33.9 36.9c.5 0 .8-.4.8-.8 0-.5-.4-.8-.8-.8-.5 0-.8.4-.8.8s.4.8.8.8zM17.5 35.1c-.5 0-.9.4-.9.9s.4.9.9.9h15.1c-.2-.3-.3-.6-.3-.9 0-.3.1-.7.3-.9H17.5zM35.2 35.1l4.7-11.6c.2-.5 0-1-.5-1.2-.5-.2-1 0-1.2.5l-4.7 11.7h.4c.6-.1 1 .2 1.3.6zM40 39.1c0 .5-.4.9-.9.9h-25c-.5 0-.9-.4-.9-.9s.4-.9.9-.9h25c.5-.1.9.3.9.9z"/><path class="st0" d="M23.4 26.7h-9.8c-.1 0-.1 0-.2-.1l-1.2-1.4s-.1-.1-.1-.2v-3c0-2.2-.7-4.4-2.1-6.1-4.8-6-10 1-10 5.7v16.3C0 39.1.9 40 2.1 40H12c.1 0 .1 0 .2-.1.4-.4.7-1.4.7-2.7 0-1.2-.3-2.3-.6-2.7-.1-.1-.2-.2-.3-.2-1.4 0-2.5-.6-3.3-1.6l-2.8-3.4c-.1-.1-.1-.3 0-.3l.8-.7c.1-.1.3-.1.3 0l2.8 3.4c.6.7 1.4 1.1 2.3 1.1h11.1c1.7 0 3.2-1.2 3.2-2.9.1-1.8-1.3-3.2-3-3.2z"/></svg>