<svg version="1.1" id="图层_1" xmlns="http://www.w3.org/2000/svg" x="0" y="0" width="40" height="39.4" xml:space="preserve"><style>.st0{fill:#fff}</style><path class="st0" d="M20 16.2c4.5 0 8.1-3.6 8.1-8.1S24.5 0 20 0s-8.1 3.6-8.1 8.1 3.6 8.1 8.1 8.1zM20 30.2c.5-.8 1.2-1.4 2-1.8l-1.5-7 1.8-1.8-2.3-2.3-2.4 2.4 1.8 1.8-1.5 7c.9.4 1.6 1 2.1 1.7z"/><path class="st0" d="M7.6 36.3H16c1.9 0 3.5-1.6 3.5-3.5s-1.6-3.5-3.5-3.5H8.9V28H16c.7 0 1.4.1 2 .4l-3.3-5.2v-5.9h-1.8c-1.1.1-8.8 10.5-10 12.4-.8 1.2-1.5 3-.7 4.4 1.1 2 3.7 2.2 5.4 2.2zM39.1 39.4H.9c-.5 0-.9-.4-.9-.9s.4-.9.9-.9h38.2c.5 0 .9.4.9.9s-.4.9-.9.9zM26.9 19c.5-.3 1.1-.4 1.7-.4-.7-.7-1.2-1.2-1.4-1.2h-1.8v3.2c.3-.7.8-1.3 1.5-1.6zM37.5 30.4v4.2c.1-.1.2-.3.3-.4.7-1.2.3-2.6-.3-3.8zM35.1 28.1c0-1-1.6-2.5-4.2-3.9-.9.9-2.2 1.3-3.4.9-.9-.3-1.7-1-2.1-1.9l-3.3 5.2c.6-.3 1.3-.4 2-.4h7.1v1.3H24c-1.9 0-3.5 1.6-3.5 3.5s1.6 3.5 3.5 3.5h8.4c.8 0 1.7-.1 2.6-.3v-7.9z"/><path class="st0" d="M31.2 22.1c4 2.3 5.7 3.7 5.7 6v10.4h-1.3V28.1c0-1.4-1.9-3.1-5-4.6-.7 1-1.9 1.4-3.1 1-1.1-.4-1.9-1.4-1.9-2.6 0-1 .6-2 1.5-2.4.9-.5 2-.4 2.8.1.9.5 1.4 1.5 1.3 2.5z"/></svg>