<svg version="1.1" id="图层_1" xmlns="http://www.w3.org/2000/svg" x="0" y="0" width="75.3" height="75.3" xml:space="preserve"><style>.st2{fill:#e54038}</style><circle cx="37.6" cy="37.6" r="14.9" fill="#adadad"/><path d="M37.6 52.6c-8.3 0-15-6.7-15-15s6.7-15 15-15 15 6.7 15 15-6.7 15-15 15zm0-29.8c-8.2 0-14.8 6.7-14.8 14.8s6.7 14.8 14.8 14.8c8.2 0 14.8-6.7 14.8-14.8s-6.6-14.8-14.8-14.8z"/><circle cx="37.6" cy="37.6" r="11" opacity=".7"/><path class="st2" d="M59.3 6.8C42.3-5.1 18.8-1 6.8 16-5.1 33-1 56.5 16 68.4s40.5 7.8 52.4-9.2c12-16.9 7.9-40.4-9.1-52.4zM19.8 63c-14-9.9-17.4-29.2-7.6-43.2 9.9-14 29.2-17.4 43.2-7.6 14 9.9 17.4 29.2 7.6 43.2-9.8 14.1-29.2 17.5-43.2 7.6z"/><path class="st2" d="M65.1 52.9L46.4 39.8c-2.3-1.6-2.9-4.8-1.2-7.1L58.3 14c1-1.5.7-3.5-.8-4.6-1.5-1-3.5-.7-4.6.8L39.8 28.9c-1.6 2.3-4.8 2.9-7.1 1.2L14 17.1c-1.5-1-3.5-.7-4.6.8-1 1.5-.7 3.5.8 4.6l18.7 13.1c2.3 1.6 2.9 4.8 1.2 7.1l-13 18.6c-1 1.5-.7 3.5.8 4.6 1.5 1 3.5.7 4.6-.8l13.1-18.7c1.6-2.3 4.8-2.9 7.1-1.2l18.7 13.1c1.5 1 3.5.7 4.6-.8.9-1.5.6-3.6-.9-4.6z"/><circle cx="37.6" cy="37.6" r="4.5" fill="#fabd08"/></svg>