<svg version="1.1" id="图层_1" xmlns="http://www.w3.org/2000/svg" x="0" y="0" width="25" height="103.4" xml:space="preserve"><style>.st1{fill:#e63b35}</style><path d="M10.6 57.6H0V46.8h10.6c1.3 0 2.3 1 2.3 2.3v6.2c0 1.2-1 2.3-2.3 2.3z" fill="#fabd08"/><path class="st1" d="M23.9 76.4L11.3 69c-.7-.7-3.3-1.7-3.3-2.7V39.6c0-1.9 0-3.5-1.8-3.5-1.7 0-2.2 1.6-2.2 3.5v27c0 .9.7 1.7 1.3 2.4l11 7.5c.5.7.8 1.5.8 2.4v19.9c0 2.6 1.4 4.7 3.7 4.7 2.3 0 4.2-2.1 4.2-4.7V79.1c0-1.1-.4-2-1.1-2.7z"/><path class="st1" d="M23.9 27l-12.6 7.4c-.7.7-3.3 1.7-3.3 2.7v26.7c0 1.9 0 3.5-1.8 3.5-1.7 0-2.2-1.6-2.2-3.5v-27c0-.9.7-1.7 1.3-2.4l11-7.5c.5-.7.8-1.5.8-2.4V4.7c0-2.6 1.4-4.7 3.7-4.7C23.1 0 25 2.1 25 4.7v19.6c0 1.1-.4 2-1.1 2.7z"/><path transform="rotate(90 17.337 52.153)" class="st1" d="M14.6 47.7H20v8.9h-5.4z"/><path transform="rotate(90 21.069 51.513)" class="st1" d="M-5.8 47.6H48v7.9H-5.8z"/></svg>