<svg version="1.1" id="图层_1" xmlns="http://www.w3.org/2000/svg" x="0" y="0" width="278.4" height="195.5" xml:space="preserve"><style>.st0{fill:#747577}.st1{fill:#b2b2b2}.st2{fill:#d6d7d7}.st3{fill:#878787}.st5{opacity:.2;fill:#212333}.st6{fill:#757671}.st7{fill:#bababa}.st8{fill:#959596}.st10{fill:#fff}.st12{fill:#c4c4c4}</style><switch><g><path class="st0" d="M25 56.2v93.7L66.1 195v-93.7z"/><path class="st1" d="M25 49.2v93.6l41.1 45.1V94.3z"/><path class="st2" d="M66.1 45.6H278v142.3H66.1z"/><path class="st3" d="M66.1 187.9H278v7.2H66.1z"/><path fill="#cdcec6" d="M66.1 45.6H278v10.7H66.1z"/><path class="st5" d="M25 89.1v10.7l41.1 45.1v-10.7z"/><path class="st6" d="M25 3.4v93.7l41.1 45.1V48.5z"/><path class="st1" d="M25 1.9v93.6l41.1 45.1V47z"/><path class="st6" d="M25 1.9v10.7l41.1 45.1V47z"/><path class="st7" d="M66.1 45.6L25 .5h211.9L278 45.6z"/><path class="st5" d="M66.1 141.9H278v2.8H66.1z"/><path class="st6" d="M66.1 47.5H278v10.3H66.1z"/><path class="st2" d="M66.1 45.6H278v10.7H66.1z"/><path class="st3" d="M66.1 140.6H278v1.3H66.1z"/><path class="st5" d="M77.4 66.7h45.8v71.8H77.4z"/><path class="st2" d="M76 65h45.8v71.8H76z"/><path class="st8" d="M122.2 137.1H75.7V64.6h46.5v72.5zm-45.8-.6h45.1V65.3H76.4v71.2z"/><path class="st7" d="M79.9 115.1h1.5v16.4h-1.5zm3.1 0h1.5v16.4H83zm3 0h1.5v16.4H86zm3 0h1.5v16.4H89zm3.1 0h1.5v16.4h-1.5zm3 0h1.5v16.4h-1.5zm3.1 0h1.5v16.4h-1.5zm3 0h1.5v16.4h-1.5zm3.1 0h1.5v16.4h-1.5zm3 0h1.5v16.4h-1.5zm3.1 0h1.5v16.4h-1.5zm3 0h1.5v16.4h-1.5zm3 0h1.5v16.4h-1.5z"/><path class="st0" d="M278 195.5H66.1c-.1 0-.3-.1-.3-.2l-41.1-45.2c-.1-.1-.1-.2-.1-.3V.5c-.1-.3.1-.5.4-.5h211.9c.1 0 .3.1.3.1l41.1 45.1c.1.1.1.2.1.3V195c0 .3-.2.5-.4.5zm-211.7-.9h211.3V45.7L236.7.9H25.4v148.8l40.9 44.9z"/><path class="st6" d="M278 188.3H65.9l-.2-.1-41.1-45.1.7-.6 41 44.9H278z"/><ellipse class="st2" cx="212.2" cy="31.1" rx="19" ry="4.2"/><path d="M212.2 35.5c-9.4 0-19.3-1.6-19.3-4.5s10-4.5 19.3-4.5 19.3 1.6 19.3 4.5c0 3-10 4.5-19.3 4.5zm0-8.3c-11 0-18.7 2-18.7 3.9 0 1.8 7.7 3.9 18.7 3.9s18.7-2 18.7-3.9-7.7-3.9-18.7-3.9z" fill="#e6e6e6"/><path class="st2" d="M193.1 31.1V14.2h38.1v16.9"/><path class="st0" d="M231.6 31.1h-.8V14.6h-37.3v16.5h-.8V13.8h38.9z"/><ellipse class="st1" cx="212.2" cy="14.2" rx="23.5" ry="8"/><path class="st0" d="M212.2 22.6c-13.4 0-23.9-3.7-23.9-8.4s10.5-8.4 23.9-8.4c13.4 0 23.9 3.7 23.9 8.4s-10.5 8.4-23.9 8.4zm0-16c-12.5 0-23.1 3.5-23.1 7.6s10.6 7.6 23.1 7.6 23.1-3.5 23.1-7.6-10.6-7.6-23.1-7.6z"/><path class="st5" d="M223.4 66.7h45.8v71.8h-45.8z"/><path class="st2" d="M222 65h45.8v71.8H222z"/><path class="st8" d="M268.2 137.1h-46.5V64.6h46.5v72.5zm-45.9-.6h45.1V65.3h-45.1v71.2z"/><path class="st7" d="M225.9 115.1h1.5v16.4h-1.5zm3 0h1.5v16.4h-1.5zm3.1 0h1.5v16.4H232zm3 0h1.5v16.4H235zm3.1 0h1.5v16.4h-1.5zm3 0h1.5v16.4h-1.5zm3.1 0h1.5v16.4h-1.5zm3 0h1.5v16.4h-1.5zm3 0h1.5v16.4h-1.5zm3.1 0h1.5v16.4h-1.5zm3 0h1.5v16.4h-1.5zm3.1 0h1.5v16.4h-1.5zm3 0h1.5v16.4h-1.5z"/><path class="st5" d="M126.1 66.7h45.8v71.8h-45.8z"/><path class="st2" d="M124.7 65h45.8v71.8h-45.8z"/><path class="st8" d="M170.8 137.1h-46.5V64.6h46.5v72.5zm-45.8-.6h45.1V65.3H125v71.2z"/><path class="st7" d="M128.6 115.1h1.5v16.4h-1.5zm3 0h1.5v16.4h-1.5zm3.1 0h1.5v16.4h-1.5zm3 0h1.5v16.4h-1.5zm3 0h1.5v16.4h-1.5zm3.1 0h1.5v16.4h-1.5zm3 0h1.5v16.4h-1.5zm3.1 0h1.5v16.4h-1.5zm3 0h1.5v16.4h-1.5zm3.1 0h1.5v16.4H156zm3 0h1.5v16.4H159zm3.1 0h1.5v16.4h-1.5zm3 0h1.5v16.4h-1.5z"/><path class="st5" d="M174.7 66.7h45.8v71.8h-45.8z"/><path class="st2" d="M173.3 65h45.8v71.8h-45.8z"/><path class="st8" d="M219.5 137.1H173V64.6h46.5v72.5zm-45.8-.6h45.1V65.3h-45.1v71.2z"/><path class="st7" d="M177.2 115.1h1.5v16.4h-1.5zm3.1 0h1.5v16.4h-1.5zm3 0h1.5v16.4h-1.5zm3.1 0h1.5v16.4h-1.5zm3 0h1.5v16.4h-1.5zm3.1 0h1.5v16.4h-1.5zm3 0h1.5v16.4h-1.5zm3 0h1.5v16.4h-1.5zm3.1 0h1.5v16.4h-1.5zm3 0h1.5v16.4h-1.5zm3.1 0h1.5v16.4h-1.5zm3 0h1.5v16.4h-1.5zm3.1 0h1.5v16.4h-1.5z"/><path class="st10" d="M66.1 141.1c-.3 0-.5-.2-.5-.5V61.4c0-.3.2-.5.5-.5s.5.2.5.5v79.2c-.1.3-.3.5-.5.5z"/><path class="st5" d="M66.1 57.7H278v3.6H66.1zM25 5.6v10.7l41.1 45.1V50.7z"/><path class="st1" d="M25 .5v10.6l41.1 45.1V45.6z"/><path class="st10" d="M278 46H66.1c-.1 0-.3-.1-.3-.1L24.6.8c-.2-.2-.2-.5 0-.6.2-.2.5-.2.6 0l40.9 45H278c.3 0 .5.2.5.5s-.3.3-.5.3z"/><path class="st10" d="M66.1 56.3c-.3 0-.5-.2-.5-.5V45.6c0-.3.2-.5.5-.5s.5.2.5.5v10.3c-.1.2-.3.4-.5.4zm0 130.9c-.3 0-.5-.2-.5-.5v-41.3c0-.3.2-.5.5-.5s.5.2.5.5v41.3c-.1.2-.3.5-.5.5z"/><g><path class="st2" d="M33 54.9c-1.4 0-2.6 1.1-3.6 3H.3v17.5h29.1c1 1.8 2.2 3 3.6 3 3 0 5.4-5.2 5.4-11.7S36 54.9 33 54.9z"/><path class="st0" d="M33 78.7c-1.4 0-2.7-1-3.7-3H.3c-.2 0-.3-.1-.3-.3V57.9c0-.2.1-.3.3-.3h28.9c1.1-1.9 2.3-3 3.7-3 3.2 0 5.7 5.3 5.7 12S36.2 78.7 33 78.7zM.6 75.1h28.8c.1 0 .2.1.3.2 1 1.8 2.1 2.8 3.3 2.8 2.8 0 5.1-5.1 5.1-11.4S35.8 55.2 33 55.2c-1.2 0-2.4 1-3.3 2.8 0 .1-.1.2-.3.2H.6v16.9z"/><ellipse class="st12" cx="33" cy="66.5" rx="4.8" ry="10.6"/></g><g><path class="st2" d="M33 121.8c-1.4 0-2.6 1.1-3.6 3H.3v17.5h29.1c1 1.8 2.2 3 3.6 3 3 0 5.4-5.2 5.4-11.7S36 121.8 33 121.8z"/><path class="st0" d="M33 145.5c-1.4 0-2.7-1-3.7-3H.3c-.2 0-.3-.1-.3-.3v-17.5c0-.2.1-.3.3-.3h28.9c1.1-1.9 2.3-3 3.7-3 3.2 0 5.7 5.3 5.7 12 .1 6.8-2.4 12.1-5.6 12.1zM.6 142h28.8c.1 0 .2.1.3.2 1 1.8 2.1 2.8 3.3 2.8 2.8 0 5.1-5.1 5.1-11.4 0-6.3-2.3-11.4-5.1-11.4-1.2 0-2.4 1-3.3 2.8 0 .1-.1.2-.3.2H.6V142z"/><ellipse class="st12" cx="33" cy="133.4" rx="4.8" ry="10.6"/></g><g><circle cx="249.6" cy="159.2" r="27.9" fill="#fc3a3a"/><path class="st10" d="M252.5 164.4h-5.9l-.7-21.7h7.3z"/><circle class="st10" cx="249.6" cy="171" r="4.7"/></g></g></switch></svg>