<svg version="1.1" id="图层_1" xmlns="http://www.w3.org/2000/svg" x="0" y="0" width="262.7" height="257.1" xml:space="preserve"><style>.st3{fill:#b2b2b2}.st8{fill:#fff}</style><path d="M2.8.7h199.9v190.7H2.8z" fill="#d6d7d7"/><path class="st3" d="M202.7.7v190.6l59.5 65.4V66z"/><path fill="#4271b7" d="M60.2 81.5L.7 16.2h202l59.5 65.3z"/><path d="M202.7 16.2H.7l59.5 65.3h202.1l-59.6-65.3zM12 21.2h188.5l50.4 55.3H62.4L12 21.2z" opacity=".1"/><path class="st3" d="M.7.7v190.6l59.5 65.4V66z"/><path opacity=".74" fill="#4271b7" d="M60.4 81.5h201.8v175.2H60.4z"/><path opacity=".3" fill="#d6d7d7" d="M60.3 66h201.8v190.7H60.3z"/><path class="st8" d="M60.2 255.5c-.4 0-.7-.3-.7-.7V66c0-.4.3-.7.7-.7s.7.3.7.7v188.8c-.1.4-.4.7-.7.7z"/><path class="st8" d="M260.1 66.7H60.2c-.2 0-.4-.1-.5-.2L.2 1.1C0 .8 0 .4.2.2c.3-.2.7-.2.9 0l59.3 65.1h199.7c.4 0 .7.3.7.7s-.3.7-.7.7z"/><path d="M257.8 257.1H60.2c-.1 0-.3-.1-.3-.1L1.6 193c-.8-.9-1.3-2.1-1.3-3.3V.7C.3.4.5.2.8.2h202.1c.1 0 .3.1.3.1l59.5 65.3c.1.1.1.2.1.3v186.2c-.1 2.8-2.3 5-5 5zm-197.4-.9h197.4c2.2 0 4-1.8 4-4v-186l-59.3-65H1.1v188.5c0 1 .4 2 1 2.7l58.3 63.8z" fill="#747577"/></svg>