<svg version="1.1" id="图层_1" xmlns="http://www.w3.org/2000/svg" x="0" y="0" width="82" height="38" xml:space="preserve"><style>.st2{opacity:.4}</style><circle transform="rotate(-.992 20.283 19.154) scale(1.00005)" cx="20.3" cy="19.2" fill="#adadad" stroke="#000" stroke-width=".112" stroke-miterlimit="10" r="18.2"/><circle transform="matrix(.9996 -.02951 .02951 .9996 -.556 .607)" cx="20.3" cy="19.2" fill="#c1c1c1" r="10.1"/><path class="st2" d="M39 19C39 8.5 30.5 0 20 0S1 8.5 1 19s8.5 19 19 19 19-8.5 19-19zM4 19c0-8.8 7.2-16 16-16s16 7.2 16 16-7.2 16-16 16S4 27.8 4 19z"/><path d="M75.1 12H6.9C3.1 12 0 15.1 0 19s3.1 7 6.9 7h68.3c3.8 0 6.9-3.1 6.9-7-.1-3.9-3.2-7-7-7z" fill="#e54038"/><path d="M38.4 12.4h-1.7c-3.7 0-6.8 3-6.8 6.8 0 3.7 3 6.8 6.8 6.8h1.7c3.7 0 6.8-3 6.8-6.8s-3-6.8-6.8-6.8z" opacity=".7"/><circle transform="rotate(-2.966 20.283 19.155) scale(1.00004)" cx="20.3" cy="19.2" fill="#fbc118" r="6.1"/><path class="st2" d="M26.4 19.2c0-3.4-2.7-6.1-6.1-6.1-3.4 0-6.1 2.7-6.1 6.1 0 3.4 2.7 6.1 6.1 6.1 3.3-.1 6.1-2.8 6.1-6.1zm-7.8-1.5c0-1.9 1.6-3.5 3.5-3.5s3.5 1.6 3.5 3.5-1.6 3.5-3.5 3.5c-2 0-3.5-1.6-3.5-3.5z"/></svg>