<svg version="1.1" id="图层_1" xmlns="http://www.w3.org/2000/svg" xmlns:xlink="http://www.w3.org/1999/xlink" x="0" y="0" width="258.9" height="200.6" xml:space="preserve"><style>.st0{fill:#b2b2b2}.st3{fill:#747577}.st4{fill:#b2b2b2}.st4,.st5{clip-path:url(#SVGID_2_)}.st5,.st6{fill:#d6d7d7}.st7{fill:#bababa}.st8{opacity:.7}.st9{fill:#fff}.st12{fill:#adadad}.st13{fill:#cecece}.st14{fill:#eaeaea}.st19{fill:#7b7c7c}.st22{fill:#e8e8e8}.st23{fill:#c4c4c4}</style><switch><g><path class="st0" d="M56.3 60.6l-45.9-45-1.2.8v137.5l41.4 40.3 5.5 4.2.2-137.8z"/><path fill="#969696" d="M50.1 188.1l-38.2-37.6V26.2l38.5 38.1z"/><path fill="#828282" d="M50.1 188.1l-38.2-37.6.1-124.3 1.1 1.2.4 122.4 36.7 35.9z"/><path class="st3" d="M50.1 188.5c-.1 0-.2 0-.3-.1l-38.2-37.6c-.1-.1-.1-.2-.1-.3V26.2c0-.2.1-.3.3-.4.2-.1.3 0 .4.1L50.7 64c.1.1.1.2.1.3l-.3 123.8c0 .2-.1.3-.3.4h-.1zm-37.8-38.2l37.4 36.8.3-122.6-37.7-37.4v123.2z"/><defs><path id="SVGID_1_" d="M50.1 188.1l-38.2-37.6V26.2l38.5 38.1z"/></defs><clipPath id="SVGID_2_"><use xlink:href="#SVGID_1_" overflow="visible"/></clipPath><path class="st4" d="M17.8 24.1l.4 132.4-2.8 2.7-.2-132.6z"/><path class="st5" d="M15.2 26.6l.3 132.6-1.2-1.2-.7-129.8z"/><path class="st4" d="M24.2 30.5l.4 132.4-2.8 2.7L21.6 33z"/><path class="st5" d="M21.6 33l.3 132.6-1.2-1.2L20 34.6z"/><path class="st4" d="M30.6 36.9l.4 132.4-2.8 2.7L28 39.4z"/><path class="st5" d="M28 39.4l.3 132.6-1.2-1.2L26.4 41z"/><path class="st4" d="M37 43.3l.4 132.4-2.8 2.7-.2-132.6z"/><path class="st5" d="M34.4 45.8l.3 132.6-1.2-1.2-.7-129.8z"/><path class="st4" d="M43.3 49.7l.5 132.3-2.8 2.8-.3-132.6z"/><path class="st5" d="M40.7 52.2l.3 132.6-1.1-1.2-.7-129.8z"/><path class="st4" d="M49.7 56.1l.5 132.3-2.8 2.8-.3-132.6z"/><path class="st5" d="M47.1 58.6l.3 132.6-1.1-1.2-.7-129.8z"/><path class="st0" d="M50.2 157.9L12 120.3l.1-3.9 38.2 37.9z"/><path class="st6" d="M50.3 154.3L12 116.4h1.7l36.6 35.7zm208.1 42.8l-4.8 3.5H61.2l-4.9-1.8.1-138h199.8l1.8 5.5z"/><path class="st7" d="M256.2 60.8H56l-46.1-45 2.7-1.4H206l2.4.6z"/><g class="st8"><path transform="rotate(-44.863 33.395 38.268)" class="st9" d="M33 5.4h.9v65.7H33z"/></g><g class="st8"><path class="st9" d="M56.4 60.3h198.9v.9H56.4z"/></g><g class="st8"><path class="st9" d="M56 60.8h.9v138.1H56z"/></g><path class="st6" d="M63.4 66.9h184.4v90.4H63.4z"/><path opacity=".2" fill="#212333" d="M67.3 70.6l-.3 86.6h-3.4V66.9h183v4z"/><path fill="#d6d6d2" d="M245.6 154.6l.3-87.7h1.9v90.3H63.4v-2.9z"/><path class="st3" d="M248.2 157.6h-185V154h.3l181.9.3.2-87.7h2.6v91zm-184.4-.7h183.8V67.2h-1.3l-.2 87.7h-.3l-181.9-.3v2.3z"/><path class="st3" d="M247.8 157.7H63.4c-.2 0-.4-.2-.4-.4V66.9c0-.2.2-.4.4-.4h184.4c.2 0 .4.2.4.4v90.4c.1.2-.1.4-.4.4zm-183.9-.9h183.5V67.3H63.9v89.5z"/><path class="st6" d="M84.7 66.9h3v90.4h-3z"/><path class="st12" d="M88.2 157.7h-3.9V66.4h3.9v91.3zm-3.1-.9h2.2V67.3h-2.2v89.5z"/><path class="st6" d="M165.2 66.9h3v90.4h-3z"/><path class="st12" d="M168.6 157.7h-3.9V66.4h3.9v91.3zm-3-.9h2.2V67.3h-2.2v89.5z"/><path class="st6" d="M218.8 66.9h3v90.4h-3z"/><path class="st12" d="M222.3 157.7h-3.9V66.4h3.9v91.3zm-3-.9h2.2V67.3h-2.2v89.5z"/><path class="st6" d="M192 66.9h3v90.4h-3z"/><path class="st12" d="M195.5 157.7h-3.9V66.4h3.9v91.3zm-3.1-.9h2.2V67.3h-2.2v89.5z"/><path class="st6" d="M138.4 66.9h3v90.4h-3z"/><path class="st12" d="M141.8 157.7h-3.9V66.4h3.9v91.3zm-3-.9h2.2V67.3h-2.2v89.5z"/><path class="st6" d="M111.5 66.9h3v90.4h-3z"/><path class="st12" d="M115 157.7h-3.9V66.4h3.9v91.3zm-3-.9h2.2V67.3H112v89.5z"/><path class="st13" d="M63.8 165.3h183.7v2.6H63.8z"/><path class="st12" d="M248.3 168.6H63.1v-4h185.2v4zm-183.7-1.5h182.3V166H64.6v1.1z"/><path class="st13" d="M63.8 170.8h183.7v2.6H63.8z"/><path class="st12" d="M248.3 174.1H63.1v-4h185.2v4zm-183.7-1.5h182.3v-1.1H64.6v1.1z"/><path class="st13" d="M63.8 176.4h183.7v2.6H63.8z"/><path class="st12" d="M248.3 179.6H63.1v-4h185.2v4zm-183.7-1.4h182.3v-1.1H64.6v1.1z"/><path class="st13" d="M63.8 181.9h183.7v2.6H63.8z"/><path class="st12" d="M248.3 185.2H63.1v-4h185.2v4zm-183.7-1.5h182.3v-1.1H64.6v1.1z"/><path class="st13" d="M63.8 187.4h183.7v2.6H63.8z"/><path class="st12" d="M248.3 190.7H63.1v-4h185.2v4zm-183.7-1.5h182.3v-1.1H64.6v1.1z"/><path class="st0" d="M63.6 163.1h183.9v2H65.8l-.1 26.8h-2.1z"/><path class="st14" d="M247.5 191.9H63.6v-2h181.7l.1-26.8h2.1z"/><radialGradient id="SVGID_3_" cx="221.654" cy="37.842" r="20.768" gradientUnits="userSpaceOnUse"><stop offset="0" stop-color="#898784"/><stop offset="1" stop-color="#898784" stop-opacity="0"/></radialGradient><path fill="url(#SVGID_3_)" d="M242.3 56.7l-2.1 2.1L201 19l2.1-2.1z"/><g><path class="st3" d="M62.7 57L23.4 17l.6-.6 39.3 40z"/></g><g><path class="st3" d="M242.1 57l-39.4-40 .7-.6 39.3 40z"/></g><g><path class="st3" d="M63 56.2h179.4v.9H63z"/></g><path d="M247.8 192.2H63.4v-29.6h184.4v29.6zM64 191.7h183.2v-28.5H64v28.5z" fill="#7e7f7f"/><g><circle class="st6" cx="224.6" cy="169" r="22.6"/><path class="st3" d="M224.6 192c-12.7 0-23-10.3-23-23s10.3-23 23-23 23 10.3 23 23-10.3 23-23 23zm0-45.3c-12.3 0-22.3 10-22.3 22.3s10 22.3 22.3 22.3 22.3-10 22.3-22.3-10-22.3-22.3-22.3z"/></g><g><path fill="#295ba9" d="M225.1 166.8l9.3 3.2-17.6 15.4 6.9-12.7-8.9-3.3 16.5-16.7z"/><path class="st9" d="M215.7 186.7l7.5-13.9-8.9-3.4 18-18.3-6.7 15.4 9.4 3.3-19.3 16.9zm-.3-17.5l8.7 3.3-6.2 11.5 15.9-13.8-9.1-3.1 5.6-12.9-14.9 15z"/></g><path class="st3" d="M253.7 200.6H61.2l-4.9-1.7s-.1 0-.1-.1l-.6-.5-5.1-4.1-3.1-3c-.1 0-.2-.1-.3-.3L9 153.8c-.1-.1-.1-.2-.1-.3V16c0-.1.1-.3.2-.4l1.9-1.2 1.6-.8h193.7l2.3.6c.1 0 .1.1.2.1l47.8 45.8s.1.1.1.2l1.8 5.5v.1l.4 130.8c0 .1-.1.3-.2.3l-4.8 3.5c0 .1-.1.1-.2.1zm-192.4-.8h192.2l4.5-3.3-.4-130.5-1.8-5.4L208.3 15l-2.2-.5H12.8l-1.5.7-1.6 1v137.2l38.1 37.1 3.2 3.1 5.6 4.5 4.7 1.7z"/><g><path class="st6" d="M131.7 11.8c-24.4-1.1-44.8 4.2-49.3 12.1h.1l.1 6.9c4.7 8 24.3 14.7 48.1 15.8 24.8 1.1 45.5-4.4 49.5-12.5v-5.9h.1c-4.1-8.3-24.2-15.3-48.6-16.4z"/><path class="st19" d="M137 47c-2.1 0-4.2 0-6.3-.1-22.7-1-42.4-7.2-47.9-15.2-.1-.1-.1-.3.1-.4.1-.1.3-.1.4.1 5.4 7.8 25 13.9 47.4 14.9 22.9 1 43.4-3.7 48.6-11.3.1-.1.3-.2.4-.1.1.1.2.3.1.4C174.9 42.5 157.7 47 137 47z"/><path class="st7" d="M180.3 17.4c.4.9.6 1.9.6 2.8-.3 9.6-22.8 16.4-50.3 15.2-27.5-1.2-49.6-10-49.3-19.6 0-.8.2-1.5.5-2.3 3.5-8.4 24.5-14 49.8-12.9 24.8 1.1 45.1 8.3 48.7 16.8z"/><path class="st19" d="M136.8 36.1c-2 0-4.1 0-6.2-.1-28.2-1.2-50-10.1-49.7-20.1 0-.8.2-1.7.5-2.5C85 4.7 106.6-1 131.7.1c24.7 1.1 45.4 8.2 49.1 17 .4 1 .6 2 .6 3.1-.1 2.1-1.1 4.1-3.1 6-6.6 6.1-22.8 9.9-41.5 9.9zM125.4 1c-21.9 0-40 5.2-43.1 12.8-.3.7-.4 1.4-.5 2.1-.3 9.3 21.6 17.9 48.8 19.1 21 .9 39.9-2.9 47-9.5 1.8-1.7 2.7-3.4 2.8-5.3 0-.9-.2-1.8-.5-2.6-3.6-8.3-24.3-15.4-48.3-16.4-2.1-.2-4.2-.2-6.2-.2z"/><path d="M177.3 17.7c.4.8.5 1.5.5 2.3-.3 7.8-21.4 13.3-47.2 12.2-25.7-1.1-46.3-8.3-46-16.1 0-.6.2-1.3.5-1.9 3.3-6.8 23-11.4 46.7-10.4 23.1 1.1 42.1 7 45.5 13.9z" fill="#738b8c"/><path class="st0" d="M177.4 17.8c.4.8.5 1.5.5 2.3-.3 7.8-21.4 13.3-47.2 12.2-25.7-1.1-46.3-8.3-46-16.1 0-.6.2-1.3.5-1.9 3.3-6.8 23-11.4 46.7-10.4C155.1 5 174 11 177.4 17.8z"/><path class="st3" d="M138.1 32.7c-2.4 0-4.9 0-7.5-.1-25.9-1.1-46.6-8.5-46.3-16.5h.6c-.3 7.6 20.2 14.7 45.7 15.8 25.5 1.1 46.5-4.3 46.8-11.9 0-.4 0-.7-.1-1.1l.6-.1c.1.4.1.8.1 1.3-.2 7.1-17.6 12.4-39.9 12.6z"/><path class="st14" d="M177.4 18.9c-.1-.4-.2-.7-.4-1.1-3.3-6.8-22.7-12.7-45.2-13.6-23.2-1-43.1 3.4-46.4 10.2-.3.6-.4 1.2-.4 1.7h-.6c0-.7.2-1.3.5-2 3.4-7 23.6-11.5 47-10.5 23.1 1 42.3 6.8 45.7 14 .2.4.3.8.4 1.2l-.6.1z"/><path d="M141.1 17.3l-.2 6.2c0 1.5-4.3 2.6-9.6 2.4-5.2-.1-9.4-1.5-9.4-2.9l.2-6.2" fill="#a8a7a5"/><path class="st22" d="M122.1 19s-4.5-2.2-10.4-2.9c-5.9-.7-22.6-1-22.8-1.5-.2-.5 1.3-1.9 3-2.7 1.7-.8 3-1 6-.8 3 .2 6.9 1.2 12.7 2.7 5.8 1.5 11.5 3 11.5 3V19z"/><path class="st3" d="M122.1 19.3h-.2s-4.5-2.2-10.3-2.8c-2.8-.3-8-.6-12.6-.8-10-.5-10.3-.6-10.5-1-.3-.9 1.7-2.4 3.2-3.1 1.8-.9 3.2-1 6.1-.8 2.9.2 6.6 1.1 12.8 2.7l11.5 3c.2 0 .3.2.3.4l-.1 2.2c0 .1-.1.2-.2.3.1-.1 0-.1 0-.1zm-32.8-5c1.1.2 5.7.4 9.7.6 4.6.2 9.9.5 12.6.8 4.8.6 8.7 2.1 10 2.7V17l-11.2-2.9c-6.2-1.6-9.8-2.5-12.6-2.7-2.8-.2-4.1 0-5.8.8-1.3.7-2.4 1.7-2.7 2.1z"/><path class="st22" d="M133.6 14.4l-8.3.5s-3.7-2.7-7.8-4.7c-3.3-1.6-8-3.5-9.5-4.1-.3-.1-.3-.2.1-.3 1.5-.2 5.4-.8 9.5-.5 5.3.3 14.2 2.8 14.2 2.8s.5 1.2 1 2.9c.6 1.7.8 3.4.8 3.4z"/><path class="st3" d="M125.3 15.2c-.1 0-.2 0-.2-.1 0 0-3.7-2.7-7.7-4.6-3.4-1.6-8.1-3.5-9.5-4-.3-.1-.5-.3-.4-.6 0-.4.5-.4.7-.5 1.5-.2 5.4-.8 9.6-.5 5.3.3 14.1 2.8 14.2 2.8.1 0 .2.1.2.2 0 0 .5 1.2 1 2.9.6 1.7.7 3.4.7 3.5 0 .1 0 .2-.1.3-.1.1-.2.1-.3.1l-8.2.5c.1 0 0 0 0 0zM108.9 6c2 .8 5.9 2.4 8.8 3.8 3.7 1.8 7.1 4.2 7.7 4.6l7.7-.4c-.1-.6-.3-1.7-.6-2.9-.4-1.3-.8-2.3-.9-2.7-1.3-.3-9.1-2.4-13.9-2.7-3.6-.3-7 .1-8.8.3z"/><path class="st22" d="M123.5 22.5s-4.3-1.2-9.2-.4c-4.9.8-6.8 2.3-9.2 3-1.6.5-3.6.7-4.7.8-.4 0-.9 0-1.3-.2-.9-.3-2.7-1-4.7-1.9-2.8-1.3-4.7-2.9-4.7-2.9s6.2-.5 14.4-.9c8.2-.3 19.4-.7 19.4-.7v3.2z"/><path class="st3" d="M100.3 26.4c-.4 0-.8-.1-1.2-.2-.9-.3-2.8-1-4.7-1.9-2.8-1.3-4.7-2.8-4.8-2.9-.1-.1-.2-.3-.1-.4 0-.1.2-.2.3-.3.1 0 6.3-.5 14.4-.9 8.2-.3 19.4-.7 19.4-.7.1 0 .2 0 .3.1.1.1.1.2.1.3l-.1 3.1c0 .1-.1.2-.2.3s-.2.1-.3.1c0 0-4.3-1.2-9-.4-3.2.5-5.1 1.4-6.8 2.1-.8.4-1.5.7-2.3.9-1.7.5-3.7.7-4.8.8 0-.1-.1 0-.2 0zm-9.4-5c.8.6 2.2 1.5 3.8 2.2 1.9.9 3.7 1.6 4.6 1.9.3.1.8.2 1.1.1 1-.1 3-.3 4.6-.8.7-.2 1.4-.5 2.2-.9 1.6-.7 3.7-1.6 7-2.2 4-.6 7.6 0 8.9.3l.1-2.2c-2.1.1-11.8.4-19 .7-6.1.3-11.2.7-13.3.9z"/><path class="st22" d="M140.2 17.3l-6.7-2.2s4.3-2.5 6.3-5c1.6-1.8 2.4-3.5 2.8-4.1.1-.2.3-.4.6-.4 1.1 0 4.1.2 9.1 1.8 6.5 2 11.5 6.2 11.5 6.2s-3.4 1.5-7.4 2.2c-7.7 1.3-16.2 1.5-16.2 1.5z"/><path class="st3" d="M140.2 17.6h-.1l-6.7-2.2c-.1 0-.2-.2-.3-.3 0-.1.1-.3.2-.4 0 0 4.2-2.5 6.2-4.9 1.6-1.9 2.4-3.5 2.7-4.1.2-.4.5-.6 1-.6 1.1 0 4.1.2 9.2 1.8 6.5 2 11.6 6.2 11.6 6.3.1.1.1.2.1.3s-.1.2-.2.3c0 0-3.5 1.5-7.5 2.2-7.6 1.4-16.1 1.6-16.2 1.6zm-5.8-2.6l5.8 1.9c.8 0 8.8-.3 16.2-1.5 3-.5 5.6-1.5 6.8-1.9-1.4-1.1-5.7-4.2-10.9-5.7-5-1.5-8-1.7-9-1.7-.2 0-.2 0-.3.2-.3.6-1.2 2.3-2.8 4.2-1.6 1.8-4.4 3.6-5.8 4.5z"/><path class="st22" d="M170.9 25.1s-3.2.4-10.8-.5c-7.5-1-19.1-3.7-19.1-3.7V17s12.8-.8 19.4-1.8c5.3-.8 8.8-1.5 10-1.7.3-.1.6 0 .9.1 1.1.5 3.7 2.2 4.1 5.5.6 4.1-4.5 6-4.5 6z"/><path class="st3" d="M168.5 25.6c-1.8 0-4.5-.1-8.5-.6-7.5-1-19.1-3.7-19.2-3.8-.2 0-.3-.2-.3-.4v-3.9c0-.2.2-.4.3-.4.1 0 12.9-.8 19.4-1.8 5.2-.8 8.7-1.4 10-1.7.4-.1.8 0 1.1.2 1.1.6 3.9 2.3 4.3 5.8.6 4.4-4.7 6.4-4.8 6.5h-.1c.2 0-.6.1-2.2.1zm2.4-.5zm-29.6-4.5c1.8.4 12 2.8 18.8 3.7 6.9.9 10.2.6 10.6.5.5-.2 4.7-2 4.3-5.7-.4-3.1-2.9-4.7-3.9-5.2-.2-.1-.4-.1-.7-.1-1.3.2-4.8.9-10 1.7-5.9.9-17 1.7-19.1 1.8v3.3z"/><path class="st22" d="M146.4 30.8s-2.8-.9-5.2-2.3c-2.4-1.4-6.5-4.4-6.5-4.4s2.3-2 3.3-3.2c1.1-1.1 2.6-1.7 2.6-1.7s2.4.6 6.4 1.5 12.4 1.6 16.9 2.4c3.2.5 5.9 1.1 7.1 1.3.5.1.6.3.2.5-1 .6-3.3 1.7-8.3 3.1-7.1 2-16.5 2.8-16.5 2.8z"/><path class="st3" d="M146.4 31.2h-.1c-.1 0-2.9-.9-5.2-2.3-2.4-1.4-6.3-4.3-6.5-4.4-.1-.1-.1-.2-.1-.3 0-.1 0-.2.1-.3 0 0 2.3-2 3.3-3.2 1.1-1.2 2.6-1.7 2.7-1.8h.2s2.4.6 6.4 1.5c2.3.5 6.1 1 9.8 1.4 2.7.3 5.2.6 7.1.9 3.2.5 5.8 1 7.1 1.3.2 0 .7.1.8.5 0 .2 0 .4-.4.7-1 .6-3.4 1.7-8.4 3.1-7.2 2-16.7 2.9-16.8 2.9zm-11.1-7.1c1 .8 4.1 3 6.1 4.1 2.1 1.2 4.6 2.1 5 2.2.9-.1 9.8-.9 16.5-2.7 4.6-1.2 6.9-2.3 8-2.9-1.3-.3-3.9-.7-7-1.3-1.9-.3-4.4-.6-7-.9-3.7-.4-7.5-.9-9.9-1.4-3.5-.8-5.8-1.4-6.3-1.5-.3.1-1.5.6-2.3 1.5-.9.9-2.4 2.3-3.1 2.9z"/><path class="st22" d="M140.7 31c-1 .1-3.9.3-11.7-.1-11-.6-14.9-1.5-14.9-1.5s.5-1 2.7-2.4c2.2-1.3 9.9-4.8 9.9-4.8s1.1 0 4.4-.2c3.3-.2 4.1-.5 4.1-.5s.3 2.8 1.4 4.9c.9 1.6 3.2 3.6 4.2 4.3.3.1.4.2-.1.3z"/><path class="st3" d="M137.3 31.5c-1.8 0-4.5-.1-8.2-.3-10.9-.6-14.8-1.5-14.9-1.5-.1 0-.2-.1-.2-.2v-.3s.6-1.1 2.9-2.5c2.2-1.3 9.6-4.6 9.9-4.8h.2s1.2 0 4.4-.2c3.1-.2 4-.5 4.1-.5h.3c.1.1.2.2.2.3 0 0 .3 2.8 1.4 4.7.8 1.5 3.1 3.4 4.1 4.2.3.2.3.4.3.6-.1.3-.5.4-.7.4-.9 0-1.9.1-3.8.1zm-22.5-2.4c1.4.3 5.7.9 14.3 1.4 7 .4 10 .3 11.3.2-1.1-.9-3.1-2.6-3.9-4.1-.9-1.6-1.3-3.7-1.4-4.6-.5.1-1.7.3-3.8.4-2.8.2-4 .2-4.3.2-.8.4-7.7 3.5-9.8 4.7-1.3.7-2 1.4-2.4 1.8z"/><path class="st0" d="M141.5 16.7l-.2 6.2c0 1.5-4.3 2.6-9.6 2.4-5.2-.1-9.4-1.5-9.4-2.9l.2-6.2"/><path class="st6" d="M122.3 18.1s-4.5-2.2-10.4-2.9c-5.9-.7-22.6-1-22.8-1.5-.2-.5 1.3-1.9 3-2.7 1.7-.8 3-1 6-.8 3 .2 6.9 1.2 12.7 2.7 5.8 1.5 11.5 3 11.5 3v2.2z"/><path class="st19" d="M122.3 18.5h-.2s-4.5-2.2-10.3-2.8c-2.8-.3-8-.6-12.6-.8-10-.5-10.3-.6-10.5-1-.3-.9 1.7-2.4 3.2-3.1 1.8-.9 3.2-1 6.1-.8 2.9.2 6.6 1.1 12.8 2.7l11.5 3c.2 0 .3.2.3.4l-.1 2.2c0 .1-.1.2-.2.3.1-.2 0-.1 0-.1zm-32.8-5.1c1.1.2 5.7.4 9.8.6 4.6.2 9.8.5 12.6.8 4.8.6 8.7 2.1 10 2.7v-1.4l-11.2-2.9c-6.2-1.6-9.8-2.5-12.6-2.7-2.8-.2-4.1 0-5.8.8-1.4.7-2.5 1.7-2.8 2.1z"/><path class="st6" d="M133.8 13.5l-8.3.5s-3.7-2.7-7.8-4.7c-3.3-1.6-8-3.5-9.5-4.1-.3-.1-.3-.2.1-.3 1.5-.2 5.4-.8 9.5-.5 5.3.3 14.2 2.8 14.2 2.8s.5 1.2 1 2.9c.6 1.8.8 3.4.8 3.4z"/><path class="st19" d="M125.5 14.3c-.1 0-.2 0-.2-.1 0 0-3.7-2.7-7.7-4.6-3.4-1.6-8.1-3.5-9.5-4-.3-.1-.5-.3-.4-.6 0-.4.5-.4.7-.5 1.5-.2 5.4-.8 9.6-.5 5.3.3 14.1 2.8 14.2 2.8.1 0 .2.1.2.2 0 0 .5 1.2 1 2.9.6 1.7.7 3.4.7 3.5 0 .1 0 .2-.1.3-.1.1-.2.1-.3.1l-8.2.5zm-16.4-9.1c2 .8 5.9 2.4 8.8 3.8 3.7 1.8 7.1 4.2 7.7 4.6l7.7-.4c-.1-.6-.3-1.7-.6-2.9-.4-1.3-.8-2.3-.9-2.7-1.3-.3-9.1-2.4-13.9-2.7-3.6-.4-7 0-8.8.3z"/><path class="st6" d="M123.7 21.7s-4.3-1.2-9.2-.4c-4.9.8-6.8 2.3-9.2 3-1.6.5-3.6.7-4.7.8-.4 0-.9 0-1.3-.2-.9-.3-2.7-1-4.7-1.9-2.8-1.3-4.7-2.9-4.7-2.9s6.2-.5 14.4-.9c8.2-.3 19.4-.7 19.4-.7v3.2z"/><path class="st19" d="M100.5 25.5c-.4 0-.8-.1-1.2-.2-.9-.3-2.8-1-4.7-1.9-2.8-1.3-4.7-2.8-4.8-2.9-.1-.1-.2-.3-.1-.4 0-.1.2-.2.3-.3.1 0 6.3-.5 14.4-.9 8.2-.3 19.4-.7 19.4-.7.1 0 .2 0 .3.1.1.1.1.2.1.3l-.1 3.1c0 .1-.1.2-.2.3-.1.1-.2.1-.3.1 0 0-4.3-1.2-9-.4-3.2.5-5.1 1.4-6.8 2.1-.8.4-1.5.7-2.3.9-1.7.5-3.7.7-4.8.8h-.2zm-9.4-5c.8.6 2.2 1.5 3.8 2.2 1.9.9 3.7 1.6 4.6 1.9.3.1.8.2 1.1.1 1-.1 3-.3 4.6-.8.7-.2 1.4-.5 2.2-.9 1.6-.7 3.7-1.6 7-2.2 4-.6 7.6 0 8.9.3l.1-2.2c-2.1.1-11.8.4-19 .7-6.1.4-11.2.7-13.3.9z"/><path class="st6" d="M140.4 16.4l-6.7-2.2s4.3-2.5 6.3-5c1.6-1.8 2.4-3.5 2.8-4.1.1-.2.3-.4.6-.4 1.1 0 4.1.2 9.1 1.8 6.5 2 11.5 6.2 11.5 6.2s-3.4 1.5-7.4 2.2c-7.7 1.3-16.2 1.5-16.2 1.5z"/><path class="st19" d="M140.4 16.8h-.1l-6.7-2.2c-.1 0-.2-.2-.3-.3 0-.1.1-.3.2-.4 0 0 4.2-2.5 6.2-4.9 1.6-1.8 2.4-3.5 2.8-4.1.2-.4.5-.5 1-.6 1.1 0 4.1.2 9.2 1.8 6.5 2 11.6 6.2 11.6 6.3.1.1.1.2.1.3s-.1.2-.2.3c0 0-3.5 1.5-7.5 2.2-7.7 1.4-16.2 1.6-16.3 1.6zm-5.8-2.7l5.8 1.9c.8 0 8.8-.3 16.2-1.5 3-.5 5.6-1.5 6.8-1.9-1.4-1.1-5.7-4.2-10.9-5.7-5-1.5-8-1.7-9-1.7-.1 0-.2 0-.3.2-.4.8-1.3 2.4-2.8 4.2-1.6 1.8-4.5 3.7-5.8 4.5z"/><path class="st6" d="M171.1 24.3s-3.2.4-10.8-.5c-7.5-1-19.1-3.7-19.1-3.7v-3.9s12.8-.8 19.4-1.8c5.3-.8 8.8-1.5 10-1.7.3-.1.6 0 .9.1 1.1.5 3.7 2.2 4.1 5.5.6 4.1-4.5 6-4.5 6z"/><path class="st19" d="M168.7 24.7c-1.8 0-4.5-.1-8.5-.6-7.5-1-19.1-3.7-19.2-3.8-.2 0-.3-.2-.3-.4V16c0-.2.2-.4.3-.4.1 0 12.9-.8 19.4-1.8 5.2-.8 8.7-1.5 10-1.7.4-.1.8 0 1.1.2 1.1.6 3.9 2.3 4.3 5.8.6 4.4-4.7 6.4-4.8 6.5h-.1c.2 0-.6.1-2.2.1zm2.4-.4zm-29.6-4.6c1.8.4 12 2.8 18.8 3.7 6.9.9 10.2.6 10.6.5.5-.2 4.7-2 4.3-5.7-.4-3.1-2.9-4.7-3.9-5.2-.2-.1-.4-.1-.7-.1-1.3.2-4.8.9-10 1.7-5.9.9-17 1.7-19.1 1.8v3.3z"/><ellipse transform="rotate(-88.379 132.012 16.463)" class="st0" cx="132" cy="16.5" rx="2.7" ry="9.5"/><path class="st3" d="M132.8 19.5h-.9c-2.6-.1-5-.4-6.8-1-2-.6-3-1.4-3-2.3 0-.9 1.1-1.7 3.1-2.2 1.8-.5 4.3-.7 6.8-.6 2.6.1 5 .4 6.8 1 2 .6 3 1.4 3 2.3 0 1.9-4.5 2.8-9 2.8zm-1.7-5.4c-2.1 0-4.1.2-5.7.6-1.9.5-2.5 1.1-2.6 1.5 0 .4.6 1 2.5 1.6 1.7.5 4.1.9 6.6 1 5.6.2 9.1-1.1 9.2-2.1 0-.4-.6-1-2.5-1.6-1.7-.5-4.1-.9-6.6-1h-.9z"/><path class="st6" d="M146.6 30s-2.8-.9-5.2-2.3c-2.4-1.4-6.5-4.4-6.5-4.4s2.3-2 3.3-3.2c1.1-1.1 2.6-1.7 2.6-1.7s2.4.6 6.4 1.5 12.4 1.6 16.9 2.4c3.2.5 5.9 1.1 7.1 1.3.5.1.6.3.2.5-1 .6-3.3 1.7-8.3 3.1-7.1 1.9-16.5 2.8-16.5 2.8z"/><path class="st19" d="M146.6 30.3h-.1c-.1 0-2.9-.9-5.2-2.3-2.4-1.4-6.3-4.3-6.5-4.4-.1-.1-.1-.2-.1-.3 0-.1 0-.2.1-.3 0 0 2.3-2 3.3-3.2 1.1-1.2 2.6-1.7 2.7-1.8h.2s2.4.6 6.4 1.5c2.3.5 6.1 1 9.8 1.4 2.7.3 5.2.6 7.1.9 3.2.5 5.8 1 7.1 1.3.2 0 .7.1.7.5 0 .2 0 .4-.4.7-1 .6-3.4 1.7-8.4 3.1-7.1 2.1-16.6 2.9-16.7 2.9zm-11.1-7.1c1 .8 4.1 3 6.1 4.1 2.1 1.2 4.6 2.1 5 2.2.9-.1 9.8-.9 16.5-2.7 4.6-1.2 6.9-2.3 8-2.9-1.3-.3-3.9-.8-7-1.3-1.9-.3-4.4-.6-7-.9-3.7-.4-7.5-.9-9.9-1.4-3.5-.8-5.8-1.4-6.3-1.5-.3.1-1.5.6-2.3 1.5-.9.9-2.4 2.3-3.1 2.9z"/><g><path class="st6" d="M140.9 30.1c-1 .1-3.9.3-11.7-.1-11-.6-14.9-1.5-14.9-1.5s.5-1 2.7-2.4c2.2-1.3 9.9-4.8 9.9-4.8s1.1 0 4.4-.2c3.3-.2 4.1-.5 4.1-.5s.3 2.8 1.4 4.9c.9 1.6 3.2 3.6 4.2 4.3.3.1.3.3-.1.3z"/><path class="st19" d="M137.5 30.6c-1.8 0-4.5-.1-8.2-.3-10.9-.6-14.8-1.5-14.9-1.5-.1 0-.2-.1-.2-.2v-.3s.6-1.1 2.9-2.5c2.2-1.3 9.6-4.6 9.9-4.8h.2s1.2 0 4.4-.2c3.1-.2 4-.5 4.1-.5h.3c.1 0 .2.2.2.3 0 0 .3 2.8 1.4 4.7.8 1.5 3.1 3.4 4.1 4.2.3.2.3.4.3.6-.1.3-.5.4-.7.4-.9 0-1.9.1-3.8.1zM115 28.2c1.4.3 5.7.9 14.3 1.4 7 .4 10 .3 11.3.2-1.1-.9-3.1-2.7-3.9-4.1-.9-1.6-1.3-3.7-1.4-4.6-.5.1-1.7.3-3.8.4-2.8.2-4 .2-4.3.2-.8.4-7.7 3.5-9.8 4.7-1.4.8-2 1.4-2.4 1.8z"/></g><g><path class="st7" d="M83 31.5l-.1-11.4"/><path transform="matrix(1 -.00632 .00632 1 -.162 .525)" class="st19" d="M82.5 20.1h1v11.4h-1z"/></g><g><path class="st7" d="M179.5 35.2V23.7"/><path transform="matrix(1 -.00632 .00632 1 -.182 1.134)" class="st19" d="M179 23.7h1v11.4h-1z"/></g></g><g><path class="st6" d="M33 67.9c-1.4 0-2.6 1.1-3.6 3H.3v17.5h29.1c1 1.8 2.2 3 3.6 3 3 0 5.4-5.2 5.4-11.7 0-6.6-2.4-11.8-5.4-11.8z"/><path class="st3" d="M33 91.6c-1.4 0-2.7-1-3.7-3H.3c-.2 0-.3-.1-.3-.3V70.8c0-.2.1-.3.3-.3h28.9c1-1.9 2.4-3 3.7-3 3.2 0 5.7 5.3 5.7 12S36.2 91.6 33 91.6zM.6 88.1h28.8c.1 0 .2.1.3.2 1 1.8 2.1 2.8 3.3 2.8 2.8 0 5.1-5.1 5.1-11.4S35.8 68.1 33 68.1c-1.2 0-2.4 1-3.3 2.8 0 .1-.1.2-.3.2H.6v17z"/><ellipse class="st23" cx="33" cy="79.5" rx="4.8" ry="10.6"/><path class="st6" d="M33 97.8c-1.4 0-2.6 1.1-3.6 3H.3v17.5h29.1c1 1.8 2.2 3 3.6 3 3 0 5.4-5.2 5.4-11.7S36 97.8 33 97.8z"/><path class="st3" d="M33 121.5c-1.4 0-2.7-1-3.7-3H.3c-.2 0-.3-.1-.3-.3v-17.5c0-.2.1-.3.3-.3h28.9c1-1.9 2.4-3 3.7-3 3.2 0 5.7 5.3 5.7 12s-2.4 12.1-5.6 12.1zM.6 118h28.8c.1 0 .2.1.3.2 1 1.8 2.1 2.8 3.3 2.8 2.8 0 5.1-5.1 5.1-11.4S35.8 98.1 33 98.1c-1.2 0-2.4 1-3.3 2.8 0 .1-.1.2-.3.2H.6V118z"/><ellipse class="st23" cx="33" cy="109.4" rx="4.8" ry="10.6"/></g></g></switch></svg>