<svg version="1.1" id="图层_1" xmlns="http://www.w3.org/2000/svg" x="0" y="0" width="123" height="308" xml:space="preserve"><style>.st0{fill:#d6d7d7}.st1{fill:#747577}.st2{fill:#c6c7c7}</style><path class="st0" d="M96.2 238.9c0-6.7-15.5-12.2-34.6-12.2S27 232.2 27 238.9c0 4.8 7.9 8.9 19.3 10.9l2.7 51.9c.1 2.5 1.4 4.3 2.9 4.3h16.3c1.5 0 2.8-1.9 2.9-4.4l2.5-51.4c13.2-1.6 22.6-6 22.6-11.3z"/><path class="st1" d="M61.6 226.7c19.1 0 34.6 5.5 34.6 12.2 0 5.3-9.5 9.7-22.7 11.4L71 301.7c-.1 2.5-1.4 4.4-2.9 4.4H51.9c-1.5 0-2.8-1.9-2.9-4.3l-2.7-51.9c-11.4-2-19.3-6.1-19.3-10.9 0-6.8 15.5-12.3 34.6-12.3m0-1.9c-17.7 0-36.5 4.9-36.5 14.1 0 5.5 7.2 10.1 19.4 12.5l2.6 50.4c.2 3.6 2.2 6.1 4.8 6.1h16.3c2.6 0 4.6-2.6 4.8-6.2l2.4-49.8c11.3-1.7 22.8-5.9 22.8-13.1-.1-9-18.9-14-36.6-14z"/><path class="st2" d="M46.3 249.6l2.7 51.5c.1 2.4 1.4 4.3 2.9 4.3h16.3c1.5 0 2.8-1.9 2.9-4.3l2.5-50.9"/><path class="st0" d="M61.5 1.9C28.6 1.9 1.9 20.1 1.9 42.5v170.1c0 22.4 26.7 40.5 59.6 40.5s59.6-18.2 59.6-40.5V42.5c0-22.4-26.7-40.6-59.6-40.6z"/><path class="st1" d="M61.5 1.9c32.9 0 59.6 18.2 59.6 40.5v170.1c0 22.4-26.7 40.5-59.6 40.5S1.9 234.9 1.9 212.5v-170c0-22.4 26.7-40.6 59.6-40.6m0-1.9C45.2 0 29.9 4.3 18.3 12.2 6.5 20.2 0 31 0 42.5v170.1c0 11.5 6.5 22.2 18.3 30.2 11.6 7.9 26.9 12.2 43.2 12.2 16.3 0 31.6-4.3 43.2-12.2 11.8-8 18.3-18.8 18.3-30.2V42.5c0-11.5-6.5-22.2-18.3-30.2C93.1 4.3 77.8 0 61.5 0z"/><path class="st2" d="M61.5 3.5C28.6 3.5 2 21.5 2 43.7v168.6c0 22.2 26.6 40.2 59.5 40.2s59.5-18 59.5-40.2V43.7c0-22.2-26.7-40.2-59.5-40.2zm38 177.9c0 15.1-17.5 27.3-39.2 27.3s-39.2-12.2-39.2-27.3V66.9c0-15.1 17.5-27.3 39.2-27.3s39.2 12.2 39.2 27.3v114.5z"/><ellipse cx="60.5" cy="242.8" rx="29.9" ry="9.6" fill="#afb1b1"/></svg>