<svg version="1.1" id="图层_1" xmlns="http://www.w3.org/2000/svg" x="0" y="0" width="204.8" height="216" xml:space="preserve"><style>.st0{fill:#d6d7d7}.st1{fill:#bababa}.st2{fill:#b2b2b2}.st3{opacity:.7}.st4{fill:#fff}.st8{fill:#747577}.st9{fill:#cdcec6}.st10{fill:#b0afa7}.st11{fill:#cecece}.st12{fill:#adadad}.st13{fill:#eaeaea}.st14{fill:#7b7c7c}.st17{fill:#e8e8e8}.st19{fill:#c4c4c4}</style><switch><g><path class="st0" d="M204.3 211.5l-5.5 4H60.4l-5.6-2L54.9 54h146.9l2 6.4z"/><path class="st1" d="M201.2 54H54.6c-.1 0-.1 0-.2-.1L1.2 2.1 4.3.6h142.4l2.5.6s.1 0 .1.1l52.1 52.4c.1.1 0 .3-.2.3z"/><path class="st2" d="M55 54L1.9 1.9l-1.4.9v159.1l47.9 46.7 6.6 4.9V54z"/><g class="st3"><path class="st4" d="M54.8 55.3L1.7 2l.9-.6 52.9 53.2z"/></g><g class="st3"><path class="st4" d="M202.1 55H54.9v-1h146.9z"/></g><g class="st3"><path class="st4" d="M54.4 54h1v159.5h-1z"/></g><path class="st2" d="M49.6 201.5L5.4 158l.1-143.8L50 58.3z"/><path opacity=".3" fill="#7c7c7b" d="M50.5 202L6.3 158.5V14.6L7.6 16 8 157.7l42.5 41.6z"/><path d="M50.8 203.7L5.6 159.3V14.1l45.5 45.1-.3 144.5zM6.6 158.9l43.3 42.5.4-141.9L6.6 16.4v142.5z" fill="#828282"/><radialGradient id="SVGID_1_" cx="164.498" cy="27.559" r="23.989" gradientUnits="userSpaceOnUse"><stop offset="0" stop-color="#898784"/><stop offset="1" stop-color="#898784" stop-opacity="0"/></radialGradient><path fill="url(#SVGID_1_)" d="M188.3 49.3l-2.4 2.4-45.2-45.9 2.4-2.4z"/><path class="st8" d="M62.2 49.7L16.8 3.5l.7-.7L62.9 49zm125.9 0L142.6 3.5l.8-.7L188.8 49z"/><path class="st8" d="M62.6 48.8h125.9v1H62.6z"/><path class="st9" d="M60 65.5h38.4V69H60z"/><path class="st10" d="M99.1 69.7H59.2v-4.9H99v4.9zm-38.4-1.5h36.9v-2H60.7v2z"/><path class="st9" d="M60.3 73h38.4v3.5H60.3z"/><path class="st10" d="M99.5 77.3H59.6v-4.9h39.9v4.9zM61 75.8h37v-2H61v2z"/><path class="st9" d="M60.3 80.6h38v3.5h-38z"/><path class="st10" d="M99.1 84.8H59.6v-4.9h39.5v4.9zM61 83.4h36.6v-2H61v2z"/><path class="st9" d="M60.3 88.2h38v3.5h-38z"/><path class="st10" d="M99.1 92.4H59.6v-4.9h39.5v4.9zM61 91h36.6v-2H61v2z"/><path class="st11" d="M60.5 95.8h37.9v3.5H60.5z"/><path class="st12" d="M99.1 100H59.8v-5h39.3v5zm-37.9-1.5h36.4v-2H61.2v2z"/><path class="st11" d="M60.5 88.2h37.9v3.5H60.5z"/><path class="st12" d="M99.1 92.4H59.8v-4.9h39.3v4.9zM61.2 91h36.4v-2H61.2v2z"/><path class="st11" d="M60.5 80.6h37.9v3.5H60.5z"/><path class="st12" d="M99.1 84.8H59.8v-4.9h39.3v4.9zm-37.9-1.4h36.4v-2H61.2v2z"/><path class="st11" d="M60.5 73h37.9v3.5H60.5z"/><path class="st12" d="M99.1 77.3H59.8v-4.9h39.3v4.9zm-37.9-1.5h36.4v-2H61.2v2z"/><path class="st11" d="M60.5 65.5h37.9V69H60.5z"/><path class="st12" d="M99.1 69.7H59.8v-4.9h39.3v4.9zm-37.9-1.5h36.4v-2H61.2v2z"/><path class="st2" d="M59.5 62.5h39.6v2.8H62.5l-.1 36.6h-2.9z"/><path class="st13" d="M99.1 101.9H59.5v-2.8h36.6l.1-36.6h2.9z"/><path class="st9" d="M109.3 65.5h38.4V69h-38.4z"/><path class="st10" d="M148.4 69.7h-39.8v-4.9h39.8v4.9zM110 68.2h36.9v-2H110v2z"/><path class="st9" d="M109.6 73H148v3.5h-38.4z"/><path class="st10" d="M148.8 77.3h-39.9v-4.9h39.9v4.9zm-38.5-1.5h37v-2h-37v2z"/><path class="st9" d="M109.6 80.6h38v3.5h-38z"/><path class="st10" d="M148.4 84.8h-39.5v-4.9h39.5v4.9zm-38.1-1.4h36.6v-2h-36.6v2z"/><path class="st9" d="M109.6 88.2h38v3.5h-38z"/><path class="st10" d="M148.4 92.4h-39.5v-4.9h39.5v4.9zM110.3 91h36.6v-2h-36.6v2z"/><path class="st11" d="M109.8 95.8h37.9v3.5h-37.9z"/><path class="st12" d="M148.4 100h-39.3v-5h39.3v5zm-37.9-1.5h36.4v-2h-36.4v2z"/><path class="st11" d="M109.8 88.2h37.9v3.5h-37.9z"/><path class="st12" d="M148.4 92.4h-39.3v-4.9h39.3v4.9zM110.5 91h36.4v-2h-36.4v2z"/><path class="st11" d="M109.8 80.6h37.9v3.5h-37.9z"/><path class="st12" d="M148.4 84.8h-39.3v-4.9h39.3v4.9zm-37.9-1.4h36.4v-2h-36.4v2z"/><path class="st11" d="M109.8 73h37.9v3.5h-37.9z"/><path class="st12" d="M148.4 77.3h-39.3v-4.9h39.3v4.9zm-37.9-1.5h36.4v-2h-36.4v2z"/><path class="st11" d="M109.8 65.5h37.9V69h-37.9z"/><path class="st12" d="M148.4 69.7h-39.3v-4.9h39.3v4.9zm-37.9-1.5h36.4v-2h-36.4v2z"/><path class="st2" d="M108.8 62.5h39.6v2.8h-36.6l-.1 36.6h-2.9z"/><path class="st13" d="M148.4 101.9h-39.6v-2.8h36.6l.1-36.6h2.9z"/><path class="st9" d="M159.3 65.5h38.4V69h-38.4z"/><path class="st10" d="M198.4 69.7h-39.8v-4.9h39.8v4.9zM160 68.2h36.9v-2H160v2z"/><path class="st9" d="M159.6 73H198v3.5h-38.4z"/><path class="st10" d="M198.8 77.3h-39.9v-4.9h39.9v4.9zm-38.5-1.5h37v-2h-37v2z"/><path class="st9" d="M159.6 80.6h38v3.5h-38z"/><path class="st10" d="M198.4 84.8h-39.5v-4.9h39.5v4.9zm-38.1-1.4h36.6v-2h-36.6v2z"/><path class="st9" d="M159.6 88.2h38v3.5h-38z"/><path class="st10" d="M198.4 92.4h-39.5v-4.9h39.5v4.9zM160.3 91h36.6v-2h-36.6v2z"/><path class="st11" d="M159.8 95.8h37.9v3.5h-37.9z"/><path class="st12" d="M198.4 100h-39.3v-5h39.3v5zm-37.9-1.5h36.4v-2h-36.4v2z"/><path class="st11" d="M159.8 88.2h37.9v3.5h-37.9z"/><path class="st12" d="M198.4 92.4h-39.3v-4.9h39.3v4.9zM160.5 91h36.4v-2h-36.4v2z"/><path class="st11" d="M159.8 80.6h37.9v3.5h-37.9z"/><path class="st12" d="M198.4 84.8h-39.3v-4.9h39.3v4.9zm-37.9-1.4h36.4v-2h-36.4v2z"/><path class="st11" d="M159.8 73h37.9v3.5h-37.9z"/><path class="st12" d="M198.4 77.3h-39.3v-4.9h39.3v4.9zm-37.9-1.5h36.4v-2h-36.4v2z"/><path class="st11" d="M159.8 65.5h37.9V69h-37.9z"/><path class="st12" d="M198.4 69.7h-39.3v-4.9h39.3v4.9zm-37.9-1.5h36.4v-2h-36.4v2z"/><path class="st2" d="M158.8 62.5h39.6v2.8h-36.6l-.1 36.6h-2.9z"/><path class="st13" d="M198.4 101.9h-39.6v-2.8h36.6l.1-36.6h2.9z"/><path class="st9" d="M60.1 114.8h38.4v3.5H60.1z"/><path class="st10" d="M99.2 119H59.4v-4.9h39.8v4.9zm-38.4-1.4h36.9v-2H60.8v2z"/><path class="st9" d="M60.4 122.6h38.4v3.5H60.4z"/><path class="st10" d="M99.6 126.8H59.7v-4.9h39.9v4.9zm-38.4-1.4h37v-2h-37v2z"/><path class="st9" d="M60.5 130.4h38v3.5h-38z"/><path class="st10" d="M99.2 134.6H59.7v-4.9h39.5v4.9zm-38-1.5h36.6v-2H61.2v2z"/><path class="st9" d="M60.5 138.2h38v3.5h-38z"/><path class="st10" d="M99.2 142.4H59.7v-4.9h39.5v4.9zm-38-1.5h36.6v-2H61.2v2z"/><path class="st9" d="M60.6 145.9h37.9v3.5H60.6z"/><path class="st10" d="M99.2 150.1H59.9v-4.9h39.3v4.9zm-37.9-1.4h36.4v-2H61.3v2z"/><path class="st9" d="M60.6 153.7h37.9v3.5H60.6z"/><path class="st10" d="M99.2 157.9H59.9V153h39.3v4.9zm-37.9-1.4h36.4v-2H61.3v2z"/><path class="st9" d="M60.6 161.5h37.9v3.5H60.6z"/><path class="st10" d="M99.2 165.7H59.9v-4.9h39.3v4.9zm-37.9-1.4h36.4v-2H61.3v2z"/><path class="st9" d="M60.6 169.3h37.9v3.5H60.6z"/><path class="st10" d="M99.2 173.5H59.9v-4.9h39.3v4.9zM61.3 172h36.4v-2H61.3v2z"/><path class="st9" d="M60.6 177h37.9v3.5H60.6z"/><path class="st10" d="M99.2 181.3H59.9v-4.9h39.3v4.9zm-37.9-1.5h36.4v-2H61.3v2z"/><path class="st9" d="M60.6 184.8h37.9v3.5H60.6z"/><path class="st10" d="M99.2 189H59.9v-4.9h39.3v4.9zm-37.9-1.4h36.4v-2H61.3v2z"/><path class="st11" d="M60.6 192.6h37.9v3.5H60.6z"/><path class="st12" d="M99.2 196.8H59.9v-4.9h39.3v4.9zm-37.9-1.4h36.4v-2H61.3v2z"/><path class="st11" d="M60.6 184.8h37.9v3.5H60.6z"/><path class="st12" d="M99.2 189H59.9v-4.9h39.3v4.9zm-37.9-1.4h36.4v-2H61.3v2z"/><path class="st11" d="M60.6 177h37.9v3.5H60.6z"/><path class="st12" d="M99.2 181.3H59.9v-4.9h39.3v4.9zm-37.9-1.5h36.4v-2H61.3v2z"/><path class="st11" d="M60.6 169.3h37.9v3.5H60.6z"/><path class="st12" d="M99.2 173.5H59.9v-4.9h39.3v4.9zM61.3 172h36.4v-2H61.3v2z"/><path class="st11" d="M60.6 161.5h37.9v3.5H60.6z"/><path class="st12" d="M99.2 165.7H59.9v-4.9h39.3v4.9zm-37.9-1.4h36.4v-2H61.3v2z"/><path class="st11" d="M60.6 153.7h37.9v3.5H60.6z"/><path class="st12" d="M99.2 157.9H59.9V153h39.3v4.9zm-37.9-1.4h36.4v-2H61.3v2z"/><path class="st11" d="M60.6 145.9h37.9v3.5H60.6z"/><path class="st12" d="M99.2 150.1H59.9v-4.9h39.3v4.9zm-37.9-1.4h36.4v-2H61.3v2z"/><path class="st11" d="M60.6 138.2h37.9v3.5H60.6z"/><path class="st12" d="M99.2 142.4H59.9v-4.9h39.3v4.9zm-37.9-1.5h36.4v-2H61.3v2z"/><path class="st11" d="M60.6 130.4h37.9v3.5H60.6z"/><path class="st12" d="M99.2 134.6H59.9v-4.9h39.3v4.9zm-37.9-1.5h36.4v-2H61.3v2z"/><path class="st11" d="M60.6 122.6h37.9v3.5H60.6z"/><path class="st12" d="M99.2 126.8H59.9v-4.9h39.3v4.9zm-37.9-1.4h36.4v-2H61.3v2z"/><path class="st11" d="M60.6 114.8h37.9v3.5H60.6z"/><path class="st12" d="M99.2 119H59.9v-4.9h39.3v4.9zm-37.9-1.4h36.4v-2H61.3v2z"/><path class="st11" d="M60.6 200.4h37.9v3.5H60.6z"/><path class="st12" d="M99.2 204.6H59.9v-4.9h39.3v4.9zm-37.9-1.5h36.4v-2H61.3v2z"/><path class="st2" d="M59.4 111.2H99v2.7H62.4l-.1 92.6h-2.9z"/><path class="st13" d="M99.3 206.3H59.7v-2.8h36.5l.2-91.6h2.9z"/><path class="st14" d="M99.7 207H59.4v-95.8h40.3V207zm-39.5-.8h38.7V112H60.2v94.2z"/><path class="st9" d="M109.6 114.8H148v3.5h-38.4z"/><path class="st10" d="M148.7 119h-39.8v-4.9h39.8v4.9zm-38.4-1.4h36.9v-2h-36.9v2z"/><path class="st9" d="M109.9 122.6h38.4v3.5h-38.4z"/><path class="st10" d="M149.1 126.8h-39.9v-4.9h39.9v4.9zm-38.4-1.4h37v-2h-37v2z"/><path class="st9" d="M109.9 130.4h38v3.5h-38z"/><path class="st10" d="M148.7 134.6h-39.5v-4.9h39.5v4.9zm-38-1.5h36.6v-2h-36.6v2z"/><path class="st9" d="M109.9 138.2h38v3.5h-38z"/><path class="st10" d="M148.7 142.4h-39.5v-4.9h39.5v4.9zm-38-1.5h36.6v-2h-36.6v2z"/><path class="st9" d="M110.1 145.9H148v3.5h-37.9z"/><path class="st10" d="M148.7 150.1h-39.3v-4.9h39.3v4.9zm-37.9-1.4h36.4v-2h-36.4v2z"/><path class="st9" d="M110.1 153.7H148v3.5h-37.9z"/><path class="st10" d="M148.7 157.9h-39.3V153h39.3v4.9zm-37.9-1.4h36.4v-2h-36.4v2z"/><path class="st9" d="M110.1 161.5H148v3.5h-37.9z"/><path class="st10" d="M148.7 165.7h-39.3v-4.9h39.3v4.9zm-37.9-1.4h36.4v-2h-36.4v2z"/><path class="st9" d="M110.1 169.3H148v3.5h-37.9z"/><path class="st10" d="M148.7 173.5h-39.3v-4.9h39.3v4.9zm-37.9-1.5h36.4v-2h-36.4v2z"/><path class="st9" d="M110.1 177H148v3.5h-37.9z"/><path class="st10" d="M148.7 181.3h-39.3v-4.9h39.3v4.9zm-37.9-1.5h36.4v-2h-36.4v2z"/><path class="st9" d="M110.1 184.8H148v3.5h-37.9z"/><path class="st10" d="M148.7 189h-39.3v-4.9h39.3v4.9zm-37.9-1.4h36.4v-2h-36.4v2z"/><path class="st11" d="M110.1 192.6H148v3.5h-37.9z"/><path class="st12" d="M148.7 196.8h-39.3v-4.9h39.3v4.9zm-37.9-1.4h36.4v-2h-36.4v2z"/><path class="st11" d="M110.1 184.8H148v3.5h-37.9z"/><path class="st12" d="M148.7 189h-39.3v-4.9h39.3v4.9zm-37.9-1.4h36.4v-2h-36.4v2z"/><path class="st11" d="M110.1 177H148v3.5h-37.9z"/><path class="st12" d="M148.7 181.3h-39.3v-4.9h39.3v4.9zm-37.9-1.5h36.4v-2h-36.4v2z"/><path class="st11" d="M110.1 169.3H148v3.5h-37.9z"/><path class="st12" d="M148.7 173.5h-39.3v-4.9h39.3v4.9zm-37.9-1.5h36.4v-2h-36.4v2z"/><path class="st11" d="M110.1 161.5H148v3.5h-37.9z"/><path class="st12" d="M148.7 165.7h-39.3v-4.9h39.3v4.9zm-37.9-1.4h36.4v-2h-36.4v2z"/><path class="st11" d="M110.1 153.7H148v3.5h-37.9z"/><path class="st12" d="M148.7 157.9h-39.3V153h39.3v4.9zm-37.9-1.4h36.4v-2h-36.4v2z"/><path class="st11" d="M110.1 145.9H148v3.5h-37.9z"/><path class="st12" d="M148.7 150.1h-39.3v-4.9h39.3v4.9zm-37.9-1.4h36.4v-2h-36.4v2z"/><path class="st11" d="M110.1 138.2H148v3.5h-37.9z"/><path class="st12" d="M148.7 142.4h-39.3v-4.9h39.3v4.9zm-37.9-1.5h36.4v-2h-36.4v2z"/><path class="st11" d="M110.1 130.4H148v3.5h-37.9z"/><path class="st12" d="M148.7 134.6h-39.3v-4.9h39.3v4.9zm-37.9-1.5h36.4v-2h-36.4v2z"/><path class="st11" d="M110.1 122.6H148v3.5h-37.9z"/><path class="st12" d="M148.7 126.8h-39.3v-4.9h39.3v4.9zm-37.9-1.4h36.4v-2h-36.4v2z"/><path class="st11" d="M110.1 114.8H148v3.5h-37.9z"/><path class="st12" d="M148.7 119h-39.3v-4.9h39.3v4.9zm-37.9-1.4h36.4v-2h-36.4v2z"/><path class="st11" d="M110.1 200.4H148v3.5h-37.9z"/><path class="st12" d="M148.7 204.6h-39.3v-4.9h39.3v4.9zm-37.9-1.5h36.4v-2h-36.4v2z"/><path class="st2" d="M108.9 111.2h39.6v2.7h-36.6l-.1 92.6h-2.9z"/><path class="st13" d="M148.8 206.3h-39.7v-2.8h36.6l.2-91.6h2.9z"/><path class="st14" d="M149.2 207h-40.3v-95.8h40.3V207zm-39.5-.8h38.7V112h-38.7v94.2z"/><path class="st9" d="M159.1 114.8h38.4v3.5h-38.4z"/><path class="st10" d="M198.2 119h-39.8v-4.9h39.8v4.9zm-38.3-1.4h36.9v-2h-36.9v2z"/><path class="st9" d="M159.5 122.6h38.4v3.5h-38.4z"/><path class="st10" d="M198.6 126.8h-39.9v-4.9h39.9v4.9zm-38.4-1.4h37v-2h-37v2z"/><path class="st9" d="M159.5 130.4h38v3.5h-38z"/><path class="st10" d="M198.2 134.6h-39.5v-4.9h39.5v4.9zm-38-1.5h36.6v-2h-36.6v2z"/><path class="st9" d="M159.5 138.2h38v3.5h-38z"/><path class="st10" d="M198.2 142.4h-39.5v-4.9h39.5v4.9zm-38-1.5h36.6v-2h-36.6v2z"/><path class="st9" d="M159.6 145.9h37.9v3.5h-37.9z"/><path class="st10" d="M198.2 150.1h-39.3v-4.9h39.3v4.9zm-37.8-1.4h36.4v-2h-36.4v2z"/><path class="st9" d="M159.6 153.7h37.9v3.5h-37.9z"/><path class="st10" d="M198.2 157.9h-39.3V153h39.3v4.9zm-37.8-1.4h36.4v-2h-36.4v2z"/><path class="st9" d="M159.6 161.5h37.9v3.5h-37.9z"/><path class="st10" d="M198.2 165.7h-39.3v-4.9h39.3v4.9zm-37.8-1.4h36.4v-2h-36.4v2z"/><path class="st9" d="M159.6 169.3h37.9v3.5h-37.9z"/><path class="st10" d="M198.2 173.5h-39.3v-4.9h39.3v4.9zm-37.8-1.5h36.4v-2h-36.4v2z"/><path class="st9" d="M159.6 177h37.9v3.5h-37.9z"/><path class="st10" d="M198.2 181.3h-39.3v-4.9h39.3v4.9zm-37.8-1.5h36.4v-2h-36.4v2z"/><path class="st9" d="M159.6 184.8h37.9v3.5h-37.9z"/><path class="st10" d="M198.2 189h-39.3v-4.9h39.3v4.9zm-37.8-1.4h36.4v-2h-36.4v2z"/><path class="st11" d="M159.6 192.6h37.9v3.5h-37.9z"/><path class="st12" d="M198.2 196.8h-39.3v-4.9h39.3v4.9zm-37.8-1.4h36.4v-2h-36.4v2z"/><path class="st11" d="M159.6 184.8h37.9v3.5h-37.9z"/><path class="st12" d="M198.2 189h-39.3v-4.9h39.3v4.9zm-37.8-1.4h36.4v-2h-36.4v2z"/><g><path class="st11" d="M159.6 177h37.9v3.5h-37.9z"/><path class="st12" d="M198.2 181.3h-39.3v-4.9h39.3v4.9zm-37.8-1.5h36.4v-2h-36.4v2z"/></g><g><path class="st11" d="M159.6 169.3h37.9v3.5h-37.9z"/><path class="st12" d="M198.2 173.5h-39.3v-4.9h39.3v4.9zm-37.8-1.5h36.4v-2h-36.4v2z"/></g><g><path class="st11" d="M159.6 161.5h37.9v3.5h-37.9z"/><path class="st12" d="M198.2 165.7h-39.3v-4.9h39.3v4.9zm-37.8-1.4h36.4v-2h-36.4v2z"/></g><g><path class="st11" d="M159.6 153.7h37.9v3.5h-37.9z"/><path class="st12" d="M198.2 157.9h-39.3V153h39.3v4.9zm-37.8-1.4h36.4v-2h-36.4v2z"/></g><g><path class="st11" d="M159.6 145.9h37.9v3.5h-37.9z"/><path class="st12" d="M198.2 150.1h-39.3v-4.9h39.3v4.9zm-37.8-1.4h36.4v-2h-36.4v2z"/></g><g><path class="st11" d="M159.6 138.2h37.9v3.5h-37.9z"/><path class="st12" d="M198.2 142.4h-39.3v-4.9h39.3v4.9zm-37.8-1.5h36.4v-2h-36.4v2z"/></g><g><path class="st11" d="M159.6 130.4h37.9v3.5h-37.9z"/><path class="st12" d="M198.2 134.6h-39.3v-4.9h39.3v4.9zm-37.8-1.5h36.4v-2h-36.4v2z"/></g><g><path class="st11" d="M159.6 122.6h37.9v3.5h-37.9z"/><path class="st12" d="M198.2 126.8h-39.3v-4.9h39.3v4.9zm-37.8-1.4h36.4v-2h-36.4v2z"/></g><g><path class="st11" d="M159.6 114.8h37.9v3.5h-37.9z"/><path class="st12" d="M198.2 119h-39.3v-4.9h39.3v4.9zm-37.8-1.4h36.4v-2h-36.4v2z"/></g><g><path class="st11" d="M159.6 200.4h37.9v3.5h-37.9z"/><path class="st12" d="M198.2 204.6h-39.3v-4.9h39.3v4.9zm-37.8-1.5h36.4v-2h-36.4v2z"/></g><g><path class="st2" d="M158.4 111.2H198v2.7h-36.6l-.1 92.6h-2.9z"/></g><g><path class="st13" d="M198.3 206.3h-39.6v-2.8h36.6l.1-91.6h2.9z"/></g><g><path class="st14" d="M198.7 207h-40.3v-95.8h40.3V207zm-39.5-.8h38.7V112h-38.7v94.2z"/></g><g><path class="st14" d="M99.5 102.4H59.2V61.8h40.3v40.6zm-39.5-.8h38.7v-39H60v39z"/></g><g><path class="st14" d="M148.8 102.4h-40.3V61.8h40.3v40.6zm-39.5-.8H148v-39h-38.7v39z"/></g><g><path class="st14" d="M198.8 102.4h-40.3V61.8h40.3v40.6zm-39.5-.8H198v-39h-38.7v39z"/></g><path class="st8" d="M198.1 216H60.2l-5.7-2s-.1 0-.1-.1l-.5-.4L48 209 .5 162.7c-.3-.3-.5-.8-.5-1.2V2.8c0-.2.1-.3.2-.4l1.2-.8.9-.6L4.2.1c0-.1.1-.1.1-.1h142.2l2.7.7c.1 0 .2.1.2.1l52.3 52.6c.3.3.4.6.6.9l1.9 5.7c.1.2.1.5.1.7l.5 149.8c0 .8-.4 1.5-1 2l-4.1 3c-.5.3-1 .5-1.6.5zm-137.6-.9h137.6c.4 0 .7-.1 1-.3l4.1-3c.4-.3.6-.7.6-1.2l-.5-149.8c0-.2 0-.3-.1-.5l-1.9-5.7c-.1-.2-.2-.4-.3-.5L148.9 1.6l-2.5-.6H4.5l-1.7.8-1.2.8-.6.5v158.2c0 .2.1.4.2.6l47.5 46.3 6.2 4.8 5.6 2.1z"/><g><path class="st0" d="M101.2 9.4C77.7 8.2 58 13.1 53.7 20.7h.1v6.6C58.2 35 77.1 41.6 100 42.8c23.9 1.2 43.8-3.9 47.7-11.7v-5.6c-3.7-7.9-23-14.8-46.5-16.1z"/><path class="st14" d="M107.1 43.4c-2.3 0-4.7-.1-7.1-.2-21.8-1.1-40.7-7.3-46-15-.1-.1-.1-.3.1-.4.1-.1.3-.1.4.1 5.2 7.5 23.9 13.6 45.6 14.7 22.1 1.1 41.8-3.3 46.9-10.5.1-.1.3-.2.4-.1.1.1.2.3.1.4-4.8 6.7-20.9 11-40.4 11z"/><path class="st1" d="M148 19.3c.4.9.6 1.8.5 2.7-.4 9.3-22.1 15.6-48.6 14.3-26.5-1.4-47.6-10-47.3-19.2 0-.8.2-1.5.5-2.2 3.4-8 23.7-13.3 48.1-12.1 23.9 1.2 43.4 8.3 46.8 16.5z"/><path class="st14" d="M107 37c-2.3 0-4.6-.1-7-.2-27.1-1.4-48.1-10.1-47.7-19.7 0-.8.2-1.6.5-2.4 3.5-8.3 24.4-13.6 48.5-12.4 23.8 1.2 43.6 8.3 47.2 16.8.4 1 .6 2 .6 2.9-.1 2-1.1 4-3 5.7-6.4 5.8-21.5 9.3-39.1 9.3zM94.2 3.1c-20.7 0-37.5 4.8-40.6 12-.3.7-.4 1.3-.5 2-.3 9 20.7 17.4 46.8 18.7 20.2 1 38.5-2.5 45.3-8.8 1.7-1.6 2.7-3.3 2.7-5.1 0-.8-.1-1.7-.5-2.5-3.4-8-23.3-15-46.4-16.2-2.1 0-4.5-.1-6.8-.1z"/><path d="M145.1 19.6c.3.7.5 1.5.5 2.2-.4 7.5-20.7 12.7-45.5 11.4-24.8-1.2-44.6-8.3-44.2-15.8 0-.6.2-1.2.5-1.8 3.2-6.5 22.3-10.8 45-9.6 22.3 1.1 40.5 6.9 43.7 13.6z" fill="#738b8c"/><path class="st2" d="M145.2 19.7c.3.7.5 1.5.5 2.2-.4 7.5-20.7 12.7-45.5 11.4-24.8-1.1-44.6-8.2-44.2-15.8 0-.6.2-1.2.5-1.8 3.2-6.5 22.3-10.8 45-9.6 22.3 1.1 40.5 7 43.7 13.6z"/><path class="st8" d="M107.2 33.7c-2.3 0-4.7-.1-7.2-.2-24.9-1.2-44.8-8.5-44.4-16.2h.6c-.4 7.4 19.3 14.3 43.9 15.5 24.5 1.2 44.8-3.8 45.2-11.1 0-.3 0-.7-.1-1l.6-.1c.1.4.1.8.1 1.2-.4 7-17.2 11.9-38.7 11.9z"/><path class="st13" d="M145.1 20.8c-.1-.3-.2-.7-.4-1-3.1-6.6-21.8-12.4-43.4-13.5-22.3-1.1-41.5 3-44.7 9.5-.3.5-.4 1.1-.4 1.7h-.6c0-.6.2-1.3.5-1.9 3.3-6.7 22.8-10.9 45.3-9.8 22.2 1.1 40.7 6.9 43.9 13.8.2.4.3.8.4 1.2h-.6z"/><path d="M110.2 18.9l-.2 6c-.1 1.4-4.2 2.4-9.2 2.2-5-.2-9.1-1.5-9-2.9l.2-6" fill="#a8a7a5"/><path class="st17" d="M91.9 20.4s-4.3-2.1-10-2.8c-5.7-.7-21.7-1.2-21.9-1.7-.2-.5 1.3-1.8 3-2.6 1.6-.7 2.9-1 5.7-.7s6.6 1.2 12.2 2.7c5.6 1.5 11.1 3 11.1 3l-.1 2.1z"/><path class="st8" d="M91.9 20.8h-.2s-4.3-2.1-9.9-2.8c-2.7-.3-7.7-.6-12.1-.9-9.6-.5-9.9-.6-10.1-1-.3-.9 1.7-2.3 3.1-3 1.8-.8 3.1-1 5.9-.8 2.8.2 6.3 1.1 12.3 2.7L92 18c.2 0 .3.2.3.4l-.1 2.1c0 .1-.1.2-.2.3 0-.1 0 0-.1 0zm-31.5-5.1c1 .2 5.5.5 9.4.7 4.4.2 9.5.5 12.2.9 4.6.6 8.3 2.1 9.6 2.7v-1.3l-10.8-2.9c-5.9-1.6-9.4-2.5-12.2-2.7-2.7-.2-3.9-.1-5.6.7-1.3.5-2.4 1.4-2.6 1.9z"/><path class="st17" d="M103 16.1l-8 .4s-3.5-2.7-7.5-4.6c-3.2-1.5-7.7-3.4-9.1-4-.3-.1-.3-.2.1-.3 1.4-.2 5.2-.7 9.2-.4 5.1.4 13.6 2.8 13.6 2.8s.4 1.2 1 2.8.7 3.3.7 3.3z"/><path class="st8" d="M95.1 16.8c-.1 0-.2 0-.2-.1 0 0-3.5-2.7-7.4-4.5-3.2-1.6-7.8-3.4-9.1-4-.3-.1-.5-.3-.4-.5 0-.4.5-.4.6-.5 1.4-.2 5.2-.7 9.2-.4 5.1.4 13.6 2.8 13.7 2.8.1 0 .2.1.2.2 0 0 .5 1.2 1 2.8.5 1.7.7 3.3.7 3.3 0 .1 0 .2-.1.3-.1.1-.2.1-.3.1l-7.9.5zM79.3 7.9c1.9.8 5.6 2.4 8.4 3.7 3.6 1.7 6.8 4.1 7.4 4.5l7.4-.3c-.1-.6-.2-1.7-.6-2.8-.4-1.3-.8-2.3-.9-2.6-1.2-.3-8.8-2.4-13.4-2.7-3.3-.4-6.5-.1-8.3.2z"/><path class="st17" d="M93.3 23.9s-4.1-1.2-8.8-.5c-4.7.7-6.6 2.2-8.8 2.9-1.6.5-3.5.7-4.5.8-.4 0-.9 0-1.3-.2-.9-.3-2.6-1-4.5-1.9-2.6-1.3-4.5-2.8-4.5-2.8s6-.5 13.8-.7 18.7-.6 18.7-.6l-.1 3z"/><path class="st8" d="M70.9 27.3c-.4 0-.8-.1-1.1-.2-.9-.3-2.7-1-4.5-1.9-2.6-1.3-4.5-2.8-4.6-2.8-.1-.1-.2-.2-.1-.4 0-.1.2-.2.3-.3.1 0 6.1-.5 13.9-.7 7.9-.3 18.7-.6 18.7-.6.1 0 .2 0 .3.1.1.1.1.2.1.3l-.1 3c0 .1-.1.2-.1.3-.1.1-.2.1-.3.1 0 0-4.1-1.2-8.7-.5-3.1.5-4.9 1.3-6.6 2-.8.3-1.5.6-2.2.9-1.6.5-3.6.7-4.6.8-.2-.1-.3-.1-.4-.1zm-9-4.8c.8.5 2.1 1.4 3.7 2.2 1.8.9 3.6 1.5 4.4 1.8.3.1.7.2 1.1.1 1-.1 2.9-.3 4.4-.7.7-.2 1.4-.5 2.1-.8 1.6-.7 3.5-1.5 6.7-2 3.9-.6 7.3.1 8.5.4l.1-2.1c-2 .1-11.3.3-18.3.6-5.8 0-10.7.3-12.7.5z"/><path class="st17" d="M109.4 18.9l-6.4-2.2s4.1-2.4 6.1-4.7c1.5-1.8 2.4-3.3 2.7-4 .1-.2.3-.4.6-.3 1 0 3.9.2 8.8 1.8 6.2 2 11 6.1 11 6.1s-3.3 1.4-7.2 2c-7.5 1.2-15.6 1.3-15.6 1.3z"/><path class="st8" d="M109.4 19.2h-.1l-6.4-2.2c-.1 0-.2-.2-.2-.3 0-.1.1-.3.2-.3 0 0 4.1-2.4 6-4.7 1.5-1.8 2.4-3.3 2.7-3.9.2-.3.5-.5.9-.5 1 0 4 .2 8.9 1.8 6.2 2 11.1 6.1 11.2 6.1.1.1.1.2.1.3s-.1.2-.2.3c0 0-3.4 1.4-7.2 2-7.6 1.3-15.8 1.4-15.9 1.4zm-5.6-2.6l5.6 1.9c.8 0 8.5-.2 15.6-1.3 2.9-.5 5.4-1.4 6.5-1.8-1.4-1.1-5.5-4-10.4-5.6-4.8-1.5-7.7-1.7-8.7-1.8-.1 0-.2 0-.3.2-.3.6-1.2 2.2-2.8 4-1.4 1.9-4.2 3.7-5.5 4.4z"/><path class="st17" d="M138.8 26.7s-3.1.4-10.4-.6c-7.2-1-18.4-3.7-18.4-3.7l.1-3.7s12.4-.7 18.7-1.6c5.1-.8 8.5-1.3 9.6-1.5.3-.1.6 0 .9.1 1 .5 3.5 2.1 3.9 5.3.6 3.9-4.4 5.7-4.4 5.7z"/><path class="st8" d="M136.9 27.1c-1.7 0-4.4-.1-8.4-.7-7.2-1-18.3-3.7-18.4-3.8-.2 0-.3-.2-.3-.4l.1-3.7c0-.2.2-.3.3-.3.1 0 12.4-.7 18.7-1.6 5.1-.7 8.4-1.3 9.6-1.5.4-.1.8 0 1.1.2 1.1.6 3.7 2.2 4.1 5.6.5 4.3-4.6 6.2-4.7 6.2h-2.1zm1.9-.4zm-28.4-4.6c1.8.4 11.6 2.8 18.1 3.7 6.7.9 9.8.6 10.2.6.4-.2 4.6-1.9 4.2-5.4-.4-3-2.7-4.5-3.7-5-.2-.1-.4-.1-.6-.1-1.2.2-4.6.8-9.7 1.6-5.7.8-16.4 1.5-18.4 1.6l-.1 3z"/><path class="st17" d="M115.2 32s-2.7-.9-5-2.2c-2.3-1.3-6.2-4.3-6.2-4.3s2.2-1.9 3.2-3 2.5-1.6 2.5-1.6 2.3.6 6.2 1.5 12 1.7 16.3 2.4c3.1.6 5.7 1.1 6.9 1.3.5.1.6.3.2.5-.9.5-3.2 1.6-8 2.9-7 1.8-16.1 2.5-16.1 2.5z"/><path class="st8" d="M115.2 32.4h-.1c-.1 0-2.7-.9-5-2.3-2.3-1.3-6.1-4.2-6.2-4.3-.1-.1-.1-.2-.1-.3 0-.1 0-.2.1-.3 0 0 2.2-2 3.2-3 1.1-1.1 2.6-1.7 2.6-1.7h.2s2.3.6 6.2 1.5c2.2.5 5.9 1 9.5 1.5 2.6.3 5 .6 6.8 1 3 .5 5.6 1.1 6.9 1.3.2 0 .7.1.7.5 0 .2 0 .4-.4.6-.9.5-3.2 1.6-8.1 2.9-7 1.8-16.2 2.5-16.3 2.6zm-10.6-6.9c1 .8 4 2.9 5.8 4 2 1.2 4.4 2 4.8 2.2.9-.1 9.4-.8 15.9-2.5 4.4-1.2 6.7-2.2 7.7-2.7-1.3-.3-3.8-.8-6.7-1.3-1.8-.3-4.2-.6-6.8-1-3.6-.5-7.2-.9-9.5-1.5-3.4-.8-5.6-1.3-6.1-1.5-.3.1-1.4.6-2.2 1.5-.8.8-2.2 2.2-2.9 2.8zm34.6 1zm0-.3z"/><path class="st17" d="M109.8 32.1c-1 .1-3.8.2-11.2-.2-10.6-.6-14.3-1.6-14.3-1.6s.5-1 2.6-2.3c2.1-1.3 9.6-4.5 9.6-4.5s1.1 0 4.2-.2 4-.5 4-.5.3 2.7 1.3 4.7c.8 1.6 3.1 3.5 4 4.1.2.3.2.5-.2.5z"/><path class="st8" d="M107 32.6c-1.8 0-4.4-.1-8.5-.3-10.5-.6-14.2-1.5-14.4-1.6-.1 0-.2-.1-.2-.2v-.3s.6-1.1 2.8-2.4c2.1-1.3 9.3-4.4 9.6-4.5h.2s1.1 0 4.2-.2c3-.2 3.9-.5 3.9-.5h.3c.1.1.1.2.2.3 0 0 .3 2.7 1.3 4.6.8 1.5 3 3.3 3.9 4 .2.2.3.4.3.6-.1.3-.5.4-.6.4-.7 0-1.5.1-3 .1zm2.8-.5zm-25-2c1.4.3 5.4 1 13.7 1.4 6.8.4 9.7.3 10.9.2-1.1-.9-3-2.6-3.8-4-.8-1.6-1.2-3.6-1.3-4.4-.5.1-1.6.3-3.7.4-2.7.2-3.9.2-4.2.2-.8.3-7.5 3.3-9.4 4.5-1.2.7-1.8 1.3-2.2 1.7z"/><path class="st2" d="M110.6 18.4l-.2 6c-.1 1.4-4.2 2.4-9.2 2.2-5-.2-9.1-1.5-9-2.9l.2-6"/><path class="st0" d="M92.1 19.6s-4.3-2.1-10-2.8c-5.7-.7-21.7-1.2-21.9-1.7-.2-.5 1.3-1.8 3-2.6 1.6-.7 2.9-1 5.7-.7 2.9.2 6.6 1.2 12.2 2.7 5.6 1.5 11.1 3 11.1 3l-.1 2.1z"/><path class="st14" d="M92.1 19.9h-.2s-4.3-2.1-9.9-2.8c-2.7-.3-7.7-.6-12.1-.9-9.6-.5-9.9-.6-10.1-1-.3-.9 1.7-2.3 3.1-3 1.8-.8 3.1-1 5.9-.8 2.8.2 6.3 1.1 12.3 2.7l11.1 3c.2 0 .3.2.3.4l-.1 2.1c0 .1-.1.2-.2.3h-.1zm-31.5-5.1c1 .2 5.5.5 9.4.7 4.4.2 9.5.5 12.2.9 4.6.6 8.3 2.1 9.6 2.7v-1.3l-10.8-3c-5.9-1.6-9.4-2.5-12.2-2.7-2.7-.2-3.9-.1-5.6.7-1.3.6-2.4 1.6-2.6 2z"/><path class="st0" d="M103.2 15.2l-8 .4s-3.5-2.7-7.5-4.6c-3.2-1.5-7.7-3.4-9.1-4-.3-.1-.3-.2.1-.3 1.6-.2 5.3-.6 9.3-.3 5.1.4 13.6 2.8 13.6 2.8s.4 1.2 1 2.8c.5 1.6.6 3.2.6 3.2z"/><path class="st14" d="M95.3 16c-.1 0-.2 0-.2-.1 0 0-3.5-2.7-7.4-4.5-3.2-1.6-7.8-3.4-9.1-4-.3-.1-.5-.3-.4-.5 0-.4.5-.4.6-.5 1.4-.2 5.2-.7 9.2-.4 5.1.4 13.6 2.8 13.7 2.8.1 0 .2.1.2.2 0 0 .5 1.2 1 2.8.5 1.7.7 3.3.7 3.3 0 .1 0 .2-.1.3-.1.1-.2.1-.3.1l-7.9.5zM79.5 7c1.9.8 5.7 2.4 8.4 3.7 3.6 1.7 6.8 4.1 7.4 4.5l7.4-.3c-.1-.6-.2-1.7-.6-2.8-.4-1.3-.8-2.3-.9-2.6-1.1-.4-8.6-2.5-13.2-2.8-3.5-.2-6.8.1-8.5.3z"/><path class="st0" d="M93.5 23s-4.1-1.2-8.8-.5c-4.7.7-6.6 2.2-8.8 2.9-1.6.5-3.5.7-4.5.8-.4 0-.9 0-1.3-.2-.9-.3-2.6-1-4.5-1.9-2.6-1.3-4.5-2.8-4.5-2.8s6-.5 13.8-.7 18.7-.6 18.7-.6l-.1 3z"/><path class="st14" d="M71.1 26.5c-.4 0-.8-.1-1.1-.2-.9-.3-2.7-1-4.5-1.9-2.6-1.3-4.5-2.8-4.6-2.8-.1-.1-.2-.2-.1-.4 0-.1.2-.2.3-.3.1 0 6.1-.5 13.9-.7 7.9-.3 18.7-.6 18.7-.6.1 0 .2 0 .3.1.1.1.1.2.1.3l-.1 3c0 .1-.1.2-.1.3-.1.1-.2.1-.3.1 0 0-4.1-1.2-8.7-.5-3.1.5-4.9 1.3-6.6 2-.8.3-1.5.6-2.2.9-1.6.5-3.6.7-4.6.8-.2-.1-.3-.1-.4-.1zm-9-4.9c.8.5 2.1 1.4 3.7 2.2 1.8.9 3.6 1.5 4.4 1.8.3.1.7.2 1.1.1 1-.1 2.9-.3 4.4-.7.7-.2 1.4-.5 2.1-.8 1.6-.7 3.5-1.5 6.7-2 3.9-.6 7.3.1 8.5.4l.1-2.1c-2 .1-11.3.3-18.3.6-5.8.1-10.8.4-12.7.5z"/><path class="st0" d="M109.6 18l-6.4-2.2s4.1-2.4 6.1-4.7c1.5-1.8 2.4-3.3 2.7-4 .1-.2.3-.4.6-.3 1 0 3.9.2 8.8 1.8 6.2 2 11 6.1 11 6.1s-3.3 1.4-7.2 2c-7.5 1.2-15.6 1.3-15.6 1.3z"/><path class="st14" d="M109.6 18.4h-.1l-6.4-2.2c-.1 0-.2-.2-.2-.3 0-.1.1-.3.2-.3 0 0 4.1-2.4 6-4.7 1.5-1.8 2.4-3.3 2.7-3.9.2-.4.5-.5.9-.5 1 0 4 .2 8.9 1.8 6.2 2 11.1 6.1 11.2 6.1.1.1.1.2.1.3s-.1.2-.2.3c0 0-3.4 1.4-7.2 2-7.6 1.3-15.8 1.4-15.9 1.4zm-5.6-2.6l5.6 1.9c.8 0 8.5-.2 15.6-1.3 2.9-.5 5.4-1.4 6.5-1.8-1.4-1.1-5.5-4-10.4-5.6-4.8-1.5-7.7-1.7-8.7-1.8-.1 0-.2 0-.3.2-.3.6-1.2 2.2-2.8 4-1.5 1.8-4.2 3.6-5.5 4.4z"/><path class="st0" d="M139 25.9s-3.1.4-10.4-.6c-7.2-1-18.4-3.7-18.4-3.7l.1-3.7s12.4-.7 18.7-1.6c5.1-.8 8.5-1.3 9.6-1.5.3-.1.6 0 .9.1 1 .5 3.5 2.1 3.9 5.3.6 3.9-4.4 5.7-4.4 5.7z"/><path class="st14" d="M137.1 26.3c-1.7 0-4.4-.1-8.4-.7-7.2-1-18.3-3.7-18.4-3.8-.2 0-.3-.2-.3-.4l.1-3.7c0-.2.2-.3.3-.3.1 0 12.4-.7 18.7-1.6 5.1-.8 8.4-1.3 9.6-1.5.4-.1.8 0 1.1.2 1.1.6 3.7 2.2 4.1 5.6.5 4.3-4.6 6.2-4.7 6.2h-.1c-.1-.1-.7 0-2 0zm1.9-.4zm-28.4-4.7c1.8.4 11.6 2.8 18.1 3.7 6.7.9 9.8.6 10.2.6.4-.2 4.6-1.9 4.2-5.4-.4-3-2.7-4.5-3.7-5-.2-.1-.4-.1-.6-.1-1.2.2-4.6.8-9.7 1.6-5.7.8-16.4 1.5-18.4 1.6l-.1 3z"/><ellipse transform="rotate(-87.937 101.49 18.06) scale(1.00005)" class="st2" cx="101.5" cy="18.1" rx="2.6" ry="9.1"/><path class="st8" d="M102.5 21h-1.1c-2.5-.1-4.8-.4-6.5-1-1.9-.6-2.9-1.4-2.9-2.3.1-1.9 5-2.8 9.6-2.6 4.6.2 9.4 1.4 9.4 3.3-.1 1.8-4.3 2.6-8.5 2.6zm-2.1-5.2c-4.7 0-7.6 1.1-7.7 1.9 0 .4.6 1 2.4 1.6 1.7.5 3.9.9 6.3 1 5.4.2 8.8-1 8.9-1.9 0-.9-3.3-2.3-8.7-2.5-.4-.1-.8-.1-1.2-.1z"/><g><path class="st0" d="M115.4 31.2s-2.7-.9-5-2.2c-2.3-1.3-6.2-4.3-6.2-4.3s2.2-1.9 3.2-3 2.5-1.6 2.5-1.6 2.3.6 6.2 1.5c3.9.9 12 1.7 16.3 2.4 3.1.6 5.7 1.1 6.9 1.3.5.1.6.3.2.5-.9.5-3.2 1.6-8 2.9-7 1.7-16.1 2.5-16.1 2.5z"/><path class="st14" d="M115.4 31.5h-.1c-.1 0-2.7-.9-5-2.3-2.3-1.3-6.1-4.2-6.2-4.3-.1-.1-.1-.2-.1-.3 0-.1 0-.2.1-.3 0 0 2.2-2 3.2-3 1.1-1.1 2.6-1.7 2.6-1.7h.2s2.3.6 6.2 1.5c2.2.5 5.9 1 9.5 1.5 2.6.3 5 .6 6.8 1 3 .5 5.6 1 6.9 1.3.2 0 .7.1.7.5 0 .2 0 .4-.4.6-.9.5-3.2 1.6-8.1 2.9-7.1 1.9-16.2 2.6-16.3 2.6zm-10.6-6.9c1 .8 4 2.9 5.8 4 2 1.2 4.4 2 4.8 2.2.9-.1 9.4-.8 15.9-2.5 4.4-1.2 6.7-2.2 7.7-2.7-1.3-.3-3.8-.8-6.7-1.3-1.8-.3-4.2-.6-6.8-1-3.6-.5-7.2-.9-9.5-1.5-3.4-.8-5.6-1.3-6.1-1.5-.3.1-1.4.6-2.2 1.5-.8.9-2.2 2.2-2.9 2.8zm34.6 1.1z"/></g><g><path class="st0" d="M110 31.3c-1 .1-3.8.2-11.2-.2-10.6-.6-14.3-1.6-14.3-1.6s.5-1 2.6-2.3c2.1-1.3 9.6-4.5 9.6-4.5s1.1 0 4.2-.2 4-.5 4-.5.3 2.7 1.3 4.7c.8 1.6 3.1 3.5 4 4.1.2.3.2.4-.2.5z"/><path class="st14" d="M107.2 31.7c-1.8 0-4.4-.1-8.5-.3-10.5-.6-14.2-1.5-14.4-1.6-.1 0-.2-.1-.2-.2v-.3s.6-1.1 2.8-2.4c2.1-1.3 9.3-4.4 9.6-4.5h.2s1.1 0 4.2-.2c3-.2 3.9-.5 3.9-.5h.3c.1.1.1.2.2.3 0 0 .3 2.7 1.3 4.6.8 1.5 3 3.3 3.9 4 .2.2.3.4.3.6-.1.3-.5.4-.6.4-.7.1-1.5.1-3 .1zM85 29.3c1.4.3 5.4 1 13.7 1.4 6.8.4 9.7.3 10.9.2-1.1-.9-3-2.6-3.8-4-.8-1.6-1.2-3.6-1.3-4.4-.5.1-1.6.3-3.7.4-2.7.2-3.9.2-4.2.2-.8.3-7.5 3.3-9.4 4.5-1.2.6-1.8 1.3-2.2 1.7z"/></g><g><path class="st1" d="M54.2 27.6v-6.4"/><path class="st14" d="M53.7 21.2h1v6.4h-1z"/></g><g><path class="st1" d="M147.1 31.8v-6.4"/><path class="st14" d="M146.7 25.4h1v6.4h-1z"/></g></g><g><circle class="st0" cx="170.9" cy="178.8" r="27.6"/><path class="st8" d="M170.9 206.7c-15.4 0-27.9-12.5-27.9-27.9s12.5-27.9 27.9-27.9 27.9 12.5 27.9 27.9-12.5 27.9-27.9 27.9zm0-55.1c-15 0-27.2 12.2-27.2 27.2s12.2 27.2 27.2 27.2 27.2-12.2 27.2-27.2-12.2-27.2-27.2-27.2z"/></g><g><path fill="#295ba9" d="M172.9 175.4l10.1 3.5-19.2 16.7 7.5-13.8-9.6-3.6 17.9-18.3z"/><path class="st4" d="M162.5 197.2l8.3-15.2-9.8-3.7 19.7-20-7.3 16.8 10.3 3.6-21.2 18.5zm-.2-19.2l9.5 3.6-6.8 12.5 17.3-15-9.9-3.4 6.1-14-16.2 16.3z"/></g><g><path class="st0" d="M33.2 66.7c-1.4 0-2.6 1.1-3.6 3H.5v17.5h29.1c1 1.8 2.2 3 3.6 3 3 0 5.4-5.2 5.4-11.7s-2.4-11.8-5.4-11.8z"/><path class="st8" d="M33.2 90.6c-1.4 0-2.8-1-3.8-3H.5c-.2 0-.5-.2-.5-.5V69.7c0-.2.2-.5.5-.5h28.8c1.1-1.9 2.4-3 3.8-3 3.3 0 5.9 5.3 5.9 12.2s-2.6 12.2-5.8 12.2zM.9 86.8h28.7c.2 0 .3.1.4.2.9 1.8 2 2.7 3.2 2.7 2.7 0 5-5.2 5-11.3s-2.3-11.3-5-11.3c-1.1 0-2.3 1-3.2 2.7-.1.1-.2.2-.4.2H.9v16.8z"/><ellipse class="st19" cx="33.2" cy="78.3" rx="4.8" ry="10.6"/><path class="st0" d="M33.2 97.1c-1.4 0-2.6 1.1-3.6 3H.5v17.5h29.1c1 1.8 2.2 3 3.6 3 3 0 5.4-5.2 5.4-11.7s-2.4-11.8-5.4-11.8z"/><path class="st8" d="M33.2 121c-1.4 0-2.8-1-3.8-3H.5c-.2 0-.5-.2-.5-.5V100c0-.2.2-.5.5-.5h28.8c1.1-1.9 2.4-3 3.8-3 3.3 0 5.9 5.3 5.9 12.2 0 7-2.6 12.3-5.8 12.3zM.9 117.1h28.7c.2 0 .3.1.4.2.9 1.8 2 2.7 3.2 2.7 2.7 0 5-5.2 5-11.3 0-6.1-2.3-11.3-5-11.3-1.1 0-2.3 1-3.2 2.7-.1.1-.2.2-.4.2H.9v16.8z"/><ellipse class="st19" cx="33.2" cy="108.7" rx="4.8" ry="10.6"/></g></g></switch></svg>