<svg version="1.1" id="图层_1" xmlns="http://www.w3.org/2000/svg" x="0" y="0" width="271.7" height="109.7" xml:space="preserve"><style>.st0{fill:#d6d7d7}.st1{fill:#747577}.st3{fill:#adadad}.st4{fill:#eaeaea}.st5{fill:#fff}</style><switch><g><path class="st0" d="M151.5 101.4v-23s2.1 4.7 8.8 4.9c6.6.2 8.6-4.9 8.6-4.9v22.9s-1.8 4.5-8.7 4.5-8.7-4.4-8.7-4.4z"/><path class="st1" d="M160.2 106.1c-7 0-8.9-4.5-9-4.7v-23c0-.1.1-.3.2-.3s.3 0 .3.2c0 0 2.2 4.6 8.5 4.7 6.4.2 8.3-4.7 8.3-4.7.1-.1.2-.2.3-.2.1 0 .2.2.2.3v23c.1.3-1.8 4.7-8.8 4.7zm-8.4-4.8c.2.5 2.1 4.2 8.4 4.2 6.3 0 8.1-3.7 8.4-4.2V79.6c-1 1.5-3.5 4.2-8.3 4.1-4.9-.1-7.4-2.7-8.5-4.2v21.8z"/><path class="st0" d="M172.6 101.4v-23s2.1 4.7 8.8 4.9c6.6.2 8.6-4.9 8.6-4.9v22.9s-1.8 4.5-8.7 4.5-8.7-4.4-8.7-4.4z"/><path class="st1" d="M181.4 106.1c-7 0-8.9-4.5-9-4.7v-23c0-.1.1-.3.2-.3s.3 0 .3.2c0 0 2.2 4.6 8.5 4.7 6.3.2 8.3-4.7 8.3-4.7.1-.1.2-.2.3-.2.1 0 .2.2.2.3v23c0 .3-1.8 4.7-8.8 4.7zm-8.5-4.8c.2.5 2.1 4.2 8.4 4.2 6.3 0 8.1-3.7 8.4-4.2V79.6c-1 1.5-3.5 4.2-8.3 4.1-4.9-.1-7.4-2.7-8.5-4.2v21.8z"/><path class="st0" d="M196.8 21c2.6-2.1 5.4-3.2 8.3-3.2 11.5 0 20.9 17.3 20.9 38.7s-9.4 38.7-20.9 38.7c-3 0-5.8-1.1-8.3-3.2"/><ellipse class="st0" cx="58.8" cy="56.2" rx="20.9" ry="38.7"/><path class="st1" d="M205.1 95.8c-11.8 0-21.4-17.6-21.4-39.2s9.6-39.2 21.4-39.2 21.4 17.6 21.4 39.2-9.6 39.2-21.4 39.2zm0-77.5c-11.3 0-20.4 17.2-20.4 38.3 0 21.1 9.2 38.3 20.4 38.3s20.4-17.2 20.4-38.3c0-21.1-9.1-38.3-20.4-38.3z"/><path class="st0" d="M246.5 21H25.2C11.5 21 .5 37 .5 56.6s11.1 35.5 24.7 35.5h221.3c13.7 0 24.7-15.9 24.7-35.5.1-19.6-11-35.6-24.7-35.6z"/><path d="M25 92.6c-.3 0-.5-.2-.5-.5s.2-.5.5-.5c10.3 0 18.7-15.7 18.7-35.1 0-19.3-8.4-35.1-18.7-35.1-.3 0-.5-.2-.5-.5s.2-.5.5-.5c10.8 0 19.6 16.1 19.6 36 0 20-8.8 36.2-19.6 36.2zm218.2 0c-.3 0-.5-.2-.5-.5s.2-.5.5-.5c10.3 0 18.7-15.7 18.7-35.1 0-19.3-8.4-35.1-18.7-35.1-.3 0-.5-.2-.5-.5s.2-.5.5-.5c10.8 0 19.6 16.1 19.6 36 .1 20-8.7 36.2-19.6 36.2z" fill="#8c8c8c"/><path class="st1" d="M246.5 92.6H25.2C11.3 92.6 0 76.4 0 56.6c0-19.9 11.3-36 25.2-36h221.3c13.9 0 25.2 16.1 25.2 36 0 19.8-11.3 36-25.2 36zM25.2 21.5C11.8 21.5.9 37.2.9 56.6c0 19.3 10.9 35.1 24.3 35.1h221.3c13.4 0 24.3-15.7 24.3-35.1 0-19.3-10.9-35.1-24.3-35.1H25.2z"/><path class="st0" d="M216.7 95.3c11.5 0 20.9-17.3 20.9-38.7s-9.4-38.7-20.9-38.7h-11.6c11.5 0 20.9 17.3 20.9 38.7s-9.4 38.7-20.9 38.7h11.6z"/><path class="st1" d="M216.7 95.8h-11.6v-.9c11.3 0 20.4-17.2 20.4-38.3 0-21.1-9.2-38.3-20.4-38.3v-.9h11.6c11.8 0 21.4 17.6 21.4 39.2s-9.6 39.2-21.4 39.2zm-7-.9h7c11.3 0 20.4-17.2 20.4-38.3 0-21.1-9.2-38.3-20.4-38.3h-7c9.6 3.9 16.7 19.6 16.7 38.3.1 18.7-7.1 34.4-16.7 38.3zm-150.9.9c-3 0-5.9-1.1-8.6-3.3-.2-.2-.2-.4-.1-.6.2-.2.4-.2.6-.1 2.5 2.1 5.3 3.1 8 3.1 11.3 0 20.4-17.2 20.4-38.3s-9.2-38.3-20.4-38.3c-2.8 0-5.5 1-8 3.1-.2.2-.5.1-.6-.1-.2-.2-.1-.5.1-.6 2.7-2.2 5.6-3.3 8.6-3.3 11.8 0 21.4 17.6 21.4 39.2s-9.6 39.2-21.4 39.2z"/><path class="st3" d="M224.3 105.1V69.4h-6.4c-2.8 13.3-9.7 22.7-17.9 22.7h-11.1l27.4 14.9v2.1h9.7V105h-1.7z"/><path class="st4" d="M217.9 69.4h6.4V108h-6.4z"/><path class="st4" d="M216.2 105.1h9.7v4.1h-9.7z"/><path class="st5" d="M216.4 106.7c-.1 0-.2-.1-.2-.2v-1.4c0-.1.1-.2.2-.2h1.4V69.4c0-.1.1-.2.2-.2s.2.1.2.2v35.7c0 .1-.1.2-.2.2h-1.4v1.1c.1.2 0 .3-.2.3z"/><path class="st1" d="M225.9 109.7h-9.7c-.3 0-.5-.2-.5-.5v-1.9l-27.1-14.8c-.2-.1-.3-.3-.2-.5s.2-.3.4-.3H200c7.6 0 14.6-9 17.4-22.4 0-.3.2-.4.4-.4h6.4c.3 0 .5.2.5.5v35.2h1.2c.3 0 .5.2.5.5v4.1c0 .3-.2.5-.5.5zm-9.2-1h8.8v-3.2h-1.2c-.3 0-.5-.2-.5-.5V69.8h-5.6c-3 13.8-10.1 22.8-18.3 22.8h-9.3l25.8 14c.1.1.2.2.2.4v1.7z"/><path class="st3" d="M96.6 105.1V69.4h-6.4c-2.8 13.3-9.7 22.7-17.9 22.7H61.1L88.5 107v2.1h9.7V105h-1.6z"/><path class="st4" d="M90.1 69.4h6.4V108h-6.4z"/><path class="st4" d="M88.5 105.1h9.7v4.1h-9.7z"/><path class="st5" d="M88.7 106.7c-.1 0-.2-.1-.2-.2v-1.4c0-.1.1-.2.2-.2h1.4V69.4c0-.1.1-.2.2-.2s.2.1.2.2v35.7c0 .1-.1.2-.2.2H89v1.1c0 .2-.1.3-.3.3z"/><path class="st1" d="M98.2 109.7h-9.7c-.3 0-.5-.2-.5-.5v-1.9L60.9 92.6c-.2-.1-.3-.3-.2-.5s.2-.3.4-.3h11.1c7.6 0 14.6-9 17.4-22.4 0-.3.2-.4.4-.4h6.4c.3 0 .5.2.5.5v35.2h1.2c.3 0 .5.2.5.5v4.1c.1.2-.1.4-.4.4zm-9.2-1h8.8v-3.2h-1.2c-.3 0-.5-.2-.5-.5V69.8h-5.6c-3 13.8-10.1 22.8-18.3 22.8h-9.3l25.8 14c.1.1.2.2.2.4v1.7z"/><g><path class="st0" d="M70.4 95.4C82 95.4 91.3 78 91.3 56.6S82 17.9 70.4 17.9H58.8c11.5 0 20.9 17.3 20.9 38.7s-9.4 38.7-20.9 38.7h11.6z"/><path class="st1" d="M70.4 95.8H58.8v-.9c11.3 0 20.4-17.2 20.4-38.3S70 18.3 58.8 18.3v-.9h11.6c11.8 0 21.4 17.6 21.4 39.2s-9.6 39.2-21.4 39.2zm-7-.9h7c11.3 0 20.4-17.2 20.4-38.3s-9.2-38.3-20.4-38.3h-7c9.6 3.9 16.7 19.6 16.7 38.3S73 91 63.4 94.9z"/></g><g><path class="st0" d="M89.5 23.2V.3s2.1 4.7 8.8 4.9c6.6.2 8.6-4.9 8.6-4.9v22.9s-1.8 4.5-8.7 4.5-8.7-4.5-8.7-4.5z"/><path class="st1" d="M98.3 28c-7 0-8.9-4.5-9-4.7V.3c0-.1.1-.3.2-.3s.3 0 .3.2c0 0 2.2 4.6 8.5 4.7 6.3.2 8.3-4.7 8.3-4.7.1-.1.2-.2.3-.2.1 0 .2.2.2.3v23c0 .2-1.8 4.7-8.8 4.7zm-8.5-4.8c.2.5 2.1 4.2 8.4 4.2 6.2 0 8.1-3.8 8.4-4.2V1.5c-1 1.5-3.5 4.2-8.3 4.1-4.9-.1-7.4-2.7-8.5-4.2v21.8z"/></g><g><path class="st0" d="M110.7 23.2V.3s2.1 4.7 8.8 4.9c6.6.2 8.6-4.9 8.6-4.9v22.9s-1.8 4.5-8.7 4.5-8.7-4.5-8.7-4.5z"/><path class="st1" d="M119.4 28c-7 0-8.9-4.5-9-4.7V.3c0-.1.1-.3.2-.3s.3 0 .3.2c0 0 2.2 4.6 8.5 4.7 6.3.2 8.3-4.7 8.3-4.7.1-.1.2-.2.3-.2.1 0 .2.2.2.3v23c.1.2-1.8 4.7-8.8 4.7zm-8.4-4.8c.2.5 2.1 4.2 8.4 4.2 6.2 0 8.1-3.8 8.4-4.2V1.5c-1 1.5-3.5 4.2-8.3 4.1-4.9-.1-7.4-2.7-8.5-4.2v21.8z"/></g></g></switch></svg>