<svg version="1.1" id="图层_1" xmlns="http://www.w3.org/2000/svg" xmlns:xlink="http://www.w3.org/1999/xlink" x="0" y="0" width="174" height="205.5" xml:space="preserve"><style>.st0{fill:#d6d7d7}.st1{fill:#747577}.st2{fill:#eaeaea}.st5{fill:#fff}</style><switch><g><path class="st0" d="M3.4 140.7C1.7 140.7.3 155.1.3 173c0 17.8 1.4 32.3 3.1 32.3h8.9v-64.5H3.4z"/><ellipse class="st1" cx="12.3" cy="173" rx="3.1" ry="32.3"/><path class="st0" d="M170.6 140.7c1.7 0 3.1 14.4 3.1 32.3 0 17.8-1.4 32.3-3.1 32.3h-8.9v-64.5h8.9z"/><ellipse class="st1" cx="161.7" cy="173" rx="3.1" ry="32.3"/><path class="st0" d="M9.9 156.1h154.4v33.8H9.9z"/><path class="st1" d="M164.3 190.2H9.9c-.2 0-.3-.1-.3-.3v-33.8c0-.2.1-.3.3-.3h154.4c.2 0 .3.1.3.3v33.8c0 .1-.1.3-.3.3zm-154.1-.6H164v-33.2H10.2v33.2z"/><path class="st0" d="M38.1 156.5v33.2h.4c3.1 7.5 24.3 13.3 50.1 13.3s47-5.8 50.1-13.3h.4v-33.2h-101z"/><ellipse class="st2" cx="88.6" cy="156.5" rx="50.6" ry="15.2"/><path class="st1" d="M88.6 172c-28 0-50.9-6.9-50.9-15.5 0-8.5 22.8-15.5 50.9-15.5s50.9 6.9 50.9 15.5c0 8.5-22.8 15.5-50.9 15.5zm0-30.4c-27.7 0-50.3 6.7-50.3 14.9s22.6 14.9 50.3 14.9c27.7 0 50.3-6.7 50.3-14.9s-22.5-14.9-50.3-14.9z"/><path class="st0" d="M56.4 144v7h.1c1.5 6.1 15.3 10.8 32.1 10.8s30.6-4.7 32.1-10.8h.1v-7H56.4z"/><path class="st1" d="M88.6 162.1c-16.7 0-30.5-4.6-32.3-10.8-.1 0-.2-.2-.2-.3v-7c0-.2.1-.3.3-.3h64.5c.2 0 .3.1.3.3v7c0 .1-.1.3-.2.3-1.8 6.2-15.6 10.8-32.4 10.8zm-31.9-11.4c.1 0 .1.1.1.2 1.5 5.9 15.4 10.6 31.8 10.6s30.4-4.6 31.8-10.6c0-.1.1-.1.1-.2v-6.5H56.7v6.5z"/><path class="st2" d="M125.7 137.2c-7.6-3.2-21.3-5.4-37-5.4s-29.5 2.2-37 5.4h-6.2v5.7c0 6.1 19.3 11.1 43.2 11.1s43.2-5 43.2-11.1v-5.7h-6.2z"/><ellipse class="st1" cx="88.6" cy="137.2" rx="43.2" ry="11.1"/><path class="st2" d="M125.7 129c-7.6-3.2-21.3-5.4-37-5.4s-29.5 2.2-37 5.4h-6.2v5.7c0 6.1 19.3 11.1 43.2 11.1s43.2-5 43.2-11.1V129h-6.2z"/><ellipse class="st0" cx="88.6" cy="128.9" rx="43.2" ry="11.1"/><path class="st1" d="M128.3 118.3V30.7H46.2v87.7c0 .1-.1.2-.1.3 0 7.2 18.4 13.1 41.1 13.1 22.7 0 41.1-5.9 41.1-13.1.1-.1 0-.2 0-.4z"/><defs><path id="SVGID_1_" d="M128.3 34.7c-.6 7.9-18.7 14.3-41.1 14.3s-40.5-6.3-41.1-14.3v79.5c0 .1-.1.2-.1.3 0 7.2 18.4 13.1 41.1 13.1 22.7 0 41.1-5.9 41.1-13.1 0-.1 0-.2-.1-.3V34.7z"/></defs><clipPath id="SVGID_2_"><use xlink:href="#SVGID_1_" overflow="visible"/></clipPath><g clip-path="url(#SVGID_2_)"><path class="st0" d="M86.3 6.5h1.8v148.3h-1.8zm-39.9 0h1.8v148.3h-1.8zm3.7 0h1.8v148.3h-1.8zm3.9 0h1.8v148.3H54zm4.7 0h1.8v148.3h-1.8zm4.6 0h1.8v148.3h-1.8zm11 0h1.8v148.3h-1.8zm-5.8 0h1.8v148.3h-1.8zm12 0h1.8v148.3h-1.8zm46.5 0h1.8v148.3H127zm-3.7 0h1.8v148.3h-1.8zm-3.9 0h1.8v148.3h-1.8zm-4.7 0h1.8v148.3h-1.8zm-4.6 0h1.8v148.3h-1.8zm-5.2 0h1.8v148.3h-1.8zm-5.8 0h1.8v148.3h-1.8zm-6.2 0h1.8v148.3h-1.8z"/></g><ellipse class="st2" cx="87.3" cy="29.9" rx="41.1" ry="15.2"/><path class="st2" d="M46.2 15.8h82.1v14.9H46.2z"/><ellipse class="st2" cx="87.3" cy="15.5" rx="41.1" ry="15.2"/><path class="st1" d="M87.2 30.2c-22.8 0-41.4-6.7-41.4-14.9 0-.2.1-.3.3-.3s.3.1.3.3c0 7.9 18.3 14.3 40.8 14.3 22.5 0 40.8-6.4 40.8-14.3 0-.2.1-.3.3-.3s.3.1.3.3c0 8.2-18.5 14.9-41.4 14.9z"/><ellipse class="st0" cx="87" cy="9.5" rx="34.5" ry="9.2"/><path class="st1" d="M170.6 205.5h-8.9c-1.3 0-2.3-5.2-2.9-15.4h-19.9c-3.6 7.5-25.1 13.1-50.2 13.1s-46.6-5.6-50.2-13.1H15.2c-.6 10.2-1.6 15.4-2.9 15.4H3.4C.9 205.5 0 186.1 0 173s.9-32.6 3.4-32.6h8.9c1.3 0 2.3 5.2 2.9 15.4h22.7c.5-3.2 4-6.2 10.3-8.7-2-1.3-3-2.8-3-4.2v-5.7c0-.4.1-.8.3-1.3-.2-.5-.3-.9-.3-1.3V128.9c0-1.7 1.4-3.3 4.1-4.8-2.3-1.7-3.4-3.5-3.4-5.4V30.8s-.1-.1-.1-.2V15.2c0-.1 0-.2.1-.2.3-3.4 3.4-6.6 9-9.2C60.3 2.3 72.9 0 87 0h1c1 0 2 0 3.1.1h1c10.6.4 20.1 2.2 25.3 4.7 7.3 2.9 11.3 6.7 11.3 10.7 0 .2 0 .4-.1.6v13.1c0 .2.1.4.1.6 0 .2 0 .4-.1.6v88.3c0 1.5-.8 3-2.4 4.5 3.9 1.7 5.8 3.7 5.8 5.7v5.7c0 .4-.1.8-.3 1.3.2.5.3.9.3 1.3v5.7c0 1.5-1 2.9-3 4.2 6.3 2.5 9.8 5.5 10.3 8.7h19.4c.6-10.2 1.6-15.4 2.9-15.4h8.9c2.5 0 3.4 19.5 3.4 32.6s-.8 32.5-3.3 32.5zm-31.9-15.9h20.4c.2 0 .3.1.3.3.7 12.4 1.9 15.1 2.3 15.1h8.9c1 0 2.8-10.7 2.8-32s-1.8-32-2.8-32h-8.9c-.4 0-1.6 2.7-2.3 15.1 0 .2-.1.3-.3.3h-20c-.2 0-.3-.1-.3-.3-.3-3.1-3.9-6.1-10.5-8.6-.1 0-.2-.1-.2-.3s0-.2.1-.3c2.2-1.3 3.3-2.7 3.3-4.1v-5.7c0-.4-.1-.7-.3-1.1v-.2c.2-.4.3-.8.3-1.1V128.8c0-1.8-2.1-3.6-5.9-5.3-.1 0-.2-.1-.2-.2s0-.2.1-.3c1.7-1.4 2.5-2.9 2.5-4.4V30.7c0-.1-.1-.1 0-.2v-.3c0-.2.1-.3.1-.5s0-.3-.1-.5V15.8c0-.2.1-.3.1-.5 0-3.7-3.9-7.3-11-10.1C112 2.9 102.6 1.1 92 .7h-1c-1 0-2 0-3-.1h-1.1c-14 0-26.5 2.2-31.8 5.7-5.6 2.6-8.6 5.7-8.7 8.9 0 .1 0 .1-.1.2v15s.1.1.1.2v88c0 1.8 1.2 3.5 3.5 5.2.1.1.1.2.1.3s-.1.2-.2.2c-2.8 1.5-4.2 3-4.2 4.6v5.7c0 .4.1.7.3 1.1v.2c-.2.4-.3.8-.3 1.1v5.7c0 1.4 1.1 2.7 3.3 4.1.1.1.2.2.1.3s-.1.2-.2.3c-6.6 2.5-10.2 5.5-10.5 8.6 0 .2-.1.3-.3.3H14.9c-.2 0-.3-.1-.3-.3-.7-12.4-1.9-15.1-2.3-15.1H3.4c-1 0-2.8 10.7-2.8 32s1.8 32 2.8 32h8.9c.4 0 1.6-2.7 2.3-15.1 0-.2.1-.3.3-.3h23.7c.1 0 .2.1.3.2 3.3 7.4 24.7 13 49.8 13s46.5-5.6 49.8-13c0 0 .1-.1.2-.1z"/><circle cx="87.3" cy="87.8" r="24.2" fill="#fc3a3a"/><path class="st5" d="M89.9 92.3h-5.2l-.6-18.8h6.3z"/><circle class="st5" cx="87.3" cy="98" r="4.1"/></g></switch></svg>