<svg version="1.1" id="图层_1" xmlns="http://www.w3.org/2000/svg" xmlns:xlink="http://www.w3.org/1999/xlink" x="0" y="0" width="314.4" height="167.2" xml:space="preserve"><style>.st0{fill:#d6d7d7}.st1{fill:#747577}.st2{fill:#eaeaea}.st3{fill:#fff}</style><path class="st0" d="M307.4 106.1h-33.2s6.9-3.1 7.1-12.7c.3-9.6-7.1-12.5-7.1-12.5h33.2s6.5 2.5 6.5 12.5-6.5 12.7-6.5 12.7z"/><path class="st1" d="M307.4 106.5h-33.2c-.2 0-.4-.1-.4-.3 0-.2.1-.4.2-.5.1 0 6.6-3.1 6.9-12.3.3-9.1-6.6-12-6.8-12.1-.2-.1-.3-.3-.3-.5s.2-.4.4-.4h33.4c.3.1 6.7 2.8 6.7 12.9 0 10.2-6.5 12.9-6.7 13 0 .2-.1.2-.2.2zm-31.6-.8h31.6c.7-.3 6.1-3.1 6.1-12.2s-5.4-11.8-6.1-12.1H276c2.2 1.5 6.1 5 5.9 12.1-.3 7-4.1 10.7-6.1 12.2z"/><path class="st0" d="M226.7 166.8h48.1c10.8-4.5 19.2-35.9 19.2-73.3s-8.4-68.7-19.2-73.3h-48.1v146.6z"/><ellipse class="st2" cx="226.7" cy="93.5" rx="22" ry="73.3"/><path class="st3" d="M226.7 167.2c-12.4 0-22.4-33.1-22.4-73.7s10.1-73.7 22.4-73.7c12.4 0 22.4 33.1 22.4 73.7 0 40.7-10 73.7-22.4 73.7zm0-146.5c-11.9 0-21.5 32.7-21.5 72.8 0 40.2 9.7 72.8 21.5 72.8s21.5-32.7 21.5-72.8c.1-40.1-9.6-72.8-21.5-72.8z"/><path class="st0" d="M208.6 140.3h10.2v-.3c8.8-2.2 15.6-22.2 15.6-46.5s-6.9-44.3-15.6-46.5v-.2h-10.2v93.5z"/><path class="st1" d="M218.7 140.7h-10.2c-.2 0-.4-.2-.4-.4V46.8c0-.2.2-.4.4-.4h10.2c.2 0 .4.1.4.3 8.9 2.6 15.7 22.6 15.7 46.8 0 24.2-6.7 44.2-15.7 46.8 0 .3-.2.4-.4.4zm-9.7-.9h9.3c.1-.1.2-.2.3-.2 8.6-2.1 15.3-22.4 15.3-46.1 0-23.7-6.7-44-15.3-46.1-.1 0-.2-.1-.3-.2H209v92.6z"/><path class="st2" d="M198.7 39.9c-4.7 10.9-7.8 30.8-7.8 53.6s3.1 42.7 7.8 53.6v9h8.2c8.9 0 16-28 16-62.6s-7.2-62.6-16-62.6h-8.2v9z"/><ellipse class="st1" cx="198.7" cy="93.5" rx="16" ry="62.6"/><path class="st2" d="M186.8 39.9c-4.7 10.9-7.8 30.8-7.8 53.6s3.1 42.7 7.8 53.6v9h8.2c8.9 0 16-28 16-62.6s-7.2-62.6-16-62.6h-8.2v9z"/><ellipse class="st0" cx="186.7" cy="93.5" rx="16" ry="62.6"/><path class="st3" d="M186.7 156.5c-9.2 0-16.5-27.7-16.5-63s7.2-63 16.5-63 16.5 27.7 16.5 63c0 35.4-7.2 63-16.5 63zm0-125.1c-8.6 0-15.6 27.9-15.6 62.1s7 62.1 15.6 62.1 15.6-27.9 15.6-62.1-7-62.1-15.6-62.1z"/><path class="st1" d="M171.4 36h-127v119h127c.2 0 .3.1.5.1 10.5 0 19-26.7 19-59.5 0-32.9-8.5-59.5-19-59.5-.2-.1-.3-.1-.5-.1z"/><defs><path id="SVGID_1_" d="M50.3 36.1C61.8 37 71 63.2 71 95.6s-9.2 58.6-20.6 59.5h115.2c.2 0 .3.1.5.1 10.5 0 19-26.7 19-59.5 0-32.9-8.5-59.5-19-59.5-.2 0-.3.1-.5.1H50.3z"/></defs><clipPath id="SVGID_2_"><use xlink:href="#SVGID_1_" overflow="visible"/></clipPath><g clip-path="url(#SVGID_2_)"><path class="st0" d="M9.5 94.3h214.7v2.6H9.5zm0 57.9h214.7v2.6H9.5zm0-5.4h214.7v2.6H9.5zm0-5.7h214.7v2.6H9.5zm0-6.7h214.7v2.6H9.5zm0-6.7h214.7v2.6H9.5zm0-16h214.7v2.6H9.5zm0 8.5h214.7v2.6H9.5zm0-17.4h214.7v2.6H9.5zm0-67.4h214.7V38H9.5zm0 5.4h214.7v2.6H9.5zm0 5.7h214.7v2.6H9.5zm0 6.7h214.7v2.6H9.5zm0 6.7h214.7v2.6H9.5zm0 7.5h214.7V70H9.5zm0 8.5h214.7v2.6H9.5zm0 8.9h214.7v2.6H9.5z"/></g><circle class="st0" cx="127.2" cy="95.5" r="35"/><path class="st1" d="M127.2 131c-19.6 0-35.5-15.9-35.5-35.5S107.6 60 127.2 60s35.5 15.9 35.5 35.5-16 35.5-35.5 35.5zm0-70.1c-19.1 0-34.6 15.5-34.6 34.6s15.5 34.6 34.6 34.6 34.6-15.5 34.6-34.6-15.6-34.6-34.6-34.6z"/><ellipse class="st2" cx="43.3" cy="95.5" rx="22" ry="59.5"/><path transform="rotate(-90 33.653 95.58)" class="st2" d="M-25.8 84.8H93.1v21.5H-25.8z"/><ellipse class="st2" cx="22.4" cy="95.5" rx="22" ry="59.5"/><path class="st1" d="M22.1 155.6c-.2 0-.4-.2-.4-.4s.2-.4.4-.4c11.5 0 20.8-26.5 20.8-59.1s-9.3-59.1-20.8-59.1c-.2 0-.4-.2-.4-.4s.2-.4.4-.4c11.9 0 21.6 26.9 21.6 60s-9.7 59.8-21.6 59.8z"/><ellipse class="st0" cx="13.8" cy="95.9" rx="13.4" ry="49.9"/><path class="st1" d="M126.3 92c-.3.1-.6.2-.9.4-6-2.1.7-14-3.9-15.6-9.6-2.1-14 6.6-14 10.2.5 9.5 12.3 9.7 16.3 9.5l.3.9c-2.1 6-14-.7-15.6 3.9-2.1 9.6 6.6 14 10.2 14 9.5-.5 9.7-12.3 9.5-16.3l.9-.3c6 2.1-.7 14 3.9 15.6 9.6 2.1 14-6.6 14-10.2-.5-9.5-12.3-9.6-16.3-9.5l-.3-.9c2.1-6 14 .7 15.6-3.9 2.1-9.6-6.6-14-10.2-14-9.5.5-9.7 12.3-9.5 16.2zm3.4 3.5c0 1.4-1.1 2.6-2.6 2.6-1.4 0-2.6-1.1-2.6-2.6 0-1.4 1.1-2.6 2.6-2.6s2.6 1.2 2.6 2.6zm0 0"/><path class="st3" d="M118.6 115.6c-2.3 0-6.1-1.6-8.5-4.6-1.5-1.9-3.2-5.2-2.1-10 .9-2.5 4-2.2 7.4-1.8 3.5.4 7.1.7 8.2-2-.1-.2-.1-.3-.2-.4-4.1.2-15.9-.2-16.4-9.9 0-2.3 1.6-6.1 4.6-8.5 1.9-1.5 5.2-3.2 10-2.1 2.5.9 2.2 4 1.8 7.4-.4 3.5-.7 7.1 2 8.2.1-.1.3-.1.4-.2-.2-4.1.2-15.9 9.9-16.4 2.3 0 6.1 1.6 8.5 4.6 1.5 1.9 3.2 5.2 2.1 10-.9 2.5-4 2.2-7.4 1.8-3.5-.4-7.1-.7-8.2 2 .1.1.1.3.2.4 4.1-.2 15.9.2 16.4 9.9 0 2.3-1.6 6.1-4.6 8.5-1.9 1.5-5.2 3.2-10 2.1-2.5-.9-2.2-4-1.8-7.4.4-3.5.7-7.1-2-8.2-.1.1-.3.1-.4.2.2 4.2-.2 15.9-9.9 16.4zm-6.5-15.7c-1.6 0-2.9.3-3.3 1.4-.8 3.5-.1 6.6 2 9.2 2.4 3 6 4.3 7.8 4.3 9.1-.5 9.2-12.2 9-15.8v-.4l.3-.1c.3-.1.5-.2.8-.3l.2-.1.2.1c3.5 1.2 3.1 5.4 2.7 9.1-.3 3-.6 5.9 1.2 6.5 3.5.7 6.6.1 9.2-2 2.9-2.4 4.3-6 4.3-7.8-.5-9.1-12.2-9.2-15.8-9h-.4l-.1-.3c-.1-.3-.2-.5-.3-.7l-.1-.2.1-.2c1.2-3.5 5.4-3.1 9.1-2.7 3 .3 5.9.6 6.5-1.2.8-3.5.1-6.7-2-9.2-2.4-2.9-6-4.3-7.8-4.3-9.1.5-9.2 12.2-9 15.8v.3l-.3.1c-.3.1-.5.2-.8.3l-.2.1-.2-.1c-3.5-1.2-3.1-5.4-2.7-9.1.3-3 .6-5.9-1.2-6.5-3.5-.8-6.6-.1-9.2 2-3 2.4-4.3 6-4.3 7.8.5 9.1 12.2 9.2 15.8 9h.4l.1.3c.1.2.2.5.3.8l.1.2-.1.2c-1.2 3.5-5.4 3.1-9.1 2.7-1.1-.1-2.2-.2-3.2-.2zm15.1-1.4c-1.6 0-3-1.3-3-3 0-1.6 1.3-3 3-3s3 1.3 3 3c0 1.6-1.4 3-3 3zm0-5.1c-1.2 0-2.1 1-2.1 2.1 0 1.2 1 2.1 2.1 2.1 1.2 0 2.1-1 2.1-2.1 0-1.2-1-2.1-2.1-2.1z"/><path class="st1" d="M274.8 167.2h-48.1c-5 0-9.7-5.2-13.6-15.1-1.9 2.9-4 4.4-6.1 4.4h-8.2c-.6 0-1.2-.1-1.8-.4-.7.3-1.3.4-1.8.4H187c-2.5 0-4.9-2-7.1-6-2.5 3.3-5.1 4.9-7.8 4.9-.1 0-.3 0-.4-.1H44.8c-.1 0-.1.1-.2.1H22.7c-.3.1-.7.1-.9-.1-4.9-.4-9.6-4.9-13.4-13.1C3.3 134.6 0 116.4 0 95.9v-1.5c0-1.5 0-3 .1-4.4l.1-1.4C.8 73.1 3.3 59.5 7 51.9c4.2-10.6 9.6-16.4 15.4-16.4.3 0 .6.1.9.1.1 0 .2 0 .4.1h18.5c.1 0 .2 0 .3-.1.5-.1 1.2-.1 1.7 0h127.4c.1 0 .2-.1.4-.1 2.2 0 4.4 1.2 6.5 3.5 2.5-5.6 5.3-8.5 8.3-8.5h8.2c.6 0 1.2.1 1.8.4.7-.3 1.3-.4 1.8-.4h8.2c2.2 0 4.2 1.5 6.1 4.4 3.9-9.9 8.6-15.1 13.6-15.1h48.3c11.1 4.6 19.5 36.3 19.5 73.7 0 37.4-8.4 69-19.5 73.7.2 0 .1 0 0 0zm-61.6-16.4c.2 0 .3.1.4.3 3.8 9.9 8.4 15.3 13.1 15.3h48.1c10.8-4.6 18.9-35.9 18.9-72.8s-8.1-68.2-18.9-72.8h-48.1c-4.7 0-9.3 5.4-13.1 15.3-.1.2-.2.3-.4.3s-.3-.1-.4-.2c-1.9-3.1-3.9-4.7-5.9-4.7h-8.2c-.5 0-1.1.1-1.7.4h-.4c-.6-.3-1.2-.4-1.7-.4h-8.3c-2.6 0-5.3 3-7.7 8.6l-.3.3c-.1 0-.3 0-.4-.1-2.1-2.4-4.2-3.7-6.3-3.7H44.6c-.1.1-.2.1-.3.1-.1 0-.3 0-.4-.1-.5-.1-.9-.1-1.4 0-.1 0-.3 0-.4.1H23.5c-.2 0-.3 0-.4-.1-.3 0-.5-.1-.7-.1C17 36.4 11.8 42 7.8 52.3c-3.6 7.4-6.2 21-6.8 36.3V90c0 1.4-.1 2.9-.1 4.4v1.5c0 20.3 3.2 38.4 8.3 46 3.8 8.1 8.2 12.5 13 12.7.1 0 .2 0 .3.1h.1c.1 0 .2 0 .4-.1h21.4c.1 0 .1-.1.2-.1h127.5c2.6 0 5.1-1.7 7.5-5.1.1-.1.2-.2.4-.2s.3.1.4.2c2.1 4 4.4 6.1 6.6 6.1h8.3c.5 0 1.1-.1 1.7-.4h.4c.6.3 1.2.4 1.7.4h8.2c2 0 4-1.6 5.9-4.7-.3 0-.2 0 0 0z"/><path class="st0" d="M247.8 33.6V.4s3.1 6.9 12.7 7.1c9.6.3 12.5-7.1 12.5-7.1v33.2s-2.5 6.5-12.5 6.5-12.7-6.5-12.7-6.5z"/><path class="st1" d="M260.4 40.5c-10.2 0-12.9-6.5-13-6.7V.4c0-.2.1-.4.3-.4.2 0 .4.1.5.2 0 .1 3.1 6.6 12.3 6.9 9.1.3 12-6.6 12.1-6.8.1-.2.3-.3.5-.3s.4.2.4.4v33.4c-.2.3-2.9 6.7-13.1 6.7zm-12.2-7c.3.7 3.1 6.1 12.2 6.1s11.8-5.4 12.1-6.1V2.1c-1.5 2.2-5 6.1-12.1 5.9-7.1-.2-10.7-4-12.2-6v31.5z"/></svg>