<svg version="1.1" id="图层_1" xmlns="http://www.w3.org/2000/svg" x="0" y="0" width="85" height="293.5" xml:space="preserve"><style>.st0{fill:#747577}.st3{fill:#fff}</style><path class="st0" d="M80.9 75H4.1C1.8 75 0 73.2 0 70.9V4.1C0 1.8 1.8 0 4.1 0H81c2.2 0 4 1.8 4 4.1V71c0 2.2-1.8 4-4.1 4z"/><path d="M71.4 50.4h-58c-1.2 0-2.2-1-2.2-2.2V25.4c0-1.2 1-2.2 2.2-2.2h58c1.2 0 2.2 1 2.2 2.2v22.8c0 1.2-1 2.2-2.2 2.2z" fill="#d9d9d9"/><path d="M71.4 23.2c1.2 0 2.2 1 2.2 2.2v22.8c0 1.2-1 2.2-2.2 2.2h-58c-1.2 0-2.2-1-2.2-2.2V25.4c0-1.2 1-2.2 2.2-2.2h58m0-.7h-58c-1.6 0-2.9 1.3-2.9 2.9v22.8c0 1.6 1.3 2.9 2.9 2.9h58c1.6 0 2.9-1.3 2.9-2.9V25.4c0-1.6-1.3-2.9-2.9-2.9z" fill="#666768"/><path class="st3" d="M68.2 47.1H16.6c-1.1 0-1.9-.7-1.9-1.6V28.1c0-.9.9-1.6 1.9-1.6h51.7c1.1 0 1.9.7 1.9 1.6v17.3c0 .9-.9 1.7-2 1.7z"/><path d="M48 159.9v124.6c0 5-2.4 9-5.5 9-1.2 0-2.3-.6-3.2-1.7-1.4-1.6-2.2-4.3-2.2-7.3V159.9H48zM37 85.7h11v46.7H37z" fill="#d1d2d4"/><path d="M37 85.7h2.2v46.7H37zm0 74.2h2.2v131.9c-1.4-1.6-2.2-4.3-2.2-7.3V159.9z" fill="#404042" opacity=".19"/><path class="st0" d="M49.7 86H35.3c-.7 0-1.3-.6-1.3-1.3V74.3h17v10.4c0 .7-.6 1.3-1.3 1.3z"/><path class="st3" d="M47.7 84.7H37.4c-.4 0-.8-.4-.8-.8v-5.7c0-.4.4-.8.8-.8s.8.4.8.8V83h9.5c.4 0 .8.4.8.8 0 .5-.3.9-.8.9z"/><path opacity=".2" d="M34 75.3h17v1.1H34z"/></svg>