<svg xmlns="http://www.w3.org/2000/svg" width="529.9" height="347.1"><style>.st2{fill:#747577}.st3{fill:#e5e5e5}</style><g id="图层_1"><path d="M490 195.6H39.8c-20.2 0-35.7-15.6-37.1-36.4L.4 25.4c0-13.8 11.2-25 25-25h479c13.8 0 25 11.2 25 25l-2.3 133.8c-1.4 20.8-16.9 36.4-37.1 36.4z" fill="#f4f4f4"/><path d="M2.6 146.5l.2 12.8c1.4 20.8 16.8 36.4 37.1 36.4H490c20.2 0 35.7-15.6 37.1-36.4l.2-12.8H2.6z" fill="#d6d7d7"/><path class="st2" d="M490 196.1H39.8c-20.3 0-36.1-15.5-37.5-36.8l-.2-12.8c0-.1 0-.2.1-.3.1-.1.2-.1.3-.1h524.8c.1 0 .2 0 .3.1s.1.2.1.3l-.2 12.8c-1.4 21.3-17.2 36.8-37.5 36.8zM3 146.9l.2 12.3c1.4 20.8 16.8 36 36.6 36H490c19.8 0 35.2-15.1 36.6-36l.2-12.3H3z"/><path class="st3" d="M489.9 125.8c0-6.9-3.6-12.1-15.3-12.1H55.2c-11.7 0-15.3 3.7-15.3 12.1l.2 20.6h449.7l.1-20.6z"/><path d="M489.8 146.5l-2.2 14.9-1.1 7.5v.1c-.4 2.5-1 5-2.1 7.4-2.4 4.9-6.9 8.9-16 8.9H61.5c-10.1 0-14.3-4-16.3-8.9-1-2.4-1.4-4.9-1.8-7.4v-.1l-1.1-7.5-2.2-14.9h449.7z" fill="#bfbfbf"/><path class="st2" d="M468.4 186.1H61.5c-8.8 0-14.1-2.9-16.7-9.2-1-2.4-1.5-5-1.8-7.5L39.7 147l-.2-20.7c0-9.2 4.3-12.6 15.7-12.6h419.4c10.6 0 15.7 4.1 15.7 12.6l-.2 20.6-3.3 22.4c-.5 3.1-1.2 5.5-2.2 7.6-2.8 6.1-8.3 9.2-16.2 9.2zM55.2 114.5c-11 0-14.9 3.1-14.9 11.7l.2 20.6 3.3 22.3c.4 2.5.8 5 1.8 7.3 2.4 5.9 7.5 8.7 15.9 8.7h406.8c7.7 0 12.8-2.8 15.6-8.7 1-2 1.6-4.3 2.1-7.3l3.3-22.4.2-20.6c0-7.9-4.9-11.7-14.9-11.7H55.2zm434.7 11.8z"/><path class="st3" d="M298.9 98.8h-68c-1.4 0-2.5-1.1-2.5-2.5v-2.5c0-1.4 1.1-2.5 2.5-2.5h68c1.4 0 2.5 1.1 2.5 2.5v2.5c0 1.4-1.1 2.5-2.5 2.5z"/><path class="st2" d="M298.9 99.2h-68c-1.6 0-2.9-1.3-2.9-2.9v-2.5c0-1.6 1.3-2.9 2.9-2.9h68c1.6 0 2.9 1.3 2.9 2.9v2.5c.1 1.6-1.2 2.9-2.9 2.9zm-68-7.4c-1.1 0-2.1.9-2.1 2.1v2.5c0 1.1.9 2.1 2.1 2.1h68c1.1 0 2.1-.9 2.1-2.1v-2.5c0-1.1-.9-2.1-2.1-2.1h-68z"/><path class="st2" d="M490 196.1H39.8c-20.3 0-36.1-15.5-37.5-36.8L0 25.4C0 11.4 11.4 0 25.4 0h479c14 0 25.4 11.4 25.4 25.4l-2.3 133.8c-1.4 21.4-17.2 36.9-37.5 36.9zM25.4.9C11.8.9.8 11.9.8 25.5l2.3 133.8c1.4 20.8 16.8 36 36.6 36H490c19.8 0 35.2-15.1 36.6-36L529 25.4C529 11.9 518 .8 504.4.8h-479z"/></g></svg>