<svg version="1.1" id="图层_1" xmlns="http://www.w3.org/2000/svg" x="0" y="0" width="238" height="124.2" xml:space="preserve"><style>.st0{fill:#d1d2d4}.st1{opacity:.2}.st2{fill:#404042}.st4{fill:#747577}</style><path class="st0" d="M10 115.2h8v9h-8z"/><g class="st1"><path transform="rotate(-180 11 119.74)" class="st2" d="M10 115.2h2v9h-2z"/></g><path class="st0" d="M220 115.2h8v9h-8z"/><g class="st1"><path class="st2" d="M226 115.2h2v9h-2z"/></g><path class="st0" d="M18 99.2V40.1c0-6 4.9-10.8 10.8-10.8h180.3c6 0 10.8 4.9 10.8 10.8v59.2h8v-65c0-7.2-5.8-13-13-13H23c-7.2 0-13 5.8-13 13v65h8z"/><path d="M12 99.2V35.1c0-6 4.9-10.9 10.9-10.9h192.2c6 0 10.9 4.9 10.9 10.9v64.2h2v-65c0-7.2-5.8-13-13-13H23c-7.2 0-13 5.8-13 13v65h2z" opacity=".2" fill="#404042"/><circle class="st4" cx="115.7" cy="24.9" r="24.9"/><circle cx="115.7" cy="24.9" r="17.6" fill="#fff"/><path d="M115.7 7.3c9.7 0 17.6 7.9 17.6 17.6s-7.9 17.6-17.6 17.6-17.6-7.9-17.6-17.6S106 7.3 115.7 7.3m0-.7c-10.1 0-18.3 8.2-18.3 18.3s8.2 18.3 18.3 18.3S134 35 134 24.9s-8.2-18.3-18.3-18.3z" fill="#666768"/><g class="st1"><path class="st2" d="M131 16.2c.8 2.1 1.3 4.3 1.3 6.7 0 10.3-8.3 18.6-18.6 18.6-2.3 0-4.5-.4-6.5-1.2 2.5 1.4 5.4 2.2 8.5 2.2 9.7 0 17.6-7.9 17.6-17.6 0-3.1-.8-6.1-2.3-8.7z"/></g><path class="st4" d="M27.1 84.2H.9c-.5 0-.9-.4-.9-.9V72.1c0-.5.4-.9.9-.9h26.2c.5 0 .9.4.9.9v11.2c0 .5-.4.9-.9.9zm210 0h-26.2c-.5 0-.9-.4-.9-.9V72.1c0-.5.4-.9.9-.9h26.2c.5 0 .9.4.9.9v11.2c0 .5-.4.9-.9.9z"/></svg>