<svg version="1.1" id="图层_1" xmlns="http://www.w3.org/2000/svg" x="0" y="0" width="248.6" height="220.8" xml:space="preserve"><style>.st0{fill:#e9d394}.st1{fill:#f8f2d9}.st3{fill:#f7f0d2}.st4{fill:#161609}.st5{fill:#4d724d}.st6{fill:#2b5440}.st7{fill:#6a9668}.st9{fill:#093743}.st10{fill:#d4b970}</style><path class="st0" d="M48 47.4h49.8v164.2H48z"/><path class="st1" d="M50.6 53.8h41.5v14.8H50.6zM50.6 80.3h41.5v14.8H50.6zM50.6 106.7h41.5v14.8H50.6zM50.6 133.2h41.5V148H50.6zM50.6 159.6h41.5v14.8H50.6zM50.6 186.1h41.5v14.8H50.6zM48 72.6h46.6v3.8H48zM48 99h46.6v3.8H48zM48 125.3h46.6v3.8H48zM48 151.7h46.6v3.8H48zM48 178h46.6v3.8H48zM48 204.4h46.6v3.8H48z"/><path fill="#c4b68f" d="M0 211.6h97.9v9.2H0z"/><path class="st3" d="M50.6 42h41.5v10.9H50.6z"/><path class="st0" d="M50.6 20.4h2.1v32.5h-2.1zM92.1 20.4h2.1v32.5h-2.1z"/><path class="st3" d="M94.2 42h154.4v5.4H94.2z"/><path class="st0" d="M97.9 47.4h150.7v173.4H97.9z"/><path class="st4" d="M97.9 52.9h41.4v167.9H97.9z"/><path class="st5" d="M101.2 56.1h38.1v164.7h-38.1z"/><path class="st6" d="M101.2 65.6h38.1v3.1h-38.1z"/><path transform="rotate(90 125.293 128.829)" class="st6" d="M52.6 127.3H198v3.1H52.6z"/><path transform="rotate(90 132.912 128.829)" class="st6" d="M60.2 127.3h145.4v3.1H60.2z"/><path class="st6" d="M101.2 77.7h38.1v3.1h-38.1zM101.2 89.8h38.1v3.1h-38.1zM101.2 101.9h38.1v3.1h-38.1zM101.2 114h38.1v3.1h-38.1zM101.2 126.1h38.1v3.1h-38.1zM101.2 138.3h38.1v3.1h-38.1zM101.2 150.4h38.1v3.1h-38.1zM101.2 162.5h38.1v3.1h-38.1zM101.2 174.6h38.1v3.1h-38.1zM101.2 186.7h38.1v3.1h-38.1zM101.2 198.8h38.1v3.1h-38.1z"/><path class="st7" d="M101.2 208.2h38.1v12.6h-38.1z"/><g><path class="st4" d="M142.9 52.9h41.4v167.9h-41.4z"/><path class="st5" d="M146.1 56.1h38.1v164.7h-38.1z"/><path class="st6" d="M146.1 65.6h38.1v3.1h-38.1z"/><path transform="rotate(90 170.268 128.829)" class="st6" d="M97.6 127.3H243v3.1H97.6z"/><path transform="rotate(90 177.888 128.829)" class="st6" d="M105.2 127.3h145.4v3.1H105.2z"/><path class="st6" d="M146.1 77.7h38.1v3.1h-38.1zM146.1 89.8h38.1v3.1h-38.1zM146.1 101.9h38.1v3.1h-38.1zM146.1 114h38.1v3.1h-38.1zM146.1 126.1h38.1v3.1h-38.1zM146.1 138.3h38.1v3.1h-38.1zM146.1 150.4h38.1v3.1h-38.1zM146.1 162.5h38.1v3.1h-38.1zM146.1 174.6h38.1v3.1h-38.1zM146.1 186.7h38.1v3.1h-38.1zM146.1 198.8h38.1v3.1h-38.1z"/><path class="st7" d="M146.1 208.2h38.1v12.6h-38.1z"/></g><g><path class="st4" d="M187.9 52.9h41.4v167.9h-41.4z"/><path class="st5" d="M191.2 56.1h38.1v164.7h-38.1z"/><path class="st6" d="M191.2 65.6h38.1v3.1h-38.1z"/><path transform="rotate(90 215.35 128.829)" class="st6" d="M142.7 127.3h145.4v3.1H142.7z"/><path transform="rotate(90 222.97 128.829)" class="st6" d="M150.3 127.3h145.4v3.1H150.3z"/><path class="st6" d="M191.2 77.7h38.1v3.1h-38.1zM191.2 89.8h38.1v3.1h-38.1zM191.2 101.9h38.1v3.1h-38.1zM191.2 114h38.1v3.1h-38.1zM191.2 126.1h38.1v3.1h-38.1zM191.2 138.3h38.1v3.1h-38.1zM191.2 150.4h38.1v3.1h-38.1zM191.2 162.5h38.1v3.1h-38.1zM191.2 174.6h38.1v3.1h-38.1zM191.2 186.7h38.1v3.1h-38.1zM191.2 198.8h38.1v3.1h-38.1z"/><path class="st7" d="M191.2 208.2h38.1v12.6h-38.1z"/></g><path class="st4" d="M232.4 52.9h16.2v167.9h-16.2z"/><path class="st5" d="M235.7 56.1h12.9v164.7h-12.9z"/><path class="st6" d="M235.7 89.8h12.9v3.1h-12.9zM235.7 122.5h12.9v3.1h-12.9zM235.7 155.3h12.9v3.1h-12.9z"/><path class="st7" d="M235.7 188h12.9v32.8h-12.9z"/><path fill="#fbf0da" d="M0 141.3h48v70.3H0z"/><path class="st9" d="M5.2 146.3H14v11.9H5.2zM15.4 146.3h8.8v11.9h-8.8zM26.1 146.3h8.8v11.9h-8.8zM36.7 146.3h8.8v11.9h-8.8zM5.2 163.7H14v11.9H5.2zM15.4 163.7h8.8v11.9h-8.8zM26.1 163.7h8.8v11.9h-8.8zM36.7 163.7h8.8v11.9h-8.8zM5.2 182.7H14v11.9H5.2zM15.4 182.7h8.8v11.9h-8.8zM26.1 182.7h8.8v11.9h-8.8zM36.7 182.7h8.8v11.9h-8.8z"/><path class="st10" d="M101.9 30h96.2v12h-96.2z"/><path class="st10" d="M115.3 27H198v9h-82.7z"/><path fill="#e7d6ae" d="M115.3 7.5H198V27h-82.7z"/><path fill="#ede9c6" d="M115.3 0H198v7.5h-82.7z"/><path fill="#ebd6aa" d="M203.4 30h24v12h-24z"/><path opacity=".45" fill="#003e3c" d="M248.6 177.4v43.4H97.9v-70l3.3.5 11.9 2.1 10.7 1.9 3 .6 4.6.8 3 .5 4.9.9 3.6.6 3.2.6 18.2 3.2 4.4.8 3.1.5 4.6.8 3 .6 2.2.4 2.6.4 3.7.7 3.3.6 22.6 4 3.1.5 4.5.8 3.1.6 4.8.8 3.1.5 3.3.6z"/><path opacity=".03" fill="#040000" d="M97.9 150.8v70H0v-79.5h48v-2.9l2.6.7 36.5 8.9z"/></svg>