<svg version="1.1" id="图层_1" xmlns="http://www.w3.org/2000/svg" x="0" y="0" width="38.1" height="80" xml:space="preserve"><style>.st3{fill:#cee4f4}.st10{fill:#1d2e61}.st11{fill:#a0b5d8}.st19{fill:#cde6f7}</style><path fill="#b8d0de" d="M18.6 0L1.7 9.9l16.9 10.2 18.1-9.6z"/><path fill="#406b92" d="M18.6 1.7L3.8 10.5l14.8 8.7 15.7-8.4z"/><path fill="#aabad5" d="M18.6 1.7v1.2L4.7 11.1l-.9-.6z"/><path class="st3" d="M18.6 1.7v1.2l14.6 8.4 1.1-.5z"/><path fill="#ebf5f7" d="M18.9 3.2l-6.7 4.1 6.7 4 6.7-4z"/><path fill="#edf7fc" d="M12.2 7.3v2.9l6.7 4.3v-3.2z"/><path fill="#496f95" d="M18.9 4.1L14 7.3l4.9 3.2 5.2-3.2z"/><path fill="#2a4154" d="M14 7.3l4.9-3.2v1.1l-4.1 2.4z"/><path fill="#bfc7ce" d="M18.9 4.1v1.1l4.4 2.7.8-.6z"/><path fill="#afc8e8" d="M18.9 11.3v3.2l6.7-4V7.3z"/><path class="st3" d="M18.6 20.1l.6 57.9-1.7-.9-.9-.6-1.5-.6-.8-.6-1.2-.5-1.2-.6-1.1-.6-1.2-.6-1.2-.9-1.1-.2-1.2-.9-1.2-.3-1.1-.9-.9-.6-1.2-.5V9.9z"/><path class="st10" d="M3.8 14v55.9l-.9-.6V14c0-.3 0-.6.3-.6s.6.3.6.6zM6.1 15.1v56.1l-.9-.6V15.1c-.3-.3 0-.6.3-.6s.6.3.6.6zM8.4 16.3v56.1l-.9-.6V16.3c.1-.3.4-.3.4-.3.2-.3.5 0 .5.3zM10.8 17.5v56.1l-.9-.6V17.5c0-.3.3-.3.3-.3.3-.3.6 0 .6.3zM13.1 18.6v56.1l-.9-.6V18.6c0-.3.3-.3.3-.3.3-.3.6 0 .6.3zM15.1 19.5v56.1l-.9-.6V19.5c0-.3.3-.3.3-.3.6 0 .6.3.6.3zM17.5 20.7v56.4l-.9-.6V20.7s.3-.3.6-.3.3.3.3.3z"/><path class="st11" d="M18.6 20.1l.6 57.9 1.2-.6.8-.6 1.5-.6.9-.6 1.4-.5.9-.6 1.4-.9.9-.3 1.5-.9.8-.3 1.5-.8.9-.6 1.4-.6.9-.6 1.2-.6.3-58.4z"/><linearGradient id="SVGID_1_" gradientUnits="userSpaceOnUse" x1="34.764" y1="12.45" x2="34.764" y2="68.848" gradientTransform="matrix(1 0 0 -1 0 82.5)"><stop offset="0" stop-color="#02061c"/><stop offset="1" stop-color="#172345"/></linearGradient><path d="M34.3 14v55.9l.9-.6V14c0-.3-.3-.3-.3-.3-.6 0-.6.3-.6.3z" fill="url(#SVGID_1_)"/><linearGradient id="SVGID_2_" gradientUnits="userSpaceOnUse" x1="32.436" y1="11.227" x2="32.436" y2="67.664" gradientTransform="matrix(1 0 0 -1 0 82.5)"><stop offset="0" stop-color="#02061c"/><stop offset="1" stop-color="#172345"/></linearGradient><path d="M32 15.1v56.1l.9-.6V15.1c0-.3-.3-.3-.3-.3-.6 0-.6.3-.6.3z" fill="url(#SVGID_2_)"/><linearGradient id="SVGID_3_" gradientUnits="userSpaceOnUse" x1="30.109" y1="10.064" x2="30.109" y2="66.586" gradientTransform="matrix(1 0 0 -1 0 82.5)"><stop offset="0" stop-color="#02061c"/><stop offset="1" stop-color="#172345"/></linearGradient><path d="M29.7 16.3v56.1l.9-.6V16.3c0-.3-.3-.3-.3-.3-.6 0-.6.3-.6.3z" fill="url(#SVGID_3_)"/><linearGradient id="SVGID_4_" gradientUnits="userSpaceOnUse" x1="27.782" y1="8.792" x2="27.782" y2="65.377" gradientTransform="matrix(1 0 0 -1 0 82.5)"><stop offset="0" stop-color="#02061c"/><stop offset="1" stop-color="#172345"/></linearGradient><path d="M27.3 17.5v56.1l.9-.6V17.5c0-.3-.3-.3-.3-.3-.3 0-.6.3-.6.3z" fill="url(#SVGID_4_)"/><linearGradient id="SVGID_5_" gradientUnits="userSpaceOnUse" x1="25.454" y1="7.573" x2="25.454" y2="64.22" gradientTransform="matrix(1 0 0 -1 0 82.5)"><stop offset="0" stop-color="#02061c"/><stop offset="1" stop-color="#172345"/></linearGradient><path d="M25 18.6v56.1l.9-.6V18.6c0-.3-.3-.3-.3-.3-.3 0-.6 0-.6.3z" fill="url(#SVGID_5_)"/><linearGradient id="SVGID_6_" gradientUnits="userSpaceOnUse" x1="23.127" y1="6.353" x2="23.127" y2="63.063" gradientTransform="matrix(1 0 0 -1 0 82.5)"><stop offset="0" stop-color="#02061c"/><stop offset="1" stop-color="#172345"/></linearGradient><path d="M22.7 19.8v56.1l.9-.3V19.8c0-.3-.3-.3-.3-.3-.3 0-.6 0-.6.3z" fill="url(#SVGID_6_)"/><linearGradient id="SVGID_7_" gradientUnits="userSpaceOnUse" x1="20.8" y1="5.118" x2="20.8" y2="61.846" gradientTransform="matrix(1 0 0 -1 0 82.5)"><stop offset="0" stop-color="#02061c"/><stop offset="1" stop-color="#172345"/></linearGradient><path d="M20.4 20.9v56.4l.9-.6V20.9c0-.3-.3-.3-.3-.3-.3.1-.6.1-.6.3z" fill="url(#SVGID_7_)"/><path class="st19" d="M1.7 62.3l1.2.5.9.3 1.1.9 1.2.3 1.2.9 1.1.3 1.2.8 1.2.3 1.1.9 1.2.3 1.2.9.8.2 1.5.9.9.3 1.1.6.3-.6-1.4-.6-.9-.6-1.5-.5-.8-.6-1.2-.6-1.2-.6-1.1-.6-1.2-.5-1.2-.6-1.1-.6-1.2-.6-1.2-.6-1.1-.6-.9-.5-1.2-.6zM1.7 66c0 .3 3.2 1.5 3.5 1.7 1.5.6 2.6 1.5 4.1 2 2.9 1.5 5.5 2.9 8.4 4.1l1.2.6.3-.6-1.7-.8-.9-.3c-4.9-2.6-9.9-4.9-15.1-7.6.2.4.2.6.2.9z"/><path transform="rotate(-28.931 27.573 69.881)" class="st11" d="M18 69.6h19.2v.6H18z"/><path transform="rotate(-28.931 27.618 65.797)" class="st11" d="M18 65.5h19.2v.6H18z"/><path fill="#b0c2df" d="M36.4 68.7L19.2 78l.6 2 18.3-10.2z"/><path class="st19" d="M1.7 68.7L0 69.8 19.8 80l-.6-2z"/></svg>