<svg version="1.1" id="图层_1" xmlns="http://www.w3.org/2000/svg" x="0" y="0" width="220" height="228" xml:space="preserve"><style>.st2{fill:#a8bdc0}.st3{fill:#c9e8fa}.st5{fill:#8c8e8b}.st7{fill:#fcfcfc}.st9{fill:#fcfbfa}</style><path fill="#e78278" d="M2 74h217v147H2z"/><path fill="#f48c97" d="M51 33h119v188H51z"/><path class="st2" d="M12 86h27v27H12z"/><path class="st3" d="M14 88h23v23H14z"/><path class="st2" d="M13 98h25v2H13z"/><path transform="rotate(90 25.5 99)" class="st2" d="M13 98h25v2H13z"/><path class="st2" d="M12 126h27v27H12z"/><path class="st3" d="M14 128h23v23H14z"/><path class="st2" d="M13 138h25v2H13z"/><path transform="rotate(90 25.5 139)" class="st2" d="M13 138h25v2H13z"/><path class="st2" d="M12 166h27v27H12z"/><path class="st3" d="M14 168h23v23H14z"/><path class="st2" d="M13 178h25v2H13z"/><path transform="rotate(90 25.5 179)" class="st2" d="M13 178h25v2H13z"/><path class="st2" d="M181 86h27v27h-27z"/><path class="st3" d="M183 88h23v23h-23z"/><path class="st2" d="M182 98h25v2h-25z"/><path transform="rotate(90 194.5 99)" class="st2" d="M182 98h25v2h-25z"/><path class="st2" d="M181 126h27v27h-27z"/><path class="st3" d="M183 128h23v23h-23z"/><path class="st2" d="M182 138h25v2h-25z"/><path transform="rotate(90 194.5 139)" class="st2" d="M182 138h25v2h-25z"/><path class="st2" d="M181 166h27v27h-27z"/><path class="st3" d="M183 168h23v23h-23z"/><path class="st2" d="M182 178h25v2h-25z"/><path transform="rotate(90 194.5 179)" class="st2" d="M182 178h25v2h-25z"/><path class="st2" d="M58.7 45h27v27h-27z"/><path class="st3" d="M60.7 47h23v23h-23z"/><path class="st2" d="M59.7 57h25v2h-25z"/><path transform="rotate(90 72.167 58)" class="st2" d="M59.7 57h25v2h-25z"/><g><path class="st2" d="M58.7 91h27v27h-27z"/><path class="st3" d="M60.7 93h23v23h-23z"/><path class="st2" d="M59.7 103h25v2h-25z"/><path transform="rotate(90 72.167 104)" class="st2" d="M59.7 103h25v2h-25z"/></g><g><path class="st2" d="M58.7 138h27v27h-27z"/><path class="st3" d="M60.7 140h23v23h-23z"/><path class="st2" d="M59.7 150h25v2h-25z"/><path transform="rotate(90 72.167 151)" class="st2" d="M59.7 150h25v2h-25z"/></g><g><path class="st2" d="M96.7 45h27v27h-27z"/><path class="st3" d="M98.7 47h23v23h-23z"/><path class="st2" d="M97.7 57h25v2h-25z"/><path transform="rotate(90 110.167 58)" class="st2" d="M97.7 57h25v2h-25z"/></g><g><path class="st2" d="M96.7 91h27v27h-27z"/><path class="st3" d="M98.7 93h23v23h-23z"/><path class="st2" d="M97.7 103h25v2h-25z"/><path transform="rotate(90 110.167 104)" class="st2" d="M97.7 103h25v2h-25z"/></g><g><path class="st2" d="M96.7 138h27v27h-27z"/><path class="st3" d="M98.7 140h23v23h-23z"/><path class="st2" d="M97.7 150h25v2h-25z"/><path transform="rotate(90 110.167 151)" class="st2" d="M97.7 150h25v2h-25z"/></g><g><path class="st2" d="M133.7 45h27v27h-27z"/><path class="st3" d="M135.7 47h23v23h-23z"/><path class="st2" d="M134.7 57h25v2h-25z"/><path transform="rotate(90 147.167 58)" class="st2" d="M134.7 57h25v2h-25z"/></g><g><path class="st2" d="M133.7 91h27v27h-27z"/><path class="st3" d="M135.7 93h23v23h-23z"/><path class="st2" d="M134.7 103h25v2h-25z"/><path transform="rotate(90 147.167 104)" class="st2" d="M134.7 103h25v2h-25z"/></g><g><path class="st2" d="M133.7 138h27v27h-27z"/><path class="st3" d="M135.7 140h23v23h-23z"/><path class="st2" d="M134.7 150h25v2h-25z"/><path transform="rotate(90 147.167 151)" class="st2" d="M134.7 150h25v2h-25z"/></g><path class="st2" d="M53 77h114v3H53zM53 124h114v3H53zM53 171h114v3H53z"/><path fill="#c6c6c6" d="M71 221h85v7H71z"/><path class="st5" d="M84 228H0v-7h91zM136 228h84v-7h-91z"/><path fill="#acabb0" d="M89 0h42v33H89z"/><path class="st7" d="M97 13h26v8H97z"/><path transform="rotate(90 110 17)" class="st7" d="M97 13h26v8H97z"/><g><path class="st7" d="M90.8 180h38v42h-38z"/><path fill="#16588a" d="M92.8 183h34v39h-34z"/><path class="st9" d="M107.3 200h1v6h-1zM111.3 200h1v6h-1z"/></g></svg>