<svg version="1.1" id="图层_1" xmlns="http://www.w3.org/2000/svg" x="0" y="0" width="388" height="156.5" xml:space="preserve"><style>.st0{fill:#352a26}.st1{fill:#d69c4c}.st2{fill:#1c1815}.st3{fill:#2e2623}.st4{fill:#fbfbfb}.st5{fill:#3f3430}.st6{fill:#dbd3d1}.st7{fill:#fdfdfd}.st8{fill:#f8b658}.st9{fill:#c44745}.st10{fill:#e75b5a}.st11{fill:#abede3}.st12{fill:#eafaf9}.st13{fill:#fff}</style><path class="st0" d="M45.6 130.9h321.1s14.3.5 17-8.9c0 0 2.1-17.2 3.8-20.3 0 0 .6-4.4-1-12.7-1.6-8.3-5.9-16-14.8-21.8s-93.1-23.8-93.1-23.8L237.4 7.6s-7.3-4.6-15.6-5.1S157.1-1.3 113.9.6 57.7-.1 49.1 12.7 30.5 44.1 30.5 44.1s.5-1.1-4.6-2.9c-5.1-1.7-14.3-5.1-15.9 1.4S0 93.1 0 93.1s-.5 4.6 3.8 5.7c4.3 1.1 9.7 1.9 9.7 1.9l.3 7.6s-1.9 6.5 5.7 10.8c7.7 4.3 26.1 11.8 26.1 11.8z"/><ellipse transform="rotate(-13.403 21.335 105.118)" class="st1" cx="21.3" cy="105.1" rx="2.6" ry="6.5"/><ellipse transform="matrix(.09303 -.9957 .9957 .09303 232.597 476.665)" class="st1" cx="377.9" cy="110.7" rx="5.7" ry="2.6"/><circle class="st2" cx="90.3" cy="123.6" r="32.9"/><circle class="st3" cx="90.3" cy="123.6" r="28.5"/><circle class="st4" cx="89.9" cy="123.5" r="24.7"/><circle class="st5" cx="89.9" cy="123.5" r="20.3"/><path class="st6" d="M94.2 118.5h-8.4l1.9-15.7h4.6z"/><path class="st6" d="M96.1 126.5l-2.7-7.9 15.4-3.4 1.5 4.4z"/><path class="st6" d="M89.4 130.7l6.6-5.2 8.2 13.4-3.6 2.9z"/><path class="st6" d="M84.3 125.3l6.7 5.1-11 11.4-3.7-2.8z"/><path class="st6" d="M86.5 117.6l-2.3 8.2-14.6-6 1.3-4.5z"/><circle class="st7" cx="90.2" cy="123.9" r="7.6"/><circle class="st2" cx="315.7" cy="123.6" r="32.9"/><circle class="st3" cx="315.7" cy="123.6" r="28.5"/><circle class="st4" cx="315.3" cy="123.5" r="24.7"/><circle class="st5" cx="315.3" cy="123.5" r="20.3"/><path class="st6" d="M319.6 118.5h-8.4l1.9-15.7h4.6z"/><path class="st6" d="M321.5 126.5l-2.7-7.9 15.4-3.4 1.5 4.4z"/><path class="st6" d="M314.8 130.7l6.6-5.2 8.3 13.4-3.7 2.9z"/><path class="st6" d="M309.7 125.3l6.7 5.1-11 11.4-3.7-2.8z"/><path class="st6" d="M311.9 117.6l-2.2 8.2-14.7-6 1.3-4.5z"/><circle class="st7" cx="315.6" cy="123.9" r="7.6"/><path class="st0" d="M376.4 71.8s-9.6-1-9.1 5.7 5.2 14.3 5.2 14.3-.5 4.2 5.5 5.1c5.9.8 8.6 0 8.6 0s1.1-4.1.6-5.3c-.5-1.2-5.2-18.1-10.8-19.8z"/><path class="st8" d="M377.1 71.8s-9.6-1-9.1 5.7 5.2 14.3 5.2 14.3-.4 4.2 5.5 5.1c5.9.8 8.6 0 8.6 0s1.1-4.1.6-5.3c-.4-1.2-5.2-18.1-10.8-19.8z"/><path class="st9" d="M13.5 90.1c-2.1-.5-3.4-2.5-2.9-4.6l4.7-21c.5-2.1 2.5-3.4 4.6-2.9 2.1.5 3.4 2.5 2.9 4.6l-4.7 21c-.4 2.1-2.5 3.4-4.6 2.9z"/><path class="st8" d="M13.5 90.1c-2.1-.5-3.4-2.5-2.9-4.6l2.3-10.2 7.6 1.7-2.3 10.2c-.5 2.1-2.6 3.4-4.7 2.9z"/><path class="st9" d="M386.3 88.9c-1.6-8.3-5.9-16-14.8-21.8-8.9-5.7-93.1-23.8-93.1-23.8L237.1 7.6s-7.3-4.6-15.6-5.1S156.8-1.3 113.6.6 57.4-.1 48.8 12.7C43.9 19.9 38.6 29 34.9 35.6l-4.7 8.5s-5.1 6.4-9.7 16.9c.6.2 1.5.7 2.4 1.6 1.4 1.5 1.1 1.3 1.1 3.3 0 2-5.8 23.2-5.8 23.2s-1.6 2.5-4.5 2.6h-.2v2.8s16.4-3 23 3.5 8.4 23.7 8.4 23.7h7.6s-.6-26.2 20-27.9c20.7-1.7 34.3 0 34.3 0s20.2 2.9 20.5 27.9H279s-.6-27.7 23.5-28.6h30.3s20.8 3.2 21.6 28.6h5.4s1.9-25.7 27.2-20c.2-.1.9-4.5-.7-12.8zM70.7 46.3s-27 .6-30.5 0-.8-5.6-.8-5.6L54.5 16c7.8-9.2 28-8.1 31.8-7.9s1.7 4.4 1.7 4.4-12.9 27.8-14 31.3c-1.1 3.5-3.3 2.5-3.3 2.5zm104 69.3s-1 3.7-3.8 3.8h-34.5s-2.5-1.9-2.5-3.7-2.4-23.7-18.3-26.5-21-1-25.1-4.3-3.7-7.5-3.7-11.1V54.1s0-1.6 2.1-7.3C91 41.1 102.3 6.5 114.8 5h56.4s3.5 1.7 3.5 3.7v106.9zm99.6-.8c-.6 4.9-4.4 4.7-4.4 4.7h-85.8c-5.3 0-5.3-4.7-5.3-4.7V8.8c0-2.1 2.8-2.8 2.8-2.8s32.2 1.1 43.2 2.8c11 1.7 12.7 5.3 12.7 5.3s17 14.7 26.2 22l.2-.7 3.5.6s.3 1.4.7 3.5c.2.2.4.3.6.4 4.9 3.1 5.7 10.5 5.7 10.5v64.4z"/><path class="st10" d="M268.5 39.9c-.2-.1-.4-.2-.6-.4.7 3.7 1.6 9.5 1.5 11.7-.2 3.4-4.6 3.6-4.6 3.6h-6.3l1.2-4.3c-18.3-.2-71.2-.6-73.8-.9-3.2-.3-2.9-1.7-2.9-1.7V11c1.4-.4 32.9.2 39.9 1.1 7 .8 10.8 4.2 10.8 4.2l28.9 23.3.9-3.4c-9.2-7.3-26.2-22-26.2-22s-1.7-3.6-12.7-5.3c-11-1.7-43.2-2.8-43.2-2.8s-2.8.6-2.8 2.8v105.9s0 4.7 5.3 4.7h85.8s3.8.2 4.4-4.7V50.4c.2 0-.7-7.5-5.6-10.5zm-68.3 18.5c0 1.1-.9 1.9-1.9 1.9H186c-1.1 0-1.9-.9-1.9-1.9v-1.7c0-1.1.9-1.9 1.9-1.9h12.3c1.1 0 1.9.9 1.9 1.9v1.7zM171.2 5h-56.4C102.3 6.5 91 41.1 88.9 46.8c-2.1 5.7-2.1 7.3-2.1 7.3v19.7c0 3.7-.5 7.8 3.7 11.1s9.2 1.4 25.1 4.3 18.3 24.8 18.3 26.5 2.5 3.7 2.5 3.7h34.5c2.9-.2 3.8-3.8 3.8-3.8V8.7c0-1.9-3.5-3.7-3.5-3.7zm-59.1 51.3c0 1.1-.9 1.9-1.9 1.9H97.8c-1.1 0-1.9-.9-1.9-1.9v-1.7c0-1.1.9-1.9 1.9-1.9h12.3c1.1 0 1.9.9 1.9 1.9v1.7zm58-9.2c-.2 1.2-.8 2-.8 2S98.9 47.4 96 47.4c-2.9 0-2.4-2.2-2.4-2.2s9.7-22.1 12.7-27.6 8.1-8.1 8.1-8.1h51.3c4.9 0 5.2 2.4 5.2 2.4s-.6 34-.8 35.2z"/><path class="st11" d="M165.8 9.3h-51.3s-5.1 2.5-8.1 8.1-12.7 27.7-12.7 27.7-.5 2.2 2.4 2.2 73.3 1.7 73.3 1.7.6-.8.8-2c.2-1.2 1-35.4 1-35.4s-.4-2.3-5.4-2.3zm-33 37.4l-23-30.5 4.1-4.7h16.8l26.9 35.2h-24.8zm27.6 0l-26.8-35.2h8.2l26.6 35.2h-8zM233.8 16.3s-3.8-3.4-10.8-4.2c-7-.8-38.6-1.5-39.9-1.1v36.9s-.3 1.4 2.9 1.7c2.6.3 55.5.7 73.8.9l3-10.9-29-23.3zm-20.1 32.1L187 12.6h23.7l26.8 35.8h-23.8zm1-34.7h8.8l24.7 34.6h-7.5l-26-34.6z"/><path class="st12" d="M133.6 11.5l26.8 35.2h7.9l-26.6-35.2zM114 11.5l-4.1 4.7 22.9 30.5h24.9l-26.9-35.2zM187 12.6l26.7 35.8h23.8l-26.8-35.8zM223.5 13.7h-8.8l26 34.7h7.5z"/><path class="st13" d="M110.1 52.7H97.8c-1.1 0-1.9.9-1.9 1.9v1.7c0 1.1.9 1.9 1.9 1.9h12.3c1.1 0 1.9-.9 1.9-1.9v-1.7c.1-1-.8-1.9-1.9-1.9zM198.2 54.8h-12.3c-1.1 0-1.9.9-1.9 1.9v1.7c0 1.1.9 1.9 1.9 1.9h12.3c1.1 0 1.9-.9 1.9-1.9v-1.7c.1-1.1-.8-1.9-1.9-1.9z"/><path class="st9" d="M267.3 36l-3.5-.6-.2.7c1.8 1.5 3.3 2.6 4.3 3.3-.3-1.9-.6-3.4-.6-3.4z"/><path class="st9" d="M265.9 42.1v8.4s-2.3 0-6.2-.1l-1.2 4.3h6.3s4.4-.2 4.6-3.6c.2-2.2-.8-8-1.5-11.7-1-.7-2.5-1.9-4.3-3.3l-.9 3.4 3.2 2.6z"/><path class="st9" d="M265.9 42.1l-3.2-2.6-3 10.9c3.8 0 6.2.1 6.2.1v-8.4z"/><path class="st11" d="M86.2 8.1c-3.8-.2-24-1.3-31.8 7.9l-15 24.8s-2.7 4.9.8 5.6c3.5.6 30.5 0 30.5 0s2.2 1 3.3-2.5c1.1-3.5 14-31.3 14-31.3s2.1-4.4-1.8-4.5zm-15 36.5H59.9l-11-15.3S57 14.8 59.9 14l15.9 19-4.6 11.6zm5.5-13.8l-14-17.5c3.3-1.9 7.2-2.2 7.2-2.2l9.9 14.1-3.1 5.6z"/><path class="st12" d="M62.7 13.3l14 17.5 3-5.6-9.9-14.1c.1 0-3.7.3-7.1 2.2zM48.9 29.3l11 15.3h11.4L75.8 33 59.9 14.1c-2.9.8-11 15.2-11 15.2z"/><path d="M1.4 85.8C.6 90.2 0 93.1 0 93.1s-.5 4.6 3.8 5.7c4.3 1.1 9.7 1.9 9.7 1.9l.3 7.6s-1.9 6.5 5.7 10.8c7.6 4.3 26.1 11.8 26.1 11.8h321.1s14.3.5 17-8.9c0 0 .5-4 1.2-8.5L1.4 85.8z" opacity=".2" fill="#352a26"/></svg>