<svg version="1.1" id="图层_1" xmlns="http://www.w3.org/2000/svg" x="0" y="0" width="186.2" height="79.9" xml:space="preserve"><style>.st0{fill:#fff}.st2{fill:#0f4083}.st3{fill:#de833f}.st5{fill:#0f4185}.st6{fill:#cee5f3}.st7{fill:#4173b8}</style><path class="st0" d="M23.9 49.3c-.4 0-.7-.3-.7-.7v-29c0-.4.3-.7.7-.7.4 0 .7.3.7.7v29c-.1.4-.4.7-.7.7z"/><path class="st0" d="M20.5 29.1h7v.9h-7z"/><path fill="#e08542" d="M24.5 21.5h1.4v3.2h-1.4z"/><path class="st0" d="M39 42.8c-4.3 0-14.1-11.8-14.5-12.3l.2-.1c.1.1 10.2 12.2 14.4 12.2v.2z"/><path class="st0" d="M37.2 44.3c-4.3-.5-12.8-13.3-13.1-13.9l.2-.1c.1.1 8.8 13.3 13 13.8l-.1.2z"/><path class="st0" d="M34.3 46.8c-4.1-1.4-9.6-15.7-9.9-16.3l.2-.1c.1.1 5.8 14.8 9.7 16.2v.2zM12.9 49.2l-.2-.1c.1-.1 11.9-14.2 10.9-18.9h.2c1 4.7-10.5 18.4-10.9 19z"/><path class="st0" d="M9.2 49.1L9 49c.2-.1 14.5-13.3 14-18.1h.2c.5 4.9-13.4 17.7-14 18.2z"/><path class="st0" d="M7 49.1l-.2-.1C7 48.8 23.5 34.8 23 29.6h.2c.5 5.2-15.5 19-16.2 19.5z"/><g><path transform="rotate(-31.019 136.057 31.502)" class="st2" d="M136 8.1h.2v46.8h-.2z"/><path transform="rotate(-29.53 131.826 33.968)" class="st2" d="M131.7 13.6h.2v40.8h-.2z"/><path class="st2" d="M138.5 53l-17.6-35.6.1-.1 17.7 35.6zM128.1 50.9L120.4 17h.2l7.7 33.9z"/><path transform="rotate(-71.743 115.216 33.97)" class="st2" d="M97.8 33.9h34.8v.2H97.8z"/><path transform="rotate(-66.947 113.245 33.969)" class="st2" d="M95.9 33.9h34.8v.2H95.9z"/><path transform="rotate(-45.396 110.134 26.447)" class="st2" d="M96 26.3h28.3v.2H96z"/><path class="st2" d="M132 51l-11.4-33.9.2-.1 11.4 33.9zM150.5 51.6l-25.4-40.1.1-.1 25.5 40.1z"/><path class="st0" d="M119.9 0h1.4v54.8h-1.4z"/><path class="st0" d="M114.4 10.7h12.4v.9h-12.4z"/><path class="st2" d="M118.4 30.1h4.4v.5h-4.4zM118.4 35h4.4v.5h-4.4z"/><path class="st0" d="M117.3 15.1h6.5v1.3h-6.5z"/><path class="st2" d="M119.9 8.6h1.4v1.6h-1.4zM119.9 17.7h1.4v1.6h-1.4z"/><g><path class="st3" d="M93.3 39.7h13.8v2.9H93.3z"/><path class="st0" d="M98.9 37.4h8.2v2.3h-8.2zM100.2 33h1v4.3h-1z"/><path class="st3" d="M79.1 30.1h10.2v12.7H79.1z"/><path class="st2" d="M79.1 30.1h10.2v5.4H79.1zM79.1 37.2h10.2v1.6H79.1z"/><path class="st3" d="M63.3 30.1h10.2v12.7H63.3z"/><path class="st2" d="M63.3 30.1h10.2v5.4H63.3zM63.3 37.2h10.2v1.6H63.3z"/><path fill="#d0e5f3" d="M107.1 39.7v2.9H18.6v14.8h97.8V39.7z"/><path class="st5" d="M20.1 44.1H23v3.8h-2.9zM24.5 44.1h2.9v3.8h-2.9zM28.9 44.1h5.9v3.8h-5.9zM36.2 44.1h5.9v3.8h-5.9zM43.4 44.1h3v3.8h-3zM47.7 44.1h3v3.8h-3zM52 44.1h3v3.8h-3zM56.6 44.1h3v3.8h-3zM61 44.1h6v3.8h-6zM68.5 44.1h6v3.8h-6zM76.1 44.1h6v3.8h-6zM83.7 44.1h6v3.8h-6zM91.1 44.1h6v3.8h-6zM98.9 44.1h6v3.8h-6zM108.3 41.7h1.6v1.6h-1.6zM108.3 45.2h1.6v1.6h-1.6zM108.3 48.7h1.6v1.6h-1.6zM108.3 52.3h1.6v1.6h-1.6zM113 41.7h1.6v1.6H113zM113 45.2h1.6v1.6H113zM113 48.7h1.6v1.6H113zM113 52.3h1.6v1.6H113z"/></g><g><path class="st0" d="M5.1 48.7h102v8.7H5.1z"/><path class="st6" d="M8.7 51h11.1v2.4H8.7zM21.9 51h8.2v2.4h-8.2zM41.8 51H50v2.4h-8.2zM52.4 51h11.3v2.4H52.4zM65.5 51h11.3v2.4H65.5zM79.1 51h11.7v2.4H79.1zM92.6 51h11.7v2.4H92.6z"/></g><g><path class="st0" d="M0 57.2v9.3s2.3 12 16.8 13.3h157.7s2.3-17.6 11.8-29.4h-62.1s-5.5 6.9-16.1 6.9S0 57.2 0 57.2z"/><path class="st2" d="M109.4 58.3c-7.2.6-51.9 2.8-66 3.7-11.6.7-35.6-.4-43.4-.8v5.4s2.3 12 16.8 13.3h157.7s1.8-13.5 8.6-24.8c-26.9 1.1-68.8 2.8-73.7 3.2z"/><path class="st3" d="M.5 67.5s48.3 2.5 80.5 0 44.8-3.3 47.3-3.3c2.6-.1 50.4-.4 50.4-.4l-.5 1.5s-36.4.2-43 .5c-6.6.3-35.5 2-42.7 2.5S65 69.9 47.3 70.1.9 69.2.9 69.2l-.4-1.7z"/></g><g><path class="st2" d="M1.5 55.1h106.3v.2H1.5z"/><path class="st2" d="M1.5 55.1h.3v2.2h-.3zM3.8 55.1h.3v2.2h-.3zM6.1 55.1h.3v2.2h-.3zM8.4 55.1h.3v2.2h-.3zM10.7 55.1h.3v2.2h-.3zM13 55.1h.3v2.2H13zM15.3 55.1h.3v2.2h-.3zM17.6 55.1h.3v2.2h-.3zM19.9 55.1h.3v2.2h-.3zM22.2 55.1h.3v2.2h-.3zM24.5 55.1h.3v2.2h-.3zM26.9 55.1h.3v2.2h-.3zM29.2 55.1h.3v2.2h-.3zM31.5 55.1h.3v2.2h-.3zM33.8 55.1h.3v2.2h-.3zM36.1 55.1h.3v2.2h-.3zM38.4 55.1h.3v2.2h-.3zM40.7 55.1h.3v2.2h-.3zM43 55.1h.3v2.2H43zM45.3 55.1h.3v2.2h-.3zM47.6 55.1h.3v2.2h-.3zM49.9 55.1h.3v2.2h-.3zM52.2 55.1h.3v2.2h-.3zM54.5 55.1h.3v2.2h-.3zM56.8 55.1h.3v2.2h-.3zM59.1 55.1h.3v2.2h-.3zM61.4 55.1h.3v2.2h-.3zM63.7 55.1h.3v2.2h-.3zM66.1 55.1h.3v2.2h-.3zM68.4 55.1h.3v2.2h-.3zM70.7 55.1h.3v2.2h-.3zM73 55.1h.3v2.2H73zM75.3 55.1h.3v2.2h-.3zM77.6 55.1h.3v2.2h-.3zM79.9 55.1h.3v2.2h-.3zM82.2 55.1h.3v2.2h-.3zM84.5 55.1h.3v2.2h-.3zM86.8 55.1h.3v2.2h-.3zM89.1 55.1h.3v2.2h-.3zM91.4 55.1h.3v2.2h-.3zM93.7 55.1h.3v2.2h-.3zM96 55.1h.3v2.2H96zM98.3 55.1h.3v2.2h-.3zM100.6 55.1h.3v2.2h-.3zM102.9 55.1h.3v2.2h-.3zM105.3 55.1h.3v2.2h-.3zM107.6 55.1h.3v2.2h-.3z"/></g></g><g><circle class="st7" cx="126.9" cy="71.8" r=".7"/><circle transform="rotate(-85.28 129.804 71.818) scale(.99999)" class="st7" cx="129.8" cy="71.8" r=".7"/><circle transform="rotate(-85.28 132.754 71.818) scale(.99999)" class="st7" cx="132.8" cy="71.8" r=".7"/><circle transform="rotate(-85.28 135.705 71.818) scale(.99999)" class="st7" cx="135.7" cy="71.8" r=".7"/><circle transform="rotate(-85.28 138.656 71.818) scale(.99999)" class="st7" cx="138.7" cy="71.8" r=".7"/><circle transform="rotate(-85.28 141.607 71.818) scale(.99999)" class="st7" cx="141.6" cy="71.8" r=".7"/><circle transform="rotate(-85.28 144.557 71.818) scale(.99999)" class="st7" cx="144.6" cy="71.8" r=".7"/></g></svg>