<svg version="1.1" id="图层_1" xmlns="http://www.w3.org/2000/svg" x="0" y="0" width="370.1" height="292" xml:space="preserve"><style>.st0{fill:#d02e2c}.st1{fill:#2d2a32}.st2{fill:#ea4c3f}.st3{fill:#2d2834}.st10{fill:#fdffff}.st11{fill:#2c2833}.st12{fill:#fcfcfc}.st14{fill:#2a2833}</style><path class="st0" d="M41.3 78.9l-2.2 9.2-29.2-.5s-2.7 0-7-7.6c0 0-.5-.6-1.1-1.6-1-1.7-2.2-4.5-1.6-7.6 0 0 .9-2.2 3.2-2.7.1 0 .3-1.1.4-1.2.3-.9.7-1.8 1.3-2.6 1.3-1.8 3.5-2.2 5.6-2.6 1-.2 2-.4 3-.5 2.6-.3 5.3-.5 8-.7 1.8-.1 3.7-.2 5.5-.3 1.8-.1 3.9-.4 5.7-.1 2.5.3 4.8 2.2 6.2 4.2 0 0 2.1 6.7 2.2 14.1v.5z"/><path class="st1" d="M50.5 78.4v9.7H39.1l-29.2-.5s-2.7 0-7-7.6c0 0-.5-.6-1.1-1.6h48.7z"/><path class="st2" d="M4 71.9s7-9.7 14.6-9.7H31s6.5-1.1 5.9 9.7H4z"/><g><path class="st0" d="M328.8 78.9l2.2 9.2 29.2-.5s2.7 0 7-7.6c0 0 .5-.6 1.1-1.6 1-1.7 2.2-4.5 1.6-7.6 0 0-.9-2.2-3.2-2.7-.1 0-.3-1.1-.4-1.2-.3-.9-.7-1.8-1.3-2.6-1.3-1.8-3.5-2.2-5.6-2.6-1-.2-2-.4-3-.5-2.6-.3-5.3-.5-8-.7-1.8-.1-3.7-.2-5.5-.3-1.8-.1-3.9-.4-5.7-.1-2.5.3-4.8 2.2-6.2 4.2 0 0-2.1 6.7-2.2 14.1v.5z"/><path class="st1" d="M319.6 78.4v9.7H331l29.2-.5s2.7 0 7-7.6c0 0 .5-.6 1.1-1.6h-48.7z"/><path class="st2" d="M366.1 71.9s-7-9.7-14.6-9.7h-12.4s-6.5-1.1-5.9 9.7h32.9z"/></g><g><path class="st3" d="M348.4 175.7h-33.5c-1.2 0-2.3.2-3.3.6-.8-.4-1.7-.6-2.7-.6H61.8c-1 0-2 .2-2.8.7-1.1-.4-2.2-.7-3.5-.7H21.6c-5.3 0-9.6 4.3-9.6 9.6v97.2c0 5.3 4.3 9.6 9.6 9.6h33.9c5.3 0 9.6-4.3 9.6-9.6v-18.6h18.4c2.2 0 3.8-3.2 5.8-3.2h194.9c2.6 0 5.2 4.3 7.5 4.3h13.5v16.8c0 5.4 4.4 9.7 9.7 9.7h33.5c5.4 0 9.7-4.4 9.7-9.7v-96.3c.1-5.4-4.3-9.8-9.7-9.8z"/><path d="M37.5 94.6S44 92.4 44 82.7c0 0 1.6-5.9 3.8-11.4 2.2-5.4 15.7-38.9 22.7-49.2S77 11.4 85.1 8.7s27.6-2.2 27.6-2.2h166.5s13.5 0 22.2 20c0 0 10.3 18.4 22.2 49.2 0 0 2.7 5.4 3.2 10.8s3.8 7 9.7 10.3c5.9 3.2 11.9 14.1 11.9 14.1l8.1 13s4.9 5.4 3.8 24.3c-1.1 18.9-3.8 62.7-3.8 62.7s.5 11.9-15.1 11.4v-31.4s0-4.3-7-4.3-35.7 1.1-35.7 1.1-5.9-.5-11.4 4.9c-5.4 5.4-7 6.5-7 6.5l-188.7.5s-2.2.5-4.9-2.2-11.4-7.6-11.4-7.6-1.1-1.1-11.9-2.2l-37.9-1.1v35.1h-7s-4.3-2.7-6.5-8.7c-2.2-5.9-1.1-34.1-3.2-65.4 0 0-1.1-17.3 7-28.1s21.7-24.8 21.7-24.8z" fill="#cf302a"/><path d="M72.1 29.2L53.7 73.5s-4.9 9.2 5.9 8.7 109.2-9.7 249.8 1.6c0 0 11.4 1.6 8.1-5.9-3.2-7.6-17.8-43.3-21.6-49.7-3.8-6.5-9.7-6.5-18.4-7s-129.2-6.5-192.5 0c.1-.1-9.6.4-12.9 8z" fill="#4b4f58"/><path d="M121.3 51.4c62.2-1.6 87.1-3.8 128.7 5.9 30.9 7.2 49 16 56.3 20 2.5-1.1 4.5-3.5 3.2-8.1-2.7-9.7-15.1-37.9-15.1-37.9s-1.6-5.9-20-7c-12.7-.7-25.5-1.1-38.3-1.5-22.1-.6-44.2-1-66.2-.9-26.4 0-52.8 1.2-79.2 2-2.8.1-5.7.2-8.3 1.3-3.4 1.5-5.8 4.6-7.6 8.2-1.7 3.3-3 7.2-4.1 10.7 6.9 4.2 21.3 8 50.6 7.3z" fill="#c2dad8"/><path d="M250 57.3c-41.6-9.7-66.5-7.6-128.7-5.9-29.3.8-43.7-3-50.7-7.3-.6 1.8-1.2 3.6-1.8 5.2-2.3 6.1-4.6 12.2-7 18.3 0 0-3.8 9.7 4.9 10.8 0 0 100.6-8.7 233.6 0 0 0 3.3.1 6-1.1-7.2-4-25.3-12.7-56.3-20z" fill="#7ab1ad"/><path d="M27.2 114.6s-2.2-3.8-2.2 2.2-1.6 44.9-1.6 44.9-1.1 5.9 9.2 7.6c10.3 1.6 40.6.5 53 5.4h192s9.2-3.8 58.9-3.8c0 0 8.7-.5 9.2-11.4.5-10.8-3.8-46-3.8-46s-.5-4.9-2.7 0-229.8 51.9-229.8 51.9-6.5.5-24.3-2.7-32.4-1.1-32.4-1.1l-25.5-47z" fill="#e84e3b"/><path d="M340.3 160.1c0 2.7-1.6 2.2-1.6 2.2h-21.6l-7-10.8-30.3.5c-16.3 14-22.8 14.6-22.8 14.6l-149.8-1.1c-7.6-.5-19.5-14.6-19.5-14.6l-28.1-.5-7 11.9H31.5c-4.3 0-4.3-4.9-4.3-4.9v-43.3s2.7-13 15.7-13 14.1 13 14.1 13c.2-.1.4-.1.7-.2 8.2-2.1 56.6-4.1 56.6-4.1h124.9c12.8 0 59.2 2.5 70.5 3.1 1.6.1 2.5.1 2.5.1 3.8-11.9 14.1-10.8 14.1-10.8 14.1 1.1 13.5 10.3 13.5 10.3s.5 44.9.5 47.6z" fill="#2c2934"/><ellipse transform="matrix(.01695 -.9999 .9999 .01695 -82.476 169.726)" class="st10" cx="45.1" cy="126.8" rx="6.2" ry="10.3"/><path class="st11" d="M38.6 122.7h13v8.1h-13z"/><ellipse transform="matrix(.01695 -.9999 .9999 .01695 -93.83 180.89)" class="st10" cx="45.1" cy="138.2" rx="6.2" ry="10.3"/><path class="st11" d="M38.6 134.1h13v8.1h-13z"/><ellipse transform="matrix(.01695 -.9999 .9999 .01695 -59.618 192.975)" class="st10" cx="68.3" cy="126.8" rx="6.2" ry="10.3"/><path class="st11" d="M61.8 122.7h13v8.1h-13z"/><ellipse transform="matrix(.01695 -.9999 .9999 .01695 -70.972 204.138)" class="st10" cx="68.3" cy="138.2" rx="6.2" ry="10.3"/><path class="st11" d="M61.8 134.1h13v8.1h-13z"/><path class="st10" d="M80.4 144.9H35.8c-.4 0-3.2-.1-3.7-2.2v-20.5s.1-2.2 2.5-2.2H53.2c.9 0 1.6-.7 1.6-1.6 0-.9-.7-1.6-1.6-1.6H34.6s-5.7 0-5.7 5.4v21.5s.4 4.6 5.8 5.9c.3.1.6.2 1 .2h44.7c1.4 0 2.5-1.1 2.5-2.5s-1.1-2.4-2.5-2.4zM46.7 159.5H32.6v-8.1H51z"/><ellipse transform="matrix(.9999 -.01695 .01695 .9999 -2.102 5.51)" class="st10" cx="324.1" cy="126.8" rx="10.3" ry="6.2"/><path transform="rotate(-180 324.1 126.806)" class="st11" d="M317.6 122.7h13v8.1h-13z"/><ellipse transform="matrix(.9999 -.01695 .01695 .9999 -2.295 5.512)" class="st10" cx="324.1" cy="138.2" rx="10.3" ry="6.2"/><path transform="rotate(-180 324.1 138.161)" class="st11" d="M317.6 134.1h13v8.1h-13z"/><ellipse transform="matrix(.9999 -.01695 .01695 .9999 -2.106 5.117)" class="st10" cx="300.8" cy="126.8" rx="10.3" ry="6.2"/><path transform="rotate(-180 300.847 126.806)" class="st11" d="M294.4 122.7h13v8.1h-13z"/><ellipse transform="matrix(.9999 -.01695 .01695 .9999 -2.298 5.118)" class="st10" cx="300.8" cy="138.2" rx="10.3" ry="6.2"/><path transform="rotate(-180 300.847 138.161)" class="st11" d="M294.4 134.1h13v8.1h-13z"/><path class="st10" d="M288.8 144.9h44.6c.4 0 3.2-.1 3.7-2.2v-20.5s-.1-2.2-2.5-2.2h-.1H316c-.9 0-1.6-.7-1.6-1.6 0-.9.7-1.6 1.6-1.6H334.6s5.7 0 5.7 5.4v21.5s-.4 4.6-5.8 5.9c-.3.1-.6.2-1 .2h-44.7c-1.4 0-2.5-1.1-2.5-2.5s1.1-2.4 2.5-2.4zM322.5 159.5h14v-8.1h-18.3zM87.3 124.4s.5 4.3 9.7 4.9l66.5-.5 5.4-5.4c0-.1-80-.1-81.6 1zM86.7 135.2s2.2 4.3 9.2 4.3h66.5v-5.4S91 133 86.7 135.2zM86.7 144.9s3.2 4.9 7 4.9 76.8-.5 76.8-.5l-5.9-4.9s-55.2-.6-77.9.5zM283 124.4s-.5 4.3-9.7 4.9l-66.5-.5-5.4-5.4c0-.1 80-.1 81.6 1zM283.5 135.2s-2.2 4.3-9.2 4.3h-66.5v-5.4s71.4-1.1 75.7 1.1zM283.5 144.9s-3.2 4.9-7 4.9-76.8-.5-76.8-.5l5.9-4.9c.1 0 55.2-.6 77.9.5zM96.4 156.8s.5 4.9 14.6 4.9h148.7s6.5-.5 10.3-4.9c0 0-167.1-1.6-173.6 0zM185.1 125.3c-9.6 0-17.3 4.7-17.3 10.4s7.7 10.4 17.3 10.4 17.3-4.7 17.3-10.4-7.7-10.4-17.3-10.4zm0 18.5c-7.5 0-13.5-3.6-13.5-8.1s6.1-8.1 13.5-8.1 13.5 3.6 13.5 8.1-6 8.1-13.5 8.1zM310 113v5.9c-16.2-3.8-251.4 0-251.4 0l-1.6-4.3.7-.8c8.2-2.1 56.6-4.1 56.6-4.1h124.9c12.8 0 59.2 2.5 70.5 3.1l.3.2z"/><path class="st12" d="M87.3 225.5s-9.7 14.6-9.2 18.9h213.1s-4.3-20-5.4-22.2c-1.2-2.1-198.5 3.3-198.5 3.3z"/><path d="M14.8 221.2s-.5 14.6 7.6 23.3c0 0 3.2 5.4 8.1 4.9H64s9.2.5 14.6-8.1c5.4-8.7 6.5-10.8 14.1-10.8 5.9 0 11.9.2 17.8-.1 1.7-.1 1.6-.9 2.8-1.5.2-.1.4-.1.5-.1 7.9.1 15.9 0 23.8 0h12.3s2.2 2.2 5.4 2.2h57.9s3.2 0 6.5-2.7l34.6-.5s2.2 3.2 4.3 3.2h23.3l9.2 11.9s4.3 4.3 9.2 4.3h33s7 1.6 14.1-6.5 4.9-18.4 4.9-18.4h-49.7s-1.1.5-9.2-8.1-7-7.6-7-7.6-3.2-5.4-16.2-5.4H101.5s-8.1-1.1-17.3 6.5c-9.2 7.6-11.9 11.9-11.9 11.9s-1.6 1.1-3.8 1.1-53.7.5-53.7.5z" fill="#402f43"/><path class="st14" d="M115.9 235.8s-2.2 2.7-2.7 4.9h38.9s-1.6-3.2-2.7-4.9h-33.5zM167.8 235.8s-2.2 2.7-2.7 4.9H204s-1.6-3.2-2.7-4.9h-33.5zM219.7 235.8s-2.2 2.7-2.7 4.9h39s-1.6-3.2-2.7-4.9h-33.6z"/><circle class="st12" cx="44.5" cy="204.9" r="12.4"/><circle class="st12" cx="323.6" cy="204.9" r="12.4"/><path class="st12" d="M140.8 174.7h88.7v27.6h-88.7z"/><path class="st3" d="M84 9.2L91 0h7l7 5.9v1.6l-4.3.5s-2.7-3.8-5.4-.5l-.5 1.6H84zM286.8 9.2l-7-9.2h-7l-7 6v1.6l4.3.5s2.7-3.8 5.4-.5l.5 1.6h10.8z"/></g></svg>