<svg version="1.1" id="图层_1" xmlns="http://www.w3.org/2000/svg" x="0" y="0" width="45" height="45" xml:space="preserve"><style>.st0{fill:#f1921c}</style><path class="st0" d="M22.5 30.9c-4.6 0-8.4-3.8-8.4-8.4s3.8-8.4 8.4-8.4 8.4 3.8 8.4 8.4-3.8 8.4-8.4 8.4zm0-14.8c-3.5 0-6.4 2.9-6.4 6.4s2.9 6.4 6.4 6.4c3.5 0 6.4-2.9 6.4-6.4s-2.9-6.4-6.4-6.4zM22.5 11.8c-.6 0-1-.4-1-1V6.2c0-.6.4-1 1-1s1 .4 1 1v4.6c0 .6-.4 1-1 1zM14.3 15.3c-.3 0-.5-.1-.7-.3l-3.3-3.3c-.4-.4-.4-1 0-1.4s1-.4 1.4 0l3.3 3.3c.4.4.4 1 0 1.4-.2.2-.5.3-.7.3zM10.8 23.5H6.2c-.6 0-1-.4-1-1s.4-1 1-1h4.6c.6 0 1 .4 1 1s-.4 1-1 1zM11 35c-.3 0-.5-.1-.7-.3-.4-.4-.4-1 0-1.4l3.3-3.3c.4-.4 1-.4 1.4 0s.4 1 0 1.4l-3.3 3.3c-.2.2-.5.3-.7.3zM22.5 39.8c-.6 0-1-.4-1-1v-4.6c0-.6.4-1 1-1s1 .4 1 1v4.6c0 .6-.4 1-1 1zM34 35c-.3 0-.5-.1-.7-.3L30 31.5c-.4-.4-.4-1 0-1.4s1-.4 1.4 0l3.3 3.3c.4.4.4 1 0 1.4-.2.1-.4.2-.7.2zM38.8 23.5h-4.6c-.6 0-1-.4-1-1s.4-1 1-1h4.6c.6 0 1 .4 1 1s-.4 1-1 1zM30.7 15.3c-.3 0-.5-.1-.7-.3-.4-.4-.4-1 0-1.4l3.3-3.3c.4-.4 1-.4 1.4 0s.4 1 0 1.4L31.5 15c-.2.2-.5.3-.8.3z"/><path d="M45 45H0V0h45v45zM1 44h43V1H1v43z" fill="none"/></svg>