<svg version="1.1" id="图层_1" xmlns="http://www.w3.org/2000/svg" x="0" y="0" width="45" height="45" xml:space="preserve"><style>.st0{fill:#f1921c}</style><path class="st0" d="M37.6 27.5c-2.8 0-5-2.2-5-5s2.2-5 5-5 5 2.2 5 5-2.3 5-5 5zm0-8c-1.7 0-3 1.3-3 3s1.3 3 3 3 3-1.3 3-3-1.4-3-3-3z"/><path class="st0" d="M22.7 38.4c-4.4 0-8.5-1.8-11.6-5-.4-.4-.4-1 0-1.4.4-.4 1-.4 1.4 0 2.7 2.8 6.2 4.4 10.1 4.4 6.2 0 11.8-4.2 13.4-10.2.1-.5.7-.8 1.2-.7.5.1.8.7.7 1.2-1.8 6.9-8.1 11.7-15.2 11.7z"/><path class="st0" d="M20.1 24.6c.4.5.6 1 .6 1.8 0 .7-.2 1.3-.7 1.9-.3.3-.8.8-1.5 1.3-.8.6-1.2 1.1-1.4 1.5h3.5v1.1h-4.8c0-.8.2-1.5.7-2.1.2-.3.8-.8 1.6-1.5.5-.4.8-.7 1-.9.3-.4.5-.9.5-1.3 0-.5-.1-.8-.3-1-.2-.2-.5-.3-1-.3-.4 0-.8.2-1 .5-.1.2-.3.7-.3 1.4h-1c0-.9.2-1.6.7-2.2.4-.6 1.1-.9 1.8-.9.6 0 1.2.2 1.6.7zM23.2 30.8c.1.1.2.3.2.6 0 .2-.1.4-.2.6-.1.2-.3.2-.5.2s-.4-.1-.5-.2c-.1-.2-.2-.4-.2-.6 0-.2.1-.4.2-.6.1-.2.3-.2.5-.2s.3.1.5.2zM24.9 24.1h4.2v1.1h-3.4l-.2 2.4c.2-.3.5-.4.7-.6.2-.1.5-.2.9-.2.7 0 1.2.3 1.6.8.4.5.6 1.2.6 2.1 0 .8-.3 1.5-.8 2.1-.5.5-1.1.7-1.8.7-.6 0-1.2-.2-1.6-.6-.5-.4-.8-1-.8-1.8h1.1c0 .5.2.8.5 1 .2.2.6.3.9.3.4 0 .8-.2 1.1-.5.3-.3.4-.7.4-1.3 0-.6-.1-1-.4-1.3-.3-.3-.6-.5-1.1-.5-.3 0-.6.1-.8.2-.2.1-.4.3-.6.7h-1l.5-4.6z"/><g><path class="st0" d="M21.2 13.4c-.5-.4-1.3-.7-2.3-.7h-3v8h1.3v-3.1H19c1 0 1.7-.2 2.3-.7.5-.4.8-1 .8-1.8-.1-.7-.3-1.3-.9-1.7zm-1 3c-.3.2-.9.3-1.6.3h-1.3v-3.1h1.3c.7 0 1.2.1 1.6.3.4.2.5.6.5 1.2s-.2 1.1-.5 1.3zM29.5 20.7h-1.2V15h-.1l-1.4 5.7h-1L24.4 15h-.1v5.7h-1.1v-8H25l1.3 5.3h.1l1.3-5.3h1.8v8z"/></g><g><path class="st0" d="M7.4 27.5c-2.8 0-5-2.2-5-5s2.2-5 5-5 5 2.2 5 5-2.2 5-5 5zm0-8c-1.7 0-3 1.3-3 3s1.3 3 3 3 3-1.3 3-3-1.3-3-3-3z"/><path class="st0" d="M8 19.5h-.3c-.5-.1-.8-.7-.7-1.2 1.9-6.9 8.2-11.7 15.3-11.7 4.4 0 8.5 1.8 11.6 5 .4.4.4 1 0 1.4-.4.4-1 .4-1.4 0-2.7-2.8-6.2-4.4-10.1-4.4-6.2 0-11.8 4.2-13.4 10.2-.2.5-.6.7-1 .7z"/></g><path d="M45 45H0V0h45v45zM1 44h43V1H1v43z" fill="none"/></svg>