<svg version="1.1" id="图层_1" xmlns="http://www.w3.org/2000/svg" x="0" y="0" width="45" height="45" xml:space="preserve"><style>.st0{fill:#f1921c}</style><path class="st0" d="M20.2 17.6H17c-.4 0-.7.3-.7.7s.3.7.7.7h3.2c.4 0 .7-.3.7-.7s-.3-.7-.7-.7zM20.2 14.2H17c-.4 0-.7.3-.7.7s.3.7.7.7h3.2c.4 0 .7-.3.7-.7s-.3-.7-.7-.7z"/><path class="st0" d="M19.2 4.7c1.5 0 2.7 1.2 2.7 2.7v18.5c0 .7.4 1.3.9 1.7 2 1.3 3.2 3.4 3.2 5.8 0 3.8-3.1 6.9-6.9 6.9s-6.9-3.1-6.9-6.9c0-2.4 1.2-4.5 3.2-5.8.6-.4.9-1 .9-1.7V7.4c.2-1.5 1.4-2.7 2.9-2.7m0-2c-2.6 0-4.7 2.1-4.7 4.7v18.5c-2.5 1.6-4.1 4.3-4.1 7.5 0 4.9 4 8.9 8.9 8.9s8.9-4 8.9-8.9c0-3.2-1.7-5.9-4.1-7.5V7.4c-.2-2.5-2.3-4.7-4.9-4.7zM33.7 7.3c.5.4.8 1 .8 1.6h-1c-.1-.4-.3-.7-.6-1-.3-.2-.7-.3-1.1-.3-.6 0-1.2.2-1.5.7-.4.5-.5 1.2-.5 1.8 0 .6.1 1.3.5 1.8s1 .7 1.6.7c.4 0 .8-.1 1.1-.4.3-.3.6-.7.6-1.2h1c-.1.7-.5 1.4-1 1.9-.5.4-1.1.6-1.8.6-.9.1-1.8-.3-2.4-1.1-.5-.7-.7-1.6-.7-2.4 0-.9.2-1.7.7-2.4.6-.7 1.4-1.1 2.4-1.1.7.2 1.4.4 1.9.8zM27.7 7.5c-.9 0-1.6-.7-1.6-1.6s.7-1.6 1.6-1.6c.9 0 1.6.7 1.6 1.6s-.7 1.6-1.6 1.6zm0-2.2c-.3 0-.6.3-.6.6s.3.6.6.6.6-.3.6-.6-.3-.6-.6-.6z"/><path d="M45 45H0V0h45v45zM1 44h43V1H1v43z" fill="none"/></svg>