<svg version="1.1" id="图层_1" xmlns="http://www.w3.org/2000/svg" x="0" y="0" width="45" height="45" xml:space="preserve"><style>.st2{fill:#f1921c}</style><path class="st2" d="M9.3 28.4c-.1.7-.2 1.4-.4 2.1-.1-.7-.2-1.3-.4-2L5.1 8.9H2.5l5.2 26.9.1.3h2.4l5.2-26.7.1-.5H13L9.3 28.4zM25.9 10.3c-1-1.2-2.2-1.9-3.6-1.9-2 0-3.6 1.3-4.9 3.9-1.2 2.5-1.8 6.1-1.8 10.5 0 2.3.3 4.6.8 6.7.5 2.1 1.3 3.8 2.3 5.1 1 1.3 2.3 1.9 3.6 1.9 1.2 0 2.4-.6 3.5-1.7 1-1.1 1.8-2.8 2.4-5 .5-2.1.8-4.6.8-7.3s-.3-5.1-.8-7.2c-.5-2.1-1.2-3.8-2.3-5zm.6 12.2c0 3.3-.4 5.9-1.2 7.7-.8 1.7-1.8 2.6-2.9 2.6-1.1 0-2.1-.9-2.9-2.5-.8-1.8-1.2-4.2-1.2-7.4 0-3.9.4-6.7 1.3-8.3.8-1.6 1.8-2.4 2.9-2.4.8 0 1.5.4 2.1 1.2.7.8 1.2 2 1.5 3.6.3 1.5.4 3.4.4 5.5zM40.1 25.9l-.1.5c-.2 2.2-.7 3.8-1.3 4.9-.6 1-1.3 1.5-2.2 1.5-.7 0-1.4-.4-2-1.1-.6-.8-1.1-2-1.4-3.6-.3-1.6-.5-3.6-.5-5.8 0-1.7.1-3.4.4-5 .3-1.6.7-2.8 1.4-3.8.6-.9 1.4-1.3 2.3-1.3.8 0 1.4.4 1.9 1.2.6.8 1 2.2 1.3 4l.1.5 2.4-1.1v-.3c-.4-2.5-1-4.5-1.9-5.8-1-1.4-2.2-2.2-3.6-2.2-1.3 0-2.4.6-3.5 1.7-1 1.1-1.8 2.7-2.3 4.8-.5 2.1-.8 4.5-.8 7.3 0 2.5.2 5 .7 7.2.5 2.2 1.2 4 2.1 5.2 1 1.2 2.2 1.9 3.7 1.9s2.8-.8 3.8-2.4c1-1.6 1.7-3.8 2-6.7v-.3l-2.5-1.3z"/></svg>