<svg version="1.1" id="图层_1" xmlns="http://www.w3.org/2000/svg" x="0" y="0" width="36" height="139" xml:space="preserve"><style>.st0{fill:#30363d}.st1{fill:#bababa}</style><path class="st0" d="M33.1 7H2.9C1.3 7 0 5.7 0 4.1V2.8C0 1.3 1.3 0 2.9 0h30.3C34.7 0 36 1.3 36 2.9v1.3C36 5.7 34.7 7 33.1 7z"/><path class="st1" d="M32.6 6H3.4C2.1 6 1 4.9 1 3.6v-.2C1 2.1 2.1 1 3.4 1h29.3C33.9 1 35 2.1 35 3.4v.3C35 4.9 33.9 6 32.6 6z"/><path class="st0" d="M33.1 139H2.9c-1.6 0-2.9-1.3-2.9-2.9v-1.3c0-1.6 1.3-2.9 2.9-2.9h30.3c1.6 0 2.9 1.3 2.9 2.9v1.3c-.1 1.6-1.4 2.9-3 2.9z"/><path class="st1" d="M32.6 138H3.4c-1.3 0-2.4-1.1-2.4-2.4v-.3c0-1.3 1.1-2.4 2.4-2.4h29.3c1.3 0 2.4 1.1 2.4 2.4v.3c-.1 1.3-1.2 2.4-2.5 2.4z"/><path fill="#d6d7d7" d="M5 7h26v126H5z"/><path transform="rotate(-180 5.5 70)" class="st0" d="M5 7h1v126H5z"/><path transform="rotate(-90 18 6.5)" class="st0" d="M17.5-6.5h1v26h-1z"/><path class="st0" d="M30 7h1v126h-1z"/><path class="st1" d="M6 7h3v126H6z"/><path transform="rotate(-180 28.5 70)" class="st1" d="M27 7h3v126h-3z"/><path transform="rotate(-90 18 132.5)" class="st0" d="M17.5 119.5h1v26h-1z"/></svg>