<svg version="1.1" id="图层_1" xmlns="http://www.w3.org/2000/svg" x="0" y="0" width="66" height="67" xml:space="preserve"><style>.st0{fill:#30363d}.st1{fill:#87a5c1}</style><path class="st0" d="M33.1 7H2.9C1.3 7 0 5.7 0 4.1V2.8C0 1.3 1.3 0 2.9 0h30.3C34.7 0 36 1.3 36 2.9v1.3C36 5.7 34.7 7 33.1 7z"/><path class="st1" d="M32.6 6H3.4C2.1 6 1 4.9 1 3.6v-.2C1 2.1 2.1 1 3.4 1h29.3C33.9 1 35 2.1 35 3.4v.3C35 4.9 33.9 6 32.6 6z"/><path class="st0" d="M59 64.1V33.9c0-1.6 1.3-2.9 2.9-2.9h1.3c1.6 0 2.9 1.3 2.9 2.9v30.3c0 1.6-1.3 2.9-2.9 2.9h-1.3c-1.6-.1-2.9-1.4-2.9-3z"/><path class="st1" d="M60 63.6V34.4c0-1.3 1.1-2.4 2.4-2.4h.3c1.3 0 2.4 1.1 2.4 2.4v29.3c0 1.3-1.1 2.4-2.4 2.4h-.3c-1.3-.1-2.4-1.2-2.4-2.5z"/><path d="M43 36s-11-2-12-13V7H5v22s4 30 38 33h16V36H43z" fill="#a9bfd3"/><path class="st1" d="M42.3 39.9c.2 0 .5.1.7.1h16v-4H43s-11-2-12-13V7h-4v16.4c1 11.1 10.4 15.7 15.3 16.5z"/><path class="st1" d="M55 58H43.2C14.2 55.4 9.5 31.5 9 28.7V7H5v22s4 30 38 33h16v-4h-4z"/><path class="st0" d="M42.8 37H59v-1H43s-11-2-12-13V7h-1v16.1C31.1 34.7 42.7 37 42.8 37zM58 61H43c-13.7-1.2-24.1-7-30.9-17.1-4.8-7.2-6-14.2-6.1-15V7H5v22s4 30 38 33h16v-1h-1z"/></svg>