<svg xmlns="http://www.w3.org/2000/svg" width="45" height="45"><path d="M10.3 11.2c2.5 0 4.4 2 4.4 4.4 0 .7.6 1.3 1.3 1.3.7 0 1.3-.6 1.3-1.3 0-3.9-3.2-7.1-7.1-7.1-3.9 0-7.1 3.2-7.1 7.1v13.3c0 3.9 3.2 7.1 7.1 7.1 3.9 0 7.1-3.2 7.1-7.1 0-.7-.6-1.3-1.3-1.3-.7 0-1.3.6-1.3 1.3 0 2.5-2 4.4-4.4 4.4s-4.4-2-4.4-4.4V15.6c-.1-2.5 1.9-4.4 4.4-4.4zm16.8-2.7c-3.9 0-7.1 3.2-7.1 7.1v13.3c0 3.9 3.2 7.1 7.1 7.1s7.1-3.2 7.1-7.1V15.6c0-3.9-3.1-7.1-7.1-7.1zm4.5 20.4c0 2.5-2 4.4-4.4 4.4s-4.4-2-4.4-4.4V15.6c0-2.5 2-4.4 4.4-4.4s4.4 2 4.4 4.4v13.3zm9.3 5.8h-2.2c.4-.9.8-1.8 1.3-2.7l.9-1.8.2-.4c.4-.7.7-1.4.7-2.2 0-1.2-1-2.3-2.2-2.4-1.2-.2-2.4.4-3 1.6-.2.5 0 1 .5 1.2.5.2 1 0 1.2-.5.2-.4.6-.6 1-.5.4.1.7.4.7.8-.1.5-.3.9-.5 1.3l-.2.5-.9 1.8c-.6 1.3-1.3 2.7-1.9 3.9-.1.3-.1.6 0 .9.2.3.4.4.8.4h3.5c.5 0 .9-.4.9-.9s-.3-1-.8-1zm0 0" fill="#f1921c"/><path d="M45 45H0V0h45v45zM1 44h43V1H1v43z" fill="none"/></svg>