<svg version="1.1" id="图层_1" xmlns="http://www.w3.org/2000/svg" x="0" y="0" width="45" height="45" xml:space="preserve"><style>.st0{fill:#f1921c}</style><path class="st0" d="M37.6 27.5c-2.8 0-5-2.2-5-5s2.2-5 5-5 5 2.2 5 5-2.3 5-5 5zm0-8c-1.7 0-3 1.3-3 3s1.3 3 3 3 3-1.3 3-3-1.4-3-3-3z"/><path class="st0" d="M22.7 38.4c-4.4 0-8.5-1.8-11.6-5-.4-.4-.4-1 0-1.4.4-.4 1-.4 1.4 0 2.7 2.8 6.2 4.4 10.1 4.4 6.2 0 11.8-4.2 13.4-10.2.1-.5.7-.8 1.2-.7.5.1.8.7.7 1.2-1.8 6.9-8.1 11.7-15.2 11.7z"/><path class="st0" d="M22 15.2c0 .7-.3 1.3-.8 1.8-.5.4-1.3.7-2.3.7h-1.7v3.1h-1.3v-8h3c1 0 1.7.2 2.3.7.6.3.8.9.8 1.7zm-1.3 0c0-.6-.2-1-.5-1.2-.4-.2-.9-.3-1.6-.3h-1.3v3.1h1.3c.7 0 1.2-.1 1.6-.3.3-.3.5-.8.5-1.3zm8.8 5.5h-1.2V15h-.1l-1.4 5.7h-.9L24.4 15h-.1v5.7h-1.2v-8H25l1.3 5.3h.1l1.3-5.3h1.8v8zm-11.4 3.4h1v8h-1.3v-6.4c-.5.4-1.1.8-1.8 1v-1.3c.4-.1.7-.2 1.1-.5.4-.3.7-.5 1-.8zm8.5-.2c.9 0 1.7.4 2.2 1.2.5.7.7 1.7.7 3s-.2 2.3-.7 3c-.5.8-1.3 1.2-2.2 1.2-.9 0-1.7-.4-2.2-1.2-.5-.7-.7-1.7-.7-3s.2-2.3.7-3c.6-.8 1.3-1.2 2.2-1.2zm0 1.1c-.6 0-1.1.3-1.3 1.1-.2.5-.3 1.1-.3 2 0 .8.1 1.5.3 2 .3.7.7 1.1 1.3 1.1.6 0 1.1-.4 1.3-1.1.2-.5.3-1.2.3-2s-.1-1.5-.3-2c-.2-.7-.6-1.1-1.3-1.1zm0 0M7.4 27.5c-2.8 0-5-2.2-5-5s2.2-5 5-5 5 2.2 5 5-2.2 5-5 5zm0-8c-1.7 0-3 1.3-3 3s1.3 3 3 3 3-1.3 3-3-1.3-3-3-3z"/><path class="st0" d="M8 19.5h-.3c-.5-.1-.8-.7-.7-1.2 1.9-6.9 8.2-11.7 15.3-11.7 4.4 0 8.5 1.8 11.6 5 .4.4.4 1 0 1.4-.4.4-1 .4-1.4 0-2.7-2.8-6.2-4.4-10.1-4.4-6.2 0-11.8 4.2-13.4 10.2-.2.5-.6.7-1 .7z"/><path d="M45 45H0V0h45v45zM1 44h43V1H1v43z" fill="none"/></svg>