<svg version="1.1" id="图层_1" xmlns="http://www.w3.org/2000/svg" x="0" y="0" width="45" height="45" xml:space="preserve"><style>.st0{fill:#f1921c}</style><path class="st0" d="M33.3 17.9c-2.9 0-5.2-2.3-5.2-5.2 0-2.6 3.7-6.3 4.5-7 .4-.4 1-.4 1.4 0 .7.7 4.5 4.4 4.5 7-.1 2.9-2.4 5.2-5.2 5.2zm0-10c-1.5 1.6-3.2 3.7-3.2 4.8 0 1.7 1.4 3.2 3.2 3.2 1.7 0 3.2-1.4 3.2-3.2-.1-1-1.7-3.2-3.2-4.8zM19.4 39.5c-7.1 0-12.8-5.8-12.8-13 0-6.9 11.6-20.1 12.1-20.7.2-.2.5-.3.7-.3.3 0 .6.1.7.3.5.6 12.1 13.7 12.1 20.7 0 7.2-5.8 13-12.8 13zm0-31.5C15.8 12.3 8.6 21.7 8.6 26.5c0 6.1 4.9 11 10.8 11 6 0 10.8-4.9 10.8-11 0-4.8-7.2-14.2-10.8-18.5z"/><path d="M45 45H0V0h45v45zM1 44h43V1H1v43z" fill="none"/></svg>