<svg version="1.1" id="图层_1" xmlns="http://www.w3.org/2000/svg" x="0" y="0" width="40" height="51" xml:space="preserve"><style>.st0{fill:#d6d7d7}.st1{opacity:.4;fill:#5d5e5f}.st4{fill:#d13e36}</style><path class="st0" d="M12 16h16v14H12z"/><path class="st0" d="M18 16h4v9h-4z"/><path class="st1" d="M18 16h4v9h-4zM12 16h2v9h-2zM26 16h2v9h-2z"/><path class="st0" d="M4 26h32v20H4z"/><path opacity=".2" fill="#5d5e5f" d="M4 26h32v20H4z"/><path class="st0" d="M0 21h4v30H0zM36 21h4v30h-4z"/><circle class="st0" cx="20" cy="36" r="14"/><circle class="st1" cx="20" cy="36" r="14"/><circle cx="20" cy="36" r="10" fill="#fff"/><g><path class="st0" d="M16 10h8v6h-8z"/><path class="st4" d="M10 0h20v4H10zM8 4h24v4H8z"/><path opacity=".18" fill="#fff" d="M8 4h24v4H8z"/><path class="st4" d="M12 8h16v2H12z"/></g><g><path d="M15.9 40.3v-8.6h1.7l2 6.1c.2.6.3 1 .4 1.3.1-.3.3-.8.5-1.4l2.1-6h1.5v8.6H23v-7.2l-2.5 7.2h-1L17 33v7.3h-1.1z" fill="#0072ce"/></g></svg>