<svg version="1.1" id="图层_1" xmlns="http://www.w3.org/2000/svg" x="0" y="0" width="40" height="56" xml:space="preserve"><style>.st0{fill:#d6d7d7}.st1{opacity:.4;fill:#5d5e5f}.st4{fill:green}</style><path class="st0" d="M12 21h16v14H12z"/><path class="st0" d="M18 21h4v9h-4z"/><path class="st1" d="M18 21h4v9h-4zM12 21h2v9h-2zM26 21h2v9h-2z"/><path class="st0" d="M4 31h32v20H4z"/><path opacity=".2" fill="#5d5e5f" d="M4 31h32v20H4z"/><path class="st0" d="M0 26h4v30H0zM36 26h4v30h-4z"/><circle class="st0" cx="20" cy="41" r="14"/><circle class="st1" cx="20" cy="41" r="14"/><circle cx="20" cy="41" r="10" fill="#fff"/><path class="st0" d="M16 15h8v6h-8z"/><g><path class="st4" d="M14 3h18v12H14z"/><path transform="rotate(90 28 9)" class="st4" d="M19 7h18v4H19z"/><path transform="rotate(90 28 9)" opacity=".18" fill="#fff" d="M19 7h18v4H19z"/><path transform="rotate(90 25.5 9)" class="st4" d="M18.5 8.5h14v1h-14z"/><path class="st1" d="M14 4h12v2H14zM14 7h12v2H14zM14 10h12v2H14z"/></g><path class="st4" d="M30 41c0 5.5-4.5 10-10 10s-10-4.5-10-10"/><g><path d="M15.9 45.3v-8.6h1.7l2 6.1c.2.6.3 1 .4 1.3.1-.3.3-.8.5-1.4l2.1-6h1.5v8.6H23v-7.2l-2.5 7.2h-1L17 38v7.3h-1.1z" fill="#0072ce"/></g></svg>