<svg version="1.1" id="图层_1" xmlns="http://www.w3.org/2000/svg" x="0" y="0" width="26" height="45" xml:space="preserve"><style>.st0{fill:#fff}</style><path class="st0" d="M13 0C5.8 0 0 5.8 0 13s5.8 13 13 13 13-5.8 13-13S20.2 0 13 0zm0 24C6.9 24 2 19.1 2 13S6.9 2 13 2s11 4.9 11 11-4.9 11-11 11z"/><path class="st0" d="M13 19C5.8 19 0 24.8 0 32s5.8 13 13 13 13-5.8 13-13-5.8-13-13-13zm0 24C6.9 43 2 38.1 2 32s4.9-11 11-11 11 4.9 11 11-4.9 11-11 11zM13 5L6 17h14L13 5zm0 3.6l3.7 6.4H9.2L13 8.6z"/><path class="st0" d="M13 27L6 39h14l-7-12zm0 3.6l3.7 6.4H9.2l3.8-6.4z"/></svg>