<svg version="1.1" id="图层_1" xmlns="http://www.w3.org/2000/svg" x="0" y="0" width="26" height="46" xml:space="preserve"><style>.st0{fill:#fff}</style><path class="st0" d="M13 0C5.8 0 0 5.8 0 13s5.8 13 13 13 13-5.8 13-13S20.2 0 13 0zm0 24C6.9 24 2 19.1 2 13S6.9 2 13 2s11 4.9 11 11-4.9 11-11 11z"/><path class="st0" d="M14 19v-8h-2v8"/><g><path class="st0" d="M13 12l6-3.4-.9-1.6-6 3.4"/><g><path class="st0" d="M13 12L7 8.6 7.9 7l6 3.4"/></g></g><g><path class="st0" d="M13 20C5.8 20 0 25.8 0 33s5.8 13 13 13 13-5.8 13-13-5.8-13-13-13zm0 24C6.9 44 2 39.1 2 33s4.9-11 11-11 11 4.9 11 11-4.9 11-11 11z"/><path class="st0" d="M14 41v-8h-2v8"/><g><path class="st0" d="M13 34l6-3.4-.9-1.6-6 3.4"/><g><path class="st0" d="M13 34l-6-3.4.9-1.6 6 3.4"/></g></g></g></svg>