<svg version="1.1" id="图层_1" xmlns="http://www.w3.org/2000/svg" x="0" y="0" width="36.9" height="31.7" xml:space="preserve"><style>.st0{fill:#fff}</style><path class="st0" d="M32.8 0L2.7 30l1.5 1.4 30-30"/><path transform="rotate(-45.001 17 27.744)" class="st0" d="M16.1 23h1.8v9.5h-1.8z"/><path transform="rotate(-45.001 17 27.744)" class="st0" d="M12.3 26.8h9.5v1.8h-9.5z"/><path class="st0" d="M34.7 16.7l-1.2 2.8-4.7-11.2-1.1-2.6-1.1 2.6L22 19.4 17.3 8.3l-1.1-2.6-1.1 2.6-4.7 11.2L5.7 8.3 4.6 5.7 3.5 8.3 0 16.7h2.2L4.6 11l4.7 11.1 1.1 2.6 1.1-2.6L16.2 11l4.7 11 1.1 2.7 1-2.7 4.7-11 4.7 11.1 1.1 2.6 1.1-2.6 2.3-5.4z"/></svg>