<svg version="1.1" id="图层_1" xmlns="http://www.w3.org/2000/svg" x="0" y="0" width="34" height="49" xml:space="preserve"><style>.st0{fill:#fff}</style><path transform="rotate(90 17 10)" class="st0" d="M7 9h20v2H7z"/><path class="st0" d="M29 23c5 0 5-4.5 5-4.6V18h-1.7v.4c0 .1 0 3-3.3 3-3.2 0-3.2-2.9-3.2-3V18H24v.4c0 .1.1 4.6 5 4.6z"/><path class="st0" d="M21 23c5 0 5-4.5 5-4.6V18h-1.7v.4c0 .1 0 3-3.3 3-3.2 0-3.2-2.9-3.2-3V18H16v.4c0 .1.1 4.6 5 4.6z"/><path class="st0" d="M13 23c5 0 5-4.5 5-4.6V18h-1.7v.4c0 .1 0 3-3.3 3-3.2 0-3.2-2.9-3.2-3V18H8v.4c0 .1.1 4.6 5 4.6z"/><path class="st0" d="M5 23c5 0 5-4.5 5-4.6V18H8.3v.4c0 .1 0 3-3.3 3-3.2 0-3.2-2.9-3.2-3V18H0v.4c0 .1.1 4.6 5 4.6z"/><g><path transform="rotate(-90 17 39)" class="st0" d="M7 38h20v2H7z"/><path class="st0" d="M5 26c-5 0-5 4.5-5 4.6v.4h1.7v-.4c0-.1 0-3 3.3-3 3.2 0 3.2 2.9 3.2 3v.4H10v-.4c0-.1-.1-4.6-5-4.6z"/><path class="st0" d="M13 26c-5 0-5 4.5-5 4.6v.4h1.7v-.4c0-.1 0-3 3.3-3 3.2 0 3.2 2.9 3.2 3v.4H18v-.4c0-.1-.1-4.6-5-4.6z"/><path class="st0" d="M21 26c-5 0-5 4.5-5 4.6v.4h1.7v-.4c0-.1 0-3 3.3-3 3.2 0 3.2 2.9 3.2 3v.4H26v-.4c0-.1-.1-4.6-5-4.6z"/><path class="st0" d="M29 26c-5 0-5 4.5-5 4.6v.4h1.7v-.4c0-.1 0-3 3.3-3 3.2 0 3.2 2.9 3.2 3v.4H34v-.4c0-.1-.1-4.6-5-4.6z"/></g></svg>