<svg version="1.1" id="图层_1" xmlns="http://www.w3.org/2000/svg" x="0" y="0" width="102" height="58" xml:space="preserve"><style>.st0{fill:#fff}</style><path class="st0" d="M20 49H0v2h20v7h2V42h-2zM71 49H52V33.9c5.2-.4 9.6-3.9 11.2-8.6C68.3 23.5 72 18.7 72 13c0-7.2-5.8-13-13-13-3 0-5.8 1-8 2.8C48.8 1.1 46 0 43 0c-7.2 0-13 5.8-13 13 0 5.7 3.7 10.5 8.7 12.3 1.7 4.8 6 8.3 11.3 8.7v15H31v-7h-2v16h2v-7h40v7h2V42h-2v7zm-1-35.9c0 4.3-2.5 8.1-6.2 9.9.1-.6.2-1.3.2-1.9 0-5.7-3.7-10.5-8.8-12.3-.6-1.7-1.5-3.2-2.7-4.5C54.3 3 56.6 2.2 59 2.2c6.1-.1 11 4.8 11 10.9zM40 21c0-4.3 2.5-8.1 6.2-9.9-.1.6-.2 1.3-.2 1.9 0 3.4 1.3 6.5 3.5 8.8-1.9 1.4-4.1 2.2-6.5 2.2-.9 0-1.8-.1-2.6-.3-.3-.9-.4-1.8-.4-2.7zm8-7.9c0-.9.1-1.9.4-2.7.8-.2 1.7-.3 2.6-.3.9 0 1.8.1 2.6.3.2.9.3 1.8.3 2.7 0 2.9-1.1 5.6-3 7.5-1.8-2-2.9-4.6-2.9-7.5zm3-7.6c.7.8 1.3 1.7 1.8 2.6-.6 0-1.2-.1-1.8-.1-.6 0-1.2.1-1.8.1.5-.9 1.1-1.8 1.8-2.6zm4.9 7.5c0-.6-.1-1.3-.2-1.9 3.7 1.8 6.2 5.5 6.2 9.9 0 .9-.1 1.9-.4 2.7-.8.2-1.7.3-2.6.3-2.5 0-4.7-.8-6.6-2.2 2.3-2.3 3.6-5.4 3.6-8.8zM32 13c0-6.1 4.9-11 11-11 2.5 0 4.7.8 6.5 2.2-1.2 1.3-2.2 2.8-2.8 4.5-5 1.8-8.7 6.6-8.7 12.3 0 .6.1 1.3.1 1.9-3.6-1.8-6.1-5.6-6.1-9.9zm9.1 12.9c.6.1 1.2.1 1.8.1 3 0 5.8-1 8-2.8 2.2 1.8 5 2.8 8.1 2.8.6 0 1.2-.1 1.8-.1C59 29.5 55.3 32 51 32c-4.3 0-8.1-2.5-9.9-6.1zM82 49v-7h-2v16h2v-7h20v-2z"/></svg>