<svg xmlns="http://www.w3.org/2000/svg" width="26" height="42"><path d="M26 13c0-7.2-5.8-13-13-13S0 5.8 0 13c0 3 1 5.8 2.8 8C1 23.2 0 26 0 29c0 7.2 5.8 13 13 13s13-5.8 13-13c0-3-1-5.8-2.8-8 1.8-2.2 2.8-5 2.8-8zM13 2c6.1 0 11 4.9 11 11 0 2.4-.8 4.7-2.1 6.5-2.4-2.2-5.5-3.5-8.9-3.5-3.4 0-6.5 1.3-8.9 3.5C2.8 17.7 2 15.4 2 13 2 6.9 6.9 2 13 2zm7.5 19c-2 1.9-4.6 3-7.5 3s-5.6-1.1-7.5-3c2-1.9 4.6-3 7.5-3s5.6 1.1 7.5 3zM13 40C6.9 40 2 35.1 2 29c0-2.4.8-4.7 2.1-6.5C6.5 24.7 9.6 26 13 26c3.4 0 6.5-1.3 8.9-3.5 1.3 1.8 2.1 4.1 2.1 6.5 0 6.1-4.9 11-11 11z" fill="#fff"/></svg>