<svg version="1.1" id="图层_1" xmlns="http://www.w3.org/2000/svg" x="0" y="0" width="16" height="60" xml:space="preserve"><style>.st0{fill:#fff}</style><path class="st0" d="M0 17h16v26H0z"/><path transform="rotate(-90 8 51)" class="st0" d="M0 50h16v2H0z"/><path class="st0" d="M7.2 51.3l7.3-4.3 1 1.7L8.2 53z"/><path class="st0" d="M9.2 51.3L1.9 47l-1 1.7L8.2 53z"/><g><path class="st0" d="M7.2 58.3l7.3-4.3 1 1.7L8.2 60z"/><path class="st0" d="M9.2 58.3L1.9 54l-1 1.7L8.2 60z"/></g><g><path transform="rotate(90 8 9)" class="st0" d="M0 8h16v2H0z"/><path class="st0" d="M8.8 8.7L1.5 13l-1-1.7L7.8 7z"/><path class="st0" d="M6.8 8.7l7.3 4.3 1-1.7L7.8 7z"/><g><path class="st0" d="M8.8 1.7L1.5 6l-1-1.7L7.8 0z"/><path class="st0" d="M6.8 1.7L14.1 6l1-1.7L7.8 0z"/></g></g></svg>