<svg version="1.1" id="图层_1" xmlns="http://www.w3.org/2000/svg" x="0" y="0" width="52" height="82" xml:space="preserve"><style>.st0{fill:#fff}</style><path class="st0" d="M27 14l5.1 3 1-1.7-6.1-3.6V7l5.1 3 1-1.7L27 4.7V0h-2v4.5l-6.5 3.8 1 1.7L25 6.8v4.7l-6.5 3.8 1 1.7 5.5-3.2V21h-7v26h7v7l-5.1-3-1 1.7 6.1 3.6V61l-5.1-3-1 1.7 6.1 3.6v.8c-3.9.5-7 3.9-7 7.9s3.1 7.4 7 7.9V82h2v-2.1c3.9-.5 7-3.9 7-7.9s-3.1-7.4-7-7.9v-.5l6.5-3.8-1-1.7-5.5 3.1v-4.7l6.5-3.8-1-1.7-5.5 3.2V47h7V21h-7v-7zm-7 58c0-3 2.2-5.4 5-5.9v11.8c-2.8-.5-5-2.9-5-5.9zm12 0c0 3-2.2 5.4-5 5.9V66.1c2.8.5 5 2.9 5 5.9zM9 64.1V62H7v2.1c-3.9.5-7 3.9-7 7.9s3.1 7.4 7 7.9V82h2v-2.1c3.9-.5 7-3.9 7-7.9s-3.1-7.4-7-7.9zM2 72c0-3 2.2-5.4 5-5.9v11.8C4.2 77.4 2 75 2 72zm7 5.9V66.1c2.8.5 5 2.9 5 5.9s-2.2 5.4-5 5.9zM52 72c0-4.1-3.1-7.4-7-7.9V62h-2v2.1c-3.9.5-7 3.9-7 7.9s3.1 7.4 7 7.9V82h2v-2.1c3.9-.5 7-3.8 7-7.9zm-14 0c0-3 2.2-5.4 5-5.9v11.8c-2.8-.5-5-2.9-5-5.9zm7 5.9V66.1c2.8.5 5 2.9 5 5.9s-2.2 5.4-5 5.9z"/></svg>