<svg xmlns="http://www.w3.org/2000/svg" width="22" height="81"><path d="M20.6 77l-4.2-6 1.4-1.4-1.4-1.4-1.1 1.1-3.1-4.6-.2-.2v-.9l6.5-3.8-1-1.7-5.5 3.1v-4.7l6.5-3.8-1-1.7-5.5 3.2V47h7V21h-7v-7l5.1 3 1-1.7-6.1-3.6V7l5.1 3 1-1.7L12 4.7V0h-2v4.5L3.5 8.3l1 1.7L10 6.8v4.7l-6.5 3.8 1 1.7 5.5-3.2V21H3v26h7v7l-5.1-3-1 1.7 6.1 3.6V61l-5.1-3-1 1.7 6.1 3.6v1.1l-.2.3-3.1 4.6-1.1-1.1-1.4 1.4L5.6 71l-4.2 6L0 79h10v2h2v-2h10l-1.4-2zM12 77v-2h-2v2H3.7l3.2-4.6 1.5 1.5 1.4-1.4-1.7-1.7 2.5-3.7h.8l2.5 3.7-1.7 1.7 1.4 1.4 1.5-1.5 3.2 4.6H12z" fill="#fff"/></svg>