<svg version="1.1" id="图层_1" xmlns="http://www.w3.org/2000/svg" x="0" y="0" width="54.9" height="61" xml:space="preserve"><style>.st0{fill:#fff}</style><path class="st0" d="M44.8 13l2.5 2.5-3.2 3.1C43.1 12.5 38.2 7.8 32 7V0h-2v9h1.7c5.8.7 10.4 5.5 10.6 11.4l-.4.4c-2.4-3.3-6.2-5.4-10.6-5.4-6.7 0-12.2 5.1-12.9 11.6H7v9H0v2h16v-2H9v-7h9.3c.2 3.7 1.9 6.9 4.5 9.2-1.6 1.4-2.8 3.1-3.6 5L7.4 54.9l1.4 1.4 9.5-9.4c0 .4-.1.7-.1 1.1 0 7.2 5.8 13 13 13s13-5.8 13-13c0-3.9-1.7-7.4-4.5-9.8 2.7-2.3 4.4-5.7 4.5-9.5v-7.5l4.4-4.3 2.5 2.5 3.8-10.1L44.8 13zm-13.5 4.4c3.8 0 7.1 1.9 9.1 4.9L33.6 29 32 28v-8h-2v7h-9.6c.7-5.4 5.3-9.6 10.9-9.6zM20.3 29h8l-3.9 2.2 1 1.7 5.6-3.1 1.1.6-5.5 5.4c-.8.3-1.5.7-2.2 1.1-2.3-1.8-3.9-4.7-4.1-7.9zm7.4 8.6c1.1-.4 2.3-.6 3.6-.6 1.8 0 3.5.4 5 1.2-1.5.8-3.2 1.2-5 1.2-1.6 0-3.1-.3-4.4-.9l.8-.9zM42.3 48c0 6.1-4.9 11-11 11s-11-4.9-11-11c0-1.3.2-2.5.6-3.7l4.4-4.4c1.8.9 3.8 1.4 5.9 1.4 2.5 0 4.9-.7 6.9-2 2.6 2.1 4.2 5.2 4.2 8.7zm-4.1-11c-2-1.2-4.3-2-6.9-2h-1l3.6-3.6 2.6 1.5 1-1.7-2.1-1.2 6-5.9c.6 1.3.9 2.8.9 4.3 0 3.5-1.6 6.6-4.1 8.6z"/><path class="st0" d="M24 55h14l-7-12-7 12zm3.3-2l3.7-6.4 3.7 6.4h-7.4zM3 40h10v2H3zM6 44h4v2H6z"/></svg>