<svg version="1.1" id="图层_1" xmlns="http://www.w3.org/2000/svg" x="0" y="0" width="26" height="51.9" xml:space="preserve"><style>.st1{fill:#d6d7d7}</style><path d="M22.5 29.9c0-.6-.5-1.1-1.1-1.1H4.6c-.6 0-1.1.5-1.1 1.1v4.8c0 .5.2 1.1.6 1.6.3.4 2 2 2.4 2.3l.1.1h12.8c.1 0 .1 0 .1-.1.3-.3 2-1.9 2.4-2.3.4-.5.6-1.1.6-1.6v-4.8z" fill="#f2f2f2"/><path class="st1" d="M9.4 28.7v-5.6c0-.5-.2-.9-.5-1.3l-2.8-3c-.8-.9-2.3-1-3.2-.1-.9.9-.9 2.3-.1 3.2l2.1 2.3v4.6h4.5zm7.1 0v-5.6c0-.5.2-.9.5-1.3l2.8-3c.8-.9 2.3-1 3.2-.1.9.8 1 2.3.1 3.2L21 24.2v4.6h-4.5z"/><path d="M18.5 27.3h-11c-.5 0-1 .4-1 1v.4h13v-.4c0-.5-.4-1-1-1z" fill="#eaeaea"/><path fill="#848484" d="M13 39.3H7.1v8.9l2.3 2h7.2l2.3-2v-8.9z"/><path d="M13 50.2H9.4l1.3 1.2.1.1c.2.2.5.3.8.3h2.7c.3 0 .6-.1.8-.3l1.5-1.3H13z" fill="#747577"/><path d="M13 38.6H6.7v2.5c0 .2.2.4.4.4l5.9-.4 6-.4c.2 0 .4-.2.4-.4v-1.7H13zm5.8 6.6l-5.8.5-5.9.4c-.2 0-.4.2-.4.5 0 .2.2.4.5.4l5.8-.4 5.9-.4c.2 0 .4-.2.4-.5s-.3-.5-.5-.5zm0-1.8l-5.8.5-5.9.4c-.2 0-.4.2-.4.5 0 .2.2.4.5.4l5.8-.4 5.9-.4c.2 0 .4-.2.4-.5s-.3-.5-.5-.5zm0-1.8L13 42l-5.9.4c-.2 0-.4.2-.4.5 0 .2.2.4.5.4l5.8-.4 5.9-.4c.2 0 .4-.2.4-.5 0-.2-.2-.4-.5-.4zm.5 6.1c0-.2-.2-.4-.4-.4h-.1l-5.8.5-5.8.4h-.1l2.3 2h7.2l2.3-2c.2 0 .4-.2.4-.5z" fill="#adadad"/><path class="st1" d="M15.4 24.6h-4.8c-.4 0-.7.3-.7.7v2h6v-2c.1-.4-.2-.7-.5-.7z"/><path fill="#c4c7cd" d="M13 30.9H3.5v.4h19v-.4z"/><path class="st1" d="M24.4 7L13 3.7 5.6 1.5c-1.2-.4-2.5.3-2.8 1.5-.4 1.1.3 2.4 1.5 2.7L13 8.4v.1l10.1 2.9c1.2.2 2.4-.5 2.8-1.6.3-1.2-.4-2.4-1.5-2.8zm-.5 5.7L13 9.7 3.6 7.1c-1.3-.4-2.6.3-3 1.5-.4 1.1.4 2.4 1.6 2.7l10.8 3 9.5 2.7c1.3.4 2.6-.3 3-1.5.4-1.2-.3-2.4-1.6-2.8z"/><path class="st1" d="M13 0C7.7 0 3.9 1.7 3.9 1.7l9.1 3 9.1-3S18.3 0 13 0zm9.1 18.3L13 15.6l-9.7-2.9c-1.2-.4-2.4.3-2.8 1.5S.8 16.6 2 17l11 3.3 7.8 2.3c1.2.3 2.4-.3 2.8-1.5.3-1.2-.3-2.4-1.5-2.8z"/><path d="M25.9 14.5c-.3-1.2-1.6-1.9-2.9-1.6l-10 2.7-9.3 2.6c-1.2.3-1.9 1.6-1.6 2.8.3 1.2 1.6 1.9 2.8 1.6l8.1-2.2 11.3-3c1.2-.5 1.9-1.7 1.6-2.9zm0-6.1c-.3-1.2-1.6-1.9-2.8-1.6L13 9.7 1.6 12.9c-1.2.3-1.9 1.6-1.6 2.8.3 1.2 1.6 1.9 2.8 1.6l10.2-3 11.4-3.2c1.1-.3 1.8-1.5 1.5-2.7zm-2.4-5.2c-.3-1.2-1.6-1.9-2.8-1.6L13 3.8 1.8 6.9C.7 7.2 0 8.5.3 9.7c.3 1.2 1.6 1.9 2.8 1.6l10-2.8 9-2.5c1-.4 1.7-1.6 1.4-2.8z" fill="#ffe85f"/><path d="M13 0C8.9 0 5.7 1 4.5 1.4c-.8.2-1.5.8-1.7 1.6-.4 1.1.3 2.4 1.5 2.7l.8.3-3.2.9C.7 7.2 0 8.5.3 9.7c.2.8.8 1.3 1.6 1.5.1.1.2.1.4.1l2.4.7-2.2.6c-.3 0-.5.1-.8.2-1.2.3-1.9 1.6-1.6 2.8.3 1.1 1.5 1.8 2.6 1.6l2.3.7-1.2.3c-1.2.3-1.9 1.6-1.6 2.8.1.5.4.9.8 1.2l1.9 2v4.6h-.3c-.6 0-1.1.5-1.1 1.1v4.8c0 .5.2 1.1.6 1.6.3.4 2 2 2.4 2.3l.1.1v2.5c0 .2.2.4.4.4v1c-.2 0-.4.2-.4.5 0 .2.2.4.4.4v1c-.2 0-.4.2-.4.5 0 .2.2.4.4.4v1c-.2 0-.4.2-.4.5 0 .2.2.4.4.4v1.2l2.3 2 1.3 1.2.1.1c.2.2.5.3.8.3H13m0-42.4l-2.2-.6 2.2-.7m0 16.2h-2.4c-.4 0-.7.3-.7.7v2h-.5v-4.2c0-.5-.2-.9-.5-1.3l-.4-.4 4.5-1.2m0-4.6l-2.2-.7 2.2-.6" opacity=".4" fill="#fff"/></svg>