<svg xmlns="http://www.w3.org/2000/svg" width="60" height="45"><radialGradient id="a" cx="29.945" cy="28.233" r="20.855" gradientTransform="matrix(1 0 0 -1 0 46.2)" gradientUnits="userSpaceOnUse"><stop offset="0" stop-color="#ffffb6"/><stop offset="1" stop-color="#ffb100"/></radialGradient><path d="M30 30C15 30 2.9 19.6 2.9 7.5c0-1.2.6-1.7 1.2-1.7h51.3c.6 0 1.2.6 1.2 1.2C57.1 19.6 45 30 30 30z" fill="url(#a)"/><radialGradient id="b" cx="30" cy="44.703" r="21.162" gradientTransform="matrix(1 0 0 -1 0 46.2)" gradientUnits="userSpaceOnUse"><stop offset="0" stop-color="#ffffb6"/><stop offset="1" stop-color="#ffb100"/></radialGradient><path d="M58.3 0H1.7C.6 0 0 .6 0 1.7c0 .6.6 1.7 1.7 1.7h56.5c1.2 0 1.7-.6 1.7-1.7C60 .6 59.4 0 58.3 0z" fill="url(#b)"/><radialGradient id="c" cx="29.903" cy="5.774" r="3.348" gradientTransform="matrix(1 0 0 -1 0 46.2)" gradientUnits="userSpaceOnUse"><stop offset="0" stop-color="#ffffb6"/><stop offset="1" stop-color="#ffb100"/></radialGradient><path d="M30 35.8c1.2 0 1.7.6 1.7 1.7v5.8c0 1.2-.6 1.7-1.7 1.7s-1.7-.6-1.7-1.7v-5.8c0-1.2.5-1.7 1.7-1.7z" fill="url(#c)"/><radialGradient id="d" cx="17.458" cy="8.574" r="3.621" gradientTransform="matrix(1 0 0 -1 0 46.2)" gradientUnits="userSpaceOnUse"><stop offset="0" stop-color="#ffffb6"/><stop offset="1" stop-color="#ffb100"/></radialGradient><path d="M19.6 33.5c.6.6 1.2 1.2.6 2.3L17.3 41c0 1.2-.6 1.2-1.7.6-1.2 0-1.2-1.2-.6-1.7l2.3-5.8c.6-.6 1.2-1.2 2.3-.6z" fill="url(#d)"/><radialGradient id="e" cx="29.964" cy="11.496" r="19.542" gradientTransform="matrix(1 0 0 -1 0 46.2)" gradientUnits="userSpaceOnUse"><stop offset="0" stop-color="#ffffb6"/><stop offset="1" stop-color="#ffb100"/></radialGradient><path d="M9.8 27.7s.6.6.6 1.2 0 .6-.6 1.2l-4 4.6c-.6 0-1.7 0-2.3-.6s-.6-1.7 0-2.3l4-4s.6-.6 1.2-.6c.5.5 1.1.5 1.1.5zm30.6 5.8c.6-.6 1.7 0 1.7.6l2.3 5.2V41c0 .6 0 1.2-.6 1.2s-1.2-.6-1.2-1.2l-2.9-5.2v-1.2c0-.6.7-1.1.7-1.1zm9.2-5.8s.6-.6 1.2-.6.6 0 1.2.6l4 4c.6.6.6 1.2.6 1.7s-.6 1.2-1.2 1.2-1.2 0-1.2-.6l-4.6-4c-.6-.6-.6-1.7 0-2.3z" fill="url(#e)"/></svg>