<svg version="1.1" id="图层_1" xmlns="http://www.w3.org/2000/svg" x="0" y="0" width="72.6" height="56.1" xml:space="preserve"><style>.st0{fill:#fff}</style><path class="st0" d="M43.1 30.2c-1.9 0-3.3.6-4.4 1.9-1 1.2-1.5 2.8-1.5 4.9 0 2.1.5 3.7 1.5 4.9 1 1.2 2.5 1.9 4.4 1.9 1.9 0 3.3-.6 4.3-1.8 1-1.2 1.5-2.8 1.5-5 0-2.1-.5-3.8-1.5-5-.9-1.2-2.4-1.8-4.3-1.8z"/><path class="st0" d="M54.2 18.8C51.7 10 43.6 3.6 34 3.6c-11 0-20.1 8.5-21 19.3-7.5 1.7-13 8.4-13 16.4 0 9.3 7.5 16.9 16.9 16.9h37.3c10.2-.1 18.4-8.4 18.4-18.6 0-10.3-8.2-18.6-18.4-18.8zM29.5 44.7c-1.4 1.1-3.1 1.7-5 1.7-3 0-5.3-1-6.7-2.8-1.3-1.6-1.9-3.8-1.9-6.5s.7-4.9 2-6.6c1.5-1.9 3.7-2.9 6.6-2.9 2.1 0 3.9.6 5.3 1.7 1.3 1.1 2.1 2.5 2.4 4.4h-2.9c-.3-1.2-.9-2.1-1.7-2.6-.8-.6-1.9-.8-3.1-.8-1.9 0-3.3.6-4.3 2-.9 1.2-1.3 2.8-1.3 4.9 0 2.1.4 3.8 1.3 4.9.9 1.2 2.4 1.9 4.4 1.9 1.3 0 2.4-.3 3.2-.9.9-.7 1.5-1.7 1.8-3.1h2.9c-.6 1.9-1.5 3.5-3 4.7zm20.2-1c-1.6 1.8-3.8 2.7-6.5 2.7-2.8 0-5-.9-6.5-2.7-1.5-1.7-2.3-4-2.3-6.7 0-2.8.7-5 2.3-6.7 1.6-1.8 3.8-2.7 6.5-2.7 2.8 0 4.9.9 6.5 2.7 1.5 1.7 2.3 4 2.3 6.7 0 2.8-.8 5-2.3 6.7zm11.7 1.8h-7.1c0-1 .3-1.9 1-2.7.4-.4 1.2-1.1 2.3-1.9.7-.5 1.1-.8 1.4-1.1.4-.5.7-1 .7-1.6 0-.6-.2-1-.4-1.2-.3-.3-.7-.4-1.3-.4-.6 0-1.1.2-1.4.6-.3.4-.5 1-.5 1.8h-1.7c0-1.1.3-2.1 1-2.8.7-.7 1.6-1.1 2.7-1.1 1 0 1.8.3 2.4.9.6.6.9 1.3.9 2.2 0 .9-.3 1.7-1 2.4-.4.4-1.1 1-2.1 1.6-1 .7-1.7 1.3-1.9 1.8h5v1.5z"/><path class="st0" d="M57.7 15.4c4.1.1 7.9 1.5 11 3.8 2.2-1.2 3.7-3.5 3.7-6.2 0-3.9-3.1-7.1-7-7.1-1-3.4-4.1-5.8-7.7-5.8-3.2 0-5.9 1.9-7.2 4.5 3.3 2.6 5.9 6.4 7.2 10.8z"/></svg>