<svg version="1.1" id="图层_1" xmlns="http://www.w3.org/2000/svg" x="0" y="0" width="56.5" height="56.5" xml:space="preserve"><style>.st0{fill:#fff}</style><path class="st0" d="M28.2 14.1c-7.8 0-14.2 6.3-14.2 14.2 0 7.8 6.3 14.2 14.2 14.2 7.8 0 14.2-6.3 14.2-14.2 0-7.9-6.3-14.2-14.2-14.2zM28.2 44.9c-1.3 0-2.3 1-2.3 2.3v7.1c0 1.3 1 2.3 2.3 2.3 1.3 0 2.3-1 2.3-2.3v-7.1c0-1.3-1-2.3-2.3-2.3zM28.2 0C27 0 26 1 26 2.3v7.1c0 1.3 1 2.3 2.3 2.3 1.3 0 2.3-1 2.3-2.3V2.3C30.5 1 29.5 0 28.2 0zM40 16.5c.9.9 2.3.9 3.2 0l5-5c.9-.9.9-2.3 0-3.2-.9-.9-2.3-.9-3.2 0l-5 5c-.9.9-.9 2.3 0 3.2zM16.5 40c-.9-.9-2.3-.9-3.2 0l-5 5c-.9.9-.9 2.3 0 3.2.9.9 2.3.9 3.2 0l5-5c.9-.9.9-2.3 0-3.2zM54.2 26h-7.1c-1.3 0-2.3 1-2.3 2.3 0 1.3 1 2.3 2.3 2.3h7.1c1.3 0 2.3-1 2.3-2.3 0-1.3-1-2.3-2.3-2.3zM11.6 28.2c0-1.3-1-2.3-2.3-2.3h-7C1 26 0 27 0 28.2c0 1.3 1 2.3 2.3 2.3h7.1c1.2 0 2.2-1 2.2-2.3zM43.2 40c-.9-.9-2.3-.9-3.2 0-.9.9-.9 2.3 0 3.2l5 5c.9.9 2.3.9 3.2 0 .9-.9.9-2.3 0-3.2l-5-5zM13.3 16.5c.9.9 2.3.9 3.2 0 .9-.9.9-2.3 0-3.2l-5-5c-.9-.9-2.3-.9-3.2 0-.9.9-.9 2.3 0 3.2l5 5z"/></svg>