<svg version="1.1" id="图层_1" xmlns="http://www.w3.org/2000/svg" x="0" y="0" width="54.1" height="47.4" xml:space="preserve"><style>.st0{fill:#fff}</style><path class="st0" d="M45.6.2c-1.2-.6-1.9.3-7.3 2.3-7.1 2.9-23.6.8-29.8 10.1C4.6 18.4 3.9 23.1 4 25.8c1.5-2.1 4.5-5.9 6.6-7.4 2.9-2.2 9.2-6.3 14.3-7.9 5.1-1.6 4.8-1.4 5.1-.9.7 1.4-1.3.8-9.1 5.1s-11.7 7.8-17 14.7L0 36.1l1.1.6s.9-1.5 2.3-3.9l.1-.1c7.3-8 15-4.9 23-6.5 8-1.5 11.5-4.4 15.5-10.3 3.9-5.7 5.1-15 3.6-15.7zm0 0M9.1 35.4h3.7c2.6 0 4.6.9 4.6 3.6 0 2.6-1.9 3.8-4.5 3.8h-1.7v4.3H9.1V35.4zm3.6 5.8c1.8 0 2.6-.7 2.6-2.1 0-1.5-.9-2-2.7-2h-1.4v4.1h1.5zM19.6 35.4H22l2.1 5.8c.3.7.5 1.5.8 2.3h.1c.3-.8.5-1.6.7-2.3l2-5.8H30v11.8h-1.9v-5.4c0-1.1.2-2.7.3-3.7h-.1l-1 2.7-1.9 5.3h-1.2l-1.9-5.3-1-2.8h-.1c.1 1.1.3 2.7.3 3.7v5.4h-1.9V35.4zM32.2 46c3.2-3.1 5.2-5.1 5.2-6.8 0-1.2-.7-2-1.9-2-.9 0-1.6.6-2.2 1.3l-1.2-1.1c1-1.1 2.1-1.8 3.7-1.8 2.2 0 3.6 1.4 3.6 3.5 0 2-1.9 4.1-4.2 6.5.6-.1 1.4-.1 1.9-.1h2.8v1.8h-7.7V46zM41.9 46c0-.8.6-1.4 1.3-1.4s1.3.6 1.3 1.4c0 .8-.6 1.4-1.3 1.4s-1.3-.6-1.3-1.4zM46.1 45.8l1-1.3c.7.7 1.5 1.2 2.7 1.2 1.3 0 2.2-.8 2.2-2.2 0-1.4-.8-2.1-2.1-2.1-.7 0-1.1.2-1.8.6l-1-.6.3-5.7h6.1v1.8h-4.3l-.2 2.8c.5-.2.9-.4 1.5-.4 2 0 3.6 1.1 3.6 3.6s-1.9 3.9-4 3.9c-1.9 0-3.1-.8-4-1.6z"/></svg>