<svg version="1.1" id="图层_1" xmlns="http://www.w3.org/2000/svg" x="0" y="0" width="61.7" height="80.5" xml:space="preserve"><style>.st0{fill:#fff}</style><path class="st0" d="M51.3 63.3c-.4 0-.8-.1-1.1-.4-.6-.6-.6-1.5 0-2.1 11.3-11.3 11.3-29.8 0-41.1-.6-.6-.6-1.5 0-2.1s1.5-.6 2.1 0c12.5 12.5 12.5 32.8 0 45.3-.2.3-.6.4-1 .4z"/><path class="st0" d="M43.7 56.9c-.4 0-.8-.1-1.1-.4-.6-.6-.6-1.5 0-2.1 3.8-3.8 5.8-8.8 5.8-14.1 0-5.3-2.1-10.3-5.8-14.1-.6-.6-.6-1.5 0-2.1s1.5-.6 2.1 0c4.3 4.3 6.7 10.1 6.7 16.2S49 52.2 44.7 56.5c-.2.2-.6.4-1 .4z"/><path class="st0" d="M36.4 49.2c-.4 0-.8-.1-1.1-.4-.6-.6-.6-1.5 0-2.1 3.5-3.5 3.5-9.3 0-12.8-.6-.6-.6-1.5 0-2.1s1.5-.6 2.1 0c4.7 4.7 4.7 12.3 0 17-.2.2-.6.4-1 .4z"/><g><path class="st0" d="M14.3 18c5 0 9-4 9-9s-4-9-9-9-9 4-9 9 4 9 9 9zM21.9 23H6.7c-1.7-.1-3.4.5-4.6 1.7-1.2 1.1-2 2.7-2.1 4.4v17.6c.1 3.2 2.7 5.8 5.9 6.1l.7.1v26.6c0 .6.4 1 1 1h13.3c.6 0 1-.4 1-1V52.7l.7-.1c3.2-.2 5.8-2.8 5.9-6V29.1c.1-3.4-2.9-6.1-6.6-6.1z"/></g></svg>