<svg xmlns="http://www.w3.org/2000/svg" width="30" height="76.5"><path d="M23 48.8v-7h-6.5c-.8 0-1.5-.7-1.5-1.5s.7-1.5 1.5-1.5H23V33h-6.5c-.8 0-1.5-.7-1.5-1.5s.7-1.5 1.5-1.5H23v-5.9h-6.5c-.8 0-1.5-.7-1.5-1.5s.7-1.5 1.5-1.5H23v-5.9h-6.5c-.8 0-1.5-.7-1.5-1.5s.7-1.5 1.5-1.5H23V8c0-4.4-3.6-8-8-8S7 3.6 7 8v40.8c-4.2 2.7-7 7.3-7 12.7 0 8.3 6.7 15 15 15s15-6.7 15-15c0-5.3-2.8-10-7-12.7zm-9.3 22.5c-4.8 0-8.8-3.9-8.8-8.8 0-.8.7-1.5 1.5-1.5s1.5.7 1.5 1.5c0 3.2 2.6 5.8 5.8 5.8.8 0 1.5.7 1.5 1.5s-.6 1.5-1.5 1.5z" fill="#fff"/></svg>