<svg version="1.1" id="图层_1" xmlns="http://www.w3.org/2000/svg" x="0" y="0" width="40" height="57" xml:space="preserve"><style>.st0{fill:#d6d7d7}.st1{opacity:.4;fill:#5d5e5f}.st6{fill:#0058b0}</style><path class="st0" d="M12 22h16v14H12z"/><path class="st0" d="M18 22h4v9h-4z"/><path class="st1" d="M18 22h4v9h-4zM12 22h2v9h-2zM26 22h2v9h-2z"/><path class="st0" d="M4 32h32v20H4z"/><path opacity=".2" fill="#5d5e5f" d="M4 32h32v20H4z"/><path class="st0" d="M0 27h4v30H0zM36 27h4v30h-4z"/><circle class="st0" cx="20" cy="42" r="14"/><circle class="st1" cx="20" cy="42" r="14"/><circle cx="20" cy="42" r="10" fill="#fff"/><path class="st0" d="M16 16h8v6h-8z"/><path d="M30 42c0 5.5-4.5 10-10 10s-10-4.5-10-10" fill="green"/><g><path d="M15.9 46.3v-8.6h1.7l2 6.1c.2.6.3 1 .4 1.3.1-.3.3-.8.5-1.4l2.1-6h1.5v8.6H23v-7.2l-2.5 7.2h-1L17 39v7.3h-1.1z" fill="#0072ce"/></g><g><path class="st6" d="M20 0C12.8 0 7 3.6 7 8s5.8 8 13 8 13-3.6 13-8-5.8-8-13-8zm0 14c-5.4 0-9.8-2.7-9.8-6s4.4-6 9.8-6 9.8 2.7 9.8 6-4.4 6-9.8 6z"/><path class="st6" d="M19 1h2v7h-2z"/><path transform="rotate(115.766 24.5 9.246)" class="st6" d="M23.5 4h2v10.4h-2z"/><path transform="rotate(64.234 15.5 9.244)" class="st6" d="M14.5 4h2v10.4h-2z"/></g></svg>