<svg version="1.1" id="图层_1" xmlns="http://www.w3.org/2000/svg" x="0" y="0" width="287" height="220" xml:space="preserve"><style>.st2{fill:#adadad}.st3{fill:#747577}</style><path d="M0 2.9v164.7h287V2.9H0z" fill="#eaeaea"/><path d="M0 2.9h287V56H53.7zM287 166v53H53.6L0 166z" fill="#e5e5e5"/><path class="st2" d="M0 164h287v3H0z"/><path class="st3" d="M53.5 53H287v3H53.5zm0 164H287v3H53.5z"/><path class="st2" d="M0 0h286.9v3H0z"/><path class="st3" d="M3 6.3L52.7 56h1l1.1-2.1L3 2.1V0H0v167.3L52.7 220h1l1.1-2.1L3 166.1z"/></svg>