<svg version="1.1" id="图层_1" xmlns="http://www.w3.org/2000/svg" x="0" y="0" width="322" height="424" xml:space="preserve"><style>.st0{fill:#eaeaea}.st1{fill:#e5e5e5}.st2{fill:#adadad}.st3{fill:#747577}</style><path class="st0" d="M161 94v81h64l-24-73z"/><path class="st1" d="M220 105h102v52H220zM219 0v156l-55-52V0z"/><path transform="matrix(0 -1 1 0 2 477)" class="st0" d="M159 155h161v165H159z"/><path transform="rotate(-90 107 212)" class="st0" d="M-105 152h424v120h-424z"/><path class="st1" d="M2 0h53v424H2z"/><path class="st2" d="M0 0h3v424H0z"/><path class="st3" d="M53 0h3v424h-3z"/><path class="st1" d="M219.8 304h-54.1l-.7.8V424h54.8z"/><path class="st1" d="M165 266h157v53.4H165z"/><path fill="#f9f9f9" d="M217.6 320.8l2.1-2.2-1.8-1.7-52.1-51.3-2.1 2.1z"/><path class="st2" d="M167.8 321zm0 0z"/><path class="st3" d="M220 319h102v3H220z"/><path class="st2" d="M167 266h155v3H167z"/><path class="st3" d="M220 320.7V319h-3v105h3z"/><path class="st2" d="M167 268.5V266h-3v158h3zM217.6 156.8l2.1-2.2-1.8-1.7-52.1-51.3-2.1 2.1z"/><path transform="rotate(-90 218.5 79)" class="st3" d="M139.5 77.5h158v3h-158z"/><path class="st2" d="M220 102h102v3H220z"/><path transform="rotate(-90 165.5 52.5)" class="st2" d="M113 51h105v3H113z"/><path class="st3" d="M217 155h105v3H217z"/></svg>