<svg version="1.1" id="图层_1" xmlns="http://www.w3.org/2000/svg" x="0" y="0" width="220" height="260" xml:space="preserve"><style>.st3{fill:#747577}</style><path d="M2.8 259.8H167V0H2.8v259.8z" fill="#eaeaea"/><path d="M0 259.8V0l53.6 53.6v206.2zM166.5 0L220 53.6v206.2h-53.5z" fill="#e5e5e5"/><path d="M0 0h3v259.8H0zm164 0h3v259.8h-3z" fill="#adadad"/><path class="st3" d="M53 51h3v208.8h-3zM0 0h167v3H0z"/><path class="st3" d="M2.4.2l53.3 51.4-2.1 2.2L.3 2.4zM217 51h3v209h-3z"/><path class="st3" d="M167.2 0h-1.5l-1.4 1.4 53.3 51.4L220 51z"/></svg>