<svg version="1.1" id="图层_1" xmlns="http://www.w3.org/2000/svg" x="0" y="0" width="322" height="322" xml:space="preserve"><style>.st1{fill:#e5e5e5}.st2{fill:#adadad}.st3{fill:#747577}</style><path fill="#eaeaea" d="M322 268V156H220V0H54v268z"/><path class="st1" d="M55.7 320v-.7l.7.7H322v-51.6H2zM166 104l52 51h2.4v.3l.7.7H322v-52.3H220.4v.3z"/><path class="st2" d="M220.4 155.7zm0 0z"/><path class="st3" d="M2.1 266.7zM166.8 102z"/><path class="st1" d="M2 0v268l52.1 53V0z"/><path transform="rotate(-180 188.5 267.5)" class="st2" d="M55 266h267v3H55z"/><path transform="rotate(90 269.5 156.5)" class="st3" d="M268 104h3v105h-3z"/><path transform="rotate(90 271 103.5)" class="st2" d="M269.5 52.5h3v102h-3z"/><path transform="rotate(-180 188.5 320.5)" class="st3" d="M55 319h267v3H55z"/><path transform="rotate(-134.999 27.743 294.259)" class="st2" d="M-9.7 292.8h75v3h-75z"/><path transform="rotate(-90 1.5 134.5)" class="st2" d="M-133 133h269v3h-269z"/><path class="st3" d="M54.5 322H56V0h-3v322z"/><path class="st1" d="M166 0v104l52.8 53V0z"/><path transform="rotate(-180 165.5 52.5)" class="st2" d="M164 0h3v105h-3z"/><path transform="rotate(134.999 191.501 130.5)" class="st2" d="M190 93h3v75h-3z"/><path class="st3" d="M217 0h3v158h-3z"/></svg>