<svg version="1.1" id="图层_1" xmlns="http://www.w3.org/2000/svg" x="0" y="0" width="322" height="322" xml:space="preserve"><style>.st1{fill:#e5e5e5}.st2{fill:#adadad}.st3{fill:#747577}</style><path fill="#eaeaea" d="M.2 54v112h102v156h166V54z"/><path class="st1" d="M103.4 218h52.8v104h-52.8zm163-216v.7l-.6-.7H.2v51.6h320z"/><path class="st1" d="M156.2 218l-52-51h-2.5v-.3l-.6-.7H.2v52.3h101.5v-.3z"/><path class="st2" d="M101.7 166.3zm0 0zm.5 53.3h3V322h-3z"/><path class="st3" d="M320.1 55.3zM155.4 220z"/><path transform="rotate(43.623 293.416 27.739)" class="st2" d="M255.2 26.2h76.4v3h-76.4z"/><path class="st1" d="M268.1 54h52.1v268h-52.1z"/><path transform="rotate(90 320.667 187.5)" class="st3" d="M186.2 186h269v3h-269z"/><path class="st2" d="M267.7 55h-1.5v267h3V55z"/><path class="st3" d="M.2 53h319v3H.2zm155 164h3v105h-3z"/><path transform="rotate(-90 52.667 165.5)" class="st2" d="M51.2 113h3v105h-3z"/><path transform="rotate(-45.001 130.665 191.502)" class="st2" d="M129.2 154h3v75h-3z"/><path transform="rotate(-90 79.167 218.5)" class="st3" d="M77.7 139.5h3v158h-3z"/><path class="st2" d="M.2 0h267v3H.2z"/></svg>