<svg version="1.1" id="图层_1" xmlns="http://www.w3.org/2000/svg" x="0" y="0" width="37.8" height="40.3" xml:space="preserve"><style>.st0{fill:#fff}</style><path class="st0" d="M14.5 34.5h8.7c.7 0 1.3.6 1.3 1.3 0 .7-.6 1.3-1.3 1.3h-8.7c-.7 0-1.3-.6-1.3-1.3 0-.8.6-1.3 1.3-1.3zm0 0M15.9 37.9h5.8c.5 0 .9.5.9 1.2s-.4 1.2-.9 1.2h-5.8c-.5 0-.9-.5-.9-1.2.1-.6.5-1.2.9-1.2zm0 0M13.1 30.7v1.8c0 .5.4 1 1 1h9.6c.5 0 1-.4 1-1v-1.8c3.9-2.1 6.4-6.3 6.4-10.7 0-6.7-5.5-12.2-12.2-12.2-6.7 0-12.2 5.4-12.2 12.2 0 4.4 2.5 8.6 6.4 10.7zM22.8 12c.2-.3.5-.4.8-.4.2 0 .4.1.5.2 2.7 1.9 4.3 4.9 4.3 8.2 0 .4 0 .7-.1 1.1-.1.5-.5.9-1.1.8-.5-.1-.9-.5-.8-1.1v-.9c0-2.7-1.3-5.2-3.5-6.7-.3-.1-.4-.7-.1-1.2zM18.7 0c.7 0 1.3.6 1.3 1.3v1.6c0 .7-.6 1.3-1.3 1.3-.7 0-1.3-.6-1.3-1.3V1.3c0-.7.6-1.3 1.3-1.3zM31.6 4.8c.5.5.5 1.3 0 1.8l-1.2 1.2c-.5.5-1.3.5-1.8 0s-.5-1.3 0-1.8l1.2-1.2c.5-.5 1.3-.5 1.8 0zM6.3 4.8c.5-.5 1.3-.5 1.8 0L9.3 6c.5.5.5 1.3 0 1.8s-1.3.5-1.8 0L6.3 6.6c-.5-.5-.5-1.3 0-1.8zM.1 14.1c.2-.6.9-1.1 1.6-.9l1.6.4c.7.2 1.1.9.9 1.6-.2.7-.9 1.1-1.6.9L1 15.7c-.7-.2-1.1-.9-.9-1.6zM0 25.4c-.2-.7.3-1.4 1-1.6l1.6-.4c.7-.2 1.4.3 1.6 1 .2.7-.3 1.4-1 1.6l-1.6.4c-.7.2-1.4-.3-1.6-1zM5.3 33.9c-.4-.6-.2-1.4.4-1.8l1.4-.9c.6-.4 1.4-.2 1.8.4.4.6.2 1.4-.4 1.8l-1.4.9c-.6.4-1.4.2-1.8-.4zM32.5 33.9c-.4.6-1.2.8-1.8.4l-1.4-.9c-.6-.4-.8-1.2-.4-1.8.4-.6 1.2-.8 1.8-.4l1.4.9c.6.4.8 1.2.4 1.8zM37.7 25.4c-.2.7-.9 1.1-1.6 1l-1.6-.4c-.7-.2-1.1-.9-1-1.6.2-.7.9-1.1 1.6-1l1.6.4c.7.3 1.2 1 1 1.6zM37.7 14.1c.2.7-.2 1.4-.9 1.6l-1.6.4c-.7.2-1.4-.2-1.6-.9-.2-.7.2-1.4.9-1.6l1.6-.4c.7-.2 1.5.3 1.6.9z"/></svg>