<svg version="1.1" id="图层_1" xmlns="http://www.w3.org/2000/svg" x="0" y="0" width="36.5" height="40" xml:space="preserve"><style>.st0{fill:#fff}</style><path class="st0" d="M13.6 33.7H23c.8 0 1.4.6 1.4 1.4 0 .8-.6 1.4-1.4 1.4h-9.4c-.8 0-1.4-.6-1.4-1.4 0-.8.6-1.4 1.4-1.4zm0 0M15.1 37.4h6.2c.5 0 .9.6.9 1.3 0 .7-.4 1.3-.9 1.3h-6.2c-.5 0-.9-.6-.9-1.3 0-.7.4-1.3.9-1.3zm0 0M18.3 4.9C11.1 4.9 5.2 10.8 5.2 18c0 4.8 2.7 9.3 6.9 11.6v1.9c0 .6.5 1 1 1h10.3c.6 0 1-.5 1-1v-1.9c4.2-2.3 6.9-6.7 6.9-11.6.2-7.2-5.7-13.1-13-13.1z"/><path class="st0" d="M12.9 15.8c-.1.2-.1.4-.2.6l-.9 2.6h2l-.9-2.6c.1-.1.1-.3 0-.6zM4.5 9.5c-.3 0-.5-.1-.7-.3-.6-.3-.7-1.1-.3-1.6C6.9 2.8 12.4 0 18.3 0 23.8 0 29 2.5 32.5 6.8c.4.5.3 1.3-.2 1.7-.5.4-1.3.3-1.7-.2-3-3.7-7.5-5.9-12.3-5.9-5 0-9.8 2.5-12.8 6.6-.3.3-.7.5-1 .5zM30.4 31.4c-.3 0-.6-.1-.8-.3-.5-.5-.5-1.2 0-1.7 2.9-3 4.5-6.9 4.5-11.1 0-2.1-.4-4.2-1.2-6.2-.3-.6 0-1.3.6-1.6.6-.3 1.3 0 1.6.6 1 2.2 1.4 4.6 1.4 7.1 0 4.8-1.9 9.4-5.2 12.8-.3.3-.6.4-.9.4zM6.1 31.4c-.3 0-.6-.1-.9-.4C1.9 27.6 0 23.1 0 18.3c0-2.1.4-4.2 1.1-6.2.2-.6.9-1 1.5-.7.6.2 1 .9.7 1.5-.6 1.8-1 3.6-1 5.4 0 4.2 1.6 8.1 4.5 11.1.5.5.5 1.2 0 1.7-.1.2-.4.3-.7.3z"/></svg>