<svg version="1.1" id="图层_1" xmlns="http://www.w3.org/2000/svg" x="0" y="0" width="39.2" height="40" xml:space="preserve"><style>.st0{fill:#fff}</style><path class="st0" d="M9.5 25c4 .9 7.5-2.6 6.7-6.7-.5-2-2.1-3.7-4.1-4.1-4-.9-7.5 2.6-6.7 6.7.4 2 2.1 3.6 4.1 4.1zM22.9 18.3c-.9 4 2.6 7.5 6.7 6.7 2-.5 3.7-2.1 4.1-4.1.9-4-2.6-7.5-6.7-6.7-2 .4-3.7 2.1-4.1 4.1z"/><ellipse transform="rotate(-45.001 19.502 5.528)" class="st0" cx="19.5" cy="5.5" rx="5.6" ry="5.5"/><path class="st0" d="M23.1 15.2c.8-.9 1.9-1.7 3.1-2-.8-.8-1.9-1.3-3.1-1.3v3.3zM15.9 15.2v-3.4c-1.2 0-2.3.5-3.1 1.3 1.2.4 2.2 1.1 3.1 2.1zM14.8 25c1.5.5 2.9 1.4 3.8 2.4 0 .1.1.1.1.2l.8.7.8-.7c0-.1.1-.1.1-.2.8-1 2.3-1.9 3.8-2.4-1.6-1.2-2.7-3.2-2.7-5.4 0-.5 0-.9.1-1.4l-.8 1.2-1-4.7 1.2-1.2-1.6-1.6-1.6 1.6 1.2 1.2-1 4.7-.8-1.2c.1.4.1.9.1 1.4.2 2.2-.9 4.1-2.5 5.4z"/><path class="st0" d="M35.2 38.2c1.2 0 2.9-.1 3.7-1.5.6-1 .1-2.2-.5-3-.3-.4-2.3-4.1-3.2-5.5-.9-1.4-3.2-2.3-4.9-2.3h-4c-1.7 0-4 1.1-5 2.4H26c1.1 0 2 .4 2 1.6l.2 7.6c0 .3-.1.5-.2.8h-1.9c.4 0 .8-.4.8-.8l-.2-7.6c0-.4-.4-.8-.8-.8H13c-.4 0-.8.4-.8.8l.2 7.6c0 .4.4.8.8.8h-1.9c-.1-.2-.2-.5-.2-.8l-.1-7.7c0-1.1.9-1.6 2-1.6h4.7c-1-1.3-3.3-2.4-5-2.4h-4c-1.6 0-4 .9-4.9 2.3-.9 1.4-2.6 5.1-2.9 5.5-.5.8-1 2-.5 3 .9 1.4 2.6 1.5 3.8 1.6H.9c-.5 0-.9.4-.9.9s.4.9.9.9h37.3c.5 0 .9-.4.9-.9s-.4-.9-.9-.9h-3z"/></svg>