<svg version="1.1" id="图层_1" xmlns="http://www.w3.org/2000/svg" x="0" y="0" width="38.1" height="40" xml:space="preserve"><style>.st0{fill:#fff}</style><path class="st0" d="M18.9 0c.7 0 1.3.6 1.3 1.3v2.6c0 .7-.6 1.3-1.3 1.3-.7 0-1.3-.6-1.3-1.3V1.3c0-.7.5-1.3 1.3-1.3zm10.2 2.3c.2 0 .4.1.6.2.6.4.8 1.2.5 1.8l-1.5 2.6c-.4.6-1.2.8-1.8.5-.6-.4-.8-1.2-.5-1.8L28 3c.3-.4.7-.7 1.1-.7zm7.7 7.4c.5 0 .9.2 1.1.6.4.6.1 1.4-.5 1.8l-2.6 1.5c-.6.4-1.4.1-1.8-.5-.4-.6-.1-1.4.5-1.8l2.6-1.5c.2-.1.5-.1.7-.1zm-28.1-7c.5 0 .9.2 1.1.6L11.3 6c.4.6.1 1.4-.5 1.8-.6.3-1.4.1-1.8-.5L7.5 4.6c-.3-.6-.1-1.4.5-1.7.2-.1.4-.2.7-.2zm-7.4 7.6c.2 0 .4.1.6.2L4.6 12c.6.4.8 1.2.5 1.8-.4.6-1.2.8-1.8.5L.7 12.8C0 12.4-.2 11.6.2 11c.2-.4.6-.7 1.1-.7zm0 0M14.6 34.1h8.7c.7 0 1.3.6 1.3 1.3 0 .7-.6 1.3-1.3 1.3h-8.7c-.7 0-1.3-.6-1.3-1.3 0-.7.6-1.3 1.3-1.3zm0 0M16.1 37.6h5.8c.5 0 .9.5.9 1.2s-.4 1.2-.9 1.2h-5.8c-.5 0-.9-.5-.9-1.2s.4-1.2.9-1.2zm0 0M13.3 30.4v1.8c0 .5.4 1 1 1h9.6c.5 0 1-.4 1-1v-1.8c3.9-2.1 6.4-6.3 6.4-10.7 0-6.7-5.5-12.2-12.2-12.2-6.7 0-12.2 5.5-12.2 12.2-.1 4.4 2.5 8.6 6.4 10.7zm9.6-18.7c.2-.3.5-.4.8-.4.2 0 .4.1.5.2 2.7 1.9 4.3 4.9 4.3 8.2 0 .4 0 .7-.1 1.1-.1.5-.5.9-1.1.8-.5-.1-.9-.5-.8-1.1v-.9c0-2.7-1.3-5.2-3.5-6.7-.3-.2-.4-.8-.1-1.2z"/><path class="st0" d="M20.1 22.1c0-.2.1-.3.1-.5l.7-2h-1.6l.7 2c0 .1 0 .2.1.5zm0 0"/></svg>