<svg xmlns="http://www.w3.org/2000/svg" width="37.2" height="38.5"><path d="M33.5 38.5c-1.8 0-3.2-1.7-3.2-3.7V15.1c0-2.2.1-4.9.3-8.1h-.2c-.4 2.5-.8 4.1-1 4.9L22 36.1c-.5 1.5-1.7 2.5-3 2.5h-1.2c-1.3 0-2.5-1-3-2.4l-7.5-24c-.2-.6-.5-2.4-1-5.2h-.2c.2 3.2.3 6.5.3 9.7v18.1c0 2-1.4 3.7-3.2 3.7-1.8 0-3.2-1.7-3.2-3.7V3.7C0 1.7 1.4 0 3.2 0H8c1.3 0 2.5 1 3 2.5l6.4 20.8c.6 1.9 1 3.7 1.2 5.4h.2c.4-2.1.9-3.9 1.4-5.5l6.4-20.8C27 1 28.2 0 29.5 0h4.6c1.8 0 3.2 1.7 3.2 3.7v31.1c0 2-1.4 3.7-3.2 3.7h-.6z" fill="#fff"/></svg>