<svg version="1.1" id="图层_1" xmlns="http://www.w3.org/2000/svg" x="0" y="0" width="38.4" height="39.9" xml:space="preserve"><style>.st0{fill:#fff}</style><path class="st0" d="M37 0H11.9c-.8 0-1.4.7-1.4 1.4v7.2l3.6 2.5V3.8h16.5L24.2 7c-.4.2-.7.7-.7 1.2v21h-9.4v-5l-3.6 2.5v4.9c0 .8.6 1.4 1.4 1.4h11.6v5.4c0 .5.3 1 .7 1.2.2.1.5.2.7.2.2 0 .5-.1.7-.2L37.4 33c.6-.2 1-.7 1-1.4V1.4C38.5.6 37.8 0 37 0z"/><path class="st0" d="M19.1 15.7H9.6V12c0-.3-.2-.6-.5-.7-.1-.1-.2-.1-.4-.1s-.4 0-.5.2L.4 17c-.3.2-.4.4-.4.7 0 .3.1.5.3.7l7.8 5.7c.3.2.6.2.9.1.3-.1.5-.4.5-.8v-3.7h9.6v-4z"/></svg>