<svg version="1.1" id="图层_1" xmlns="http://www.w3.org/2000/svg" x="0" y="0" width="40" height="40.1" xml:space="preserve"><style>.st0{fill:#fff}</style><path class="st0" d="M32.3 13.7c-.2-.2-.6-.3-.9-.1-4.4 2.2-7.4.8-8.4.3-.9-.5-5.3-3.3-5.3-3.3l-.4.4c1.8 8.1-2.4 10.3-4.2 10.9-.4.1-.8-.1-1-.5l-3.7-8.7c-1.3-3.9 1.5-7 1.5-7l3.2-3.3c.3-.3.3-.8 0-1.1l-1-1c-.3-.3-.8-.3-1.1 0L.5 10.7c-.7.7-.7 1.9 0 2.6l3 2.9c1.2 1.2 1 2.6.9 2.9 0 0 0 .1.1.1 2.1.6 2.8 2 3 2.9.1.4.5.7 1 .6 3.1-.7 4.2 1.6 4.6 2.8.1.4.5.6.9.5 2.5-.5 3.6.9 3.6.9 1.7 1.8 1.4 3.4 1.1 4.3-.2.4 0 .8.4 1 2.4 1 2.6 3 2.6 3.8 0 .3.2.6.5.7 1 .4 1.7-.2 1.7-.2l1.4-1.4c.5-.6 0-1.9 0-1.9l-.7-.7c-.3-.3-.3-.9 0-1.2.3-.3.8-.3 1.1 0l1.4 1.3c.9.6 1.9-.2 1.9-.2s.6-.4 1.4-1.4c.8-1 0-1.9 0-1.9l-1.4-.9c-.3-.3-.3-.8 0-1.1.3-.3.8-.3 1.1 0l1.6 1.6c1.1 1.1 2.3.1 2.3.1l1.2-1.2c.8-1.2-.1-2.1-.1-2.1l-1.7-1.9c-.3-.3-.3-.8 0-1.1.3-.3.8-.3 1.2 0l1.9 2c1.1.8 1.8-.1 1.8-.1s-.1.3 1.1-.9.3-2.6.3-2.6l-7.4-7.2z"/><path class="st0" d="M9.9 12.2l2.2 5c.7 1.6 3 1.5 3.5-.2.6-2 .3-4.7.1-6.1-.1-.6.1-1.2.5-1.6.6-.6 1.5-.7 2.3-.3l5.5 3.4c2.8 1.5 5.3.4 6.7-.6.7-.5 1.7-.5 2.4.2l3 2.9c.7.7 1.9.7 2.7 0l.6-.6c.7-.7.7-1.9 0-2.6L29.1 1.4c-.7-.7-1.9-.7-2.6 0l-.2.2c-.4.4-1 .6-1.6.5l-6.7-1c-.6-.1-1.2.1-1.6.5l-5.3 5.3c-1.7 1.7-1.4 4.2-1.3 4.9.1.2.1.3.1.4zM5.3 21.5l-.1-.1c-.8-.8-2.2-.8-3 0L.5 23.1c-.3.3-.3.8 0 1.1l2 2c.3.3.8.3 1.1 0l1.7-1.7c.9-.8.9-2.1 0-3zM19.3 34.3c-.9-.9-2.4-.9-3.3 0l-2.1 2.1c-.3.3-.3.9 0 1.2l2.1 2.1c.3.3.9.3 1.2 0l2.1-2.1c1-.8 1-2.3 0-3.3zM11 24.8c-.9-.9-2.4-.9-3.4 0l-3.3 3.3c-.3.3-.3.8 0 1.2l2.2 2.2c.3.3.8.3 1.2 0l3.3-3.3c.9-1 .9-2.5 0-3.4zM16.6 28.2c-.9-.9-2.4-.9-3.4 0l-4.4 4.4c-.3.3-.3.8 0 1.2L11 36c.3.3.8.3 1.2 0l4.4-4.4c1-1 1-2.5 0-3.4z"/></svg>