<svg version="1.1" id="图层_1" xmlns="http://www.w3.org/2000/svg" x="0" y="0" width="40" height="40" xml:space="preserve"><style>.st0{fill:#fff}</style><circle transform="matrix(.9992 -.04039 .04039 .9992 -.344 .815)" class="st0" cx="20" cy="8.9" r="8.9"/><path class="st0" d="M20 19.1l-2.6 2.3 2 1.9-.3 1.3h1.8l-.3-1.3 2-1.9z"/><path class="st0" d="M33.6 38.2c1.9-.1 4.7-.2 5.9-2.2.9-1.5.1-3.2-.7-4.5-1.3-2-9.8-12.4-11-12.5h-1.9v5.5h3.6c1.3 0 2.4 1 2.4 2.2V37c0 .4-.1.7-.3 1.1h-2.1c.6 0 1.1-.5 1.1-1.1V26.8c0-.6-.5-1.1-1.1-1.1h-19c-.6 0-1.1.5-1.1 1.1v10.3c0 .6.5 1.1 1.1 1.1H8.4c-.2-.3-.3-.7-.3-1.1V26.8c0-1.2 1.1-2.2 2.4-2.2h3.6v-5.5h-1.9c-1.2.1-9.6 10.5-11 12.5-.9 1.3-1.6 3-.7 4.5 1.2 1.9 4 2.1 5.9 2.2H.9c-.5 0-.9.4-.9.9 0 .4.4.8.9.8h38.2c.5 0 .9-.4.9-.9s-.4-.9-.9-.9h-5.5z"/></svg>