<svg xmlns="http://www.w3.org/2000/svg" width="90.1" height="112.1"><path d="M87.4 85.6H2.7l5-73C7.7 5.7 13.4 0 20.4 0h49.4c6.9 0 12.6 5.7 12.6 12.6l5 73z" fill="#ea0001"/><path d="M83.8 85.6H6.3l4.6-70.4c0-6.4 5.2-11.6 11.6-11.6h45.2c6.4 0 11.6 5.2 11.6 11.6l4.5 70.4z" fill="#ff3b33"/><path d="M88.1 112.1H2c-1.1 0-2-.9-2-2V87c0-1.1.9-2 2-2h86.1c1.1 0 2 .9 2 2v23.1c0 1.1-.9 2-2 2z" fill="#6b6b6b"/><path fill="#585858" d="M0 88h90.1v21.4H0z"/><path d="M75.2 112.1H14.9c-2 0-3.5-1.6-3.5-3.5V88.5c0-2 1.6-3.5 3.5-3.5h60.3c2 0 3.5 1.6 3.5 3.5v20.1c0 1.9-1.6 3.5-3.5 3.5z" opacity=".2" fill="#fff"/><path fill="#61010f" d="M31.1 71H59v13.9H31.1z"/><linearGradient id="a" gradientUnits="userSpaceOnUse" x1="45.038" y1="71.039" x2="45.038" y2="37.201"><stop offset="0" stop-color="#fff" stop-opacity=".4"/><stop offset=".1" stop-color="#fdebd0" stop-opacity=".46"/><stop offset=".21" stop-color="#fad9a3" stop-opacity=".526"/><stop offset=".325" stop-color="#f8c97c" stop-opacity=".595"/><stop offset=".444" stop-color="#f7bc5c" stop-opacity=".666"/><stop offset=".567" stop-color="#f6b244" stop-opacity=".74"/><stop offset=".695" stop-color="#f5ab33" stop-opacity=".817"/><stop offset=".834" stop-color="#f4a628" stop-opacity=".9"/><stop offset="1" stop-color="#f4a525"/></linearGradient><path d="M59 71H31.1V51.1c0-7.7 6.2-13.9 13.9-13.9s13.9 6.2 13.9 13.9V71z" fill="url(#a)"/><circle cx="45" cy="33.8" r="29" opacity=".2" fill="#f9c291"/><path d="M45.3 8.6c-7.4 0-14 3.2-18.6 8.3 4.5-4 10.4-6.5 16.9-6.5 13.9 0 25.1 11.2 25.1 25.1 0 6.5-2.5 12.4-6.5 16.9 5.1-4.6 8.3-11.2 8.3-18.6-.1-13.9-11.3-25.2-25.2-25.2z" fill="#f79b2d"/><path d="M45 0H20.4c-7 0-12.7 5.7-12.7 12.6L2.7 85H1.4c-.8 0-1.4.6-1.4 1.4v24.3c0 .8.6 1.4 1.4 1.4H45V0z" opacity=".15"/></svg>