<svg version="1.1" id="图层_1" xmlns="http://www.w3.org/2000/svg" x="0" y="0" width="171.4" height="120.6" xml:space="preserve"><style>.st0{fill:#323435}.st3{fill:#1e1b1e}.st4{fill:#bfc0c0}.st5{fill:#808284}.st6{fill:#545558}.st7{fill:#252c31}.st12{fill:#363636}.st15{fill:#ef1925}</style><path class="st0" d="M21.2 115H18V92.1c0-2.9 2.4-5.3 5.3-5.3h45.4V90H23.3c-1.2 0-2.2 1-2.2 2.2V115z"/><path class="st0" d="M11.4 115.8H5.6v-8.9c0-3.7 3-6.7 6.7-6.7h54.9v5.8h-55c-.5 0-.8.4-.8.8v9z"/><path fill="#6d6e70" d="M159.8 114.8h-47.1V58.5l7.2-22.4 39.9.4z"/><path fill="#4c4c4e" d="M74.1 72.5h84.6v42.3H74.1z"/><path class="st3" d="M112.7 94.2h3.7v20.6h-3.7zM120.1 94.2h3.7v20.6h-3.7zM127.1 94.2h3.7v20.6h-3.7zM134.3 94.2h3.7v20.6h-3.7zM141.5 94.2h3.7v20.6h-3.7zM148.7 94.2h3.7v20.6h-3.7z"/><path class="st4" d="M29.6 55h4.8v59.8h-4.8z"/><path class="st5" d="M34.4 55h4.8v59.8h-4.8z"/><path class="st6" d="M27.6 59.8h13.2V61H27.6zM27.6 67.8h13.2V69H27.6zM27.6 75.8h13.2V77H27.6zM27.6 83.9h13.2v1.2H27.6zM27.6 91.9h13.2v1.2H27.6zM27.6 99.9h13.2v1.2H27.6zM27.6 107.9h13.2v1.2H27.6z"/><path class="st7" d="M26.5 59.8h1.2v55h-1.2zM40.8 59.8H42v55h-1.2z"/><g><path class="st4" d="M51.5 76.7h3.4v40.1h-3.4z"/><path class="st5" d="M54.9 76.7h3.4v40.1h-3.4z"/><path class="st6" d="M50.1 80.2h9.4v.9h-9.4zM50.1 86.5h9.4v.9h-9.4zM50.1 92.9h9.4v.9h-9.4zM50.1 99.3h9.4v.9h-9.4zM50.1 105.7h9.4v.9h-9.4zM50.1 112.1h9.4v.9h-9.4z"/><path class="st7" d="M49.2 80.2h.9v36.7h-.9zM59.5 80.2h.9v36.7h-.9z"/></g><g><path class="st4" d="M92.5 23.3h7.8v93.1h-7.8z"/><path class="st5" d="M100.2 23.3h7.8v93.1h-7.8z"/><path class="st6" d="M89.2 31.1h21.3V33H89.2zM89.2 45.6h21.3v1.9H89.2zM89.2 60h21.3v1.9H89.2zM89.2 74.5h21.3v1.9H89.2zM89.2 89h21.3v1.9H89.2zM89.2 103.5h21.3v1.9H89.2z"/><path class="st7" d="M87.3 31.1h1.9v85.3h-1.9zM110.6 31.1h1.9v85.3h-1.9z"/></g><path fill="#9e9fa2" d="M67.7 64v25.9H71l.4-25.9z"/><path fill="#7e7f83" d="M74.6 64h-3.2L71 89.9h3.6z"/><path fill="#a8a9ad" d="M65.1 89.9v24.9h6.3L71 89.9z"/><path fill="#575859" d="M77.2 89.9H71l.4 24.9h5.8z"/><g><path class="st12" d="M120.1 51.3h2.6v21.2h-2.6zM125 51.3h2.6v21.2H125zM130 51.3h2.6v21.2H130zM134.9 51.3h2.6v21.2h-2.6zM139.8 51.3h2.6v21.2h-2.6zM144.8 51.3h2.6v21.2h-2.6zM149.7 51.3h2.6v21.2h-2.6z"/></g><g><path fill="#7c7b86" d="M167.2 9.5h-5.3v105.3h8.4z"/><path fill="#f7fdfb" d="M157.1 9.5l-3.2 105.3h8V9.5z"/><path class="st15" d="M155.7 0h12.7v9.5h-12.7zM155.7 20.1h12.7V28h-12.7zM155.7 39.7h12.7v7.9h-12.7zM155.2 60.8H169v7.9h-13.8zM154.7 81.5h14.8v7.9h-14.8z"/></g><path fill="#151215" d="M0 113.7h171.4v6.9H0z"/></svg>