<svg version="1.1" id="图层_1" xmlns="http://www.w3.org/2000/svg" x="0" y="0" width="155.2" height="349.7" xml:space="preserve"><style>.st1{fill:#5f5f5f}.st2{fill:#717272}.st3{fill:#fcf7e9}.st8{fill:#ad5f42}.st10{fill:#c26231}</style><path fill="#d59153" d="M.1 56.5h155.1v293.2H.1z"/><path class="st1" d="M0 63.1h155.2v2H0z"/><path class="st2" d="M0 65.1h155.2v12.6H0z"/><path class="st3" d="M2.8 67.1h14.5v8.6H2.8zM22 67.1h14.5v8.6H22zM41.2 67.1h14.5v8.6H41.2zM60.4 67.1h14.5v8.6H60.4zM79.6 67.1h14.5v8.6H79.6zM99.5 67.1H114v8.6H99.5zM118.7 67.1h14.5v8.6h-14.5zM137.9 67.1h14.5v8.6h-14.5z"/><path class="st1" d="M0 81.9h155.2v2H0z"/><path class="st2" d="M0 83.8h155.2v12.6H0z"/><path class="st3" d="M2.8 85.9h14.5v8.6H2.8zM22 85.9h14.5v8.6H22zM41.2 85.9h14.5v8.6H41.2zM60.4 85.9h14.5v8.6H60.4zM79.6 85.9h14.5v8.6H79.6zM99.5 85.9H114v8.6H99.5zM118.7 85.9h14.5v8.6h-14.5zM137.9 85.9h14.5v8.6h-14.5z"/><path class="st1" d="M0 100.6h155.2v2H0z"/><path class="st2" d="M0 102.6h155.2v12.6H0z"/><path class="st3" d="M2.8 104.6h14.5v8.6H2.8zM22 104.6h14.5v8.6H22zM41.2 104.6h14.5v8.6H41.2zM60.4 104.6h14.5v8.6H60.4zM79.6 104.6h14.5v8.6H79.6zM99.5 104.6H114v8.6H99.5zM118.7 104.6h14.5v8.6h-14.5zM137.9 104.6h14.5v8.6h-14.5z"/><g><path class="st1" d="M0 119.4h155.2v2H0z"/><path class="st2" d="M0 121.4h155.2V134H0z"/><path class="st3" d="M2.8 123.4h14.5v8.6H2.8zM22 123.4h14.5v8.6H22zM41.2 123.4h14.5v8.6H41.2zM60.4 123.4h14.5v8.6H60.4zM79.6 123.4h14.5v8.6H79.6zM99.5 123.4H114v8.6H99.5zM118.7 123.4h14.5v8.6h-14.5zM137.9 123.4h14.5v8.6h-14.5z"/></g><g><path class="st1" d="M0 138.1h155.2v2H0z"/><path class="st2" d="M0 140.1h155.2v12.6H0z"/><path class="st3" d="M2.8 142.2h14.5v8.6H2.8zM22 142.2h14.5v8.6H22zM41.2 142.2h14.5v8.6H41.2zM60.4 142.2h14.5v8.6H60.4zM79.6 142.2h14.5v8.6H79.6zM99.5 142.2H114v8.6H99.5zM118.7 142.2h14.5v8.6h-14.5zM137.9 142.2h14.5v8.6h-14.5z"/></g><g><path class="st1" d="M0 156.9h155.2v2H0z"/><path class="st2" d="M0 158.9h155.2v12.6H0z"/><path class="st3" d="M2.8 160.9h14.5v8.6H2.8zM22 160.9h14.5v8.6H22zM41.2 160.9h14.5v8.6H41.2zM60.4 160.9h14.5v8.6H60.4zM79.6 160.9h14.5v8.6H79.6zM99.5 160.9H114v8.6H99.5zM118.7 160.9h14.5v8.6h-14.5zM137.9 160.9h14.5v8.6h-14.5z"/></g><g><path class="st1" d="M0 175.7h155.2v2H0z"/><path class="st2" d="M0 177.6h155.2v12.6H0z"/><path class="st3" d="M2.8 179.7h14.5v8.6H2.8zM22 179.7h14.5v8.6H22zM41.2 179.7h14.5v8.6H41.2zM60.4 179.7h14.5v8.6H60.4zM79.6 179.7h14.5v8.6H79.6zM99.5 179.7H114v8.6H99.5zM118.7 179.7h14.5v8.6h-14.5zM137.9 179.7h14.5v8.6h-14.5z"/></g><g><path class="st1" d="M0 194.4h155.2v2H0z"/><path class="st2" d="M0 196.4h155.2V209H0z"/><path class="st3" d="M2.8 198.4h14.5v8.6H2.8zM22 198.4h14.5v8.6H22zM41.2 198.4h14.5v8.6H41.2zM60.4 198.4h14.5v8.6H60.4zM79.6 198.4h14.5v8.6H79.6zM99.5 198.4H114v8.6H99.5zM118.7 198.4h14.5v8.6h-14.5zM137.9 198.4h14.5v8.6h-14.5z"/></g><g><path class="st1" d="M0 213.2h155.2v2H0z"/><path class="st2" d="M0 215.1h155.2v12.6H0z"/><path class="st3" d="M2.8 217.2h14.5v8.6H2.8zM22 217.2h14.5v8.6H22zM41.2 217.2h14.5v8.6H41.2zM60.4 217.2h14.5v8.6H60.4zM79.6 217.2h14.5v8.6H79.6zM99.5 217.2H114v8.6H99.5zM118.7 217.2h14.5v8.6h-14.5zM137.9 217.2h14.5v8.6h-14.5z"/></g><g><path class="st1" d="M0 231.9h155.2v2H0z"/><path class="st2" d="M0 233.9h155.2v12.6H0z"/><path class="st3" d="M2.8 235.9h14.5v8.6H2.8zM22 235.9h14.5v8.6H22zM41.2 235.9h14.5v8.6H41.2zM60.4 235.9h14.5v8.6H60.4zM79.6 235.9h14.5v8.6H79.6zM99.5 235.9H114v8.6H99.5zM118.7 235.9h14.5v8.6h-14.5zM137.9 235.9h14.5v8.6h-14.5z"/></g><g><path class="st1" d="M0 250.7h155.2v2H0z"/><path class="st2" d="M0 252.7h155.2v12.6H0z"/><path class="st3" d="M2.8 254.7h14.5v8.6H2.8zM22 254.7h14.5v8.6H22zM41.2 254.7h14.5v8.6H41.2zM60.4 254.7h14.5v8.6H60.4zM79.6 254.7h14.5v8.6H79.6zM99.5 254.7H114v8.6H99.5zM118.7 254.7h14.5v8.6h-14.5zM137.9 254.7h14.5v8.6h-14.5z"/></g><g><path class="st1" d="M0 269.4h155.2v2H0z"/><path class="st2" d="M0 271.4h155.2V284H0z"/><path class="st3" d="M2.8 273.5h14.5v8.6H2.8zM22 273.5h14.5v8.6H22zM41.2 273.5h14.5v8.6H41.2zM60.4 273.5h14.5v8.6H60.4zM79.6 273.5h14.5v8.6H79.6zM99.5 273.5H114v8.6H99.5zM118.7 273.5h14.5v8.6h-14.5zM137.9 273.5h14.5v8.6h-14.5z"/></g><g><path class="st1" d="M0 288.2h155.2v2H0z"/><path class="st2" d="M0 290.2h155.2v12.6H0z"/><path class="st3" d="M2.8 292.2h14.5v8.6H2.8zM22 292.2h14.5v8.6H22zM41.2 292.2h14.5v8.6H41.2zM60.4 292.2h14.5v8.6H60.4zM79.6 292.2h14.5v8.6H79.6zM99.5 292.2H114v8.6H99.5zM118.7 292.2h14.5v8.6h-14.5zM137.9 292.2h14.5v8.6h-14.5z"/></g><g><path class="st1" d="M0 307h155.2v2H0z"/><path class="st2" d="M0 308.9h155.2v12.6H0z"/><path class="st3" d="M2.8 311h14.5v8.6H2.8zM22 311h14.5v8.6H22zM41.2 311h14.5v8.6H41.2zM60.4 311h14.5v8.6H60.4zM79.6 311h14.5v8.6H79.6zM99.5 311H114v8.6H99.5zM118.7 311h14.5v8.6h-14.5zM137.9 311h14.5v8.6h-14.5z"/></g><g><path class="st1" d="M0 325.7h155.2v2H0z"/><path class="st2" d="M0 327.7h155.2v12.6H0z"/><path class="st3" d="M2.8 329.7h14.5v8.6H2.8zM22 329.7h14.5v8.6H22zM41.2 329.7h14.5v8.6H41.2zM60.4 329.7h14.5v8.6H60.4zM79.6 329.7h14.5v8.6H79.6zM99.5 329.7H114v8.6H99.5zM118.7 329.7h14.5v8.6h-14.5zM137.9 329.7h14.5v8.6h-14.5z"/></g><path class="st2" d="M0 345.4h155.2v4.1H0z"/><path opacity=".17" fill="#3178bd" d="M75 56.8h80.2v292.7H75z"/><path opacity=".05" fill="#eee93a" d="M155.2 56.2H0v191.5l155.2-102.3z"/><path opacity=".2" fill="#00436e" d="M0 247.7v101.5h155.2V145.4z"/><path opacity=".47" fill="#052b47" d="M85.9 56.2H113v293H85.9z"/><path class="st8" d="M54.4 21.5h50.5v35H54.4z"/><path fill="#e9a62b" d="M88.1 56.5H54.4v-35h25.5z"/><path class="st10" d="M56.6 25h3.8v11.9h-3.8zM63.5 25h3.8v11.9h-3.8zM56.6 40.7h3.8v11.9h-3.8zM63.5 40.7h3.8v11.9h-3.8z"/><path opacity=".86" fill="#c26231" d="M71.6 21.5h2.2v35h-2.2z"/><path class="st8" d="M63.5 0h2.2v21.5h-2.2zM85.1 15.8h9.4v5.7h-9.4zM86 6.4h1.8v9.4H86z"/></svg>