<svg version="1.1" id="图层_1" xmlns="http://www.w3.org/2000/svg" x="0" y="0" width="322" height="424" xml:space="preserve"><style>.st0{fill:#e5e5e5}.st1{fill:#eaeaea}.st2{fill:#747577}.st3{fill:#adadad}</style><path transform="rotate(90 129 372)" class="st0" d="M77 345h104v54H77z"/><path transform="rotate(90 82.5 212)" class="st1" d="M-23.5 129.5h212v165h-212z"/><path transform="rotate(90 215 212)" class="st1" d="M3 152h424v120H3z"/><path class="st0" d="M267 0h53v424h-53z"/><path class="st2" d="M319 0h3v424h-3z"/><path class="st3" d="M266 0h3v424h-3z"/><path class="st0" d="M102.2 158h54.1l.7-1V0h-54.8z"/><path class="st0" d="M0 104.6h103V158H0z"/><path class="st0" d="M102.2 158l53.8-55h-53.8z"/><path class="st3" d="M104.4 103.2l-2.1 2.2 1.8 1.7 52.1 51.3 2.1-2.1zm49.8-.2zm0 0zM0 102h102v3H0z"/><path class="st2" d="M0 155h158v3H0z"/><path class="st3" d="M102 103.3v1.7h3V0h-3z"/><path transform="rotate(90 103.5 372)" class="st3" d="M51.5 370.5h104v3h-104z"/><path class="st0" d="M0 269v50h158l-53-50z"/><path class="st2" d="M155 155.5v2.5h3V0h-3z"/><path transform="rotate(-180 52.5 267.5)" class="st3" d="M0 266h105v3H0z"/><path class="st3" d="M104.1 265.8l-2.1 2.1 1.8 1.8 52.1 51.3 2.1-2.1z"/><path transform="rotate(90 156.5 371.5)" class="st2" d="M104 370h105v3H104z"/><path class="st2" d="M0 319h158v3H0z"/></svg>