<svg version="1.1" id="图层_1" xmlns="http://www.w3.org/2000/svg" x="0" y="0" width="424" height="322" xml:space="preserve"><style>.st0{fill:#eaeaea}.st1{fill:#e5e5e5}.st2{fill:#747577}.st3{fill:#adadad}</style><path transform="rotate(-180 221 82.5)" class="st0" d="M124 0h194v165H124z"/><path transform="rotate(-180 212 215)" class="st0" d="M0 155h424v120H0z"/><path class="st1" d="M0 267h424v53H0z"/><path class="st2" d="M0 319h424v3H0z"/><path class="st3" d="M0 266h424v3H0z"/><path class="st1" d="M321 102.2v54.1l.7.7H424v-54.8zM266 0h53.4v103H266z"/><path class="st1" d="M266 102.2l55 53.8v-53.8z"/><path class="st3" d="M267.3 102.7l-2.1 2.1 1.7 1.8 52.2 51.3 2.1-2.1zm53.7 51.5zm0 0z"/><path class="st3" d="M266 0h3v105h-3zm54.7 102H319v3h105v-3z"/><path class="st1" d="M0 155h156l-1.3-1.4V0H103v102.2H0z"/><path class="st3" d="M318 155l1 3h105v-3zm-215.7-53.3l-2.1 2.1 1.7 1.8 52.2 51.3 2.1-2.1z"/><path transform="rotate(-180 51.994 103.5)" class="st3" d="M0 102h104v3H0z"/><path class="st3" d="M102 0h3v105h-3z"/><path transform="rotate(-180 78.496 156.5)" class="st2" d="M0 155h157v3H0z"/><path transform="rotate(-90 156.5 79)" class="st2" d="M77.5 77.5h158v3h-158z"/><path class="st2" d="M319 0h3v158h-3z"/></svg>