<svg version="1.1" id="图层_1" xmlns="http://www.w3.org/2000/svg" x="0" y="0" width="424" height="322" xml:space="preserve"><style>.st0{fill:#eaeaea}.st1{fill:#e5e5e5}.st2{fill:#adadad}.st3{fill:#747577}</style><path class="st0" d="M106 157h194v165H106z"/><path class="st0" d="M0 47h424v120H0z"/><path class="st1" d="M0 2h424v53H0z"/><path class="st2" d="M0 0h424v3H0z"/><path class="st3" d="M0 53h424v3H0z"/><path class="st1" d="M103 219.8v-54.1l-.7-.7H0v54.8zm1.6-.8H158v103h-53.4z"/><path class="st1" d="M158 219.8L103 166v53.8z"/><path class="st2" d="M156.7 219.3l2.1-2.1-1.7-1.8-52.2-51.3-2.1 2.1zM103 167.8zm0 0zm-1 52.2h3v102h-3z"/><path class="st3" d="M155 220h3v102h-3zm.5 0h2.5v-3H0v3zm1.1 1.4z"/><path class="st1" d="M424 167H268l1.3 1.4V322H321V219.8h103z"/><path class="st2" d="M106 167l-1-3H0v3z"/><path fill="#fff" d="M321.7 220.3l2.1-2.1-1.7-1.8-52.2-51.3-2.1 2.1z"/><path class="st3" d="M320 217h104v3H320z"/><path class="st3" d="M319 217h3v105h-3z"/><path class="st2" d="M267 164h157v3H267z"/><path transform="rotate(90 267.5 243)" class="st2" d="M188.5 241.5h158v3h-158z"/></svg>