<svg version="1.1" id="图层_1" xmlns="http://www.w3.org/2000/svg" x="0" y="0" width="286" height="220" xml:space="preserve"><style>.st0{fill:#e5e5e5}.st2{fill:#adadad}.st3{fill:#747577}</style><path class="st0" d="M231.4.3L285 53.9v164.7L231.4 165z"/><path d="M232.4 48.5H0v164.7h232.4" fill="#eaeaea"/><path class="st0" d="M286 219.2H0v-53.6h232.4z"/><path class="st2" d="M0 164h232.4v3H0z"/><path class="st0" d="M0 54.5V.9h231.6L285 54.5z"/><path class="st2" d="M0 0h233v3H0zm285 216.5c0 .6-.4 1.2-1 1.4-.2.1-.4.1-.6.1-.4 0-.8-.2-1.1-.4L230.7 167c-.6-.6-.6-1.6 0-2.2.6-.6 1.6-.6 2.2 0l49 48"/><path class="st2" d="M285 52.1c0 .6-.4 1.2-1 1.4-.2.1-.4.1-.6.1-.4 0-.8-.2-1.1-.4L230.7 2.6c-.6-.6-.6-1.6 0-2.2.6-.6 1.6-.6 2.2 0l49 48"/><path class="st3" d="M284.5 220c-.8 0-1.5-.7-1.5-1.6V54.6c0-.9.7-1.6 1.5-1.6s1.5.7 1.5 1.6v163.8c0 .9-.7 1.6-1.5 1.6z"/><path class="st3" d="M0 217h286v3H0z"/><path class="st2" d="M232.5 166c-.8 0-1.5-.5-1.5-1.1V55.1c0-.6.7-1.1 1.5-1.1s1.5.5 1.5 1.1v109.8c0 .6-.7 1.1-1.5 1.1z"/><path class="st3" d="M0 53h286v3H0z"/></svg>