<svg version="1.1" id="图层_1" xmlns="http://www.w3.org/2000/svg" x="0" y="0" width="322" height="322" xml:space="preserve"><style>.st0{fill:#e5e5e5}.st1{fill:#eaeaea}.st2{fill:#747577}.st3{fill:#adadad}</style><path transform="rotate(-180 160 293.5)" class="st0" d="M0 267h320v53H0z"/><path transform="rotate(-90 293.5 160)" class="st0" d="M133.5 133.5h320v53h-320z"/><path transform="rotate(-180 134 212.5)" class="st1" d="M0 156h268v113H0z"/><path transform="rotate(-90 211.5 134.5)" class="st1" d="M77 78h269v113H77z"/><path transform="rotate(-180 78.5 131)" class="st0" d="M0 104h157v54H0z"/><path class="st0" d="M103 151l53 .1V0h-53z"/><path class="st3" d="M103.1 102l54.4 52.4-2.1 2.2-54.4-52.4zm163 163l55.4 53.3-2.1 2.2-55.4-53.3z"/><path transform="rotate(-90 103.5 52.5)" class="st3" d="M51 51h105v3H51z"/><path transform="rotate(-90 156.5 79)" class="st2" d="M77.5 77.5h158v3h-158z"/><path transform="rotate(-90 267.5 134.5)" class="st3" d="M133 133h269v3H133z"/><path transform="rotate(-90 320.5 161)" class="st2" d="M159.5 159.5h322v3h-322z"/><path transform="rotate(-180 78.5 156.5)" class="st2" d="M0 155h157v3H0z"/><path transform="rotate(-180 51.5 103.5)" class="st3" d="M0 102h103v3H0z"/><path transform="rotate(-180 161 320.5)" class="st2" d="M0 319h322v3H0z"/><path transform="rotate(-180 134 267.5)" class="st3" d="M0 266h268v3H0z"/></svg>