<svg version="1.1" id="图层_1" xmlns="http://www.w3.org/2000/svg" x="0" y="0" width="311" height="220" xml:space="preserve"><style>.st1{fill:#e5e5e5}.st2{fill:#adadad}.st3{fill:#747577}</style><path d="M.8.3V165H311V.3H.8z" fill="#eaeaea"/><path class="st1" d="M.8.3H311v53.6H54.6zM311 165v53.6H54.6L.8 165z"/><path class="st2" d="M0 0h311v3H0zm.8 164H311v3H.8z"/><path class="st3" d="M54.5 217H311v3H54.5z"/><path class="st1" d="M54.5 218.6L.8 165V.3l53.7 53.6z"/><path class="st3" d="M54.5 53H311v3H54.5z"/><path class="st2" d="M3 6.3L52.7 56h1l1.1-2.1L3 2.1V0H0v167.3L52.7 220h1l1.1-2.1L3 166.1z"/><path class="st3" d="M54.5 220c-.9 0-1.6-.7-1.6-1.6V54.6c0-.9.7-1.6 1.6-1.6s1.6.7 1.6 1.6v163.8c0 .9-.7 1.6-1.6 1.6z"/></svg>