<svg version="1.1" id="图层_1" xmlns="http://www.w3.org/2000/svg" x="0" y="0" width="322" height="322" xml:space="preserve"><style>.st0{fill:#e5e5e5}.st1{fill:#eaeaea}.st2{fill:#747577}.st4{fill:#adadad}</style><path class="st0" d="M2 2h320v53H2z"/><path transform="rotate(90 28.5 162)" class="st0" d="M-131.5 135.5h320v53h-320z"/><path class="st1" d="M54 53h268v113H54z"/><path transform="rotate(90 110.5 187.5)" class="st1" d="M-24 131h269v113H-24z"/><path class="st0" d="M165 164h157v54H165z"/><path class="st0" d="M219 171l-53-.1V322h53z"/><path d="M218.9 220l-54.4-52.4 2.1-2.2 54.4 52.4zM55.9 57L.5 3.7l2.1-2.2L58 54.8z" fill="#fff"/><path transform="rotate(90 218.5 269.5)" class="st2" d="M166 268h105v3H166z"/><path transform="rotate(90 165.5 243)" class="st4" d="M86.5 241.5h158v3h-158z"/><path transform="rotate(90 54.5 187.5)" class="st2" d="M-80 186h269v3H-80z"/><path transform="rotate(90 1.5 161)" class="st4" d="M-159.5 159.5h322v3h-322z"/><path class="st4" d="M165 164h157v3H165z"/><path class="st2" d="M219 217h103v3H219z"/><path class="st4" d="M0 0h322v3H0z"/><path class="st2" d="M54 53h268v3H54z"/></svg>