<svg version="1.1" id="图层_1" xmlns="http://www.w3.org/2000/svg" x="0" y="0" width="256.8" height="206.1" xml:space="preserve"><style>.st2{fill:#747577}.st4{fill:#1e1b1b}.st5{fill:#adadad}.st7{fill:#6b6c6d}.st8{fill:#d6d7d7}.st10{fill:#221e1f}.st12{fill-rule:evenodd;clip-rule:evenodd;fill:#1e1b1b}.st13,.st14{fill:#868687}.st14,.st15,.st16{fill-rule:evenodd;clip-rule:evenodd}.st15{fill:#666768}.st16{fill:#bababa}.st17{fill:#fff}</style><linearGradient id="SVGID_1_" gradientUnits="userSpaceOnUse" x1="54.478" y1="68.068" x2="54.478" y2="87.392" gradientTransform="matrix(.983 -.0567 .0385 1.015 -2.97 10.6)"><stop offset="0" stop-color="#9ea0a3"/><stop offset=".266" stop-color="#87898c"/><stop offset="1" stop-color="#4c4c4e"/></linearGradient><path fill="url(#SVGID_1_)" d="M67 95.8l-26.7 1.8-.2-20.2 26.8-1.9z"/><path d="M45.1 98.9c-.7 0-1.3-.5-1.3-1.2l-.1-14.9c0-.7.6-1.3 1.3-1.4.7 0 1.3.5 1.3 1.2l.1 14.9c0 .7-.6 1.3-1.3 1.4z" fill="#444446"/><path class="st2" d="M40 100.9l-.1-10.4c0-.8.7-1.5 1.5-1.6l7.5-.5 28.5-1.3s.4 54.2 1.4 54.5c1 .2-39.4-9.5-39.4-9.5l.1-26 .5-5.2z"/><path class="st2" d="M47.6 179.5c0 .8 1 1.4 2.1 1.5L85 169.2c3.9-.7 5.3-6 5.3-6.8L88.8 106c.4-3.4-3.5-6.4-7-7.2l-14.4-3s-6.5.3-8.2 1.1c-4.1 2.1-9.8 12.4-9.8 12.4-1.2-.1-6.9.2-6.9 1l5.1 69.2zM29.5 88.6l11.3-3.2 7.4 1.4s.9 1.9.9 3.4-1.2 1.6-1.2 1.6L38 96.6l-8-3-.5-5z"/><linearGradient id="SVGID_2_" gradientUnits="userSpaceOnUse" x1="-3598.316" y1="1430.536" x2="-3589.992" y2="1430.536" gradientTransform="matrix(.0507 .3356 -.8456 .1505 1433.106 1073.997)"><stop offset="0" stop-color="#818285"/><stop offset=".052" stop-color="#7d7e81"/><stop offset=".355" stop-color="#6b6c6e"/><stop offset=".667" stop-color="#606163"/><stop offset="1" stop-color="#5c5d5f"/></linearGradient><path d="M38.1 85.1c-1.5.3-2.8 0-2.8-.5-.7-.5.1-1.5 1.6-1.8l6.9-1.6c1.5-.3 3.5.6 3.6 1.1.1.6-1.1 1.2-2.6 1.5l-6.7 1.3z" fill="url(#SVGID_2_)"/><path class="st4" d="M166.2 181.5l-74.6-18.8 20.6-5.6 75.5 17.6zm62.1-21.8l-74.6-18.8 20.7-5.7 75.5 17.6z"/><path class="st2" d="M83.9 164.2l74.5 18.8 10.3-3.2-77.5-17.6z"/><path class="st5" d="M110.2 157.2l-19 5 77.5 17.6 17-5z"/><path class="st2" d="M146 142.1l74.5 18.8 10.3-3.2-77.5-17.6z"/><path class="st5" d="M172.3 135.1l-19 5 77.5 17.6 16.9-4.9z"/><path d="M97.7 164.5c-.6 0-1.2-.4-1.3-1-.1-.7.3-1.4 1.1-1.6l6.9-1.8c.7-.2 1.4.2 1.6.9.1.7-.3 1.4-1.1 1.6l-6.9 1.8c-.1.1-.2.1-.3.1z" fill="#6c6e70"/><path class="st5" d="M160.9 61.5s-.1 0 0 0c-2.8.2-5-1.9-5-4.5 0-5.8-.1-10.4-.2-14.1-.2-5.1-.3-8.7.1-12.3.2-1.8.2-4 .2-6.2 0-3.3-.1-6.7.7-9.6 1.1-4.3 4.2-8.1 8.6-10.9 4.6-2.9 10-4.2 14.1-3.4l44.9 7.3c2.7.4 4.3 3 3.7 5.6-.7 2.7-3.4 4.5-6.1 4l-45-7.4h-.2c-1.1-.2-3.8.2-6.5 1.9-1.2.7-3.3 2.3-3.9 4.5-.4 1.7-.4 4.4-.4 7 0 2.4.1 5-.2 7.4-.3 2.8-.2 6.2-.1 10.9.1 3.8.3 8.5.2 14.4 0 2.9-2.2 5.2-4.9 5.4z"/><path class="st7" d="M160.5 61.8c-1.3 0-2.5-.5-3.4-1.3-1-.9-1.5-2.2-1.5-3.5 0-5.8-.1-10.3-.2-14-.2-5.1-.3-8.8.1-12.4.2-1.8.2-4 .2-6.1 0-3.3-.1-6.7.7-9.7 1.1-4.3 4.2-8.3 8.7-11.1C169.8.8 175.3-.6 179.4.3l44.9 7.3c1.4.2 2.5 1 3.3 2.1.8 1.1 1 2.5.6 3.9-.7 2.8-3.6 4.7-6.4 4.3l-45-7.4h-.2c-1-.2-3.7.2-6.3 1.9-1.2.7-3.2 2.3-3.7 4.4-.4 1.7-.4 4.3-.4 6.9 0 2.5.1 5-.2 7.5-.3 2.8-.2 6.2-.1 10.8.1 3.8.3 8.5.2 14.5 0 2.8-2.4 5.2-5.2 5.4v-.6c2.5-.2 4.6-2.4 4.7-4.9 0-6-.1-10.6-.2-14.4-.1-4.7-.3-8.1.1-10.9.3-2.5.3-5 .2-7.4 0-2.7-.1-5.4.4-7.1.6-2.3 2.8-3.9 4-4.7 2.8-1.7 5.6-2.2 6.8-2h.2l45 7.4c2.5.4 5.1-1.3 5.7-3.8.3-1.2.1-2.4-.6-3.4s-1.7-1.6-2.9-1.8L179.4 1c-4-.8-9.3.5-13.9 3.4-4.3 2.7-7.3 6.5-8.4 10.7-.8 3-.7 6.3-.7 9.6 0 2.1.1 4.4-.2 6.2-.4 3.5-.3 7.2-.1 12.2.1 3.7.3 8.3.2 14.1 0 1.2.5 2.3 1.3 3.1.9.8 2.1 1.2 3.3 1.2l.1.3v.3c-.3-.3-.4-.3-.5-.3z"/><path class="st4" d="M181.1 21.1c0 1.4-1.2 2.7-2.6 2.8l-4 .3c-1.5.1-2.6-1-2.6-2.4v-5.2c0-1.4 1.2-2.7 2.6-2.8l4-.3c1.5-.1 2.6 1 2.7 2.4l-.1 5.2z"/><path class="st8" d="M237.6 21.5l-7.6-2.1-31.2 6.4-13.1-1.2c.4-6.3-2.3-11.6-6.8-12.7V21c0 1.4-1.2 2.7-2.6 2.8-1.5.1-2.6-1-2.6-2.4v-9c-4.1 1.7-7.8 6.4-9.2 12.3l-.3 1.8c-11.9 1.1-25.7 2.5-32.7 3.6C107 34 35.2 48.8 35.2 48.8s-4.3 3.9-4.8 5.6c-3.4 12.1-5.6 20.2-5.6 20.2l58 18.3 4.3 73.5 161.6-48.2 2.8-60.9-13.9-35.8z"/><path class="st8" d="M83 93l4.3 73.3L249 118.1l2.7-60.9-2.5-4.1z"/><path class="st2" d="M24.7 74.4s4-15 5.6-20.2c.5-1.7 2.9-5 5.1-5.6 0 0-2 2.6 2.4 3.3l31.3 6.5 9.6 33.7-46-14.4-8-3.3z"/><path class="st8" d="M34.7 50.8s-2.7-1.6 3.1-2.9c5.8-1.3 91.4-17 91.4-17s31.3-5 44-3.7c12.8 1.3 23.3.9 23.3.9l33.1-6.1 5.5.9L68.6 57.6l-33.9-6.8z"/><path class="st2" d="M88.4 166.2l-2.6.1.8-75.2-7.5-19.6 2.5-1.1 7.7 20.1zm156.4-47.5l-.4-64.2-8.5-30.4 2.6-.8 8.6 30.6v.2l.5 64.4z"/><path class="st2" d="M87.2 167.3c-.6 0-1.2-.3-1.3-.9-.2-.7.3-1.4 1-1.6L245.4 117c.7-.2 1.5.2 1.7.9.2.7-.3 1.5-1 1.7L87.6 167.2c-.1.1-.3.1-.4.1zM227.1 20.5c0 1-.5 1.9-1.2 1.9l-6.1.5c-.6 0-1.2-.7-1.2-1.8 0-1 .5-1.9 1.2-1.9l6.1-.5c.7 0 1.2.8 1.2 1.8z"/><path class="st4" d="M226.2 17.3c0 1-.8 1.8-1.8 1.9l-2.7.2c-1 .1-1.8-.6-1.8-1.6s.8-1.8 1.8-1.9l2.7-.2c1-.1 1.8.6 1.8 1.6z"/><path class="st5" d="M177.6 19.9c0 1.1-.6 2-1.3 2-.7.1-1.3-.8-1.3-1.8 0-1.1.6-2 1.3-2 .7-.1 1.3.7 1.3 1.8zM7.7 72.8L6.5 55l5.1-13.9 2.2-1 13.7 4.5 1.9 24.9 17.3 5.1 10.1-21.5 12.5 2.5 11.5 35.3-.9 4.8z"/><path class="st2" d="M78.4 93.9h-.3L9 72.9c-.4-.1-.6-.4-.6-.8l-.3-23.9c0-.3.5-5.3 5.5-7.8 1.5-.7 13.4 2.9 13.5 3 .5.2.6.8.4 1.2-.2.5-.8.7-1.3.5-1-.3-10.5-3-12-3-3.9 2-4.3 6-4.3 6l.2 23.2 68.5 20.8c.5.1.7.7.6 1.2-.1.4-.4.6-.8.6z"/><path class="st8" d="M45.8 75.3h-.2l-16.3-5.2c-.2-.1-.4-.3-.4-.5l-2-24.9c0-.3.2-.7.6-.7.4-.1.7.2.7.5L30.1 69l16 5.1c.3.1.5.5.4.8-.2.3-.5.4-.7.4z"/><path class="st4" d="M22.3 44.3c-.7.1-1.3-.5-1.3-1.2v-3.5c0-.7.6-1.3 1.3-1.4.7-.1 1.3.5 1.3 1.2v3.5c0 .7-.5 1.3-1.3 1.4z"/><path class="st2" d="M67.9 56.2h-.2l-10.4-2.1c-.3-.1-.5-.4-.5-.8.1-.3.4-.6.8-.5L68 55c.3.1.5.4.5.8-.1.2-.3.4-.6.4z"/><path class="st4" d="M61.1 54.8c-.7.1-1.3-.5-1.3-1.2v-3.5c0-.7.6-1.3 1.3-1.4.7-.1 1.3.5 1.3 1.2v3.5c0 .7-.6 1.3-1.3 1.4z"/><path class="st5" d="M7.4 76.7L78.6 100l-.4-10.6L7.3 66.8z"/><path class="st2" d="M198.2 5.6h-.2l-20.1-3.3c-.4-.1-.6-.4-.5-.7.1-.4.4-.6.8-.5l20.1 3.3c.4.1.6.4.5.7-.1.2-.3.4-.6.5z"/><path d="M62 39.9c-2.1.2-2.9-.3-3.1-.5-.4-.3-.5-.9-.1-1.4.3-.4.9-.5 1.4-.3.1 0 .6.3 1.9.2 2-.2 80.8-15.1 122.6-23.1.6-.1 1.8-.6 2.3-1.2.2-.2.4-.4.7-.4l12.6-2.4c.6-.1 1.1.2 1.1.8 0 .2.5 2.3 3.7 2 .6 0 1 .4 1 .9 0 .6-.5 1-1 1.1-3.3.2-4.8-1.3-5.4-2.7L188.4 15c-1.1 1.2-3.1 1.7-3.3 1.7C172.4 19.2 64 39.8 62 39.9z" fill="#7a7b76"/><path class="st10" d="M42.9 45.8c-2.5-1-3.8-4.4-1.9-7.2l.2-.3c-.2.2 0 .1-.1.1l.1-.1.1-.1c.1-.1.2-.2.2-.3.1 0 .1-.1.1-.1 0-.1.2-.2.4-.3.1-.1.3-.2.5-.2.7-.3 1.5-.4 2.3-.5.8-.1 1.6-.1 2.3-.1.4 0 .7 0 1.1.1.3.1.7.1.9.3-.1-.3-.4-.5-.7-.7-.3-.2-.7-.4-1-.5-.7-.3-1.5-.5-2.4-.6-.9-.1-1.9-.1-2.9.2-.5.2-1.1.4-1.6.8-.1.1-.3.2-.4.4l-.3.3h-.2l-.1.1-.1.1-.2.4c-.6.9-1 2.1-1 3.2-.1 1.1.3 2.1.7 2.9.2.4.5.8.8 1.1.3.3.7.5 1.1.7.7.3 1.5.4 2.1.3z"/><path d="M36.3 43.7c.1-1.6.2-3.7 1.1-5.6.4-.9 1-1.7 1.8-2.3.2-.2.4-.3.6-.4l.6-.4 1.2-.6c-.4 0-.9 0-1.3.1-.2.1-.5.1-.7.2-.3.1-.5.2-.8.3-1.1.5-2.1 1.5-2.6 2.7-.6 1.2-.7 2.5-.6 3.5 0 .9.3 1.8.7 2.5z" fill="#86888b"/><path class="st10" d="M40.1 39.1h-.2l-3.8-.8c-.4-.1-.6-.4-.5-.8.1-.4.5-.6.8-.5l3.8.8c.4.1.6.4.5.8 0 .3-.3.5-.6.5z"/><path class="st5" d="M159.4 95.2c0-1.4 1.2-2.8 2.6-3.2l63.6-15.3c1.4-.3 2.6.5 2.6 2v34.7c0 1.4-1.2 2.9-2.6 3.3l-51 14.6c-1.4.4-3.4 0-4.5-.8l-8.7-7c-1.1-.9-2-2.7-2-4.1V95.2z"/><path class="st7" d="M173.4 131.8c-1.3 0-2.6-.4-3.5-1.1l-8.7-7c-1.1-.9-2.1-2.9-2.1-4.4l-.1-24.1c0-1.5 1.3-3.1 2.8-3.5l63.6-15.3c.8-.2 1.6 0 2.1.4s.8 1.1.8 1.8v34.7c0 1.5-1.3 3.2-2.8 3.6l-51 14.6c-.1.2-.6.3-1.1.3zM226.2 77c-.2 0-.4 0-.5.1L162 92.3c-1.3.3-2.4 1.6-2.3 2.9l.1 24.1c0 1.3.9 3.1 1.9 3.9l8.7 7c1 .8 2.9 1.2 4.3.8l51-14.6c1.3-.4 2.4-1.8 2.4-3V78.7c0-.6-.2-1.1-.6-1.4-.5-.2-.9-.3-1.3-.3z"/><path class="st12" d="M219.9 91.1l-2.2.6.3-2.8c0-1-2.2-2.1-3.1-1.9l-7.2 1.7c-.8.2-1.6 1.2-1.6 2.2l-.1 3.9-2.8.8c-.8.2-1.6 1.2-1.6 2.2l-.3 15c0 1 2 2.1 2.8 1.9l15.2-4c.8-.2 1.6-1.2 1.6-2.2l1.1-15.3c.1-.9-1.3-2.3-2.1-2.1z"/><path class="st13" d="M204.5 114.7c-.5 0-.9-.1-1.3-.4-.4-.4-.6-.9-.6-1.5l.3-14.1c0-1.2.9-2.4 2-2.6l1.9-.5.1-2.9c0-1.2.9-2.4 2-2.7l6.9-1.9c.6-.2 1.2 0 1.7.4.4.4.6.9.6 1.5l-.1 2.6 1.8-.5c.6-.2 1.2 0 1.7.4.4.4.6.9.6 1.5l-.4 14.2c0 1.2-.9 2.3-2 2.6l-14.8 4c-.1-.1-.2-.1-.4-.1zm11.8-25.3l-7 1.9c-.4.1-.8.7-.8 1.2l-.1 4-3.1.8c-.4.1-.8.6-.8 1.2l-.3 14.2c0 .2.1.4.2.5.1.1.2.1.3.1l14.8-4c.4-.1.8-.6.8-1.2l.4-14.2c0-.2 0-.4-.1-.5-.1-.1-.2-.1-.3-.1l-3.6 1 .1-4.4c0-.2 0-.4-.1-.5h-.4z"/><path class="st14" d="M220 92.7l-2.7.7.1-3.5c0-.9-.6-1.4-1.3-1.2l-6.9 1.9c-.8.2-1.4 1.1-1.4 1.9l-.1 3.5-2.5.7c-.8.2-1.4 1.1-1.4 1.9l-.3 14.1c0 .9.6 1.4 1.3 1.2l14.8-4c.8-.2 1.4-1.1 1.4-1.9l.4-14.2c0-.8-.6-1.3-1.4-1.1z"/><path class="st15" d="M214.8 94.3l4.4-4.3h-4.8l-5.9 1.3-.1 5.3c-1.2 1.3-2.1 3.2-2.4 5.3-.6 4 1 7.5 3.7 8.1l-.1 2.8 5.6.2.4-3.8c1.7-1.2.8-3.6 1.2-6.3.4-3.7-1-7-2-8.6z"/><path class="st16" d="M219.1 94.5l.1-4.5-5.1 1.2-.1 5c-1.2 1.3-2.1 3.2-2.4 5.3-.6 4 1 7.5 3.7 8.1l-.2 3.5 3.6-.7.2-3.6c1.7-1.2 3-3.5 3.4-6.2.6-3.9-.8-7.2-3.2-8.1z"/><path class="st12" d="M189 98.6l-1.9.5.3-2.4c0-.8-1.9-1.8-2.6-1.6l-6.1 1.5c-.7.2-1.3 1-1.3 1.9l-.1 3.4-2.4.6c-.7.2-1.3 1-1.3 1.9l-.3 12.8c0 .8 1.7 1.8 2.4 1.6l13-3.4c.7-.2 1.3-1 1.3-1.9l.9-13.1c0-.9-1.2-2-1.9-1.8z"/><path class="st13" d="M175.9 118.7c-.4 0-.8-.1-1.1-.4-.3-.3-.5-.8-.5-1.3l.3-12.1c0-1 .8-2 1.7-2.3l1.6-.4.1-2.5c0-1 .8-2 1.7-2.3l5.9-1.6c.5-.1 1.1 0 1.4.3.3.3.5.8.5 1.3l-.1 2.2 1.5-.4c.5-.1 1.1 0 1.4.3.3.3.5.8.5 1.3l-.3 12.1c0 1-.8 2-1.7 2.3l-12.7 3.4c0 .1-.1.1-.2.1zM186 97.1c-.1 0-.1 0 0 0l-6 1.6c-.4.1-.7.6-.7 1l-.1 3.5-2.6.7c-.3.1-.7.5-.7 1l-.3 12.1c0 .2 0 .3.1.4.1.1.2.1.3 0l12.7-3.4c.3-.1.7-.5.7-1l.3-12.1c0-.2 0-.3-.1-.4-.1-.1-.1-.1-.3 0l-3.1.8.1-3.8c0-.2 0-.3-.1-.4h-.2z"/><path class="st14" d="M189.1 99.9l-2.3.6.1-3c0-.7-.5-1.2-1.1-1l-5.9 1.6c-.7.2-1.2.9-1.2 1.6l-.1 3-2.1.6c-.7.2-1.2.9-1.2 1.6L175 117c0 .7.5 1.2 1.1 1l12.7-3.4c.6-.2 1.2-.9 1.2-1.6l.3-12.1c0-.7-.5-1.2-1.2-1z"/><path class="st15" d="M184.6 101.2l3.7-3.7h-4.1l-5 1.2-.1 4.6c-1 1.1-1.8 2.7-2.1 4.5-.5 3.4.9 6.4 3.1 6.9l-.1 2.4 4.7.1.3-3.2c1.4-1.1.6-3 1-5.3.7-3.3-.5-6.1-1.4-7.5z"/><path class="st16" d="M188.4 101.4l.1-3.9-4.4 1-.1 4.3c-1 1.1-1.8 2.7-2.1 4.5-.5 3.5.9 6.4 3.2 6.9l-.2 3 3.1-.6.2-3.1c1.4-1.1 2.6-3 2.9-5.3.5-3.2-.7-6-2.7-6.8z"/><path class="st5" d="M221.5 50.9l-4.6-15.1c-.3-1.1-1.7-1.7-3.1-1.4L158 46.3c-1.4.3-3.1 1.6-3.1 4.1l-1.8 15.9v.1c.3 1 1.5 1.6 2.7 1.5.2 0 .3 0 .5-.1h.1l63.1-14.2c.8-.2 1.4-.6 1.8-1.2.2-.5.3-1 .2-1.5z"/><path class="st7" d="M155.6 68.2c-1.3 0-2.4-.7-2.7-1.7l-.1-.2v-.1l1.8-15.9c0-2.7 1.8-4 3.3-4.3l55.8-11.8c1.5-.3 3 .4 3.4 1.6l4.6 15.1c.2.6.1 1.2-.3 1.7-.4.6-1.1 1.1-2 1.3l-63.1 14.2h-.1c-.1 0-.3.1-.5.1.1-.1 0 0-.1 0zm.6-.7l.2.3-.2-.3 63.2-14.2c.7-.2 1.3-.5 1.6-1 .2-.4.3-.8.2-1.2L216.6 36c-.3-.9-1.5-1.5-2.7-1.2L158 46.6c-1.3.3-2.9 1.4-2.9 3.8l-1.8 15.9v.1c.3.8 1.3 1.3 2.4 1.3.2-.2.4-.2.5-.2z"/><path transform="rotate(-12.516 154.534 39.752)" class="st4" d="M72.4 39.3h164.2v.8H72.4z"/><path class="st4" d="M88.2 167.8l-.3-.8 157-48.2.2.8z"/><path transform="rotate(-13.433 167.183 73.31)" class="st17" d="M87.9 72.9h158.5v.8H87.9z"/><path class="st5" d="M100.7 205.7c-5.7.3-10.1-.7-13.6-3-6.9-4.5-9.3-14-9.3-19.4l.1-89.8c0-3.7-1.3-9.8-2.8-13.1L63.4 55.5c-1.2-2.7-5.1-5.9-7.9-6.7-.1 0-.1 0-.2-.1l-9.7-3.1c-2.5-.8-3.7-3.5-2.8-6 1-2.5 3.8-4 6.3-3.2l9.6 3C64.1 41 70 46 72.3 51L84 75.9c2.1 4.5 3.6 12 3.6 17l-.1 89.9c0 3.5 1.8 9.6 5.3 11.9 2.6 1.7 8.2 3.2 26.7-2.9h.1c42.5-13.1 108.1-33.6 112.7-35.8 10.3-4.9 14.1-20.2 14.2-23.1 0-.5-.3-51.1 0-75.5 0-3-4.3-19.9-8.7-31.1-2.3-5.9-11.4-7.8-15.8-8.7l-.3-.1c-2.7-.6-4.2-3.2-3.4-5.8.8-2.7 3.6-4.3 6.2-3.8l.3.1c5.5 1.2 18.3 3.9 22.4 14.3 3.7 9.6 9.4 29 9.3 34.7-.4 24.3-.1 74.9-.1 75.4-.1 5.9-5.2 25.2-20.3 32.3-6.3 3-103 32.8-114.1 36.2-8.8 2.9-15.7 4.5-21.3 4.8z"/><path class="st7" d="M98.6 206.1c-4.7 0-8.4-1-11.6-3.1-7-4.5-9.5-14.2-9.4-19.7l.1-89.8c0-3.7-1.3-9.7-2.8-13L63.1 55.7c-1.2-2.6-5-5.8-7.7-6.5-.1 0-.2 0-.2-.1L45.5 46c-1.3-.4-2.3-1.3-2.8-2.4-.6-1.2-.6-2.6-.1-4 1-2.7 4-4.2 6.6-3.3l9.6 3c5.5 1.5 11.5 6.5 13.8 11.7l11.7 24.9C86.4 80.4 88 88 87.9 93l-.1 89.9c0 3.5 1.8 9.4 5.1 11.6 2.5 1.7 8 3.1 26.4-2.9h.1c42.7-13.2 108-33.6 112.7-35.8 10.2-4.8 14-19.9 14-22.8 0-.5-.3-50.9 0-75.5 0-3-4.3-19.8-8.7-31-2.2-5.7-11.2-7.6-15.5-8.6l-.3-.1c-1.4-.3-2.5-1.1-3.2-2.2-.7-1.2-.9-2.6-.5-4 .8-2.8 3.8-4.6 6.6-4l.3.1c5.5 1.2 18.5 3.9 22.6 14.4 3.8 9.6 9.4 29 9.3 34.8-.4 23-.1 70-.1 75.3v.1c-.1 5.9-5.3 25.4-20.5 32.6-6.3 3-103.1 32.8-114.2 36.2-9.1 3-15.9 4.5-21.5 4.8-.4.1-1.1.2-1.8.2zm-51-169.5c-1.9 0-3.8 1.3-4.6 3.2-.4 1.2-.4 2.4.1 3.5.5 1 1.4 1.8 2.5 2.1l9.7 3.1c.1 0 .1 0 .2.1 3 .8 6.9 4.1 8.1 6.9l11.7 24.9c1.5 3.3 2.8 9.5 2.8 13.2l-.1 89.8c0 5.3 2.4 14.8 9.2 19.2 3.6 2.3 7.8 3.2 13.4 2.9 5.5-.3 12.3-1.9 21.3-4.8 11-3.4 107.9-33.3 114.1-36.2 14.9-7.1 20-26.3 20.1-32.1v-.1c0-5.3-.3-52.3.1-75.3.1-5.7-5.6-25-9.3-34.5-4-10.2-16.7-12.9-22.2-14.1l-.3-.1c-2.5-.5-5.1 1.1-5.9 3.6-.4 1.2-.2 2.5.4 3.5.6 1 1.6 1.7 2.8 2l.3.1c4.4.9 13.6 2.9 16 8.9 4.4 11.3 8.8 28.2 8.7 31.2-.4 24.5 0 75 0 75.5 0 2.9-3.9 18.4-14.3 23.3-4.7 2.1-70 22.6-112.7 35.8h-.1c-18.6 6.2-24.3 4.6-27 2.9-3.5-2.3-5.4-8.5-5.4-12.1l.1-89.9c0-5-1.6-12.4-3.6-16.9L72 51.2c-2.3-5-8.1-9.9-13.4-11.4l-9.6-3c-.5-.2-.9-.2-1.4-.2z"/><path class="st17" d="M89.7 91.8h.8v71.7h-.8zm153.9-37.2h.8v62.7h-.8z"/><path class="st5" d="M58.4 39.5L23.6 30C14.5 27.8 1.5 34.1.7 45.9c-.4 6 0 15.2 0 20.3 0 3.7-.9 91.4.1 103.8.5 6.3 2.6 11 6.4 13.9 3.7 2.9 7.9 3 9.6 2.9.4 0 .7-.1.8-.1 4.1-.6 9.4-2.6 13.7-4.2.9-.3 1.7-.7 2.5-.9.8-.3 7.5-3.2 8.1-3.8l-11.1-5.2c-2.9 1.1-12 4.4-14.1 4.7 0 0-1.8.1-3.3-1-1.7-1.3-2.7-3.9-3-7.5-.9-12-.8-102.2-.8-103.1 0-3.6-.9-16.4.7-19.7 0 0 2.3-7.4 10.4-6.6L55.6 49c2.6.6 5.3-1 6.1-3.5.7-2.8-.7-5.4-3.3-6z"/><path class="st7" d="M15.9 187c-2 0-5.7-.4-9-3-3.8-3-6-7.7-6.5-14.1-.6-7.1-.6-40.2-.2-98.2v-5.6c0-1.5 0-3.4-.1-5.4.1-4.8 0-10.7.3-14.9.3-4.9 2.9-9.3 7.1-12.4 4.7-3.5 11.1-4.9 16.2-3.7l34.8 9.5c1.3.3 2.4 1.1 3 2.3.7 1.2.8 2.6.4 3.9-.9 2.7-3.8 4.4-6.5 3.7l-34.9-9.6c-7.7-.7-10 6.4-10.1 6.4-1.3 2.6-1 11.1-.8 16.2 0 1.4.1 2.6.1 3.4 0 .9-.1 91 .8 103 .3 3.5 1.3 6.1 2.9 7.3 1.3 1 2.9 1 3 1 1.9-.3 9.8-3.2 13.1-4.4l1-.4.1.1 11.5 5.4-.3.3c-.6.7-7.6 3.6-8.2 3.8-.8.3-1.6.6-2.5.9-4.3 1.6-9.7 3.6-13.7 4.3-.1 0-.4.1-.8.1-.1.1-.3.1-.7.1zm4-157.2c-4.1 0-8.5 1.4-12 4-4.1 3-6.6 7.3-6.9 12C.7 50 .8 55.9.9 60.6c0 2 .1 3.9.1 5.5v5.6c-.5 58-.4 91.1.1 98.2.5 6.2 2.6 10.8 6.3 13.7 3.7 2.9 7.8 2.9 9.4 2.8.4 0 .7-.1.8-.1 4-.6 9.3-2.6 13.6-4.2.9-.3 1.7-.7 2.5-.9.9-.3 6.1-2.6 7.6-3.4l-10.5-4.9-.8.3c-3.7 1.3-11.3 4.1-13.2 4.4-.2 0-2 .1-3.5-1.1-1.7-1.3-2.8-4-3.1-7.7-1.1-12.2-1-102.3-1-103.2 0-.8 0-2-.1-3.4-.2-5.5-.5-13.7.9-16.4 0 0 2.5-7.6 10.7-6.8l34.9 9.6c2.4.6 5-.9 5.7-3.3.4-1.2.3-2.4-.3-3.5-.6-1-1.5-1.7-2.6-2l-34.8-9.5c-1.2-.3-2.4-.5-3.7-.5z"/><path class="st2" d="M205.2 10.6c-.1-2.6 1.7-4.4 4.9-4.7 1.4-.1 3.9.2 3.9.2-.2-2.1-3.2-3.5-5.1-3.1l-8.3 1.4c-1.7.3-3 1.9-3.1 3.7l-8.8 1.6c-.9-.9-2.2-1.4-3.5-1.1l-122 23.2c-1.3.3-2.7.9-3.3 2.1l-10.5 1.8c-3.8-3.5-8.6-1.8-8.6-1.8-2 .3-5.9 2.4-5.9 7.1 0 4.7 3 6.2 7.9 5.8.5 0 2-.6 2-.6-3.5-.6-4.3-2.5-4.3-3.9 0-3.8 1.8-6.4 6.4-5.5.6.1 5 1.1 7.4 1.8 1.9.5 4.4 1 4.4 1l2.8-.5c.6.4 1.3.6 2.1.5.1 0 .3 0 .4-.1l122.3-22.9c1-.2 1.8-.7 2.5-1.5l10.1-1.8c.7 1.4 2.2 3.3 5.7 2.5l3.7-.6c-2.5-.4-3.1-2.5-3.1-4.6z"/><path class="st17" d="M51.5 37c-.2 0-.3-.1-.4-.3 0-.2.1-.4.3-.5l9.3-2c.6-1.1 1.8-1.8 3.5-2.1l122-23.2c1.4-.3 2.7.2 3.7 1.1l8.3-1.5c.2-1.9 1.6-3.5 3.4-3.8l8.3-1.4c.2 0 .4.1.5.3 0 .2-.1.4-.3.5l-8.3 1.4c-1.5.3-2.7 1.7-2.8 3.3 0 .2-.1.3-.3.4l-8.8 1.6c-.1 0-.3 0-.4-.1-.8-.8-2-1.2-3.2-1l-122 23.2c-1.5.3-2.5 1-3 1.9-.1.1-.2.2-.3.2l-9.5 2c.1 0 .1 0 0 0z"/><path class="st2" d="M49.6 179.5c0 .8-.8 1.5-1.8 1.5l-30-12.5c-3.4-.8-4.5-6.3-4.5-7.1l.9-58.6c-.4-3.5 2.9-6.6 5.9-7.5l12.3-3.1s5.5.4 6.9 1.2c3.5 2.2 8.4 13 8.4 13 1-.1 5.9.3 5.9 1.1l-4 72z"/><path class="st8" d="M70.1 131.2c1.7 15.3.2 28.9-11.8 33.8-6.2 2.6-15 .3-19.4-1.5-8.3-3.5-11.7-12.2-14.5-21.8-2.1-7.4-4.4-23.1 7.5-34.2 1.9-1.8 7.7-8.1 14.1-7.6 9.3.7 21.8 10.1 24.1 31.3z"/><path class="st17" d="M42.9 164.2c-3.8 0-7.5-1.7-10.7-4.9-4.1-4.2-7.2-11-9-19.5-3.1-15 2.4-29.3 12-31.3 3.3-.7 6.7.1 10 2.3 6.1 4 10.8 12.2 12.6 21.9 2.9 15.3-2.6 29.4-12.1 31.3-1 .1-1.9.2-2.8.2zm-5.4-55.4c-.7 0-1.5.1-2.2.2-9.3 2-14.6 16-11.6 30.6 1.7 8.4 4.8 15 8.8 19.2 3.8 3.9 8.3 5.4 12.9 4.5 9.2-1.9 14.4-15.6 11.6-30.6-1.8-9.5-6.4-17.5-12.3-21.5-2.3-1.6-4.7-2.4-7.2-2.4z"/><path class="st5" d="M43 100c2.4-.4 5 .2 7.7 1.3 2.6 1.2 5.2 2.9 7.7 5.1 4.9 4.4 8 9.6 9.6 13.9-.6-4.6-3.4-10.5-8.5-15.1-2.5-2.3-5.4-4-8.2-5-3.1-.9-6-1.1-8.3-.2z"/><path class="st4" d="M36.2 91.9c4.8 2.1 11.3 4.5 18.6 6.9 1 .3 1.9.6 2.8.9h-.1c2.9 1.3 5.4 2.9 7.5 4.7 2.1 1.8 3.8 3.7 4.9 5.7-.8-2.1-2.2-4.4-4.2-6.4s-4.5-3.9-7.6-5.3c-.9-.3-1.9-.6-2.8-.9-7.2-2.5-13.9-4.4-19.1-5.6z"/><path fill="#afafa7" d="M9.5 77.3L78.6 100"/><circle class="st8" cx="128.1" cy="121.3" r="25"/><path class="st2" d="M128.1 146.6c-14 0-25.3-11.3-25.3-25.3S114.2 96 128.1 96c14 0 25.3 11.4 25.3 25.3 0 14-11.3 25.3-25.3 25.3zm0-50c-13.6 0-24.7 11.1-24.7 24.7s11.1 24.7 24.7 24.7 24.7-11.1 24.7-24.7-11.1-24.7-24.7-24.7z"/><path class="st2" d="M128.6 119.2l8.9 3.1-16.9 14.7 6.6-12.2-8.4-3.1 15.7-16z"/><path class="st17" d="M119.6 138.3l7.2-13.3-8.5-3.2 17.2-17.5L129 119l9 3.1-18.4 16.2zm-.3-16.7l8.3 3.1-6 11 15.2-13.3-8.7-3 5.4-12.4-14.2 14.6z"/><path transform="rotate(-71.851 43.53 88.497)" class="st7" d="M43.1 52.7h.8v71.6h-.8z"/><path transform="rotate(-71.851 43.443 80.53)" fill="#747575" d="M43.1 44.7h.6v71.6h-.6z"/><path class="st5" d="M57 132.6c2.8 15.2-2.5 29-11.9 31-9.4 1.9-18.5-6.2-22.1-23.9-3.1-15.1 2.4-29 11.8-31 9.5-2 19.4 8.7 22.2 23.9z"/><path class="st2" d="M45.4 135.5c1.1 6.7-1 12.7-4.7 13.4-3.6.7-7.4-4.2-8.5-11-1.1-6.7 1-12.7 4.7-13.4 3.7-.6 7.5 4.3 8.5 11z"/></svg>