<svg version="1.1" id="图层_1" xmlns="http://www.w3.org/2000/svg" x="0" y="0" width="190" height="220" xml:space="preserve"><style>.st0{fill:#eaeaea}.st1{fill:#e5e5e5}.st2{fill:#adadad}.st3{fill:#747577}.st4{opacity:.7;fill:#295ba9}.st5{fill:#cecece}.st6{fill:#fff}.st7{fill:#c5c6bf}</style><path class="st0" d="M0 0v220h190V0H0z"/><path class="st1" d="M0 164h190v56H0z"/><path class="st2" d="M0 164h190v3H0z"/><path class="st3" d="M0 217h190v3H0z"/><path class="st4" d="M43.6 53.5h47.6v112.3H43.6z"/><path class="st5" d="M37.3 53.5h6.4v115.3h-6.4z"/><path class="st5" d="M43.6 164.4h47.6v8.8H43.6z"/><path class="st3" d="M91.2 164.4H43.6l61.5 43.1h47.6z"/><path class="st5" d="M105.1 207.5h47.6v8.8h-47.6zm0 0v8.8l-67.8-47.5h12.6z"/><path class="st6" d="M105.3 216.2h-.3v-8.7l-61.5-43V53.6h.3v110.7l61.4 43 .1.1z"/><path class="st6" d="M105.1 207.2h47.6v.3h-47.6z"/><path class="st3" d="M152.7 216.5H105L37.2 169l-.1-.1V53.5c0-.1.1-.2.2-.2s.2.1.2.2v115.2l67.7 47.4h47.4v-8.6l-61.4-43-.1-.1V65.3c0-.1.1-.2.2-.2s.2.1.2.2v99l61.4 43 .1.1v8.8c-.1.2-.2.3-.3.3z"/><path class="st7" d="M132.7 174.6L71 132l-29.7 17.1 61.7 42.6z"/><path class="st0" d="M132.7 172.3L71 129.7l-29.7 17.1 61.7 42.6z"/><path class="st6" d="M132.7 172.3v2.3L103 191.7l-61.7-42.6v-2.3l61.7 42.6z"/><path class="st4" d="M132.7 172.3v2.3L103 191.7l-61.7-42.6v-2.3l61.7 42.6z"/><path class="st3" d="M103 191.9c-.1 0-.1 0 0 0l-61.8-42.6-.1-.1v-2.3c0-.1 0-.1.1-.1l29.7-17.1h.2l61.7 42.6.1.1v2.3c0 .1 0 .1-.1.1L103 191.9zM41.4 149l61.5 42.5 29.5-17v-2.1L71 129.9l-29.5 17v2.1z"/><path class="st7" d="M132.7 140.7L71 98.1l-29.7 17.2 61.7 42.6z"/><path class="st0" d="M132.7 138.4L71 95.8 41.3 113l61.7 42.6z"/><path class="st6" d="M132.7 138.4v2.3L103 157.9l-61.7-42.6V113l61.7 42.6z"/><path class="st4" d="M132.7 138.4v2.3L103 157.9l-61.7-42.6V113l61.7 42.6z"/><path class="st3" d="M103 158c-.1 0-.1 0 0 0l-61.8-42.6-.1-.1V113c0-.1 0-.1.1-.1l29.7-17.1h.2l61.7 42.6.1.1v2.3c0 .1 0 .1-.1.1L103 158zm-61.6-42.8l61.5 42.5 29.5-17v-2.1L71 96l-29.5 17v2.2z"/><path class="st7" d="M132.7 106.4L71 63.8 41.3 81l61.7 42.6z"/><path class="st0" d="M132.7 104.1L71 61.5 41.3 78.7l61.7 42.5z"/><path class="st6" d="M132.7 104.1v2.3L103 123.6 41.3 81v-2.3l61.7 42.5z"/><path class="st4" d="M132.7 104.1v2.3L103 123.6 41.3 81v-2.3l61.7 42.5z"/><path class="st3" d="M103 123.7c-.1 0-.1 0 0 0L41.2 81.1l-.1-.1v-2.3c0-.1 0-.1.1-.1l29.7-17.1h.2l61.7 42.6.1.1v2.3c0 .1 0 .1-.1.1L103 123.7zM41.4 80.9l61.5 42.5 29.5-17v-2.1L71 61.7l-29.5 17v2.2z"/><path class="st7" d="M132.7 72.1L71 29.6 41.3 46.7 103 89.3z"/><path class="st0" d="M132.7 69.8L71 27.2 41.3 44.4 103 87z"/><path class="st6" d="M132.7 69.8v2.3L103 89.3 41.3 46.7v-2.3L103 87z"/><path class="st4" d="M132.7 69.8v2.3L103 89.3 41.3 46.7v-2.3L103 87z"/><path class="st3" d="M103 89.4c-.1 0-.1 0 0 0L41.2 46.8l-.1-.1v-2.3c0-.1 0-.1.1-.1l29.7-17.1h.2l61.7 42.6.1.1v2.3c0 .1 0 .1-.1.1L103 89.4zM41.4 46.6L103 89.1l29.5-17V70L71 27.4l-29.5 17v2.2z"/><path class="st5" d="M105.1 66.2h47.6V75h-47.6z"/><path class="st3" d="M87 53.5l18.1 12.7h47.6l-18.1-12.7z"/><path class="st5" d="M74.3 53.5l30.8 21.6v-8.9L87 53.5z"/><path class="st6" d="M105.1 75.2c-.1 0-.2-.1-.2-.2v-8.8c0-.1.1-.2.2-.2h47.6c.1 0 .2.1.2.2s-.1.2-.2.2h-47.4V75c0 .2-.1.2-.2.2z"/><path transform="rotate(-55 96.038 59.88)" class="st6" d="M95.9 48.8h.3V71h-.3z"/><path class="st3" d="M152.7 75.2H105L74.3 53.7c-.1-.1-.1-.2 0-.2.1-.1.2-.1.2 0L105.2 75h47.4v-8.6l-18.1-12.7c-.1-.1-.1-.2 0-.2.1-.1.2-.1.2 0l18.2 12.7.1.1v8.8c-.1.1-.2.1-.3.1z"/><g><path class="st1" d="M0 0h190v56H0z"/><path class="st2" d="M0 0h190v3H0z"/><path class="st3" d="M0 53h190v3H0z"/></g></svg>