<svg version="1.1" id="图层_1" xmlns="http://www.w3.org/2000/svg" x="0" y="0" width="220" height="264" xml:space="preserve"><style>.st0{fill:#eaeaea}.st1{fill:#e5e5e5}.st2{fill:#747577}.st3{fill:#adadad}.st4{fill:#d6d7d7}.st6{fill:#fff}</style><path class="st0" d="M220 0H0v264h220V0z"/><path class="st1" d="M164 0h56v264h-56z"/><path class="st2" d="M217 0h3v264h-3z"/><path class="st3" d="M164 0h3v264h-3z"/><path class="st3" d="M173.3 70.3s-62-44.9-83.4-48.5c-24-4.1-51.1 1.2-64.3 23.5-11.5 19.3-21.4 64.2-21.4 64.2l30.7 45.4 93.3 3.9 45.1-88.5z"/><path class="st2" d="M128.7 159.7h-.5l-93.7-4-31.2-46.1.1-.3c.1-.5 10.1-45.2 21.4-64.3C36.7 25.1 61 16.2 90 21.1c21.3 3.6 81.2 46.8 83.7 48.6l.6.4-45.6 89.6zm-93.3-5.6l92.3 3.9 44.5-87.4c-6.3-4.5-62.6-44.6-82.5-47.9-28.3-4.8-52 3.9-63.5 23.1-10.7 18-20.2 59.3-21.1 63.5l30.3 44.8z"/><circle class="st4" cx="134.4" cy="142" r="81.5"/><path class="st2" d="M134.4 224.4C89 224.4 52 187.4 52 142c0-45.4 36.9-82.3 82.3-82.3s82.3 36.9 82.3 82.3c.1 45.4-36.8 82.4-82.2 82.4zm0-163.1c-44.5 0-80.7 36.2-80.7 80.7s36.2 80.7 80.7 80.7 80.7-36.2 80.7-80.7-36.2-80.7-80.7-80.7z"/><path transform="rotate(-90 93.643 183.219)" class="st4" d="M36.4 143.8H151v78.8H36.4z"/><circle class="st2" cx="134.3" cy="141.9" r="54.6"/><path class="st4" d="M149.1 94.1s-10.7 16.4-12.2 33.7c-1.5 17.3-9.2 0-9.2 0s-6.8-15.4 5.5-38.4l15.9 4.7zM101 104.8s8.9 17.5 23.1 27.4c14.2 9.9-4.6 7.9-4.6 7.9s-16.7-1.8-30.5-24l12-11.3zm-14.8 47s19.6 1 35.3-6.3 4.6 7.9 4.6 7.9-9.9 13.6-36 14.4l-3.9-16zm33.2 36.3s10.7-16.4 12.2-33.7c1.5-17.3 9.2 0 9.2 0s6.8 15.4-5.5 38.4l-15.9-4.7zm48.1-10.7s-8.9-17.5-23.1-27.4c-14.2-9.9 4.6-7.9 4.6-7.9s16.7 1.8 30.5 24l-12 11.3zm14.9-46.9s-19.6-1-35.3 6.3-4.6-7.9-4.6-7.9 9.9-13.6 36-14.4l3.9 16z"/><path class="st4" d="M134.2 128.7c-6.8 0-12.4 5.5-12.4 12.4 0 6.8 5.5 12.4 12.4 12.4 6.8 0 12.4-5.5 12.4-12.4-.1-6.8-5.6-12.4-12.4-12.4zm0 17.7c-2.9 0-5.3-2.4-5.3-5.3s2.4-5.3 5.3-5.3 5.3 2.4 5.3 5.3c-.1 2.9-2.4 5.3-5.3 5.3z"/><path d="M134.3 197.8c-30.8 0-55.8-25.1-55.8-55.8 0-30.8 25.1-55.8 55.8-55.8 30.8 0 55.8 25.1 55.8 55.8 0 30.7-25 55.8-55.8 55.8zm0-109.3c-29.4 0-53.4 24-53.4 53.4s24 53.4 53.4 53.4 53.4-24 53.4-53.4-24-53.4-53.4-53.4z" fill="#62605e"/><path transform="rotate(-90 93.141 240.507)" class="st0" d="M90.3 200.6h5.8v79.8h-5.8z"/><path class="st6" d="M53.7 142H52c0-45.4 36.9-82.3 82.3-82.3 12.9 0 25.3 2.9 36.8 8.7l-.7 1.5c-11.3-5.6-23.4-8.5-36.1-8.5-44.4-.1-80.6 36.1-80.6 80.6z"/><path class="st2" d="M133.9 244.2H53.2v-1.6h79v-19.9h1.7z"/><path class="st2" d="M54.3 236.7h78.8v1.8H54.3z"/><path class="st6" d="M135.3 193h-.1l-16-4.8.1-.2c.1-.2 10.7-16.6 12.1-33.6 0-.4.1-.7.1-1-1.5-.3-2.9-.9-4.2-1.7-.7 1.1-1.2 1.8-1.2 1.8-.1.1-10.2 13.7-36.2 14.5h-.1v-.1L86 151.6h.2c.2 0 19.7.9 35.2-6.3l.6-.3c.1 0 .2-.1.3-.1-.4-1.3-.6-2.6-.6-3.8v-.7c-1.3 0-2.2-.1-2.2-.1-.2 0-17-2-30.6-24.1l-.1-.1.1-.1 12.1-11.5.1.2c.1.2 9 17.5 23.1 27.3.3.2.5.4.8.6 1-1.1 2.2-2 3.6-2.7-.6-1.1-1-2-1-2-.1-.2-6.7-15.7 5.6-38.5l.1-.1 16.1 4.8-.1.2c-.1.2-10.7 16.6-12.1 33.6 0 .4-.1.7-.1 1.1 1.5.3 2.9.9 4.1 1.8.7-1.1 1.3-1.9 1.3-1.9.1-.1 10.2-13.7 36.2-14.5h.1v.1l3.9 16.2h-.2c-.2 0-19.7-.9-35.2 6.3-.3.1-.5.2-.8.3-.1 0-.2.1-.3.1.4 1.3.6 2.5.6 3.7v.7c1.4 0 2.4.1 2.4.1.2 0 17 2 30.6 24.1l.1.1-.1.1-12.1 11.5-.1-.2c-.1-.2-9-17.5-23.1-27.3-.3-.2-.6-.5-.9-.7-1 1.1-2.2 2-3.5 2.7.6 1.2 1 2.1 1 2.1.1.2 6.7 15.7-5.6 38.5l-.2.2zm-15.6-5l15.5 4.6c12.1-22.6 5.5-38 5.5-38.1 0 0-.4-1-1.1-2.2l-.1-.1.2-.1c1.4-.7 2.6-1.6 3.7-2.8l.1-.1.1.1c.3.2.7.5 1 .8 13.3 9.3 22 25.3 23.1 27.3l11.7-11.1c-13.6-21.8-30.1-23.8-30.3-23.8 0 0-1.1-.1-2.6-.2h-.2v-1.1c0-1.2-.2-2.4-.7-3.8v-.1l.1-.1c.1-.1.3-.1.4-.2.2-.1.5-.2.8-.3 14.7-6.9 32.9-6.4 35.1-6.3l-3.7-15.7c-25.7.8-35.7 14.2-35.8 14.3l-1.4 2.1-.1.1-.1-.1c-1.3-.9-2.7-1.5-4.3-1.8h-.1v-.1c0-.4.1-.8.1-1.2 1.4-16.1 10.9-31.7 12.1-33.6l-15.5-4.6c-12.1 22.6-5.5 38-5.5 38.1 0 0 .4.9 1.1 2.1l.1.2-.2.1c-1.4.7-2.7 1.6-3.8 2.8l.1-.1-.1-.1c-.3-.2-.6-.4-.9-.7-13.3-9.2-22-25.2-23-27.2l-11.7 11.1c13.5 21.8 30.1 23.8 30.3 23.8 0 0 1 .1 2.3.1h.2v1.1c0 1.2.2 2.5.7 3.8v.1l-.1.1c-.1.1-.3.1-.4.2l-.6.3c-14.7 6.9-32.9 6.4-35.1 6.3l3.7 15.7c25.7-.8 35.7-14.2 35.8-14.3 0 0 .6-.8 1.3-2l.1-.1.1.1c1.3.9 2.8 1.5 4.3 1.8h.1v.1c0 .4-.1.7-.1 1.1-1.5 16.2-11 31.8-12.2 33.7zm14.5-41.5c-3 0-5.4-2.4-5.4-5.4s2.4-5.4 5.4-5.4c3 0 5.4 2.4 5.4 5.4s-2.4 5.4-5.4 5.4zm0-10.5c-2.8 0-5.1 2.3-5.1 5.1s2.3 5.1 5.1 5.1 5.1-2.3 5.1-5.1-2.3-5.1-5.1-5.1z"/><path class="st1" d="M0 0h56v264H0z"/><path class="st2" d="M53 0h3v264h-3z"/><path class="st3" d="M0 0h3v264H0z"/></svg>