<svg version="1.1" id="图层_1" xmlns="http://www.w3.org/2000/svg" x="0" y="0" width="264" height="220" xml:space="preserve"><style>.st0{fill:#eaeaea}.st1{fill:#e5e5e5}.st2{fill:#adadad}.st3{fill:#747577}.st4{fill:#d6d7d7}.st6{fill:#fff}</style><path class="st0" d="M0 0v220h264V0H0z"/><path class="st1" d="M0 164h264v56H0z"/><path class="st2" d="M0 164h264v3H0z"/><path class="st3" d="M0 217h264v3H0z"/><path class="st2" d="M129.2 193.1l-50.9-35.4c-15.8-13.1-26.2-37.3-26.2-58.5l78 16.1-.9 77.8"/><path class="st3" d="M130 194.6l-52.2-36.2c-15.6-12.9-26.5-37.2-26.5-59.1v-1l1 .2 78.7 16.3v.7l-1 79.1zm-77.1-94.4c.3 21.2 10.9 44.5 25.9 56.9l49.7 34.5.9-75.6-76.5-15.8z"/><path class="st2" d="M14.4 82.4l68.4 44.4V44.5L14.4 0z"/><path class="st0" d="M10.2 0h4.2v82.4h-4.2z"/><circle class="st4" cx="174.5" cy="128" r="79.2"/><path class="st3" d="M174.5 208.1c-44.1 0-80-35.9-80-80s35.9-80 80-80 80 35.9 80 80-35.8 80-80 80zm0-158.5c-43.3 0-78.5 35.2-78.5 78.5s35.2 78.5 78.5 78.5S253 171.3 253 128s-35.2-78.4-78.5-78.4z"/><path class="st4" d="M78.7 44.5h111.4v82.4H78.7z"/><path transform="rotate(-90 87.402 126.029)" class="st3" d="M86.6 117.3h1.6v17.4h-1.6z"/><path fill="#9e9e9e" d="M14.4 80h64.3v4.6H14.4z"/><path class="st0" d="M14.4 82.4l68.4 44.4h-4.1L10.2 82.4z"/><path class="st0" d="M78.7 44.5h5.6v82.4h-5.6z"/><path class="st6" d="M124.1 190.3c-18.8-15.9-29.6-38.5-29.6-62 0-1 0-2 .1-3.1l1.6.1c0 1-.1 2-.1 3 0 23 10.6 45.2 29.1 60.8l-1.1 1.2z"/><path fill="#b4b5b0" d="M110.1 179.8l15.4 10.5"/><path transform="rotate(-55.66 117.815 185.04)" class="st3" d="M117 175.7h1.6v18.6H117z"/><path d="M174.5 182.3c-29.9 0-54.3-24.4-54.3-54.3s24.4-54.3 54.3-54.3 54.3 24.4 54.3 54.3-24.3 54.3-54.3 54.3zm0-106.2c-28.6 0-51.9 23.3-51.9 51.9s23.3 51.9 51.9 51.9 51.9-23.3 51.9-51.9-23.2-51.9-51.9-51.9z" fill="#62605e"/><circle class="st3" cx="174.5" cy="128" r="53.1"/><path class="st4" d="M188.9 81.5s-10.4 16-11.8 32.8-8.9 0-8.9 0-6.6-14.9 5.4-37.3l15.3 4.5zm-46.7 10.4s8.6 17 22.5 26.6c13.8 9.7-4.5 7.7-4.5 7.7s-16.3-1.7-29.6-23.3l11.6-11zm-14.4 45.7s19 1 34.3-6.1 4.5 7.7 4.5 7.7-9.6 13.2-35 14l-3.8-15.6zm32.3 35.3s10.4-16 11.8-32.8 8.9 0 8.9 0 6.6 14.9-5.4 37.3l-15.3-4.5zm46.8-10.4s-8.6-17-22.5-26.6 4.5-7.7 4.5-7.7 16.3 1.7 29.6 23.3l-11.6 11zm14.4-45.6s-19-1-34.3 6.1c-15.3 7.1-4.5-7.7-4.5-7.7s9.6-13.2 35-14l3.8 15.6z"/><path class="st4" d="M174.4 115.2c-6.6 0-12 5.4-12 12s5.4 12 12 12 12-5.4 12-12c.1-6.6-5.3-12-12-12zm0 17.1c-2.8 0-5.1-2.3-5.1-5.1s2.3-5.1 5.1-5.1 5.1 2.3 5.1 5.1-2.3 5.1-5.1 5.1z"/><path class="st6" d="M175.5 177.6h-.1l-15.6-4.6.1-.2c.1-.2 10.4-16.1 11.8-32.7 0-.3.1-.7.1-1-1.4-.3-2.8-.9-4-1.7-.6 1-1.2 1.8-1.2 1.8-.1.1-9.9 13.3-35.2 14.1h-.1v-.1l-3.8-15.8h.2c.2 0 19.2.9 34.2-6.1l.6-.3c.1 0 .2-.1.3-.1-.4-1.3-.6-2.5-.6-3.7v-.7c-1.2 0-2.1-.1-2.1-.1-.2 0-16.5-2-29.8-23.4l-.1-.1.1-.1 11.8-11.2.1.2c.1.2 8.8 17 22.4 26.6.3.2.5.4.8.6 1-1.1 2.2-2 3.5-2.6-.6-1.1-1-1.9-1-2-.1-.2-6.5-15.3 5.4-37.5l.1-.1h.1l15.6 4.6-.1.2c-.1.2-10.4 16.1-11.8 32.7 0 .4-.1.7-.1 1 1.4.3 2.8.9 4 1.7.7-1.1 1.2-1.9 1.2-1.9.1-.1 10-13.3 35.2-14.1h.1v.1l3.8 15.8h-.2c-.2 0-19.2-.9-34.2 6.1-.3.1-.6.3-.8.4-.1 0-.1.1-.2.1.4 1.3.6 2.5.6 3.6v.7c1.3 0 2.3.1 2.3.1.2 0 16.5 2 29.8 23.4l.1.1-.1.1-11.8 11.2-.1-.2c-.1-.2-8.8-17-22.4-26.6-.3-.2-.6-.4-.9-.7-1 1.1-2.1 2-3.4 2.6.6 1.1 1 2 1 2 .1.2 6.5 15.3-5.4 37.5l-.2.3zm-15.1-4.8l15 4.5c11.8-22 5.4-36.9 5.3-37.1 0 0-.4-1-1.1-2.2l-.1-.1.1-.1c1.4-.7 2.6-1.6 3.6-2.7l.1-.1.1.1c.3.2.7.5 1 .7 12.9 9 21.4 24.6 22.4 26.5l11.4-10.8c-13.2-21.2-29.3-23.1-29.5-23.2 0 0-1.1-.1-2.5-.1h-.2v-1.1c0-1.1-.2-2.3-.6-3.7v-.1l.1-.1c.1-.1.2-.1.4-.1.3-.1.5-.2.8-.4 14.3-6.7 32-6.2 34.2-6.2l-3.6-15.2c-24.9.8-34.7 13.8-34.8 13.9 0 0-.6.9-1.3 2l-.1.1-.1-.1c-1.3-.9-2.7-1.5-4.2-1.8h-.1v-.1c0-.4.1-.7.1-1.2 1.4-15.7 10.6-30.9 11.7-32.7l-15-4.5c-11.8 22-5.4 36.9-5.3 37.1 0 0 .4.9 1 2.1l.1.1-.2.1c-1.4.7-2.6 1.6-3.7 2.7l-.1.1-.1-.1-.9-.6c-12.9-9-21.4-24.6-22.4-26.5l-11.4 10.8c13.2 21.2 29.3 23.1 29.5 23.2 0 0 1 .1 2.3.1h.2v1.1c0 1.2.2 2.4.7 3.7v.1l-.1.1c-.1.1-.3.1-.4.2l-.6.3c-14.3 6.7-32 6.3-34.2 6.2l3.6 15.2c24.9-.8 34.7-13.8 34.8-13.9 0 0 .6-.8 1.3-1.9l.1-.1.1.1c1.3.9 2.7 1.4 4.2 1.7h.1v.1c0 .4-.1.7-.1 1.1-1.3 15.8-10.5 31-11.6 32.8zm14-40.3c-2.9 0-5.3-2.4-5.3-5.3s2.4-5.3 5.3-5.3 5.3 2.4 5.3 5.3-2.4 5.3-5.3 5.3zm0-10.3c-2.7 0-5 2.2-5 5 0 2.7 2.2 5 5 5 2.7 0 5-2.2 5-5 0-2.7-2.2-5-5-5z"/><path d="M174.5 181.9c-29.7 0-53.9-24.2-53.9-53.9s24.2-53.9 53.9-53.9 53.9 24.2 53.9 53.9-24.2 53.9-53.9 53.9zm0-106.2c-28.8 0-52.3 23.5-52.3 52.3s23.5 52.3 52.3 52.3 52.3-23.5 52.3-52.3-23.4-52.3-52.3-52.3z" fill="#666768"/><path class="st3" d="M190.1 44.5h1.6v6.6h-1.6zM84.3 127.6h-5.6c-.2 0-.3 0-.4-.1L9.8 83c-.2-.1-.4-.4-.4-.7V53.6c0-.4.4-.8.8-.8s.8.4.8.8v28.3L78.9 126h4.6V53.6c0-.4.4-.8.8-.8s.8.4.8.8v73.2c0 .5-.4.8-.8.8z"/><g><path class="st1" d="M0 0h264v56H0z"/><path class="st2" d="M0 0h264v3H0z"/><path class="st3" d="M0 53h264v3H0z"/></g></svg>