<svg version="1.1" id="图层_1" xmlns="http://www.w3.org/2000/svg" x="0" y="0" width="524" height="220" xml:space="preserve"><style>.st0{fill:#e5e5e5}.st1{fill:#eaeaea}.st3{fill:#adadad}.st4{fill:#747577}</style><path class="st0" d="M524 166.9l-116.2-1.4-41.1-7.6-166.4.1-179.9 9.2H0V217h82.7l135.8-31.2h132.9L483.8 217H524z"/><path class="st1" d="M0 55h85.8l131.1 29.8 134.2.2 132.7-30H524v111.6l-115.9-1.3-41.1-7.4H200.2L20.3 167H0z"/><path d="M221.2 188.7L208.7 57.4l119.1-.4c7.3-.8 14.8 5.4 21.2 17.6 6.1 11.7 10.7 27.7 12.7 44.9 4.4 36.7-3.7 66.8-18.3 68.5-.4 0-.7.1-1.1.1l-121.1.6z" fill="#d6d7d7"/><ellipse transform="rotate(-5.975 210.245 123.251)" class="st3" cx="210.2" cy="123.2" rx="24.4" ry="62.8"/><path class="st4" d="M297.6 60.7c13.4-1.3 27.2 25.6 30.8 60.2 1.9 18.7.5 35.7-3.4 47.7h-57.1c3.9-11.9 5.3-29 3.4-47.7-3.6-34.5-17.3-61.5-30.8-60.2h57.1z"/><path class="st0" d="M483.8 55.5H524v-3.4h-40.4L350.7 81.8h-65.9"/><path class="st0" d="M524 2.1h-89.2L330 58.9l-126.7-.1L24.6 2 0 2.1v50.7h86.4l131.4 29.6 132.9-.6 132.9-29.7H524z"/><path d="M217.7 81.8l-19.5-4.4 19.5 4.4zm.4 0c.2 0 .4.1.6.1h12.8v-.1h-13.4zm66.8 0h65.9-115.7v.1l49.8-.1zM86.7 53.3l108.1 24c0 .7 0 0 0 0l-108.1-24z" fill="none"/><path d="M217.9 82.5l.2-.7c-.2.7-.2 0-.4 0l.2.7z" fill="#e7e9ea"/><path fill="#666" d="M194.8 77.3l3.4.8z"/><path class="st4" d="M237.4 120.4c-1.4-13-4.2-25.4-8.1-35.7-.4-1.1-.4-1-.8-2.1l-3.7.1c.5 1.1.3.9.8 2 4 10.3 6.9 22.8 8.3 36.1 1.8 17 .8 33.2-2.6 45.6-3.2 11.7-8.5 18.7-14.3 19.3-5.9.5-12.4-5.3-18-16.2-5.9-11.5-10.2-27.2-11.9-44.2-1.7-16.8-.9-32.8 2.5-45.1 0-.1.1-.3.1-.5.3-1 .6-1.9.9-2.8l-3.4-.8c-.3.9-.6 1.7-.8 2.7-.1.2-.1.4-.1.6-3.4 12.7-4.3 29.1-2.5 46.2 1.8 17.4 6.2 33.5 12.3 45.3 6 11.7 13.2 18.1 20.4 18.1.4 0 .8 0 1.1-.1 7.5-.7 13.7-8.4 17.3-21.8 3.4-12.7 4.3-29.3 2.5-46.7z"/><path class="st3" d="M222.3 76.2c.8 1.6 2.1 4.6 2.9 6.3l3.8-.1c-.9-2.2-2.4-5.8-3.5-7.8-4.4-8.6-9.3-14.3-14.4-17-2.5-1.3-4.9-1.9-7.4-1.6l1.1 3.4c5.7 0 12 6.1 17.5 16.8zM329.5 56c7.7-.8 15.7 5.5 22.4 17.9 6.5 11.9 11.2 28.2 13.4 45.7 4.6 37.4-3.9 68.1-19.4 69.8-.4 0-.8.1-1.2.1l.7-3.5c13-1.4 20.4-31.6 16.2-65.9-2.1-17.2-6.7-33-13-44.5-5.7-10.4-12.2-16.2-18-16.1h-.8l-.3-3.5z"/><path class="st3" d="M345.6 190H218.9l4.9-3.3h121.8z"/><ellipse class="st4" cx="306.2" cy="126.7" rx="5" ry="7.1"/><path class="st1" d="M301.5 127.1s3.4 15.3-9.5 21.9c-6.2 3.2-17.1-8.3-16.5-15.6.3-3.6 7.9 7.5 19.9-8.5 1.5-2 6.1 2.2 6.1 2.2z"/><path class="st1" d="M302.6 124.5s17.1 1.8 19.9 15.1c1.4 6.4-13.9 12.2-21.4 9.5-3.7-1.4 10.3-4.6-2.7-19.9-1.6-2.1 4.2-4.7 4.2-4.7z"/><path class="st1" d="M300.2 122.7s7.1-14.3 21.9-12.6c7.1.8 8.4 15.9 3.3 21.4-2.6 2.8-1.6-10.4-21.6-3.8-2.6.9-3.6-5-3.6-5z"/><path class="st1" d="M297.6 124.2s-12.7-10.6-6.4-22.9c3-5.9 19.2-2.4 23.4 3.8 2.1 3.1-11.3-1.8-10.6 17.5 0 2.6-6.4 1.6-6.4 1.6z"/><path class="st1" d="M298.4 127s-15 7.7-25.8-1.5c-5.2-4.4 3.4-17.4 11.2-19.1 3.9-.9-5.4 9.2 15 14.6 2.6.7-.4 6-.4 6z"/><path d="M305.7 149.9c-1.7 0-3.2-.2-4.6-.7-.4-.2-.7-.4-.7-.6-.1-.5.3-.9.9-1.7 1.7-1.9 4.7-5.5.6-12.6-.5 4.9-2.7 11.3-9.9 15-2.1 1.1-5 .6-8-1.5-4.5-3-9.1-9.3-8.7-14.3 0-.4.2-.7.4-.8.4-.3 1.1-.1 2 .3 2.5.8 7.2 2.3 13.3-3.3-5.3 1.1-12.6 1.1-18.6-4-1.6-1.3-2-3.4-1.4-6.1 1.3-5.2 7-12 12.6-13.3.5-.1.8-.1 1 .1.4.3.3.9.3 1.8-.1 2.4-.3 7 7.6 10.5-2.8-4.2-5.1-10.6-1.6-17.4.9-1.8 3.1-2.9 6.3-3.1 5.8-.4 14.3 2.4 17.4 6.9.2.3.3.6.2.9-.2.5-.8.6-1.8.9-2.6.7-7.3 1.9-8.6 9.9 3.6-3.7 9.4-7.7 17.6-6.8 2.4.3 4.3 2.1 5.5 5.2 1.8 4.9 1.4 12.7-2.1 16.5-.3.3-.5.4-.8.4-.5 0-.9-.6-1.5-1.3-1.5-2-4.3-5.7-12.9-4.4 4.9 2 10.9 5.8 12.5 13.2.4 1.8-.5 3.7-2.5 5.4-3.2 2.7-9.3 4.9-14.5 4.9zm-4-16.8l.3.5c4.6 7.7 1.4 11.5-.4 13.5-.5.6-.9 1.1-.9 1.4 0 .1.2.3.5.4 5.5 2 14.6-.6 18.8-4.2 1.3-1.1 2.8-3 2.4-5.1-1.6-7.5-7.9-11.3-12.8-13.2l-.6-.2.6-.1c9.3-1.6 12.3 2.4 13.9 4.5.5.6.9 1.2 1.2 1.2.2 0 .3-.1.6-.3 3.4-3.7 3.8-11.3 2-16.2-1.1-3-3-4.8-5.2-5-8.4-.9-14.3 3.3-17.7 7.1l-.4.4.1-.5c1.2-8.6 6.3-9.9 9-10.7.8-.2 1.5-.4 1.6-.7 0-.1 0-.3-.2-.6-2.9-4.3-11.4-7.1-17.1-6.7-2.1.1-4.9.7-6 2.9-3.5 7-.9 13.4 1.9 17.6l.3.5-.5-.2c-8.7-3.7-8.5-8.5-8.4-11.1 0-.8.1-1.4-.2-1.6-.1-.1-.4-.1-.7 0-5.6 1.2-11.1 7.9-12.4 13-.4 1.8-.6 4.2 1.3 5.8 6.2 5.2 13.7 4.9 18.9 3.8l.6-.1-.4.4c-6.5 6.3-11.5 4.7-14.1 3.8-.8-.3-1.5-.5-1.7-.3-.1.1-.2.3-.2.5-.4 4.8 4.1 11 8.5 14 2.9 2 5.7 2.5 7.7 1.4 7.4-3.7 9.4-10.4 9.8-15.2l-.1-.7z" fill="#fff"/><ellipse class="st4" cx="300.1" cy="125.3" rx="5.3" ry="4.8"/><ellipse class="st3" cx="300.1" cy="125.3" rx="4" ry="3.6"/><path class="st3" d="M524 0h-91v.3l-100.4 56 1.5 2.6L434.3 3H524zM0 0h28.3v.3l176.1 56-1.5 2.6L27 3H0z"/><path class="st4" d="M524 53h-45v.6L354.5 80.7l.6 2.9 126.1-27.4-.1-.2H524zM0 53h93.4v.6l125.1 27.1-.6 2.9L91.3 56.2V56H0zm479.4 164l-126.7-32.5-.7 2.9L479 220h45v-3zm-392.8 0l126.7-32.5.7 2.9L87 220H0v-3z"/><path class="st3" d="M524 164H408l-44-11-.7 3.1 43.7 10.6v.3h117z"/><path class="st4" d="M217 81h139v3H217z"/><path class="st3" d="M202 56h133v3H202zM0 164h33v3H0z"/><path transform="matrix(.999 -.04442 .04442 .999 -7.085 5.14)" class="st3" d="M32.8 160.5h158.5v3H32.8z"/></svg>