<svg version="1.1" id="图层_1" xmlns="http://www.w3.org/2000/svg" x="0" y="0" width="220" height="264" xml:space="preserve"><style>.st0{fill:#eaeaea}.st1{fill:#e5e5e5}.st2{fill:#747577}.st3{fill:#adadad}.st4{fill:#9e9e9e}.st5{fill:#d6d7d7}.st6{fill:#fff}</style><path class="st0" d="M220 0H0v264h220V0z"/><path class="st1" d="M164 0h56v264h-56z"/><path class="st2" d="M217 0h3v264h-3z"/><path class="st3" d="M164 0h3v264h-3zM20.7 153.7c0-44.8 20-112.7 64.2-116 1-.1 1.9 0 2.9 0v-14L163 65.8 145.8 132s-50.5 50-52.1 51.1c-1.6 1-80.3-11.4-81.3-14.3s8.3-15.1 8.3-15.1z"/><path class="st2" d="M93.1 183.8c-9 0-70.1-10.2-79.4-13.5-1.4-.5-1.9-.8-2.1-1.3-1-3 5.8-12.4 8.2-15.5 0-24.9 5.9-52.4 15.6-73.6 8.5-18.5 23.9-41 49.3-42.9.7-.1 1.4 0 2.1 0V23.8c0-.3.2-.6.4-.7.2-.1.6-.2.8 0L163.4 65c.3.2.5.6.4.9l-17.2 66.2c0 .1-.1.3-.2.4-5.2 5.1-50.6 50.1-52.3 51.2-.1.1-.5.1-1 .1zm-80-15.5c4.2 2.9 73.5 13.9 79.9 13.9h.3c2.5-2.1 37.9-37 51.8-50.7l17-65.3-73.6-41v12.6c0 .2-.1.4-.2.6-.2.2-.4.2-.6.2H87c-.7 0-1.4-.1-2 0-43.2 3.2-63.4 70.6-63.4 115.2 0 .2-.1.4-.2.5-4.3 5.5-8.5 12.3-8.3 14zm0 .2zm7.6-14.8z"/><path class="st4" d="M139.3 80.4L82.4 38.8l1.3-.1 2.2-.2 2.5.2 52.8 39z"/><circle class="st5" cx="136" cy="159" r="81.2"/><path class="st2" d="M136 241c-45.2 0-82-36.8-82-82s36.8-82 82-82 82 36.8 82 82-36.8 82-82 82zm0-162.4c-44.3 0-80.4 36.1-80.4 80.4s36.1 80.4 80.4 80.4c44.3 0 80.4-36.1 80.4-80.4S180.3 78.6 136 78.6z"/><path transform="rotate(90 176.965 117.855)" class="st5" d="M119.9 78.1H234v79.5H119.9z"/><path class="st2" d="M137.2 59.9h1.6v18.6h-1.6z"/><path class="st3" d="M137.2 57.9h79.5l-53.9-34.1H87.7z"/><path class="st0" d="M137.2 57.9L87.7 23.8v5.7l49.5 34.2z"/><path transform="rotate(90 176.965 64.465)" class="st2" d="M176.2 24.7h1.6v79.5h-1.6z"/><path class="st6" d="M55.6 159H54c0-45.2 36.8-82 82-82v1.6c-44.3 0-80.4 36.1-80.4 80.4z"/><circle class="st2" cx="137.5" cy="159" r="54.4"/><path class="st5" d="M152.3 111.3s-10.6 16.4-12.1 33.6-9.1 0-9.1 0-6.8-15.3 5.5-38.3l15.7 4.7zm-47.9 10.6s8.9 17.4 23 27.3c14.2 9.9-4.6 7.9-4.6 7.9s-16.7-1.8-30.4-23.9l12-11.3zm-14.8 46.9s19.5 1 35.1-6.3c15.7-7.3 4.6 7.9 4.6 7.9s-9.9 13.5-35.9 14.3l-3.8-15.9zm33.1 36.1s10.6-16.4 12.1-33.6 9.1 0 9.1 0 6.8 15.3-5.5 38.3l-15.7-4.7zm47.9-10.6s-8.9-17.4-23-27.3 4.6-7.9 4.6-7.9 16.7 1.8 30.4 23.9l-12 11.3zm14.8-46.8s-19.5-1-35.1 6.3c-15.7 7.3-4.6-7.9-4.6-7.9s9.9-13.5 35.9-14.3l3.8 15.9z"/><path class="st5" d="M137.4 145.8c-6.8 0-12.3 5.5-12.3 12.3 0 6.8 5.5 12.3 12.3 12.3 6.8 0 12.3-5.5 12.3-12.3 0-6.8-5.5-12.3-12.3-12.3zm0 17.6c-2.9 0-5.2-2.3-5.2-5.2 0-2.9 2.3-5.2 5.2-5.2s5.2 2.3 5.2 5.2c0 2.8-2.3 5.2-5.2 5.2z"/><path d="M137.5 214.6c-30.7 0-55.6-25-55.6-55.6 0-30.7 25-55.6 55.6-55.6s55.6 25 55.6 55.6c0 30.7-24.9 55.6-55.6 55.6zm0-108.8c-29.3 0-53.2 23.9-53.2 53.2s23.9 53.2 53.2 53.2c29.3 0 53.2-23.9 53.2-53.2s-23.9-53.2-53.2-53.2z" fill="#62605e"/><path class="st6" d="M138.5 209.8l-16.1-4.8.1-.2c.1-.2 10.6-16.5 12.1-33.5 0-.4.1-.7.1-1-1.5-.3-2.9-.9-4.1-1.7-.7 1.1-1.2 1.8-1.2 1.8-.1.1-10.2 13.6-36 14.4h-.1v-.1l-3.9-16.2h.2c.2 0 19.6.9 35.1-6.3l.6-.3c.1 0 .2-.1.3-.1-.4-1.3-.6-2.6-.6-3.8v-.7c-1.3 0-2.2-.1-2.2-.1-.2 0-16.9-2-30.5-24l-.1-.1.1-.1 12.1-11.4.1.2c.1.2 9 17.5 23 27.2.3.2.5.4.8.6 1-1.1 2.2-2 3.6-2.7-.6-1.1-1-2-1-2-.1-.2-6.7-15.6 5.5-38.4l.1-.1h.1l15.9 4.7-.1.2c-.1.2-10.6 16.5-12.1 33.5 0 .4-.1.7-.1 1.1 1.5.3 2.8.9 4.1 1.8.7-1.1 1.3-1.9 1.3-1.9.1-.1 10.2-13.6 36-14.4h.1v.1l3.9 16.2h-.2c-.2 0-19.6-.9-35.1 6.3-.3.1-.5.2-.8.3-.1 0-.2.1-.3.1.4 1.3.6 2.5.6 3.7v.7c1.4 0 2.4.1 2.4.1.2 0 16.9 2 30.5 24l.1.1-12.2 11.5-.1-.2c-.1-.2-9-17.5-23-27.2-.3-.2-.6-.5-.9-.7-1 1.1-2.2 2-3.5 2.7.6 1.2 1 2.1 1 2.1.1.2 6.7 15.6-5.5 38.4l-.1.2zm-15.5-4.9l15.4 4.6c12.1-22.5 5.5-37.8 5.5-38 0 0-.4-1-1.1-2.2l-.1-.1.2-.1c1.4-.7 2.6-1.6 3.7-2.8l.1-.1.1.1c.3.2.7.5 1 .8 13.2 9.2 22 25.2 23 27.2l11.7-11c-13.5-21.7-30-23.7-30.2-23.7 0 0-1.1-.1-2.5-.1h-.2v-1.1c0-1.2-.2-2.4-.6-3.7v-.1l.1-.1c.1-.1.3-.1.4-.2.2-.1.5-.2.8-.3 14.6-6.8 32.8-6.4 35-6.3l-3.7-15.6c-25.6.8-35.5 14.1-35.6 14.3 0 0-.6.9-1.4 2l-.1.1-.1-.1c-1.3-.9-2.7-1.5-4.3-1.8h-.1v-.1c0-.4.1-.8.1-1.2 1.4-16.1 10.9-31.6 12-33.5l-15.4-4.6c-12.1 22.5-5.5 37.8-5.5 38 0 0 .4.9 1.1 2.1l.1.2-.2.1c-1.4.7-2.7 1.6-3.7 2.8l-.1.1-.1-.1c-.3-.2-.6-.4-.9-.7-13.2-9.2-22-25.2-23-27.2l-11.7 11c13.5 21.7 30 23.7 30.2 23.7 0 0 1 .1 2.3.1h.2v1.1c0 1.2.2 2.5.7 3.8v.1l-.1.1c-.1.1-.3.1-.4.2l-.6.3c-14.6 6.8-32.8 6.4-35 6.3l3.7 15.6c25.6-.8 35.5-14.1 35.6-14.3 0 0 .6-.8 1.3-1.9l.1-.1.1.1c1.3.9 2.8 1.5 4.3 1.8h.1v.1c0 .4-.1.7-.1 1.1-1.5 15.9-11 31.4-12.1 33.3zm14.4-41.3c-3 0-5.4-2.4-5.4-5.4s2.4-5.4 5.4-5.4 5.4 2.4 5.4 5.4-2.4 5.4-5.4 5.4zm0-10.5c-2.8 0-5.1 2.3-5.1 5.1s2.3 5.1 5.1 5.1 5.1-2.3 5.1-5.1-2.3-5.1-5.1-5.1z"/><path transform="rotate(90 162.618 40.872)" class="st4" d="M145.7 38.5h33.9v4.7h-33.9z"/><path class="st2" d="M138.1 66.1c-.2 0-.3 0-.5-.2L87.2 30.1c-.2-.2-.3-.4-.3-.7v-5.7c0-.5.4-.8.8-.8h75.2c.2 0 .3 0 .4.1l53.9 34.1c.4.2.5.7.3 1.1-.2.4-.7.5-1.1.3l-53.7-34H88.5v4.4l50.1 35.6c.4.3.5.8.2 1.1-.2.4-.5.5-.7.5z"/><path transform="rotate(90 176.965 60.783)" class="st0" d="M174.1 21h5.7v79.5h-5.7z"/><g><path class="st1" d="M0 0h56v264H0z"/><path class="st2" d="M53 0h3v264h-3z"/><path class="st3" d="M0 0h3v264H0z"/></g></svg>