<svg version="1.1" id="图层_1" xmlns="http://www.w3.org/2000/svg" x="0" y="0" width="190" height="270" xml:space="preserve"><style>.st3{fill:#e5e5e5}.st4{fill:#adadad}.st5{fill:#747577}.st6{fill:#d6d7d7}</style><path fill="#4c739b" d="M87 218h16v52H87z"/><path fill="#295ba9" d="M88.3 218h13.3v52H88.3z"/><path d="M0 0v220h190V0H0z" fill="#eaeaea"/><path class="st3" d="M0 0h190v56H0z"/><path class="st4" d="M0 0h190v3H0z"/><path class="st5" d="M0 53h190v3H0z"/><path class="st3" d="M0 164h190v56H0z"/><path class="st4" d="M0 164h190v3H0z"/><path class="st5" d="M0 217h190v3H0z"/><path class="st6" d="M87.3 55.6h15.3V195H87.3z"/><path class="st5" d="M103 195.3H87V55.2h16v140.1zm-15.3-.7h14.6V55.9H87.7v138.7z"/><ellipse class="st5" cx="95" cy="195.1" rx="8" ry="4"/><ellipse class="st5" cx="95" cy="36.6" rx="7.4" ry="3.8"/><path transform="rotate(-90 105.383 83.5)" class="st6" d="M98.1 66.6h14.6v33.8H98.1z"/><path class="st5" d="M122.5 91H88.3V76h34.2v15zm-33.9-.4h33.5V76.4H88.6v14.2z"/><path class="st5" d="M108 76h-4v-7H87v29h17v-7h4z"/><ellipse class="st5" cx="121.9" cy="83.7" rx="1.9" ry="7"/><path transform="rotate(-90 105.383 136.5)" class="st6" d="M98.1 119.6h14.6v33.8H98.1z"/><path class="st5" d="M122.5 144H88.3v-15h34.2v15zm-33.9-.4h33.5v-14.2H88.6v14.2z"/><path class="st5" d="M108 129h-4v-7H87v29h17v-7h4z"/><ellipse class="st5" cx="122" cy="136.7" rx="2" ry="7"/><linearGradient id="SVGID_1_" gradientUnits="userSpaceOnUse" x1="33.407" y1="82.585" x2="49.766" y2="82.585" gradientTransform="matrix(1.446 .00522 -.0036 1 80.3 .72)"><stop offset="0" stop-color="#295ba9"/><stop offset=".105" stop-color="#2f60ab" stop-opacity=".895"/><stop offset=".244" stop-color="#406cb2" stop-opacity=".756"/><stop offset=".403" stop-color="#5b82bd" stop-opacity=".597"/><stop offset=".576" stop-color="#829fcd" stop-opacity=".424"/><stop offset=".761" stop-color="#b4c5e1" stop-opacity=".239"/><stop offset=".953" stop-color="#eff3f9" stop-opacity=".047"/><stop offset="1" stop-color="#fff" stop-opacity="0"/></linearGradient><path d="M151.9 93.5l-23.6-4s1.3-1.6 1.3-6c0-3.8-1.2-6.1-1.2-6.1l23.7-3.9-.2 20z" fill="url(#SVGID_1_)"/><linearGradient id="SVGID_2_" gradientUnits="userSpaceOnUse" x1="33.54" y1="135.587" x2="49.898" y2="135.587" gradientTransform="matrix(1.446 .00522 -.0036 1 80.3 .72)"><stop offset="0" stop-color="#295ba9"/><stop offset=".105" stop-color="#2f60ab" stop-opacity=".895"/><stop offset=".244" stop-color="#406cb2" stop-opacity=".756"/><stop offset=".403" stop-color="#5b82bd" stop-opacity=".597"/><stop offset=".576" stop-color="#829fcd" stop-opacity=".424"/><stop offset=".761" stop-color="#b4c5e1" stop-opacity=".239"/><stop offset=".953" stop-color="#eff3f9" stop-opacity=".047"/><stop offset="1" stop-color="#fff" stop-opacity="0"/></linearGradient><path d="M151.9 146.6l-23.6-4s1.3-1.6 1.3-6c0-3.8-1.2-6.1-1.2-6.1l23.7-3.9-.2 20z" fill="url(#SVGID_2_)"/></svg>