<svg version="1.1" id="图层_1" xmlns="http://www.w3.org/2000/svg" xmlns:xlink="http://www.w3.org/1999/xlink" x="0" y="0" width="190" height="270" xml:space="preserve"><style>.st0{fill:#0c81bc}.st3{fill:#eaeaea}.st4{fill:#e5e5e5}.st5{fill:#adadad}.st6{fill:#747577}.st8{fill:#c1c1c1}</style><path class="st0" d="M124 219h12v51h-12z"/><path fill="#368699" d="M125 219h10v51h-10z"/><path class="st0" d="M54 219h12v51H54z"/><path fill="#75a8bc" d="M55 219h10v51H55z"/><path class="st3" d="M0 0v220h190V0H0z"/><path class="st4" d="M0 0h190v56H0z"/><path class="st5" d="M0 0h190v3H0z"/><path class="st6" d="M0 53h190v3H0z"/><g><path class="st4" d="M0 164h190v56H0z"/><path class="st5" d="M0 164h190v3H0z"/><path class="st6" d="M0 217h190v3H0z"/></g><g><path fill="#d6d7d7" d="M150.1 215.1h-4.6l-3.2-1.4h-30.5l-2.7 1.4h-5.2V58.8h46.2z"/><path class="st8" d="M39.7 55.2v116.5l64.2 43.4V58.8l-5.7-3.6z"/><path fill="#cecece" d="M98.2 55.2l5.7 3.6h4.9l2.9 1.3h30.8l3.2-1.3h4.4l-5.5-3.6z"/><path class="st8" d="M89.8 55.8l9.9 6.8v140.5l-55.9-37.3v-110z"/><path class="st3" d="M139.3 55.2l5.8 3.9v155h1.2V58.5l-5.1-3.3h-1.1zm-35.8 0h-2l6.8 4v155h1.1V58.5z"/><defs><path id="SVGID_1_" d="M89.8 55.8l9.9 6.8v140.5l-55.9-37.3v-110z"/></defs><clipPath id="SVGID_2_"><use xlink:href="#SVGID_1_" overflow="visible"/></clipPath><g clip-path="url(#SVGID_2_)"><path class="st5" d="M94.5 68.5h-.1L52.2 57c-1.6-.4-2.9-2.2-2.9-4.1 0-1.8 1.3-2.9 2.9-2.5l42.2 11.3s.1 0 5.3 1.5v-5.7L50.4 44.4c-3.6-1-6.6 1.6-6.6 5.7v2.6c0 4.1 2.9 8.3 6.6 9.3l44 12.1v-5.6z"/><path class="st5" d="M49.9 68.4s.1 0 .1.1l42.1 11.7c1.7.5 3-.7 3-2.5 0-1.9-1.4-3.7-3-4.2L50 61.9h-.1v-5.6l44 12c3.8 1 7 5.3 7 9.6v2.7c0 4.3-3.1 6.8-7 5.8L49.9 74v-5.6z"/><path class="st5" d="M94.5 92.8h-.1l-42.2-12c-1.6-.5-2.9-2.3-2.9-4.1 0-1.8 1.3-2.9 2.9-2.5l42.2 11.9s.1 0 .1.1v-5.7l-44-12.3c-3.6-1-6.6 1.5-6.6 5.6v2.6c0 4.1 2.9 8.3 6.6 9.4l44 12.7v-5.7z"/><path class="st5" d="M49.9 92.1s.1 0 .1.1l42.1 12.3c1.7.5 3-.6 3-2.5s-1.4-3.7-3-4.2L50 85.7h-.1v-5.6l44 12.5c3.8 1.1 7 5.4 7 9.7v2.7c0 4.3-3.1 6.8-7 5.7l-44-13v-5.6z"/><path class="st5" d="M94.5 117.2h-.1l-42.2-12.6c-1.6-.5-2.9-2.3-2.9-4.1 0-1.8 1.3-2.9 2.9-2.4l42.2 12.4s.1 0 .1.1v-5.7L50.4 92c-3.6-1.1-6.6 1.4-6.6 5.6v2.6c0 4.1 2.9 8.4 6.6 9.5l44 13.2v-5.7z"/><path class="st5" d="M49.9 116s.1 0 .1.1l42.1 12.8c1.7.5 3-.6 3-2.4 0-1.9-1.4-3.8-3-4.3L50 109.5h-.1v-5.6l44 13.1c3.8 1.1 7 5.5 7 9.8v2.7c0 4.3-3.1 6.8-7 5.6l-44-13.5V116z"/><path class="st5" d="M94.5 141.5h-.1l-42.2-13.1c-1.6-.5-2.9-2.4-2.9-4.2 0-1.8 1.3-2.9 2.9-2.4l42.2 13s.1 0 .1.1v-5.7l-44-13.4c-3.6-1.1-6.6 1.3-6.6 5.5v2.6c0 4.1 2.9 8.4 6.6 9.5l44 13.8v-5.7z"/><path class="st5" d="M49.9 139.7s.1 0 .1.1l42.1 13.3c1.7.5 3-.5 3-2.4s-1.4-3.8-3-4.3L50 133.2h-.1v-5.6l44 13.7c3.8 1.2 7 5.6 7 9.9v2.7c0 4.3-3.1 6.7-7 5.5l-44-14.1v-5.6z"/><path class="st5" d="M94.5 165.9h-.1l-42.2-13.7c-1.6-.5-2.9-2.4-2.9-4.2 0-1.8 1.3-2.9 2.9-2.3l42.2 13.5s.1 0 .1.1v-5.7l-44-14c-3.6-1.2-6.6 1.3-6.6 5.4v2.6c0 4.1 2.9 8.4 6.6 9.6l44 14.4v-5.7z"/><path class="st5" d="M49.9 163.5l.1.1 42.1 13.9c1.7.6 3-.5 3-2.4s-1.4-3.8-3-4.3L50 157h-.1v-5.6l44 14.3c3.8 1.2 7 5.7 7 10v2.7c0 4.3-3.1 6.7-7 5.4l-44-14.7v-5.6z"/><g><path class="st5" d="M94.5 190.2h-.1L52.2 176c-1.6-.5-2.9-2.4-2.9-4.2 0-1.8 1.3-2.8 2.9-2.3l42.2 14 .1.1v-5.7l-44-14.5c-3.6-1.2-6.6 1.2-6.6 5.3v2.6c0 4.1 2.9 8.5 6.6 9.7l44 15v-5.8z"/><path class="st5" d="M49.9 187.3l.1.1 42.1 14.4c1.7.6 3-.5 3-2.3 0-1.9-1.4-3.8-3-4.4L50 180.8h-.1v-5.6l44 14.8c3.8 1.3 7 5.8 7 10.1v2.7c0 4.3-3.1 6.6-7 5.3l-44-15.2v-5.6z"/></g></g><path fill="none" d="M39.7 55.2v116.5l64.2 43.4V58.8l-5.7-3.6z"/><defs><path id="SVGID_3_" d="M99.7 203.7c-.1 0-.2 0-.3-.1l-55.9-37.4c-.2-.1-.3-.3-.3-.5v-110c0-.3.3-.6.6-.6s.6.3.6.6v109.7L99.1 202V62.9l-9.7-6.6c-.3-.2-.3-.6-.2-.8.2-.3.5-.3.8-.2l9.9 6.8c.2.1.3.3.3.5v140.6c0 .2-.1.4-.3.5h-.2z"/></defs><use xlink:href="#SVGID_3_" overflow="visible" fill="#747577"/><clipPath id="SVGID_4_"><use xlink:href="#SVGID_3_" overflow="visible"/></clipPath><path clip-path="url(#SVGID_4_)" fill="#747577" d="M39.7 55.8v116.5l64.2 43.4V59.4l-5.7-3.6z"/><defs><path id="SVGID_5_" d="M150.1 215.4h-4.6l-3.2-1.4h-30.5l-2.7 1.4h-5.2V60.1h46.2z"/></defs><clipPath id="SVGID_6_"><use xlink:href="#SVGID_5_" overflow="visible"/></clipPath><g opacity=".6" clip-path="url(#SVGID_6_)"><path d="M114.1 50.6h7.4v163h-7.4zm17.8 0h7.4v163h-7.4z" fill="#295ba9"/></g><path d="M145.7 58.2l-3.3 1.3h-30.5l-2.8-1.2h-5.2l-4.6-3h-1.9l5.7 3.9v156.6h5.6l2.9-1.4h30.3l3.1 1.3h5.4V58.2h-4.7zm3.4 156.3h-3.9l-3.1-1.3h-30.8l-2.9 1.4h-4.3V59.4h4.4l2.8 1.2 31 .1 3.3-1.3h3.3v155.1z" fill="#fff"/><path class="st6" d="M108.7 216.4h-5.6c-.4 0-.7-.3-.7-.7v-.2l-63.1-42.7c-.2-.1-.3-.3-.3-.6V55.1c0-.4.3-.7.7-.7h104.9c.1 0 .3 0 .4.1l4.5 2.9h.9c.4 0 .7.3.7.7v157.5c0 .2-.1.3-.2.5-.1.1-.3.2-.5.2H145c-.1 0-.2 0-.3-.1l-2.9-1.3h-30l-2.8 1.3c-.1.1-.2.2-.3.2zm-4.9-1.4h4.8l2.8-1.3c.1 0 .2-.1.3-.1H142c.1 0 .2 0 .3.1l2.9 1.3h4.6V58.9h-.5c-.1 0-.3 0-.4-.1l-4.5-2.9H40.3V172l63.1 42.7c.2 0 .3.2.4.3z"/></g></svg>