<svg version="1.1" id="图层_1" xmlns="http://www.w3.org/2000/svg" xmlns:xlink="http://www.w3.org/1999/xlink" x="0" y="0" width="190" height="220" xml:space="preserve"><style>.st0{fill:#eaeaea}.st1{fill:#e5e5e5}.st2{fill:#adadad}.st3{fill:#747577}.st7{fill:#fff}.st8{opacity:.8;fill:#295ba9}</style><path class="st0" d="M0 0v220h190V0H0z"/><path class="st1" d="M0 0h190v56H0z"/><path class="st2" d="M0 0h190v3H0z"/><path class="st3" d="M0 53h190v3H0z"/><path class="st1" d="M0 164h190v56H0z"/><path class="st2" d="M0 164h190v3H0z"/><path class="st3" d="M0 217h190v3H0z"/><g><path fill="#d6d7d7" d="M139.3 214.7h-4.5l-3.2-1.4h-9.2l-2.7 1.4h-5.2V58.8h24.8z"/><path fill="#c1c1c1" d="M50.4 55.2v116.2l64.1 43.3V58.8l-5.7-3.6z"/><path fill="#cecece" d="M108.8 55.2l5.7 3.6h5l2.9 1.2 9.3.1 3.2-1.3h4.4l-5.5-3.6z"/><path class="st7" d="M100.4 55.2l10 6.8v140.2l-55.8-37.3V55.2z"/><path class="st8" d="M120.1 58.4v1.1l1.7.9v151.9h1.2V59.7l-8.2-4.5h-.6z"/><path class="st0" d="M129.9 55.2l5.8 3.9v154.6h1.2V58.5l-5.1-3.3h-1.1zm-15.7 0h-2.1l6.8 3.9v154.7h1.2V58.4z"/><path class="st8" d="M132 60.4v151.9h1.2V59.7l-.3-.2h-2.4z"/><defs><path id="SVGID_1_" d="M99.8 55.8l10 6.8v140.2L54 165.5V55.8z"/></defs><clipPath id="SVGID_2_"><use xlink:href="#SVGID_1_" overflow="visible"/></clipPath><path d="M189 127.5l.7-.7-2-2 2-2-.7-.8-2 2-3.8-3.8 2-2-.7-.7-2 2-3.8-3.8 2-2-.7-.7-2 2-3.8-3.8 2-2-.7-.7-2 2-3.8-3.8 2-2-.7-.7-2 2-3.8-3.8 2-2-.7-.7-2 2-3.8-3.8 2-2-.7-.7-2 2-3.8-3.8 2-2-.7-.7-2 2-3.8-3.8 2-2-.7-.7-2 2-3.8-3.8 2-2-.7-.7-2 2-3.8-3.8 2-2-.7-.7-2 2-3.8-3.8 2-2-.7-.7-2 2-3.8-3.8 2-2-.7-.7-2 2-3.8-3.8 2-2-.7-.7-2 2-3.8-3.8 2-2-.7-.7-2 2-3.8-3.8 2-2-.7-.7-2 2-3.8-3.8 2-2-.7-.7-2 2-3.8-3.8 2-2-.7-.7-2 2-3.8-3.8 2-2-.7-.7-2 2-3.8-3.8 2-2-.7-.7-2 2-3.8-3.8 2-2-.7-.7-2 2-4-3.9 2-2-.7-.7-2 2-3.8-3.8 2-2-.7-.7-2 2-2-2-.8.6 2 2-3.8 3.8-2-2-.7.7 2 2-3.8 3.8-2-2-.7.7 2 2-3.8 3.8-2-2-.7.7 2 2-3.8 3.8-2-2-.7.7 2 2-3.8 3.8-2-2-.7.7 2 2-3.8 3.8-2-2-.7.7 2 2-3.8 3.8-2-2-.7.7 2 2-3.8 3.8-2-2-.7.7 2 2-3.8 3.8-2-2-.7.7 2 2-3.8 3.8-2-2-.7.7 2 2-3.8 3.8-2-2-.7.7 2 2-3.8 3.8-2-2-.7.7 2 2-3.8 3.8-2-2-.7.7 2 2-3.9 4-2-2-.7.7 2 2-3.8 3.8-2-2-.7.7 2 2-3.8 3.8-2-2-.7.7 2 2-3.8 3.8-2-2-.7.7 2 2-3.8 3.8-2-2-.7.7 2 2-3.8 3.8-2-2-.7.7 2 2-3.8 3.8-2-2-.7.7 2 2-3.8 3.8-2-2-.7.7 2 2-3.8 3.8-2-2-.7.7 2 2-2 2 .7.7 2-2 3.8 3.8-2 2 .7.7 2-2 3.8 3.8-2 2 .7.7 2-2 3.8 3.8-2 2 .7.7 2-2 3.8 3.8-2 2 .7.7 2-2 3.8 3.8-2 2 .7.7 2-2 3.8 3.8-2 2 .7.7 2-2 3.8 3.8-2 2 .7.7 2-2 3.8 3.8-2 2 .7.7 2-2 3.8 3.8-2 2 .7.7 2-2 3.8 3.8-2 2 .7.7 2-2 3.8 3.8-2 2 .7.7 2-2 3.8 3.8-2 2 .7.7 2-2 3.8 3.8-2 2 .7.7 2-2 3.8 3.8-2 2 .7.7 2-2 3.8 3.8-2 2 .7.7 2-2 3.8 3.8-2 2 .7.7 2-2 3.8 3.8-2 2 .7.7 2-2 3.8 3.8-2 2 .7.7 2-2 3.8 3.8-2 2 .7.7 2-2 3.8 3.8-2 2 .7.7 2-2 3.8 3.8-2 2 .7.7 2-2 3.8 3.8-2 2 .7.7 2-2 2 2 .7-.7-2-2 3.8-3.8 2 2 .7-.7-2-2 3.8-3.8 2 2 .7-.7-2-2 3.8-3.8 2 2 .7-.7-2-2 3.8-3.8 2 2 .7-.7-2-2 3.8-3.8 2 2 .7-.7-2-2 3.8-3.8 2 2 .7-.7-2-2 3.8-3.8 2 2 .7-.7-2-2 3.8-3.8 2 2 .7-.7-2-2 3.8-3.8 2 2 .7-.7-2-2 3.8-3.8 2 2 .7-.7-2-2 3.8-3.8 2 2 .7-.7-2-2 3.8-3.8 2 2 .7-.7-2-2 3.8-3.8 2 2 .7-.7-2-2 3.8-3.8 2 2 .7-.7-2-2 3.8-3.8 2 2 .7-.7-2-2 3.8-3.8 2 2 .7-.7-2-2 3.8-3.8 2 2 .7-.7-2-2 3.8-3.8 2 2 .7-.7-2-2 3.8-3.8 2 2 .7-.7-2-2 3.8-3.8 2 2 .7-.7-2-2 3.8-3.8 2 2 .7-.7-2-2 3.8-3.8 2.4 2.1zm-7.3-7.3l-3.8 3.8-3.8-3.8 3.8-3.8 3.8 3.8zM87 124.8l-3.8 3.8-3.8-3.8 3.8-3.8 3.8 3.8zm-3-4.5l3.8-3.8 3.8 3.8-3.8 3.8-3.8-3.8zm3.8 5.2l3.8 3.8-3.8 3.8-3.8-3.8 3.8-3.8zm.7-.7l3.8-3.8 3.8 3.8-3.8 3.8-3.8-3.8zm4.5-4.5l3.8-3.8 3.8 3.8-3.8 3.8-3.8-3.8zm-.7-.8l-3.8-3.8 3.8-3.8 3.8 3.8-3.8 3.8zm-4.5-4.5l-3.8-3.8 3.8-3.8 3.8 3.8-3.8 3.8zm-.8.7l-3.8 3.8-3.8-3.8 3.8-3.8 3.8 3.8zm-4.5 4.6l-3.8 3.8-3.8-3.8 3.8-3.8 3.8 3.8zm-4.5 4.5l-3.8 3.8-3.8-3.8 3.8-3.8 3.8 3.8zm.7.7l3.8 3.8-3.8 3.8-3.8-3.8 3.8-3.8zm4.5 4.5l3.8 3.8-3.8 3.8-3.8-3.8 3.8-3.8zm4.6 4.5l3.8 3.8-3.8 3.8-3.8-3.8 3.8-3.8zm.7-.7l3.8-3.8 3.8 3.8-3.8 3.8-3.8-3.8zm4.5-4.5l3.8-3.8 3.8 3.8-3.8 3.8-3.8-3.8zm4.5-4.5l3.8-3.8 3.8 3.8-3.8 3.8-3.8-3.8zm4.5-4.6l3.8-3.8 3.8 3.8-3.8 3.8-3.8-3.8zm-.7-.7l-3.8-3.8 3.8-3.8 3.8 3.8-3.8 3.8zm-4.5-4.5l-3.8-3.8 3.8-3.8 3.8 3.8-3.8 3.8zm-4.5-4.5l-3.8-3.8 3.8-3.8 3.8 3.8-3.8 3.8zm-4.5-4.5l-3.8-3.8 3.8-3.8 3.8 3.8-3.8 3.8zm-.8.7l-3.8 3.8-3.8-3.8 3.8-3.8 3.8 3.8zm-4.5 4.5l-3.8 3.8-3.8-3.8 3.8-3.8 3.8 3.8zm-4.5 4.5l-3.8 3.8-3.8-3.8 3.8-3.8 3.8 3.8zm-4.5 4.5l-3.8 3.8-3.8-3.8 3.8-3.8 3.8 3.8zm-4.5 4.6l-3.8 3.8-3.8-3.8 3.8-3.8 3.8 3.8zm.7.7l3.8 3.8-3.8 3.8-3.8-3.8 3.8-3.8zm4.5 4.5l3.8 3.8-3.8 3.8-3.8-3.8 3.8-3.8zm4.5 4.5l3.8 3.8-3.8 3.8-3.8-3.8 3.8-3.8zm4.5 4.5l3.8 3.8-3.8 3.8-3.8-3.8 3.8-3.8zm4.6 4.5l3.8 3.8-3.8 3.8-3.8-3.8 3.8-3.8zm.7-.7l3.8-3.8 3.8 3.8-3.8 3.8-3.8-3.8zm4.5-4.5l3.8-3.8 3.8 3.8-3.8 3.8-3.8-3.8zm4.5-4.5l3.8-3.8 3.8 3.8-3.8 3.8-3.8-3.8zm4.5-4.5l3.8-3.8 3.8 3.8-3.8 3.8-3.8-3.8zm4.5-4.5l3.8-3.8 3.8 3.8-3.8 3.8-3.8-3.8zm4.5-4.5l3.8-3.8 3.8 3.8-3.8 3.8-3.8-3.8zm-.7-.8l-3.8-3.8 3.8-3.8 3.8 3.8-3.8 3.8zm-4.5-4.5l-3.8-3.8 3.8-3.8 3.8 3.8-3.8 3.8zm-4.5-4.5l-3.8-3.8 3.8-3.8 3.8 3.8-3.8 3.8zm-4.5-4.5l-3.8-3.8 3.8-3.8 3.8 3.8-3.8 3.8zm-4.5-4.5l-3.8-3.8 3.8-3.8 3.8 3.8-3.8 3.8zM87.8 97L84 93.2l3.8-3.8 3.8 3.8-3.8 3.8zm-.8.7l-3.8 3.8-3.8-3.8 3.8-3.8 3.8 3.8zm-4.5 4.5l-3.8 3.8-3.8-3.8 3.8-3.8 3.8 3.8zm-4.5 4.5l-3.8 3.8-3.8-3.8 3.8-3.8 3.8 3.8zm-4.5 4.5l-3.8 3.8-3.8-3.8 3.8-3.8 3.8 3.8zm-4.5 4.5l-3.8 3.8-3.8-3.8 3.8-3.8 3.8 3.8zm-4.5 4.6l-3.8 3.8-3.8-3.8 3.8-3.8 3.8 3.8zm-4.5 4.5l-3.8 3.8-3.8-3.8 3.8-3.8 3.8 3.8zm.7.7l3.8 3.8-3.8 3.8-3.8-3.8 3.8-3.8zm4.5 4.5l3.8 3.8-3.8 3.8-3.8-3.8 3.8-3.8zm4.5 4.5l3.8 3.8-3.8 3.8-3.8-3.8 3.8-3.8zm4.5 4.5l3.8 3.8-3.8 3.8-3.8-3.8 3.8-3.8zm4.5 4.5l3.8 3.8-3.8 3.8-3.8-3.8 3.8-3.8zm4.5 4.5l3.8 3.8-3.8 3.8-3.8-3.8 3.8-3.8zm4.6 4.5l3.8 3.8-3.8 3.8-3.8-3.8 3.8-3.8zm.7-.7l3.8-3.8 3.8 3.8-3.8 3.8-3.8-3.8zm4.5-4.5l3.8-3.8 3.8 3.8-3.8 3.8-3.8-3.8zm4.5-4.5l3.8-3.8 3.8 3.8-3.8 3.8-3.8-3.8zm4.5-4.5l3.8-3.8 3.8 3.8-3.8 3.8-3.8-3.8zm4.5-4.5l3.8-3.8 3.8 3.8-3.8 3.8-3.8-3.8zm4.5-4.5l3.8-3.8 3.8 3.8-3.8 3.8-3.8-3.8zm4.5-4.5l3.8-3.8 3.8 3.8-3.8 3.8-3.8-3.8zm4.6-4.5l3.8-3.8 3.8 3.8-3.8 3.8-3.8-3.8zm-.8-.8l-3.8-3.8 3.8-3.8 3.8 3.8-3.8 3.8zm-4.5-4.5l-3.8-3.8 3.8-3.8 3.8 3.8-3.8 3.8zm-4.5-4.5l-3.8-3.8 3.8-3.8 3.8 3.8-3.8 3.8zm-4.5-4.5l-3.8-3.8 3.8-3.8 3.8 3.8-3.8 3.8zm-4.5-4.5l-3.8-3.8 3.8-3.8 3.8 3.8-3.8 3.8zM96.8 97L93 93.2l3.8-3.8 3.8 3.8-3.8 3.8zm-4.5-4.5l-3.8-3.8 3.8-3.8 3.8 3.8-3.8 3.8zM87.8 88L84 84.2l3.8-3.8 3.8 3.8-3.8 3.8zm-.8.7l-3.8 3.8-3.8-3.8 3.8-3.8 3.8 3.8zm-4.5 4.5L78.7 97 75 93.2l3.8-3.8 3.7 3.8zM78 97.7l-3.8 3.8-3.8-3.8 3.8-3.8 3.8 3.8zm-4.5 4.5l-3.8 3.8-3.8-3.8 3.8-3.8 3.8 3.8zm-4.5 4.5l-3.8 3.8-3.8-3.8 3.8-3.8 3.8 3.8zm-4.5 4.5l-3.8 3.8-3.8-3.8 3.8-3.8 3.8 3.8zm-4.5 4.5l-3.8 3.8-3.8-3.8 3.8-3.8 3.8 3.8zm-4.5 4.6l-3.8 3.8-3.8-3.8 3.8-3.8 3.8 3.8zm-4.6 4.5l-3.8 3.8-3.8-3.8 3.8-3.8 3.8 3.8zm.8.7l3.8 3.8-3.8 3.8-3.8-3.8 3.8-3.8zm4.5 4.5l3.8 3.8-3.8 3.8-3.8-3.8 3.8-3.8zm4.5 4.5l3.8 3.8-3.8 3.8-3.8-3.8 3.8-3.8zm4.5 4.5l3.8 3.8-3.8 3.8-3.8-3.8 3.8-3.8zm4.5 4.5l3.8 3.8-3.8 3.8-3.8-3.8 3.8-3.8zm4.5 4.5l3.8 3.8-3.8 3.8-3.8-3.8 3.8-3.8zm4.5 4.5l3.8 3.8-3.8 3.8-3.8-3.8 3.8-3.8zm4.5 4.6l3.8 3.8-3.8 3.8-3.8-3.8 3.8-3.8zm4.6 4.5l3.8 3.8-3.8 3.8-3.8-3.8 3.8-3.8zm.7-.8l3.8-3.8 3.8 3.8-3.8 3.8-3.8-3.8zm4.5-4.5l3.8-3.8 3.8 3.8-3.8 3.8-3.8-3.8zm4.5-4.5l3.8-3.8 3.8 3.8-3.8 3.8-3.8-3.8zm4.5-4.5l3.8-3.8 3.8 3.8-3.8 3.8-3.8-3.8zm4.5-4.5l3.8-3.8 3.8 3.8-3.8 3.8-3.8-3.8zm4.5-4.5l3.8-3.8 3.8 3.8-3.8 3.8-3.8-3.8zm4.5-4.5l3.8-3.8 3.8 3.8-3.8 3.8-3.8-3.8zm4.6-4.5l3.8-3.8 3.8 3.8-3.8 3.8-3.8-3.8zm4.5-4.5l3.8-3.8 3.8 3.8-3.8 3.8-3.8-3.8zm4.5-4.6l3.8-3.8 3.8 3.8-3.8 3.8-3.8-3.8zm-.8-.7l-3.8-3.8 3.8-3.8 3.8 3.8-3.8 3.8zm-4.5-4.5l-3.8-3.8 3.8-3.8 3.8 3.8-3.8 3.8zm-4.5-4.5l-3.8-3.8 3.8-3.8 3.8 3.8-3.8 3.8zm-4.5-4.5l-3.8-3.8 3.8-3.8 3.8 3.8-3.8 3.8zm-4.5-4.5l-3.8-3.8 3.8-3.8 3.8 3.8-3.8 3.8zm-4.5-4.5l-3.8-3.8 3.8-3.8 3.8 3.8-3.8 3.8zm-4.5-4.5l-3.8-3.8 3.8-3.8 3.8 3.8-3.8 3.8zM96.8 88L93 84.2l3.8-3.8 3.8 3.8-3.8 3.8zm-4.5-4.6l-3.8-3.8 3.8-3.8 3.8 3.8-3.8 3.8zm-4.5-4.5L84 75.2l3.8-3.8 3.8 3.8-3.8 3.7zm-.8.8l-3.8 3.8-3.8-3.8 3.8-3.8 3.8 3.8zm-4.5 4.5L78.7 88 75 84.2l3.8-3.8 3.7 3.8zM78 88.7l-3.8 3.8-3.8-3.8 3.8-3.8 3.8 3.8zm-4.5 4.5L69.7 97 66 93.2l3.8-3.8 3.7 3.8zM69 97.7l-3.8 3.8-3.8-3.8 3.8-3.8 3.8 3.8zm-4.5 4.5l-3.8 3.8-3.8-3.8 3.8-3.8 3.8 3.8zm-4.5 4.5l-3.8 3.8-3.8-3.8 3.8-3.8 3.8 3.8zm-4.5 4.5l-3.8 3.8-3.8-3.8 3.8-3.8 3.8 3.8zm-4.6 4.5l-3.8 3.8-3.8-3.8 3.8-3.8 3.8 3.8zm-4.5 4.5l-3.8 3.8-3.8-3.8 3.8-3.8 3.8 3.8zm-4.5 4.6l-3.8 3.8-3.8-3.8 3.8-3.8 3.8 3.8zm.8.7l3.8 3.8-3.8 3.8-3.8-3.8 3.8-3.8zm4.5 4.5l3.8 3.8-3.8 3.8-3.8-3.8 3.8-3.8zm4.5 4.5l3.8 3.8-3.8 3.8-3.8-3.8 3.8-3.8zm4.5 4.5l3.8 3.8-3.8 3.8-3.8-3.8 3.8-3.8zm4.5 4.5l3.8 3.8-3.8 3.8-3.8-3.8 3.8-3.8zm4.5 4.5l3.8 3.8-3.8 3.8-3.8-3.8 3.8-3.8zm4.5 4.5l3.8 3.8-3.8 3.8-3.8-3.8 3.8-3.8zm4.5 4.6l3.8 3.8-3.8 3.8-3.8-3.8 3.8-3.8zm4.5 4.5l3.8 3.8-3.8 3.8-3.8-3.8 3.8-3.8zm4.5 4.5l3.8 3.8-3.8 3.8-3.8-3.8 3.8-3.8zm4.6 4.5l3.8 3.8-3.8 3.8-3.8-3.8 3.8-3.8zm.7-.8l3.8-3.8 3.8 3.8-3.8 3.8-3.8-3.8zm4.5-4.5l3.8-3.8 3.8 3.8-3.8 3.8-3.8-3.8zm4.5-4.5l3.8-3.8 3.8 3.8-3.8 3.8-3.8-3.8zm4.5-4.5l3.8-3.8 3.8 3.8-3.8 3.8-3.8-3.8zm4.5-4.5l3.8-3.8 3.8 3.8-3.8 3.8-3.8-3.8zm4.5-4.5l3.8-3.8 3.8 3.8-3.8 3.8-3.8-3.8zm4.5-4.5l3.8-3.8 3.8 3.8-3.8 3.8-3.8-3.8zm4.6-4.5l3.8-3.8 3.8 3.8-3.8 3.8-3.8-3.8zm4.5-4.5l3.8-3.8 3.8 3.8-3.8 3.8-3.8-3.8zm4.5-4.5l3.8-3.8 3.8 3.8-3.8 3.8-3.8-3.8zm4.5-4.5l3.8-3.8 3.8 3.8-3.8 3.8-3.8-3.8zm4.5-4.5l3.8-3.8 3.8 3.8-3.8 3.8-3.8-3.8zm-.8-.8l-3.8-3.8 3.8-3.8 3.8 3.8-3.8 3.8zm-4.5-4.5l-3.8-3.8 3.8-3.8 3.8 3.8-3.8 3.8zm-4.5-4.5l-3.8-3.8 3.8-3.8 3.8 3.8-3.8 3.8zm-4.5-4.5l-3.8-3.8 3.8-3.8 3.8 3.8-3.8 3.8zm-4.5-4.5l-3.8-3.8 3.8-3.8 3.8 3.8-3.8 3.8zm-4.5-4.5l-3.8-3.8 3.8-3.8 3.8 3.8-3.8 3.8zm-4.5-4.5l-3.8-3.8 3.8-3.8 3.8 3.8-3.8 3.8zm-4.5-4.5l-3.8-3.8 3.8-3.8 3.8 3.8-3.8 3.8zm-4.5-4.6l-3.8-3.8 3.8-3.8 3.8 3.8-3.8 3.8zm-4.5-4.5L93 75.2l3.8-3.8 3.8 3.8-3.8 3.7zm-4.5-4.5l-3.8-3.8 3.8-3.8 3.8 3.8-3.8 3.8zm-4.5-4.5L84 66.1l3.8-3.8 3.8 3.8-3.8 3.8zm-.8.8l-3.8 3.8-3.8-3.8 3.8-3.8 3.8 3.8zm-4.5 4.5L78.7 79 75 75.2l3.8-3.8 3.7 3.8zM78 79.7l-3.8 3.8-3.8-3.8 3.8-3.8 3.8 3.8zm-4.5 4.5L69.7 88 66 84.2l3.8-3.8 3.7 3.8zM69 88.7l-3.8 3.8-3.8-3.8 3.8-3.8 3.8 3.8zm-4.5 4.5L60.7 97l-3.8-3.8 3.8-3.8 3.8 3.8zM60 97.7l-3.8 3.8-3.8-3.8 3.8-3.8 3.8 3.8zm-4.5 4.5l-3.8 3.8-3.8-3.8 3.8-3.8 3.8 3.8zm-4.6 4.5l-3.8 3.8-3.8-3.8 3.8-3.8 3.8 3.8zm-4.5 4.5l-3.8 3.8-3.8-3.8 3.8-3.8 3.8 3.8zm-4.5 4.5l-3.8 3.8-3.8-3.8 3.8-3.8 3.8 3.8zm-4.5 4.6l-3.8 3.8-3.8-3.8 3.8-3.8 3.8 3.8zm-4.5 4.5l-3.8 3.8-3.8-3.8 3.8-3.8 3.8 3.8zm.8.7l3.8 3.8-3.8 3.8-3.8-3.8 3.8-3.8zm4.5 4.5l3.8 3.8-3.8 3.8-3.8-3.8 3.8-3.8zm4.5 4.5l3.8 3.8-3.8 3.8-3.8-3.8 3.8-3.8zm4.5 4.5l3.8 3.8-3.8 3.8-3.8-3.8 3.8-3.8zm4.5 4.5l3.8 3.8-3.8 3.8-3.8-3.8 3.8-3.8zm4.5 4.5l3.8 3.8-3.8 3.8-3.8-3.8 3.8-3.8zm4.5 4.5l3.8 3.8-3.8 3.8-3.8-3.8 3.8-3.8zm4.5 4.6l3.8 3.8-3.8 3.8-3.8-3.8 3.8-3.8zm4.5 4.5l3.8 3.8-3.8 3.8-3.8-3.8 3.8-3.8zm4.5 4.5l3.8 3.8-3.8 3.8-3.8-3.8 3.8-3.8zm4.5 4.5l3.8 3.8-3.8 3.8-3.8-3.8 3.8-3.8zm4.5 4.5l3.8 3.8-3.8 3.8-3.8-3.8 3.8-3.8zm4.6 4.5l3.8 3.8-3.8 3.8-3.8-3.8 3.8-3.8zm.7-.7l3.8-3.8 3.8 3.8-3.8 3.8-3.8-3.8zm4.5-4.5l3.8-3.8 3.8 3.8-3.8 3.8-3.8-3.8zm4.5-4.6l3.8-3.8 3.8 3.8-3.8 3.8-3.8-3.8zm4.5-4.5l3.8-3.8 3.8 3.8-3.8 3.8-3.8-3.8zm4.5-4.5l3.8-3.8 3.8 3.8-3.8 3.8-3.8-3.8zm4.5-4.5l3.8-3.8 3.8 3.8-3.8 3.8-3.8-3.8zm4.5-4.5l3.8-3.8 3.8 3.8-3.8 3.8-3.8-3.8zm4.6-4.5l3.8-3.8 3.8 3.8-3.8 3.8-3.8-3.8zm4.5-4.5l3.8-3.8 3.8 3.8-3.8 3.8-3.8-3.8zm4.5-4.5l3.8-3.8 3.8 3.8-3.8 3.8-3.8-3.8zm4.5-4.5l3.8-3.8 3.8 3.8-3.8 3.8-3.8-3.8zm4.5-4.5l3.8-3.8 3.8 3.8-3.8 3.8-3.8-3.8zm4.5-4.5l3.8-3.8 3.8 3.8-3.8 3.8-3.8-3.8zm4.5-4.5l3.8-3.8 3.8 3.8-3.8 3.8-3.8-3.8zm-.7-.8l-3.8-3.8 3.8-3.8 3.8 3.8-3.8 3.8zm-4.5-4.5l-3.8-3.8 3.8-3.8 3.8 3.8-3.8 3.8zm-4.6-4.5l-3.8-3.8 3.8-3.8 3.8 3.8-3.8 3.8zm-4.5-4.5l-3.8-3.8 3.8-3.8 3.8 3.8-3.8 3.8zm-4.5-4.5l-3.8-3.8 3.8-3.8 3.8 3.8-3.8 3.8zm-4.5-4.5l-3.8-3.8 3.8-3.8 3.8 3.8-3.8 3.8zm-4.5-4.5l-3.8-3.8 3.8-3.8 3.8 3.8-3.8 3.8zm-4.5-4.5l-3.8-3.8 3.8-3.8 3.8 3.8-3.8 3.8zm-4.5-4.6l-3.8-3.8 3.8-3.8 3.8 3.8-3.8 3.8zm-4.5-4.5l-3.8-3.8 3.8-3.8 3.8 3.8-3.8 3.8zm-4.5-4.5l-3.8-3.8 3.8-3.8 3.8 3.8-3.8 3.8zm-4.5-4.5L93 66.1l3.8-3.8 3.8 3.8-3.8 3.8zm-4.5-4.5l-3.8-3.8 3.8-3.8 3.8 3.8-3.8 3.8zm-4.5-4.5L84 57.1l3.8-3.8 3.8 3.8-3.8 3.8zm-.8.7l-3.8 3.8-3.8-3.8 3.8-3.8 3.8 3.8zm-4.5 4.5l-3.8 3.8-3.7-3.8 3.8-3.8 3.7 3.8zM78 70.7l-3.8 3.8-3.8-3.8 3.8-3.8 3.8 3.8zm-4.5 4.5L69.7 79l-3.8-3.8 3.8-3.8 3.8 3.8zM69 79.7l-3.8 3.8-3.8-3.8 3.8-3.8 3.8 3.8zm-4.5 4.5L60.7 88l-3.8-3.8 3.8-3.8 3.8 3.8zM60 88.7l-3.8 3.8-3.8-3.8 3.8-3.8 3.8 3.8zm-4.5 4.5L51.7 97l-3.8-3.8 3.8-3.8 3.8 3.8zm-4.6 4.5l-3.8 3.8-3.8-3.8 3.8-3.8 3.8 3.8zm-4.5 4.5l-3.8 3.8-3.8-3.8 3.8-3.8 3.8 3.8zm-4.5 4.5l-3.8 3.8-3.8-3.8 3.8-3.8 3.8 3.8zm-4.5 4.5l-3.8 3.8-3.8-3.8 3.8-3.8 3.8 3.8zm-4.5 4.5l-3.8 3.8-3.8-3.8 3.8-3.8 3.8 3.8zm-4.5 4.6l-3.8 3.8-3.8-3.8 3.8-3.8 3.8 3.8zm-4.5 4.5l-3.8 3.8-3.8-3.8 3.8-3.8 3.8 3.8zm.7.7l3.8 3.8-3.8 3.8-3.8-3.8 3.8-3.8zm4.5 4.5l3.8 3.8-3.8 3.8-3.8-3.8 3.8-3.8zm4.6 4.5l3.8 3.8-3.8 3.8-3.8-3.8 3.8-3.8zm4.5 4.5l3.8 3.8-3.8 3.8-3.8-3.8 3.8-3.8zm4.5 4.5l3.8 3.8-3.8 3.8-3.8-3.8 3.8-3.8zm4.5 4.5l3.8 3.8-3.8 3.8-3.8-3.8 3.8-3.8zm4.5 4.5l3.8 3.8-3.8 3.8-3.8-3.8 3.8-3.8zm4.5 4.6l3.8 3.8-3.8 3.8-3.8-3.8 3.8-3.8zm4.5 4.5l3.8 3.8-3.8 3.8-3.8-3.8 3.8-3.8zm4.5 4.5l3.8 3.8-3.8 3.8-3.8-3.8 3.8-3.8zm4.5 4.5l3.8 3.8-3.8 3.8-3.8-3.8 3.8-3.8zm4.5 4.5l3.8 3.8-3.8 3.8-3.8-3.8 3.8-3.8zm4.5 4.5l3.8 3.8-3.8 3.8-3.8-3.8 3.8-3.8zm4.5 4.5l3.8 3.8-3.8 3.8-3.8-3.8 3.8-3.8zm4.6 4.5l3.8 3.8-3.8 3.8-3.8-3.8 3.8-3.8zm.7-.7l3.8-3.8 3.8 3.8-3.8 3.8-3.8-3.8zm4.5-4.5l3.8-3.8 3.8 3.8-3.8 3.8-3.8-3.8zm4.5-4.5l3.8-3.8 3.8 3.8-3.8 3.8-3.8-3.8zm4.5-4.5l3.8-3.8 3.8 3.8-3.8 3.8-3.8-3.8zm4.5-4.6l3.8-3.8 3.8 3.8-3.8 3.8-3.8-3.8zm4.5-4.5l3.8-3.8 3.8 3.8-3.8 3.8-3.8-3.8zm4.5-4.5l3.8-3.8 3.8 3.8-3.8 3.8-3.8-3.8zm4.6-4.5l3.8-3.8 3.8 3.8-3.8 3.8-3.8-3.8zm4.5-4.5l3.8-3.8 3.8 3.8-3.8 3.8-3.8-3.8zm4.5-4.5l3.8-3.8 3.8 3.8-3.8 3.8-3.8-3.8zm4.5-4.5l3.8-3.8 3.8 3.8-3.8 3.8-3.8-3.8zm4.5-4.5l3.8-3.8 3.8 3.8-3.8 3.8-3.8-3.8zm4.5-4.5l3.8-3.8 3.8 3.8-3.8 3.8-3.8-3.8zm4.5-4.5l3.8-3.8 3.8 3.8-3.8 3.8-3.8-3.8zm4.5-4.5l3.8-3.8 3.8 3.8-3.8 3.8-3.8-3.8zm4.5-4.6l3.8-3.8 3.8 3.8-3.8 3.8-3.8-3.8zm-.7-.7l-3.8-3.8 3.8-3.8 3.8 3.8-3.8 3.8zm-4.5-4.5l-3.8-3.8 3.8-3.8 3.8 3.8-3.8 3.8zm-4.5-4.5l-3.8-3.8 3.8-3.8 3.8 3.8-3.8 3.8zm-4.5-4.5l-3.8-3.8 3.8-3.8 3.8 3.8-3.8 3.8zm-4.5-4.5l-3.8-3.8 3.8-3.8 3.8 3.8-3.8 3.8zm-4.6-4.5l-3.8-3.8 3.8-3.8 3.8 3.8-3.8 3.8zm-4.5-4.5l-3.8-3.8 3.8-3.8 3.8 3.8-3.8 3.8zm-4.5-4.5l-3.8-3.8 3.8-3.8 3.8 3.8-3.8 3.8zm-4.5-4.6l-3.8-3.8 3.8-3.8 3.8 3.8-3.8 3.8zm-4.5-4.5l-3.8-3.8 3.8-3.8 3.8 3.8-3.8 3.8zm-4.5-4.5l-3.8-3.8 3.8-3.8 3.8 3.8-3.8 3.8zm-4.5-4.5l-3.8-3.8 3.8-3.8 3.8 3.8-3.8 3.8zm-4.5-4.5l-3.8-3.8 3.8-3.8 3.8 3.8-3.8 3.8zm-4.5-4.5L93 57.1l3.8-3.8 3.8 3.8-3.8 3.8zm-4.5-4.5l-3.8-3.8 3.8-3.8 3.8 3.8-3.8 3.8zm-4.5-4.5L84 48.1l3.8-3.8 3.8 3.8-3.8 3.8zm-.8.7l-3.8 3.8-3.8-3.8 3.8-3.8 3.8 3.8zm-4.5 4.5l-3.8 3.8-3.7-3.8 3.8-3.8 3.7 3.8zM78 61.6l-3.8 3.8-3.8-3.8 3.8-3.8 3.8 3.8zm-4.5 4.5l-3.8 3.8-3.7-3.8 3.8-3.8 3.7 3.8zM69 70.7l-3.8 3.8-3.8-3.8 3.8-3.8 3.8 3.8zm-4.5 4.5L60.7 79l-3.8-3.8 3.8-3.8 3.8 3.8zM60 79.7l-3.8 3.8-3.8-3.8 3.8-3.8 3.8 3.8zm-4.5 4.5L51.7 88l-3.8-3.8 3.8-3.8 3.8 3.8zm-4.6 4.5l-3.8 3.8-3.8-3.8 3.8-3.8 3.8 3.8zm-4.5 4.5L42.7 97l-3.8-3.8 3.8-3.8 3.7 3.8zm-4.5 4.5l-3.8 3.8-3.8-3.8 3.8-3.8 3.8 3.8zm-4.5 4.5l-3.8 3.8-3.8-3.8 3.8-3.8 3.8 3.8zm-4.5 4.5l-3.8 3.8-3.8-3.8 3.8-3.8 3.8 3.8zm-4.5 4.5l-3.8 3.8-3.8-3.8 3.8-3.8 3.8 3.8zm-4.5 4.5l-3.8 3.8-3.8-3.8 3.8-3.8 3.8 3.8zm-4.5 4.5l-3.8 3.8-3.8-3.8 3.8-3.8 3.8 3.8zm-4.5 4.6l-3.8 3.8-3.8-3.8 3.8-3.8 3.8 3.8zm.7.7l3.8 3.8-3.8 3.8-3.8-3.8 3.8-3.8zm4.5 4.5l3.8 3.8-3.8 3.8-3.8-3.8 3.8-3.8zm4.5 4.5l3.8 3.8-3.8 3.8-3.8-3.8 3.8-3.8zm4.5 4.5l3.8 3.8-3.8 3.8-3.8-3.8 3.8-3.8zm4.6 4.5l3.8 3.8-3.8 3.8-3.8-3.8 3.8-3.8zm4.5 4.5l3.8 3.8-3.8 3.8-3.8-3.8 3.8-3.8zm4.5 4.5l3.8 3.8-3.8 3.8-3.8-3.8 3.8-3.8zm4.5 4.6l3.8 3.8-3.8 3.8-3.8-3.8 3.8-3.8zm4.5 4.5l3.8 3.8-3.8 3.8-3.8-3.8 3.8-3.8zm4.5 4.5l3.8 3.8-3.8 3.8-3.8-3.8 3.8-3.8zm4.5 4.5l3.8 3.8-3.8 3.8-3.8-3.8 3.8-3.8zm4.5 4.5l3.8 3.8-3.8 3.8-3.8-3.8 3.8-3.8zm4.5 4.5l3.8 3.8-3.8 3.8-3.8-3.8 3.8-3.8zm4.5 4.5l3.8 3.8-3.8 3.8-3.8-3.8 3.8-3.8zm4.5 4.5l3.8 3.8-3.8 3.8-3.8-3.8 3.8-3.8zm4.5 4.5l3.8 3.8-3.8 3.8-3.8-3.8 3.8-3.8zm4.6 4.5l3.8 3.8-3.8 3.8-3.8-3.8 3.8-3.8zm.7-.7l3.8-3.8 3.8 3.8-3.8 3.8-3.8-3.8zm4.5-4.5l3.8-3.8 3.8 3.8-3.8 3.8-3.8-3.8zm4.5-4.5l3.8-3.8 3.8 3.8-3.8 3.8-3.8-3.8zm4.5-4.5l3.8-3.8 3.8 3.8-3.8 3.8-3.8-3.8zm4.5-4.5l3.8-3.8 3.8 3.8-3.8 3.8-3.8-3.8zm4.5-4.5l3.8-3.8 3.8 3.8-3.8 3.8-3.8-3.8zm4.5-4.6l3.8-3.8 3.8 3.8-3.8 3.8-3.8-3.8zm4.6-4.5l3.8-3.8 3.8 3.8-3.8 3.8-3.8-3.8zm4.5-4.5l3.8-3.8 3.8 3.8-3.8 3.8-3.8-3.8zm4.5-4.5l3.8-3.8 3.8 3.8-3.8 3.8-3.8-3.8zm4.5-4.5l3.8-3.8 3.8 3.8-3.8 3.8-3.8-3.8zm4.5-4.5l3.8-3.8 3.8 3.8-3.8 3.8-3.8-3.8zm4.5-4.5l3.8-3.8 3.8 3.8-3.8 3.8-3.8-3.8zm4.5-4.5l3.8-3.8 3.8 3.8-3.8 3.8-3.8-3.8zm4.5-4.5l3.8-3.8 3.8 3.8-3.8 3.8-3.8-3.8zm4.5-4.5l3.8-3.8 3.8 3.8-3.8 3.8-3.8-3.8zm4.5-4.5l3.8-3.8 3.8 3.8-3.8 3.8-3.8-3.8zm4.5-4.5l3.8-3.8 3.8 3.8-3.8 3.8-3.8-3.8zm-.7-.8l-3.8-3.8 3.8-3.8 3.8 3.8-3.8 3.8zm-4.5-4.5l-3.8-3.8 3.8-3.8 3.8 3.8-3.8 3.8zm-4.5-4.5l-3.8-3.8 3.8-3.8 3.8 3.8-3.8 3.8zm-4.5-4.5l-3.8-3.8 3.8-3.8 3.8 3.8-3.8 3.8zm-4.5-4.5l-3.8-3.8 3.8-3.8 3.8 3.8-3.8 3.8zm-4.5-4.5l-3.8-3.8 3.8-3.8 3.8 3.8-3.8 3.8zm-4.6-4.5l-3.8-3.8 3.8-3.8 3.8 3.8-3.8 3.8zm-4.5-4.5l-3.8-3.8 3.8-3.8 3.8 3.8-3.8 3.8zm-4.5-4.6l-3.8-3.8 3.8-3.8 3.8 3.8-3.8 3.8zm-4.5-4.5l-3.8-3.8 3.8-3.8 3.8 3.8-3.8 3.8zm-4.5-4.5l-3.8-3.8 3.8-3.8 3.8 3.8-3.8 3.8zm-4.5-4.5l-3.8-3.8 3.8-3.8 3.8 3.8-3.8 3.8zm-4.5-4.5l-3.8-3.8 3.8-3.8 3.8 3.8-3.8 3.8zm-4.5-4.5l-3.8-3.8 3.8-3.8 3.8 3.8-3.8 3.8zm-4.5-4.5l-3.8-3.8 3.8-3.8 3.8 3.8-3.8 3.8zm-4.5-4.5L93 48.1l3.8-3.8 3.8 3.8-3.8 3.8zm-4.5-4.5l-3.8-3.8 3.8-3.8 3.8 3.8-3.8 3.8zm-4.5-4.5L84 39.1l3.8-3.8 3.8 3.8-3.8 3.8zm-.8.7l-3.8 3.8-3.8-3.8 3.8-3.8 3.8 3.8zm-4.5 4.5l-3.8 3.8-3.7-3.8 3.8-3.8 3.7 3.8zM78 52.6l-3.8 3.8-3.8-3.8 3.8-3.8 3.8 3.8zm-4.5 4.5l-3.8 3.8-3.7-3.8 3.8-3.8 3.7 3.8zM69 61.6l-3.8 3.8-3.8-3.8 3.8-3.8 3.8 3.8zm-4.5 4.5l-3.8 3.8-3.8-3.8 3.8-3.8 3.8 3.8zM60 70.7l-3.8 3.8-3.8-3.8 3.8-3.8 3.8 3.8zm-4.5 4.5L51.7 79l-3.8-3.8 3.8-3.8 3.8 3.8zm-4.6 4.5l-3.8 3.8-3.8-3.8 3.8-3.8 3.8 3.8zm-4.5 4.5L42.7 88l-3.8-3.8 3.8-3.8 3.7 3.8zm-4.5 4.5l-3.8 3.8-3.8-3.8 3.8-3.8 3.8 3.8zm-4.5 4.5L33.7 97l-3.8-3.8 3.8-3.8 3.7 3.8zm-4.5 4.5l-3.8 3.8-3.8-3.8 3.8-3.8 3.8 3.8zm-4.5 4.5l-3.8 3.8-3.8-3.8 3.8-3.8 3.8 3.8zm-4.5 4.5l-3.8 3.8-3.8-3.8 3.8-3.8 3.8 3.8zm-4.5 4.5l-3.8 3.8-3.8-3.8 3.8-3.8 3.8 3.8zm-4.5 4.5l-3.8 3.8-3.8-3.8 3.8-3.8 3.8 3.8zm-4.5 4.6L6.6 124l-3.8-3.8 3.8-3.8 3.8 3.9zm-4.5 4.5l-3.8 3.8-3.8-3.8 3.8-3.8 3.8 3.8zm.7.7l3.8 3.8-3.8 3.7-3.8-3.8 3.8-3.7zm4.5 4.5l3.8 3.8-3.8 3.8-3.8-3.8 3.8-3.8zm4.5 4.5l3.8 3.8-3.8 3.8-3.8-3.8 3.8-3.8zm4.5 4.5l3.8 3.8-3.8 3.8-3.8-3.8 3.8-3.8zm4.5 4.5l3.8 3.8-3.8 3.8-3.8-3.8 3.8-3.8zm4.5 4.5l3.8 3.8-3.8 3.8-3.8-3.8 3.8-3.8zm4.6 4.5l3.8 3.8-3.8 3.8-3.8-3.8 3.8-3.8zm4.5 4.6l3.8 3.8-3.8 3.8-3.8-3.8 3.8-3.8zm4.5 4.5l3.8 3.8-3.8 3.8-3.8-3.8 3.8-3.8zm4.5 4.5l3.8 3.8-3.8 3.8-3.8-3.8 3.8-3.8zm4.5 4.5l3.8 3.8-3.8 3.8-3.8-3.8 3.8-3.8zm4.5 4.5l3.8 3.8-3.8 3.8-3.8-3.8 3.8-3.8zm4.5 4.5l3.8 3.8-3.8 3.8-3.8-3.8 3.8-3.8zm4.5 4.5l3.8 3.8-3.8 3.8-3.8-3.8 3.8-3.8zm4.5 4.5l3.8 3.8-3.8 3.8-3.8-3.8 3.8-3.8zm4.5 4.5l3.8 3.8-3.8 3.8-3.8-3.8 3.8-3.8zm4.5 4.5l3.8 3.8-3.8 3.8-3.8-3.8 3.8-3.8zm4.5 4.5l3.8 3.8-3.8 3.8-3.8-3.8 3.8-3.8zm4.6 4.6l3.8 3.8-3.8 3.8-3.8-3.8 3.8-3.8zm.7-.8l3.8-3.8 3.8 3.8-3.8 3.8-3.8-3.8zm4.5-4.5l3.8-3.8 3.8 3.8-3.8 3.8-3.8-3.8zm4.5-4.5l3.8-3.8 3.8 3.8-3.8 3.8-3.8-3.8zm4.5-4.5l3.8-3.8 3.8 3.8-3.8 3.8-3.8-3.8zm4.5-4.5l3.8-3.8 3.8 3.8-3.8 3.8-3.8-3.8zm4.5-4.5l3.8-3.8 3.8 3.8-3.8 3.8-3.8-3.8zm4.5-4.5l3.8-3.8 3.8 3.8-3.8 3.8-3.8-3.8zm4.6-4.5l3.8-3.8 3.8 3.8-3.8 3.8-3.8-3.8zm4.5-4.6l3.8-3.8 3.8 3.8-3.8 3.8-3.8-3.8zm4.5-4.5l3.8-3.8 3.8 3.8-3.8 3.8-3.8-3.8zm4.5-4.5l3.8-3.8 3.8 3.8-3.8 3.8-3.8-3.8zm4.5-4.5l3.8-3.8 3.8 3.8-3.8 3.8-3.8-3.8zm4.5-4.5l3.8-3.8 3.8 3.8-3.8 3.8-3.8-3.8zm4.5-4.5l3.8-3.8 3.8 3.8-3.8 3.8-3.8-3.8zm4.5-4.5l3.8-3.8 3.8 3.8-3.8 3.8-3.8-3.8zm4.5-4.5l3.8-3.8 3.8 3.8-3.8 3.8-3.8-3.8zm4.5-4.5l3.8-3.8 3.8 3.8-3.8 3.8-3.8-3.8zm4.5-4.5l3.8-3.8 3.8 3.8-3.8 3.8-3.8-3.8zm4.5-4.5l3.8-3.8 3.8 3.8-3.8 3.8-3.8-3.8zm7.6-9.1l-3.8 3.8-3.8-3.8 3.8-3.8 3.8 3.8zm-4.5-4.5l-3.8 3.8-3.8-3.8 3.8-3.8 3.8 3.8zm-4.5-4.5l-3.8 3.8-3.8-3.8 3.8-3.8 3.8 3.8zm-4.5-4.5l-3.8 3.8-3.8-3.8 3.8-3.8 3.8 3.8zm-4.5-4.5l-3.8 3.8-3.8-3.8 3.8-3.8 3.8 3.8zm-4.6-4.5l-3.8 3.8-3.8-3.8 3.8-3.8 3.8 3.8zm-4.5-4.5l-3.8 3.8-3.8-3.8 3.8-3.8 3.8 3.8zm-4.5-4.5l-3.8 3.8-3.8-3.8 3.8-3.8 3.8 3.8zm-4.5-4.5l-3.8 3.8-3.8-3.8 3.8-3.8 3.8 3.8zm-4.5-4.5l-3.8 3.8-3.8-3.8 3.8-3.8 3.8 3.8zm-4.5-4.5l-3.8 3.8-3.8-3.8 3.8-3.8 3.8 3.8zm-4.5-4.6l-3.8 3.8-3.8-3.8 3.8-3.8 3.8 3.8zm-4.5-4.5l-3.8 3.8-3.8-3.8 3.8-3.8 3.8 3.8zm-4.5-4.5l-3.8 3.8-3.8-3.8 3.8-3.8 3.8 3.8zm-4.5-4.5l-3.8 3.8-3.8-3.8 3.8-3.8 3.8 3.8zm-4.5-4.5l-3.8 3.8-3.8-3.8 3.8-3.8 3.8 3.8zm-4.5-4.5l-3.8 3.8-3.8-3.8 3.8-3.8 3.8 3.8zm-4.6-4.5l-3.8 3.8-3.7-3.8 3.8-3.8 3.7 3.8zM96 34.6l-3.8 3.8-3.8-3.8 3.8-3.8 3.8 3.8zm-8.2-8.3l3.8 3.8-3.8 3.8-3.8-3.8 3.8-3.8zm-4.6 4.5l3.8 3.8-3.8 3.8-3.8-3.8 3.8-3.8zm-4.5 4.5l3.8 3.8-3.8 3.8-3.7-3.8 3.7-3.8zm-4.5 4.5l3.8 3.8-3.8 3.8-3.8-3.8 3.8-3.8zm-4.5 4.5l3.8 3.8-3.8 3.8-3.8-3.8 3.8-3.8zm-4.5 4.5l3.8 3.8-3.8 3.8-3.8-3.8 3.8-3.8zm-4.5 4.6l3.8 3.8-3.8 3.8-3.8-3.8 3.8-3.8zm-4.5 4.5l3.8 3.8-3.8 3.8-3.8-3.8 3.8-3.8zm-4.5 4.5l3.8 3.8-3.8 3.8-3.8-3.8 3.8-3.8zm-4.5 4.5l3.8 3.8-3.8 3.8-3.8-3.8 3.8-3.8zm-4.5 4.5l3.8 3.8-3.8 3.8-3.8-3.8 3.8-3.8zm-4.5 4.5l3.8 3.8-3.8 3.8-3.8-3.8 3.8-3.8zm-4.5 4.5l3.8 3.8-3.8 3.8-3.8-3.8 3.8-3.8zm-4.6 4.5l3.8 3.8-3.8 3.8-3.8-3.8 3.8-3.8zm-4.5 4.5l3.8 3.8-3.8 3.8-3.8-3.8 3.8-3.8zm-4.5 4.5l3.8 3.8-3.8 3.8-3.8-3.8 3.8-3.8zm-4.5 4.5l3.8 3.8-3.8 3.8-3.8-3.8 3.8-3.8zm-4.5 4.6l3.8 3.8-3.8 3.8-3.8-3.8 3.8-3.8zm-4.5 4.5l3.8 3.8-3.8 3.7-3.8-3.8 3.8-3.7zM2.1 112l3.8 3.8-3.8 3.8-3.8-3.8 3.8-3.8zm-4.5 4.5l3.8 3.8-3.8 3.8-3.8-3.8 3.8-3.8zm-8.3 8.3l3.8-3.8 3.8 3.8-3.8 3.8-3.8-3.8zm4.5 4.5l3.8-3.8 3.8 3.8-3.8 3.8-3.8-3.8zm4.5 4.5l3.8-3.8 3.8 3.8-3.8 3.8-3.8-3.8zm4.5 4.5l3.8-3.8 3.8 3.8-3.8 3.8-3.8-3.8zm4.5 4.5l3.8-3.8 3.8 3.8-3.8 3.8-3.8-3.8zm4.5 4.5l3.8-3.8 3.8 3.8-3.8 3.8-3.8-3.8zm4.6 4.5l3.8-3.8 3.8 3.8-3.8 3.8-3.8-3.8zm4.5 4.5l3.8-3.8 3.8 3.8-3.8 3.8-3.8-3.8zm4.5 4.5l3.8-3.8 3.8 3.8-3.8 3.8-3.8-3.8zm4.5 4.5l3.8-3.8 3.8 3.8-3.8 3.8-3.8-3.8zm4.5 4.5l3.8-3.8 3.8 3.8-3.8 3.8-3.8-3.8zm4.5 4.6l3.8-3.8 3.8 3.8-3.8 3.8-3.8-3.8zm4.5 4.5l3.8-3.8 3.8 3.8-3.8 3.8-3.8-3.8zm4.5 4.5l3.8-3.8 3.8 3.8-3.8 3.8-3.8-3.8zm4.5 4.5l3.8-3.8 3.8 3.8-3.8 3.8-3.8-3.8zm4.5 4.5l3.8-3.8 3.8 3.8-3.8 3.8-3.8-3.8zm4.5 4.5l3.8-3.8 3.8 3.8-3.8 3.8-3.8-3.8zm4.6 4.5l3.8-3.8 3.8 3.8-3.8 3.8-3.8-3.8zm4.5 4.5l3.8-3.8 3.8 3.8-3.8 3.8-3.8-3.8zm4.5 4.5l3.8-3.8 3.8 3.8-3.8 3.8-3.8-3.8zm4.5 4.5l3.8-3.8 3.8 3.8-3.8 3.8-3.8-3.8zm8.3 8.3l-3.8-3.8 3.8-3.8 3.8 3.8-3.8 3.8zm4.5-4.5l-3.8-3.8 3.8-3.8 3.8 3.8-3.8 3.8zm4.5-4.5l-3.8-3.8 3.8-3.8 3.8 3.8-3.8 3.8zm4.5-4.5l-3.8-3.8 3.8-3.8 3.8 3.8-3.8 3.8zm4.5-4.5l-3.8-3.8 3.8-3.8 3.8 3.8-3.8 3.8zm4.5-4.5l-3.8-3.8 3.8-3.8 3.8 3.8-3.8 3.8zm4.5-4.5l-3.8-3.8 3.8-3.8 3.8 3.8-3.8 3.8zm4.5-4.6l-3.8-3.8 3.8-3.8 3.8 3.8-3.8 3.8zm4.5-4.5l-3.8-3.8 3.8-3.8 3.8 3.8-3.8 3.8zm4.5-4.5l-3.8-3.8 3.8-3.8 3.8 3.8-3.8 3.8zm4.5-4.5l-3.8-3.8 3.8-3.8 3.8 3.8-3.8 3.8zm4.5-4.5l-3.8-3.8 3.8-3.8 3.8 3.8-3.8 3.8zm4.6-4.5l-3.8-3.8 3.8-3.8 3.8 3.8-3.8 3.8zm4.5-4.5l-3.8-3.8 3.8-3.8 3.8 3.8-3.8 3.8zm4.5-4.5l-3.8-3.8 3.8-3.8 3.8 3.8-3.8 3.8zm4.5-4.5l-3.8-3.8 3.8-3.8 3.8 3.8-3.8 3.8zm4.5-4.5l-3.8-3.8 3.8-3.8 3.8 3.8-3.8 3.8zm4.5-4.5l-3.8-3.8 3.8-3.8 3.8 3.8-3.8 3.8zm4.5-4.5l-3.8-3.8 3.8-3.8 3.8 3.8-3.8 3.8zm4.5-4.6l-3.8-3.8 3.8-3.8 3.8 3.8-3.8 3.8zm4.5-4.5l-3.8-3.8 3.8-3.8 3.8 3.8-3.8 3.8zm4.5-4.5l-3.8-3.8 3.8-3.8 3.8 3.8-3.8 3.8z" clip-path="url(#SVGID_2_)" fill="#adadad"/><path class="st7" d="M134.9 58.2l-3.3 1.3h-9.1l-2.8-1.2h-5.2l-4.6-3H108l5.7 3.9v156.2h5.6l2.9-1.4h8.9l3.1 1.3h5.4V58.2h-4.7zm3.5 155.9h-3.9l-3.1-1.3H122l-2.9 1.4h-4.3V59.4h4.4l2.8 1.2 9.6.1 3.3-1.3h3.3v154.7z"/><path fill="none" d="M50.4 55.2v116.2l64.1 43.3V58.8l-5.7-3.6z"/><defs><path id="SVGID_3_" d="M110.4 203.4c-.1 0-.2 0-.3-.1L54.3 166c-.2-.1-.3-.3-.3-.5V55.8c0-.3.3-.6.6-.6s.6.3.6.6v109.4l54.6 36.5V62.9l-9.7-6.6c-.3-.2-.3-.6-.2-.8.2-.3.5-.3.8-.2l9.9 6.8c.2.1.3.3.3.5v140.2c0 .2-.1.4-.3.5-.1.1-.1.1-.2.1z"/></defs><use xlink:href="#SVGID_3_" overflow="visible" fill="#747577"/><clipPath id="SVGID_4_"><use xlink:href="#SVGID_3_" overflow="visible"/></clipPath><path clip-path="url(#SVGID_4_)" fill="#747577" d="M50.5 55.8V172l64 43.3V59.4l-5.7-3.6z"/><path class="st3" d="M139.6 216c-.1 0-.1 0 0 0h-5.4c-.1 0-.2 0-.3-.1l-2.9-1.3h-8.6l-2.7 1.3c-.1 0-.2.1-.3.1h-5.6c-.4 0-.7-.3-.7-.7v-.2l-63-42.6c-.2-.1-.3-.3-.3-.6V55.1c0-.2.1-.3.2-.5s.3-.2.5-.2h83.3c.1 0 .3 0 .4.1l4.5 2.9h.9c.4 0 .7.3.7.7v157.1c0 .2-.1.4-.2.5-.2.2-.4.3-.5.3zm-25.2-1.4h4.8l2.7-1.3c.1 0 .2-.1.3-.1h8.9c.1 0 .2 0 .3.1l2.9 1.3h4.6V58.9h-.5c-.1 0-.3 0-.4-.1l-4.5-2.9H50.9v115.8l63 42.6c.4 0 .5.2.5.3z"/></g></svg>