<svg version="1.1" id="图层_1" xmlns="http://www.w3.org/2000/svg" xmlns:xlink="http://www.w3.org/1999/xlink" x="0" y="0" width="190" height="271" xml:space="preserve"><style>.st0{fill:#601520}.st3{fill:#eaeaea}.st4{fill:#e5e5e5}.st5{fill:#adadad}.st6{fill:#747577}.st8{fill:#c1c1c1}</style><path class="st0" d="M124 220h12v51h-12z"/><path fill="#db8a98" d="M125 220h10v51h-10z"/><path class="st0" d="M54 220h12v51H54z"/><path fill="#964859" d="M55 220h10v51H55z"/><path class="st3" d="M0 0v220h190V0H0z"/><path class="st4" d="M0 0h190v56H0z"/><path class="st5" d="M0 0h190v3H0z"/><path class="st6" d="M0 53h190v3H0z"/><g><path class="st4" d="M0 164h190v56H0z"/><path class="st5" d="M0 164h190v3H0z"/><path class="st6" d="M0 217h190v3H0z"/></g><g><path fill="#d6d7d7" d="M150.1 215.1h-4.5l-3.2-1.4h-30.2l-2.8 1.4h-5.1V58.8h45.8z"/><path class="st8" d="M40.7 55.2v116.5l63.6 43.4V58.8l-5.6-3.6z"/><path fill="#cecece" d="M98.7 55.2l5.6 3.6h4.9l2.9 1.3h30.5l3.1-1.3h4.4l-5.5-3.6z"/><path class="st8" d="M90.3 55.8l9.9 6.8v140.5l-55.4-37.3v-110z"/><path class="st3" d="M139.4 55.2l5.7 3.9v155h1.2V58.5l-5-3.3h-1.1zm-35.4 0h-2.1l6.7 4v155h1.2V58.5z"/><defs><path id="SVGID_1_" d="M90.3 55.8l9.9 6.8v140.5l-55.4-37.3v-110z"/></defs><clipPath id="SVGID_2_"><use xlink:href="#SVGID_1_" overflow="visible"/></clipPath><g clip-path="url(#SVGID_2_)"><path class="st5" d="M95 68.5h-.1L53.1 57c-1.6-.4-2.9-2.2-2.9-4.1 0-1.8 1.3-2.9 2.9-2.5l41.8 11.3s.1 0 5.3 1.5v-5.7L51.3 44.4c-3.6-1-6.5 1.6-6.5 5.7v2.6c0 4.1 2.9 8.3 6.5 9.3L95 74.2v-5.7z"/><path class="st5" d="M50.8 68.4s.1 0 .1.1l41.7 11.7c1.7.5 3-.7 3-2.5 0-1.9-1.3-3.7-3-4.2L50.9 61.9h-.1v-5.6l43.6 12c3.8 1 6.9 5.3 6.9 9.6v2.7c0 4.3-3.1 6.8-6.9 5.8L50.8 74v-5.6z"/><path class="st5" d="M95 92.8h-.1l-41.8-12c-1.6-.5-2.9-2.3-2.9-4.1 0-1.8 1.3-2.9 2.9-2.5l41.8 11.9s.1 0 .1.1v-5.7L51.3 68.2c-3.6-1-6.5 1.5-6.5 5.6v2.6c0 4.1 2.9 8.3 6.5 9.4L95 98.5v-5.7z"/><path class="st5" d="M50.8 92.1s.1 0 .1.1l41.7 12.3c1.7.5 3-.6 3-2.5s-1.3-3.7-3-4.2L50.9 85.7h-.1v-5.6l43.6 12.5c3.8 1.1 6.9 5.4 6.9 9.7v2.7c0 4.3-3.1 6.8-6.9 5.7l-43.6-13v-5.6z"/><path class="st5" d="M95 117.2h-.1l-41.8-12.6c-1.6-.5-2.9-2.3-2.9-4.1 0-1.8 1.3-2.9 2.9-2.4l41.8 12.4s.1 0 .1.1v-5.7L51.3 92c-3.6-1.1-6.5 1.4-6.5 5.6v2.6c0 4.1 2.9 8.4 6.5 9.5L95 122.9v-5.7z"/><path class="st5" d="M50.8 116s.1 0 .1.1l41.7 12.8c1.7.5 3-.6 3-2.4 0-1.9-1.3-3.8-3-4.3l-41.7-12.7h-.1v-5.6L94.4 117c3.8 1.1 6.9 5.5 6.9 9.8v2.7c0 4.3-3.1 6.8-6.9 5.6l-43.6-13.5V116z"/><path class="st5" d="M95 141.5h-.1l-41.8-13.1c-1.6-.5-2.9-2.4-2.9-4.2 0-1.8 1.3-2.9 2.9-2.4l41.8 13s.1 0 .1.1v-5.7l-43.6-13.4c-3.6-1.1-6.5 1.3-6.5 5.5v2.6c0 4.1 2.9 8.4 6.5 9.5L95 147.2v-5.7z"/><path class="st5" d="M50.8 139.7s.1 0 .1.1l41.7 13.3c1.7.5 3-.5 3-2.4s-1.3-3.8-3-4.3l-41.7-13.2h-.1v-5.6l43.6 13.7c3.8 1.2 6.9 5.6 6.9 9.9v2.7c0 4.3-3.1 6.7-6.9 5.5l-43.6-14.1v-5.6z"/><path class="st5" d="M95 165.9h-.1l-41.8-13.7c-1.6-.5-2.9-2.4-2.9-4.2 0-1.8 1.3-2.9 2.9-2.3l41.8 13.5s.1 0 .1.1v-5.7l-43.6-14c-3.6-1.2-6.5 1.3-6.5 5.4v2.6c0 4.1 2.9 8.4 6.5 9.6L95 171.6v-5.7z"/><path class="st5" d="M50.8 163.5l.1.1 41.7 13.9c1.7.6 3-.5 3-2.4s-1.3-3.8-3-4.3L50.9 157h-.1v-5.6l43.6 14.3c3.8 1.2 6.9 5.7 6.9 10v2.7c0 4.3-3.1 6.7-6.9 5.4l-43.6-14.7v-5.6z"/><g><path class="st5" d="M95 190.2h-.1L53.1 176c-1.6-.5-2.9-2.4-2.9-4.2 0-1.8 1.3-2.8 2.9-2.3l41.8 14 .1.1v-5.7l-43.6-14.5c-3.6-1.2-6.5 1.2-6.5 5.3v2.6c0 4.1 2.9 8.5 6.5 9.7L95 196v-5.8z"/><path class="st5" d="M50.8 187.3l.1.1 41.7 14.4c1.7.6 3-.5 3-2.3 0-1.9-1.3-3.8-3-4.4l-41.7-14.3h-.1v-5.6L94.4 190c3.8 1.3 6.9 5.8 6.9 10.1v2.7c0 4.3-3.1 6.6-6.9 5.3l-43.6-15.2v-5.6z"/></g></g><path fill="none" d="M40.7 55.2v116.5l63.6 43.4V58.8l-5.6-3.6z"/><defs><path id="SVGID_3_" d="M100.2 203.7c-.1 0-.2 0-.3-.1l-55.4-37.4c-.2-.1-.3-.3-.3-.5v-110c0-.3.3-.6.6-.6s.6.3.6.6v109.7L99.6 202V62.9L90 56.2c-.3-.2-.3-.6-.2-.8.2-.3.5-.3.8-.2l9.9 6.8c.2.1.3.3.3.5v140.6c0 .2-.1.4-.3.5-.2.1-.2.1-.3.1z"/></defs><use xlink:href="#SVGID_3_" overflow="visible" fill="#747577"/><clipPath id="SVGID_4_"><use xlink:href="#SVGID_3_" overflow="visible"/></clipPath><path clip-path="url(#SVGID_4_)" fill="#747577" d="M40.7 55.8v116.5l63.6 43.4V59.4l-5.6-3.6z"/><defs><path id="SVGID_5_" d="M150.1 215.4h-4.5l-3.2-1.4h-30.2l-2.8 1.4h-5.1V60.1h45.8z"/></defs><clipPath id="SVGID_6_"><use xlink:href="#SVGID_5_" overflow="visible"/></clipPath><g opacity=".6" clip-path="url(#SVGID_6_)"><path d="M114.4 50.6h7.3v163h-7.3zm17.7 0h7.3v163h-7.3z" fill="#295ba9"/></g><path d="M145.7 58.2l-3.3 1.3h-30.3l-2.7-1.2h-5.2l-4.6-3h-1.9l5.7 3.9v156.6h5.5l2.9-1.4h30l3 1.3h5.4V58.2h-4.5zm3.5 156.3h-3.8l-3-1.3h-30.5l-2.9 1.4h-4.2V59.4h4.4l2.7 1.2 30.7.1 3.3-1.3h3.3v155.1z" fill="#fff"/><path class="st6" d="M150.3 216.4h-5.4c-.1 0-.2 0-.3-.1l-2.9-1.3H112l-2.7 1.3c-.1 0-.2.1-.3.1h-5.5c-.4 0-.7-.3-.7-.7v-.2l-62.6-42.7c-.2-.1-.3-.3-.3-.6V55.1c0-.4.3-.7.7-.7h104.1c.1 0 .3 0 .4.1l4.4 2.9h.9c.4 0 .7.3.7.7v157.5c0 .2-.1.3-.2.5-.2.2-.4.3-.6.3zm-46.1-1.4h4.7l2.7-1.3c.1 0 .2-.1.3-.1h30c.1 0 .2 0 .3.1l2.9 1.3h4.6V58.9h-.5c-.1 0-.3 0-.4-.1l-4.4-2.9H41.3V172l62.6 42.7c.1 0 .2.2.3.3z"/></g></svg>