<svg version="1.1" id="图层_1" xmlns="http://www.w3.org/2000/svg" x="0" y="0" width="692.1" height="220" xml:space="preserve"><style>.st1{fill:#e5e5e5}.st2{fill:#adadad}.st4{fill:#747577}</style><path fill="#eaeaea" d="M.1 54.9h96.5l127.3 39.7 249.4 6.9 175.6-46.6h43.2v109l-115.9-1.2L472 139.9l-224.9.1-221.2 24.3H.1z"/><path class="st1" d="M692.1 165.7l-116.4-1.3-104.2-23.2-246.7 2L26 166.1H0V218h96.5l137.1-56.4 94.9-28.6 130.6 33 189.8 52h43.2z"/><path class="st2" d="M692.1 163.9l-115.9-2.2-104.2-23H248.5L25.9 164H.1v3H26l222.7-24.9h222.8L575.7 165l116.4 2z"/><path class="st1" d="M692.1 1.8H575.8L458.6 80.4l-130.5 26-80.4-22.9-218-81.8L0 1.8v51h97.4l149 48.1h226.3l175.9-48.1h43.5z"/><path class="st2" d="M459.5 82.1l116.6-79 116-.1V0H574.5L458.2 78.8"/><ellipse class="st1" cx="458.8" cy="122.4" rx="14.8" ry="41.9"/><path class="st1" d="M458.8 80.4h-53.1c-54 13.6-71.4 14.5-71.4 14.5H298c-19.6-2.4-25.3-14.5-25.3-14.5h-38.8l-12 17.3v49.2l11.9 17.3h38.8s5.6-12.1 25.3-14.5h36.3s17.4.8 71.4 14.5h53.1l10.1-17.3.1-49.3-10.1-17.2z"/><path fill="#ccc" d="M405.7 78.8h53.1v3.4h-53.1z"/><path class="st2" d="M272.7 82.1h-38.8c-.9 0-1.7-.8-1.7-1.7s.8-1.7 1.7-1.7h38.8c.9 0 1.7.8 1.7 1.7s-.7 1.7-1.7 1.7zm33.4 69.4c-.9 0-1.7-.8-1.7-1.7s.8-1.7 1.7-1.7c3.3 0 8-9.8 8-25.8s-4.7-25.8-8-25.8c-.9 0-1.7-.8-1.7-1.7s.8-1.7 1.7-1.7c7.4 0 11.3 15 11.3 29.1.1 14.3-3.9 29.3-11.3 29.3zm29.3 0c-.9 0-1.7-.8-1.7-1.7s.8-1.7 1.7-1.7c3.3 0 8-9.8 8-25.8s-4.7-25.8-8-25.8c-.9 0-1.7-.8-1.7-1.7s.8-1.7 1.7-1.7c7.4 0 11.3 15 11.3 29.1.1 14.3-3.9 29.3-11.3 29.3z"/><path class="st1" d="M405.8 164.3c8.2 0 14.8-18.8 14.8-41.9s-6.6-41.9-14.8-41.9"/><path class="st2" d="M405.8 166c-.9 0-1.7-.8-1.7-1.7s.8-1.7 1.7-1.7c6.2 0 13.1-16.5 13.1-40.2 0-23.7-6.9-40.2-13.1-40.2-.9 0-1.7-.8-1.7-1.7s.8-1.7 1.7-1.7c10.7 0 16.4 22.5 16.4 43.6.1 21.1-5.7 43.6-16.4 43.6z"/><path class="st2" d="M298 96.6h-.2c-7-.8-13.1-3-18.1-6.3-.8-.5-1-1.6-.4-2.3.5-.8 1.6-1 2.3-.4 4.5 3 10 5 16.5 5.8h36.2c.1 0 17.9-1 71-14.4.1 0 .3-.1.4-.1h53.6c.9 0 1.7.8 1.7 1.7s-.8 1.7-1.7 1.7h-53.4c-53.4 13.5-70.8 14.4-71.5 14.5l-36.4-.2z"/><path class="st2" d="M458.8 166c-.9 0-1.7-.8-1.7-1.7s.8-1.7 1.7-1.7c6.2 0 13.1-16.5 13.1-40.2 0-23.7-6.9-40.2-13.1-40.2-.9 0-1.7-.8-1.7-1.7s.8-1.7 1.7-1.7c10.7 0 16.4 22.5 16.4 43.6.1 21.1-5.7 43.6-16.4 43.6z"/><path class="st1" d="M271.8 80.4c8.2 0 14.8 18.8 14.8 41.9s-6.6 41.9-14.8 41.9"/><path class="st4" d="M272 166h-38.1c-.9 0-1.7-.8-1.7-1.7s.8-1.7 1.7-1.7H272c.9 0 1.7.8 1.7 1.7s-.8 1.7-1.7 1.7z"/><path class="st2" d="M271.8 166c-.9 0-1.7-.8-1.7-1.7s.8-1.7 1.7-1.7c6.2 0 13.1-16.5 13.1-40.2 0-23.7-6.9-40.2-13.1-40.2-.9 0-1.7-.8-1.7-1.7s.8-1.7 1.7-1.7c10.7 0 16.4 22.5 16.4 43.6.1 21.1-5.7 43.6-16.4 43.6z"/><ellipse class="st2" cx="233.9" cy="122.4" rx="14.8" ry="41.9"/><path class="st4" d="M233.9 166c-10.7 0-16.4-22.5-16.4-43.6s5.8-43.6 16.4-43.6 16.4 22.5 16.4 43.6c.1 21.1-5.7 43.6-16.4 43.6zm0-83.9c-6.2 0-13.1 16.5-13.1 40.2 0 23.7 6.9 40.2 13.1 40.2 6.2 0 13.1-16.5 13.1-40.2 0-23.6-6.9-40.2-13.1-40.2zm37.9 83.9c-.9 0-1.7-.8-1.7-1.7s.8-1.7 1.7-1.7c2.5 0 5.1-2.6 7.3-7.4.4-.8 1.4-1.2 2.2-.8.8.4 1.2 1.4.8 2.2-3.5 7.7-7.5 9.4-10.3 9.4z"/><path class="st4" d="M459.4 166h-53.7c-.1 0-.3 0-.4-.1-53.1-13.4-70.9-14.4-71.1-14.4h-36.1c-6.4.8-12 2.7-16.5 5.8-.8.5-1.8.3-2.3-.4-.5-.8-.3-1.8.4-2.3 5-3.4 11-5.5 18.1-6.3h36.5c.8 0 18.2 1 71.6 14.5h53.5c.9 0 1.7.8 1.7 1.7s-.7 1.5-1.7 1.5zm-225.6-3.4L96.6 217H.1v3h98l136-54"/><path class="st4" d="M459.4 168.2L648 220h44.1v-2.8h-43.2L460.3 165m13.3-61.7L648.9 56h43.2v-3h-43.5L473 100"/><path class="st1" d="M247 98.5L97.5 51.6.1 51.5V1.8l29.7-.1 203.5 80.4 24.8 2.4z"/><path class="st2" d="M234.6 78.8L31 0H.1v3l30.2-.2 203 79.3"/><path class="st2" d="M244.6 99.5c-2.5-10.3-7.5-17.5-11.3-17.5l.6-3.3c6.6 0 10.9 7.7 13.9 20l-3.2.8z"/><path class="st4" d="M247.1 101.8c-.5 0-1 0-1.5-.1L96.6 56H.1v-3l97.1.1 149.3 45.3 1.4.4-.8 3z"/></svg>