<svg version="1.1" id="图层_1" xmlns="http://www.w3.org/2000/svg" x="0" y="0" width="60" height="18" xml:space="preserve"><style>.st0{fill:#fff}</style><path class="st0" d="M0 8h19v2H0zM41 8h19v2H41z"/><path transform="rotate(90 20 9)" class="st0" d="M11 8h18v2H11z"/><path transform="rotate(90 24 9)" class="st0" d="M18 8h12v2H18z"/><path transform="rotate(90 13.953 3)" class="st0" d="M11 2h6v1.9h-6z"/><path transform="rotate(-180 14 3)" class="st0" d="M11 2h6v2h-6z"/><path transform="rotate(-180 46 2)" class="st0" d="M43 1h6v2h-6z"/><path transform="rotate(90 32 9)" class="st0" d="M26 8h12v2H26z"/><path transform="rotate(90 40 9)" class="st0" d="M34 8h12v2H34z"/><path transform="rotate(90 28 9)" class="st0" d="M19 8h18v2H19z"/><path transform="rotate(90 36 9)" class="st0" d="M27 8h18v2H27z"/></svg>