<svg version="1.1" id="图层_1" xmlns="http://www.w3.org/2000/svg" x="0" y="0" width="48.2" height="46" xml:space="preserve"><style>.st0{fill:#fff}</style><path class="st0" d="M18.2 0c-7.2 0-13 5.8-13 13s5.8 13 13 13 13-5.8 13-13-5.8-13-13-13zm0 24c-6.1 0-11-4.9-11-11s4.9-11 11-11 11 4.9 11 11-4.9 11-11 11z"/><path class="st0" d="M18.2 20c-7.2 0-13 5.8-13 13s5.8 13 13 13 13-5.8 13-13-5.8-13-13-13zm0 24c-6.1 0-11-4.9-11-11s4.9-11 11-11 11 4.9 11 11-4.9 11-11 11zM19.2 19v-8h-1.9l-.1 8"/><path class="st0" d="M18.2 12l6.1-3.4-.9-1.6-6.1 3.4"/><g><path class="st0" d="M18.2 12l-6-3.4.9-1.6 6.1 3.4"/></g><path class="st0" d="M18.2 27l-7 13h14l-7-13zm0 3.9l3.7 6.9h-7.4l3.7-6.9z"/><g><path class="st0" d="M35.2 3L24.7 5l2 2.8L0 26.6l1.2 1.6L27.8 9.4l2.1 2.9z"/></g><g><path class="st0" d="M35.2 10c-7.2 0-13 5.8-13 13s5.8 13 13 13 13-5.8 13-13-5.8-13-13-13zm0 24c-6.1 0-11-4.9-11-11s4.9-11 11-11 11 4.9 11 11-4.9 11-11 11z"/><path class="st0" d="M36.2 31v-8h-1.9l-.1 8"/><g><path class="st0" d="M35.2 24l6.1-3.4-.9-1.6-6.1 3.4"/><g><path class="st0" d="M35.2 24l-6-3.4.9-1.6 6.1 3.4"/></g></g></g></svg>