<svg version="1.1" id="图层_1" xmlns="http://www.w3.org/2000/svg" x="0" y="0" width="37.7" height="33.2" xml:space="preserve"><style>.st0{fill:#fff}</style><path class="st0" d="M37.7 6.9L30.8 0l-1.4 1.4 2.9 2.8L4.7 31.7l1.4 1.5L33.7 5.7l2.6 2.6z"/><path class="st0" d="M34.8 20.8l-1.2 2.9-4.7-11.2-1.1-2.6h-.1l-1 2.6L22 23.6l-4.7-11.1-1.1-2.6-1.1 2.6-4.7 11.2-4.7-11.2-1.1-2.6-1.1 2.6L0 20.8h2.2l2.4-5.6 4.7 11.1 1.1 2.6 1.1-2.6 4.7-11.1 4.7 11 1.1 2.7 1.1-2.7 4.7-11 4.7 11.1 1.1 2.6 1.1-2.6 2.3-5.5z"/></svg>