<svg version="1.1" id="图层_1" xmlns="http://www.w3.org/2000/svg" x="0" y="0" width="60" height="20.4" xml:space="preserve"><style>.st0{fill:#fff}</style><path class="st0" d="M0 8.8h19v2H0zM41 8.8h19v2H41z"/><path transform="rotate(90 20 9.757)" class="st0" d="M11 8.8h18v2H11z"/><path transform="rotate(90 24 9.757)" class="st0" d="M18 8.8h12v2H18z"/><path transform="rotate(90 32 9.757)" class="st0" d="M26 8.8h12v2H26z"/><path transform="rotate(90 40 9.757)" class="st0" d="M34 8.8h12v2H34z"/><path transform="rotate(90 28 9.757)" class="st0" d="M19 8.8h18v2H19z"/><path transform="rotate(90 36 9.757)" class="st0" d="M27 8.8h18v2H27z"/><path transform="scale(-1) rotate(-29.198 -44.953 113.299)" class="st0" d="M13.5 10.7h32v2h-32z"/><path class="st0" d="M50.5 0L42 1.3l2.9 5.2z"/></svg>