<svg version="1.1" id="图层_1" xmlns="http://www.w3.org/2000/svg" x="0" y="0" width="26" height="60" xml:space="preserve"><style>.st0{fill:#fff}</style><path class="st0" d="M26 30c0-6.8-5.3-12.4-12-12.9V0h-2v17.1C5.3 17.6 0 23.2 0 30c0 3.3 1.2 6.2 3.2 8.5C1.2 40.8 0 43.7 0 47c0 7.2 5.8 13 13 13s13-5.8 13-13c0-3.3-1.2-6.2-3.2-8.5 2-2.3 3.2-5.2 3.2-8.5zM13 19c6.1 0 11 4.9 11 11 0 2.7-1 5.2-2.6 7.1-2.3-1.9-5.2-3.1-8.4-3.1s-6.1 1.2-8.4 3.1C3 35.2 2 32.7 2 30c0-6.1 4.9-11 11-11zm7 19.5c-1.9 1.6-4.3 2.5-7 2.5s-5.1-.9-7-2.5c1.9-1.6 4.3-2.5 7-2.5s5.1.9 7 2.5zM13 58C6.9 58 2 53.1 2 47c0-2.7 1-5.2 2.6-7.1C6.9 41.8 9.8 43 13 43s6.1-1.2 8.4-3.1C23 41.8 24 44.3 24 47c0 6.1-4.9 11-11 11z"/><path class="st0" d="M6 29h14v2H6zM6 46h14v2H6z"/></svg>