<svg xmlns="http://www.w3.org/2000/svg" width="42" height="51"><path d="M42 13.1c0-7.2-5.8-13-13-13-3 0-5.8 1-8 2.8C18.8 1.1 16 0 13 0 5.8 0 0 5.8 0 13c0 5.7 3.7 10.5 8.7 12.3 1.7 4.8 6 8.3 11.3 8.7v17h2V33.9c5.2-.4 9.6-3.9 11.2-8.6 5.1-1.7 8.8-6.5 8.8-12.2zM31.6 23.7c-.8.2-1.7.3-2.6.3-2.5 0-4.7-.8-6.6-2.2 2.2-2.3 3.5-5.4 3.5-8.9 0-.6-.1-1.3-.2-1.9 3.7 1.8 6.2 5.5 6.2 9.9.1 1 0 2-.3 2.8zM23.9 13c0 2.9-1.1 5.6-3 7.5-1.8-2-2.9-4.6-2.9-7.5 0-.9.1-1.9.4-2.7.8-.2 1.7-.3 2.6-.3.9 0 1.8.1 2.6.3.2.9.3 1.8.3 2.7zM10 21c0-4.3 2.5-8.1 6.2-9.9-.1.6-.2 1.3-.2 1.9 0 3.4 1.3 6.5 3.5 8.8-1.9 1.4-4.1 2.2-6.5 2.2-.9 0-1.8-.1-2.6-.3-.3-.9-.4-1.8-.4-2.7zM21 8c-.6 0-1.2.1-1.8.1.5-1 1.1-1.8 1.8-2.6.7.8 1.3 1.7 1.8 2.6-.6 0-1.2-.1-1.8-.1zM2 13C2 6.9 6.9 2 13 2c2.5 0 4.7.8 6.5 2.2-1.2 1.3-2.2 2.8-2.8 4.5C11.7 10.5 8 15.3 8 21c0 .6.1 1.3.1 1.9C4.5 21.1 2 17.3 2 13zm19 19c-4.3 0-8.1-2.5-9.9-6.1.6.1 1.2.1 1.8.1 3 0 5.8-1 8-2.8 2.2 1.8 5 2.8 8.1 2.8.6 0 1.2-.1 1.8-.1C29 29.5 25.3 32 21 32zm12.8-9.1c.1-.6.2-1.3.2-1.9 0-5.7-3.7-10.5-8.8-12.3-.6-1.7-1.5-3.2-2.7-4.5 1.8-1.3 4.1-2.1 6.5-2.1 6.1 0 11 4.9 11 11 0 4.3-2.5 8-6.2 9.8z" fill="#fff"/></svg>