<svg xmlns="http://www.w3.org/2000/svg" width="42" height="61"><path d="M42 22.1c0-5.6-3.5-10.3-8.4-12.1C32.2 4.2 27.1 0 21 0S9.8 4.2 8.4 9.8C3.5 11.7 0 16.4 0 22s3.5 10.3 8.4 12.2c1.3 5.3 6 9.4 11.6 9.8v17h2V43.9c5.6-.4 10.2-4.4 11.6-9.7 4.9-1.8 8.4-6.6 8.4-12.1zM21 2c4.8 0 8.8 3 10.3 7.3-.8-.1-1.5-.2-2.3-.2-3 0-5.8 1-8 2.8-2.2-1.8-5-2.9-8-2.9-.8 0-1.5.1-2.3.2C12.2 5 16.3 2 21 2zm11 11c0 3-1.2 5.7-3.1 7.7-1-.8-2.1-1.4-3.3-1.8-.5-2.1-1.6-4.1-3-5.6 1.8-1.3 4.1-2.1 6.5-2.1 1 0 2 .1 2.9.4V13zm-.1 19.7c-.9.2-1.9.4-2.9.4-2.5 0-4.7-.8-6.6-2.2 1.5-1.6 2.6-3.5 3.1-5.7 1.2-.5 2.3-1.1 3.3-1.8 1.9 2 3.1 4.7 3.1 7.7.1.5 0 1 0 1.6zM10 31c0-3 1.2-5.7 3.1-7.7 1 .8 2.1 1.4 3.3 1.8.5 2.2 1.6 4.1 3.1 5.7-1.9 1.4-4.1 2.2-6.5 2.2-1 0-1.9-.1-2.8-.4-.1-.5-.2-1-.2-1.6zm.1-19.6c.9-.3 1.9-.4 2.9-.4 2.5 0 4.7.8 6.5 2.2-1.5 1.6-2.6 3.5-3.1 5.7-1.2.4-2.3 1.1-3.3 1.8-1.9-2-3.1-4.7-3.1-7.7 0-.6.1-1.1.1-1.6zm13.2 6.8c-.8-.1-1.5-.2-2.3-.2-.8 0-1.5.1-2.3.2.5-1.4 1.3-2.6 2.3-3.7 1 1.1 1.8 2.3 2.3 3.7zm.6 3.8c0 .6-.1 1.1-.1 1.6-.9.3-1.8.4-2.8.4-1 0-2-.1-2.9-.4-.1-.5-.1-1-.1-1.5 0-.6.1-1.1.1-1.7 1-.3 1.9-.4 2.9-.4s1.9.1 2.8.4c.1.5.1 1 .1 1.6zm2-.8c.5.2 1 .5 1.4.8-.4.3-.9.6-1.4.8V22v-.8zM16 22.8c-.5-.2-.9-.5-1.4-.8.4-.3.9-.6 1.4-.8v1.6zm2.7 3c.8.1 1.5.2 2.3.2.8 0 1.5-.1 2.3-.2-.5 1.4-1.3 2.7-2.3 3.7-1.1-1-1.8-2.3-2.3-3.7zM2 22c0-4.3 2.5-8 6-9.8v.8c0 3.5 1.4 6.7 3.6 9C9.4 24.3 8 27.5 8 31v.8C4.5 30 2 26.3 2 22zm19 20c-4.7 0-8.8-3-10.3-7.2.7.1 1.5.2 2.3.2 3 0 5.8-1 8-2.8 2.2 1.8 5 2.8 8.1 2.8.8 0 1.5-.1 2.3-.2C29.7 39 25.7 42 21 42zm13-10.1V31c0-3.5-1.4-6.7-3.6-9 2.2-2.3 3.6-5.5 3.6-9v-.7c3.6 1.8 6 5.5 6 9.8 0 4.3-2.5 8-6 9.8z" fill="#fff"/></svg>