<svg xmlns="http://www.w3.org/2000/svg" width="32" height="51"><path d="M32 13c0-2.1-1-3.3-2.1-4C31 8.3 32 7.1 32 5c0-4.1-3.7-4.9-5-5H8v21H0v2h18v-2h-8V2h17v-.2c1 .1 3.1.7 3.1 3.3 0 2.1-1.5 2.8-2.6 3.1-.5-.2-.9-.2-1-.2H26v2h.5s.4 0 1-.1c1.1.3 2.6 1 2.6 3.2 0 3.2-3.5 3.2-3.6 3.2H26v2.4h.5c.1 0 3.6 0 3.6 3.3 0 2.1-1.5 2.8-2.6 3.1-.6-.1-1-.1-1-.1H26v2h.5s.4 0 1-.1c1.1.3 2.6 1 2.6 3.2 0 2.1-1.5 2.8-2.6 3.1-.6-.1-1-.1-1-.1H26V35h.5s.4 0 1-.1c1.1.3 2.6 1 2.6 3.2s-1.6 2.9-2.7 3.1c-.5-.1-.9-.1-.9-.1H26V43h.5s.4 0 .9-.1c1.1.2 2.7 1 2.7 3.2 0 2.5-2.2 3.1-3.1 3.2V49H10V30h7.8v-2H0v2h8v21h19c1.3-.1 5-.9 5-4.9 0-2.1-1-3.3-2.1-4 1.1-.7 2.1-1.9 2.1-4s-1-3.3-2.1-4c1.1-.7 2.1-1.9 2.1-4s-1-3.3-2.1-4c1.1-.7 2.1-1.9 2.1-4 0-2.7-1.6-4-3-4.5 1.4-.7 3-1.9 3-4.6z" fill="#fff"/></svg>