<svg version="1.1" id="图层_1" xmlns="http://www.w3.org/2000/svg" x="0" y="0" width="28" height="54" xml:space="preserve"><style>.st0{fill:#fff}</style><path class="st0" d="M15 44v-9.1c1.6-.4 4-1.5 4-4.8 0-2.1-1-3.4-2.1-4.1 1.1-.7 2.1-1.9 2.1-4s-1-3.3-2.1-4c1.1-.7 2.1-1.9 2.1-4 0-3.3-2.4-4.4-4-4.8V0h-2v11h2c1 .3 2.2 1.1 2.2 3 0 2.1-1.5 2.8-2.6 3.1-.6-.1-1-.1-1-.1H13v2h.5s.4 0 1-.1c1.1.3 2.6 1 2.6 3.2 0 2.1-1.5 2.8-2.6 3.1-.6-.1-1-.1-1-.1H13V27h.5s.4 0 1-.1c1.1.3 2.6 1 2.6 3.2 0 1.9-1.2 2.7-2.2 3V33h-2v11H0v2h28v-2H15zM5 48h18v2H5zM10 52h8v2h-8z"/></svg>