<svg version="1.1" id="图层_1" xmlns="http://www.w3.org/2000/svg" x="0" y="0" width="21.2" height="54" xml:space="preserve"><style>.st0{fill:#fff}</style><path class="st0" d="M4 22h2v-5H4zM5 17c2.8 0 5-2.2 5-5 0-2.4-1.7-4.4-4-4.9V0H4v7.1c-2.3.5-4 2.5-4 4.9 0 2.8 2.2 5 5 5zm0-8c1.7 0 3 1.3 3 3s-1.3 3-3 3-3-1.3-3-3 1.3-3 3-3zM6.9 37.4l14.3-10.8L20 25 4 37l.1.1C1.8 37.5 0 39.6 0 42c0 2.4 1.7 4.4 4 4.9V54h2v-7.1c2.3-.5 4-2.5 4-4.9 0-2.1-1.3-3.9-3.1-4.6zM5 45c-1.7 0-3-1.3-3-3s1.3-3 3-3 3 1.3 3 3-1.3 3-3 3z"/></svg>