<svg version="1.1" id="图层_1" xmlns="http://www.w3.org/2000/svg" x="0" y="0" width="37.9" height="34.2" xml:space="preserve"><style>.st0{fill:#fff}</style><path class="st0" d="M33.2 24.7l-4.7-10.8-.5-1.3 5.9-5.9 2.7 2.7L38 8l-7-6.9-1.4 1.4 2.8 2.8-13.3 13.3-2-4.6-1.1-2.6-1 2.5-4.7 10.8-4.7-10.8-1.1-2.5-1.1 2.5-3.5 8h2.2l2.4-5.5 4.7 10.8.4.8-4.7 4.7 1.4 1.4L18.5 22l2.2 5.1 1.1 2.5 1.1-2.5 4.6-10.7 4.7 10.8 1.1 2.5 1.1-2.5 2.3-5.4h-2.2l-1.3 2.9zm-21.1.8l3.9-9.1 1.6 3.6-5.5 5.5zm9.7-.9L20 20.5l6.2-6.2-4.4 10.3z"/><path class="st0" d="M14.7 8h-8l4 9zM9.7 0h2v8h-2z"/></svg>