<svg version="1.1" id="图层_1" xmlns="http://www.w3.org/2000/svg" x="0" y="0" width="67" height="47.9" xml:space="preserve"><style>.st0{fill:#fff}</style><path class="st0" d="M49 37.9c-2.8 0-5 2.2-5 5s2.2 5 5 5c2.4 0 4.4-1.7 4.9-4H67v-2H53.9c-.5-2.3-2.5-4-4.9-4zm0 8c-1.7 0-3-1.3-3-3s1.3-3 3-3 3 1.3 3 3-1.3 3-3 3zM41.3 1.9L40.7 0l-5.5 1.9H35V2L22.3 6.4c-.9-1.5-2.5-2.5-4.3-2.5-2.4 0-4.4 1.7-4.9 4H0v2h13.1c.5 2.3 2.5 4 4.9 4 2.8 0 5-2.2 5-5 0-.2 0-.4-.1-.6L35 4.1V19l-12.7 4.4c-.9-1.5-2.5-2.5-4.3-2.5-2.4 0-4.4 1.7-4.9 4H0v2h13.1c.5 2.3 2.5 4 4.9 4 2.8 0 5-2.2 5-5 0-.2 0-.4-.1-.6L35 21.1V36l-12.7 4.4c-.9-1.5-2.5-2.5-4.3-2.5-2.4 0-4.4 1.7-4.9 4H0v2h13.1c.5 2.3 2.5 4 4.9 4 2.8 0 5-2.2 5-5 0-.2 0-.4-.1-.6l18.4-6.4-.6-1.9-3.7 1.3V20.4l4.3-1.5-.6-1.9-3.7 1.3V3.4l4.3-1.5zM18 11.9c-1.7 0-3-1.3-3-3s1.3-3 3-3 3 1.3 3 3-1.3 3-3 3zm0 17c-1.7 0-3-1.3-3-3s1.3-3 3-3 3 1.3 3 3-1.3 3-3 3zm0 17c-1.7 0-3-1.3-3-3s1.3-3 3-3 3 1.3 3 3-1.3 3-3 3zM49 20.9c-2.8 0-5 2.2-5 5s2.2 5 5 5c2.4 0 4.4-1.7 4.9-4H67v-2H53.9c-.5-2.3-2.5-4-4.9-4zm0 8c-1.7 0-3-1.3-3-3s1.3-3 3-3 3 1.3 3 3-1.3 3-3 3zM53.9 7.9c-.5-2.3-2.5-4-4.9-4-2.8 0-5 2.2-5 5s2.2 5 5 5c2.4 0 4.4-1.7 4.9-4H67v-2H53.9zm-4.9 4c-1.7 0-3-1.3-3-3s1.3-3 3-3 3 1.3 3 3-1.3 3-3 3z"/></svg>