<svg version="1.1" id="图层_1" xmlns="http://www.w3.org/2000/svg" x="0" y="0" width="45.6" height="84" xml:space="preserve"><style>.st0{fill:#fff}</style><path class="st0" d="M31.9 16h-18v27h18V16zm-16 25V18h14v23h-14zM21.9 45v10h2V45"/><path class="st0" d="M22.8 52.8l-6.6 3.7 1 1.8 6.6-3.7"/><path class="st0" d="M22.8 52.8l6.6 3.7-1 1.8-6.6-3.7M32.9 68v7.8h2V68"/><path class="st0" d="M33.9 74.7l-6.6 3.6 1 1.7 6.6-3.6"/><path class="st0" d="M33.9 74.7l6.6 3.6-1 1.7-6.6-3.6M10.2 80l6.9-12H3.2l7 12zm0-3.6L6.5 70h7.4l-3.7 6.4z"/><path transform="rotate(90 22.896 22.333)" class="st0" d="M.6 21.3h44.7v2H.6z"/><path class="st0" d="M45.6 71c0-7.2-5.8-13-13-13s-13 5.8-13 13 5.8 13 13 13 13-5.8 13-13zm-24 0c0-6.1 4.9-11 11-11s11 4.9 11 11-4.9 11-11 11-11-4.9-11-11z"/><path class="st0" d="M26 71c0-7.2-5.8-13-13-13S0 63.8 0 71s5.8 13 13 13 13-5.8 13-13zM2 71c0-6.1 4.9-11 11-11s11 4.9 11 11-4.9 11-11 11S2 77.1 2 71z"/><path class="st0" d="M22.8 70.2c7.2 0 13-5.8 13-13s-5.8-13-13-13-13 5.8-13 13 5.8 13 13 13zm0-24c6.1 0 11 4.9 11 11s-4.9 11-11 11-11-4.9-11-11 4.9-11 11-11z"/><g><path class="st0" d="M23.8 5.1L16.5 9l-1-1.6 7.3-3.8z"/><path class="st0" d="M21.8 5.1L29.1 9l1-1.6-7.3-3.8z"/></g><g><path class="st0" d="M23.8 10l-7.3 4-1-1.6 7.3-4z"/><path class="st0" d="M21.8 10l7.3 4 1-1.6-7.3-4z"/></g></svg>