<svg version="1.1" id="图层_1" xmlns="http://www.w3.org/2000/svg" x="0" y="0" width="140" height="140" xml:space="preserve"><style>.st0{fill:#fff}.st4{fill:#454545}</style><path class="st0" d="M132.1 140H7.9c-4.4 0-7.9-3.6-7.9-7.9V7.9C0 3.6 3.6 0 7.9 0H132c4.4 0 7.9 3.6 7.9 7.9V132c.1 4.4-3.5 8-7.8 8z"/><path d="M130.6 138.4H9.4c-4.3 0-7.8-3.5-7.8-7.8V9.4c0-4.3 3.5-7.8 7.8-7.8h121.3c4.3 0 7.8 3.5 7.8 7.8v121.3c-.1 4.2-3.6 7.7-7.9 7.7z" fill="#e0e0e0"/><path d="M131.6 114.7H8.4c-.8 0-1.5-.7-1.5-1.5V26.8c0-.8.7-1.5 1.5-1.5h123.2c.8 0 1.5.7 1.5 1.5v86.5c0 .7-.7 1.4-1.5 1.4z" fill="#a2a2a2"/><path class="st0" d="M130.8 114.1H9.2c-.8 0-1.4-.7-1.4-1.4V27.3c0-.8.7-1.4 1.4-1.4h121.7c.8 0 1.4.7 1.4 1.4v85.4c0 .8-.7 1.4-1.5 1.4z"/><path d="M130.2 113.7H9.8c-.8 0-1.4-.6-1.4-1.4V27.7c0-.8.6-1.4 1.4-1.4h120.4c.8 0 1.4.6 1.4 1.4v84.5c0 .8-.6 1.5-1.4 1.5z" fill="#eee"/><circle class="st4" cx="20.6" cy="39.8" r="6"/><path class="st4" d="M24.9 32.1h5.5v15.4h-5.5z"/><circle class="st4" cx="59.6" cy="39.8" r="6"/><path transform="rotate(-180 52.492 39.805)" class="st4" d="M49.8 32.1h5.5v15.4h-5.5z"/><path transform="rotate(-180 39.73 71.429)" class="st4" d="M37 63.8h5.5v15.3H37z"/><path transform="rotate(-134.999 56.47 100.55)" class="st4" d="M53.7 92.9h5.5v15.3h-5.5z"/><path transform="rotate(-45.001 23.687 100.55)" class="st4" d="M20.9 92.9h5.5v15.3h-5.5z"/><g><path d="M92.9 31.7h29.2c1.2 0 2.3 1 2.3 2.3v72c0 1.2-1 2.3-2.3 2.3H92.9c-1.2 0-2.3-1-2.3-2.3V34c0-1.3 1-2.3 2.3-2.3z" fill="#8a8a8a"/><path d="M123.6 34.2v71.7c0 .9-.7 1.6-1.6 1.6H93c-.9 0-1.6-.7-1.6-1.6V34.2c0-.9.7-1.6 1.6-1.6h29c.9-.1 1.6.7 1.6 1.6z" fill="#f7f7f7"/><path d="M93.5 39h28.1c1.1 0 2.1 1.1 2.1 2.5V35c0-1.4-.9-2.5-2.1-2.5H93.5c-1.1 0-2.1 1.1-2.1 2.5v6.5c0-1.3.9-2.5 2.1-2.5z" fill="#c4c4c4"/><path d="M101.1 92.9h12.8c.7 0 1.3.6 1.3 1.3v4.3c0 .7-.6 1.3-1.3 1.3h-12.8c-.7 0-1.3-.6-1.3-1.3v-4.3c0-.7.6-1.3 1.3-1.3z" fill="#3aa138"/><path class="st0" d="M102.4 99.4h11.5c.4 0 .8-.4.8-.8V96h-.7l-.8 2.5-10.8.9z"/></g></svg>