<svg xmlns="http://www.w3.org/2000/svg" width="40" height="40"><radialGradient id="a" cx="-11.864" cy="79.555" r="65.019" gradientTransform="translate(0 -91.42)" gradientUnits="userSpaceOnUse"><stop offset=".4" stop-color="gray"/><stop offset=".501" stop-color="#6e6e6e"/><stop offset=".704" stop-color="#3e3e3e"/><stop offset=".82" stop-color="#202020"/><stop offset="1" stop-color="#404040"/></radialGradient><circle cx="20" cy="20" r="20" fill="url(#a)"/><radialGradient id="b" cx="-7.483" cy="83.936" r="56.079" gradientTransform="translate(0 -91.42)" gradientUnits="userSpaceOnUse"><stop offset=".4" stop-color="#585858"/><stop offset=".509" stop-color="#464646"/><stop offset=".728" stop-color="#161616"/><stop offset=".82"/><stop offset="1" stop-color="#202020"/></radialGradient><path d="M20 37.3c-9.5 0-17.3-7.7-17.3-17.3S10.5 2.7 20 2.7 37.3 10.5 37.3 20 29.5 37.3 20 37.3z" fill="url(#b)"/><linearGradient id="c" gradientUnits="userSpaceOnUse" x1="5.166" y1="111.419" x2="34.834" y2="111.419" gradientTransform="translate(0 -91.42)"><stop offset="0" stop-color="#30b0de"/><stop offset=".066" stop-color="#68e4f5"/><stop offset=".112" stop-color="#96faff"/><stop offset=".27" stop-color="#96faff"/><stop offset=".49" stop-color="#30b0de"/><stop offset=".592" stop-color="#008cba"/><stop offset=".883" stop-color="#004963"/><stop offset="1" stop-color="#2581a8"/></linearGradient><circle cx="20" cy="20" r="14.8" fill="url(#c)"/><linearGradient id="d" gradientUnits="userSpaceOnUse" x1="13.15" y1="126.254" x2="13.15" y2="96.585" gradientTransform="translate(0 -91.42)"><stop offset="0" stop-color="#fff" stop-opacity="0"/><stop offset="1" stop-color="#fff"/></linearGradient><path d="M21.1 5.2H20C11.8 5.2 5.2 11.8 5.2 20c0 8.2 6.6 14.8 14.8 14.8h1.1c-2.5-4.4-4-9.4-4-14.8s1.5-10.4 4-14.8z" opacity=".3" fill="url(#d)"/><linearGradient id="e" gradientUnits="userSpaceOnUse" x1="11.2" y1="126.019" x2="11.2" y2="96.82" gradientTransform="translate(0 -91.42)"><stop offset="0" stop-color="#9f9f9f" stop-opacity="0"/><stop offset="1" stop-color="#fff"/></linearGradient><path d="M17.3 5.4C10.4 6.7 5.1 12.7 5.1 20s5.3 13.3 12.2 14.6c-2.5-4.3-3.8-9.3-3.8-14.6s1.4-10.3 3.8-14.6z" opacity=".6" fill="url(#e)"/></svg>