<svg version="1.1" id="图层_1" xmlns="http://www.w3.org/2000/svg" x="0" y="0" width="72" height="54" xml:space="preserve"><style>.st0{fill:#30363d}.st1{fill:#87a5c1}.st2{fill:#a9bfd3}</style><path class="st0" d="M51.1 7H20.9C19.3 7 18 5.7 18 4.1V2.9C18 1.3 19.3 0 20.9 0h30.3C52.7 0 54 1.3 54 2.9v1.3C54 5.7 52.7 7 51.1 7z"/><path class="st1" d="M50.6 6H21.4C20.1 6 19 4.9 19 3.6v-.2C19 2.1 20.1 1 21.4 1h29.3C51.9 1 53 2.1 53 3.4v.3C53 4.9 51.9 6 50.6 6z"/><path class="st0" d="M65 51.1V20.9c0-1.6 1.3-2.9 2.9-2.9h1.3c1.6 0 2.9 1.3 2.9 2.9v30.3c0 1.6-1.3 2.9-2.9 2.9h-1.3c-1.6-.1-2.9-1.4-2.9-3z"/><path class="st1" d="M66 50.6V21.4c0-1.3 1.1-2.4 2.4-2.4h.3c1.3 0 2.4 1.1 2.4 2.4v29.3c0 1.3-1.1 2.4-2.4 2.4h-.3c-1.3-.1-2.4-1.2-2.4-2.5z"/><path class="st0" d="M0 51.1V20.8C0 19.3 1.3 18 2.9 18h1.3C5.7 18 7 19.3 7 20.9v30.3C7 52.7 5.7 54 4.1 54H2.9C1.3 54 0 52.7 0 51.1z"/><path class="st1" d="M1 50.6V21.3C1 20.1 2.1 19 3.4 19h.3C4.9 19 6 20.1 6 21.4v29.3C6 51.9 4.9 53 3.6 53h-.2C2.1 53 1 51.9 1 50.6z"/><path class="st2" d="M23 7h26v16H23z"/><path transform="rotate(-180 23.5 15)" class="st0" d="M23 7h1v16h-1z"/><path class="st0" d="M48 7h1v16h-1z"/><path transform="rotate(90 36 36)" class="st2" d="M23 7h26v58H23z"/><path transform="rotate(90 17 25.5)" class="st1" d="M15.5 15.5h3v20h-3z"/><path transform="rotate(-90 15.5 23.5)" class="st0" d="M15 15h1v17h-1z"/><path transform="rotate(90 55 25.5)" class="st1" d="M53.5 15.5h3v20h-3z"/><path transform="rotate(-90 56.5 23.5)" class="st0" d="M56 15h1v17h-1z"/><path transform="rotate(-90 36 46.5)" class="st1" d="M34.5 17.5h3v58h-3z"/><path transform="rotate(90 36 48.5)" class="st0" d="M35.5 19.5h1v58h-1z"/><path class="st1" d="M24 7h3v18h-3z"/><path transform="rotate(-180 46.5 16)" class="st1" d="M45 7h3v18h-3z"/></svg>