<?xml version="1.0" encoding="utf-8"?>
<!-- Generator: Adobe Illustrator 22.1.0, SVG Export Plug-In . SVG Version: 6.00 Build 0)  -->
<svg version="1.1" id="图层_1" xmlns="http://www.w3.org/2000/svg" xmlns:xlink="http://www.w3.org/1999/xlink" x="0px" y="0px"
	 width="60.4px" height="14.6px" viewBox="0 0 60.4 14.6" style="enable-background:new 0 0 60.4 14.6;" xml:space="preserve">
<style type="text/css">
	.st0{fill-rule:evenodd;clip-rule:evenodd;fill:#FFFFFF;}
</style>
<path class="st0" d="M31.4,0.7v13.2c0,0.5,0.1,0.6,0.6,0.6h2.4c0.2,0,0.5-0.1,0.5-0.4c0-1.9,0.1-6.8,0.1-7.9c1,1.3,5.1,6.3,6.7,8
	c0.3,0.3,0.4,0.3,0.8,0.3h2.4c0.5,0,0.6-0.1,0.6-0.6V0.5c0-0.3-0.1-0.5-0.4-0.5h-2.5C42,0.1,42,0.3,42,0.5c0,1.6-0.1,6.9-0.1,8.1
	c-1-1.3-5.2-6.4-6.6-8c-0.3-0.3-0.4-0.6-0.8-0.6H32C31.5,0.1,31.4,0.2,31.4,0.7L31.4,0.7z"/>
<path class="st0" d="M0,3.9C0,6,0,8,0,10.1c0,2.4,1.7,4.5,4,4.5c2.1,0,4.3,0,6.4,0c2.1,0,3.8-2.3,3.8-4.7c0-0.2,0-0.4,0-0.6
	c0-0.5-0.3-0.8-0.8-0.8c-0.7,0-1.5,0-2.2,0c-1.4,0,0.4,3.1-2,3.1c-1.5,0-2.9,0-4.4,0c-0.5,0-0.5-0.1-1-0.2c-0.1-0.5-0.2-0.5-0.2-1
	c0-1.9,0-3.8,0-5.8c0-0.6,0.2-1.2,0.8-1.2c1.8,0,3.6,0,5.4,0c1.6,0,0,2.3,1.4,2.3c0.8,0,1.6,0,2.4,0c0.5,0,0.6-0.1,0.6-0.6
	c0-0.3,0-0.5,0-0.8c0-2.6-2.5-4.1-5.4-4.1C7.5,0,6.2,0,5,0C2.5,0,0,1.5,0,3.9L0,3.9z"/>
<path class="st0" d="M46.4,0.5v2.3c0,0.3,0.1,0.4,0.4,0.5h4.8v10.6c0,0.5,0.1,0.6,0.6,0.6h2.6c0.5,0,0.6-0.1,0.6-0.6V3.3h4.5
	c0.5,0,0.6-0.1,0.6-0.6v-2c0-0.5-0.1-0.6-0.6-0.6h-13C46.5,0.1,46.4,0,46.4,0.5L46.4,0.5z"/>
<path class="st0" d="M15.1,0.5V14c0,0.5,0.1,0.6,0.6,0.6h2.6c0.5,0,0.6-0.1,0.6-0.6V8.6h6.8V14c0,0.5,0.1,0.6,0.6,0.6h2.6
	c0.5,0,0.6-0.1,0.6-0.6V6.3c0-0.8-0.1-0.9-0.7-0.9h-9.8V0.6c0-0.4-0.1-0.6-0.5-0.6l-2.9,0C15.1,0,15.1,0.2,15.1,0.5L15.1,0.5z"/>
<path class="st0" d="M26.1,0.9v2.2c0,0.5,0.3,0.8,0.8,0.8H29c0.5,0,0.8-0.3,0.8-0.8V0.9c0-0.5-0.3-0.8-0.8-0.8h-2.2
	C26.4,0.1,26.1,0.4,26.1,0.9L26.1,0.9z"/>
</svg>
