<svg class="icon" viewBox="0 0 1024 1024" xmlns="http://www.w3.org/2000/svg" width="32" height="32"><defs><style/></defs><path d="M840.829 414.4a66.72 66.72 0 00-56.96-35.2h-184.64l57.6-300.8a44.32 44.32 0 001.6-14.4 64 64 0 00-62.4-64h-6.4a52 52 0 00-27.2 11.2 91.52 91.52 0 00-12.8 11.2c-1.6 1.6-1.6 3.2-3.2 4.8l-358.4 475.2a64 64 0 00-4.8 67.2 66.72 66.72 0 0057.6 35.2l184 1.6-56.96 342.4a64 64 0 0038.4 70.4 72.48 72.48 0 0025.6 4.8 58.88 58.88 0 0049.6-27.2l358.4-513.6a80 80 0 00.96-68.8zm-412.8 542.4l72-417.6-260.16-1.6 356.16-476.8-72 379.2 260.8 1.6z"/></svg>