<svg class="icon" viewBox="0 0 1024 1024" xmlns="http://www.w3.org/2000/svg" width="48" height="48"><defs><style/></defs><path d="M92.16 253.44zm-5.12 5.12zm-5.12 23.04zM89.6 256zm2.56 0c0-2.56 0-2.56 0 0 0-2.56 0-2.56 0 0zm-7.68 5.12zm-2.56 5.12zm2.56-2.56zm-2.56 17.92c0-2.56 0-2.56 0 0 0-2.56 0-2.56 0 0zm0-10.24s0-2.56 0 0c0-2.56 0 0 0 0zm0 7.68c0-2.56 0-2.56 0 0 0-2.56 0-2.56 0 0zm5.12-17.92c0-2.56 0-2.56 0 0 0-2.56 0-2.56 0 0zm-2.56 23.04zm-2.56-15.36s0-2.56 0 0c0-2.56 0 0 0 0zM107.52 250.88c5.12 0 87.04 10.24 189.44 38.4 92.16 2.56 215.04 17.92 322.56 66.56 145.92 66.56 163.84 179.2 163.84 258.56 17.92 23.04 33.28 43.52 48.64 66.56v-30.72c0-79.36 2.56-248.32-192-337.92-128-61.44-276.48-74.24-373.76-74.24-97.28 0-161.28 12.8-163.84 12.8h5.12zM87.04 289.28zm-5.12-17.92zm7.68 20.48zM788.48 701.44c-12.8 10.24-56.32 25.6-128 25.6-48.64 0-140.8-7.68-217.6-66.56-74.24-56.32-110.08-120.32-151.04-192-30.72-53.76-61.44-107.52-110.08-158.72-46.08-7.68-79.36-12.8-79.36-12.8-5.12 0-10.24-2.56-12.8-5.12h2.56c79.36 56.32 120.32 125.44 161.28 199.68 40.96 71.68 81.92 143.36 163.84 204.8 87.04 66.56 192 76.8 245.76 76.8 56.32 0 120.32-10.24 153.6-33.28-7.68-12.8-17.92-28.16-28.16-40.96v2.56zM97.28 250.88zm-10.24 38.4l-2.56-2.56 2.56 2.56zm7.68-35.84zm5.12-2.56zm-15.36 33.28c-2.56 0-2.56 0 0 0-2.56 0-2.56 0 0 0zm2.56 5.12zm-5.12-12.8zm7.68 15.36zm-7.68-20.48zm0 7.68zm5.12 12.8zm-2.56-7.68zm-2.56-2.56zm12.8-28.16c0-2.56 2.56-2.56 0 0 2.56-2.56 0-2.56 0 0zm-2.56 0zm2.56 0zm2.56-2.56s2.56 0 0 0c2.56 0 0 0 0 0zM81.92 268.8z" fill="#2c2c2c"/><path d="M929.28 839.68c-5.12-15.36-40.96-81.92-94.72-161.28v7.68c5.12 10.24 5.12 23.04-2.56 35.84-2.56 5.12-10.24 10.24-15.36 15.36 38.4 61.44 64 107.52 69.12 117.76 2.56 10.24 12.8 15.36 23.04 15.36 2.56 0 5.12 0 7.68-2.56 10.24 0 17.92-15.36 12.8-28.16zM550.4 389.12c-76.8-48.64-171.52-81.92-253.44-102.4h-33.28c-38.4 0-74.24 2.56-99.84 5.12l20.48 20.48c89.6 17.92 235.52 53.76 340.48 120.32 104.96 66.56 197.12 176.64 261.12 268.8-2.56-12.8-2.56-28.16-2.56-51.2v-33.28c-61.44-84.48-140.8-171.52-232.96-227.84zM99.84 250.88zM89.6 256zm-7.68 10.24zm2.56-2.56s0-2.56 0 0c0-2.56 0 0 0 0zm0 0zm2.56-5.12c2.56-2.56 2.56-2.56 0 0 2.56-2.56 2.56-2.56 0 0zm-2.56 2.56s2.56 0 0 0c2.56 0 0 0 0 0zm2.56-2.56z" fill="#2c2c2c"/><path d="M832 724.48c7.68-10.24 7.68-25.6 2.56-35.84v-7.68c-15.36-20.48-30.72-43.52-48.64-66.56v33.28c0 20.48 0 38.4 2.56 51.2 10.24 15.36 20.48 28.16 28.16 40.96 5.12-5.12 12.8-10.24 15.36-15.36zM184.32 312.32c-5.12-7.68-12.8-12.8-20.48-20.48 25.6-2.56 61.44-5.12 99.84-5.12h33.28c-102.4-25.6-184.32-35.84-189.44-38.4h-12.8v25.6l2.56 2.56v2.56c2.56 2.56 7.68 5.12 12.8 5.12-7.68 12.8 25.6 17.92 74.24 28.16z" fill="#2c2c2c"/></svg>