<svg class="icon" viewBox="0 0 1024 1024" xmlns="http://www.w3.org/2000/svg" width="48" height="48"><defs><style/></defs><path d="M160.18 255.94h703.64v512.12H160.18V255.94m-32-20v552.12a12 12 0 0012 12h743.64a12 12 0 0012-12V235.94a12 12 0 00-12-12H140.18a12 12 0 00-12 12z" fill="#2c2c2c"/><path d="M762 727.54H262a16 16 0 010-32h500a16 16 0 010 32zm0-109H262a16 16 0 010-32h500a16 16 0 010 32z" fill="#2c2c2c"/><path d="M762 618.54H262a16 16 0 010-32h500a16 16 0 010 32zm0-109H262a16 16 0 110-32h500a16 16 0 010 32z" fill="#2c2c2c"/><path d="M762 509.54H262a16 16 0 110-32h500a16 16 0 010 32zM761.94 374.29H502a16 16 0 010-32h260a16 16 0 010 32zm-359.94 55H292a46 46 0 01-46-46v-50a46.05 46.05 0 0146-46h110a46.06 46.06 0 0146 46v50a46.05 46.05 0 01-46 46zm-110-110a14 14 0 00-14 14v50a14 14 0 0014 14h110a14 14 0 0014-14v-50a14 14 0 00-14-14z" fill="#2c2c2c"/></svg>