<svg class="icon" viewBox="0 0 1024 1024" xmlns="http://www.w3.org/2000/svg" width="48" height="48"><defs><style/></defs><path d="M914.25 753.962l-92.396-149.057V400.718a306.281 306.281 0 00-216.949-293.52 24.502 24.502 0 000-5.615 93.926 93.926 0 00-186.831.51 24.502 24.502 0 000 5.616 306.281 306.281 0 00-215.418 292.498v204.188l-92.905 149.567a76.57 76.57 0 0065.34 116.897h183.768a153.14 153.14 0 00306.282 0h183.768a76.57 76.57 0 0065.34-116.897zM512 58.704a42.369 42.369 0 0141.348 37.264 306.281 306.281 0 00-38.796-2.552h-5.104a306.281 306.281 0 00-38.796 2.552A42.369 42.369 0 01512 58.704zm0 903.53a102.094 102.094 0 01-102.094-91.375h204.188A102.094 102.094 0 01512 962.233zm0-167.945H175.09l102.094-167.434V400.207a230.221 230.221 0 01232.264-230.731h5.104a230.221 230.221 0 01230.222 230.22v226.649l102.093 167.434H512z" fill="#2c2c2c"/></svg>