<svg version="1.1" id="图层_1" xmlns="http://www.w3.org/2000/svg" x="0" y="0" width="28.1" height="48.3" xml:space="preserve"><style>.st2{fill:#adadad}.st5{fill:#fff}</style><path fill="#848484" d="M14.1 35.8H8.2v8.8l2.3 2h7.2l2.3-2v-8.8z"/><path d="M14.1 46.6h-3.6l1.5 1.3c.2.2.5.3.8.3h2.7c.3 0 .6-.1.8-.3l1.5-1.3h-3.7z" fill="#747577"/><path class="st2" d="M14.1 35H7.7v2.5c0 .2.2.4.4.4l5.9-.4 6-.4c.2 0 .4-.2.4-.4V35h-6.3zm5.8 6.7l-5.8.4-5.9.4c-.2 0-.4.2-.4.5 0 .2.2.4.5.4l5.8-.4 5.9-.4c.2 0 .4-.2.4-.5-.1-.3-.3-.5-.5-.4zm0 2l-5.8.4-5.9.4.9.8 5-.4 5.9-.4c.2 0 .4-.2.4-.5-.1-.1-.3-.3-.5-.3zm0-3.9l-5.8.4-5.9.4c-.2 0-.4.2-.4.5 0 .2.2.4.5.4l5.8-.4 5.9-.4c.2 0 .4-.2.4-.5-.1-.2-.3-.4-.5-.4zm0-1.8l-5.8.4-5.9.4c-.2 0-.4.2-.4.5 0 .2.2.4.5.4l5.8-.4 5.9-.4c.2 0 .4-.2.4-.5-.1-.2-.3-.4-.5-.4z"/><path class="st2" d="M14.1 44.2l-5.9.4 2.3 2h7.2l2.3-2v-.9z"/><path d="M14.1 0C6.3 0 0 6.3 0 14.1c0 3.5 1.4 6.7 3.4 9.2.9 1.1 2.1 2.9 2.7 4.9.6 1.9.6 2.5.8 4.5C7 34.7 8 35 8.8 35h10.6c.8 0 1.8-.3 1.9-2.3.1-2 .2-2.6.8-4.5.6-2 1.8-3.8 2.7-4.9 2.1-2.5 3.4-5.7 3.4-9.2C28.1 6.3 21.8 0 14.1 0z" fill="#ffe85f"/><path class="st5" d="M14.1 35H7.7v2.5c0 .2.2.4.4.4v1c-.2 0-.4.2-.4.5 0 .2.2.4.4.4v1c-.2 0-.4.2-.4.5 0 .2.2.4.4.4v1c-.2 0-.4.2-.4.5 0 .2.2.4.4.4v1.2l2.3 2 1.5 1.3c.2.2.5.3.8.3h1.4m0-48.4C6.3 0 0 6.3 0 14.1c0 3.5 1.4 6.7 3.4 9.2.9 1.1 2.1 2.9 2.7 4.9.6 1.9.6 2.5.8 4.5C7 34.7 8 35 8.8 35h5.3" opacity=".3"/><circle class="st5" cx="6.2" cy="16" r=".9"/></svg>