<svg xmlns="http://www.w3.org/2000/svg" width="80" height="80"><path d="M76 80H4c-2.2 0-4-1.8-4-4V4c0-2.2 1.8-4 4-4h72c2.2 0 4 1.8 4 4v72c0 2.2-1.8 4-4 4z" fill="#ccc"/><path d="M72.4 77H7.6C5 77 3 75 3 72.4V7.6C3 5 5 3 7.6 3h64.9C75 3 77 5 77 7.6v64.9c0 2.5-2 4.5-4.6 4.5z" opacity=".15" fill="#333"/><radialGradient id="a" cx="40" cy="63" r="35" gradientTransform="translate(0 -23)" gradientUnits="userSpaceOnUse"><stop offset="0" stop-color="#757575"/><stop offset=".41" stop-color="#8c8c8c"/></radialGradient><path d="M70.7 75H9.3C6.9 75 5 73.1 5 70.7V9.3C5 6.9 6.9 5 9.3 5h61.4C73.1 5 75 6.9 75 9.3v61.4c0 2.4-1.9 4.3-4.3 4.3z" fill="url(#a)"/><radialGradient id="b" cx="39.667" cy="62.5" r="34" gradientTransform="translate(0 -23)" gradientUnits="userSpaceOnUse"><stop offset="0" stop-color="#ffffb6"/><stop offset="1" stop-color="#ffb100"/></radialGradient><path d="M69.5 73.5H9.9c-2.3 0-4.2-1.9-4.2-4.2V9.7c0-2.3 1.9-4.2 4.2-4.2h59.6c2.3 0 4.2 1.9 4.2 4.2v59.6c0 2.3-1.9 4.2-4.2 4.2z" fill="url(#b)"/><path d="M69.5 73.5H9.9c-2.3 0-4.2-1.9-4.2-4.2V9.7c0-2.3 1.9-4.2 4.2-4.2h59.6c2.3 0 4.2 1.9 4.2 4.2v59.6c0 2.3-1.9 4.2-4.2 4.2z" opacity=".52" fill="#282828"/></svg>