<svg version="1.1" id="图层_1" xmlns="http://www.w3.org/2000/svg" x="0" y="0" width="60" height="60.6" xml:space="preserve"><style>.st0{fill:#999}</style><path class="st0" d="M30 47.2c-9.6 0-16.6-7.7-16.6-16.6S21.1 14 30 14s16.6 7.7 16.6 16.6-7 16.6-16.6 16.6zm0-25.5c-4.5 0-8.3 3.8-8.3 8.3s3.8 8.9 8.3 8.9 8.9-3.8 8.9-8.9-3.8-8.3-8.9-8.3z"/><path class="st0" d="M30 60.6C13.4 60.6 0 47.2 0 30S13.4 0 30 0s30 13.4 30 30-12.8 30.6-30 30.6zm0-52.3C17.9 8.3 7.7 18.5 7.7 30.6S17.9 53 30 53s22.3-10.2 22.3-22.3S42.8 8.3 30 8.3z"/></svg>