<svg version="1.1" id="图层_1" xmlns="http://www.w3.org/2000/svg" x="0" y="0" width="59.5" height="19.2" xml:space="preserve"><style>.st1{fill:#adadad}.st2{fill:#d6d7d7}.st3{fill:#ffee76}</style><path fill="#848484" d="M6 2.5h47.4v14.2H6z"/><path class="st1" d="M18.5 4.2h22.4v10.9H18.5z"/><path class="st2" d="M40.1 5v9.3H19.3V5h20.8m1.6-1.6h-24v12.5h24V3.4z"/><ellipse transform="rotate(-81.992 51.072 9.597)" class="st1" cx="51.1" cy="9.6" rx="9.6" ry="8.4"/><ellipse transform="rotate(-81.992 51.766 9.657)" class="st1" cx="51.8" cy="9.7" rx="8.3" ry="6.6"/><path class="st2" d="M51.3 18.8c-.3 0-.6 0-.8-.1-4-.6-6.8-5.1-6.1-10.1.3-2.4 1.4-4.5 3-6C49 1 51 .3 53 .6c4 .6 6.8 5.1 6.1 10.1-.6 4.6-4 8.1-7.8 8.1zm.9-16.6c-1.3 0-2.6.6-3.7 1.6-1.3 1.2-2.2 3-2.5 5-.6 4.1 1.5 7.8 4.7 8.3 3.2.4 6.2-2.5 6.8-6.6.6-4.1-1.5-7.8-4.7-8.3h-.6z"/><ellipse transform="rotate(-81.992 52.12 9.706)" class="st3" cx="52.1" cy="9.7" rx="7.3" ry="5.6"/><ellipse transform="rotate(-8.008 8.437 9.597)" class="st1" cx="8.4" cy="9.6" rx="8.4" ry="9.6"/><ellipse transform="rotate(-8.008 7.743 9.657)" class="st1" cx="7.7" cy="9.7" rx="6.6" ry="8.3"/><path class="st2" d="M.4 10.7c-.7-5 2-9.5 6.1-10.1 2-.3 4 .4 5.6 2 1.6 1.5 2.6 3.6 3 6 .7 5-2 9.5-6.1 10.1-.3 0-.6.1-.8.1-3.8 0-7.1-3.5-7.8-8.1zm6.3-8.5c-3.2.4-5.3 4.2-4.7 8.3.6 4.1 3.6 7.1 6.8 6.6 3.2-.4 5.3-4.2 4.7-8.3-.3-2-1.2-3.8-2.5-5.1-1.1-1-2.4-1.6-3.7-1.6-.2.1-.4.1-.6.1z"/><ellipse transform="rotate(-8.008 7.39 9.707)" class="st3" cx="7.4" cy="9.7" rx="5.6" ry="7.3"/></svg>