<svg xmlns="http://www.w3.org/2000/svg" width="80" height="79.8"><ellipse cx="40" cy="39.9" rx="40" ry="39.9" fill="#ccc"/><ellipse cx="40" cy="39.9" rx="37.4" ry="37.3" fill="#333" opacity=".15"/><g opacity=".35"><radialGradient id="a" cx="39.687" cy="40.122" r="35.616" gradientUnits="userSpaceOnUse"><stop offset="0" stop-color="#ffffb6"/><stop offset="1" stop-color="#ffb100"/></radialGradient><circle cx="39.7" cy="40.1" r="35.6" fill="url(#a)"/></g><circle transform="rotate(-67.5 39.686 40.12)" cx="39.7" cy="40.1" fill="#020202" r="35.6" opacity=".4"/><radialGradient id="b" cx="39.687" cy="40.122" r="35.894" gradientUnits="userSpaceOnUse"><stop offset="0" stop-color="#757575"/><stop offset=".41" stop-color="#8c8c8c"/></radialGradient><path d="M39.7 76C19.9 76 3.8 59.9 3.8 40.1c0-19.8 16.1-35.9 35.9-35.9s35.9 16.1 35.9 35.9C75.6 59.9 59.5 76 39.7 76zm0-71.2C20.2 4.8 4.3 20.6 4.3 40.1s15.9 35.3 35.3 35.3S75 59.6 75 40.1 59.2 4.8 39.7 4.8z" fill="url(#b)"/></svg>