<svg xmlns="http://www.w3.org/2000/svg" width="380" height="80"><path d="M376 80H4c-2.2 0-4-1.8-4-4V4c0-2.2 1.8-4 4-4h372c2.2 0 4 1.8 4 4v72c0 2.2-1.8 4-4 4z" fill="#ccc"/><path d="M372.4 77H7.6C5 77 3 75 3 72.4V7.6C3 5 5 3 7.6 3h364.9c2.5 0 4.6 2 4.6 4.6v64.9C377 75 375 77 372.4 77z" opacity=".15" fill="#333"/><radialGradient id="a" cx="190" cy="40" r="133.135" gradientUnits="userSpaceOnUse"><stop offset="0" stop-color="#757575"/><stop offset=".41" stop-color="#8c8c8c"/></radialGradient><path d="M370.7 75H9.3C6.9 75 5 73.1 5 70.7V9.3C5 6.9 6.9 5 9.3 5h361.4c2.4 0 4.3 1.9 4.3 4.3v61.4c0 2.4-1.9 4.3-4.3 4.3z" fill="url(#a)"/><radialGradient id="b" cx="190" cy="40" r="132.31" gradientUnits="userSpaceOnUse"><stop offset="0" stop-color="#ffffb6"/><stop offset="1" stop-color="#ffb100"/></radialGradient><path d="M369.8 74H10.2C7.9 74 6 72.1 6 69.8V10.2C6 7.9 7.9 6 10.2 6h359.6c2.3 0 4.2 1.9 4.2 4.2v59.6c0 2.3-1.9 4.2-4.2 4.2z" opacity=".35" fill="url(#b)"/><path d="M369.8 74H10.2C7.9 74 6 72.1 6 69.8V10.2C6 7.9 7.9 6 10.2 6h359.6c2.3 0 4.2 1.9 4.2 4.2v59.6c0 2.3-1.9 4.2-4.2 4.2z" opacity=".3" fill="#020202"/></svg>