<svg version="1.1" id="图层_1" xmlns="http://www.w3.org/2000/svg" x="0" y="0" width="80" height="80" xml:space="preserve"><style>.st0{fill:#b2ddff}</style><path class="st0" d="M60.4 30.1H29.5c-.6 0-1.1-.5-1.1-1.1s.5-1.1 1.1-1.1h30.9c.6 0 1.1.5 1.1 1.1s-.4 1.1-1.1 1.1zM60.8 40.1h-31c-.6 0-1.1-.5-1.1-1.1s.5-1.1 1.1-1.1h30.9c.6 0 1.1.5 1.1 1.1s-.4 1.1-1 1.1z"/><g><path class="st0" d="M45 59.9c-18.4 0-33.4-11.6-33.4-25.8 0-14.2 15-25.8 33.4-25.8s33.4 11.6 33.4 25.8c0 7.6-4.3 14.8-11.8 19.7-.7.5-1.7.3-2.2-.5-.5-.7-.3-1.7.5-2.2 6.6-4.3 10.4-10.5 10.4-17.1 0-12.5-13.6-22.7-30.2-22.7-16.7 0-30.2 10.2-30.2 22.7s13.6 22.7 30.2 22.7c3.4 0 6.7-.4 9.9-1.3.8-.2 1.7.3 1.9 1.1.2.8-.3 1.7-1.1 1.9-3.5 1.1-7.2 1.5-10.8 1.5z"/><path class="st0" d="M65.7 67.5c-.4 0-.7-.1-1-.4l-10.4-8.9c-.7-.6-.7-1.6-.2-2.2.6-.7 1.6-.7 2.2-.2l7.8 6.7v-10c0-.9.7-1.6 1.6-1.6s1.6.7 1.6 1.6v13.4c0 .6-.4 1.2-.9 1.4-.2.2-.5.2-.7.2z"/><g><path class="st0" d="M10.1 63.2c-.3 0-.6-.1-.9-.3C4.3 59.7 1.5 55 1.5 50c0-6.1 4.3-11.8 11.2-14.7.8-.3 1.7 0 2.1.8.3.8 0 1.7-.8 2.1-5.7 2.4-9.3 7-9.3 11.8 0 4 2.3 7.8 6.3 10.4.7.5.9 1.5.5 2.2-.4.4-.9.6-1.4.6zM23.1 66.9c-2.4 0-4.7-.3-6.9-.9-.8-.2-1.3-1.1-1.1-1.9.2-.8 1.1-1.3 1.9-1.1 2 .5 4 .8 6.1.8 6.4 0 12.5-2.6 15.8-6.7.5-.7 1.5-.8 2.2-.2.7.5.8 1.5.2 2.2-3.9 4.9-10.7 7.8-18.2 7.8z"/><path class="st0" d="M10.1 71.7c-.2 0-.4 0-.7-.1-.6-.3-.9-.8-.9-1.4v-8.5c0-.9.7-1.6 1.6-1.6s1.6.7 1.6 1.6v5l3.9-3.4c.7-.6 1.7-.5 2.2.2.6.7.5 1.7-.2 2.2l-6.5 5.6c-.3.3-.6.4-1 .4z"/></g></g></svg>