<svg version="1.1" id="图层_1" xmlns="http://www.w3.org/2000/svg" x="0" y="0" width="80" height="79.9" xml:space="preserve"><style>.st0{fill:#b2ddff}</style><path class="st0" d="M62 58.4zM29.2 60.9c-8.8 0-18.8-7.1-22.6-16.1-4.9-11.5-.4-30.3-.4-30.5 0-.1.1-.1.1-.2.2-.5.8-1.5 1.9-1.7.8-.3 1.6-.3 2.4.1 15.5 7.4 26.5 18.8 29.5 26.3 2 4.7 2.1 10.5.2 15.2-.7 2-1.9 3.8-3.6 5.1-.9.7-2.5 1.2-3.2 1.4-1.2.3-2.7.4-4.3.4zm-20-45.5c-.7 2.4-3.8 18.7.3 28.2 3.3 7.8 12.2 14.2 19.7 14.2 1.4 0 2.5-.1 3.6-.4.7-.2 1.7-.6 2.1-.8.8-.6 1.9-1.7 2.5-3.6 1.6-3.9 1.5-9-.2-12.9-2.7-6.9-13.3-17.7-28-24.7.1 0 0 0 0 0zM52.2 60.9c-4.1 0-7.1-1.8-7.5-4.4-1.4-7.9.1-14.5 4.3-19.5 7.7-9.3 22-9.5 23.6-9.5.8 0 1.7.3 2.2.9.9.9.9 1.9.9 2.4v.2c-3.2 21.6-14.1 29.6-23.2 29.8l-.3.1zm20.3-30.2c-2.1 0-14.4.5-21 8.4-3.6 4.2-4.8 9.9-3.6 16.9.1.8 1.7 1.8 4.4 1.8h.2c7.7-.2 17.1-7.5 20-27.1.1 0 .1 0 0 0z"/><path class="st0" d="M37.7 67.3c-.5 0-.9-.3-1.1-.8C30.4 43.8 16 32.2 15.8 32.1c-.5-.4-.6-1.1-.2-1.6.4-.5 1.1-.6 1.6-.2.6.5 15.2 12.1 21.5 35.5.2.6-.2 1.2-.8 1.4 0 .1-.1.1-.2.1zM47.6 59.3c-.3 0-.6-.1-.8-.4-.4-.5-.4-1.2.1-1.6 5-4.7 9.3-10.1 12.9-16 .3-.5 1-.7 1.5-.4.5.3.7 1 .4 1.5C58 48.6 53.5 54.2 48.4 59c-.2.2-.5.3-.8.3z"/></svg>