<svg version="1.1" id="图层_1" xmlns="http://www.w3.org/2000/svg" x="0" y="0" width="80" height="80" xml:space="preserve"><style>.st0{fill:#b2ddff}</style><path class="st0" d="M66.2 74H14.7c-2.6 0-4.8-2.2-4.8-4.8V37.3c0-.9.7-1.6 1.6-1.6s1.6.7 1.6 1.6v31.9c0 .9.7 1.6 1.6 1.6h51.5c.9 0 1.6-.7 1.6-1.6V37.3c0-.9.7-1.6 1.6-1.6s1.6.7 1.6 1.6v31.9c0 2.7-2.2 4.8-4.8 4.8z"/><path class="st0" d="M5 45.4c-.4 0-.8-.1-1.1-.4-.6-.6-.6-1.6 0-2.2L39.3 6.5c.6-.6 1.6-.6 2.2 0s.6 1.6 0 2.2L6.1 44.9c-.3.3-.7.5-1.1.5z"/><path class="st0" d="M75.9 45.4c-.4 0-.8-.2-1.1-.5L39.3 8.7c-.6-.6-.6-1.6 0-2.2.6-.6 1.6-.6 2.2 0L77 42.7c.6.6.6 1.6 0 2.2-.3.3-.7.5-1.1.5z"/><g><path class="st0" d="M40.4 48.4c-4.2 0-7.5-3.4-7.5-7.5s3.4-7.5 7.5-7.5 7.5 3.4 7.5 7.5-3.3 7.5-7.5 7.5zm0-12.8c-2.9 0-5.3 2.4-5.3 5.3s2.4 5.3 5.3 5.3 5.3-2.4 5.3-5.3-2.4-5.3-5.3-5.3z"/><path class="st0" d="M53.8 60.4c-.6 0-1-.4-1.1-1-.8-6.1-6.1-10.8-12.3-10.8s-11.5 4.6-12.3 10.8c-.1.6-.7 1-1.3 1-.6-.1-1-.6-1-1.3 1-7.2 7.2-12.7 14.5-12.7S54 51.8 55 59.1c.1.6-.3 1.2-1 1.3h-.2z"/></g></svg>