<svg version="1.1" id="图层_1" xmlns="http://www.w3.org/2000/svg" x="0" y="0" width="72" height="114" xml:space="preserve"><style>.st0{fill:#d6d7d7}.st2{fill:#5d5e5f}</style><path class="st0" d="M32 72h8v42h-8V72z"/><path class="st2" d="M32 72h2v42h-2z" opacity=".2"/><circle class="st0" cx="36" cy="36" r="36"/><circle cx="36" cy="36" r="34" fill="#747577"/><circle class="st2" cx="36" cy="36" r="22"/><circle cx="36" cy="36" r="21" fill="#d9d9d9"/><circle cx="36" cy="36" r="17" fill="#fff"/><path d="M43.5 30L41 31.7c-1.5.9-3.9-.1-6-1-1-.4-2-.9-2.9-1.1-3.1-.7-6.3 2.5-6.4 2.6-.3.3-.3.7 0 .9.3.3.7.3.9 0 .8-.8 3.2-2.7 5.2-2.3.8.2 1.7.6 2.7 1 2.4 1 5.2 2.2 7.2.9h.1l2.5-1.7c.3-.2.4-.6.2-.9-.1-.1-.2-.2-.4-.3-.3.1-.5.1-.6.2m1.2 4.4c0 .1-.5.8-2.9 1.9-1.8.8-3.7-.1-5.7-1-1.8-.8-3.7-1.7-5.6-1.4-3.2.6-5.3 3.5-5.4 3.6-.2.3-.2.7.1.9.3.2.7.2.9-.1 0 0 1.9-2.5 4.5-3.1 1.5-.3 3.1.5 4.8 1.3 2.2 1 4.5 2.1 6.8 1 .8-.4 1.4-.7 1.9-1 1.4-.9 1.7-1.5 1.7-1.8.1-.4-.1-.7-.5-.8-.1-.1-.5.1-.6.5m1.1 4.4s-1.1 1-3.1 1.9c-2.4 1.1-3.9.2-5.6-.8-1.4-.8-3-1.8-5.1-1.4-3.1.5-5.1 2.6-5.2 2.6-.2.2-.2.4-.2.7.1.2.3.4.5.5.2.1.5 0 .6-.2 0 0 1.7-1.8 4.4-2.2 1.7-.3 2.9.5 4.2 1.2 1.8 1 3.8 2.2 6.8.9.8-.4 1.5-.7 2-1.1.9-.6 1.4-1 1.4-1 .2-.3.2-.6 0-.9 0-.4-.4-.4-.7-.2" fill="#0072ce"/></svg>