<svg version="1.1" id="图层_1" xmlns="http://www.w3.org/2000/svg" x="0" y="0" width="327.5" height="190.1" xml:space="preserve"><style>.st0{fill:#d6d7d7}.st1{fill:#747577}.st2{fill:#c4c4c4}.st3{fill:#bababa}.st5{fill:#7b7c7c}.st6{fill:#738b8c}.st7{fill:#b2b2b2}.st8{fill:#eaeaea}.st9{fill:#a8a7a5}.st10{fill:#e8e8e8}.st11{opacity:.2;fill:#212333}.st12{fill:#959596}.st15{fill:#fff}.st18{fill:#757671}</style><switch><g><path class="st0" d="M321.6 121.6c-1.4 0-2.6 1.1-3.6 3h-29v17.5h29.1c1 1.8 2.2 3 3.6 3 3 0 5.4-5.2 5.4-11.7 0-6.5-2.5-11.8-5.5-11.8z"/><path class="st1" d="M321.6 145.5c-1.4 0-2.8-1-3.8-3H289c-.2 0-.5-.2-.5-.5v-17.5c0-.2.2-.5.5-.5h28.8c1.1-1.9 2.4-3 3.8-3 3.3 0 5.9 5.3 5.9 12.2s-2.6 12.3-5.9 12.3zm-32.2-3.9h28.7c.2 0 .3.1.4.2.9 1.8 2 2.7 3.2 2.7 2.7 0 5-5.2 5-11.3s-2.3-11.3-5-11.3c-1.1 0-2.3 1-3.2 2.7-.1.1-.2.2-.4.2h-28.7v16.8z"/><ellipse class="st2" cx="321.7" cy="133.2" rx="4.8" ry="10.6"/><path class="st0" d="M298.6 186.2l-4.9 3.5H70.5l-5.1-1.8.2-140.3h232.6v5.6z"/><path class="st3" d="M298.2 47.6h-233L18 2 20.4.4h226.8l2.4.6z"/><radialGradient id="SVGID_1_" cx="263.227" cy="16.684" r="21.316" gradientTransform="matrix(1 0 0 .9906 0 7.735)" gradientUnits="userSpaceOnUse"><stop offset="0" stop-color="#898784"/><stop offset="1" stop-color="#898784" stop-opacity="0"/></radialGradient><path fill="url(#SVGID_1_)" d="M284.4 43.4l-2.2 2.1-40.1-40.4 2.1-2.1z"/><path class="st1" d="M72.1 43.7L31.7 3.1l.6-.6 40.4 40.6zm212.1 0L243.8 3.1l.7-.6 40.3 40.6z"/><path class="st1" d="M72.4 43h212.1v.9H72.4z"/><path class="st0" d="M95.9 5c-11-.6-20.2 1.7-22.2 5.2v3.1c2.1 3.6 10.9 6.6 21.6 7.2 11.2.6 20.5-1.8 22.3-5.4v-2.6c-1.7-3.7-10.7-6.9-21.7-7.5z"/><path class="st5" d="M98.6 20.9c-1.1 0-2.2 0-3.3-.1-10.3-.5-19.2-3.4-21.7-7-.1-.1-.1-.3.1-.4.1-.1.3-.1.4.1 2.4 3.5 11.1 6.2 21.2 6.7 10.3.5 19.4-1.5 21.8-4.8.1-.1.3-.2.4-.1.1.1.2.3.1.4-2.2 3.2-9.8 5.2-19 5.2z"/><path class="st3" d="M117.8 9.6c.2.4.3.8.2 1.3-.2 4.3-10.3 7.3-22.7 6.6-12.4-.7-22.3-4.7-22.1-8.9 0-.3.1-.7.2-1C75 3.8 84.5 1.4 95.9 1.9c11.2.6 20.3 3.9 21.9 7.7z"/><path class="st5" d="M98.6 18c-1.1 0-2.2 0-3.3-.1-12.8-.7-22.7-4.8-22.5-9.3 0-.4.1-.8.3-1.2C74.8 3.4 84.4 1 96 1.5c11.2.6 20.6 3.9 22.3 7.9.2.5.3 1 .3 1.5 0 1-.5 1.9-1.5 2.8-3 2.6-10.2 4.3-18.5 4.3zm-6-15.7c-9.6 0-17.4 2.2-18.8 5.4-.1.3-.2.6-.2.9-.2 4 9.8 7.9 21.7 8.5 9.5.5 17.9-1.1 21.1-4 .8-.7 1.2-1.4 1.2-2.2 0-.4-.1-.7-.2-1.1-1.5-3.7-10.8-6.8-21.5-7.4-1.1-.1-2.2-.1-3.3-.1z"/><path class="st6" d="M116.4 9.7c.2.3.2.7.2 1-.2 3.5-9.7 5.9-21.3 5.3-11.6-.6-20.8-3.9-20.7-7.4 0-.3.1-.6.2-.8 1.5-3 10.4-5 21.1-4.5 10.5.6 19 3.3 20.5 6.4z"/><path class="st7" d="M116.4 9.8c.2.3.2.7.2 1-.2 3.5-9.7 5.9-21.3 5.3-11.6-.6-20.8-3.9-20.7-7.4 0-.3.1-.6.2-.8 1.5-3 10.4-5 21.1-4.5 10.5.6 19.1 3.3 20.5 6.4z"/><path class="st1" d="M98.7 16.3c-1.1 0-2.2 0-3.4-.1-11.6-.6-21-3.9-20.8-7.5h.3c-.2 3.4 9 6.6 20.5 7.2 11.5.6 21-1.8 21.1-5.2v-.5l.3-.1c0 .2.1.4 0 .6-.1 3.3-7.9 5.6-18 5.6z"/><path class="st8" d="M116.4 10.3c0-.2-.1-.3-.2-.5C114.8 6.7 106.1 4 96 3.5 85.5 3 76.5 4.9 75 7.9c-.1.3-.2.5-.2.8h-.3c0-.3.1-.6.2-.9C76.3 4.7 85.4 2.7 96 3.3c10.4.5 19 3.2 20.6 6.4.1.2.2.4.2.5l-.4.1z"/><path class="st9" d="M100.1 9.4l-.1 2.8c0 .7-2 1.1-4.3 1-2.4-.1-4.3-.7-4.2-1.3l.1-2.8"/><path class="st10" d="M91.5 10.1s-2-1-4.7-1.3c-2.6-.4-10.1-.6-10.2-.8-.1-.2.6-.8 1.4-1.2.8-.3 1.4-.4 2.7-.3 1.3.1 3.1.5 5.7 1.2l5.2 1.4-.1 1z"/><path class="st1" d="M91.5 10.3s0-.1 0 0c-.1 0-2.1-1-4.7-1.3-1.2-.2-3.6-.3-5.7-.4-4.5-.2-4.6-.3-4.7-.5-.1-.4.8-1.1 1.5-1.4.8-.4 1.5-.5 2.8-.4 1.3.1 3 .5 5.7 1.2l5.2 1.4c.1 0 .1.1.1.2v1c0 .1 0 .1-.2.2.1-.1.1 0 0 0zM76.8 7.9c.5.1 2.6.2 4.4.3 2.1.1 4.4.2 5.7.4 2.1.3 3.9 1 4.5 1.2v-.6l-5-1.3c-2.8-.7-4.4-1.1-5.7-1.2-1.3-.1-1.8 0-2.6.3-.7.3-1.2.7-1.3.9z"/><path class="st10" d="M96.7 8.1l-3.7.2s-1.6-1.2-3.5-2.1c-1.5-.7-3.6-1.6-4.3-1.8-.1-.1-.1-.1.1-.1.7-.2 2.4-.5 4.3-.3C92 4.1 96 5.3 96 5.3s.2.5.5 1.3c.2.7.2 1.5.2 1.5z"/><path class="st1" d="M93 8.4h-.1s-1.6-1.2-3.5-2.1c-1.5-.7-3.6-1.6-4.3-1.8 0-.1-.1-.2-.1-.3 0-.2.2-.2.3-.2.7-.1 2.4-.3 4.3-.2C92 4 96 5.1 96 5.1c.1 0 .1.1.1.1s.2.5.5 1.3c.2.8.3 1.5.3 1.6v.1l-.1.1-3.8.1zm-7.3-4.1c.9.4 2.6 1.1 3.9 1.7 1.7.8 3.2 1.9 3.5 2.1l3.5-.2c0-.3-.1-.8-.3-1.3-.2-.6-.4-1-.4-1.2-.6-.2-4.1-1.1-6.3-1.3-1.6-.1-3.1.1-3.9.2zm-.4 0z"/><path class="st10" d="M92.2 11.7s-1.9-.6-4.1-.2c-2.2.3-3.1 1-4.1 1.3-.7.2-1.6.3-2.1.4-.2 0-.4 0-.6-.1-.4-.1-1.2-.4-2.1-.9-1.2-.6-2.1-1.3-2.1-1.3s2.8-.2 6.5-.3c3.7-.1 8.7-.3 8.7-.3l-.1 1.4z"/><path class="st1" d="M81.7 13.3c-.2 0-.4 0-.5-.1-.4-.1-1.2-.4-2.1-.9C77.9 11.7 77 11 77 11c-.1 0-.1-.1-.1-.2s.1-.1.1-.1 2.8-.2 6.5-.3c3.7-.1 8.7-.3 8.7-.3h.1v1.5c0 .1 0 .1-.1.1h-.1s-1.9-.5-4.1-.2c-1.5.2-2.3.6-3.1.9-.4.2-.7.3-1 .4-.8.2-1.7.3-2.1.4 0 .1-.1.1-.1.1zm-4.2-2.2c.4.3 1 .7 1.7 1 .9.4 1.7.7 2.1.9.2.1.3.1.5.1.5 0 1.4-.1 2.1-.3.3-.1.6-.2 1-.4.7-.3 1.7-.7 3.2-.9 1.8-.3 3.4 0 4 .2v-1c-.9 0-5.3.2-8.6.3-2.8-.2-5.1 0-6 .1z"/><path class="st10" d="M99.7 9.4l-3-1s1.9-1.1 2.9-2.2c.7-.8 1.1-1.5 1.3-1.8.1-.1.1-.2.3-.2.5 0 1.8.1 4.1.8 2.9.9 5.2 2.8 5.2 2.8s-1.5.6-3.4.9c-3.6.6-7.4.7-7.4.7z"/><path class="st1" d="M99.7 9.6s0-.1 0 0l-3-1c-.1 0-.1-.1-.1-.1 0-.1 0-.1.1-.2 0 0 1.9-1.1 2.8-2.2.7-.8 1.1-1.5 1.3-1.8.1-.2.2-.3.4-.3.5 0 1.9.1 4.2.8 2.9.9 5.2 2.8 5.2 2.8s.1.1.1.2 0 .1-.1.1c0 0-1.6.7-3.4.9-3.6.7-7.4.8-7.5.8zm-2.6-1.3l2.6.9c.4 0 4-.1 7.3-.6 1.3-.2 2.5-.6 3-.8-.6-.5-2.6-1.9-4.9-2.6-2.2-.7-3.6-.8-4.1-.8-.1 0-.1 0-.1.1-.1.3-.6 1-1.3 1.9-.6.7-1.9 1.6-2.5 1.9z"/><path class="st10" d="M113.5 13s-1.5.2-4.9-.3c-3.4-.5-8.6-1.7-8.6-1.7V9.3s5.8-.3 8.8-.8c2.4-.3 4-.6 4.5-.7.1 0 .3 0 .4.1.5.2 1.7 1 1.8 2.5.3 1.8-2 2.6-2 2.6z"/><path class="st1" d="M112.6 13.2c-.8 0-2.1-.1-3.9-.3-3.4-.5-8.6-1.7-8.6-1.7-.1 0-.1-.1-.1-.2V9.3c0-.1.1-.2.2-.2s5.8-.3 8.7-.8c2.4-.3 3.9-.6 4.5-.7.2 0 .4 0 .5.1.5.3 1.7 1 1.9 2.6.2 2-2.2 2.9-2.2 2.9h-1zm.9-.2zm-13.3-2.1c.8.2 5.4 1.3 8.5 1.7 3.1.4 4.6.3 4.8.3.2-.1 2.1-.9 2-2.5-.2-1.4-1.3-2.1-1.7-2.3-.1 0-.2-.1-.3 0-.6.1-2.1.4-4.5.7-2.7.4-7.7.7-8.6.7l-.2 1.4z"/><path class="st10" d="M102.4 15.5s-1.3-.4-2.3-1c-1.1-.6-2.9-2-2.9-2s1-.9 1.5-1.4c.5-.5 1.2-.7 1.2-.7s1.1.3 2.9.7c1.8.4 5.6.8 7.6 1.1 1.4.3 2.6.5 3.2.6.2 0 .3.1.1.2-.4.2-1.5.7-3.8 1.3-3.2.8-7.5 1.2-7.5 1.2z"/><path class="st1" d="M102.4 15.6c-.1 0-1.3-.4-2.4-1.1-1.1-.6-2.8-1.9-2.9-2l-.1-.1c0-.1 0-.1.1-.1 0 0 1-.9 1.5-1.4.5-.5 1.2-.8 1.2-.8h.1s1.1.3 2.9.7c1.1.2 2.8.5 4.4.7 1.2.2 2.3.3 3.2.4 1.3.2 2.5.5 3.2.6.1 0 .3.1.3.2s0 .2-.2.3c-.4.3-1.5.8-3.8 1.4-3.1.9-7.4 1.2-7.5 1.2zm-4.9-3.2c.5.3 1.9 1.4 2.7 1.9.9.5 2.1.9 2.3 1 .4 0 4.4-.4 7.4-1.2 2.1-.5 3.1-1 3.6-1.3-.7-.1-1.9-.4-3.1-.6-.8-.1-2-.3-3.2-.4-1.7-.2-3.4-.4-4.5-.7-1.6-.4-2.6-.6-2.8-.7-.2.1-.7.3-1.1.7-.3.4-1 1.1-1.3 1.3z"/><path class="st10" d="M99.9 15.5c-.5.1-1.8.1-5.3-.1-5-.3-6.7-.7-6.7-.7s.2-.5 1.2-1.1c1-.6 4.5-2.1 4.5-2.1s.5 0 2-.1 1.9-.2 1.9-.2.1 1.3.6 2.2c.4.7 1.5 1.6 1.9 1.9.1.1.1.2-.1.2z"/><path class="st1" d="M98.6 15.7c-.8 0-2.1 0-4-.1-4.9-.3-6.7-.7-6.7-.7s-.1 0-.1-.1v-.1s.3-.5 1.3-1.1c1-.6 4.3-2 4.5-2.1h.1s.5 0 2-.1c1.4-.1 1.8-.2 1.8-.2h.1l.1.1s.1 1.2.6 2.1c.4.7 1.4 1.5 1.8 1.9.1.1.2.2.1.3 0 .2-.2.2-.3.2-.2-.1-.6-.1-1.3-.1zm1.3-.2zm-11.7-.9c.6.1 2.5.4 6.4.7 3.2.2 4.5.2 5.1.1-.5-.4-1.4-1.2-1.8-1.9-.4-.7-.6-1.7-.6-2-.2 0-.8.1-1.7.2-1.3.1-1.8.1-2 .1-.4.2-3.5 1.5-4.4 2.1-.5.2-.8.5-1 .7z"/><path class="st7" d="M100.3 9.2l-.1 2.8c0 .7-2 1.1-4.3 1-2.4-.1-4.3-.7-4.2-1.3l.1-2.8"/><path class="st0" d="M91.6 9.7s-2-1-4.7-1.3c-2.7-.3-10.2-.5-10.2-.8-.1-.2.6-.8 1.4-1.2.8-.3 1.4-.4 2.7-.3 1.3.1 3.1.5 5.7 1.2l5.2 1.4-.1 1z"/><path class="st5" d="M91.6 9.9c-.1 0-2.1-1-4.7-1.3-1.2-.2-3.6-.3-5.7-.4-4.5-.2-4.7-.3-4.7-.5-.1-.4.8-1.1 1.5-1.4.8-.4 1.5-.5 2.8-.4 1.3.1 3 .5 5.7 1.2l5.2 1.4c.1 0 .1.1.1.2v1c0 .1 0 .1-.2.2.1 0 0 0 0 0zM76.9 7.5c.5.1 2.6.2 4.4.3 2.1.1 4.4.2 5.7.4 2.1.3 3.9 1 4.5 1.2v-.6l-5-1.3c-2.8-.7-4.4-1.1-5.7-1.2-1.3-.1-1.8 0-2.6.3-.7.3-1.2.7-1.3.9z"/><path class="st0" d="M96.8 7.7l-3.7.2s-1.6-1.2-3.5-2.1C88.1 5 86 4.2 85.4 3.9c-.1-.1-.1-.1.1-.1.7-.1 2.4-.3 4.3-.2 2.4.2 6.4 1.3 6.4 1.3s.2.5.5 1.3.1 1.5.1 1.5z"/><path class="st5" d="M93.1 8H93s-1.6-1.2-3.5-2.1c-1.5-.7-3.6-1.6-4.3-1.8-.1-.1-.2-.1-.2-.2 0-.2.2-.2.3-.2.7-.1 2.4-.3 4.3-.2C92 3.7 96 4.8 96 4.8c.1 0 .1.1.1.1s.2.5.5 1.3c.3.7.4 1.4.4 1.5v.1l-.1.1-3.8.1zm-7.4-4.1c.9.4 2.6 1.1 3.9 1.7 1.7.8 3.2 1.9 3.5 2.1l3.5-.2c0-.3-.1-.8-.3-1.3-.2-.6-.4-1-.4-1.2-.6-.2-4.1-1.1-6.3-1.3-1.5-.1-3 .1-3.9.2zm-.3.1z"/><path class="st0" d="M92.3 11.3s-1.9-.6-4.1-.2c-2.2.3-3.1 1-4.1 1.3-.7.2-1.6.3-2.1.4-.2 0-.4 0-.6-.1-.4-.1-1.2-.4-2.1-.9-1.2-.6-2.1-1.3-2.1-1.3s2.8-.2 6.5-.3 8.7-.3 8.7-.3l-.1 1.4z"/><path class="st5" d="M81.8 12.9c-.2 0-.4 0-.5-.1-.4-.1-1.2-.4-2.1-.9-1.2-.6-2.1-1.3-2.1-1.3-.1 0-.1-.1-.1-.2s.1-.1.1-.1 2.8-.2 6.5-.3c3.7-.1 8.7-.3 8.7-.3h.1v1.5c0 .1 0 .1-.1.1h-.1s-1.9-.5-4.1-.2c-1.5.2-2.3.6-3.1.9-.4.2-.7.3-1 .4-.8.2-1.7.3-2.1.4 0 .1-.1.1-.1.1zm-4.2-2.2c.4.3 1 .7 1.7 1 .9.4 1.7.7 2.1.9.2.1.3.1.5.1.5 0 1.4-.1 2.1-.3.3-.1.6-.2 1-.4.7-.3 1.7-.7 3.2-.9 1.8-.3 3.4 0 4 .2v-1c-.9 0-5.3.2-8.6.3-2.8-.2-5.1 0-6 .1z"/><path class="st0" d="M99.8 9l-3-1s1.9-1.1 2.9-2.2c.7-.8 1.1-1.5 1.3-1.8.1-.1.1-.2.3-.2.5 0 1.8.1 4.1.8 2.9.9 5.2 2.8 5.2 2.8s-1.5.6-3.4.9c-3.6.6-7.4.7-7.4.7z"/><path class="st5" d="M99.8 9.2l-3-1c-.1 0-.1-.1-.1-.1 0-.1 0-.1.1-.2 0 0 1.9-1.1 2.8-2.2.7-.8 1.1-1.5 1.3-1.8.1-.2.2-.3.4-.3.5 0 1.9.1 4.2.8 2.9.9 5.2 2.8 5.2 2.8s.1.1.1.2 0 .1-.1.1c0 0-1.6.7-3.4.9-3.6.7-7.5.8-7.5.8zM97.2 8l2.6.9c.4 0 4-.1 7.3-.6 1.3-.2 2.5-.6 3-.8-.6-.5-2.6-1.9-4.9-2.6-2.2-.8-3.5-.9-4-.9 0 0-.1 0-.1.1-.1.3-.6 1-1.3 1.9-.7.8-2 1.6-2.6 2z"/><path class="st0" d="M113.6 12.6s-1.5.2-4.9-.3c-3.4-.5-8.6-1.7-8.6-1.7V8.9s5.8-.3 8.8-.8c2.4-.3 4-.6 4.5-.7.1 0 .3 0 .4.1.5.2 1.7 1 1.8 2.5.3 1.8-2 2.6-2 2.6z"/><path class="st5" d="M112.7 12.8c-.8 0-2.1-.1-4-.3-3.4-.5-8.6-1.7-8.6-1.7-.1 0-.1-.1-.1-.2V8.9c0-.1.1-.2.2-.2s5.8-.3 8.7-.8c2.4-.3 3.9-.6 4.5-.7.2 0 .4 0 .5.1.5.3 1.7 1 1.9 2.6.2 2-2.2 2.9-2.2 2.9h-.9zm.9-.2zm-13.3-2.1c.8.2 5.4 1.3 8.5 1.7 3.1.4 4.6.3 4.8.3.2-.1 2.1-.9 2-2.5-.2-1.4-1.3-2.1-1.7-2.3-.1 0-.2-.1-.3 0-.6.1-2.1.4-4.5.7-2.7.4-7.7.7-8.6.7l-.2 1.4z"/><ellipse transform="rotate(-87.96 96.014 9.004)" class="st7" cx="96" cy="9" rx="1.2" ry="4.3"/><path class="st1" d="M96.5 10.4H96c-1.2 0-2.2-.2-3.1-.5-.9-.3-1.4-.6-1.3-1.1 0-.9 2.3-1.3 4.5-1.2 1.2 0 2.2.2 3.1.5.9.3 1.4.6 1.3 1.1-.1.8-2 1.2-4 1.2zm-4.6-1.5c0 .2.3.5 1.1.7.8.3 1.8.4 3 .5 2.5.1 4.1-.5 4.1-.9 0-.2-.3-.5-1.1-.7-.8-.3-1.8-.4-3-.5-2.5-.1-4.1.4-4.1.9z"/><path class="st0" d="M102.5 15.1s-1.3-.4-2.3-1c-1.1-.6-2.9-2-2.9-2s1-.9 1.5-1.4c.5-.5 1.2-.7 1.2-.7s1.1.3 2.9.7 5.6.8 7.6 1.1c1.4.3 2.6.5 3.2.6.2 0 .3.1.1.2-.4.2-1.5.7-3.8 1.3-3.2.8-7.5 1.2-7.5 1.2z"/><path class="st5" d="M102.5 15.2c-.1 0-1.3-.4-2.4-1.1-1.1-.6-2.8-1.9-2.9-2l-.1-.1c0-.1 0-.1.1-.1 0 0 1-.9 1.5-1.4.5-.5 1.2-.8 1.2-.8h.1s1.1.3 2.9.7c1 .2 2.8.5 4.4.7 1.2.2 2.3.3 3.2.4 1 .2 2.2.4 3.2.6.1 0 .3.1.3.2s0 .2-.2.3c-.4.3-1.5.8-3.8 1.4-3.1.9-7.4 1.2-7.5 1.2zM97.6 12c.5.3 1.9 1.4 2.7 1.9.9.5 2.1.9 2.3 1 .4 0 4.4-.4 7.4-1.2 2.1-.5 3.1-1 3.6-1.3-1-.2-2.1-.4-3.1-.6-.8-.1-2-.3-3.2-.4-1.7-.2-3.4-.4-4.5-.7-1.6-.4-2.6-.6-2.8-.7-.2.1-.7.3-1.1.7-.3.5-1 1.1-1.3 1.3z"/><path class="st0" d="M100 15.1c-.5.1-1.8.1-5.3-.1-5-.3-6.7-.7-6.7-.7s.2-.5 1.2-1.1c1-.6 4.5-2.1 4.5-2.1s.5 0 2-.1 1.9-.2 1.9-.2.1 1.3.6 2.2c.4.7 1.5 1.6 1.9 1.9.1.1.1.2-.1.2z"/><path class="st5" d="M98.7 15.3c-.8 0-2.1 0-4-.1-4.9-.3-6.7-.7-6.7-.7s-.1 0-.1-.1v-.1s.3-.5 1.3-1.1c1-.6 4.3-2 4.5-2.1h.1s.5 0 2-.1c1.4-.1 1.8-.2 1.8-.2h.1l.1.1s.1 1.2.6 2.1c.4.7 1.4 1.5 1.8 1.9.1.1.2.2.1.3 0 .2-.2.2-.3.2-.2-.1-.6-.1-1.3-.1zm1.3-.2zm-11.7-.9c.6.1 2.5.4 6.4.7 3.2.2 4.5.2 5.1.1-.5-.4-1.4-1.2-1.8-1.9-.4-.7-.6-1.7-.6-2-.2 0-.8.1-1.7.2-1.3.1-1.8.1-2 .1-.4.2-3.5 1.5-4.4 2.1-.5.2-.8.5-1 .7z"/><path class="st3" d="M73.9 13.4v-2.9"/><path class="st5" d="M73.5 10.5h.8v3h-.8z"/><path class="st3" d="M117.4 15.4v-3"/><path class="st5" d="M117 12.4h.8v3h-.8z"/><path class="st0" d="M95.9 25.2c-11-.6-20.2 1.7-22.2 5.2v3.1c2.1 3.6 10.9 6.6 21.6 7.2 11.2.6 20.5-1.8 22.3-5.4v-2.6c-1.7-3.7-10.7-6.9-21.7-7.5z"/><path class="st5" d="M98.6 41.1c-1.1 0-2.2 0-3.3-.1-10.3-.5-19.2-3.4-21.7-7-.1-.1-.1-.3.1-.4.1-.1.3-.1.4.1 2.4 3.5 11.1 6.2 21.2 6.7 10.3.5 19.4-1.5 21.8-4.8.1-.1.3-.2.4-.1.1.1.2.3.1.4-2.2 3.2-9.8 5.2-19 5.2z"/><path class="st3" d="M117.8 29.8c.2.4.3.8.2 1.3-.2 4.3-10.3 7.3-22.7 6.6-12.4-.7-22.3-4.7-22.1-9 0-.3.1-.7.2-1 1.6-3.7 11.1-6.2 22.5-5.6 11.1.6 20.3 3.9 21.9 7.7z"/><path class="st5" d="M98.5 38.2c-1.1 0-2.2 0-3.3-.1-12.8-.7-22.7-4.8-22.5-9.3 0-.4.1-.8.3-1.2 1.7-4 11.3-6.4 22.9-5.9 11.2.6 20.6 3.9 22.3 7.9.2.5.3 1 .3 1.5 0 1-.5 1.9-1.5 2.8-3 2.6-10.1 4.3-18.5 4.3zm-5.9-15.7c-9.6 0-17.4 2.2-18.8 5.4-.1.3-.2.6-.2.9-.2 4 9.8 7.9 21.7 8.5 9.5.5 17.9-1.1 21.1-4 .8-.7 1.2-1.4 1.2-2.2 0-.4-.1-.7-.2-1.1-1.5-3.7-10.8-6.8-21.5-7.4-1.2-.1-2.3-.1-3.3-.1z"/><path class="st6" d="M116.4 29.9c.2.3.2.7.2 1-.2 3.5-9.7 5.9-21.3 5.3-11.6-.6-20.8-3.9-20.7-7.4 0-.3.1-.6.2-.8 1.5-3 10.4-5 21.1-4.5 10.5.6 19 3.3 20.5 6.4z"/><path class="st7" d="M116.4 30c.2.3.2.7.2 1-.2 3.5-9.7 5.9-21.3 5.3-11.6-.6-20.8-3.9-20.7-7.4 0-.3.1-.6.2-.8 1.5-3 10.4-5 21.1-4.5 10.5.6 19.1 3.3 20.5 6.4z"/><path class="st1" d="M98.7 36.5c-1.1 0-2.2 0-3.4-.1-11.6-.6-21-3.9-20.8-7.5h.3c-.2 3.4 9 6.6 20.5 7.2 11.5.6 21-1.8 21.1-5.2v-.5l.3-.1c0 .2.1.4 0 .6-.1 3.3-8 5.6-18 5.6z"/><path class="st8" d="M116.4 30.5c0-.2-.1-.3-.2-.5-1.5-3.1-10.2-5.7-20.3-6.2-10.4-.5-19.4 1.4-20.9 4.4-.1.3-.2.5-.2.8h-.3c0-.3.1-.6.2-.9 1.6-3.1 10.7-5.1 21.2-4.5 10.4.5 19 3.2 20.6 6.4.1.2.2.4.2.5h-.3z"/><path class="st9" d="M100.1 29.6l-.1 2.8c0 .7-2 1.1-4.3 1-2.4-.1-4.3-.7-4.2-1.3l.1-2.8"/><path class="st10" d="M91.5 30.3s-2-1-4.7-1.3c-2.7-.3-10.2-.5-10.2-.8-.1-.2.6-.9 1.4-1.2.8-.3 1.4-.4 2.7-.3 1.3.1 3.1.5 5.7 1.2l5.2 1.4-.1 1z"/><path class="st1" d="M91.5 30.4c-.1 0-2.1-1-4.7-1.3-1.2-.2-3.6-.3-5.7-.4-4.5-.2-4.6-.3-4.7-.5-.1-.4.8-1.1 1.5-1.4.8-.4 1.5-.5 2.8-.4 1.3.1 3 .5 5.7 1.2l5.2 1.4c.1 0 .1.1.1.2v1c0 .1-.1.2-.2.2.1 0 0 0 0 0zm-14.7-2.3c.5.1 2.6.2 4.4.3 2.1.1 4.4.2 5.7.4 2.1.3 3.9 1 4.5 1.2v-.6l-5-1.3c-2.8-.7-4.4-1.1-5.7-1.2-1.3-.1-1.8 0-2.6.3-.7.2-1.2.7-1.3.9z"/><path class="st10" d="M96.7 28.3l-3.7.1s-1.6-1.2-3.5-2.1c-1.5-.7-3.6-1.6-4.3-1.8-.1-.1-.1-.1.1-.1.7-.1 2.4-.3 4.3-.2 2.4.2 6.4 1.3 6.4 1.3s.2.5.5 1.3.2 1.5.2 1.5z"/><path class="st1" d="M93 28.6h-.1s-1.6-1.2-3.5-2.1c-1.5-.7-3.6-1.6-4.3-1.8-.1-.1-.1-.2-.1-.3 0-.2.2-.2.3-.2.7-.1 2.4-.3 4.3-.2 2.4.2 6.4 1.3 6.4 1.3.1 0 .1.1.1.1s.2.5.5 1.3c.2.8.3 1.5.3 1.6v.1l-.1.1-3.8.1zm-7.4-4.1c.9.4 2.6 1.1 3.9 1.7 1.7.8 3.2 1.9 3.5 2.1l3.5-.2c0-.3-.1-.8-.3-1.3-.2-.6-.4-1-.4-1.2-.6-.2-4.1-1.1-6.3-1.3-1.5-.1-3.1.1-3.9.2z"/><path class="st10" d="M92.2 31.9s-1.9-.6-4.1-.2c-2.2.3-3.1 1-4.1 1.3-.7.2-1.6.3-2.1.4-.2 0-.4 0-.6-.1-.4-.1-1.2-.4-2.1-.9-1.2-.6-2.1-1.3-2.1-1.3s2.8-.2 6.5-.3 8.7-.3 8.7-.3l-.1 1.4z"/><path class="st1" d="M81.7 33.5c-.2 0-.4 0-.5-.1-.4-.1-1.2-.4-2.1-.9-1.2-.6-2.1-1.3-2.1-1.3-.1 0-.1-.1-.1-.2s.1-.1.1-.1 2.8-.2 6.5-.3c3.7-.1 8.7-.3 8.7-.3h.1v1.5c0 .1 0 .1-.1.1h-.1s-1.9-.5-4.1-.2c-1.5.2-2.3.6-3.1.9-.4.2-.7.3-1 .4-.8.2-1.7.3-2.1.4 0 .1-.1.1-.1.1zm-4.2-2.3c.4.3 1 .7 1.7 1 .9.4 1.7.7 2.1.9.2.1.3.1.5.1.5 0 1.4-.1 2.1-.3.3-.1.6-.2 1-.4.7-.3 1.7-.7 3.2-.9 1.8-.3 3.4 0 4 .2v-1c-.9 0-5.3.2-8.6.3-2.8-.1-5.1.1-6 .1z"/><path class="st10" d="M99.7 29.6l-3-1s1.9-1.1 2.9-2.2c.7-.8 1.1-1.5 1.3-1.8.1-.1.1-.2.3-.2.5 0 1.8.1 4.1.8 2.9.9 5.2 2.8 5.2 2.8s-1.5.6-3.4.9c-3.6.6-7.4.7-7.4.7z"/><path class="st1" d="M99.7 29.7l-3-1c-.1 0-.1-.1-.1-.1 0-.1 0-.1.1-.2 0 0 1.9-1.1 2.8-2.2.7-.8 1.1-1.5 1.3-1.8.1-.2.3-.2.4-.3.5 0 1.9.1 4.2.8 2.9.9 5.2 2.8 5.2 2.8s.1.1.1.2 0 .1-.1.1c0 0-1.6.7-3.4.9-3.6.8-7.5.8-7.5.8zm-2.6-1.2l2.6.9c.4 0 4-.1 7.3-.6 1.3-.2 2.5-.6 3-.8-.6-.5-2.6-1.9-4.9-2.6-2.3-.7-3.6-.8-4.1-.8-.1 0-.1 0-.1.1-.1.3-.6 1-1.3 1.9-.6.7-1.9 1.6-2.5 1.9z"/><path class="st10" d="M113.5 33.2s-1.5.2-4.9-.3c-3.4-.5-8.6-1.7-8.6-1.7v-1.7s5.8-.3 8.8-.8c2.4-.3 4-.6 4.5-.7.1 0 .3 0 .4.1.5.2 1.7 1 1.8 2.5.3 1.8-2 2.6-2 2.6z"/><path class="st1" d="M112.6 33.4c-.8 0-2.1-.1-4-.3-3.4-.5-8.6-1.7-8.6-1.7-.1 0-.1-.1-.1-.2v-1.7c0-.1.1-.2.2-.2s5.8-.3 8.7-.8c2.4-.3 3.9-.6 4.5-.7.2 0 .4 0 .5.1.5.3 1.7 1 1.9 2.6.2 2-2.2 2.9-2.2 2.9h-.9zm.9-.2zm-13.3-2.1c.8.2 5.4 1.3 8.5 1.7 3.1.4 4.6.3 4.8.3.2-.1 2.1-.9 2-2.5-.2-1.4-1.3-2.1-1.7-2.3-.1 0-.2-.1-.3 0-.6.1-2.2.4-4.5.7-2.7.4-7.7.7-8.6.7l-.2 1.4z"/><path class="st10" d="M102.4 35.7s-1.3-.4-2.3-1c-1.1-.6-2.9-2-2.9-2s1-.9 1.5-1.4c.5-.5 1.2-.7 1.2-.7s1.1.3 2.9.7c1.8.4 5.6.8 7.6 1.1 1.4.3 2.6.5 3.2.6.2 0 .3.1.1.2-.4.2-1.5.7-3.8 1.3-3.2.8-7.5 1.2-7.5 1.2z"/><path class="st1" d="M102.4 35.8c-.1 0-1.3-.4-2.4-1.1-1.1-.6-2.8-1.9-2.9-2l-.1-.1c0-.1 0-.1.1-.1 0 0 1-.9 1.5-1.4.5-.5 1.2-.8 1.2-.8h.1s1.1.3 2.9.7c1 .2 2.8.5 4.4.7 1.2.2 2.3.3 3.2.4 1.4.3 2.6.5 3.2.6.1 0 .3.1.3.2s0 .2-.2.3c-.4.3-1.5.8-3.8 1.4-3.2.9-7.4 1.2-7.5 1.2zm-4.9-3.2c.5.3 1.9 1.4 2.7 1.9.9.5 2.1.9 2.3 1 .4 0 4.4-.4 7.4-1.2 2.1-.5 3.1-1 3.6-1.3-.6-.1-1.8-.3-3.1-.6-.8-.1-2-.3-3.2-.4-1.7-.2-3.4-.4-4.5-.7-1.6-.4-2.6-.6-2.8-.7-.2.1-.7.3-1.1.7-.4.4-1 1.1-1.3 1.3zm16.1.5z"/><path class="st10" d="M99.9 35.7c-.5.1-1.8.1-5.3-.1-5-.3-6.7-.7-6.7-.7s.2-.5 1.2-1.1c1-.6 4.5-2.1 4.5-2.1s.5 0 2-.1 1.9-.2 1.9-.2.1 1.3.6 2.2c.4.7 1.5 1.6 1.9 1.9.1.1.1.2-.1.2z"/><path class="st1" d="M98.6 35.9c-.8 0-2.1 0-4-.1-4.9-.3-6.7-.7-6.7-.7s-.1 0-.1-.1v-.1s.3-.5 1.3-1.1c1-.6 4.3-2 4.5-2.1h.1s.5 0 2-.1c1.4-.1 1.8-.2 1.8-.2h.1l.1.1s.1 1.2.6 2.1c.4.7 1.4 1.5 1.8 1.9.1.1.2.2.1.3 0 .2-.2.2-.3.2-.2-.1-.6-.1-1.3-.1zm-10.4-1.1c.6.1 2.5.4 6.4.7 3.2.2 4.5.2 5.1.1-.5-.4-1.4-1.2-1.8-1.9-.4-.7-.6-1.7-.6-2-.2 0-.8.1-1.7.2-1.3.1-1.8.1-2 .1-.4.2-3.5 1.5-4.4 2.1-.5.2-.8.5-1 .7z"/><path class="st7" d="M100.3 29.4l-.1 2.8c0 .7-2 1.1-4.3 1-2.4-.1-4.3-.7-4.2-1.3l.1-2.8"/><path class="st0" d="M91.6 29.9s-2-1-4.7-1.3c-2.7-.3-10.2-.5-10.2-.8-.1-.2.6-.8 1.4-1.2.8-.3 1.4-.4 2.7-.3s3.1.5 5.7 1.2l5.2 1.4-.1 1z"/><path class="st5" d="M91.6 30.1s-.1 0 0 0c-.1 0-2.1-1-4.7-1.3-1.2-.2-3.6-.3-5.7-.4-4.5-.2-4.7-.3-4.7-.5-.1-.4.8-1.1 1.5-1.4.8-.4 1.5-.5 2.8-.4 1.3.1 3 .5 5.7 1.2l5.2 1.4c.1 0 .1.1.1.2v1c0 .1-.1.1-.2.2.1 0 0 0 0 0zm-14.7-2.4c.5.1 2.6.2 4.4.3 2.1.1 4.4.2 5.7.4 2.1.3 3.9 1 4.5 1.2V29l-5-1.3c-2.8-.7-4.4-1.1-5.7-1.2-1.3-.1-1.8 0-2.6.3-.7.3-1.2.7-1.3.9z"/><path class="st0" d="M96.8 27.9l-3.7.2s-1.6-1.2-3.5-2.1c-1.5-.7-3.6-1.6-4.3-1.8-.1-.2-.1-.2.1-.2.7-.1 2.4-.3 4.3-.2 2.4.2 6.4 1.3 6.4 1.3s.2.5.5 1.3c.1.7.2 1.5.2 1.5z"/><path class="st5" d="M93.1 28.2H93s-1.6-1.2-3.5-2.1c-1.5-.7-3.5-1.5-4.3-1.8-.1-.1-.2-.1-.2-.2 0-.2.2-.2.3-.2.7-.1 2.4-.3 4.3-.2C92 23.9 96 25 96 25c.1 0 .1.1.1.1s.2.5.5 1.3c.2.8.3 1.5.3 1.6v.1l-.1.1h-3.7zm-7.4-4.1c1 .4 2.7 1.1 3.9 1.7 1.7.8 3.2 1.9 3.5 2.1l3.5-.2c0-.3-.1-.8-.3-1.3-.2-.6-.4-1-.4-1.2-.6-.2-4.1-1.1-6.3-1.3-1.5-.1-3.1.1-3.9.2z"/><path class="st0" d="M92.2 31.5s-1.9-.6-4.1-.2c-2.2.3-3.1 1-4.1 1.3-.7.2-1.6.3-2.1.4-.2 0-.4 0-.6-.1-.4-.1-1.2-.4-2.1-.9-1.2-.6-2.1-1.3-2.1-1.3s2.8-.2 6.5-.3 8.7-.3 8.7-.3l-.1 1.4z"/><path class="st5" d="M81.8 33.1c-.2 0-.4 0-.5-.1-.4-.1-1.3-.5-2.1-.9-1.2-.6-2.1-1.3-2.1-1.3-.1 0-.1-.1-.1-.2s.1-.1.1-.1 2.8-.2 6.5-.3c3.7-.1 8.7-.3 8.7-.3h.1v1.5c0 .1 0 .1-.1.1h-.1s-1.9-.5-4.1-.2c-1.5.2-2.3.6-3.1.9-.4.2-.7.3-1 .4-.8.2-1.7.3-2.1.4 0 .1-.1.1-.1.1zm-4.3-2.2c.4.3 1 .7 1.7 1 .8.4 1.7.7 2.1.9.2.1.3.1.5.1.5 0 1.4-.1 2.1-.3.3-.1.6-.2 1-.4.7-.3 1.7-.7 3.2-.9 1.8-.3 3.4 0 4 .2v-1c-.9 0-5.3.2-8.6.3-2.7-.2-5 0-6 .1z"/><path class="st0" d="M99.8 29.2l-3-1s1.9-1.1 2.9-2.2c.7-.8 1.1-1.5 1.3-1.8.1-.1.1-.2.3-.2.5 0 1.8.1 4.1.8 2.9.9 5.2 2.8 5.2 2.8s-1.5.6-3.4.9c-3.6.6-7.4.7-7.4.7z"/><path class="st5" d="M99.8 29.4s-.1 0 0 0l-3-1c-.1 0-.1-.1-.1-.1 0-.1 0-.1.1-.2 0 0 1.9-1.1 2.8-2.2.7-.8 1.1-1.5 1.3-1.8.1-.2.2-.3.4-.3.5 0 1.9.1 4.2.8 2.9.9 5.2 2.8 5.2 2.8s.1.1.1.2 0 .1-.1.1c0 0-1.6.7-3.4.9-3.6.7-7.5.8-7.5.8zm-2.6-1.2l2.6.9c.4 0 4-.1 7.3-.6 1.3-.2 2.5-.6 3-.8-.6-.5-2.6-1.9-4.9-2.6-2.2-.7-3.6-.8-4.1-.8-.1 0-.1 0-.1.1-.1.3-.6 1-1.3 1.9-.6.7-1.9 1.5-2.5 1.9z"/><path class="st0" d="M113.6 32.8s-1.5.2-4.9-.3c-3.4-.5-8.6-1.7-8.6-1.7v-1.7s5.8-.3 8.8-.8c2.4-.3 4-.6 4.5-.7.1 0 .3 0 .4.1.5.2 1.7 1 1.8 2.5.3 1.8-2 2.6-2 2.6z"/><path class="st5" d="M112.6 33c-.8 0-2.1-.1-3.9-.3-3.4-.5-8.6-1.7-8.6-1.7-.1 0-.1-.1-.1-.2v-1.7c0-.1.1-.2.2-.2s5.8-.3 8.7-.8c2.4-.3 3.9-.6 4.5-.7.2 0 .4 0 .5.1.5.3 1.7 1 1.9 2.6.2 2-2.2 2.9-2.2 2.9h-1zm1-.2zm-13.3-2.1c.8.2 5.4 1.3 8.5 1.7 3.1.4 4.6.3 4.8.3.2-.1 2.1-.9 2-2.5-.2-1.4-1.3-2.1-1.7-2.3-.1 0-.2-.1-.3 0-.6.1-2.2.4-4.5.7-2.7.4-7.7.7-8.6.7l-.2 1.4z"/><ellipse transform="rotate(-87.96 95.992 29.197)" class="st7" cx="96" cy="29.2" rx="1.2" ry="4.3"/><path class="st1" d="M96.5 30.6H96c-1.2 0-2.2-.2-3.1-.5-.9-.3-1.4-.6-1.3-1.1 0-.9 2.3-1.3 4.5-1.2 1.2 0 2.2.2 3.1.5.9.3 1.4.6 1.3 1.1-.1.8-2 1.2-4 1.2zm-1-2.4c-2.2 0-3.6.5-3.6.9 0 .2.3.5 1.1.7.8.3 1.8.4 3 .4 2.5.1 4.1-.5 4.1-.9 0-.2-.3-.5-1.1-.7-.8-.3-1.8-.4-3-.4h-.5z"/><path class="st0" d="M102.5 35.3s-1.3-.4-2.3-1c-1.1-.6-2.9-2-2.9-2s1-.9 1.5-1.4c.5-.5 1.2-.7 1.2-.7s1.1.3 2.9.7c1.8.4 5.6.8 7.6 1.1 1.4.3 2.6.5 3.2.6.2 0 .3.1.1.2-.4.2-1.5.7-3.8 1.3-3.2.8-7.5 1.2-7.5 1.2z"/><path class="st5" d="M102.5 35.4c-.1 0-1.3-.4-2.4-1.1-1.1-.6-2.8-1.9-2.9-2l-.1-.1c0-.1 0-.1.1-.1 0 0 1-.9 1.5-1.4.5-.5 1.2-.8 1.2-.8h.1s1.1.3 2.9.7c1 .2 2.8.5 4.4.7 1.2.2 2.3.3 3.2.4 1.4.3 2.6.5 3.2.6.1 0 .3.1.3.2s0 .2-.2.3c-.4.3-1.5.8-3.8 1.4-3.2.9-7.4 1.2-7.5 1.2zm-4.9-3.2c.5.3 1.9 1.4 2.7 1.9.9.5 2.1.9 2.3 1 .4 0 4.4-.4 7.4-1.2 2.1-.5 3.1-1 3.6-1.3-.6-.1-1.8-.3-3.1-.6-.8-.1-2-.3-3.2-.4-1.7-.2-3.4-.4-4.5-.7-1.6-.4-2.6-.6-2.8-.7-.2.1-.7.3-1.1.7-.4.4-1 1.1-1.3 1.3z"/><path class="st0" d="M100 35.3c-.5.1-1.8.1-5.3-.1-5-.3-6.7-.7-6.7-.7s.2-.5 1.2-1.1c1-.6 4.5-2.1 4.5-2.1s.5 0 2-.1 1.9-.2 1.9-.2.1 1.3.6 2.2c.4.7 1.5 1.6 1.9 1.9 0 .1.1.2-.1.2z"/><path class="st5" d="M98.6 35.5c-.8 0-2.1 0-4-.1-4.9-.3-6.7-.7-6.7-.7s-.1 0-.1-.1v-.1s.3-.5 1.3-1.1c1-.6 4.3-2 4.5-2.1h.1s.5 0 2-.1c1.4-.1 1.8-.2 1.8-.2h.1l.1.1s.1 1.2.6 2.1c.4.7 1.4 1.5 1.8 1.9.1.1.2.2.1.3 0 .2-.2.2-.3.2-.1-.1-.5-.1-1.3-.1zm-10.3-1.1c.6.1 2.5.4 6.4.7 3.2.2 4.5.2 5.1.1-.6-.5-1.4-1.2-1.8-1.9-.4-.7-.6-1.7-.6-2-.2 0-.8.1-1.7.2-1.3.1-1.8.1-2 .1-.4.2-3.5 1.5-4.4 2.1-.5.2-.8.5-1 .7z"/><path class="st3" d="M73.9 33.6v-2.9"/><path class="st5" d="M73.4 30.7h.8v3h-.8z"/><path class="st3" d="M117.4 35.6v-3"/><path class="st5" d="M116.9 32.6h.8v3h-.8z"/><path class="st0" d="M219.8 5c-11-.6-20.2 1.7-22.2 5.2v3.1c2.1 3.6 10.9 6.6 21.6 7.2 11.2.6 20.5-1.8 22.3-5.4v-2.6c-1.7-3.7-10.7-6.9-21.7-7.5z"/><path class="st5" d="M222.5 20.9c-1.1 0-2.2 0-3.3-.1-10.3-.5-19.2-3.4-21.7-7-.1-.1-.1-.3.1-.4.1-.1.3-.1.4.1 2.4 3.5 11.1 6.2 21.2 6.7 10.3.5 19.4-1.5 21.8-4.8.1-.1.3-.2.4-.1.1.1.2.3.1.4-2.2 3.2-9.8 5.2-19 5.2z"/><path class="st3" d="M241.7 9.6c.2.4.3.8.2 1.3-.2 4.3-10.3 7.3-22.7 6.6-12.4-.6-22.3-4.6-22.1-8.9 0-.3.1-.7.2-1 1.6-3.7 11.1-6.2 22.5-5.6 11.2.5 20.3 3.8 21.9 7.6z"/><path class="st5" d="M222.5 18c-1.1 0-2.2 0-3.3-.1-12.8-.7-22.7-4.8-22.5-9.3 0-.4.1-.8.3-1.2 1.7-4 11.3-6.4 22.9-5.9 11.2.6 20.6 3.9 22.3 7.9.2.5.3 1 .3 1.5 0 1-.5 1.9-1.5 2.8-3 2.6-10.2 4.3-18.5 4.3zm-6-15.7c-9.6 0-17.4 2.2-18.8 5.4-.1.3-.2.6-.2.9-.2 4 9.8 7.9 21.7 8.5 9.4.5 17.9-1.1 21.1-4 .8-.7 1.2-1.4 1.2-2.2 0-.4-.1-.7-.2-1.1-1.5-3.7-10.8-6.8-21.5-7.4-1.1-.1-2.2-.1-3.3-.1z"/><path class="st6" d="M240.3 9.7c.2.3.2.7.2 1-.2 3.5-9.7 5.9-21.3 5.3-11.6-.6-20.8-3.9-20.7-7.4 0-.3.1-.6.2-.8 1.5-3 10.4-5 21.1-4.5 10.5.6 19 3.3 20.5 6.4z"/><path class="st7" d="M240.4 9.8c.2.3.2.7.2 1-.2 3.5-9.7 5.9-21.3 5.3-11.6-.6-20.8-3.9-20.7-7.4 0-.3.1-.6.2-.8 1.5-3 10.4-5 21.1-4.5 10.4.6 19 3.3 20.5 6.4z"/><path class="st1" d="M222.6 16.3c-1.1 0-2.2 0-3.4-.1-11.6-.6-21-3.9-20.8-7.5h.3c-.2 3.4 9 6.6 20.5 7.2 11.5.6 21-1.8 21.1-5.2v-.5l.3-.1c0 .2.1.4 0 .6-.1 3.3-7.9 5.6-18 5.6z"/><path class="st8" d="M240.3 10.3c0-.2-.1-.3-.2-.5-1.4-3.1-10.1-5.8-20.2-6.3-10.4-.5-19.4 1.4-20.9 4.4-.1.3-.2.5-.2.8h-.3c0-.3.1-.6.2-.9 1.6-3.1 10.7-5.1 21.2-4.5 10.4.5 19 3.2 20.6 6.4.1.2.2.4.2.5l-.4.1z"/><path class="st9" d="M224 9.4l-.1 2.8c0 .7-2 1.1-4.3 1-2.4-.1-4.3-.7-4.2-1.3l.1-2.8"/><path class="st10" d="M215.4 10.1s-2-1-4.7-1.3c-2.7-.3-10.2-.5-10.2-.8-.1-.2.6-.8 1.4-1.2s1.4-.4 2.7-.3c1.3.1 3.1.5 5.7 1.2l5.2 1.4-.1 1z"/><path class="st1" d="M215.4 10.3s0-.1 0 0c-.1 0-2.1-1-4.7-1.3-1.2-.2-3.6-.3-5.7-.4-4.5-.2-4.6-.3-4.7-.5-.1-.4.8-1.1 1.5-1.4.8-.4 1.5-.5 2.8-.4 1.3.1 3 .5 5.7 1.2l5.2 1.4c.1 0 .1.1.1.2v1c0 .1 0 .1-.2.2.1-.1.1 0 0 0zm-14.7-2.4c.5.1 2.6.2 4.4.3 2.1.1 4.4.2 5.7.4 2.1.3 3.9 1 4.5 1.2v-.6l-5-1.3c-2.8-.7-4.4-1.1-5.7-1.2-1.3-.1-1.8 0-2.6.3-.7.3-1.2.7-1.3.9z"/><path class="st10" d="M220.6 8.1l-3.7.2s-1.6-1.2-3.5-2.1c-1.5-.7-3.6-1.6-4.3-1.8-.1-.1-.1-.1.1-.1.7-.1 2.4-.3 4.3-.2 2.4.2 6.4 1.3 6.4 1.3s.2.5.5 1.3c.2.6.2 1.4.2 1.4z"/><path class="st1" d="M216.9 8.4c-.1 0-1.8-1.3-3.6-2.1-1.5-.7-3.6-1.6-4.3-1.8-.1-.1-.2-.1-.2-.2 0-.2.2-.2.3-.2.7-.1 2.4-.3 4.3-.2 2.4.2 6.4 1.3 6.4 1.3.1 0 .1.1.1.1s.2.5.5 1.3c.2.8.3 1.5.3 1.6v.1l-.1.1h-3.7zm-7.3-4.1c.9.4 2.6 1.1 3.9 1.7 1.7.8 3.2 1.9 3.5 2.1l3.5-.2c0-.3-.1-.8-.3-1.3-.2-.6-.4-1-.4-1.2-.6-.2-4.1-1.1-6.3-1.3-1.6-.1-3.1.1-3.9.2z"/><path class="st10" d="M216.1 11.7s-1.9-.6-4.1-.2c-2.2.3-3.1 1-4.1 1.3-.7.2-1.6.3-2.1.4-.2 0-.4 0-.6-.1-.4-.1-1.2-.4-2.1-.9-1.2-.6-2.1-1.3-2.1-1.3s2.8-.2 6.5-.3c3.7-.1 8.7-.3 8.7-.3l-.1 1.4z"/><path class="st1" d="M205.6 13.3c-.2 0-.4 0-.5-.1-.4-.1-1.2-.5-2.1-.9-1.2-.6-2.1-1.3-2.1-1.3-.1 0-.1-.1-.1-.2s.1-.1.1-.1 2.8-.2 6.5-.3c3.7-.1 8.7-.3 8.7-.3h.1s.1.1 0 .1v1.4c0 .1 0 .1-.1.1h-.1s-1.9-.5-4.1-.2c-1.5.2-2.3.6-3.1.9-.4.2-.7.3-1 .4-.8.2-1.7.3-2.1.4 0 .1-.1.1-.1.1zm-4.2-2.2c.4.3 1 .7 1.7 1 .9.4 1.7.7 2.1.9.2.1.3.1.5.1.5 0 1.4-.1 2.1-.3.3-.1.6-.2 1-.4.7-.3 1.7-.7 3.2-.9 1.8-.3 3.4 0 4 .2v-1c-.9 0-5.3.2-8.6.3-2.8-.2-5.1 0-6 .1z"/><path class="st10" d="M223.6 9.4l-3-1s1.9-1.1 2.9-2.2c.7-.8 1.1-1.5 1.3-1.8.1-.1.1-.2.3-.2.5 0 1.8.1 4.1.8 2.9.9 5.2 2.8 5.2 2.8s-1.5.6-3.4.9c-3.6.6-7.4.7-7.4.7z"/><path class="st1" d="M223.6 9.6s0-.1 0 0l-3-1c-.1 0-.1-.1-.1-.1 0-.1 0-.1.1-.2 0 0 1.9-1.1 2.8-2.2.7-.8 1.1-1.5 1.3-1.8.1-.2.2-.3.4-.3.5 0 1.9.1 4.2.8 2.9.9 5.2 2.8 5.2 2.8s.1.1.1.2 0 .1-.1.1c0 0-1.6.7-3.4.9-3.6.7-7.4.8-7.5.8zM221 8.3l2.6.9c.4 0 4-.1 7.3-.6 1.3-.2 2.5-.6 3-.8-.6-.5-2.6-1.9-4.9-2.6-2.2-.7-3.6-.8-4.1-.8-.1 0-.1 0-.1.1-.2.3-.6 1.1-1.3 1.9-.6.7-1.9 1.6-2.5 1.9z"/><path class="st10" d="M237.4 13s-1.5.2-4.9-.3c-3.4-.5-8.6-1.7-8.6-1.7V9.3s5.8-.3 8.8-.8c2.4-.3 4-.6 4.5-.7.1 0 .3 0 .4.1.5.2 1.7 1 1.8 2.5.3 1.8-2 2.6-2 2.6z"/><path class="st1" d="M236.5 13.2c-.8 0-2.1-.1-4-.3-3.4-.5-8.6-1.7-8.6-1.7-.1 0-.1-.1-.1-.2V9.3c0-.1.1-.2.2-.2s5.8-.3 8.7-.8c2.4-.3 3.9-.6 4.5-.7.2 0 .4 0 .5.1.5.3 1.7 1 1.9 2.6.2 2-2.2 2.9-2.2 2.9h-.9zm.9-.2zm-13.3-2.1c.8.2 5.4 1.3 8.5 1.7 3.1.4 4.6.3 4.8.3.2-.1 2.1-.9 2-2.5-.2-1.4-1.3-2.1-1.7-2.3-.1 0-.2-.1-.3 0-.6.1-2.1.4-4.5.7-2.7.4-7.7.7-8.6.7l-.2 1.4z"/><path class="st10" d="M226.3 15.5s-1.3-.4-2.3-1c-1.1-.6-2.9-2-2.9-2s1-.9 1.5-1.4c.5-.5 1.2-.7 1.2-.7s1.1.3 2.9.7c1.8.4 5.6.8 7.6 1.1 1.4.3 2.6.5 3.2.6.2 0 .3.1.1.2-.4.2-1.5.7-3.8 1.3-3.2.8-7.5 1.2-7.5 1.2z"/><path class="st1" d="M226.3 15.6c-.1 0-1.3-.4-2.4-1.1-1.1-.6-2.8-1.9-2.9-2l-.1-.1c0-.1 0-.1.1-.1 0 0 1-.9 1.5-1.4.5-.5 1.2-.8 1.2-.8h.1s1.1.3 2.9.7c1.1.2 2.8.5 4.4.7 1.2.2 2.3.3 3.2.4 1.3.2 2.5.5 3.2.6.1 0 .3.1.3.2s0 .2-.2.3c-.4.3-1.5.8-3.8 1.4-3.1.9-7.4 1.2-7.5 1.2zm-4.9-3.2c.5.3 1.9 1.4 2.7 1.9.9.5 2.1.9 2.3 1 .4 0 4.4-.4 7.4-1.2 2.1-.5 3.1-1 3.6-1.3-.7-.1-1.9-.4-3.1-.6-.8-.1-2-.3-3.2-.4-1.7-.2-3.4-.4-4.5-.7-1.6-.4-2.6-.6-2.8-.7-.2.1-.7.3-1.1.7-.3.4-1 1.1-1.3 1.3zm16.2.5zm0-.1z"/><path class="st10" d="M223.8 15.5c-.5.1-1.8.1-5.3-.1-5-.3-6.7-.7-6.7-.7s.2-.5 1.2-1.1c1-.6 4.5-2.1 4.5-2.1s.5 0 2-.1 1.9-.2 1.9-.2.1 1.3.6 2.2c.4.7 1.5 1.6 1.9 1.9.1.1.1.2-.1.2z"/><path class="st1" d="M222.5 15.7c-.8 0-2.1 0-4-.1-4.9-.3-6.7-.7-6.7-.7s-.1 0-.1-.1v-.1s.3-.5 1.3-1.1c1-.6 4.3-2 4.5-2.1h.1s.5 0 2-.1c1.4-.1 1.8-.2 1.8-.2h.1l.1.1s.1 1.2.6 2.1c.4.7 1.4 1.5 1.8 1.9.1.1.2.2.1.3 0 .2-.2.2-.3.2-.2-.1-.6-.1-1.3-.1zm1.3-.2zm-11.7-.9c.6.1 2.5.4 6.4.7 3.2.2 4.5.2 5.1.1-.5-.4-1.4-1.2-1.8-1.9-.4-.7-.6-1.7-.6-2-.2 0-.8.1-1.7.2-1.3.1-1.8.1-2 .1-.4.2-3.5 1.5-4.4 2.1-.5.2-.8.5-1 .7z"/><path class="st7" d="M224.2 9.2l-.1 2.8c0 .7-2 1.1-4.3 1-2.4-.1-4.3-.7-4.2-1.3l.1-2.8"/><path class="st0" d="M215.5 9.7s-2-1-4.7-1.3c-2.7-.3-10.2-.5-10.2-.8-.1-.2.6-.8 1.4-1.2.8-.3 1.4-.4 2.7-.3 1.3.1 3.1.5 5.7 1.2l5.2 1.4-.1 1z"/><path class="st5" d="M215.5 9.9c-.1 0-2.1-1-4.7-1.3-1.2-.2-3.6-.3-5.7-.4-4.5-.2-4.7-.3-4.7-.5-.1-.4.8-1.1 1.5-1.4.8-.4 1.5-.5 2.8-.4 1.3.1 3 .5 5.7 1.2l5.2 1.4c.1 0 .1.1.1.2v1c0 .1 0 .1-.2.2.1 0 .1 0 0 0zm-14.7-2.4c.5.1 2.6.2 4.4.3 2.1.1 4.4.2 5.7.4 2.1.3 3.9 1 4.5 1.2v-.6l-5-1.3c-2.8-.7-4.4-1.1-5.7-1.2-1.3-.1-1.8 0-2.6.3-.7.3-1.2.7-1.3.9z"/><path class="st0" d="M220.7 7.7l-3.7.2s-1.6-1.2-3.5-2.1c-1.5-.7-3.6-1.6-4.3-1.8-.1-.1-.1-.1.1-.1.7-.1 2.4-.3 4.3-.2C216 3.9 220 5 220 5s.2.5.5 1.3.2 1.4.2 1.4z"/><path class="st5" d="M217 8s-.1 0 0 0c-.1 0-1.8-1.3-3.6-2.1-1.5-.7-3.6-1.6-4.3-1.8 0-.1-.1-.2-.1-.3 0-.2.2-.2.3-.2.7-.1 2.4-.3 4.3-.2 2.4.2 6.4 1.3 6.4 1.3.1 0 .1.1.1.1s.2.5.5 1.3c.2.8.3 1.5.3 1.6v.1l-.1.1-3.8.1zm-7.3-4.1c.9.4 2.6 1.1 3.9 1.7 1.7.8 3.2 1.9 3.5 2.1l3.5-.2c0-.3-.1-.8-.3-1.3-.2-.6-.4-1-.4-1.2-.6-.2-4.1-1.1-6.3-1.3-1.6-.1-3.1.1-3.9.2z"/><path class="st0" d="M216.2 11.3s-1.9-.6-4.1-.2c-2.2.3-3.1 1-4.1 1.3-.7.2-1.6.3-2.1.4-.2 0-.4 0-.6-.1-.4-.1-1.2-.4-2.1-.9-1.2-.6-2.1-1.3-2.1-1.3s2.8-.2 6.5-.3c3.7-.1 8.7-.3 8.7-.3l-.1 1.4z"/><path class="st5" d="M205.7 12.9c-.2 0-.4 0-.5-.1-.4-.1-1.2-.4-2.1-.9-1.2-.6-2.1-1.3-2.1-1.3-.1 0-.1-.1-.1-.2s.1-.1.1-.1 2.8-.2 6.5-.3c3.7-.1 8.7-.3 8.7-.3h.1s.1.1 0 .1v1.4c0 .1 0 .1-.1.1h-.1s-1.9-.5-4.1-.2c-1.5.2-2.3.6-3.1.9-.4.2-.7.3-1 .4-.8.2-1.7.3-2.1.4 0 .1-.1.1-.1.1zm-4.2-2.2c.4.3 1 .7 1.7 1 .9.4 1.7.7 2.1.9.2.1.3.1.5.1.5 0 1.4-.1 2.1-.3.3-.1.6-.2 1-.4.7-.3 1.7-.7 3.2-.9 1.8-.3 3.4 0 4 .2v-1c-.9 0-5.3.2-8.6.3-2.8-.2-5.1 0-6 .1z"/><path class="st0" d="M223.7 9l-3-1s1.9-1.1 2.9-2.2c.7-.8 1.1-1.5 1.3-1.8.1-.1.1-.2.3-.2.5 0 1.8.1 4.1.8 2.9.9 5.2 2.8 5.2 2.8s-1.5.6-3.4.9c-3.6.6-7.4.7-7.4.7z"/><path class="st5" d="M223.7 9.2l-3-1c-.1 0-.1-.1-.1-.1 0-.1 0-.1.1-.2 0 0 1.9-1.1 2.8-2.2.7-.8 1.1-1.5 1.3-1.8.1-.2.2-.3.4-.3.5 0 1.9.1 4.2.8 2.9.9 5.2 2.8 5.2 2.8s.1.1.1.2 0 .1-.1.1c0 0-1.6.7-3.4.9-3.6.7-7.4.8-7.5.8zM221.1 8l2.6.9c.4 0 4-.1 7.3-.6 1.3-.2 2.5-.6 3-.8-.6-.5-2.6-1.9-4.9-2.6-2.1-.8-3.5-.9-3.9-.9h-.2c-.1.3-.6 1-1.3 1.9-.7.9-2 1.7-2.6 2.1z"/><path class="st0" d="M237.5 12.6s-1.5.2-4.9-.3c-3.4-.5-8.6-1.7-8.6-1.7V8.9s5.8-.3 8.8-.8c2.4-.3 4-.6 4.5-.7.1 0 .3 0 .4.1.5.2 1.7 1 1.8 2.5.3 1.8-2 2.6-2 2.6z"/><path class="st5" d="M236.6 12.8c-.8 0-2.1-.1-4-.3-3.4-.5-8.6-1.7-8.6-1.7-.1 0-.1-.1-.1-.2V8.9c0-.1.1-.2.2-.2s5.8-.3 8.7-.8c2.4-.3 3.9-.6 4.5-.7.2 0 .4 0 .5.1.5.3 1.7 1 1.9 2.6.2 2-2.2 2.9-2.2 2.9h-.9zm.9-.2zm-13.3-2.1c.8.2 5.4 1.3 8.5 1.7 3.1.4 4.6.3 4.8.3.2-.1 2.1-.9 2-2.5-.2-1.4-1.3-2.1-1.7-2.3-.1 0-.2-.1-.3 0-.6.1-2.1.4-4.5.7-2.7.4-7.7.7-8.6.7l-.2 1.4z"/><ellipse transform="rotate(-87.96 219.917 9.005)" class="st7" cx="219.9" cy="9" rx="1.2" ry="4.3"/><path class="st1" d="M220.4 10.4h-.6c-2-.1-3.7-.5-4.2-1.1-.1-.1-.2-.3-.2-.4 0-.4.5-.7 1.4-1 .8-.2 1.9-.3 3.1-.2 2 .1 3.7.5 4.2 1.1.1.1.2.3.2.4 0 .4-.5.7-1.4 1-.6.1-1.5.2-2.5.2zm-1-2.4c-.9 0-1.8.1-2.4.2-.8.2-1.1.5-1.2.6 0 .1 0 .1.1.2.4.4 1.9.9 4 1 1.1 0 2.2 0 3-.2.8-.2 1.1-.5 1.2-.6 0-.1 0-.1-.1-.2-.4-.4-1.9-.9-4-1h-.6z"/><path class="st0" d="M226.4 15.1s-1.3-.4-2.3-1c-1.1-.6-2.9-2-2.9-2s1-.9 1.5-1.4c.5-.5 1.2-.7 1.2-.7s1.1.3 2.9.7 5.6.8 7.6 1.1c1.4.3 2.6.5 3.2.6.2 0 .3.1.1.2-.4.2-1.5.7-3.8 1.3-3.2.8-7.5 1.2-7.5 1.2z"/><path class="st5" d="M226.4 15.2c-.1 0-1.3-.4-2.4-1.1-1.1-.6-2.8-1.9-2.9-2l-.1-.1c0-.1 0-.1.1-.1 0 0 1-.9 1.5-1.4.5-.5 1.2-.8 1.2-.8h.1s1.1.3 2.9.7c1 .2 2.8.5 4.4.7 1.2.2 2.3.3 3.2.4 1 .2 2.2.4 3.2.6.1 0 .3.1.3.2s0 .2-.2.3c-.4.3-1.5.8-3.8 1.4-3.1.9-7.4 1.2-7.5 1.2zm-4.9-3.2c.5.3 1.9 1.4 2.7 1.9.9.5 2.1.9 2.3 1 .4 0 4.4-.4 7.4-1.2 2.1-.5 3.1-1 3.6-1.3-1-.2-2.1-.4-3.1-.6-.8-.1-2-.3-3.2-.4-1.7-.2-3.4-.4-4.5-.7-1.6-.4-2.6-.6-2.8-.7-.2.1-.7.3-1.1.7-.3.5-1 1.1-1.3 1.3z"/><path class="st0" d="M223.9 15.1c-.5.1-1.8.1-5.3-.1-5-.3-6.7-.7-6.7-.7s.2-.5 1.2-1.1c1-.6 4.5-2.1 4.5-2.1s.5 0 2-.1 1.9-.2 1.9-.2.1 1.3.6 2.2c.4.7 1.5 1.6 1.9 1.9.1.1.1.2-.1.2z"/><path class="st5" d="M222.6 15.3c-.8 0-2.1 0-4-.1-4.9-.3-6.7-.7-6.7-.7s-.1 0-.1-.1v-.1s.3-.5 1.3-1.1c1-.6 4.3-2 4.5-2.1h.1s.5 0 2-.1c1.4-.1 1.8-.2 1.8-.2h.1l.1.1s.1 1.2.6 2.1c.4.7 1.5 1.6 1.8 1.9.1.1.2.2.1.3 0 .2-.2.2-.3.2-.2-.1-.6-.1-1.3-.1zm1.3-.2zm-11.7-.9c.6.1 2.5.4 6.4.7 3.2.2 4.5.2 5.1.1-.5-.4-1.4-1.2-1.8-1.9-.4-.7-.6-1.7-.6-2-.2 0-.8.1-1.7.2-1.3.1-1.8.1-2 .1-.4.2-3.5 1.5-4.4 2.1-.5.2-.8.5-1 .7z"/><path class="st3" d="M197.8 13.4v-2.9"/><path class="st5" d="M197.4 10.5h.8v3h-.8z"/><path class="st3" d="M241.3 15.4v-3"/><path class="st5" d="M240.9 12.4h.8v3h-.8z"/><path class="st0" d="M219.8 25.2c-11-.6-20.2 1.7-22.2 5.2v3.1c2.1 3.6 10.9 6.6 21.6 7.2 11.2.6 20.5-1.8 22.3-5.4v-2.6c-1.7-3.7-10.7-6.9-21.7-7.5z"/><path class="st5" d="M222.5 41.1c-1.1 0-2.2 0-3.3-.1-10.3-.5-19.2-3.4-21.7-7-.1-.1-.1-.3.1-.4.1-.1.3-.1.4.1 2.4 3.5 11.1 6.2 21.2 6.7 10.3.5 19.4-1.5 21.8-4.8.1-.1.3-.2.4-.1.1.1.2.3.1.4-2.2 3.2-9.8 5.2-19 5.2z"/><path class="st3" d="M241.7 29.8c.2.4.3.8.2 1.3-.2 4.3-10.3 7.3-22.7 6.6-12.4-.6-22.3-4.6-22.1-8.9 0-.3.1-.7.2-1 1.6-3.7 11.1-6.2 22.5-5.6 11.1.5 20.3 3.8 21.9 7.6z"/><path class="st5" d="M222.5 38.2c-1.1 0-2.2 0-3.3-.1-12.8-.7-22.7-4.8-22.5-9.3 0-.4.1-.8.3-1.2 1.7-4 11.3-6.4 22.9-5.9 11.2.6 20.6 3.9 22.3 7.9.2.5.3 1 .3 1.5 0 1-.5 1.9-1.5 2.8-3.1 2.6-10.2 4.3-18.5 4.3zm-6-15.7c-9.6 0-17.4 2.2-18.8 5.4-.1.3-.2.6-.2.9-.2 4 9.8 7.9 21.7 8.5 9.5.5 17.9-1.1 21.1-4 .8-.7 1.2-1.4 1.2-2.2 0-.4-.1-.7-.2-1.1-1.5-3.7-10.8-6.8-21.5-7.4-1.1-.1-2.3-.1-3.3-.1z"/><path class="st6" d="M240.3 29.9c.2.3.2.7.2 1-.2 3.5-9.7 5.9-21.3 5.3-11.6-.6-20.8-3.9-20.7-7.4 0-.3.1-.6.2-.8 1.5-3 10.4-5 21.1-4.5 10.5.6 19 3.3 20.5 6.4z"/><path class="st7" d="M240.3 30c.2.3.2.7.2 1-.2 3.5-9.7 5.9-21.3 5.3-11.6-.6-20.8-3.9-20.7-7.4 0-.3.1-.6.2-.8 1.5-3 10.4-5 21.1-4.5 10.5.6 19.1 3.3 20.5 6.4z"/><path class="st1" d="M222.6 36.5c-1.1 0-2.2 0-3.4-.1-11.6-.6-21-3.9-20.8-7.5h.3c-.2 3.4 9 6.6 20.5 7.2 11.5.6 21-1.8 21.1-5.2v-.5l.3-.1c0 .2.1.4 0 .6-.1 3.3-8 5.6-18 5.6z"/><path class="st8" d="M240.3 30.5c0-.2-.1-.3-.2-.5-1.5-3.1-10.2-5.7-20.3-6.2-10.4-.5-19.4 1.4-20.9 4.4-.1.3-.2.5-.2.8h-.3c0-.3.1-.6.2-.9 1.6-3.1 10.7-5.1 21.2-4.5 10.4.5 19 3.2 20.6 6.4.1.2.2.4.2.5h-.3z"/><path class="st9" d="M224 29.6l-.1 2.8c0 .7-2 1.1-4.3 1-2.4-.1-4.3-.7-4.2-1.3l.1-2.8"/><path class="st10" d="M215.4 30.3s-2-1-4.7-1.3c-2.7-.3-10.2-.5-10.2-.8-.1-.2.6-.8 1.4-1.2.8-.3 1.4-.4 2.7-.3 1.3.1 3.1.5 5.7 1.2l5.2 1.4-.1 1z"/><path class="st1" d="M215.4 30.4c-.1 0-2.1-1-4.7-1.3-1.2-.2-3.6-.3-5.7-.4-4.5-.2-4.6-.3-4.7-.5-.1-.4.8-1.1 1.5-1.4.8-.4 1.5-.5 2.8-.4 1.3.1 3 .5 5.7 1.2l5.2 1.4c.1 0 .1.1.1.2v1c0 .1-.1.2-.2.2.1 0 0 0 0 0zm-14.7-2.3c.5.1 2.6.2 4.4.3 2.1.1 4.4.2 5.7.4 2.1.3 3.9 1 4.5 1.2v-.6l-5-1.3c-2.8-.7-4.4-1.1-5.7-1.2-1.3-.1-1.8 0-2.6.3-.7.2-1.2.7-1.3.9z"/><path class="st10" d="M220.6 28.3l-3.7.2s-1.6-1.2-3.5-2.1c-1.5-.7-3.6-1.6-4.3-1.8-.1-.1-.1-.1.1-.1.7-.1 2.4-.3 4.3-.2 2.4.2 6.4 1.3 6.4 1.3s.2.5.5 1.3c.2.6.2 1.4.2 1.4z"/><path class="st1" d="M216.9 28.6s-.1 0 0 0c-.1 0-1.8-1.3-3.6-2.1-1.5-.7-3.6-1.6-4.3-1.8-.1-.1-.2-.1-.2-.2 0-.2.2-.2.3-.2.7-.1 2.4-.3 4.3-.2 2.4.2 6.4 1.3 6.4 1.3.1 0 .1.1.1.1s.2.5.5 1.3c.2.8.3 1.5.3 1.6v.1l-.1.1h-3.7zm-7.4-4.1c.9.4 2.6 1.1 3.9 1.7 1.7.8 3.2 1.9 3.5 2.1l3.5-.2c0-.3-.1-.8-.3-1.3-.2-.6-.4-1-.4-1.2-.6-.2-4.1-1.1-6.3-1.3-1.5-.1-3.1.1-3.9.2z"/><path class="st10" d="M216.1 31.9s-1.9-.6-4.1-.2c-2.2.3-3.1 1-4.1 1.3-.7.2-1.6.3-2.1.4-.2 0-.4 0-.6-.1-.4-.1-1.2-.4-2.1-.9-1.2-.6-2.1-1.3-2.1-1.3s2.8-.2 6.5-.3c3.7-.1 8.7-.3 8.7-.3l-.1 1.4z"/><path class="st1" d="M205.6 33.5c-.2 0-.4 0-.5-.1-.4-.1-1.2-.5-2.1-.9-1.2-.6-2.1-1.3-2.1-1.3-.1 0-.1-.1-.1-.2s.1-.1.1-.1 2.8-.2 6.5-.3c3.7-.1 8.7-.3 8.7-.3h.1s.1.1 0 .1v1.4c0 .1 0 .1-.1.1h-.1s-1.9-.5-4.1-.2c-1.5.2-2.3.6-3.1.9-.4.2-.7.3-1 .4-.8.2-1.7.3-2.1.4 0 .1-.1.1-.1.1zm-4.2-2.3c.4.3 1 .7 1.7 1 .9.4 1.7.7 2.1.9.2.1.3.1.5.1.5 0 1.4-.1 2.1-.3.3-.1.6-.2 1-.4.7-.3 1.7-.7 3.2-.9 1.8-.3 3.4 0 4 .2v-1c-.9 0-5.3.2-8.6.3-2.8-.1-5.1.1-6 .1z"/><path class="st10" d="M223.6 29.6l-3-1s1.9-1.1 2.9-2.2c.7-.8 1.1-1.5 1.3-1.8.1-.1.1-.2.3-.2.5 0 1.8.1 4.1.8 2.9.9 5.2 2.8 5.2 2.8s-1.5.6-3.4.9c-3.6.6-7.4.7-7.4.7z"/><path class="st1" d="M223.6 29.7l-3-1c-.1 0-.1-.1-.1-.1 0-.1 0-.1.1-.2 0 0 1.9-1.1 2.8-2.2.7-.8 1.1-1.5 1.3-1.8.1-.2.2-.3.4-.3.5 0 1.9.1 4.2.8 2.9.9 5.2 2.8 5.2 2.8s.1.1.1.2 0 .1-.1.1c0 0-1.6.7-3.4.9-3.6.8-7.5.8-7.5.8zm-2.6-1.2l2.6.9c.4 0 4-.1 7.3-.6 1.3-.2 2.5-.6 3-.8-.6-.5-2.6-1.9-4.9-2.6-2.3-.7-3.6-.8-4.1-.8-.1 0-.1 0-.1.1-.2.3-.6 1.1-1.3 1.9-.6.7-1.9 1.6-2.5 1.9z"/><path class="st10" d="M237.4 33.2s-1.5.2-4.9-.3c-3.4-.5-8.6-1.7-8.6-1.7v-1.7s5.8-.3 8.8-.8c2.4-.3 4-.6 4.5-.7.1 0 .3 0 .4.1.5.2 1.7 1 1.8 2.5.3 1.8-2 2.6-2 2.6z"/><path class="st1" d="M236.5 33.4c-.8 0-2.1-.1-4-.3-3.4-.5-8.6-1.7-8.6-1.7-.1 0-.1-.1-.1-.2v-1.7c0-.1.1-.2.2-.2s5.8-.3 8.7-.8c2.3-.3 3.9-.6 4.5-.7.2 0 .4 0 .5.1.5.3 1.7 1 1.9 2.6.2 2-2.2 2.9-2.2 2.9h-.9zm.9-.2zm-13.3-2.1c.8.2 5.4 1.3 8.5 1.7 3.1.4 4.6.3 4.8.3.2-.1 2.1-.9 2-2.5-.2-1.4-1.3-2.1-1.7-2.3-.1 0-.2-.1-.3 0-.6.1-2.2.4-4.5.7-2.7.4-7.7.7-8.6.7l-.2 1.4z"/><path class="st10" d="M226.3 35.7s-1.3-.4-2.3-1c-1.1-.6-2.9-2-2.9-2s1-.9 1.5-1.4c.5-.5 1.2-.7 1.2-.7s1.1.3 2.9.7c1.8.4 5.6.8 7.6 1.1 1.4.3 2.6.5 3.2.6.2 0 .3.1.1.2-.4.2-1.5.7-3.8 1.3-3.2.8-7.5 1.2-7.5 1.2z"/><path class="st1" d="M226.3 35.8c-.1 0-1.3-.4-2.4-1.1-1.1-.6-2.8-1.9-2.9-2l-.1-.1c0-.1 0-.1.1-.1 0 0 1-.9 1.5-1.4.5-.5 1.2-.8 1.2-.8h.1s1.1.3 2.9.7c1 .2 2.8.5 4.4.7 1.2.2 2.3.3 3.2.4 1.4.3 2.6.5 3.2.6.1 0 .3.1.3.2s0 .2-.2.3c-.4.3-1.5.8-3.8 1.4-3.2.9-7.4 1.2-7.5 1.2zm-4.9-3.2c.5.3 1.9 1.4 2.7 1.9.9.5 2.1.9 2.3 1 .4 0 4.4-.4 7.4-1.2 2.1-.5 3.1-1 3.6-1.3-.6-.1-1.8-.3-3.1-.6-.8-.1-2-.3-3.2-.4-1.7-.2-3.4-.4-4.5-.7-1.6-.4-2.6-.6-2.8-.7-.2.1-.7.3-1.1.7-.3.4-1 1.1-1.3 1.3z"/><path class="st10" d="M223.8 35.7c-.5.1-1.8.1-5.3-.1-5-.3-6.7-.7-6.7-.7s.2-.5 1.2-1.1c1-.6 4.5-2.1 4.5-2.1s.5 0 2-.1 1.9-.2 1.9-.2.1 1.3.6 2.2c.4.7 1.5 1.6 1.9 1.9.1.1.1.2-.1.2z"/><path class="st1" d="M222.5 35.9c-.8 0-2.1 0-4-.1-4.9-.3-6.7-.7-6.7-.7s-.1 0-.1-.1v-.1s.3-.5 1.3-1.1c1-.6 4.3-2 4.5-2.1h.1s.5 0 2-.1c1.4-.1 1.8-.2 1.8-.2h.1l.1.1s.1 1.2.6 2.1c.4.7 1.4 1.5 1.8 1.9.1.1.2.2.1.3 0 .2-.2.2-.3.2-.2-.1-.6-.1-1.3-.1zm-10.4-1.1c.6.1 2.5.4 6.4.7 3.2.2 4.5.2 5.1.1-.5-.4-1.4-1.2-1.8-1.9-.4-.7-.6-1.7-.6-2-.2 0-.8.1-1.7.2-1.3.1-1.8.1-2 .1-.4.2-3.5 1.5-4.4 2.1-.5.2-.8.5-1 .7z"/><path class="st7" d="M224.2 29.4l-.1 2.8c0 .7-2 1.1-4.3 1-2.4-.1-4.3-.7-4.2-1.3l.1-2.8"/><path class="st0" d="M215.5 29.9s-2-1-4.7-1.3c-2.7-.3-10.2-.5-10.2-.8-.1-.2.6-.8 1.4-1.2s1.4-.4 2.7-.3c1.3.1 3.1.5 5.7 1.2l5.2 1.4-.1 1z"/><path class="st5" d="M215.5 30.1c-.1 0-2.1-1-4.7-1.3-1.2-.2-3.6-.3-5.7-.4-4.5-.2-4.7-.3-4.7-.5-.1-.4.8-1.1 1.5-1.4.8-.4 1.5-.5 2.8-.4 1.3.1 3 .5 5.7 1.2l5.2 1.4c.1 0 .1.1.1.2v1c0 .1-.1.1-.2.2.1 0 0 0 0 0zm-14.7-2.4c.5.1 2.6.2 4.4.3 2.1.1 4.4.2 5.7.4 2.1.3 3.9 1 4.5 1.2V29l-5-1.3c-2.8-.7-4.4-1.1-5.7-1.2-1.3-.1-1.8 0-2.6.3-.7.3-1.2.7-1.3.9z"/><path class="st0" d="M220.7 27.9l-3.7.2s-1.6-1.2-3.5-2.1c-1.5-.7-3.6-1.6-4.3-1.8-.1-.1-.1-.1.1-.1.7-.1 2.4-.3 4.3-.2 2.4.2 6.4 1.3 6.4 1.3s.2.5.5 1.3c.1.6.2 1.4.2 1.4z"/><path class="st5" d="M217 28.2s-.1 0 0 0c-.1 0-1.8-1.3-3.6-2.1-1.5-.7-3.5-1.5-4.3-1.8-.1-.1-.2-.1-.2-.2 0-.2.2-.2.3-.2.7-.1 2.4-.3 4.3-.2 2.4.2 6.4 1.3 6.4 1.3.1 0 .1.1.1.1s.2.5.5 1.3c.2.8.3 1.5.3 1.6v.1l-.1.1H217zm-7.4-4.1c1 .4 2.7 1.1 3.9 1.7 1.7.8 3.2 1.9 3.5 2.1l3.5-.2c0-.3-.1-.8-.3-1.3-.2-.6-.4-1-.4-1.2-.6-.2-4.1-1.1-6.3-1.3-1.5-.1-3.1.1-3.9.2z"/><path class="st0" d="M216.2 31.5s-1.9-.6-4.1-.2c-2.2.3-3.1 1-4.1 1.3-.7.2-1.6.3-2.1.4-.2 0-.4 0-.6-.1-.4-.1-1.2-.4-2.1-.9-1.2-.6-2.1-1.3-2.1-1.3s2.8-.2 6.5-.3c3.7-.1 8.7-.3 8.7-.3l-.1 1.4z"/><path class="st5" d="M205.7 33.1c-.2 0-.4 0-.5-.1-.4-.1-1.2-.5-2.1-.9-1.2-.6-2.1-1.3-2.1-1.3-.1 0-.1-.1-.1-.2s.1-.1.1-.1 2.8-.2 6.5-.3c3.7-.1 8.7-.3 8.7-.3h.1s.1.1 0 .1v1.4c0 .1 0 .1-.1.1h-.1s-1.9-.5-4.1-.2c-1.5.2-2.3.6-3.1.9-.4.2-.7.3-1 .4-.8.2-1.7.3-2.1.4 0 .1-.1.1-.1.1zm-4.2-2.2c.4.3 1 .7 1.7 1 .9.4 1.7.7 2.1.9.2.1.3.1.5.1.5 0 1.4-.1 2.1-.3.3-.1.6-.2 1-.4.7-.3 1.7-.7 3.2-.9 1.8-.3 3.4 0 4 .2v-1c-.9 0-5.3.2-8.6.3-2.8-.2-5.1 0-6 .1z"/><g><path class="st0" d="M223.7 29.2l-3-1s1.9-1.1 2.9-2.2c.7-.8 1.1-1.5 1.3-1.8.1-.1.1-.2.3-.2.5 0 1.8.1 4.1.8 2.9.9 5.2 2.8 5.2 2.8s-1.5.6-3.4.9c-3.6.6-7.4.7-7.4.7z"/><path class="st5" d="M223.7 29.4l-3-1c-.1 0-.1-.1-.1-.1 0-.1 0-.1.1-.2 0 0 1.9-1.1 2.8-2.2.7-.8 1.1-1.5 1.3-1.8.1-.2.2-.3.4-.3.5 0 1.9.1 4.2.8 2.9.9 5.2 2.8 5.2 2.8s.1.1.1.2 0 .1-.1.1c0 0-1.6.7-3.4.9-3.6.7-7.5.8-7.5.8zm-2.6-1.2l2.6.9c.4 0 4-.1 7.3-.6 1.3-.2 2.5-.6 3-.8-.6-.5-2.6-1.9-4.9-2.6-2.3-.7-3.6-.8-4.1-.8-.1 0-.1 0-.1.1-.1.3-.6 1-1.3 1.9-.6.7-1.9 1.5-2.5 1.9z"/></g><g><path class="st0" d="M237.5 32.8s-1.5.2-4.9-.3c-3.4-.5-8.6-1.7-8.6-1.7v-1.7s5.8-.3 8.8-.8c2.4-.3 4-.6 4.5-.7.1 0 .3 0 .4.1.5.2 1.7 1 1.8 2.5.3 1.8-2 2.6-2 2.6z"/><path class="st5" d="M236.5 33c-.8 0-2.1-.1-3.9-.3-3.4-.5-8.6-1.7-8.6-1.7-.1 0-.1-.1-.1-.2v-1.7c0-.1.1-.2.2-.2s5.8-.3 8.7-.8c2.4-.3 3.9-.6 4.5-.7.2 0 .4 0 .5.1.5.3 1.7 1 1.9 2.6.2 2-2.2 2.9-2.2 2.9h-1zm1-.2zm-13.3-2.1c.8.2 5.4 1.3 8.5 1.7 3.1.4 4.6.3 4.8.3.2-.1 2.1-.9 2-2.5-.2-1.4-1.3-2.1-1.7-2.3-.1 0-.2-.1-.3 0-.6.1-2.1.4-4.5.7-2.7.4-7.7.7-8.6.7l-.2 1.4z"/></g><ellipse transform="rotate(-87.96 219.895 29.198)" class="st7" cx="219.9" cy="29.2" rx="1.2" ry="4.3"/><path class="st1" d="M220.4 30.6h-.6c-2.2-.1-4.4-.6-4.4-1.5s2.3-1.3 4.5-1.2c2 .1 3.7.5 4.2 1.1.1.1.2.3.2.4 0 .4-.5.7-1.4 1-.7.1-1.5.2-2.5.2zm-4.6-1.5c0 .4 1.5 1.1 4.1 1.2 1.1 0 2.2 0 3-.2.8-.2 1.1-.5 1.2-.6 0-.1 0-.1-.1-.2-.4-.4-1.9-.9-4-1-2.6-.2-4.2.3-4.2.8z"/><g><path class="st0" d="M226.4 35.3s-1.3-.4-2.3-1c-1.1-.6-2.9-2-2.9-2s1-.9 1.5-1.4c.5-.5 1.2-.7 1.2-.7s1.1.3 2.9.7c1.8.4 5.6.8 7.6 1.1 1.4.3 2.6.5 3.2.6.2 0 .3.1.1.2-.4.2-1.5.7-3.8 1.3-3.2.8-7.5 1.2-7.5 1.2z"/><path class="st5" d="M226.4 35.4c-.1 0-1.3-.4-2.4-1.1-1.1-.6-2.8-1.9-2.9-2l-.1-.1c0-.1 0-.1.1-.1 0 0 1-.9 1.5-1.4.5-.5 1.2-.8 1.2-.8h.1s1.1.3 2.9.7c1 .2 2.8.5 4.4.7 1.2.2 2.3.3 3.2.4 1.4.3 2.6.5 3.2.6.1 0 .3.1.3.2s0 .2-.2.3c-.4.3-1.5.8-3.8 1.4-3.2.9-7.4 1.2-7.5 1.2zm-4.9-3.2c.5.3 1.9 1.4 2.7 1.9.9.5 2.1.9 2.3 1 .4 0 4.4-.4 7.4-1.2 2.1-.5 3.1-1 3.6-1.3-.6-.1-1.8-.3-3.1-.6-.8-.1-2-.3-3.2-.4-1.7-.2-3.4-.4-4.5-.7-1.6-.4-2.6-.6-2.8-.7-.2.1-.7.3-1.1.7-.4.4-1 1.1-1.3 1.3z"/></g><g><path class="st0" d="M223.9 35.3c-.5.1-1.8.1-5.3-.1-5-.3-6.7-.7-6.7-.7s.2-.5 1.2-1.1c1-.6 4.5-2.1 4.5-2.1s.5 0 2-.1 1.9-.2 1.9-.2.1 1.3.6 2.2c.4.7 1.5 1.6 1.9 1.9 0 .1.1.2-.1.2z"/><path class="st5" d="M222.6 35.5c-.8 0-2.1 0-4-.1-4.9-.3-6.7-.7-6.7-.7s-.1 0-.1-.1v-.1s.3-.5 1.3-1.1c1-.6 4.3-2 4.5-2.1h.1s.5 0 2-.1c1.4-.1 1.8-.2 1.8-.2h.1l.1.1s.1 1.2.6 2.1c.4.7 1.4 1.5 1.8 1.9.1.1.2.2.1.3 0 .2-.2.2-.3.2-.2-.1-.6-.1-1.3-.1zm-10.4-1.1c.6.1 2.5.4 6.4.7 3.2.2 4.5.2 5.1.1-.5-.4-1.4-1.2-1.8-1.9-.4-.7-.6-1.7-.6-2-.2 0-.8.1-1.7.2-1.3.1-1.8.1-2 .1-.4.2-3.5 1.5-4.4 2.1-.5.2-.8.5-1 .7z"/></g><g><path class="st3" d="M197.8 33.6v-2.9"/><path class="st5" d="M197.4 30.7h.8v3h-.8z"/></g><g><path class="st3" d="M241.3 35.6v-3"/><path class="st5" d="M240.8 32.6h.8v3h-.8z"/></g><g><path class="st0" d="M157.9 5c-11-.6-20.2 1.7-22.2 5.2v3.1c2.1 3.6 10.9 6.6 21.6 7.2 11.2.6 20.5-1.8 22.3-5.4v-2.6c-1.7-3.7-10.8-6.9-21.7-7.5z"/><path class="st5" d="M160.6 20.9c-1.1 0-2.2 0-3.3-.1-10.3-.5-19.2-3.4-21.7-7-.1-.1-.1-.3.1-.4.1-.1.3-.1.4.1 2.4 3.5 11.1 6.2 21.2 6.7 10.3.5 19.4-1.5 21.8-4.8.1-.1.3-.2.4-.1.1.1.2.3.1.4-2.3 3.2-9.8 5.2-19 5.2z"/><path class="st3" d="M179.7 9.6c.2.4.3.8.2 1.3-.2 4.3-10.3 7.3-22.7 6.6-12.4-.6-22.3-4.6-22.1-8.9 0-.3.1-.7.2-1 1.6-3.7 11.1-6.2 22.5-5.6 11.2.5 20.3 3.8 21.9 7.6z"/><path class="st5" d="M160.5 18c-1.1 0-2.2 0-3.3-.1-12.8-.7-22.7-4.8-22.5-9.3 0-.4.1-.8.3-1.2 1.7-4 11.3-6.4 22.9-5.9 11.2.6 20.6 3.9 22.3 7.9.2.5.3 1 .3 1.5 0 1-.5 1.9-1.5 2.8-3 2.6-10.2 4.3-18.5 4.3zm-6-15.7c-9.6 0-17.4 2.2-18.8 5.4-.1.3-.2.6-.2.9-.2 4 9.8 7.9 21.7 8.5 9.5.5 17.9-1.1 21.1-4 .8-.7 1.2-1.4 1.2-2.2 0-.4-.1-.7-.2-1.1-1.5-3.7-10.8-6.8-21.5-7.4-1.1-.1-2.2-.1-3.3-.1z"/><path class="st6" d="M178.4 9.7c.2.3.2.7.2 1-.2 3.5-9.7 5.9-21.3 5.3-11.6-.6-20.8-3.9-20.7-7.4 0-.3.1-.6.2-.8 1.5-3 10.4-5 21.1-4.5 10.4.6 19 3.3 20.5 6.4z"/><path class="st7" d="M178.4 9.8c.2.3.2.7.2 1-.2 3.5-9.7 5.9-21.3 5.3-11.6-.6-20.8-3.9-20.7-7.4 0-.3.1-.6.2-.8 1.5-3 10.4-5 21.1-4.5 10.5.6 19 3.3 20.5 6.4z"/><path class="st1" d="M160.6 16.3c-1.1 0-2.2 0-3.4-.1-11.6-.6-21-3.9-20.8-7.5h.3c-.2 3.4 9 6.6 20.5 7.2 11.5.6 21-1.8 21.1-5.2v-.5l.3-.1c0 .2.1.4 0 .6 0 3.3-7.9 5.6-18 5.6z"/><path class="st8" d="M178.4 10.3c0-.2-.1-.3-.2-.5-1.4-3.1-10.2-5.8-20.3-6.3-10.4-.5-19.4 1.4-20.9 4.4-.1.3-.2.5-.2.8h-.3c0-.3.1-.6.2-.9 1.6-3.1 10.7-5.1 21.2-4.5 10.4.5 19 3.2 20.6 6.4.1.2.2.4.2.5l-.3.1z"/><path class="st9" d="M162.1 9.4l-.1 2.8c0 .7-2 1.1-4.3 1-2.4-.1-4.3-.7-4.2-1.3l.1-2.8"/><path class="st10" d="M153.5 10.1s-2-1-4.7-1.3c-2.7-.3-10.2-.5-10.2-.8-.1-.2.6-.8 1.4-1.2s1.4-.4 2.7-.3c1.3.1 3.1.5 5.7 1.2l5.2 1.4-.1 1z"/><path class="st1" d="M153.5 10.3s-.1-.1 0 0c-.1 0-2.1-1-4.7-1.3-1.2-.2-3.6-.3-5.7-.4-4.5-.2-4.6-.3-4.7-.5-.1-.4.8-1.1 1.5-1.4.8-.4 1.5-.5 2.8-.4 1.3.1 3 .5 5.7 1.2l5.2 1.4c.1 0 .1.1.1.2v1l-.2.2c0-.1 0 0 0 0zm-14.8-2.4c.5.1 2.6.2 4.4.3 2.1.1 4.4.2 5.7.4 2.1.3 3.9 1 4.5 1.2v-.6l-5-1.3c-2.8-.7-4.4-1.1-5.7-1.2-1.3-.1-1.8 0-2.6.3-.6.3-1.1.7-1.3.9z"/><path class="st10" d="M158.7 8.1l-3.7.2s-1.6-1.2-3.5-2.1c-1.5-.7-3.6-1.6-4.3-1.8-.1-.1-.1-.1.1-.1.7-.1 2.4-.3 4.3-.2 2.4.2 6.4 1.3 6.4 1.3s.2.5.5 1.3.2 1.4.2 1.4z"/><path class="st1" d="M155 8.4h-.1s-1.6-1.2-3.5-2.1c-1.5-.7-3.6-1.6-4.3-1.8-.1-.1-.2-.1-.2-.2 0-.2.2-.2.3-.2.7-.1 2.4-.3 4.3-.2 2.4.2 6.4 1.3 6.4 1.3.1 0 .1.1.1.1s.2.5.5 1.3c.2.8.3 1.5.3 1.6v.1l-.1.1H155zm-7.4-4.1c.9.4 2.6 1.1 3.9 1.7 1.7.8 3.2 1.9 3.5 2.1l3.5-.2c0-.3-.1-.8-.3-1.3-.2-.6-.4-1-.4-1.2-.6-.2-4.1-1.1-6.3-1.3-1.6-.1-3.1.1-3.9.2zm-.4 0z"/><path class="st10" d="M154.1 11.7s-1.9-.6-4.1-.2c-2.2.3-3.1 1-4.1 1.3-.7.2-1.6.3-2.1.4-.2 0-.4 0-.6-.1-.4-.1-1.2-.4-2.1-.9-1.2-.6-2.1-1.3-2.1-1.3s2.8-.2 6.5-.3c3.7-.1 8.7-.3 8.7-.3l-.1 1.4z"/><path class="st1" d="M143.7 13.3c-.2 0-.4 0-.5-.1-.4-.1-1.2-.4-2.1-.9-1.2-.6-2.1-1.3-2.1-1.3-.1 0-.1-.1-.1-.2s.1-.1.1-.1 2.8-.2 6.5-.3c3.7-.1 8.7-.3 8.7-.3h.1v1.5c0 .1 0 .1-.1.1h-.1s-1.9-.5-4.1-.2c-1.5.2-2.3.6-3.1.9-.4.2-.7.3-1 .4-.8.2-1.7.3-2.1.4l-.1.1zm-4.3-2.2c.4.3 1 .7 1.7 1 .9.4 1.7.7 2.1.9.2.1.3.1.5.1.5 0 1.4-.1 2.1-.3.3-.1.6-.2 1-.4.7-.3 1.6-.7 3.2-.9 1.8-.3 3.4 0 4 .2v-1c-.9 0-5.3.2-8.6.3-2.7-.2-5 0-6 .1z"/><path class="st10" d="M161.7 9.4l-3-1s1.9-1.1 2.9-2.2c.7-.8 1.1-1.5 1.3-1.8.1-.1.1-.2.3-.2.5 0 1.8.1 4.1.8 2.9.9 5.2 2.8 5.2 2.8s-1.5.6-3.4.9c-3.6.6-7.4.7-7.4.7z"/><path class="st1" d="M161.7 9.6s-.1-.1 0 0l-3-1c-.1 0-.1-.1-.1-.1 0-.1 0-.1.1-.2 0 0 1.9-1.1 2.8-2.2.7-.8 1.1-1.5 1.3-1.8.1-.2.2-.3.4-.3.5 0 1.9.1 4.2.8 2.9.9 5.2 2.8 5.2 2.8s.1.1.1.2 0 .1-.1.1c0 0-1.6.7-3.4.9-3.7.7-7.5.8-7.5.8zm-2.6-1.3l2.6.9c.4 0 4-.1 7.3-.6 1.3-.2 2.5-.6 3-.8-.6-.5-2.6-1.9-4.9-2.6-2.2-.7-3.6-.8-4.1-.8-.1 0-.1 0-.1.1-.1.3-.6 1-1.3 1.9-.6.7-1.9 1.6-2.5 1.9z"/><path class="st10" d="M175.4 13s-1.5.2-4.9-.3c-3.4-.5-8.6-1.7-8.6-1.7V9.3s5.8-.3 8.8-.8c2.4-.3 4-.6 4.5-.7.1 0 .3 0 .4.1.5.2 1.7 1 1.8 2.5.4 1.8-2 2.6-2 2.6z"/><path class="st1" d="M174.5 13.2c-.8 0-2.1-.1-4-.3-3.4-.5-8.6-1.7-8.6-1.7-.1 0-.1-.1-.1-.2V9.3c0-.1.1-.2.2-.2s5.8-.3 8.7-.8c2.4-.3 3.9-.6 4.5-.7.2 0 .4 0 .5.1.5.3 1.7 1 1.9 2.6.2 2-2.2 2.9-2.2 2.9h-.9zm.9-.2zm-13.2-2.1c.8.2 5.4 1.3 8.5 1.7 3.1.4 4.6.3 4.8.3.2-.1 2.1-.9 2-2.5-.2-1.4-1.3-2.1-1.7-2.3-.1 0-.2-.1-.3 0-.6.1-2.1.4-4.5.7-2.7.4-7.7.7-8.6.7l-.2 1.4z"/><path class="st10" d="M164.4 15.5s-1.3-.4-2.3-1c-1.1-.6-2.9-2-2.9-2s1-.9 1.5-1.4c.5-.5 1.2-.7 1.2-.7s1.1.3 2.9.7c1.8.4 5.6.8 7.6 1.1 1.4.3 2.6.5 3.2.6.2 0 .3.1.1.2-.4.2-1.5.7-3.8 1.3-3.2.8-7.5 1.2-7.5 1.2z"/><path class="st1" d="M164.4 15.6c-.1 0-1.3-.4-2.4-1.1-1.1-.6-2.8-1.9-2.9-2l-.1-.1c0-.1 0-.1.1-.1 0 0 1-.9 1.5-1.4.5-.5 1.2-.8 1.2-.8h.1s1.1.3 2.9.7c1.1.2 2.8.5 4.4.7 1.2.2 2.3.3 3.2.4 1.4.3 2.6.5 3.2.6.1 0 .3.1.3.2s0 .2-.2.3c-.4.3-1.5.8-3.8 1.4-3.2.9-7.5 1.2-7.5 1.2zm-5-3.2c.5.3 1.9 1.4 2.7 1.9.9.5 2.1.9 2.3 1 .4 0 4.4-.4 7.4-1.2 2.1-.5 3.1-1 3.6-1.3-.6-.1-1.8-.3-3.1-.6-.8-.1-2-.3-3.2-.4-1.7-.2-3.4-.4-4.5-.7-1.6-.4-2.6-.6-2.8-.7-.2.1-.7.3-1.1.7-.3.4-1 1.1-1.3 1.3z"/><path class="st10" d="M161.8 15.5c-.5.1-1.8.1-5.3-.1-5-.3-6.7-.7-6.7-.7s.2-.5 1.2-1.1c1-.6 4.5-2.1 4.5-2.1s.5 0 2-.1 1.9-.2 1.9-.2.1 1.3.6 2.2c.4.7 1.5 1.6 1.9 1.9.1.1.1.2-.1.2z"/><path class="st1" d="M160.5 15.7c-.8 0-2.1 0-4-.1-4.9-.3-6.7-.7-6.7-.7s-.1 0-.1-.1v-.1s.3-.5 1.3-1.1c1-.6 4.3-2 4.5-2.1h.1s.5 0 2-.1c1.4-.1 1.8-.2 1.8-.2h.1l.1.1s.1 1.2.6 2.1c.4.7 1.4 1.5 1.8 1.9.1.1.2.2.1.3 0 .2-.2.2-.3.2-.2-.1-.6-.1-1.3-.1zm1.3-.2zm-11.6-.9c.6.1 2.5.4 6.4.7 3.2.2 4.5.2 5.1.1-.5-.4-1.4-1.2-1.8-1.9-.4-.7-.6-1.7-.6-2-.2 0-.8.1-1.7.2-1.3.1-1.8.1-2 .1-.4.2-3.5 1.5-4.4 2.1-.5.2-.9.5-1 .7z"/><path class="st7" d="M162.2 9.2l-.1 2.8c0 .7-2 1.1-4.3 1-2.4-.1-4.3-.7-4.2-1.3l.1-2.8"/><path class="st0" d="M153.6 9.7s-2-1-4.7-1.3c-2.7-.3-10.2-.5-10.2-.8-.1-.2.6-.8 1.4-1.2.8-.3 1.4-.4 2.7-.3 1.3.1 3.1.5 5.7 1.2l5.2 1.4-.1 1z"/><path class="st5" d="M153.6 9.9c-.1 0-.1 0 0 0-.1 0-2.1-1-4.7-1.3-1.2-.2-3.6-.3-5.7-.4-4.5-.2-4.7-.3-4.7-.5-.1-.4.8-1.1 1.5-1.4.8-.4 1.5-.5 2.8-.4 1.3.1 3 .5 5.7 1.2l5.2 1.4c.1 0 .1.1.1.2v1l-.2.2zm-14.8-2.4c.5.1 2.6.2 4.4.3 2.1.1 4.4.2 5.7.4 2.1.3 3.9 1 4.5 1.2v-.6l-5-1.3c-2.8-.7-4.4-1.1-5.7-1.2-1.3-.1-1.8 0-2.6.3-.7.3-1.2.7-1.3.9z"/><path class="st0" d="M158.8 7.7l-3.7.2s-1.6-1.2-3.5-2.1c-1.5-.7-3.6-1.6-4.3-1.8-.1-.1-.1-.1.1-.1.7-.1 2.4-.3 4.3-.2 2.4.2 6.4 1.3 6.4 1.3s.2.5.5 1.3l.2 1.4z"/><path class="st5" d="M155.1 8h-.1s-1.6-1.2-3.5-2.1c-1.5-.7-3.6-1.6-4.3-1.8-.1-.1-.2-.2-.2-.3 0-.2.2-.2.3-.2.7-.1 2.4-.3 4.3-.2 2.4.2 6.4 1.3 6.4 1.3.1 0 .1.1.1.1s.2.5.5 1.3c.2.8.3 1.5.3 1.6v.1l-.1.1-3.7.1zm-7.4-4.1c.9.4 2.6 1.1 3.9 1.7 1.7.8 3.2 1.9 3.5 2.1l3.5-.2c0-.3-.1-.8-.3-1.3-.2-.6-.4-1-.4-1.2-.6-.2-4.1-1.1-6.3-1.3-1.6-.1-3.1.1-3.9.2zm-.4.1z"/><path class="st0" d="M154.2 11.3s-1.9-.6-4.1-.2c-2.2.3-3.1 1-4.1 1.3-.7.2-1.6.3-2.1.4-.2 0-.4 0-.6-.1-.4-.1-1.2-.4-2.1-.9-1.2-.6-2.1-1.3-2.1-1.3s2.8-.2 6.5-.3c3.7-.1 8.7-.3 8.7-.3l-.1 1.4z"/><path class="st5" d="M143.7 12.9c-.2 0-.4 0-.5-.1-.4-.1-1.2-.4-2.1-.9-1.2-.6-2.1-1.3-2.1-1.3-.1 0-.1-.1-.1-.2s.1-.1.1-.1 2.8-.2 6.5-.3c3.7-.1 8.7-.3 8.7-.3h.1v1.5c0 .1 0 .1-.1.1h-.1s-1.9-.5-4.1-.2c-1.5.2-2.3.6-3.1.9-.4.2-.7.3-1 .4-.8.2-1.7.3-2.1.4 0 .1 0 .1-.1.1zm-4.2-2.2c.4.3 1 .7 1.7 1 .9.4 1.7.7 2.1.9.2.1.3.1.5.1.5 0 1.4-.1 2.1-.3.3-.1.6-.2 1-.4.7-.3 1.6-.7 3.2-.9 1.8-.3 3.4 0 4 .2v-1c-.9 0-5.3.2-8.6.3-2.7-.2-5 0-6 .1z"/><path class="st0" d="M161.8 9l-3-1s1.9-1.1 2.9-2.2c.7-.8 1.1-1.5 1.3-1.8.1-.1.1-.2.3-.2.5 0 1.8.1 4.1.8 2.9.9 5.2 2.8 5.2 2.8s-1.5.6-3.4.9c-3.6.6-7.4.7-7.4.7z"/><path class="st5" d="M161.8 9.2c-.1 0-.1 0 0 0l-3-1c-.1 0-.1-.1-.1-.1 0-.1 0-.1.1-.2 0 0 1.9-1.1 2.8-2.2.7-.8 1.1-1.5 1.3-1.8.1-.2.2-.3.4-.3.5 0 1.9.1 4.2.8 2.9.9 5.2 2.8 5.2 2.8s.1.1.1.2 0 .1-.1.1c0 0-1.6.7-3.4.9-3.7.7-7.5.8-7.5.8zM159.2 8l2.6.9c.4 0 4-.1 7.3-.6 1.3-.2 2.5-.6 3-.8-.6-.5-2.6-1.9-4.9-2.6-2.2-.8-3.5-.9-4-.9 0 0-.1 0-.1.1-.1.3-.6 1-1.3 1.9-.8.8-2 1.6-2.6 2z"/><path class="st0" d="M175.5 12.6s-1.5.2-4.9-.3c-3.4-.5-8.6-1.7-8.6-1.7V8.9s5.8-.3 8.8-.8c2.4-.3 4-.6 4.5-.7.1 0 .3 0 .4.1.5.2 1.7 1 1.8 2.5.3 1.8-2 2.6-2 2.6z"/><path class="st5" d="M174.6 12.8c-.8 0-2.1-.1-4-.3-3.4-.5-8.6-1.7-8.6-1.7-.1 0-.1-.1-.1-.2V8.9c0-.1.1-.2.2-.2s5.8-.3 8.7-.8c2.4-.4 4.1-.6 4.5-.7.2 0 .4 0 .5.1.5.3 1.7 1 1.9 2.6.2 2-2.2 2.9-2.2 2.9h-.9zm.9-.2zm-13.3-2.1c.8.2 5.4 1.3 8.5 1.7 3.1.4 4.6.3 4.8.3.2-.1 2.1-.9 2-2.5-.2-1.4-1.3-2.1-1.7-2.3-.1 0-.2-.1-.3 0-.4.1-2.1.4-4.5.7-2.7.4-7.7.7-8.6.7l-.2 1.4z"/><ellipse transform="rotate(-87.96 157.965 9.004)" class="st7" cx="158" cy="9" rx="1.2" ry="4.3"/><path class="st1" d="M158.4 10.4h-.5c-1.2 0-2.2-.2-3.1-.5-.9-.3-1.4-.6-1.3-1.1 0-.9 2.3-1.3 4.5-1.2 1.2 0 2.2.2 3.1.5.9.3 1.4.6 1.3 1.1 0 .8-2 1.2-4 1.2zm-.9-2.4c-2.2 0-3.6.5-3.6.9 0 .2.3.5 1.1.7.8.3 1.8.4 3 .5 2.6.1 4.1-.5 4.1-.9 0-.2-.3-.5-1.1-.7-.8-.3-1.8-.4-3-.5h-.5z"/><path class="st0" d="M164.5 15.1s-1.3-.4-2.3-1c-1.1-.6-2.9-2-2.9-2s1-.9 1.5-1.4c.5-.5 1.2-.7 1.2-.7s1.1.3 2.9.7c1.8.4 5.6.8 7.6 1.1 1.4.3 2.6.5 3.2.6.2 0 .3.1.1.2-.4.2-1.5.7-3.8 1.3-3.3.8-7.5 1.2-7.5 1.2z"/><path class="st5" d="M164.5 15.2s-.1 0 0 0c-.1 0-1.3-.4-2.4-1.1-1.1-.6-2.8-1.9-2.9-2l-.1-.1c0-.1 0-.1.1-.1 0 0 1-.9 1.5-1.4.5-.5 1.2-.8 1.2-.8h.1s1.1.3 2.9.7c1 .2 2.8.5 4.4.7 1.2.2 2.3.3 3.2.4 1 .2 2.2.4 3.2.6.1 0 .3.1.3.2s0 .2-.2.3c-.4.3-1.5.8-3.8 1.4-3.2.9-7.5 1.2-7.5 1.2zm-5-3.2c.5.3 1.9 1.4 2.7 1.9.9.5 2.1.9 2.3 1 .4 0 4.4-.4 7.4-1.2 2.1-.5 3.1-1 3.6-1.3-1-.2-2.1-.4-3.1-.6-.8-.1-2-.3-3.2-.4-1.7-.2-3.4-.4-4.5-.7-1.6-.4-2.6-.6-2.8-.7-.2.1-.7.3-1.1.7-.3.5-1 1.1-1.3 1.3zm16.2.5z"/><path class="st0" d="M161.9 15.1c-.5.1-1.8.1-5.3-.1-5-.3-6.7-.7-6.7-.7s.2-.5 1.2-1.1c1-.6 4.5-2.1 4.5-2.1s.5 0 2-.1 1.9-.2 1.9-.2.1 1.3.6 2.2c.4.7 1.5 1.6 1.9 1.9.1.1.1.2-.1.2z"/><path class="st5" d="M160.6 15.3c-.8 0-2.1 0-4-.1-4.9-.3-6.7-.7-6.7-.7s-.1 0-.1-.1v-.1s.3-.5 1.3-1.1c1-.6 4.3-2 4.5-2.1h.1s.5 0 2-.1c1.4-.1 1.8-.2 1.8-.2h.1l.1.1s.1 1.2.6 2.1c.4.7 1.4 1.5 1.8 1.9.1.1.2.2.1.3 0 .2-.2.2-.3.2-.2-.1-.6-.1-1.3-.1zm1.3-.2zm-11.6-.9c.6.1 2.5.4 6.4.7 3.2.2 4.5.2 5.1.1-.5-.4-1.4-1.2-1.8-1.9-.4-.7-.6-1.7-.6-2-.2 0-.8.1-1.7.2-1.3.1-1.8.1-2 .1-.4.2-3.5 1.5-4.4 2.1-.6.2-.9.5-1 .7z"/><path class="st3" d="M135.8 13.4v-2.9"/><path class="st5" d="M135.4 10.5h.8v3h-.8z"/><path class="st3" d="M179.3 15.4v-3"/><path class="st5" d="M178.9 12.4h.8v3h-.8z"/><path class="st0" d="M157.8 25.2c-11-.6-20.2 1.7-22.2 5.2v3.1c2.1 3.6 10.9 6.6 21.6 7.2 11.2.6 20.5-1.8 22.3-5.4v-2.6c-1.7-3.7-10.7-6.9-21.7-7.5z"/><path class="st5" d="M160.6 41.1c-1.1 0-2.2 0-3.3-.1-10.3-.5-19.2-3.4-21.7-7-.1-.1-.1-.3.1-.4.1-.1.3-.1.4.1 2.4 3.5 11.1 6.2 21.2 6.7 10.3.5 19.4-1.5 21.8-4.8.1-.1.3-.2.4-.1.1.1.2.3.1.4-2.3 3.2-9.9 5.2-19 5.2z"/><path class="st3" d="M179.7 29.8c.2.4.3.8.2 1.3-.2 4.3-10.3 7.3-22.7 6.6-12.3-.7-22.2-4.7-22.1-9 0-.3.1-.7.2-1 1.6-3.7 11.1-6.2 22.5-5.6 11.2.6 20.3 3.9 21.9 7.7z"/><path class="st5" d="M160.5 38.2c-1.1 0-2.2 0-3.3-.1-12.8-.7-22.7-4.8-22.5-9.3 0-.4.1-.8.3-1.2 1.7-4 11.3-6.4 22.9-5.9 11.2.6 20.6 3.9 22.3 7.9.2.5.3 1 .3 1.5 0 1-.5 1.9-1.5 2.8-3 2.6-10.2 4.3-18.5 4.3zm-6-15.7c-9.6 0-17.4 2.2-18.8 5.4-.1.3-.2.6-.2.9-.2 4 9.8 7.9 21.7 8.5 9.4.5 17.9-1.1 21.1-4 .8-.7 1.2-1.4 1.2-2.2 0-.4-.1-.7-.2-1.1-1.5-3.7-10.8-6.8-21.5-7.4-1.1-.1-2.2-.1-3.3-.1z"/><path class="st6" d="M178.3 29.9c.2.3.2.7.2 1-.2 3.5-9.7 5.9-21.3 5.3-11.6-.6-20.8-3.9-20.7-7.4 0-.3.1-.6.2-.8 1.5-3 10.4-5 21.1-4.5 10.5.6 19.1 3.3 20.5 6.4z"/><path class="st7" d="M178.4 30c.2.3.2.7.2 1-.2 3.5-9.7 5.9-21.3 5.3-11.6-.6-20.8-3.9-20.7-7.4 0-.3.1-.6.2-.8 1.5-3 10.4-5 21.1-4.5 10.5.6 19 3.3 20.5 6.4z"/><path class="st1" d="M160.6 36.5c-1.1 0-2.2 0-3.4-.1-11.6-.6-21-3.9-20.8-7.5h.3c-.2 3.4 9 6.6 20.5 7.2 11.5.6 21-1.8 21.1-5.2v-.5l.3-.1c0 .2.1.4 0 .6-.1 3.3-7.9 5.6-18 5.6z"/><path class="st8" d="M178.4 30.5c0-.2-.1-.3-.2-.5-1.5-3.1-10.2-5.7-20.3-6.2-10.4-.5-19.4 1.4-20.9 4.4-.1.3-.2.5-.2.8h-.3c0-.3.1-.6.2-.9 1.6-3.1 10.7-5.1 21.2-4.5 10.4.5 19 3.2 20.6 6.4.1.2.2.4.2.5h-.3z"/><path class="st9" d="M162 29.6l-.1 2.8c0 .7-2 1.1-4.3 1-2.4-.1-4.3-.7-4.2-1.3l.1-2.8"/><path class="st10" d="M153.5 30.3s-2-1-4.7-1.3c-2.7-.3-10.2-.5-10.2-.8s.6-.8 1.4-1.2c.8-.3 1.4-.4 2.7-.3 1.3.1 3.1.5 5.7 1.2l5.2 1.4-.1 1z"/><path class="st1" d="M153.5 30.4c-.1 0-.1 0 0 0-.1 0-2.1-1-4.7-1.3-1.2-.2-3.6-.3-5.7-.4-4.5-.2-4.6-.3-4.7-.5-.1-.4.8-1.1 1.5-1.4.8-.4 1.5-.5 2.8-.4 1.3.1 3 .5 5.7 1.2l5.2 1.4c.1 0 .1.1.1.2v1c-.1.1-.1.2-.2.2zm-14.8-2.3c.5.1 2.6.2 4.4.3 2.1.1 4.4.2 5.7.4 2.1.3 3.9 1 4.5 1.2v-.6l-5-1.3c-2.8-.7-4.4-1.1-5.7-1.2-1.3-.1-1.8 0-2.6.3-.7.2-1.2.7-1.3.9z"/><path class="st10" d="M158.7 28.3l-3.7.2s-1.6-1.2-3.5-2.1c-1.5-.7-3.6-1.6-4.3-1.8-.1-.1-.1-.1.1-.1.7-.1 2.4-.3 4.3-.2 2.4.2 6.4 1.3 6.4 1.3s.2.5.5 1.3.2 1.4.2 1.4z"/><path class="st1" d="M154.9 28.6h-.1s-1.6-1.2-3.5-2.1c-1.5-.7-3.6-1.6-4.3-1.8-.1-.1-.2-.1-.2-.2 0-.2.2-.2.3-.2.7-.1 2.4-.3 4.3-.2 2.4.2 6.4 1.3 6.4 1.3.1 0 .1.1.1.1s.2.5.5 1.3c.2.8.3 1.5.3 1.6v.1l-.1.1h-3.7c.1 0 .1 0 0 0zm-7.3-4.1c.9.4 2.6 1.1 3.9 1.7 1.7.8 3.2 1.9 3.5 2.1l3.5-.2c0-.3-.1-.8-.3-1.3-.2-.6-.4-1-.4-1.2-.6-.2-4.1-1.1-6.3-1.3-1.6-.1-3.1.1-3.9.2z"/><path class="st10" d="M154.1 31.9s-1.9-.6-4.1-.2c-2.2.3-3.1 1-4.1 1.3-.7.2-1.6.3-2.1.4-.2 0-.4 0-.6-.1-.4-.1-1.2-.4-2.1-.9-1.2-.6-2.1-1.3-2.1-1.3s2.8-.2 6.5-.3c3.7-.1 8.7-.3 8.7-.3l-.1 1.4z"/><path class="st1" d="M143.6 33.5c-.2 0-.4 0-.5-.1-.4-.1-1.2-.4-2.1-.9-1.2-.6-2.1-1.3-2.1-1.3-.1 0-.1-.1-.1-.2s.1-.1.1-.1 2.8-.2 6.5-.3c3.7-.1 8.7-.3 8.7-.3h.1v1.5c0 .1 0 .1-.1.1h-.1s-1.9-.5-4.1-.2c-1.5.2-2.3.6-3.1.9-.4.2-.7.3-1 .4-.8.2-1.7.3-2.1.4 0 .1 0 .1-.1.1zm-4.2-2.3c.4.3 1 .7 1.7 1 .9.4 1.7.7 2.1.9.2.1.4.1.5.1.5 0 1.4-.1 2.1-.3.3-.1.6-.2 1-.4.7-.3 1.7-.7 3.2-.9 1.8-.3 3.4 0 4 .2v-1c-.9 0-5.3.2-8.6.3-2.8-.1-5.1.1-6 .1z"/><path class="st10" d="M161.6 29.6l-3-1s1.9-1.1 2.9-2.2c.7-.8 1.1-1.5 1.3-1.8.1-.1.1-.2.3-.2.5 0 1.8.1 4.1.8 2.9.9 5.2 2.8 5.2 2.8s-1.5.6-3.4.9c-3.5.6-7.4.7-7.4.7z"/><path class="st1" d="M161.6 29.7l-3-1c-.1 0-.1-.1-.1-.1 0-.1 0-.1.1-.2 0 0 1.9-1.1 2.8-2.2.7-.8 1.1-1.5 1.3-1.8.1-.2.3-.2.4-.3.5 0 1.9.1 4.2.8 2.9.9 5.2 2.8 5.2 2.8s.1.1.1.2 0 .1-.1.1c0 0-1.6.7-3.4.9-3.6.8-7.4.8-7.5.8zm-2.5-1.2l2.6.9c.4 0 4-.1 7.3-.6 1.3-.2 2.5-.6 3-.8-.6-.5-2.6-1.9-4.9-2.6-2.3-.7-3.6-.8-4.1-.8-.1 0-.1 0-.1.1-.1.3-.6 1-1.3 1.9-.7.7-2 1.6-2.5 1.9z"/><path class="st10" d="M175.4 33.2s-1.5.2-4.9-.3c-3.4-.5-8.6-1.7-8.6-1.7v-1.7s5.8-.3 8.8-.8c2.4-.3 4-.6 4.5-.7.1 0 .3 0 .4.1.5.2 1.7 1 1.8 2.5.3 1.8-2 2.6-2 2.6z"/><path class="st1" d="M174.5 33.4c-.8 0-2.1-.1-4-.3-3.4-.5-8.6-1.7-8.6-1.7-.1 0-.1-.1-.1-.2v-1.7c0-.1.1-.2.2-.2s5.8-.3 8.7-.8c2.4-.3 3.9-.6 4.5-.7.2 0 .4 0 .5.1.5.3 1.7 1 1.9 2.6.2 2-2.2 2.9-2.2 2.9h-.9zm.9-.2zm-13.3-2.1c.8.2 5.4 1.3 8.5 1.7 3.1.4 4.6.3 4.8.3.2-.1 2.1-.9 2-2.5-.2-1.4-1.3-2.1-1.7-2.3-.1 0-.2-.1-.3 0-.6.1-2.2.4-4.5.7-2.7.4-7.7.7-8.6.7l-.2 1.4z"/><path class="st10" d="M164.4 35.7s-1.3-.4-2.3-1-2.9-2-2.9-2 1-.9 1.5-1.4c.5-.5 1.2-.7 1.2-.7s1.1.3 2.9.7c1.8.4 5.6.8 7.6 1.1 1.4.3 2.6.5 3.2.6.2 0 .3.1.1.2-.4.2-1.5.7-3.8 1.3-3.3.8-7.5 1.2-7.5 1.2z"/><path class="st1" d="M164.4 35.8c-.1 0-.1 0 0 0-.1 0-1.3-.4-2.4-1.1-1.1-.6-2.8-1.9-2.9-2l-.1-.1c0-.1 0-.1.1-.1 0 0 1-.9 1.5-1.4.5-.5 1.2-.8 1.2-.8h.1s1.1.3 2.9.7c1 .2 2.8.5 4.4.7 1.2.2 2.3.3 3.2.4 1.4.3 2.6.5 3.2.6.1 0 .3.1.3.2s0 .2-.2.3c-.4.3-1.5.8-3.8 1.4-3.2.9-7.5 1.2-7.5 1.2zm-5-3.2c.5.3 1.9 1.4 2.7 1.9.9.5 2.1.9 2.3 1 .4 0 4.4-.4 7.4-1.2 2.1-.5 3.1-1 3.6-1.3-.6-.1-1.8-.3-3.1-.6-.8-.1-2-.3-3.2-.4-1.7-.2-3.4-.4-4.5-.7-1.6-.4-2.6-.6-2.8-.7-.2.1-.7.3-1.1.7-.3.4-1 1.1-1.3 1.3zm16.2.5z"/><path class="st10" d="M161.8 35.7c-.5.1-1.8.1-5.3-.1-5-.3-6.7-.7-6.7-.7s.2-.5 1.2-1.1c1-.6 4.5-2.1 4.5-2.1s.5 0 2-.1 1.9-.2 1.9-.2.1 1.3.6 2.2c.4.7 1.5 1.6 1.9 1.9.1.1.1.2-.1.2z"/><path class="st1" d="M160.5 35.9c-.8 0-2.1 0-4-.1-4.9-.3-6.7-.7-6.7-.7s-.1 0-.1-.1v-.1s.3-.5 1.3-1.1c1-.6 4.3-2 4.5-2.1h.1s.5 0 2-.1c1.4-.1 1.8-.2 1.8-.2h.1l.1.1s.1 1.2.6 2.1c.4.7 1.4 1.5 1.8 1.9.1.1.2.2.1.3 0 .2-.2.2-.3.2-.2-.1-.6-.1-1.3-.1zm-10.3-1.1c.6.1 2.5.4 6.4.7 3.2.2 4.5.2 5.1.1-.5-.4-1.4-1.2-1.8-1.9-.4-.7-.6-1.7-.6-2-.2 0-.8.1-1.7.2-1.3.1-1.8.1-2 .1-.4.2-3.5 1.5-4.4 2.1-.6.2-.9.5-1 .7z"/><path class="st7" d="M162.2 29.4l-.1 2.8c0 .7-2 1.1-4.3 1-2.4-.1-4.3-.7-4.2-1.3l.1-2.8"/><path class="st0" d="M153.5 29.9s-2-1-4.7-1.3c-2.7-.3-10.2-.5-10.2-.8-.1-.2.6-.8 1.4-1.2.8-.3 1.4-.4 2.7-.3s3.1.5 5.7 1.2l5.2 1.4-.1 1z"/><path class="st5" d="M153.5 30.1c-.1 0-2.1-1-4.7-1.3-1.2-.2-3.6-.3-5.7-.4-4.5-.2-4.7-.3-4.7-.5-.1-.4.8-1.1 1.5-1.4.8-.4 1.5-.5 2.8-.4 1.3.1 3 .5 5.7 1.2l5.2 1.4c.1 0 .1.1.1.2v1c0 .1 0 .1-.2.2.1 0 .1 0 0 0zm-14.7-2.4c.5.1 2.6.2 4.4.3 2.1.1 4.4.2 5.7.4 2.1.3 3.9 1 4.5 1.2V29l-5-1.3c-2.8-.7-4.4-1.1-5.7-1.2-1.3-.1-1.8 0-2.6.3-.7.3-1.2.7-1.3.9z"/><path class="st0" d="M158.8 27.9l-3.7.2s-1.6-1.2-3.5-2.1c-1.5-.7-3.6-1.6-4.3-1.8-.1-.1-.1-.1.1-.1.7-.1 2.4-.3 4.3-.2 2.4.2 6.4 1.3 6.4 1.3s.2.5.5 1.3.2 1.4.2 1.4z"/><path class="st5" d="M155 28.2h-.1s-1.6-1.2-3.5-2.1c-1.5-.7-3.5-1.5-4.3-1.8-.1-.1-.2-.1-.2-.2 0-.2.2-.2.3-.2.7-.1 2.4-.3 4.3-.2 2.4.2 6.4 1.3 6.4 1.3.1 0 .1.1.1.1s.2.5.5 1.3c.2.8.3 1.5.3 1.6v.1l-.1.1H155zm-7.3-4.1c1 .4 2.7 1.1 3.9 1.7 1.7.8 3.2 1.9 3.5 2.1l3.5-.2c0-.3-.1-.8-.3-1.3-.2-.6-.4-1-.4-1.2-.6-.2-4.1-1.1-6.3-1.3-1.6-.1-3.1.1-3.9.2z"/><path class="st0" d="M154.2 31.5s-1.9-.6-4.1-.2c-2.2.3-3.1 1-4.1 1.3-.7.2-1.6.3-2.1.4-.2 0-.4 0-.6-.1-.4-.1-1.2-.4-2.1-.9-1.2-.6-2.1-1.3-2.1-1.3s2.8-.2 6.5-.3c3.7-.1 8.7-.3 8.7-.3l-.1 1.4z"/><path class="st5" d="M143.7 33.1c-.2 0-.4 0-.5-.1-.4-.1-1.3-.5-2.1-.9-1.2-.6-2.1-1.3-2.1-1.3-.1 0-.1-.1-.1-.2s.1-.1.1-.1 2.8-.2 6.5-.3c3.7-.1 8.7-.3 8.7-.3h.1v1.5c0 .1 0 .1-.1.1h-.1s-1.9-.5-4.1-.2c-1.5.2-2.3.6-3.1.9-.4.2-.7.3-1 .4-.8.2-1.7.3-2.1.4 0 .1 0 .1-.1.1zm-4.2-2.2c.4.3 1 .7 1.7 1 .8.4 1.7.7 2.1.9.2.1.3.1.5.1.5 0 1.4-.1 2.1-.3.3-.1.6-.2 1-.4.7-.3 1.6-.7 3.2-.9 1.8-.3 3.4 0 4 .2v-1c-.9 0-5.3.2-8.6.3-2.8-.2-5.1 0-6 .1z"/><g><path class="st0" d="M161.7 29.2l-3-1s1.9-1.1 2.9-2.2c.7-.8 1.1-1.5 1.3-1.8.1-.1.1-.2.3-.2.5 0 1.8.1 4.1.8 2.9.9 5.2 2.8 5.2 2.8s-1.5.6-3.4.9c-3.5.6-7.4.7-7.4.7z"/><path class="st5" d="M161.7 29.4l-3-1c-.1 0-.1-.1-.1-.1 0-.1 0-.1.1-.2 0 0 1.9-1.1 2.8-2.2.7-.8 1.1-1.5 1.3-1.8.1-.2.2-.2.4-.3.5 0 1.9.1 4.1.8 2.9.9 5.2 2.8 5.2 2.8s.1.1.1.2 0 .1-.1.1c0 0-1.6.7-3.4.9-3.5.7-7.3.8-7.4.8zm-2.6-1.2l2.6.9c.4 0 4-.1 7.3-.6 1.3-.2 2.5-.6 3-.8-.6-.5-2.6-1.9-4.9-2.6-2.2-.7-3.6-.8-4.1-.8-.1 0-.1 0-.1.1-.1.3-.6 1-1.3 1.9-.6.7-1.9 1.5-2.5 1.9z"/></g><g><path class="st0" d="M175.5 32.8s-1.5.2-4.9-.3c-3.4-.5-8.6-1.7-8.6-1.7v-1.7s5.8-.3 8.8-.8c2.4-.3 4-.6 4.5-.7.1 0 .3 0 .4.1.5.2 1.7 1 1.8 2.5.3 1.8-2 2.6-2 2.6z"/><path class="st5" d="M174.6 33c-.8 0-2.1-.1-3.9-.3-3.4-.5-8.6-1.7-8.6-1.7-.1 0-.1-.1-.1-.2v-1.7c0-.1.1-.2.2-.2s5.8-.3 8.7-.8c2.4-.3 3.9-.6 4.5-.7.2 0 .4 0 .5.1.5.3 1.7 1 1.9 2.6.2 2-2.2 2.9-2.2 2.9h-1zm.9-.2zm-13.3-2.1c.8.2 5.4 1.3 8.5 1.7 3.1.4 4.6.3 4.8.3.2-.1 2.1-.9 2-2.5-.2-1.4-1.3-2.1-1.7-2.3-.1 0-.2-.1-.3 0-.6.1-2.1.4-4.5.7-2.7.4-7.7.7-8.6.7l-.2 1.4z"/></g><ellipse transform="rotate(-87.96 157.944 29.197)" class="st7" cx="157.9" cy="29.2" rx="1.2" ry="4.3"/><path class="st1" d="M158.4 30.6h-.5c-1.2 0-2.2-.2-3.1-.5-.9-.3-1.4-.6-1.3-1.1 0-.9 2.3-1.3 4.5-1.2 1.2 0 2.2.2 3.1.5.9.3 1.4.6 1.3 1.1 0 .8-2 1.2-4 1.2zm-1-2.4c-2.2 0-3.6.5-3.6.9 0 .2.3.5 1.1.7.8.3 1.8.4 3 .4 2.5.1 4.1-.5 4.1-.9 0-.2-.3-.5-1.1-.7-.8-.3-1.8-.4-3-.4h-.5z"/><g><path class="st0" d="M164.5 35.3s-1.3-.4-2.3-1c-1.1-.6-2.9-2-2.9-2s1-.9 1.5-1.4c.5-.5 1.2-.7 1.2-.7s1.1.3 2.9.7 5.6.8 7.6 1.1c1.4.3 2.6.5 3.2.6.2 0 .3.1.1.2-.4.2-1.5.7-3.8 1.3-3.3.8-7.5 1.2-7.5 1.2z"/><path class="st5" d="M164.5 35.4c-.1 0-.1 0 0 0-.1 0-1.3-.4-2.4-1.1-1.1-.6-2.8-1.9-2.9-2l-.1-.1c0-.1 0-.1.1-.1 0 0 1-.9 1.5-1.4.5-.5 1.2-.8 1.2-.8h.1s1.1.3 2.9.7c1 .2 2.8.5 4.4.7 1.2.2 2.3.3 3.2.4 1.4.3 2.6.5 3.2.6.1 0 .3.1.3.2s0 .2-.2.3c-.4.3-1.5.8-3.8 1.4-3.2.9-7.5 1.2-7.5 1.2zm-5-3.2c.5.3 1.9 1.4 2.7 1.9.9.5 2.1.9 2.3 1 .4 0 4.4-.4 7.4-1.2 2.1-.5 3.1-1 3.6-1.3-.6-.1-1.8-.3-3.1-.6-.8-.1-2-.3-3.2-.4-1.7-.2-3.4-.4-4.5-.7-1.6-.4-2.6-.6-2.8-.7-.2.1-.7.3-1.1.7-.3.4-1 1.1-1.3 1.3zm16.2.4z"/></g><g><path class="st0" d="M161.9 35.3c-.5.1-1.8.1-5.3-.1-5-.3-6.7-.7-6.7-.7s.2-.5 1.2-1.1c1-.6 4.5-2.1 4.5-2.1s.5 0 2-.1 1.9-.2 1.9-.2.1 1.3.6 2.2c.4.7 1.5 1.6 1.9 1.9.1.1.1.2-.1.2z"/><path class="st5" d="M160.6 35.5c-.8 0-2.1 0-4-.1-4.9-.3-6.7-.7-6.7-.7s-.1 0-.1-.1v-.1s.3-.5 1.3-1.1c1-.6 4.3-2 4.5-2.1h.1s.5 0 2-.1c1.4-.1 1.8-.2 1.8-.2h.1l.1.1s.1 1.2.6 2.1c.4.7 1.4 1.5 1.8 1.9.1.1.2.2.1.3 0 .2-.2.2-.3.2-.2-.1-.6-.1-1.3-.1zm-10.3-1.1c.6.1 2.5.4 6.4.7 3.2.2 4.5.2 5.1.1-.6-.5-1.4-1.2-1.8-1.9-.4-.7-.6-1.7-.6-2-.2 0-.8.1-1.7.2-1.3.1-1.8.1-2 .1-.4.2-3.5 1.5-4.4 2.1-.6.2-.9.5-1 .7z"/></g><g><path class="st3" d="M135.8 33.6v-2.9"/><path class="st5" d="M135.4 30.7h.8v3h-.8z"/></g><g><path class="st3" d="M179.3 35.6v-3"/><path class="st5" d="M178.9 32.6h.8v3h-.8z"/></g></g><g><path class="st11" d="M73 143.9h47.4v33.6H73z"/><path class="st0" d="M71.9 142.3h47.4v33.6H71.9z"/><path class="st12" d="M119.6 176.2h-48V142h48v34.2zm-47.4-.6H119v-33H72.2v33z"/><path transform="rotate(90 95.6 163.483)" class="st3" d="M94.8 156.7h1.7v13.6h-1.7z"/></g><g><path class="st11" d="M244.9 143.9h47.4v33.6h-47.4z"/><path class="st0" d="M243.8 142.3h47.4v33.6h-47.4z"/><path class="st12" d="M291.5 176.2h-48V142h48v34.2zm-47.4-.6h46.7v-33h-46.7v33z"/><path transform="rotate(90 267.493 163.483)" class="st3" d="M266.7 156.7h1.7v13.6h-1.7z"/></g><g><path class="st11" d="M187.6 143.9H235v33.6h-47.4z"/><path class="st0" d="M186.5 142.3h47.4v33.6h-47.4z"/><path class="st12" d="M234.2 176.2h-48V142h48v34.2zm-47.4-.6h46.7v-33h-46.7v33z"/><path transform="rotate(90 210.195 163.483)" class="st3" d="M209.4 156.7h1.7v13.6h-1.7z"/></g><g><path class="st11" d="M130.3 143.9h47.4v33.6h-47.4z"/><path class="st0" d="M129.2 142.3h47.4v33.6h-47.4z"/><path class="st12" d="M176.9 176.2h-48V142h48v34.2zm-47.4-.6h46.7v-33h-46.7v33z"/><path transform="rotate(90 152.898 163.483)" class="st3" d="M152.1 156.7h1.7v13.6h-1.7z"/></g><g><path fill="#aaa" d="M72.5 56.8h217.2v76.3H72.5z"/><path class="st1" d="M290 133.4H72.2V56.5H290v76.9zm-217.2-.6h216.5V57.1H72.8v75.7z"/><path class="st0" d="M289.7 57.1H72.5v4.7h3.4l23.2 71.5h17.6l23.2-71.5h8.2l23.2 71.5h17.6l23.2-71.5h8.2l23.2 71.5h17.6l23.2-71.5h5.4z"/><path class="st12" d="M261.3 133.6h-18.1l-.1-.2L220 62.1h-7.8L189 133.6h-18l-.1-.2-23.1-71.3H140l-23 71.5H98.9L75.7 62.1h-3.5v-5.3H290v5.3h-5.5l-23.2 71.5zm-17.6-.6h17.2L284 61.5h5.3v-4H72.8v4h3.4l.1.2 23 71.3h17.2l23.2-71.5h8.7l.1.2 23.1 71.3h17.2L212 61.5h8.7l.1.2 22.9 71.3z"/><path class="st1" d="M116.7 133h54.6l-40.8-41.9zm72.4 0h54.5l-40.8-41.9zm72 0h27.8l-21.4-22zm-188.6.1l25.9-.1-25.9-27.2z"/></g><g><ellipse class="st0" cx="270.7" cy="160.7" rx="22.8" ry="22.6"/><path class="st1" d="M270.7 183.6c-12.7 0-23.1-10.3-23.1-22.9s10.4-22.9 23.1-22.9 23.1 10.3 23.1 22.9-10.4 22.9-23.1 22.9zm0-45.2c-12.4 0-22.5 10-22.5 22.3s10.1 22.3 22.5 22.3 22.5-10 22.5-22.3-10.1-22.3-22.5-22.3z"/></g><g><path fill="#295ba9" d="M271.2 158.5l9.3 3.2-17.7 15.3 6.9-12.6-8.9-3.3 16.6-16.7z"/><path class="st15" d="M261.7 178.4l7.6-13.9-9-3.3 18.1-18.2-6.8 15.4 9.5 3.3-19.4 16.7zm-.3-17.4l8.8 3.3-6.3 11.4 16-13.8-9.1-3.1 5.7-12.9-15.1 15.1z"/></g><path class="st7" d="M65.6 47.6L18.5 1.7l-1.3.8v140.1l42.6 41.1 5.7 4.3.1-140.4z"/><g opacity=".2"><path fill="#212333" d="M17.2 12.6l1.3 1.3 47.1 45.8v-9.2L18.5 4.6l-1.3.8"/></g><g><path class="st18" d="M17.2 10.3l1.3 1.2 47.1 45.9v-9.2L18.5 2.3l-1.3.8"/></g><g><path class="st7" d="M17.2 9.2l1.3 1.3 47.1 45.9v-9.3L18.5 1.2l-1.3.8"/></g><path class="st15" d="M297.7 47.1H65.6L19.2 1.2l-.6.4L65.1 48v139.7l.9.5V48h232.2z"/><path class="st11" d="M65.6 52.2h232.6v7.6H65.6z"/><path class="st18" d="M65.6 50.1h232.6v7.6H65.6z"/><path class="st0" d="M65.6 47.7h232.6v8.7H65.6z"/><path class="st1" d="M293.7 190.1H70.4l-5-1.8s-.1 0-.1-.1l-5.7-4.3-3.2-3.1c-.1 0-.2-.1-.3-.3l-39.2-37.8c-.1-.1-.1-.2-.1-.3V2.5c0-.1.1-.3.2-.4l3.2-2c.1-.1.2-.1.2-.1h226.9l2.4.6c.1 0 .1.1.2.1l48.5 46.5c.1.1.1.2.1.3v5.6l.4 133c0 .1-.1.3-.2.3l-4.9 3.6c.1.1 0 .1-.1.1zm-223.2-.8h223l4.6-3.3-.4-132.8v-5.4L249.4 1.4l-2.2-.6H20.6l-2.9 1.9v139.7l39.2 37.8 3.3 3.1 5.6 4.2 4.7 1.8z"/><g><path class="st0" d="M33.1 121.6c-1.4 0-2.6 1.1-3.6 3H.5v17.5h29.1c1 1.8 2.2 3 3.6 3 3 0 5.4-5.2 5.4-11.7 0-6.5-2.5-11.8-5.5-11.8z"/><path class="st1" d="M33.1 145.5c-1.4 0-2.8-1-3.8-3H.4c-.2 0-.5-.2-.5-.5v-17.5c0-.2.2-.5.5-.5h28.8c1.1-1.9 2.4-3 3.8-3 3.3 0 5.9 5.3 5.9 12.2s-2.5 12.3-5.8 12.3zM.9 141.6h28.7c.2 0 .3.1.4.2.9 1.8 2 2.7 3.2 2.7 2.7 0 5-5.2 5-11.3s-2.3-11.3-5-11.3c-1.1 0-2.3 1-3.2 2.7-.1.1-.2.2-.4.2H.9v16.8z"/><ellipse class="st2" cx="33.2" cy="133.2" rx="4.8" ry="10.6"/></g></g></switch></svg>