<svg version="1.1" id="图层_1" xmlns="http://www.w3.org/2000/svg" x="0" y="0" width="328" height="190.1" xml:space="preserve"><style>.st0{fill:#d6d7d7}.st1{fill:#747577}.st2{fill:#c4c4c4}.st3{fill:#bababa}.st5{fill:#7b7c7c}.st6{fill:#738b8c}.st7{fill:#b2b2b2}.st8{fill:#eaeaea}.st9{fill:#a8a7a5}.st10{fill:#e8e8e8}.st11{opacity:.2;fill:#212333}.st12{fill:#959596}.st14{fill:#fff}.st17{fill:#757671}</style><switch><g><path class="st0" d="M322.1 121.6c-1.4 0-2.6 1.1-3.6 3h-29.1v17.5h29.1c1 1.8 2.2 3 3.6 3 3 0 5.4-5.2 5.4-11.7 0-6.5-2.4-11.8-5.4-11.8z"/><path class="st1" d="M322.1 145.5c-1.4 0-2.8-1-3.8-3h-28.8c-.2 0-.5-.2-.5-.5v-17.5c0-.2.2-.5.5-.5h28.8c1.1-1.9 2.4-3 3.8-3 3.3 0 5.9 5.3 5.9 12.2s-2.6 12.3-5.9 12.3zm-32.2-3.9h28.7c.2 0 .3.1.4.2.9 1.8 2 2.7 3.2 2.7 2.7 0 5-5.2 5-11.3s-2.3-11.3-5-11.3c-1.1 0-2.3 1-3.2 2.7-.1.1-.2.2-.4.2h-28.7v16.8z"/><ellipse class="st2" cx="322.1" cy="133.2" rx="4.8" ry="10.6"/><path class="st0" d="M295.8 186.2l-4.9 3.5H67.6l-5-1.8.1-140.3h232.6v5.6z"/><path class="st3" d="M295.3 47.6H62.4L15.2 2 17.6.4h226.7l2.5.6z"/><radialGradient id="SVGID_1_" cx="260.368" cy="16.687" r="21.316" gradientTransform="matrix(1 0 0 .9906 0 7.732)" gradientUnits="userSpaceOnUse"><stop offset="0" stop-color="#898784"/><stop offset="1" stop-color="#898784" stop-opacity="0"/></radialGradient><path fill="url(#SVGID_1_)" d="M281.5 43.4l-2.1 2.1-40.2-40.4 2.2-2.1z"/><path class="st1" d="M69.2 43.7L28.8 3.1l.7-.6 40.3 40.6zm212.1 0L241 3.1l.6-.6L282 43.1z"/><path class="st1" d="M69.5 43h212.1v.9H69.5z"/><path class="st0" d="M93 5c-11-.6-20.2 1.7-22.2 5.2v3.1c2.1 3.6 10.9 6.6 21.6 7.2 11.2.6 20.5-1.8 22.3-5.4v-2.6C113 8.8 104 5.6 93 5z"/><path class="st5" d="M95.8 20.9c-1.1 0-2.2 0-3.3-.1-10.3-.5-19.2-3.4-21.7-7-.1-.1-.1-.3.1-.4.1-.1.3-.1.4.1 2.4 3.5 11.1 6.2 21.2 6.7 10.3.5 19.4-1.5 21.8-4.8.1-.1.3-.2.4-.1.1.1.2.3.1.4-2.3 3.2-9.8 5.2-19 5.2z"/><path class="st3" d="M114.9 9.6c.2.4.3.8.2 1.3-.2 4.3-10.3 7.3-22.7 6.6-12.4-.6-22.3-4.6-22.1-8.9 0-.3.1-.7.2-1C72.2 3.8 81.7 1.4 93 1.9c11.2.6 20.3 3.9 21.9 7.7z"/><path class="st5" d="M95.7 18c-1.1 0-2.2 0-3.3-.1-12.8-.7-22.7-4.8-22.5-9.3 0-.4.1-.8.3-1.2 1.7-4 11.3-6.4 22.9-5.9 11.2.6 20.6 3.9 22.3 7.9.2.5.3 1 .3 1.5 0 1-.5 1.9-1.5 2.8-3 2.6-10.2 4.3-18.5 4.3zm-6-15.7c-9.6 0-17.4 2.2-18.8 5.4-.1.3-.2.6-.2.9-.2 4 9.8 7.9 21.7 8.5 9.4.5 17.9-1.1 21.1-4 .8-.7 1.2-1.4 1.2-2.2 0-.4-.1-.7-.2-1.1C113 6.1 103.7 2.9 93 2.4c-1.1-.1-2.2-.1-3.3-.1z"/><path class="st6" d="M113.5 9.7c.2.3.2.7.2 1-.2 3.5-9.7 5.9-21.3 5.3-11.6-.6-20.8-3.9-20.7-7.4 0-.3.1-.6.2-.8 1.5-3 10.4-5 21.1-4.5 10.5.6 19.1 3.3 20.5 6.4z"/><path class="st7" d="M113.6 9.8c.2.3.2.7.2 1-.2 3.5-9.7 5.9-21.3 5.3-11.6-.6-20.8-3.9-20.7-7.4 0-.3.1-.6.2-.8 1.5-3 10.4-5 21.1-4.5 10.5.6 19 3.3 20.5 6.4z"/><path class="st1" d="M95.8 16.3c-1.1 0-2.2 0-3.4-.1-11.6-.6-21-3.9-20.8-7.5h.3c-.2 3.4 9 6.6 20.5 7.2 11.5.6 21-1.8 21.1-5.2v-.5l.3-.1c0 .2.1.4 0 .6-.1 3.3-7.9 5.6-18 5.6z"/><path class="st8" d="M113.6 10.3c0-.2-.1-.3-.2-.5C112 6.7 103.2 4 93.1 3.5 82.7 3 73.7 4.9 72.2 7.9c-.2.3-.2.5-.2.8h-.3c0-.3.1-.6.2-.9 1.6-3.1 10.7-5.1 21.2-4.5 10.4.5 19 3.2 20.6 6.4.1.2.2.4.2.5l-.3.1z"/><path class="st9" d="M97.2 9.4l-.1 2.8c0 .7-2 1.1-4.3 1-2.4-.1-4.3-.7-4.2-1.3l.1-2.8"/><path class="st10" d="M88.7 10.1s-2-1-4.7-1.3c-2.7-.4-10.2-.6-10.3-.8-.1-.2.6-.8 1.4-1.2.8-.3 1.4-.4 2.7-.3 1.3.1 3.1.5 5.7 1.2l5.2 1.4v1z"/><path class="st1" d="M88.7 10.3c-.1 0-.1-.1 0 0-.1 0-2.1-1-4.7-1.3-1.2-.2-3.6-.3-5.7-.4-4.5-.2-4.6-.3-4.7-.5-.1-.4.8-1.1 1.5-1.4.8-.4 1.5-.5 2.8-.4 1.3.1 2.9.5 5.7 1.2l5.2 1.4c.1 0 .1.1.1.2v1l-.2.2c0-.1 0 0 0 0zM73.9 7.9c.5.1 2.6.2 4.4.3 2.1.1 4.4.2 5.7.4 2.1.3 3.9 1 4.5 1.2v-.6l-5-1.3c-2.8-.7-4.4-1.1-5.7-1.2-1.3-.1-1.8 0-2.6.3-.7.3-1.2.7-1.3.9z"/><path class="st10" d="M93.9 8.1l-3.7.2s-1.6-1.2-3.5-2.1c-1.5-.7-3.6-1.6-4.3-1.8-.1-.1-.1-.1.1-.1.7-.1 2.4-.3 4.3-.2 2.4.2 6.4 1.3 6.4 1.3s.2.5.5 1.3c.1.6.2 1.4.2 1.4z"/><path class="st1" d="M90.2 8.4h-.1s-1.6-1.2-3.5-2.1c-1.5-.7-3.5-1.5-4.3-1.8-.1-.1-.2-.1-.2-.2.1-.3.3-.3.3-.3.7-.1 2.4-.3 4.3-.2 2.4.2 6.4 1.3 6.4 1.3.1 0 .1.1.1.1s.2.5.5 1.3.3 1.5.3 1.6v.1l-.1.1-3.7.1zm-7.4-4.1c1 .4 2.7 1.1 3.9 1.7 1.7.8 3.2 1.9 3.5 2.1l3.5-.2c0-.3-.1-.8-.3-1.3-.2-.6-.4-1-.4-1.2-.6-.2-4.1-1.1-6.3-1.3-1.6-.1-3.1.1-3.9.2z"/><path class="st10" d="M89.3 11.7s-1.9-.6-4.1-.2c-2.2.3-3.1 1-4.1 1.3-.7.2-1.6.3-2.1.4-.2 0-.4 0-.6-.1-.4-.1-1.2-.4-2.1-.9-1.2-.6-2.1-1.3-2.1-1.3s2.8-.2 6.5-.3c3.7-.1 8.7-.3 8.7-.3l-.1 1.4z"/><path class="st1" d="M78.8 13.3c-.2 0-.4 0-.5-.1-.4-.1-1.3-.5-2.1-.9-1.2-.6-2.1-1.3-2.1-1.3-.1 0-.1-.1-.1-.1l.1-.1s2.8-.2 6.5-.3c3.7-.1 8.7-.3 8.7-.3h.1v1.5c0 .1 0 .1-.1.1h-.1s-1.9-.5-4.1-.2c-1.5.2-2.3.6-3.1.9-.4.2-.7.3-1 .4-.8.2-1.7.3-2.1.4h-.1zm-4.2-2.2c.4.3 1 .7 1.7 1 .9.4 1.7.7 2.1.9.2.1.4.1.5.1.5 0 1.3-.1 2.1-.3.3-.1.6-.2 1-.4.7-.3 1.7-.7 3.2-.9 1.8-.3 3.4 0 4 .2v-1c-.9 0-5.3.2-8.6.3-2.7-.2-5 0-6 .1z"/><path class="st10" d="M96.9 9.4l-3-1s1.9-1.1 2.9-2.2c.7-.8 1.1-1.5 1.3-1.8.1-.1.1-.2.3-.2.5 0 1.8.1 4.1.8 2.9.9 5.2 2.8 5.2 2.8s-1.5.6-3.4.9c-3.6.6-7.4.7-7.4.7z"/><path class="st1" d="M96.9 9.6c-.1 0-.1-.1 0 0l-3-1c-.1 0-.1-.1-.1-.1 0-.1 0-.1.1-.2 0 0 1.9-1.1 2.8-2.2.7-.8 1.1-1.5 1.3-1.8 0-.2.1-.3.3-.3.5 0 1.9.1 4.2.8 2.9.9 5.2 2.8 5.2 2.8s.1.1.1.2 0 .1-.1.1c0 0-1.6.7-3.4.9-3.6.7-7.4.8-7.4.8zm-2.6-1.3l2.6.9c.4 0 4-.1 7.3-.6 1.3-.2 2.5-.6 3-.8-.6-.5-2.6-1.9-4.9-2.6-2.3-.7-3.6-.8-4.1-.8-.1 0-.1 0-.1.1-.2.4-.6 1.1-1.3 1.9-.7.7-1.9 1.6-2.5 1.9z"/><path class="st10" d="M110.6 13s-1.5.2-4.9-.3c-3.4-.5-8.6-1.7-8.6-1.7V9.3s5.8-.3 8.8-.8c2.4-.3 4-.6 4.5-.7.1 0 .3 0 .4.1.5.2 1.7 1 1.8 2.5.3 1.8-2 2.6-2 2.6z"/><path class="st1" d="M109.7 13.2c-.8 0-2.1-.1-3.9-.3-3.4-.5-8.6-1.7-8.6-1.7-.1 0-.1-.1-.1-.2V9.3c0-.1.1-.2.2-.2s5.8-.3 8.7-.8c2.4-.3 3.9-.6 4.5-.7.2 0 .4 0 .5.1.5.3 1.7 1 1.9 2.6.2 2-2.2 2.9-2.2 2.9h-1zm.9-.2zm-13.3-2.1c.8.2 5.4 1.3 8.5 1.7 3.1.4 4.6.3 4.8.3.2-.1 2.1-.9 2-2.5-.2-1.4-1.3-2.1-1.7-2.3-.1 0-.2-.1-.3 0-.6.1-2.2.4-4.5.7-2.7.4-7.7.7-8.6.7l-.2 1.4z"/><path class="st10" d="M99.6 15.5s-1.3-.4-2.3-1c-1.1-.6-2.9-2-2.9-2s1-.9 1.5-1.4c.5-.5 1.2-.7 1.2-.7s1.1.3 2.9.7c1.8.4 5.6.8 7.6 1.1 1.4.3 2.6.5 3.2.6.2 0 .3.1.1.2-.4.2-1.5.7-3.8 1.3-3.3.8-7.5 1.2-7.5 1.2z"/><path class="st1" d="M99.6 15.6s-.1 0 0 0c-.1 0-1.3-.4-2.4-1.1-1.1-.6-2.8-1.9-2.9-2l-.1-.1c0-.1 0-.1.1-.1 0 0 1-.9 1.5-1.4.5-.5 1.2-.8 1.2-.8h.1s1.1.3 2.9.7c1.1.2 2.8.5 4.4.7 1.2.2 2.3.3 3.2.4 1.4.3 2.6.5 3.2.6.1 0 .3.1.3.2s0 .2-.2.3c-.4.3-1.5.8-3.8 1.4-3.2.9-7.5 1.2-7.5 1.2zm-5-3.2c.5.3 1.9 1.4 2.7 1.9.9.5 2.1.9 2.3 1 .4 0 4.4-.4 7.4-1.2 2.1-.5 3.1-1 3.6-1.3-.6-.1-1.8-.3-3.1-.6-.8-.1-2-.3-3.2-.4-1.7-.2-3.4-.4-4.5-.7-1.6-.4-2.6-.6-2.8-.7-.2.1-.7.3-1.1.7-.3.4-1 1.1-1.3 1.3z"/><path class="st10" d="M97 15.5c-.5.1-1.8.1-5.3-.1-5-.3-6.7-.7-6.7-.7s.2-.5 1.2-1.1c1-.6 4.5-2.1 4.5-2.1s.5 0 2-.1 1.9-.2 1.9-.2.1 1.3.6 2.2c.4.7 1.5 1.6 1.9 1.9.1.1.1.2-.1.2z"/><path class="st1" d="M95.7 15.7c-.8 0-2.1 0-4-.1-4.9-.3-6.7-.7-6.7-.7s-.1 0-.1-.1v-.1s.3-.5 1.3-1.1c1-.6 4.3-2 4.5-2.1h.1s.5 0 2-.1c1.4-.1 1.8-.2 1.8-.2h.1l.1.1s.1 1.2.6 2.1c.4.7 1.4 1.5 1.8 1.9.1.1.2.2.1.3 0 .2-.2.2-.3.2-.2-.1-.6-.1-1.3-.1zm-10.3-1.1c.6.1 2.5.4 6.4.7 3.2.2 4.5.2 5.1.1-.5-.4-1.4-1.2-1.8-1.9-.4-.7-.6-1.7-.6-2-.2 0-.8.1-1.7.2-1.3.1-1.8.1-2 .1-.4.2-3.5 1.5-4.4 2.1-.6.2-.9.5-1 .7z"/><path class="st7" d="M97.4 9.2l-.1 2.8c0 .7-2 1.1-4.3 1-2.4-.1-4.3-.7-4.2-1.3l.1-2.8"/><path class="st0" d="M88.8 9.7s-2-1-4.7-1.3c-2.7-.3-10.2-.5-10.2-.8-.1-.2.6-.8 1.4-1.2.7-.3 1.3-.4 2.6-.3 1.3.1 3.1.5 5.7 1.2l5.2 1.4v1z"/><path class="st5" d="M88.8 9.9c-.1 0-.1 0 0 0-.1 0-2.1-1-4.7-1.3-1.2-.2-3.6-.3-5.7-.4-4.5-.2-4.7-.3-4.7-.5-.1-.4.8-1.1 1.5-1.4.8-.4 1.5-.5 2.8-.4 1.3.1 3 .5 5.7 1.2l5.2 1.4c.1 0 .1.1.1.2v1l-.2.2zM74 7.5c.5.1 2.6.2 4.4.3 2.1.1 4.4.2 5.7.4 2.1.3 3.9 1 4.5 1.2v-.6l-5-1.3c-2.8-.7-4.4-1.1-5.7-1.2-1.3-.1-1.8 0-2.6.3-.7.3-1.2.7-1.3.9z"/><path class="st0" d="M94 7.7l-3.7.2s-1.6-1.2-3.5-2.1c-1.5-.7-3.6-1.6-4.3-1.8-.1-.1-.1-.1.1-.1.7-.1 2.4-.3 4.3-.2 2.4.2 6.4 1.3 6.4 1.3s.2.5.5 1.3.2 1.4.2 1.4z"/><path class="st5" d="M90.2 8h-.1s-1.6-1.2-3.5-2.1c-1.5-.7-3.5-1.5-4.3-1.8-.1-.1-.2-.1-.2-.2 0-.2.2-.2.3-.2.7-.1 2.4-.3 4.3-.2 2.4.2 6.4 1.3 6.4 1.3.1 0 .1.1.1.1s.2.5.5 1.3c.2.8.3 1.5.3 1.6v.1l-3.8.1c.1 0 0 0 0 0zm-7.3-4.1c1 .4 2.7 1.1 3.9 1.7 1.7.8 3.2 1.9 3.5 2.1l3.5-.2c0-.3-.1-.8-.3-1.3-.2-.6-.4-1-.4-1.2-.6-.2-4.1-1.1-6.3-1.3-1.6-.1-3.1.1-3.9.2z"/><path class="st0" d="M89.4 11.3s-1.9-.6-4.1-.2c-2.2.3-3.1 1-4.1 1.3-.7.2-1.6.3-2.1.4-.2 0-.4 0-.6-.1-.4-.1-1.2-.4-2.1-.9-1.2-.6-2.1-1.3-2.1-1.3s2.8-.2 6.5-.3 8.7-.3 8.7-.3l-.1 1.4z"/><path class="st5" d="M78.9 12.9c-.2 0-.4 0-.5-.1-.4-.1-1.3-.5-2.1-.9-1.2-.6-2.1-1.3-2.1-1.3-.1 0-.1-.1-.1-.2s.1-.1.1-.1 2.8-.2 6.5-.3c3.7-.1 8.7-.3 8.7-.3h.1v1.5c0 .1 0 .1-.1.1h-.1s-1.9-.5-4.1-.2c-1.5.2-2.3.6-3.1.9-.4.2-.7.3-1 .4-.8.2-1.7.3-2.1.4 0 .1 0 .1-.1.1zm-4.2-2.2c.4.3 1 .7 1.7 1 .9.4 1.7.7 2.1.9.2.1.4.1.5.1.5 0 1.3-.1 2.1-.3.3-.1.6-.2 1-.4.7-.3 1.6-.7 3.2-.9 1.8-.3 3.4 0 4 .2v-1c-.9 0-5.3.2-8.6.3-2.8-.2-5.1 0-6 .1z"/><path class="st0" d="M96.9 9l-3-1s1.9-1.1 2.9-2.2c.7-.8 1.1-1.5 1.3-1.8.1-.1.1-.2.3-.2.5 0 1.8.1 4.1.8 2.9.9 5.2 2.8 5.2 2.8s-1.5.6-3.4.9c-3.5.6-7.4.7-7.4.7z"/><path class="st5" d="M96.9 9.2l-3-1c-.1 0-.1-.1-.1-.1 0-.1 0-.1.1-.2 0 0 1.9-1.1 2.8-2.2.7-.8 1.1-1.5 1.3-1.8.1-.2.2-.3.4-.3.5 0 1.9.1 4.1.8 2.9.9 5.2 2.8 5.2 2.8s.1.1.1.2 0 .1-.1.1c0 0-1.6.7-3.4.9-3.5.7-7.3.8-7.4.8zM94.4 8l2.6.8c.4 0 4-.1 7.3-.6 1.3-.2 2.5-.6 3-.8-.6-.5-2.6-1.9-4.9-2.6-2.2-.7-3.5-.8-4-.8-.1 0-.1 0-.1.1-.2.4-.6 1.1-1.3 1.9-.8.8-2.1 1.6-2.6 2z"/><path class="st0" d="M110.7 12.6s-1.5.2-4.9-.3c-3.4-.5-8.6-1.7-8.6-1.7V8.9s5.8-.3 8.8-.8c2.4-.3 4-.6 4.5-.7.1 0 .3 0 .4.1.5.2 1.7 1 1.8 2.5.3 1.8-2 2.6-2 2.6z"/><path class="st5" d="M109.8 12.8c-.8 0-2.1-.1-3.9-.3-3.4-.5-8.6-1.7-8.6-1.7-.1 0-.1-.1-.1-.2V8.9c0-.1.1-.2.2-.2s5.8-.3 8.7-.8c2.4-.3 3.9-.6 4.5-.7.2 0 .4 0 .5.1.5.3 1.7 1 1.9 2.6.2 2-2.2 2.9-2.2 2.9h-1zm.9-.2zm-13.3-2.1c.8.2 5.4 1.3 8.5 1.7 3.1.4 4.6.3 4.8.3.2-.1 2.1-.9 2-2.5-.2-1.4-1.3-2.1-1.7-2.3-.1 0-.2-.1-.3 0-.6.1-2.2.4-4.5.7-2.8.3-7.8.6-8.7.6l-.1 1.5z"/><ellipse transform="rotate(-87.96 93.155 9.004)" class="st7" cx="93.2" cy="9" rx="1.2" ry="4.3"/><path class="st1" d="M93.6 10.4h-.5c-1.2 0-2.2-.2-3.1-.5-.9-.3-1.4-.6-1.3-1.1 0-.9 2.3-1.3 4.5-1.2 2 .1 3.7.5 4.2 1.1.1.1.2.3.2.4 0 .9-2 1.3-4 1.3zm-1-2.4c-2.2 0-3.6.5-3.6.9 0 .2.3.5 1.1.7.8.3 1.8.4 3 .4 2.5.1 4.1-.5 4.1-.9 0-.1 0-.1-.1-.2-.4-.4-1.9-.9-4-1-.1.1-.3.1-.5.1z"/><path class="st0" d="M99.7 15.1s-1.3-.4-2.3-1c-1.1-.6-2.9-2-2.9-2s1-.9 1.5-1.4c.5-.5 1.2-.7 1.2-.7s1.1.3 2.9.7 5.6.8 7.6 1.1c1.4.3 2.6.5 3.2.6.2 0 .3.1.1.2-.4.2-1.5.7-3.8 1.3-3.3.8-7.5 1.2-7.5 1.2z"/><path class="st5" d="M99.7 15.2c-.1 0-.1 0 0 0-.1 0-1.3-.4-2.4-1.1-1.1-.6-2.8-1.9-2.9-2l-.1-.1c0-.1 0-.1.1-.1 0 0 1-.9 1.5-1.4.5-.5 1.2-.8 1.2-.8h.1s1.1.3 2.9.7c1.1.2 2.8.5 4.4.7 1.2.2 2.3.3 3.2.4 1.4.3 2.6.5 3.2.6.1 0 .3.1.3.2s0 .2-.2.3c-.4.3-1.5.8-3.8 1.4-3.2.9-7.5 1.2-7.5 1.2zm-5-3.2c.5.3 1.9 1.4 2.7 1.9.9.5 2.1.9 2.3 1 .4 0 4.4-.4 7.4-1.2 2.1-.5 3.1-1 3.6-1.3-.6-.1-1.8-.3-3.1-.6-.8-.1-2-.3-3.2-.4-1.7-.2-3.4-.4-4.5-.7-1.6-.4-2.6-.6-2.8-.7-.2.1-.7.3-1.1.7-.3.5-1 1.1-1.3 1.3zm16.2.5z"/><path class="st0" d="M97.1 15.1c-.5.1-1.8.1-5.3-.1-5-.3-6.7-.7-6.7-.7s.2-.5 1.2-1.1c1-.6 4.5-2.1 4.5-2.1s.5 0 2-.1 1.9-.2 1.9-.2.1 1.3.6 2.2c.4.7 1.5 1.6 1.9 1.9.1.1.1.2-.1.2z"/><path class="st5" d="M95.8 15.3c-.8 0-2.1 0-4-.1-4.9-.3-6.7-.7-6.7-.7s-.1 0-.1-.1v-.1s.3-.5 1.3-1.1c1-.6 4.3-2 4.5-2.1h.1s.5 0 2-.1c1.4-.1 1.8-.2 1.8-.2h.1l.1.1s.1 1.2.6 2.1c.4.7 1.4 1.5 1.8 1.9.1.1.2.2.1.3 0 .2-.2.2-.3.2-.2-.1-.6-.1-1.3-.1zm-10.3-1.1c.6.1 2.5.4 6.4.7 3.1.1 4.5.1 5.1.1-.5-.4-1.4-1.2-1.8-1.9-.4-.7-.6-1.7-.6-2-.2 0-.8.1-1.7.2-1.3.1-1.8.1-2 .1-.4.2-3.5 1.5-4.4 2.1-.6.2-.9.5-1 .7z"/><path class="st3" d="M71 13.4v-2.9"/><path class="st5" d="M70.6 10.5h.8v3h-.8z"/><path class="st3" d="M114.5 15.4v-3"/><path class="st5" d="M114.1 12.4h.8v3h-.8z"/><path class="st0" d="M93 25.2c-11-.6-20.2 1.7-22.2 5.2v3.1c2.1 3.6 10.9 6.6 21.6 7.2 11.2.6 20.5-1.8 22.3-5.4v-2.6C113 29 104 25.8 93 25.2z"/><path class="st5" d="M95.7 41.1c-1.1 0-2.2 0-3.3-.1-10.3-.5-19.2-3.4-21.7-7-.1-.1-.1-.3.1-.4.1-.1.3-.1.4.1 2.4 3.5 11.1 6.2 21.2 6.7 10.3.5 19.4-1.5 21.8-4.8.1-.1.3-.2.4-.1.1.1.2.3.1.4-2.2 3.2-9.8 5.2-19 5.2z"/><path class="st3" d="M114.9 29.8c.2.4.3.8.2 1.3-.2 4.3-10.3 7.3-22.7 6.6-12.4-.7-22.3-4.7-22.1-9 0-.3.1-.7.2-1 1.6-3.7 11.1-6.2 22.5-5.6 11.2.6 20.3 3.9 21.9 7.7z"/><path class="st5" d="M95.7 38.2c-1.1 0-2.2 0-3.3-.1-12.8-.7-22.7-4.8-22.5-9.3 0-.4.1-.8.3-1.2 1.7-4 11.3-6.4 22.9-5.9 11.2.6 20.6 3.9 22.3 7.9.2.5.3 1 .3 1.5 0 1-.5 1.9-1.5 2.8-3 2.6-10.2 4.3-18.5 4.3zm-6-15.7c-9.6 0-17.4 2.2-18.8 5.4-.1.3-.2.6-.2.9-.2 4 9.8 7.9 21.7 8.5 9.4.5 17.9-1.1 21.1-4 .8-.7 1.2-1.4 1.2-2.2 0-.4-.1-.7-.2-1.1-1.5-3.7-10.8-6.8-21.5-7.4-1.1-.1-2.2-.1-3.3-.1z"/><path class="st6" d="M113.5 29.9c.2.3.2.7.2 1-.2 3.5-9.7 5.9-21.3 5.3-11.6-.6-20.8-3.9-20.7-7.4 0-.3.1-.6.2-.8 1.5-3 10.4-5 21.1-4.5 10.5.6 19 3.3 20.5 6.4z"/><path class="st7" d="M113.6 30c.2.3.2.7.2 1-.2 3.5-9.7 5.9-21.3 5.3-11.6-.6-20.8-3.9-20.7-7.4 0-.3.1-.6.2-.8 1.5-3 10.4-5 21.1-4.5 10.5.6 19 3.3 20.5 6.4z"/><path class="st1" d="M95.8 36.5c-1.1 0-2.2 0-3.4-.1-11.6-.6-21-3.9-20.8-7.5h.3c-.2 3.4 9 6.6 20.5 7.2 11.5.6 21-1.8 21.1-5.2v-.5l.3-.1c0 .2.1.4 0 .6-.1 3.3-7.9 5.6-18 5.6z"/><path class="st8" d="M113.6 30.5c0-.2-.1-.3-.2-.5-1.5-3.1-10.2-5.7-20.3-6.2-10.4-.5-19.4 1.4-20.9 4.4-.1.3-.2.5-.2.8h-.3c0-.3.1-.6.2-.9 1.6-3.1 10.7-5.1 21.2-4.5 10.4.5 19 3.2 20.6 6.4.1.2.2.4.2.5h-.3z"/><path class="st9" d="M97.2 29.6l-.1 2.8c0 .7-2 1.1-4.3 1-2.4-.1-4.3-.7-4.2-1.3l.1-2.8"/><path class="st10" d="M88.6 30.3s-2-1-4.7-1.3c-2.7-.3-10.2-.5-10.2-.8-.1-.2.6-.8 1.4-1.2.8-.3 1.4-.4 2.7-.3 1.3.1 3.1.5 5.7 1.2l5.2 1.4-.1 1z"/><path class="st1" d="M88.6 30.4c-.1 0-2.1-1-4.7-1.3-1.2-.2-3.6-.3-5.7-.4-4.5-.2-4.6-.3-4.7-.5-.1-.4.8-1.1 1.5-1.4.8-.4 1.5-.5 2.8-.4 1.3.1 3 .5 5.7 1.2l5.2 1.4c.1 0 .1.1.1.2v1c0 .1 0 .2-.2.2.1 0 .1 0 0 0zm-14.7-2.3c.5.1 2.6.2 4.4.3 2.1.1 4.4.2 5.7.4 2.1.3 3.9 1 4.5 1.2v-.6l-5-1.3c-2.8-.7-4.4-1.1-5.7-1.2-1.2-.1-1.8 0-2.6.3-.7.2-1.2.7-1.3.9z"/><path class="st10" d="M93.9 28.3l-3.7.2s-1.6-1.2-3.5-2.1c-1.5-.7-3.6-1.6-4.3-1.8-.1-.1-.1-.1.1-.1.7-.1 2.4-.3 4.3-.2 2.4.2 6.4 1.3 6.4 1.3s.2.5.5 1.3.2 1.4.2 1.4z"/><path class="st1" d="M90.1 28.6H90s-1.6-1.2-3.5-2.1c-1.5-.7-3.5-1.5-4.3-1.8-.1-.1-.2-.1-.2-.2 0-.2.2-.2.3-.2.7-.1 2.4-.3 4.3-.2 2.4.2 6.4 1.3 6.4 1.3.1 0 .1.1.1.1s.2.5.5 1.3c.2.8.3 1.5.3 1.6v.1l-.1.1h-3.7zm-7.3-4.1c1 .4 2.7 1.1 3.9 1.7 1.7.8 3.2 1.9 3.5 2.1l3.5-.2c0-.3-.1-.8-.3-1.3-.2-.6-.4-1-.4-1.2-.6-.2-4.1-1.1-6.3-1.3-1.6-.1-3.1.1-3.9.2z"/><path class="st10" d="M89.3 31.9s-1.9-.6-4.1-.2c-2.2.3-3.1 1-4.2 1.3-.7.2-1.6.3-2.1.4-.2 0-.4 0-.6-.1-.4-.1-1.2-.4-2.1-.9-1.2-.6-2.1-1.3-2.1-1.3s2.8-.2 6.5-.3 8.7-.3 8.7-.3v1.4z"/><path class="st1" d="M78.8 33.5c-.2 0-.4 0-.5-.1-.4-.1-1.2-.4-2.1-.9-1.2-.6-2.1-1.3-2.1-1.3-.1 0-.1-.1-.1-.2s.1-.1.1-.1 2.8-.2 6.5-.3c3.7-.1 8.7-.3 8.7-.3h.1v1.5c0 .1 0 .1-.1.1h-.1s-1.9-.5-4.1-.2c-1.5.2-2.3.6-3.1.9-.4.2-.7.3-1 .4-.8.2-1.7.3-2.1.4 0 .1 0 .1-.1.1zm-4.2-2.3c.4.3 1 .7 1.7 1 .9.4 1.7.7 2.1.9.2.1.3.1.5.1.5 0 1.3-.1 2.1-.3.3-.1.6-.2 1-.4.7-.3 1.7-.7 3.2-.9 1.8-.3 3.4 0 4 .2v-1c-.9 0-5.3.2-8.6.3-2.8-.1-5.1.1-6 .1z"/><path class="st10" d="M96.8 29.6l-3-1s1.9-1.1 2.9-2.2c.7-.8 1.1-1.5 1.3-1.8.1-.1.1-.2.3-.2.5 0 1.8.1 4.1.8 2.9.9 5.2 2.8 5.2 2.8s-1.5.6-3.4.9c-3.6.6-7.4.7-7.4.7z"/><path class="st1" d="M96.8 29.7l-3-1c-.1 0-.1-.1-.1-.1 0-.1 0-.1.1-.2 0 0 1.9-1.1 2.8-2.2.7-.8 1.1-1.5 1.3-1.8.1-.2.2-.2.4-.3.5 0 1.9.1 4.2.8 2.9.9 5.2 2.8 5.2 2.8s.1.1.1.2 0 .1-.1.1c0 0-1.6.7-3.4.9-3.6.8-7.4.8-7.5.8zm-2.6-1.2l2.6.9c.4 0 4-.1 7.3-.6 1.3-.2 2.5-.6 3-.8-.6-.5-2.6-1.9-4.9-2.6-2.2-.7-3.6-.8-4.1-.8-.1 0-.1 0-.1.1-.2.4-.6 1.1-1.3 1.9-.6.7-1.9 1.6-2.5 1.9z"/><path class="st10" d="M110.6 33.2s-1.5.2-4.9-.3c-3.4-.5-8.6-1.7-8.6-1.7v-1.7s5.8-.3 8.8-.8c2.4-.3 4-.6 4.5-.7.1 0 .3 0 .4.1.5.2 1.7 1 1.8 2.5.3 1.8-2 2.6-2 2.6z"/><path class="st1" d="M109.7 33.4c-.8 0-2.1-.1-3.9-.3-3.4-.5-8.6-1.7-8.6-1.7-.1 0-.1-.1-.1-.2v-1.7c0-.1.1-.2.2-.2s5.8-.3 8.7-.8c2.4-.3 3.9-.6 4.5-.7.2 0 .4 0 .5.1.5.3 1.7 1 1.9 2.6.2 2-2.2 2.9-2.2 2.9h-1zm.9-.2zm-13.3-2.1c.8.2 5.4 1.3 8.5 1.7 3.1.4 4.6.3 4.8.3.2-.1 2.1-.9 2-2.5-.2-1.4-1.3-2.1-1.7-2.3-.1 0-.2-.1-.3 0-.6.1-2.2.4-4.5.7-2.7.4-7.7.7-8.6.7l-.2 1.4z"/><path class="st10" d="M99.6 35.7s-1.3-.4-2.3-1c-1.1-.6-2.9-2-2.9-2s1-.9 1.5-1.4c.5-.5 1.2-.7 1.2-.7s1.1.3 2.9.7c1.8.4 5.6.8 7.6 1.1 1.4.3 2.6.5 3.2.6.2 0 .3.1.1.2-.4.2-1.5.7-3.8 1.3-3.3.8-7.5 1.2-7.5 1.2z"/><path class="st1" d="M99.6 35.8c-.1 0-.1 0 0 0-.1 0-1.3-.4-2.4-1.1-1.1-.6-2.8-1.9-2.9-2l-.1-.1c0-.1 0-.1.1-.1 0 0 1-.9 1.5-1.4.5-.5 1.2-.8 1.2-.8h.1s1.1.3 2.9.7c1.1.2 2.8.5 4.4.7 1.2.2 2.3.3 3.2.4 1.4.3 2.6.5 3.2.6.1 0 .3.1.3.2s0 .2-.2.3c-.4.3-1.5.8-3.8 1.4-3.2.9-7.5 1.2-7.5 1.2zm-5-3.2c.5.3 1.9 1.4 2.7 1.9.9.5 2.1.9 2.3 1 .4 0 4.4-.4 7.4-1.2 2.1-.5 3.1-1 3.6-1.3-.6-.1-1.8-.3-3.1-.6-.8-.1-2-.3-3.2-.4-1.7-.2-3.4-.4-4.5-.7-1.6-.4-2.6-.6-2.8-.7-.2.1-.7.3-1.1.7-.3.4-1 1.1-1.3 1.3z"/><path class="st10" d="M97 35.7c-.5.1-1.8.1-5.3-.1-5-.3-6.7-.7-6.7-.7s.2-.5 1.2-1.1c1-.6 4.5-2.1 4.5-2.1s.5 0 2-.1 1.9-.2 1.9-.2.1 1.3.6 2.2c.4.7 1.5 1.6 1.9 1.9.1.1.1.2-.1.2z"/><path class="st1" d="M95.7 35.9c-.8 0-2.1 0-4-.1-4.9-.3-6.7-.7-6.7-.7s-.1 0-.1-.1v-.1s.3-.5 1.3-1.1c1-.6 4.3-2 4.5-2.1h.1s.5 0 2-.1c1.4-.1 1.8-.2 1.8-.2h.1l.1.1s.1 1.2.6 2.1c.4.7 1.4 1.5 1.8 1.9.1.1.2.2.1.3 0 .2-.2.2-.3.2-.2-.1-.6-.1-1.3-.1zm1.3-.2zm-11.7-.9c.6.1 2.5.4 6.4.7 3.2.2 4.5.2 5.1.1-.5-.4-1.4-1.2-1.8-1.9-.4-.7-.6-1.7-.6-2-.2 0-.8.1-1.7.2-1.3.1-1.8.1-2 .1-.4.2-3.5 1.5-4.4 2.1-.5.2-.8.5-1 .7z"/><path class="st7" d="M97.4 29.4l-.1 2.8c0 .7-2 1.1-4.3 1-2.4-.1-4.3-.7-4.2-1.3l.1-2.8"/><path class="st0" d="M88.7 29.9s-2-1-4.7-1.3c-2.7-.3-10.2-.5-10.2-.8-.1-.2.6-.8 1.4-1.2.8-.3 1.4-.4 2.7-.3s3.1.5 5.7 1.2l5.2 1.4-.1 1z"/><path class="st5" d="M88.7 30.1c-.1 0-2.1-1-4.7-1.3-1.2-.2-3.6-.3-5.7-.4-4.5-.2-4.7-.3-4.7-.5-.1-.4.8-1.1 1.5-1.4.8-.4 1.5-.5 2.8-.4 1.3.1 3 .5 5.7 1.2l5.2 1.4c.1 0 .1.1.1.2v1c0 .1 0 .1-.2.2.1 0 .1 0 0 0zM74 27.7c.5.1 2.6.2 4.4.3 2.1.1 4.4.2 5.7.4 2.1.3 3.9 1 4.5 1.2V29l-5-1.3c-2.8-.7-4.4-1.1-5.7-1.2-1.3-.1-1.8 0-2.6.3-.7.3-1.2.7-1.3.9z"/><path class="st0" d="M93.9 27.9l-3.7.2s-1.6-1.2-3.5-2.1c-1.5-.7-3.6-1.6-4.3-1.8-.1-.2-.1-.2.1-.2.7-.1 2.4-.3 4.3-.2 2.4.2 6.4 1.3 6.4 1.3s.2.5.5 1.3c.2.7.2 1.5.2 1.5z"/><path class="st5" d="M90.2 28.2h-.1s-1.6-1.2-3.5-2.1c-1.5-.7-3.5-1.5-4.3-1.8-.1-.1-.2-.1-.2-.2 0-.2.2-.2.3-.2.7-.1 2.4-.3 4.3-.2 2.4.2 6.4 1.3 6.4 1.3.1 0 .1.1.1.1s.2.5.5 1.3c.2.8.3 1.5.3 1.6v.1l-3.8.1zm-7.3-4.1c1 .4 2.7 1.1 3.9 1.7 1.7.8 3.2 1.9 3.5 2.1l3.5-.2c0-.3-.1-.8-.3-1.3-.2-.6-.4-1-.4-1.2-.6-.2-4.1-1.1-6.3-1.3-1.6-.1-3.1.1-3.9.2z"/><path class="st0" d="M89.4 31.5s-1.9-.6-4.1-.2c-2.2.3-3.1 1-4.1 1.3-.7.2-1.6.3-2.1.4-.2 0-.4 0-.6-.1-.4-.1-1.2-.4-2.1-.9-1.2-.6-2.1-1.3-2.1-1.3s2.8-.2 6.5-.3 8.7-.3 8.7-.3l-.1 1.4z"/><path class="st5" d="M78.9 33.1c-.2 0-.4 0-.5-.1-.4-.1-1.2-.4-2.1-.9-1.2-.6-2.1-1.3-2.1-1.3-.1 0-.1-.1-.1-.2s.1-.1.1-.1 2.8-.2 6.5-.3c3.7-.1 8.7-.3 8.7-.3h.1v1.5c0 .1 0 .1-.1.1h-.1s-1.9-.5-4.1-.2c-1.5.2-2.3.6-3.1.9-.4.2-.7.3-1 .4-.8.2-1.7.3-2.1.4 0 .1 0 .1-.1.1zm-4.2-2.2c.4.3 1 .7 1.7 1 .9.4 1.7.7 2.1.9.2.1.3.1.5.1.5 0 1.3-.1 2.1-.3.3-.1.6-.2 1-.4.7-.3 1.7-.7 3.2-.9 1.8-.3 3.4 0 4 .2v-1c-.9 0-5.3.2-8.6.3-2.8-.2-5.1 0-6 .1z"/><path class="st0" d="M96.9 29.2l-3-1s1.9-1.1 2.9-2.2c.7-.8 1.1-1.5 1.3-1.8.1-.1.1-.2.3-.2.5 0 1.8.1 4.1.8 2.9.9 5.2 2.8 5.2 2.8s-1.5.6-3.4.9c-3.6.6-7.4.7-7.4.7z"/><path class="st5" d="M96.9 29.4l-3-1c-.1 0-.1-.1-.1-.1 0-.1 0-.1.1-.2 0 0 1.9-1.1 2.8-2.2.7-.8 1.1-1.5 1.3-1.8.1-.2.2-.3.4-.3.5 0 1.9.1 4.2.8 2.9.9 5.2 2.8 5.2 2.8s.1.1.1.2 0 .1-.1.1c0 0-1.6.7-3.4.9-3.6.7-7.4.8-7.5.8zm-2.6-1.2l2.7.8c.4 0 4-.1 7.3-.6 1.3-.2 2.5-.6 3-.8-.6-.5-2.6-1.9-4.9-2.6-2.3-.7-3.6-.8-4.1-.8-.1 0-.1 0-.1.1-.2.4-.6 1.1-1.3 1.9-.7.8-2 1.6-2.6 2z"/><path class="st0" d="M110.7 32.8s-1.5.2-4.9-.3c-3.4-.5-8.6-1.7-8.6-1.7v-1.7s5.8-.3 8.8-.8c2.4-.3 4-.6 4.5-.7.1 0 .3 0 .4.1.5.2 1.7 1 1.8 2.5.3 1.8-2 2.6-2 2.6z"/><path class="st5" d="M109.8 33c-.8 0-2.1-.1-3.9-.3-3.4-.5-8.6-1.7-8.6-1.7-.1 0-.1-.1-.1-.2v-1.7c0-.1.1-.2.2-.2s5.8-.3 8.7-.8c2.4-.3 3.9-.6 4.5-.7.2 0 .4 0 .5.1.5.3 1.7 1 1.9 2.6.2 2-2.2 2.9-2.2 2.9h-1zm.9-.2zm-13.3-2.1c.8.2 5.4 1.3 8.5 1.7 3.1.4 4.6.3 4.8.3.2-.1 2.1-.9 2-2.5-.2-1.4-1.3-2.1-1.7-2.3-.1 0-.2-.1-.3 0-.6.1-2.1.4-4.5.7-2.7.4-7.7.7-8.6.7l-.2 1.4z"/><ellipse transform="rotate(-87.96 93.134 29.197)" class="st7" cx="93.1" cy="29.2" rx="1.2" ry="4.3"/><path class="st1" d="M93.6 30.6h-.5c-1.2 0-2.2-.2-3.1-.5-.9-.3-1.4-.6-1.3-1.1 0-.9 2.3-1.3 4.5-1.2 1.2 0 2.2.2 3.1.5.9.3 1.4.6 1.3 1.1-.1.8-2 1.2-4 1.2zm-1-2.4c-2.2 0-3.6.5-3.6.9 0 .2.3.5 1.1.7.8.3 1.8.4 3 .5 2.5.1 4.1-.5 4.1-.9 0-.2-.3-.5-1.1-.7-.8-.3-1.8-.4-3-.4-.1-.1-.3-.1-.5-.1z"/><path class="st0" d="M99.6 35.3s-1.3-.4-2.3-1c-1.1-.6-2.9-2-2.9-2s1-.9 1.5-1.4c.5-.5 1.2-.7 1.2-.7s1.1.3 2.9.7 5.6.8 7.6 1.1c1.4.3 2.6.5 3.2.6.2 0 .3.1.1.2-.4.2-1.5.7-3.8 1.3-3.2.8-7.5 1.2-7.5 1.2z"/><path class="st5" d="M99.6 35.4c-.1 0-1.3-.4-2.4-1.1-1.1-.6-2.8-1.9-2.9-2l-.1-.1c0-.1 0-.1.1-.1 0 0 1-.9 1.5-1.4.5-.5 1.2-.8 1.2-.8h.1s1.1.3 2.9.7c1.1.2 2.8.5 4.4.7 1.2.2 2.3.3 3.2.4 1.4.3 2.6.5 3.2.6.1 0 .3.1.3.2s0 .2-.2.3c-.4.3-1.5.8-3.8 1.4-3.1.9-7.4 1.2-7.5 1.2.1 0 0 0 0 0zm-4.9-3.2c.5.3 1.9 1.4 2.7 1.9.9.5 2.1.9 2.3 1 .4 0 4.4-.4 7.4-1.2 2.1-.5 3.1-1 3.6-1.3-.6-.1-1.8-.3-3.1-.6-.8-.1-2-.3-3.2-.4-1.7-.2-3.4-.4-4.5-.7-1.6-.4-2.6-.6-2.8-.7-.2.1-.7.3-1.1.7-.3.4-1 1.1-1.3 1.3z"/><path class="st0" d="M97.1 35.3c-.5.1-1.8.1-5.3-.1-5-.3-6.7-.7-6.7-.7s.2-.5 1.2-1.1c1-.6 4.5-2.1 4.5-2.1s.5 0 2-.1 1.9-.2 1.9-.2.1 1.3.6 2.2c.4.7 1.5 1.6 1.9 1.9.1.1.1.2-.1.2z"/><path class="st5" d="M95.8 35.5c-.8 0-2.1 0-4-.1-4.9-.3-6.7-.7-6.7-.7s-.1 0-.1-.1v-.1s.3-.5 1.3-1.1c1-.6 4.3-2 4.5-2.1h.1s.5 0 2-.1c1.4-.1 1.8-.2 1.8-.2h.1l.1.1s.1 1.2.6 2.1c.4.7 1.4 1.5 1.8 1.9.1.1.2.2.1.3 0 .2-.2.2-.3.2-.2-.1-.6-.1-1.3-.1zm1.3-.2zm-11.7-.9c.6.1 2.5.4 6.4.7 3.2.2 4.5.2 5.1.1-.5-.4-1.4-1.2-1.8-1.9-.4-.7-.6-1.7-.6-2-.2 0-.8.1-1.7.2-1.3.1-1.8.1-2 .1-.4.2-3.5 1.5-4.4 2.1-.5.2-.8.5-1 .7z"/><path class="st3" d="M71 33.6v-2.9"/><path class="st5" d="M70.6 30.7h.8v3h-.8z"/><path class="st3" d="M114.5 35.6v-3"/><path class="st5" d="M114.1 32.6h.8v3h-.8z"/><path class="st0" d="M217 5c-11-.6-20.2 1.7-22.2 5.2v3.1c2.1 3.6 10.9 6.6 21.6 7.2 11.2.6 20.5-1.8 22.3-5.4v-2.6C237 8.8 227.9 5.6 217 5z"/><path class="st5" d="M219.7 20.9c-1.1 0-2.2 0-3.3-.1-10.3-.5-19.2-3.4-21.7-7-.1-.1-.1-.3.1-.4.1-.1.3-.1.4.1 2.4 3.5 11.1 6.2 21.2 6.7 10.3.5 19.4-1.5 21.8-4.8.1-.1.3-.2.4-.1.1.1.2.3.1.4-2.3 3.2-9.8 5.2-19 5.2z"/><path class="st3" d="M238.8 9.6c.2.4.3.8.2 1.3-.2 4.3-10.3 7.3-22.7 6.6-12.4-.6-22.3-4.6-22.1-8.9 0-.3.1-.7.2-1 1.6-3.7 11.1-6.2 22.5-5.6 11.2.5 20.3 3.8 21.9 7.6z"/><path class="st5" d="M219.6 18c-1.1 0-2.2 0-3.3-.1-12.8-.7-22.7-4.8-22.5-9.3 0-.4.1-.8.3-1.2 1.7-4 11.3-6.4 22.9-5.9 11.2.6 20.6 3.9 22.3 7.9.2.5.3 1 .3 1.5 0 1-.5 1.9-1.5 2.8-3 2.6-10.2 4.3-18.5 4.3zm-6-15.7c-9.6 0-17.4 2.2-18.8 5.4-.1.3-.2.6-.2.9-.2 4 9.8 7.9 21.7 8.5 9.4.5 17.9-1.1 21.1-4 .8-.7 1.2-1.4 1.2-2.2 0-.4-.1-.7-.2-1.1-1.5-3.7-10.8-6.8-21.5-7.4-1.1-.1-2.2-.1-3.3-.1z"/><path class="st6" d="M237.4 9.7c.2.3.2.7.2 1-.2 3.5-9.7 5.9-21.3 5.3-11.6-.6-20.8-3.9-20.7-7.4 0-.3.1-.6.2-.8 1.5-3 10.4-5 21.1-4.5 10.5.6 19.1 3.3 20.5 6.4z"/><path class="st7" d="M237.5 9.8c.2.3.2.7.2 1-.2 3.5-9.7 5.9-21.3 5.3-11.6-.6-20.8-3.9-20.7-7.4 0-.3.1-.6.2-.8 1.5-3 10.4-5 21.1-4.5 10.5.6 19 3.3 20.5 6.4z"/><path class="st1" d="M219.7 16.3c-1.1 0-2.2 0-3.4-.1-11.6-.6-21-3.9-20.8-7.5h.3c-.2 3.4 9 6.6 20.5 7.2 11.5.6 21-1.8 21.1-5.2v-.5l.3-.1c0 .2.1.4 0 .6 0 3.3-7.9 5.6-18 5.6z"/><path class="st8" d="M237.5 10.3c0-.2-.1-.3-.2-.5-1.4-3.1-10.2-5.8-20.3-6.3-10.4-.5-19.4 1.4-20.9 4.4-.1.3-.2.5-.2.8h-.3c0-.3.1-.6.2-.9 1.6-3.1 10.7-5.1 21.2-4.5 10.4.5 19 3.2 20.6 6.4.1.2.2.4.2.5l-.3.1z"/><path class="st9" d="M221.2 9.4l-.1 2.8c0 .7-2 1.1-4.3 1-2.4-.1-4.3-.7-4.2-1.3l.1-2.8"/><path class="st10" d="M212.6 10.1s-2-1-4.7-1.3c-2.7-.3-10.2-.5-10.2-.8-.1-.2.6-.8 1.4-1.2.8-.3 1.4-.4 2.7-.3s3.1.5 5.7 1.2l5.2 1.4-.1 1z"/><path class="st1" d="M212.6 10.3c-.1 0-.1-.1 0 0-.1 0-2.1-1-4.7-1.3-1.2-.2-3.6-.3-5.7-.4-4.5-.2-4.6-.3-4.7-.5-.1-.4.8-1.1 1.5-1.4.8-.4 1.5-.5 2.8-.4 1.3.1 2.9.5 5.7 1.2l5.2 1.4c.1 0 .1.1.1.2v1l-.2.2c0-.1 0 0 0 0zm-14.8-2.4c.5.1 2.6.2 4.4.3 2.1.1 4.4.2 5.7.4 2.1.3 3.9 1 4.5 1.2v-.6l-5-1.3c-2.8-.7-4.4-1.1-5.7-1.2-1.3-.1-1.8 0-2.6.3-.6.3-1.2.7-1.3.9z"/><path class="st10" d="M217.8 8.1l-3.7.2s-1.6-1.2-3.5-2.1c-1.5-.7-3.6-1.6-4.3-1.8-.1-.1-.1-.1.1-.1.7-.1 2.4-.3 4.3-.2 2.4.2 6.4 1.3 6.4 1.3s.2.5.5 1.3.2 1.4.2 1.4z"/><path class="st1" d="M214.1 8.4c-.1 0-.1 0 0 0-.1 0-1.8-1.3-3.6-2.1-1.5-.7-3.6-1.6-4.3-1.8-.1-.1-.2-.1-.2-.2 0-.2.2-.2.3-.2.7-.1 2.4-.3 4.3-.2 2.4.2 6.4 1.3 6.4 1.3.1 0 .1.1.1.1s.2.5.5 1.3c.2.8.3 1.5.3 1.6v.1l-.1.1h-3.7zm-7.4-4.1c.9.4 2.6 1.1 3.9 1.7 1.7.8 3.2 1.9 3.5 2.1l3.5-.2c0-.3-.1-.8-.3-1.3-.2-.6-.4-1-.4-1.2-.6-.2-4.1-1.1-6.3-1.3-1.6-.1-3.1.1-3.9.2z"/><path class="st10" d="M213.2 11.7s-1.9-.6-4.1-.2c-2.2.3-3.1 1-4.1 1.3-.7.2-1.6.3-2.1.4-.2 0-.4 0-.6-.1-.4-.1-1.2-.4-2.1-.9-1.2-.6-2.1-1.3-2.1-1.3s2.8-.2 6.5-.3c3.7-.1 8.7-.3 8.7-.3l-.1 1.4z"/><path class="st1" d="M202.7 13.3c-.2 0-.4 0-.5-.1-.4-.1-1.2-.5-2.1-.9-1.2-.6-2.1-1.3-2.1-1.3-.1 0-.1-.1-.1-.2s.1-.1.1-.1 2.8-.2 6.5-.3c3.7-.1 8.7-.3 8.7-.3h.1s.1.1 0 .1v1.4c0 .1 0 .1-.1.1h-.1s-1.9-.5-4.1-.2c-1.5.2-2.3.6-3.1.9-.4.2-.7.3-1 .4-.8.2-1.7.3-2.1.4 0 .1 0 .1-.1.1zm-4.2-2.2c.4.3 1 .7 1.7 1 .9.4 1.7.7 2.1.9.2.1.3.1.5.1.5 0 1.3-.1 2.1-.3.3-.1.6-.2 1-.4.7-.3 1.7-.7 3.2-.9 1.8-.3 3.4 0 4 .2v-1c-.9 0-5.3.2-8.6.3-2.7-.2-5 0-6 .1z"/><path class="st10" d="M220.8 9.4l-3-1s1.9-1.1 2.9-2.2c.7-.8 1.1-1.5 1.3-1.8.1-.1.1-.2.3-.2.5 0 1.8.1 4.1.8 2.9.9 5.2 2.8 5.2 2.8s-1.5.6-3.4.9c-3.6.6-7.4.7-7.4.7z"/><path class="st1" d="M220.8 9.6c-.1 0-.1-.1 0 0l-3-1c-.1 0-.1-.1-.1-.1 0-.1 0-.1.1-.2 0 0 1.9-1.1 2.8-2.2.7-.8 1.1-1.5 1.3-1.8.1-.2.2-.3.4-.3.5 0 1.9.1 4.2.8 2.9.9 5.2 2.8 5.2 2.8s.1.1.1.2 0 .1-.1.1c0 0-1.6.7-3.4.9-3.7.7-7.5.8-7.5.8zm-2.6-1.3l2.6.9c.4 0 4-.1 7.3-.6 1.3-.2 2.5-.6 3-.8-.6-.5-2.6-1.9-4.9-2.6-2.3-.7-3.6-.8-4.1-.8-.1 0-.1 0-.1.1-.1.3-.6 1-1.3 1.9-.7.7-1.9 1.6-2.5 1.9z"/><path class="st10" d="M234.5 13s-1.5.2-4.9-.3c-3.4-.5-8.6-1.7-8.6-1.7V9.3s5.8-.3 8.8-.8c2.4-.3 4-.6 4.5-.7.1 0 .3 0 .4.1.5.2 1.7 1 1.8 2.5.3 1.8-2 2.6-2 2.6z"/><path class="st1" d="M233.6 13.2c-.8 0-2.1-.1-3.9-.3-3.4-.5-8.6-1.7-8.6-1.7-.1 0-.1-.1-.1-.2V9.3c0-.1.1-.2.2-.2s5.8-.3 8.7-.8c2.4-.3 3.9-.6 4.5-.7.2 0 .4 0 .5.1.5.3 1.7 1 1.9 2.6.2 2-2.2 2.9-2.2 2.9h-1zm.9-.2zm-13.2-2.1c.8.2 5.4 1.3 8.5 1.7 3.1.4 4.6.3 4.8.3.2-.1 2.1-.9 2-2.5-.2-1.4-1.3-2.1-1.7-2.3-.1 0-.2-.1-.3 0-.6.1-2.1.4-4.5.7-2.7.4-7.7.7-8.6.7l-.2 1.4z"/><path class="st10" d="M223.5 15.5s-1.3-.4-2.3-1c-1.1-.6-2.9-2-2.9-2s1-.9 1.5-1.4c.5-.5 1.2-.7 1.2-.7s1.1.3 2.9.7c1.8.4 5.6.8 7.6 1.1 1.4.3 2.6.5 3.2.6.2 0 .3.1.1.2-.4.2-1.5.7-3.8 1.3-3.3.8-7.5 1.2-7.5 1.2z"/><path class="st1" d="M223.5 15.6s-.1 0 0 0c-.1 0-1.3-.4-2.4-1.1-1.1-.6-2.8-1.9-2.9-2l-.1-.1c0-.1 0-.1.1-.1 0 0 1-.9 1.5-1.4.5-.5 1.2-.8 1.2-.8h.1s1.1.3 2.9.7c1.1.2 2.8.5 4.4.7 1.2.2 2.3.3 3.2.4 1.4.3 2.6.5 3.2.6.1 0 .3.1.3.2s0 .2-.2.3c-.4.3-1.5.8-3.8 1.4-3.2.9-7.5 1.2-7.5 1.2zm-5-3.2c.5.3 1.9 1.4 2.7 1.9.9.5 2.1.9 2.3 1 .4 0 4.4-.4 7.4-1.2 2.1-.5 3.1-1 3.6-1.3-.6-.1-1.8-.3-3.1-.6-.8-.1-2-.3-3.2-.4-1.7-.2-3.4-.4-4.5-.7-1.6-.4-2.6-.6-2.8-.7-.2.1-.7.3-1.1.7-.3.4-1 1.1-1.3 1.3z"/><path class="st10" d="M220.9 15.5c-.5.1-1.8.1-5.3-.1-5-.3-6.7-.7-6.7-.7s.2-.5 1.2-1.1c1-.6 4.5-2.1 4.5-2.1s.5 0 2-.1 1.9-.2 1.9-.2.1 1.3.6 2.2c.4.7 1.5 1.6 1.9 1.9.1.1.1.2-.1.2z"/><path class="st1" d="M219.6 15.7c-.8 0-2.1 0-4-.1-4.9-.3-6.7-.7-6.7-.7s-.1 0-.1-.1v-.1s.3-.5 1.3-1.1c1-.6 4.3-2 4.5-2.1h.1s.5 0 2-.1c1.4-.1 1.8-.2 1.8-.2h.1l.1.1s.1 1.2.6 2.1c.4.7 1.4 1.5 1.8 1.9.1.1.2.2.1.3 0 .2-.2.2-.3.2-.2-.1-.6-.1-1.3-.1zm-10.3-1.1c.6.1 2.5.4 6.4.7 3.2.2 4.5.2 5.1.1-.5-.4-1.4-1.2-1.8-1.9-.4-.7-.6-1.7-.6-2-.2 0-.8.1-1.7.2-1.3.1-1.8.1-2 .1-.4.2-3.5 1.5-4.4 2.1-.6.2-.9.5-1 .7z"/><path class="st7" d="M221.3 9.2l-.1 2.8c0 .7-2 1.1-4.3 1-2.4-.1-4.3-.7-4.2-1.3l.1-2.8"/><path class="st0" d="M212.7 9.7s-2-1-4.7-1.3c-2.7-.3-10.2-.5-10.2-.8-.1-.2.6-.8 1.4-1.2.8-.3 1.4-.4 2.7-.3 1.3.1 3.1.5 5.7 1.2l5.2 1.4-.1 1z"/><path class="st5" d="M212.7 9.9c-.1 0-.1 0 0 0-.1 0-2.1-1-4.7-1.3-1.2-.2-3.6-.3-5.7-.4-4.5-.2-4.7-.3-4.7-.5-.1-.4.8-1.1 1.5-1.4.8-.4 1.5-.5 2.8-.4 1.3.1 3 .5 5.7 1.2l5.2 1.4c.1 0 .1.1.1.2v1l-.2.2zm-14.8-2.4c.5.1 2.6.2 4.4.3 2.1.1 4.4.2 5.7.4 2.1.3 3.9 1 4.5 1.2v-.6l-5-1.3c-2.8-.7-4.4-1.1-5.7-1.2-1.3-.1-1.8 0-2.6.3-.7.3-1.2.7-1.3.9z"/><path class="st0" d="M217.9 7.7l-3.7.2s-1.6-1.2-3.5-2.1c-1.5-.7-3.6-1.6-4.3-1.8-.1-.1-.1-.1.1-.1.7-.1 2.4-.3 4.3-.2 2.4.2 6.4 1.3 6.4 1.3s.2.5.5 1.3l.2 1.4z"/><path class="st5" d="M214.2 8c-.1 0-.1 0 0 0-.1 0-1.8-1.3-3.6-2.1-1.5-.7-3.5-1.5-4.3-1.8-.1-.1-.2-.1-.2-.2 0-.2.2-.2.3-.2.7-.1 2.4-.3 4.3-.2 2.4.2 6.4 1.3 6.4 1.3.1 0 .1.1.1.1s.2.5.5 1.3c.2.8.3 1.5.3 1.6v.1l-.1.1h-3.7zm-7.4-4.1c1 .4 2.7 1.1 3.9 1.7 1.7.8 3.2 1.9 3.5 2.1l3.5-.2c0-.3-.1-.8-.3-1.3-.2-.6-.4-1-.4-1.2-.6-.2-4.1-1.1-6.3-1.3-1.6-.1-3.1.1-3.9.2z"/><path class="st0" d="M213.3 11.3s-1.9-.6-4.1-.2c-2.2.3-3.1 1-4.1 1.3-.7.2-1.6.3-2.1.4-.2 0-.4 0-.6-.1-.4-.1-1.2-.4-2.1-.9-1.2-.6-2.1-1.3-2.1-1.3s2.8-.2 6.5-.3c3.7-.1 8.7-.3 8.7-.3l-.1 1.4z"/><path class="st5" d="M202.8 12.9c-.2 0-.4 0-.5-.1-.5-.2-1.3-.5-2.1-.9-1.2-.6-2.1-1.3-2.1-1.3-.1 0-.1-.1-.1-.2s.1-.1.1-.1 2.8-.2 6.5-.3c3.7-.1 8.7-.3 8.7-.3h.1s.1.1 0 .1v1.4c0 .1 0 .1-.1.1h-.1s-1.9-.5-4.1-.2c-1.5.2-2.3.6-3.1.9-.4.2-.7.3-1 .4-.8.2-1.7.3-2.1.4 0 .1 0 .1-.1.1zm-4.2-2.2c.4.3 1 .7 1.7 1 .8.4 1.6.7 2.1.9.2.1.3.1.5.1.5 0 1.3-.1 2.1-.3.3-.1.6-.2 1-.4.7-.3 1.6-.7 3.2-.9 1.8-.3 3.4 0 4 .2v-1c-.9 0-5.3.2-8.6.3-2.7-.2-5 0-6 .1z"/><path class="st0" d="M220.9 9l-3-1s1.9-1.1 2.9-2.2c.7-.8 1.1-1.5 1.3-1.8.1-.1.1-.2.3-.2.5 0 1.8.1 4.1.8 2.9.9 5.2 2.8 5.2 2.8s-1.5.6-3.4.9c-3.6.6-7.4.7-7.4.7z"/><path class="st5" d="M220.9 9.2c-.1 0-.1 0 0 0l-3-1c-.1 0-.1-.1-.1-.1 0-.1 0-.1.1-.2 0 0 1.9-1.1 2.8-2.2.7-.8 1.1-1.5 1.3-1.8.1-.2.2-.3.4-.3.5 0 1.9.1 4.2.8 2.9.9 5.2 2.8 5.2 2.8s.1.1.1.2 0 .1-.1.1c0 0-1.6.7-3.4.9-3.7.7-7.5.8-7.5.8zM218.3 8l2.6.9c.4 0 4-.1 7.3-.6 1.3-.2 2.5-.6 3-.8-.6-.5-2.6-1.9-4.9-2.6-2.2-.7-3.6-.8-4.1-.8-.1 0-.1 0-.1.1-.2.4-.6 1.1-1.3 1.9-.7.7-1.9 1.5-2.5 1.9z"/><path class="st0" d="M234.6 12.6s-1.5.2-4.9-.3c-3.4-.5-8.6-1.7-8.6-1.7V8.9s5.8-.3 8.8-.8c2.4-.3 4-.6 4.5-.7.1 0 .3 0 .4.1.5.2 1.7 1 1.8 2.5.3 1.8-2 2.6-2 2.6z"/><path class="st5" d="M233.7 12.8c-.8 0-2.1-.1-4-.3-3.4-.5-8.6-1.7-8.6-1.7-.1 0-.1-.1-.1-.2V8.9c0-.1.1-.2.2-.2s5.8-.3 8.7-.8c2.4-.3 3.9-.6 4.5-.7.2 0 .4 0 .5.1.5.3 1.7 1 1.9 2.6.2 2-2.2 2.9-2.2 2.9h-.9zm.9-.2zm-13.3-2.1c.8.2 5.4 1.3 8.5 1.7 3.1.4 4.6.3 4.8.3.2-.1 2.1-.9 2-2.5-.2-1.4-1.3-2.1-1.7-2.3-.1 0-.2-.1-.3 0-.6.1-2.2.4-4.5.7-2.7.4-7.7.7-8.6.7l-.2 1.4z"/><ellipse transform="rotate(-87.96 217.058 9.004)" class="st7" cx="217.1" cy="9" rx="1.2" ry="4.3"/><path class="st1" d="M217.5 10.4h-.5c-2-.1-3.7-.5-4.2-1.1-.1-.1-.2-.3-.2-.4 0-.4.5-.7 1.4-1 .8-.2 1.9-.3 3.1-.2 2.2.1 4.4.6 4.4 1.5 0 .8-2 1.2-4 1.2zm-.9-2.4c-.9 0-1.8.1-2.4.2-.8.2-1.1.5-1.2.6 0 .1 0 .1.1.2.4.4 1.9.9 4 1 2.6.1 4.1-.5 4.1-.9s-1.5-1.1-4.1-1.2c-.2.1-.4.1-.5.1z"/><path class="st0" d="M223.6 15.1s-1.3-.4-2.3-1c-1.1-.6-2.9-2-2.9-2s1-.9 1.5-1.4c.5-.5 1.2-.7 1.2-.7s1.1.3 2.9.7 5.6.8 7.6 1.1c1.4.3 2.6.5 3.2.6.2 0 .3.1.1.2-.4.2-1.5.7-3.8 1.3-3.3.8-7.5 1.2-7.5 1.2z"/><path class="st5" d="M223.6 15.2s-.1 0 0 0c-.1 0-1.3-.4-2.4-1.1-1.1-.6-2.8-1.9-2.9-2l-.1-.1c0-.1 0-.1.1-.1 0 0 1-.9 1.5-1.4.5-.5 1.2-.8 1.2-.8h.1s1.1.3 2.9.7c1.1.2 2.8.5 4.4.7 1.2.2 2.3.3 3.2.4 1.4.3 2.6.5 3.2.6.1 0 .3.1.3.2s0 .2-.2.3c-.4.3-1.5.8-3.8 1.4-3.2.9-7.5 1.2-7.5 1.2zm-5-3.2c.5.3 1.9 1.4 2.7 1.9.9.5 2.1.9 2.3 1 .4 0 4.4-.4 7.4-1.2 2.1-.5 3.1-1 3.6-1.3-.6-.1-1.8-.3-3.1-.6-.8-.1-2-.3-3.2-.4-1.7-.2-3.4-.4-4.5-.7-1.6-.4-2.6-.6-2.8-.7-.2.1-.7.3-1.1.7-.3.5-1 1.1-1.3 1.3zm16.2.5z"/><path class="st0" d="M221 15.1c-.5.1-1.8.1-5.3-.1-5-.3-6.7-.7-6.7-.7s.2-.5 1.2-1.1c1-.6 4.5-2.1 4.5-2.1s.5 0 2-.1 1.9-.2 1.9-.2.1 1.3.6 2.2c.4.7 1.5 1.6 1.9 1.9.1.1.1.2-.1.2z"/><path class="st5" d="M219.7 15.3c-.8 0-2.1 0-4-.1-4.9-.3-6.7-.7-6.7-.7s-.1 0-.1-.1v-.1s.3-.5 1.3-1.1c1-.6 4.3-2 4.5-2.1h.1s.5 0 2-.1c1.4-.1 1.8-.2 1.8-.2h.1l.1.1s.1 1.2.6 2.1c.4.7 1.4 1.5 1.8 1.9.1.1.2.2.1.3 0 .2-.2.2-.3.2-.2-.1-.6-.1-1.3-.1zm-10.3-1.1c.6.1 2.5.4 6.4.7 3.2.2 4.5.2 5.1.1-.6-.5-1.4-1.2-1.8-1.9-.4-.7-.6-1.7-.6-2-.2 0-.8.1-1.7.2-1.3.1-1.8.1-2 .1-.4.2-3.5 1.5-4.4 2.1-.6.2-.9.5-1 .7z"/><path class="st3" d="M194.9 13.4v-2.9"/><path class="st5" d="M194.5 10.5h.8v3h-.8z"/><path class="st3" d="M238.4 15.4v-3"/><path class="st5" d="M238 12.4h.8v3h-.8z"/><path class="st0" d="M216.9 25.2c-11-.6-20.2 1.7-22.2 5.2v3.1c2.1 3.6 10.9 6.6 21.6 7.2 11.2.6 20.5-1.8 22.3-5.4v-2.6c-1.7-3.7-10.7-6.9-21.7-7.5z"/><path class="st5" d="M219.7 41.1c-1.1 0-2.2 0-3.3-.1-10.3-.5-19.2-3.4-21.7-7-.1-.1-.1-.3.1-.4.1-.1.3-.1.4.1 2.4 3.5 11.1 6.2 21.2 6.7 10.3.5 19.4-1.5 21.8-4.8.1-.1.3-.2.4-.1.1.1.2.3.1.4-2.3 3.2-9.9 5.2-19 5.2z"/><path class="st3" d="M238.8 29.8c.2.4.3.8.2 1.3-.2 4.3-10.3 7.3-22.7 6.6-12.3-.7-22.3-4.7-22.1-9 0-.3.1-.7.2-1 1.6-3.7 11.1-6.2 22.5-5.6 11.2.6 20.3 3.9 21.9 7.7z"/><path class="st5" d="M219.6 38.2c-1.1 0-2.2 0-3.3-.1-12.8-.7-22.7-4.8-22.5-9.3 0-.4.1-.8.3-1.2 1.7-4 11.3-6.4 22.9-5.9 11.2.6 20.6 3.9 22.3 7.9.2.5.3 1 .3 1.5 0 1-.5 1.9-1.5 2.8-3 2.6-10.2 4.3-18.5 4.3zm-6-15.7c-9.6 0-17.4 2.2-18.8 5.4-.1.3-.2.6-.2.9-.2 4 9.8 7.9 21.7 8.5 9.4.5 17.9-1.1 21.1-4 .8-.7 1.2-1.4 1.2-2.2 0-.4-.1-.7-.2-1.1-1.5-3.7-10.8-6.8-21.5-7.4-1.1-.1-2.2-.1-3.3-.1z"/><path class="st6" d="M237.4 29.9c.2.3.2.7.2 1-.2 3.5-9.7 5.9-21.3 5.3-11.6-.6-20.8-3.9-20.7-7.4 0-.3.1-.6.2-.8 1.5-3 10.4-5 21.1-4.5 10.5.6 19.1 3.3 20.5 6.4z"/><path class="st7" d="M237.5 30c.2.3.2.7.2 1-.2 3.5-9.7 5.9-21.3 5.3-11.6-.6-20.8-3.9-20.7-7.4 0-.3.1-.6.2-.8 1.5-3 10.4-5 21.1-4.5 10.5.6 19 3.3 20.5 6.4z"/><path class="st1" d="M219.7 36.5c-1.1 0-2.2 0-3.4-.1-11.6-.6-21-3.9-20.8-7.5h.3c-.2 3.4 9 6.6 20.5 7.2 11.5.6 21-1.8 21.1-5.2v-.5l.3-.1c0 .2.1.4 0 .6-.1 3.3-7.9 5.6-18 5.6z"/><path class="st8" d="M237.5 30.5c0-.2-.1-.3-.2-.5-1.5-3.1-10.2-5.7-20.3-6.2-10.4-.5-19.4 1.4-20.9 4.4-.1.3-.2.5-.2.8h-.3c0-.3.1-.6.2-.9 1.6-3.1 10.7-5.1 21.2-4.5 10.4.5 19 3.2 20.6 6.4.1.2.2.4.2.5h-.3z"/><path class="st9" d="M221.1 29.6l-.1 2.8c0 .7-2 1.1-4.3 1-2.4-.1-4.3-.7-4.2-1.3l.1-2.8"/><path class="st10" d="M212.6 30.3s-2-1-4.7-1.3c-2.7-.3-10.2-.5-10.2-.8s.6-.8 1.4-1.2c.8-.3 1.4-.4 2.7-.3 1.3.1 3.1.5 5.7 1.2l5.2 1.4-.1 1z"/><path class="st1" d="M212.6 30.4c-.1 0-.1 0 0 0-.1 0-2.1-1-4.7-1.3-1.2-.2-3.6-.3-5.7-.4-4.5-.2-4.6-.3-4.7-.5-.1-.4.8-1.1 1.5-1.4.8-.4 1.5-.5 2.8-.4 1.3.1 3 .5 5.7 1.2l5.2 1.4c.1 0 .1.1.1.2v1c-.1.1-.1.2-.2.2zm-14.8-2.3c.5.1 2.6.2 4.4.3 2.1.1 4.4.2 5.7.4 2.1.3 3.9 1 4.5 1.2v-.6l-5-1.3c-2.8-.7-4.4-1.1-5.7-1.2-1.3-.1-1.8 0-2.6.3-.7.2-1.2.7-1.3.9z"/><path class="st10" d="M217.8 28.3l-3.7.2s-1.6-1.2-3.5-2.1c-1.5-.7-3.6-1.6-4.3-1.8-.1-.1-.1-.1.1-.1.7-.1 2.4-.3 4.3-.2 2.4.2 6.4 1.3 6.4 1.3s.2.5.5 1.3.2 1.4.2 1.4z"/><path class="st1" d="M214 28.6c-.1 0-1.8-1.3-3.6-2.1-1.5-.7-3.6-1.6-4.3-1.8-.1-.1-.2-.1-.2-.2 0-.2.2-.2.3-.2.7-.1 2.4-.3 4.3-.2 2.4.2 6.4 1.3 6.4 1.3.1 0 .1.1.1.1s.2.5.5 1.3c.2.8.3 1.5.3 1.6v.1l-.1.1H214zm-7.3-4.1c.9.4 2.6 1.1 3.9 1.7 1.7.8 3.2 1.9 3.5 2.1l3.5-.2c0-.3-.1-.8-.3-1.3-.2-.6-.4-1-.4-1.2-.6-.2-4.1-1.1-6.3-1.3-1.6-.1-3.1.1-3.9.2z"/><path class="st10" d="M213.2 31.9s-1.9-.6-4.1-.2c-2.2.3-3.1 1-4.1 1.3-.7.2-1.6.3-2.1.4-.2 0-.4 0-.6-.1-.4-.1-1.2-.4-2.1-.9-1.2-.6-2.1-1.3-2.1-1.3s2.8-.2 6.5-.3c3.7-.1 8.7-.3 8.7-.3l-.1 1.4z"/><path class="st1" d="M202.7 33.5c-.2 0-.4 0-.5-.1-.4-.1-1.2-.4-2.1-.9-1.2-.6-2.1-1.3-2.1-1.3-.1 0-.1-.1-.1-.2s.1-.1.1-.1 2.8-.2 6.5-.3c3.7-.1 8.7-.3 8.7-.3h.1s.1.1 0 .1v1.4c0 .1 0 .1-.1.1h-.1s-1.9-.5-4.1-.2c-1.5.2-2.3.6-3.1.9-.4.2-.7.3-1 .4-.8.2-1.7.3-2.1.4 0 .1 0 .1-.1.1zm-4.2-2.3c.4.3 1 .7 1.7 1 .9.4 1.7.7 2.1.9.2.1.3.1.5.1.5 0 1.3-.1 2.1-.3.3-.1.6-.2 1-.4.7-.3 1.7-.7 3.2-.9 1.8-.3 3.4 0 4 .2v-1c-.9 0-5.3.2-8.6.3-2.8-.1-5.1.1-6 .1z"/><path class="st10" d="M220.7 29.6l-3-1s1.9-1.1 2.9-2.2c.7-.8 1.1-1.5 1.3-1.8.1-.1.1-.2.3-.2.5 0 1.8.1 4.1.8 2.9.9 5.2 2.8 5.2 2.8s-1.5.6-3.4.9c-3.5.6-7.4.7-7.4.7z"/><path class="st1" d="M220.7 29.7l-3-1c-.1 0-.1-.1-.1-.1 0-.1 0-.1.1-.2 0 0 1.9-1.1 2.8-2.2.7-.8 1.1-1.5 1.3-1.8.1-.2.2-.3.4-.3.5 0 1.9.1 4.1.8 2.9.9 5.2 2.8 5.2 2.8s.1.1.1.2 0 .1-.1.1c0 0-1.6.7-3.4.9-3.5.8-7.3.8-7.4.8zm-2.6-1.2l2.6.9c.4 0 4-.1 7.3-.6 1.3-.2 2.5-.6 3-.8-.6-.5-2.6-1.9-4.9-2.6-2.2-.7-3.6-.8-4.1-.8-.1 0-.1 0-.1.1-.1.3-.6 1-1.3 1.9-.6.7-1.9 1.6-2.5 1.9z"/><path class="st10" d="M234.5 33.2s-1.5.2-4.9-.3c-3.4-.5-8.6-1.7-8.6-1.7v-1.7s5.8-.3 8.8-.8c2.4-.3 4-.6 4.5-.7.1 0 .3 0 .4.1.5.2 1.7 1 1.8 2.5.3 1.8-2 2.6-2 2.6z"/><path class="st1" d="M233.6 33.4c-.8 0-2.1-.1-3.9-.3-3.4-.5-8.6-1.7-8.6-1.7-.1 0-.1-.1-.1-.2v-1.7c0-.1.1-.2.2-.2s5.8-.3 8.7-.8c2.4-.3 3.9-.6 4.5-.7.2 0 .4 0 .5.1.5.3 1.7 1 1.9 2.6.2 2-2.2 2.9-2.2 2.9h-1zm.9-.2zm-13.3-2.1c.8.2 5.4 1.3 8.5 1.7 3.1.4 4.6.3 4.8.3.2-.1 2.1-.9 2-2.5-.2-1.4-1.3-2.1-1.7-2.3-.1 0-.2-.1-.3 0-.6.1-2.1.4-4.5.7-2.7.4-7.7.7-8.6.7l-.2 1.4z"/><path class="st10" d="M223.5 35.7s-1.3-.4-2.3-1-2.9-2-2.9-2 1-.9 1.5-1.4c.5-.5 1.2-.7 1.2-.7s1.1.3 2.9.7c1.8.4 5.6.8 7.6 1.1 1.4.3 2.6.5 3.2.6.2 0 .3.1.1.2-.4.2-1.5.7-3.8 1.3-3.3.8-7.5 1.2-7.5 1.2z"/><path class="st1" d="M223.5 35.8c-.1 0-.1 0 0 0-.1 0-1.3-.4-2.4-1.1-1.1-.6-2.8-1.9-2.9-2l-.1-.1c0-.1 0-.1.1-.1 0 0 1-.9 1.5-1.4.5-.5 1.2-.8 1.2-.8h.1s1.1.3 2.9.7c1.1.2 2.8.5 4.4.7 1.2.2 2.3.3 3.2.4 1.4.3 2.6.5 3.2.6.1 0 .3.1.3.2s0 .2-.2.3c-.4.3-1.5.8-3.8 1.4-3.2.9-7.5 1.2-7.5 1.2zm-5-3.2c.5.3 1.9 1.4 2.7 1.9.9.5 2.1.9 2.3 1 .4 0 4.4-.4 7.4-1.2 2.1-.5 3.1-1 3.6-1.3-.6-.1-1.8-.3-3.1-.6-.8-.1-2-.3-3.2-.4-1.7-.2-3.4-.4-4.5-.7-1.6-.4-2.6-.6-2.8-.7-.2.1-.7.3-1.1.7-.3.4-1 1.1-1.3 1.3z"/><path class="st10" d="M220.9 35.7c-.5.1-1.8.1-5.3-.1-5-.3-6.7-.7-6.7-.7s.2-.5 1.2-1.1c1-.6 4.5-2.1 4.5-2.1s.5 0 2-.1 1.9-.2 1.9-.2.1 1.3.6 2.2c.4.7 1.5 1.6 1.9 1.9.1.1.1.2-.1.2z"/><path class="st1" d="M219.6 35.9c-.8 0-2.1 0-4-.1-4.9-.3-6.7-.7-6.7-.7s-.1 0-.1-.1v-.1s.3-.5 1.3-1.1c1-.6 4.3-2 4.5-2.1h.1s.5 0 2-.1c1.4-.1 1.8-.2 1.8-.2h.1l.1.1s.1 1.2.6 2.1c.4.7 1.4 1.5 1.8 1.9.1.1.2.2.1.3 0 .2-.2.2-.3.2-.2-.1-.6-.1-1.3-.1zm1.3-.2zm-11.6-.9c.6.1 2.5.4 6.4.7 3.2.2 4.5.2 5.1.1-.5-.4-1.4-1.2-1.8-1.9-.4-.7-.6-1.7-.6-2-.2 0-.8.1-1.7.2-1.3.1-1.8.1-2 .1-.4.2-3.5 1.5-4.4 2.1-.6.2-.9.5-1 .7z"/><path class="st7" d="M221.3 29.4l-.1 2.8c0 .7-2 1.1-4.3 1-2.4-.1-4.3-.7-4.2-1.3l.1-2.8"/><path class="st0" d="M212.6 29.9s-2-1-4.7-1.3c-2.7-.3-10.2-.5-10.2-.8-.1-.2.6-.8 1.4-1.2.8-.3 1.4-.4 2.7-.3s3.1.5 5.7 1.2l5.2 1.4-.1 1z"/><path class="st5" d="M212.6 30.1c-.1 0-2.1-1-4.7-1.3-1.2-.2-3.6-.3-5.7-.4-4.5-.2-4.7-.3-4.7-.5-.1-.4.8-1.1 1.5-1.4.8-.4 1.5-.5 2.8-.4 1.3.1 3 .5 5.7 1.2l5.2 1.4c.1 0 .1.1.1.2v1c0 .1 0 .1-.2.2.1 0 .1 0 0 0zm-14.7-2.4c.5.1 2.6.2 4.4.3 2.1.1 4.4.2 5.7.4 2.1.3 3.9 1 4.5 1.2V29l-5-1.3c-2.8-.7-4.4-1.1-5.7-1.2-1.3-.1-1.8 0-2.6.3-.7.3-1.2.7-1.3.9z"/><path class="st0" d="M217.9 27.9l-3.7.2s-1.6-1.2-3.5-2.1c-1.5-.7-3.6-1.6-4.3-1.8-.1-.1-.1-.1.1-.1.7-.1 2.4-.3 4.3-.2 2.4.2 6.4 1.3 6.4 1.3s.2.5.5 1.3.2 1.4.2 1.4z"/><path class="st5" d="M214.1 28.2c-.1 0-1.8-1.3-3.6-2.1-1.5-.7-3.5-1.5-4.3-1.8-.1-.1-.2-.1-.2-.2 0-.2.2-.2.3-.2.7-.1 2.4-.3 4.3-.2 2.4.2 6.4 1.3 6.4 1.3.1 0 .1.1.1.1s.2.5.5 1.3c.2.8.3 1.5.3 1.6v.1l-.1.1h-3.7zm-7.3-4.1c1 .4 2.7 1.1 3.9 1.7 1.7.8 3.2 1.9 3.5 2.1l3.5-.2c0-.3-.1-.8-.3-1.3-.2-.6-.4-1-.4-1.2-.6-.2-4.1-1.1-6.3-1.3-1.6-.1-3.1.1-3.9.2z"/><path class="st0" d="M213.3 31.5s-1.9-.6-4.1-.2c-2.2.3-3.1 1-4.1 1.3-.7.2-1.6.3-2.1.4-.2 0-.4 0-.6-.1-.4-.1-1.2-.4-2.1-.9-1.2-.6-2.1-1.3-2.1-1.3s2.8-.2 6.5-.3c3.7-.1 8.7-.3 8.7-.3l-.1 1.4z"/><path class="st5" d="M202.8 33.1c-.2 0-.4 0-.5-.1-.4-.1-1.2-.5-2.1-.9-1.2-.6-2.1-1.3-2.1-1.3-.1 0-.1-.1-.1-.2s.1-.1.1-.1 2.8-.2 6.5-.3c3.7-.1 8.7-.3 8.7-.3h.1s.1.1 0 .1v1.4c0 .1 0 .1-.1.1h-.1s-1.9-.5-4.1-.2c-1.5.2-2.3.6-3.1.9-.4.2-.7.3-1 .4-.8.2-1.7.3-2.1.4 0 .1 0 .1-.1.1zm-4.2-2.2c.4.3 1 .7 1.7 1 .9.4 1.7.7 2.1.9.2.1.3.1.5.1.5 0 1.3-.1 2.1-.3.3-.1.6-.2 1-.4.7-.3 1.6-.7 3.2-.9 1.8-.3 3.4 0 4 .2v-1c-.9 0-5.3.2-8.6.3-2.8-.2-5.1 0-6 .1z"/><g><path class="st0" d="M220.8 29.2l-3-1s1.9-1.1 2.9-2.2c.7-.8 1.1-1.5 1.3-1.8.1-.1.1-.2.3-.2.5 0 1.8.1 4.1.8 2.9.9 5.2 2.8 5.2 2.8s-1.5.6-3.4.9c-3.6.6-7.4.7-7.4.7z"/><path class="st5" d="M220.8 29.4l-3-1c-.1 0-.1-.1-.1-.1 0-.1 0-.1.1-.2 0 0 1.9-1.1 2.8-2.2.7-.8 1.1-1.5 1.3-1.8.1-.2.2-.3.4-.3.5 0 1.9.1 4.2.8 2.9.9 5.2 2.8 5.2 2.8s.1.1.1.2 0 .1-.1.1c0 0-1.6.7-3.4.9-3.6.7-7.4.8-7.5.8zm-2.6-1.2l2.6.9c.4 0 4-.1 7.3-.6 1.3-.2 2.5-.6 3-.8-.6-.5-2.6-1.9-4.9-2.6-2.3-.7-3.6-.8-4.1-.8-.1 0-.1 0-.1.1-.2.4-.6 1.1-1.3 1.9-.6.7-1.9 1.5-2.5 1.9z"/></g><g><path class="st0" d="M234.6 32.8s-1.5.2-4.9-.3c-3.4-.5-8.6-1.7-8.6-1.7v-1.7s5.8-.3 8.8-.8c2.4-.3 4-.6 4.5-.7.1 0 .3 0 .4.1.5.2 1.7 1 1.8 2.5.3 1.8-2 2.6-2 2.6z"/><path class="st5" d="M233.7 33c-.8 0-2.1-.1-3.9-.3-3.4-.5-8.6-1.7-8.6-1.7-.1 0-.1-.1-.1-.2v-1.7c0-.1.1-.2.2-.2s5.8-.3 8.7-.8c2.4-.3 3.9-.6 4.5-.7.2 0 .4 0 .5.1.5.3 1.7 1 1.9 2.6.2 2-2.2 2.9-2.2 2.9h-1zm.9-.2zm-13.3-2.1c.8.2 5.4 1.3 8.5 1.7 3.1.4 4.6.3 4.8.3.2-.1 2.1-.9 2-2.5-.2-1.4-1.3-2.1-1.7-2.3-.1 0-.2-.1-.3 0-.6.1-2.1.4-4.5.7-2.7.4-7.7.7-8.6.7l-.2 1.4z"/></g><ellipse transform="rotate(-87.96 217.036 29.198)" class="st7" cx="217" cy="29.2" rx="1.2" ry="4.3"/><path class="st1" d="M217.5 30.6h-.6c-2-.1-3.7-.5-4.2-1.1-.1-.1-.2-.3-.2-.4 0-.4.5-.7 1.4-1 .8-.2 1.9-.3 3.1-.2 2 .1 3.7.5 4.2 1.1.1.1.2.3.2.4 0 .4-.5.7-1.4 1-.6.1-1.5.2-2.5.2zm-1-2.4c-.9 0-1.8.1-2.4.2-.8.2-1.1.5-1.2.6 0 .1 0 .1.1.2.4.4 1.9.9 4 1 1.1 0 2.2 0 3-.2.8-.2 1.1-.5 1.2-.6 0-.1 0-.1-.1-.2-.4-.4-1.9-.9-4-1h-.6z"/><g><path class="st0" d="M223.6 35.3s-1.3-.4-2.3-1c-1.1-.6-2.9-2-2.9-2s1-.9 1.5-1.4c.5-.5 1.2-.7 1.2-.7s1.1.3 2.9.7 5.6.8 7.6 1.1c1.4.3 2.6.5 3.2.6.2 0 .3.1.1.2-.4.2-1.5.7-3.8 1.3-3.3.8-7.5 1.2-7.5 1.2z"/><path class="st5" d="M223.6 35.4c-.1 0-.1 0 0 0-.1 0-1.3-.4-2.4-1.1-1.1-.6-2.8-1.9-2.9-2l-.1-.1c0-.1 0-.1.1-.1 0 0 1-.9 1.5-1.4.5-.5 1.2-.8 1.2-.8h.1s1.1.3 2.9.7c1.1.2 2.8.5 4.4.7 1.2.2 2.3.3 3.2.4 1.4.3 2.6.5 3.2.6.1 0 .3.1.3.2s0 .2-.2.3c-.4.3-1.5.8-3.8 1.4-3.2.9-7.5 1.2-7.5 1.2zm-5-3.2c.5.3 1.9 1.4 2.7 1.9.9.5 2.1.9 2.3 1 .4 0 4.4-.4 7.4-1.2 2.1-.5 3.1-1 3.6-1.3-.6-.1-1.8-.3-3.1-.6-.8-.1-2-.3-3.2-.4-1.7-.2-3.4-.4-4.5-.7-1.6-.4-2.6-.6-2.8-.7-.2.1-.7.3-1.1.7-.3.4-1 1.1-1.3 1.3zm16.2.5z"/></g><g><path class="st0" d="M221 35.3c-.5.1-1.8.1-5.3-.1-5-.3-6.7-.7-6.7-.7s.2-.5 1.2-1.1c1-.6 4.5-2.1 4.5-2.1s.5 0 2-.1 1.9-.2 1.9-.2.1 1.3.6 2.2c.4.7 1.5 1.6 1.9 1.9.1.1.1.2-.1.2z"/><path class="st5" d="M219.7 35.5c-.8 0-2.1 0-4-.1-4.9-.3-6.7-.7-6.7-.7s-.1 0-.1-.1v-.1s.3-.5 1.3-1.1c1-.6 4.3-2 4.5-2.1h.1s.5 0 2-.1c1.4-.1 1.8-.2 1.8-.2h.1l.1.1s.1 1.2.6 2.1c.4.7 1.4 1.5 1.8 1.9.1.1.2.2.1.3 0 .2-.2.2-.3.2-.2-.1-.6-.1-1.3-.1zm1.3-.2zm-11.7-.9c.6.1 2.5.4 6.4.7 3.2.2 4.5.2 5.1.1-.5-.4-1.4-1.2-1.8-1.9-.4-.7-.6-1.7-.6-2-.2 0-.8.1-1.7.2-1.3.1-1.8.1-2 .1-.4.2-3.5 1.5-4.4 2.1-.5.2-.8.5-1 .7z"/></g><g><path class="st3" d="M194.9 33.6v-2.9"/><path class="st5" d="M194.5 30.7h.8v3h-.8z"/></g><g><path class="st3" d="M238.4 35.6v-3"/><path class="st5" d="M238 32.6h.8v3h-.8z"/></g><g><path class="st0" d="M155 5c-11-.6-20.2 1.7-22.2 5.2v3.1c2.1 3.6 10.9 6.6 21.6 7.2 11.2.6 20.5-1.8 22.3-5.4v-2.6C175 8.8 166 5.6 155 5z"/><path class="st5" d="M157.7 20.9c-1.1 0-2.2 0-3.3-.1-10.3-.5-19.2-3.4-21.7-7-.1-.1-.1-.3.1-.4.1-.1.3-.1.4.1 2.4 3.5 11.1 6.2 21.2 6.7 10.3.5 19.4-1.5 21.8-4.8.1-.1.3-.2.4-.1.1.1.2.3.1.4-2.2 3.2-9.8 5.2-19 5.2z"/><path class="st3" d="M176.9 9.6c.2.4.3.8.2 1.3-.2 4.3-10.3 7.3-22.7 6.6-12.4-.6-22.3-4.6-22.1-8.9 0-.3.1-.7.2-1 1.6-3.7 11.1-6.2 22.5-5.6 11.1.5 20.3 3.8 21.9 7.6z"/><path class="st5" d="M157.7 18c-1.1 0-2.2 0-3.3-.1-12.8-.7-22.7-4.8-22.5-9.3 0-.4.1-.8.3-1.2 1.7-4 11.3-6.4 22.9-5.9 11.2.6 20.6 3.9 22.3 7.9.2.5.3 1 .3 1.5 0 1-.5 1.9-1.5 2.8-3.1 2.6-10.2 4.3-18.5 4.3zm-6-15.7c-9.6 0-17.4 2.2-18.8 5.4-.1.3-.2.6-.2.9-.2 4 9.8 7.9 21.7 8.5 9.4.5 17.9-1.1 21.1-4 .8-.7 1.2-1.4 1.2-2.2 0-.4-.1-.7-.2-1.1C175 6.1 165.7 3 155 2.4c-1.1-.1-2.2-.1-3.3-.1z"/><path class="st6" d="M175.5 9.7c.2.3.2.7.2 1-.2 3.5-9.7 5.9-21.3 5.3-11.6-.6-20.8-3.9-20.7-7.4 0-.3.1-.6.2-.8 1.5-3 10.4-5 21.1-4.5 10.5.6 19 3.3 20.5 6.4z"/><path class="st7" d="M175.5 9.8c.2.3.2.7.2 1-.2 3.5-9.7 5.9-21.3 5.3-11.6-.6-20.8-3.9-20.7-7.4 0-.3.1-.6.2-.8 1.5-3 10.4-5 21.1-4.5 10.5.6 19.1 3.3 20.5 6.4z"/><path class="st1" d="M157.8 16.3c-1.1 0-2.2 0-3.4-.1-11.6-.6-21-3.9-20.8-7.5h.3c-.2 3.4 9 6.6 20.5 7.2 11.5.6 21-1.8 21.1-5.2v-.5l.3-.1c0 .2.1.4 0 .6-.1 3.3-7.9 5.6-18 5.6z"/><path class="st8" d="M175.5 10.3c0-.2-.1-.3-.2-.5-1.5-3.1-10.2-5.7-20.3-6.2-10.4-.5-19.4 1.4-20.9 4.4-.1.3-.2.5-.2.8h-.3c0-.3.1-.6.2-.9 1.6-3.1 10.7-5.1 21.2-4.5 10.4.5 19 3.2 20.6 6.4.1.2.2.4.2.5h-.3z"/><path class="st9" d="M159.2 9.4l-.1 2.8c0 .7-2 1.1-4.3 1-2.4-.1-4.3-.7-4.2-1.3l.1-2.8"/><path class="st10" d="M150.6 10.1s-2-1-4.7-1.3c-2.7-.3-10.2-.5-10.2-.8-.1-.2.6-.8 1.4-1.2s1.4-.4 2.7-.3c1.3.1 3.1.5 5.7 1.2l5.2 1.4-.1 1z"/><path class="st1" d="M150.6 10.3s0-.1 0 0c-.1 0-2.1-1-4.7-1.3-1.2-.2-3.6-.3-5.7-.4-4.5-.2-4.6-.3-4.7-.5-.1-.4.8-1.1 1.5-1.4.8-.4 1.5-.5 2.8-.4 1.3.1 2.9.5 5.7 1.2l5.2 1.4c.1 0 .1.1.1.2v1c0 .1 0 .1-.2.2.1-.1.1 0 0 0zm-14.7-2.4c.5.1 2.6.2 4.4.3 2.1.1 4.4.2 5.7.4 2.1.3 3.9 1 4.5 1.2v-.6l-5-1.3c-2.8-.7-4.4-1.1-5.7-1.2-1.2-.1-1.8 0-2.6.3-.7.3-1.2.7-1.3.9z"/><path class="st10" d="M155.8 8.1l-3.7.2s-1.6-1.2-3.5-2.1c-1.5-.7-3.6-1.6-4.3-1.8-.1-.1-.1-.1.1-.1.7-.1 2.4-.3 4.3-.2 2.4.2 6.4 1.3 6.4 1.3s.2.5.5 1.3.2 1.4.2 1.4z"/><path class="st1" d="M152.1 8.4h-.1s-1.6-1.2-3.5-2.1c-1.5-.7-3.6-1.6-4.3-1.8-.1-.1-.2-.1-.2-.2 0-.2.2-.2.3-.2.7-.1 2.4-.3 4.3-.2 2.4.2 6.4 1.3 6.4 1.3.1 0 .1.1.1.1s.2.5.5 1.3c.2.8.3 1.5.3 1.6v.1l-.1.1h-3.7zm-7.3-4.1c.9.4 2.6 1.1 3.9 1.7 1.7.8 3.2 1.9 3.5 2.1l3.5-.2c0-.3-.1-.8-.3-1.3-.2-.6-.4-1-.4-1.2-.6-.2-4.1-1.1-6.3-1.3-1.6-.1-3.1.1-3.9.2z"/><path class="st10" d="M151.3 11.7s-1.9-.6-4.1-.2c-2.2.3-3.1 1-4.1 1.3-.7.2-1.6.3-2.1.4-.2 0-.4 0-.6-.1-.4-.1-1.2-.4-2.1-.9-1.2-.6-2.1-1.3-2.1-1.3s2.8-.2 6.5-.3c3.7-.1 8.7-.3 8.7-.3l-.1 1.4z"/><path class="st1" d="M140.8 13.3c-.2 0-.4 0-.5-.1-.4-.1-1.3-.5-2.1-.9-1.2-.6-2.1-1.3-2.1-1.3-.1 0-.1-.1-.1-.2s.1-.1.1-.1 2.8-.2 6.5-.3c3.7-.1 8.7-.3 8.7-.3h.1v1.5c0 .1 0 .1-.1.1h-.1s-1.9-.5-4.1-.2c-1.5.2-2.3.6-3.1.9-.4.2-.7.3-1 .4-.8.2-1.7.3-2.1.4 0 .1-.1.1-.1.1zm-4.2-2.2c.4.3 1 .7 1.7 1 .9.4 1.7.7 2.1.9.2.1.4.1.5.1.5 0 1.3-.1 2.1-.3.3-.1.6-.2 1-.4.7-.3 1.7-.7 3.2-.9 1.8-.3 3.4 0 4 .2v-1c-.9 0-5.3.2-8.6.3-2.8-.2-5.1 0-6 .1z"/><path class="st10" d="M158.8 9.4l-3-1s1.9-1.1 2.9-2.2c.7-.8 1.1-1.5 1.3-1.8.1-.1.1-.2.3-.2.5 0 1.8.1 4.1.8 2.9.9 5.2 2.8 5.2 2.8s-1.5.6-3.4.9c-3.6.6-7.4.7-7.4.7z"/><path class="st1" d="M158.8 9.6s0-.1 0 0l-3-1c-.1 0-.1-.1-.1-.1 0-.1 0-.1.1-.2 0 0 1.9-1.1 2.8-2.2.7-.8 1.1-1.5 1.3-1.8.1-.2.2-.3.4-.3.5 0 1.9.1 4.2.8 2.9.9 5.2 2.8 5.2 2.8s.1.1.1.2 0 .1-.1.1c0 0-1.6.7-3.4.9-3.6.7-7.4.8-7.5.8zm-2.6-1.3l2.6.9c.4 0 4-.1 7.3-.6 1.3-.2 2.5-.6 3-.8-.6-.5-2.6-1.9-4.9-2.6-2.3-.7-3.6-.8-4.1-.8-.1 0-.1 0-.1.1-.1.3-.6 1-1.3 1.9-.6.7-1.9 1.6-2.5 1.9z"/><path class="st10" d="M172.6 13s-1.5.2-4.9-.3c-3.4-.5-8.6-1.7-8.6-1.7V9.3s5.8-.3 8.8-.8c2.4-.3 4-.6 4.5-.7.1 0 .3 0 .4.1.5.2 1.7 1 1.8 2.5.3 1.8-2 2.6-2 2.6z"/><path class="st1" d="M171.7 13.2c-.8 0-2.1-.1-4-.3-3.4-.5-8.6-1.7-8.6-1.7-.1 0-.1-.1-.1-.2V9.3c0-.1.1-.2.2-.2s5.8-.3 8.7-.8c2.4-.3 3.9-.6 4.5-.7.2 0 .4 0 .5.1.5.3 1.7 1 1.9 2.6.2 2-2.2 2.9-2.2 2.9h-.9zm.9-.2zm-13.3-2.1c.8.2 5.4 1.3 8.5 1.7 3.1.4 4.6.3 4.8.3.2-.1 2.1-.9 2-2.5-.2-1.4-1.3-2.1-1.7-2.3-.1 0-.2-.1-.3 0-.6.1-2.2.4-4.5.7-2.7.4-7.7.7-8.6.7l-.2 1.4z"/><path class="st10" d="M161.5 15.5s-1.3-.4-2.3-1c-1.1-.6-2.9-2-2.9-2s1-.9 1.5-1.4c.5-.5 1.2-.7 1.2-.7s1.1.3 2.9.7c1.8.4 5.6.8 7.6 1.1 1.4.3 2.6.5 3.2.6.2 0 .3.1.1.2-.4.2-1.5.7-3.8 1.3-3.2.8-7.5 1.2-7.5 1.2z"/><path class="st1" d="M161.5 15.6c-.1 0-1.3-.4-2.4-1.1-1.1-.6-2.8-1.9-2.9-2l-.1-.1c0-.1 0-.1.1-.1 0 0 1-.9 1.5-1.4.5-.5 1.2-.8 1.2-.8h.1s1.1.3 2.9.7c1.1.2 2.8.5 4.4.7 1.2.2 2.3.3 3.2.4 1.4.3 2.6.5 3.2.6.1 0 .3.1.3.2s0 .2-.2.3c-.4.3-1.5.8-3.8 1.4-3.1.9-7.4 1.2-7.5 1.2zm-4.9-3.2c.5.3 1.9 1.4 2.7 1.9.9.5 2.1.9 2.3 1 .4 0 4.4-.4 7.4-1.2 2.1-.5 3.1-1 3.6-1.3-.6-.1-1.8-.3-3.1-.6-.8-.1-2-.3-3.2-.4-1.7-.2-3.4-.4-4.5-.7-1.6-.4-2.6-.6-2.8-.7-.2.1-.7.3-1.1.7-.3.4-1 1.1-1.3 1.3z"/><path class="st10" d="M159 15.5c-.5.1-1.8.1-5.3-.1-5-.3-6.7-.7-6.7-.7s.2-.5 1.2-1.1c1-.6 4.5-2.1 4.5-2.1s.5 0 2-.1 1.9-.2 1.9-.2.1 1.3.6 2.2c.4.7 1.5 1.6 1.9 1.9.1.1.1.2-.1.2z"/><path class="st1" d="M157.7 15.7c-.8 0-2.1 0-4-.1-4.9-.3-6.7-.7-6.7-.7s-.1 0-.1-.1v-.1s.3-.5 1.3-1.1c1-.6 4.3-2 4.5-2.1h.1s.5 0 2-.1c1.4-.1 1.8-.2 1.8-.2h.1l.1.1s.1 1.2.6 2.1c.4.7 1.4 1.5 1.8 1.9.1.1.2.2.1.3 0 .2-.2.2-.3.2-.2-.1-.6-.1-1.3-.1zm-10.4-1.1c.6.1 2.5.4 6.4.7 3.2.2 4.5.2 5.1.1-.5-.4-1.4-1.2-1.8-1.9-.4-.7-.6-1.7-.6-2-.2 0-.8.1-1.7.2-1.3.1-1.8.1-2 .1-.4.2-3.5 1.5-4.4 2.1-.5.2-.8.5-1 .7z"/><path class="st7" d="M159.4 9.2l-.1 2.8c0 .7-2 1.1-4.3 1-2.4-.1-4.3-.7-4.2-1.3l.1-2.8"/><path class="st0" d="M150.7 9.7s-2-1-4.7-1.3c-2.7-.3-10.2-.5-10.2-.8-.1-.2.6-.8 1.4-1.2.8-.3 1.4-.4 2.7-.3 1.3.1 3.1.5 5.7 1.2l5.2 1.4-.1 1z"/><path class="st5" d="M150.7 9.9c-.1 0-2.1-1-4.7-1.3-1.2-.2-3.6-.3-5.7-.4-4.5-.2-4.7-.3-4.7-.5-.1-.4.8-1.1 1.5-1.4.8-.4 1.5-.5 2.8-.4 1.3.1 3 .5 5.7 1.2l5.2 1.4c.1 0 .1.1.1.2v1c0 .1-.1.1-.2.2.1 0 0 0 0 0zM136 7.5c.5.1 2.6.2 4.4.3 2.1.1 4.4.2 5.7.4 2.1.3 3.9 1 4.5 1.2v-.6l-5-1.3c-2.8-.7-4.4-1.1-5.7-1.2-1.3-.1-1.8 0-2.6.3-.7.3-1.2.7-1.3.9z"/><path class="st0" d="M155.9 7.7l-3.7.2s-1.6-1.2-3.5-2.1c-1.5-.7-3.6-1.6-4.3-1.8-.1-.1-.1-.1.1-.1.7-.1 2.4-.3 4.3-.2 2.4.2 6.4 1.3 6.4 1.3s.2.5.5 1.3.2 1.4.2 1.4z"/><path class="st5" d="M152.2 8h-.1s-1.6-1.2-3.5-2.1c-1.5-.7-3.5-1.5-4.3-1.8-.1-.1-.2-.1-.2-.2 0-.2.2-.2.3-.2.7-.1 2.4-.3 4.3-.2 2.4.2 6.4 1.3 6.4 1.3.1 0 .1.1.1.1s.2.5.5 1.3c.2.8.3 1.5.3 1.6v.1l-.1.1h-3.7zm-7.4-4.1c1 .4 2.7 1.1 3.9 1.7 1.7.8 3.2 1.9 3.5 2.1l3.5-.2c0-.3-.1-.8-.3-1.3-.2-.6-.4-1-.4-1.2-.6-.2-4.1-1.1-6.3-1.3-1.5-.1-3.1.1-3.9.2z"/><path class="st0" d="M151.4 11.3s-1.9-.6-4.1-.2c-2.2.3-3.1 1-4.1 1.3-.7.2-1.6.3-2.1.4-.2 0-.4 0-.6-.1-.4-.1-1.2-.4-2.1-.9-1.2-.6-2.1-1.3-2.1-1.3s2.8-.2 6.5-.3c3.7-.1 8.7-.3 8.7-.3l-.1 1.4z"/><path class="st5" d="M140.9 12.9c-.2 0-.4 0-.5-.1-.4-.1-1.3-.5-2.1-.9-1.2-.6-2.1-1.3-2.1-1.3-.1 0-.1-.1-.1-.2s.1-.1.1-.1 2.8-.2 6.5-.3c3.7-.1 8.7-.3 8.7-.3h.1v1.5c0 .1 0 .1-.1.1h-.1s-1.9-.5-4.1-.2c-1.5.2-2.3.6-3.1.9-.4.2-.7.3-1 .4-.8.2-1.7.3-2.1.4 0 .1-.1.1-.1.1zm-4.2-2.2c.4.3 1 .7 1.7 1 .9.4 1.7.7 2.1.9.2.1.3.1.5.1.5 0 1.3-.1 2.1-.3.3-.1.6-.2 1-.4.7-.3 1.7-.7 3.2-.9 1.8-.3 3.4 0 4 .2v-1c-.9 0-5.3.2-8.6.3-2.8-.2-5.1 0-6 .1z"/><path class="st0" d="M158.9 9l-3-1s1.9-1.1 2.9-2.2c.7-.8 1.1-1.5 1.3-1.8.1-.1.1-.2.3-.2.5 0 1.8.1 4.1.8 2.9.9 5.2 2.8 5.2 2.8s-1.5.6-3.4.9c-3.6.6-7.4.7-7.4.7z"/><path class="st5" d="M158.9 9.2l-3-1c-.1 0-.1-.1-.1-.1 0-.1 0-.1.1-.2 0 0 1.9-1.1 2.8-2.2.7-.8 1.1-1.5 1.3-1.8.1-.2.2-.2.4-.3.5 0 1.9.1 4.2.8 2.9.9 5.2 2.8 5.2 2.8s.1.1.1.2 0 .1-.1.1c0 0-1.6.7-3.4.9-3.6.7-7.5.8-7.5.8zM156.3 8l2.6.9c.4 0 4-.1 7.3-.6 1.3-.2 2.5-.6 3-.8-.6-.5-2.6-1.9-4.9-2.6-2.2-.7-3.6-.8-4.1-.8-.1 0-.1 0-.1.1-.2.4-.6 1.1-1.3 1.9-.6.7-1.9 1.5-2.5 1.9z"/><path class="st0" d="M172.7 12.6s-1.5.2-4.9-.3c-3.4-.5-8.6-1.7-8.6-1.7V8.9s5.8-.3 8.8-.8c2.4-.3 4-.6 4.5-.7.1 0 .3 0 .4.1.5.2 1.7 1 1.8 2.5.3 1.8-2 2.6-2 2.6z"/><path class="st5" d="M171.8 12.8c-.8 0-2.1-.1-3.9-.3-3.4-.5-8.6-1.7-8.6-1.7-.1 0-.1-.1-.1-.2V8.9c0-.1.1-.2.2-.2s5.8-.3 8.7-.8c2.4-.3 3.9-.6 4.5-.7.2 0 .4 0 .5.1.5.3 1.7 1 1.9 2.6.2 2-2.2 2.9-2.2 2.9h-1zm.9-.2zm-13.3-2.1c.8.2 5.4 1.3 8.5 1.7 3.1.4 4.6.3 4.8.3.2-.1 2.1-.9 2-2.5-.2-1.4-1.3-2.1-1.7-2.3-.1 0-.2-.1-.3 0-.6.1-2.1.4-4.5.7-2.7.4-7.7.7-8.6.7l-.2 1.4z"/><ellipse transform="rotate(-87.96 155.106 9.005)" class="st7" cx="155.1" cy="9" rx="1.2" ry="4.3"/><path class="st1" d="M155.6 10.4h-.5c-2-.1-3.7-.5-4.2-1.1-.1-.1-.2-.3-.2-.4 0-.9 2.3-1.3 4.5-1.2 1.2 0 2.2.2 3.1.5.9.3 1.4.6 1.3 1.1-.1.7-2 1.1-4 1.1zm-1-2.4c-2.2 0-3.6.5-3.6.9 0 .1 0 .1.1.2.4.4 1.9.9 4 1 2.5.1 4.1-.5 4.1-.9 0-.2-.3-.5-1.1-.7-.8-.3-1.8-.4-3-.4-.1-.1-.3-.1-.5-.1z"/><path class="st0" d="M161.6 15.1s-1.3-.4-2.3-1c-1.1-.6-2.9-2-2.9-2s1-.9 1.5-1.4c.5-.5 1.2-.7 1.2-.7s1.1.3 2.9.7 5.6.8 7.6 1.1c1.4.3 2.6.5 3.2.6.2 0 .3.1.1.2-.4.2-1.5.7-3.8 1.3-3.2.8-7.5 1.2-7.5 1.2z"/><path class="st5" d="M161.6 15.2c-.1 0-1.3-.4-2.4-1.1-1.1-.6-2.8-1.9-2.9-2l-.1-.1c0-.1 0-.1.1-.1 0 0 1-.9 1.5-1.4.5-.5 1.2-.8 1.2-.8h.1s1.1.3 2.9.7c1.1.2 2.8.5 4.4.7 1.2.2 2.3.3 3.2.4 1.4.3 2.6.5 3.2.6.1 0 .3.1.3.2s0 .2-.2.3c-.4.3-1.5.8-3.8 1.4-3.2.9-7.4 1.2-7.5 1.2zm-4.9-3.2c.5.3 1.9 1.4 2.7 1.9.9.5 2.1.9 2.3 1 .4 0 4.4-.4 7.4-1.2 2.1-.5 3.1-1 3.6-1.3-.6-.1-1.8-.3-3.1-.6-.8-.1-2-.3-3.2-.4-1.7-.2-3.4-.4-4.5-.7-1.6-.4-2.6-.6-2.8-.7-.2.1-.7.3-1.1.7-.3.5-1 1.1-1.3 1.3zm16.1.5zm0-.1z"/><path class="st0" d="M159.1 15.1c-.5.1-1.8.1-5.3-.1-5-.3-6.7-.7-6.7-.7s.2-.5 1.2-1.1c1-.6 4.5-2.1 4.5-2.1s.5 0 2-.1 1.9-.2 1.9-.2.1 1.3.6 2.2c.4.7 1.5 1.6 1.9 1.9.1.1.1.2-.1.2z"/><path class="st5" d="M157.8 15.3c-.8 0-2.1 0-4-.1-4.9-.3-6.7-.7-6.7-.7s-.1 0-.1-.1v-.1s.3-.5 1.3-1.1c1-.6 4.3-2 4.5-2.1h.1s.5 0 2-.1c1.4-.1 1.8-.2 1.8-.2h.1l.1.1s.1 1.2.6 2.1c.4.7 1.4 1.5 1.8 1.9.1.1.2.2.1.3 0 .2-.2.2-.3.2-.2-.1-.6-.1-1.3-.1zm-10.4-1.1c.6.1 2.5.4 6.4.7 3.2.2 4.5.2 5.1.1-.5-.4-1.4-1.2-1.8-1.9-.4-.7-.6-1.7-.6-2-.2 0-.8.1-1.7.2-1.3.1-1.8.1-2 .1-.4.2-3.5 1.5-4.4 2.1-.5.2-.8.5-1 .7z"/><path class="st3" d="M133 13.4v-2.9"/><path class="st5" d="M132.6 10.5h.8v3h-.8z"/><path class="st3" d="M176.5 15.4v-3"/><path class="st5" d="M176.1 12.4h.8v3h-.8z"/><path class="st0" d="M155 25.2c-11-.6-20.2 1.7-22.2 5.2v3.1c2.1 3.6 10.9 6.6 21.6 7.2 11.2.6 20.5-1.8 22.3-5.4v-2.6C175 29 166 25.8 155 25.2z"/><path class="st5" d="M157.7 41.1c-1.1 0-2.2 0-3.3-.1-10.3-.5-19.2-3.4-21.7-7-.1-.1-.1-.3.1-.4.1-.1.3-.1.4.1 2.4 3.5 11.1 6.2 21.2 6.7 10.3.5 19.4-1.5 21.8-4.8.1-.1.3-.2.4-.1.1.1.2.3.1.4-2.2 3.2-9.8 5.2-19 5.2z"/><path class="st3" d="M176.9 29.8c.2.4.3.8.2 1.3-.2 4.3-10.3 7.3-22.7 6.6-12.4-.7-22.3-4.7-22.1-9 0-.3.1-.7.2-1 1.6-3.7 11.1-6.2 22.5-5.6 11.1.6 20.3 3.9 21.9 7.7z"/><path class="st5" d="M157.6 38.2c-1.1 0-2.2 0-3.3-.1-12.8-.7-22.7-4.8-22.5-9.3 0-.4.1-.8.3-1.2 1.7-4 11.3-6.4 22.9-5.9 11.2.6 20.6 3.9 22.3 7.9.2.5.3 1 .3 1.5 0 1-.5 1.9-1.5 2.8-3 2.6-10.1 4.3-18.5 4.3zm-5.9-15.7c-9.6 0-17.4 2.2-18.8 5.4-.1.3-.2.6-.2.9-.2 4 9.8 7.9 21.7 8.5 9.4.5 17.9-1.1 21.1-4 .8-.7 1.2-1.4 1.2-2.2 0-.4-.1-.7-.2-1.1-1.5-3.7-10.8-6.8-21.5-7.4-1.2-.1-2.3-.1-3.3-.1z"/><path class="st6" d="M175.5 29.9c.2.3.2.7.2 1-.2 3.5-9.7 5.9-21.3 5.3-11.6-.6-20.8-3.9-20.7-7.4 0-.3.1-.6.2-.8 1.5-3 10.4-5 21.1-4.5 10.5.6 19 3.3 20.5 6.4z"/><path class="st7" d="M175.5 30c.2.3.2.7.2 1-.2 3.5-9.7 5.9-21.3 5.3-11.6-.6-20.8-3.9-20.7-7.4 0-.3.1-.6.2-.8 1.5-3 10.4-5 21.1-4.5 10.5.6 19 3.3 20.5 6.4z"/><path class="st1" d="M157.8 36.5c-1.1 0-2.2 0-3.4-.1-11.6-.6-21-3.9-20.8-7.5h.3c-.2 3.4 9 6.6 20.5 7.2 11.5.6 21-1.8 21.1-5.2v-.5l.3-.1c0 .2.1.4 0 .6-.1 3.3-8 5.6-18 5.6z"/><path class="st8" d="M175.5 30.5c0-.2-.1-.3-.2-.5-1.5-3.1-10.2-5.7-20.3-6.2-10.4-.5-19.4 1.4-20.9 4.4-.1.3-.2.5-.2.8h-.3c0-.3.1-.6.2-.9 1.6-3.1 10.7-5.1 21.2-4.5 10.4.5 19 3.2 20.6 6.4.1.2.2.4.2.5h-.3z"/><path class="st9" d="M159.2 29.6l-.1 2.8c0 .7-2 1.1-4.3 1-2.4-.1-4.3-.7-4.2-1.3l.1-2.8"/><path class="st10" d="M150.6 30.3s-2-1-4.7-1.3c-2.7-.3-10.2-.5-10.2-.8s.6-.8 1.4-1.2c.8-.3 1.4-.4 2.7-.3 1.3.1 3.1.5 5.7 1.2l5.2 1.4-.1 1z"/><path class="st1" d="M150.6 30.4s-.1 0 0 0c-.1 0-2.1-1-4.7-1.3-1.2-.2-3.6-.3-5.7-.4-4.5-.2-4.6-.3-4.7-.5-.1-.4.8-1.1 1.5-1.4.8-.4 1.5-.5 2.8-.4 1.3.1 3 .5 5.7 1.2l5.2 1.4c.1 0 .1.1.1.2v1c0 .1-.1.2-.2.2.1 0 0 0 0 0zm-14.7-2.3c.5.1 2.6.2 4.4.3 2.1.1 4.4.2 5.7.4 2.1.3 3.9 1 4.5 1.2v-.6l-5-1.3c-2.8-.7-4.4-1.1-5.7-1.2-1.3-.1-1.8 0-2.6.3-.7.2-1.2.7-1.3.9z"/><path class="st10" d="M155.8 28.3l-3.7.2s-1.6-1.2-3.5-2.1c-1.5-.7-3.6-1.6-4.3-1.8-.1-.1-.1-.1.1-.1.7-.1 2.4-.3 4.3-.2 2.4.2 6.4 1.3 6.4 1.3s.2.5.5 1.3c.1.6.2 1.4.2 1.4z"/><path class="st1" d="M152.1 28.6h-.1s-1.6-1.2-3.5-2.1c-1.5-.7-3.6-1.6-4.3-1.8-.1-.1-.2-.1-.2-.2 0-.2.2-.2.3-.2.7-.1 2.4-.3 4.3-.2 2.4.2 6.4 1.3 6.4 1.3.1 0 .1.1.1.1s.2.5.5 1.3c.2.8.3 1.5.3 1.6v.1l-.1.1h-3.7zm-7.4-4.1c.9.4 2.6 1.1 3.9 1.7 1.7.8 3.2 1.9 3.5 2.1l3.5-.2c0-.3-.1-.8-.3-1.3-.2-.6-.4-1-.4-1.2-.6-.2-4.1-1.1-6.3-1.3-1.5-.1-3.1.1-3.9.2z"/><path class="st10" d="M151.3 31.9s-1.9-.6-4.1-.2c-2.2.3-3.1 1-4.1 1.3-.7.2-1.6.3-2.1.4-.2 0-.4 0-.6-.1-.4-.1-1.2-.4-2.1-.9-1.2-.6-2.1-1.3-2.1-1.3s2.8-.2 6.5-.3c3.7-.1 8.7-.3 8.7-.3l-.1 1.4z"/><path class="st1" d="M140.8 33.5c-.2 0-.4 0-.5-.1-.4-.1-1.2-.4-2.1-.9-1.2-.6-2.1-1.3-2.1-1.3-.1 0-.1-.1-.1-.2s.1-.1.1-.1 2.8-.2 6.5-.3c3.7-.1 8.7-.3 8.7-.3h.1v1.5c0 .1 0 .1-.1.1h-.1s-1.9-.5-4.1-.2c-1.5.2-2.3.6-3.1.9-.4.2-.7.3-1 .4-.8.2-1.7.3-2.1.4 0 .1-.1.1-.1.1zm-4.3-2.3c.4.3 1 .7 1.7 1 .9.4 1.7.7 2.1.9.2.1.3.1.5.1.5 0 1.3-.1 2.1-.3.3-.1.6-.2 1-.4.7-.3 1.7-.7 3.2-.9 1.8-.3 3.4 0 4 .2v-1c-.9 0-5.3.2-8.6.3-2.7-.1-5 .1-6 .1z"/><path class="st10" d="M158.8 29.6l-3-1s1.9-1.1 2.9-2.2c.7-.8 1.1-1.5 1.3-1.8.1-.1.1-.2.3-.2.5 0 1.8.1 4.1.8 2.9.9 5.2 2.8 5.2 2.8s-1.5.6-3.4.9c-3.6.6-7.4.7-7.4.7z"/><path class="st1" d="M158.8 29.7l-3-1c-.1 0-.1-.1-.1-.1 0-.1 0-.1.1-.2 0 0 1.9-1.1 2.8-2.2.7-.8 1.1-1.5 1.3-1.8.1-.2.2-.2.4-.3.5 0 1.9.1 4.2.8 2.9.9 5.2 2.8 5.2 2.8s.1.1.1.2 0 .1-.1.1c0 0-1.6.7-3.4.9-3.6.8-7.5.8-7.5.8zm-2.6-1.2l2.6.9c.4 0 4-.1 7.3-.6 1.3-.2 2.5-.6 3-.8-.6-.5-2.6-1.9-4.9-2.6-2.2-.7-3.6-.8-4.1-.8-.1 0-.1 0-.1.1-.2.3-.6 1.1-1.3 1.9-.6.7-1.9 1.6-2.5 1.9z"/><path class="st10" d="M172.6 33.2s-1.5.2-4.9-.3c-3.4-.5-8.6-1.7-8.6-1.7v-1.7s5.8-.3 8.8-.8c2.4-.3 4-.6 4.5-.7.1 0 .3 0 .4.1.5.2 1.7 1 1.8 2.5.3 1.8-2 2.6-2 2.6z"/><path class="st1" d="M171.6 33.4c-.8 0-2.1-.1-3.9-.3-3.4-.5-8.6-1.7-8.6-1.7-.1 0-.1-.1-.1-.2v-1.7c0-.1.1-.2.2-.2s5.8-.3 8.7-.8c2.4-.3 3.9-.6 4.5-.7.2 0 .4 0 .5.1.5.3 1.7 1 1.9 2.6.2 2-2.2 2.9-2.2 2.9h-1zm1-.2zm-13.3-2.1c.8.2 5.4 1.3 8.5 1.7 3.1.4 4.6.3 4.8.3.2-.1 2.1-.9 2-2.5-.2-1.4-1.3-2.1-1.7-2.3-.1 0-.2-.1-.3 0-.6.1-2.2.4-4.5.7-2.7.4-7.7.7-8.6.7l-.2 1.4z"/><path class="st10" d="M161.5 35.7s-1.3-.4-2.3-1c-1.1-.6-2.9-2-2.9-2s1-.9 1.5-1.4c.5-.5 1.2-.7 1.2-.7s1.1.3 2.9.7c1.8.4 5.6.8 7.6 1.1 1.4.3 2.6.5 3.2.6.2 0 .3.1.1.2-.4.2-1.5.7-3.8 1.3-3.2.8-7.5 1.2-7.5 1.2z"/><path class="st1" d="M161.5 35.8c-.1 0-1.3-.4-2.4-1.1-1.1-.6-2.8-1.9-2.9-2l-.1-.1c0-.1 0-.1.1-.1 0 0 1-.9 1.5-1.4.5-.5 1.2-.8 1.2-.8h.1s1.1.3 2.9.7c1.1.2 2.8.5 4.4.7 1.2.2 2.3.3 3.2.4 1.4.3 2.6.5 3.2.6.1 0 .3.1.3.2s0 .2-.2.3c-.4.3-1.5.8-3.8 1.4-3.2.9-7.4 1.2-7.5 1.2zm-4.9-3.2c.5.3 1.9 1.4 2.7 1.9.9.5 2.1.9 2.3 1 .4 0 4.4-.4 7.4-1.2 2.1-.5 3.1-1 3.6-1.3-.6-.1-1.8-.3-3.1-.6-.8-.1-2-.3-3.2-.4-1.7-.2-3.4-.4-4.5-.7-1.6-.4-2.6-.6-2.8-.7-.2.1-.7.3-1.1.7-.4.4-1 1.1-1.3 1.3zm16.1.5zm0-.1z"/><path class="st10" d="M159 35.7c-.5.1-1.8.1-5.3-.1-5-.3-6.7-.7-6.7-.7s.2-.5 1.2-1.1c1-.6 4.5-2.1 4.5-2.1s.5 0 2-.1 1.9-.2 1.9-.2.1 1.3.6 2.2c.4.7 1.5 1.6 1.9 1.9 0 .1.1.2-.1.2z"/><path class="st1" d="M157.7 35.9c-.8 0-2.1 0-4-.1-4.9-.3-6.7-.7-6.7-.7s-.1 0-.1-.1v-.1s.3-.5 1.3-1.1c1-.6 4.3-2 4.5-2.1h.1s.5 0 2-.1c1.4-.1 1.8-.2 1.8-.2h.1l.1.1s.1 1.2.6 2.1c.4.7 1.4 1.5 1.8 1.9.1.1.2.2.1.3 0 .2-.2.2-.3.2-.2-.1-.6-.1-1.3-.1zm1.3-.2zm-11.7-.9c.6.1 2.5.4 6.4.7 3.2.2 4.5.2 5.1.1-.5-.4-1.4-1.2-1.8-1.9-.4-.7-.6-1.7-.6-2-.2 0-.8.1-1.7.2-1.3.1-1.8.1-2 .1-.4.2-3.5 1.5-4.4 2.1-.5.2-.8.5-1 .7z"/><path class="st7" d="M159.4 29.4l-.1 2.8c0 .7-2 1.1-4.3 1-2.4-.1-4.3-.7-4.2-1.3l.1-2.8"/><path class="st0" d="M150.7 29.9s-2-1-4.7-1.3c-2.7-.3-10.2-.5-10.2-.8-.1-.2.6-.8 1.4-1.2s1.4-.4 2.7-.3c1.3.1 3.1.5 5.7 1.2l5.2 1.4-.1 1z"/><path class="st5" d="M150.7 30.1s-.1 0 0 0c-.1 0-2.1-1-4.7-1.3-1.2-.2-3.6-.3-5.7-.4-4.5-.2-4.7-.3-4.7-.5-.1-.4.8-1.1 1.5-1.4.8-.4 1.5-.5 2.8-.4 1.3.1 3 .5 5.7 1.2l5.2 1.4c.1 0 .1.1.1.2v1c0 .1-.1.1-.2.2zm-14.8-2.4c.5.1 2.6.2 4.4.3 2.1.1 4.4.2 5.7.4 2.1.3 3.9 1 4.5 1.2V29l-5-1.3c-2.8-.7-4.4-1.1-5.7-1.2-1.3-.1-1.8 0-2.6.3-.6.3-1.1.7-1.3.9z"/><path class="st0" d="M155.9 27.9l-3.7.2s-1.6-1.2-3.5-2.1c-1.5-.7-3.6-1.6-4.3-1.8-.1-.1-.1-.1.1-.1.7-.1 2.4-.3 4.3-.2 2.4.2 6.4 1.3 6.4 1.3s.2.5.5 1.3c.1.6.2 1.4.2 1.4z"/><path class="st5" d="M152.2 28.2h-.1s-1.6-1.2-3.5-2.1c-1.5-.7-3.6-1.6-4.3-1.8-.1-.1-.2-.1-.2-.2 0-.2.2-.2.3-.2.7-.1 2.4-.3 4.3-.2 2.4.2 6.4 1.3 6.4 1.3.1 0 .1.1.1.1s.2.5.5 1.3c.2.8.3 1.5.3 1.6v.1l-.1.1h-3.7zm-7.4-4.1c.9.4 2.6 1.1 3.9 1.7 1.7.8 3.2 1.9 3.5 2.1l3.5-.2c0-.3-.1-.8-.3-1.3-.2-.6-.4-1-.4-1.2-.6-.2-4.1-1.1-6.3-1.3-1.5-.1-3.1.1-3.9.2z"/><path class="st0" d="M151.3 31.5s-1.9-.6-4.1-.2c-2.2.3-3.1 1-4.1 1.3-.7.2-1.6.3-2.1.4-.2 0-.4 0-.6-.1-.4-.1-1.2-.4-2.1-.9-1.2-.6-2.1-1.3-2.1-1.3s2.8-.2 6.5-.3c3.7-.1 8.7-.3 8.7-.3l-.1 1.4z"/><path class="st5" d="M140.9 33.1c-.2 0-.4 0-.5-.1-.4-.1-1.2-.4-2.1-.9-1.2-.6-2.1-1.3-2.1-1.3-.1 0-.1-.1-.1-.2s.1-.1.1-.1 2.8-.2 6.5-.3c3.7-.1 8.7-.3 8.7-.3h.1v1.5c0 .1 0 .1-.1.1h-.1s-1.9-.5-4.1-.2c-1.5.2-2.3.6-3.1.9-.4.2-.7.3-1 .4-.8.2-1.7.3-2.1.4l-.1.1zm-4.3-2.2c.4.3 1 .7 1.7 1 .9.4 1.7.7 2.1.9.2.1.3.1.5.1.5 0 1.3-.1 2.1-.3.3-.1.6-.2 1-.4.7-.3 1.7-.7 3.2-.9 1.8-.3 3.4 0 4 .2v-1c-.9 0-5.3.2-8.6.3-2.7-.2-5 0-6 .1z"/><g><path class="st0" d="M158.9 29.2l-3-1s1.9-1.1 2.9-2.2c.7-.8 1.1-1.5 1.3-1.8.1-.1.1-.2.3-.2.5 0 1.8.1 4.1.8 2.9.9 5.2 2.8 5.2 2.8s-1.5.6-3.4.9c-3.6.6-7.4.7-7.4.7z"/><path class="st5" d="M158.9 29.4s-.1 0 0 0l-3-1c-.1 0-.1-.1-.1-.1 0-.1 0-.1.1-.2 0 0 1.9-1.1 2.8-2.2.7-.8 1.1-1.5 1.3-1.8.1-.2.3-.2.4-.3.5 0 1.9.1 4.2.8 2.9.9 5.2 2.8 5.2 2.8s.1.1.1.2 0 .1-.1.1c0 0-1.6.7-3.4.9-3.7.7-7.5.8-7.5.8zm-2.6-1.2l2.6.9c.4 0 4-.1 7.3-.6 1.3-.2 2.5-.6 3-.8-.6-.5-2.6-1.9-4.9-2.6-2.3-.7-3.6-.8-4.1-.8-.1 0-.1 0-.1.1-.1.3-.6 1-1.3 1.9-.6.7-1.9 1.5-2.5 1.9z"/></g><g><path class="st0" d="M172.7 32.8s-1.5.2-4.9-.3c-3.4-.5-8.6-1.7-8.6-1.7v-1.7s5.8-.3 8.8-.8c2.4-.3 4-.6 4.5-.7.1 0 .3 0 .4.1.5.2 1.7 1 1.8 2.5.3 1.8-2 2.6-2 2.6z"/><path class="st5" d="M171.7 33c-.8 0-2.1-.1-3.9-.3-3.4-.5-8.6-1.7-8.6-1.7-.1 0-.1-.1-.1-.2v-1.7c0-.1.1-.2.2-.2s5.8-.3 8.7-.8c2.4-.4 4.1-.6 4.5-.7.2 0 .4 0 .5.1.5.3 1.7 1 1.9 2.6.2 2-2.2 2.9-2.2 2.9h-1zm1-.2zm-13.3-2.1c.8.2 5.4 1.3 8.5 1.7 3.1.4 4.6.3 4.8.3.2-.1 2.1-.9 2-2.5-.2-1.4-1.3-2.1-1.7-2.3-.1 0-.2-.1-.3 0-.4.1-2.1.4-4.5.7-2.7.4-7.7.7-8.6.7l-.2 1.4z"/></g><ellipse transform="rotate(-87.96 155.085 29.197)" class="st7" cx="155.1" cy="29.2" rx="1.2" ry="4.3"/><path class="st1" d="M155.6 30.6h-.5c-2-.1-3.7-.5-4.2-1.1-.1-.1-.2-.3-.2-.4 0-.9 2.3-1.3 4.5-1.2 1.2 0 2.2.2 3.1.5.9.3 1.4.6 1.3 1.1-.1.7-2 1.1-4 1.1zm-1-2.4c-2.2 0-3.6.5-3.6.9 0 .1 0 .1.1.2.4.4 1.9.9 4 1 2.5.1 4.1-.5 4.1-.9 0-.2-.3-.5-1.1-.7-.8-.3-1.8-.4-3-.4-.2-.1-.3-.1-.5-.1z"/><g><path class="st0" d="M161.6 35.3s-1.3-.4-2.3-1c-1.1-.6-2.9-2-2.9-2s1-.9 1.5-1.4c.5-.5 1.2-.7 1.2-.7s1.1.3 2.9.7c1.8.4 5.6.8 7.6 1.1 1.4.3 2.6.5 3.2.6.2 0 .3.1.1.2-.4.2-1.5.7-3.8 1.3-3.2.8-7.5 1.2-7.5 1.2z"/><path class="st5" d="M161.6 35.4c-.1 0-1.3-.4-2.4-1.1-1.1-.6-2.8-1.9-2.9-2l-.1-.1c0-.1 0-.1.1-.1 0 0 1-.9 1.5-1.4.5-.5 1.2-.8 1.2-.8h.1s1.1.3 2.9.7c1.1.2 2.8.5 4.4.7 1.2.2 2.3.3 3.2.4 1.4.3 2.6.5 3.2.6.1 0 .3.1.3.2s0 .2-.2.3c-.4.3-1.5.8-3.8 1.4-3.2.9-7.4 1.2-7.5 1.2zm-5-3.2c.5.3 1.9 1.4 2.7 1.9.9.5 2.1.9 2.3 1 .4 0 4.4-.4 7.4-1.2 2.1-.5 3.1-1 3.6-1.3-.6-.1-1.8-.3-3.1-.6-.8-.1-2-.3-3.2-.4-1.7-.2-3.4-.4-4.5-.7-1.6-.4-2.6-.6-2.8-.7-.2.1-.7.3-1.1.7-.3.4-1 1.1-1.3 1.3zm16.2.5zm0-.1z"/></g><g><path class="st0" d="M159.1 35.3c-.5.1-1.8.1-5.3-.1-5-.3-6.7-.7-6.7-.7s.2-.5 1.2-1.1c1-.6 4.5-2.1 4.5-2.1s.5 0 2-.1 1.9-.2 1.9-.2.1 1.3.6 2.2c.4.7 1.5 1.6 1.9 1.9 0 .1.1.2-.1.2z"/><path class="st5" d="M157.7 35.5c-.8 0-2.1 0-4-.1-4.9-.3-6.7-.7-6.7-.7s-.1 0-.1-.1v-.1s.3-.5 1.3-1.1c1-.6 4.3-2 4.5-2.1h.1s.5 0 2-.1c1.4-.1 1.8-.2 1.8-.2h.1l.1.1s.1 1.2.6 2.1c.4.7 1.4 1.5 1.8 1.9.1.1.2.2.1.3 0 .2-.2.2-.3.2-.1-.1-.5-.1-1.3-.1zm1.4-.2zm-11.7-.9c.6.1 2.5.4 6.4.7 3.2.2 4.5.2 5.1.1-.5-.4-1.4-1.2-1.8-1.9-.4-.7-.6-1.7-.6-2-.2 0-.8.1-1.7.2-1.3.1-1.8.1-2 .1-.4.2-3.5 1.5-4.4 2.1-.5.2-.8.5-1 .7z"/></g><g><path class="st3" d="M133 33.6v-2.9"/><path class="st5" d="M132.5 30.7h.8v3h-.8z"/></g><g><path class="st3" d="M176.5 35.6v-3"/><path class="st5" d="M176 32.6h.8v3h-.8z"/></g></g><g><path class="st11" d="M70.2 143.9h47.4v33.6H70.2z"/><path class="st0" d="M69.1 142.3h47.4v33.6H69.1z"/><path class="st12" d="M116.7 176.2h-48V142h48v34.2zm-47.3-.6h46.7v-33H69.4v33z"/><path transform="rotate(90 92.742 163.483)" class="st3" d="M91.9 156.7h1.7v13.6h-1.7z"/></g><g><path class="st11" d="M242.1 143.9h47.4v33.6h-47.4z"/><path class="st0" d="M241 142.3h47.4v33.6H241z"/><path class="st12" d="M288.6 176.2h-48V142h48v34.2zm-47.3-.6H288v-33h-46.7v33z"/><path transform="rotate(90 264.634 163.483)" class="st3" d="M263.8 156.7h1.7v13.6h-1.7z"/></g><g><path class="st11" d="M184.8 143.9h47.4v33.6h-47.4z"/><path class="st0" d="M183.7 142.3h47.4v33.6h-47.4z"/><path class="st12" d="M231.3 176.2h-48V142h48v34.2zm-47.3-.6h46.7v-33H184v33z"/><path transform="rotate(90 207.336 163.483)" class="st3" d="M206.5 156.7h1.7v13.6h-1.7z"/></g><g><path class="st11" d="M127.5 143.9h47.4v33.6h-47.4z"/><path class="st0" d="M126.4 142.3h47.4v33.6h-47.4z"/><path class="st12" d="M174 176.2h-48V142h48v34.2zm-47.3-.6h46.7v-33h-46.7v33z"/><path transform="rotate(90 150.04 163.483)" class="st3" d="M149.2 156.7h1.7v13.6h-1.7z"/></g><g><path fill="#aaa" d="M69.6 56.8h217.2v76.3H69.6z"/><path class="st1" d="M287.1 133.4H69.3V56.5h217.8v76.9zm-217.2-.6h216.5V57.1H69.9v75.7z"/><path class="st0" d="M286.8 57.1H69.6v4.7h3.5l23.1 71.5h17.7L137 61.8h8.3l23.1 71.5h17.7l23.1-71.5h8.2l23.2 71.5h17.6l23.2-71.5h5.4z"/><path class="st12" d="M258.5 133.6h-18.1l-.1-.2-23.1-71.3h-7.8l-23.2 71.5h-18.1l-.1-.2-23-71.3h-7.8L114 133.6H96L72.8 62.1h-3.5v-5.3h217.8v5.3h-5.5l-23.1 71.5zm-17.7-.6H258l23.2-71.5h5.3v-4H69.9v4h3.4l.1.2L96.5 133h17.2l23.2-71.5h8.7l.1.2 23.1 71.3H186l23-71.5h8.7l.1.2 23 71.3z"/><path class="st1" d="M113.9 133h54.5l-40.8-41.9zm72.3 0h54.6l-40.9-41.9zm72 0H286l-21.4-22zm-188.6.1l25.9-.1-25.9-27.2z"/></g><g><ellipse class="st0" cx="267.8" cy="160.7" rx="22.8" ry="22.6"/><path class="st1" d="M267.8 183.6c-12.7 0-23.1-10.3-23.1-22.9s10.4-22.9 23.1-22.9 23.1 10.3 23.1 22.9-10.3 22.9-23.1 22.9zm0-45.2c-12.4 0-22.5 10-22.5 22.3s10.1 22.3 22.5 22.3 22.5-10 22.5-22.3-10.1-22.3-22.5-22.3z"/><path class="st1" d="M268.3 158.5l9.3 3.2-17.7 15.3 7-12.6-8.9-3.3 16.5-16.7z"/><path class="st14" d="M258.8 178.4l7.6-13.9-9-3.3 18.1-18.2-6.8 15.4 9.5 3.3-.4.4-19 16.3zm-.3-17.4l8.8 3.3-6.3 11.4 16-13.8-9.1-3.1 5.7-12.9-15.1 15.1z"/></g><path class="st7" d="M62.8 47.6L15.6 1.7l-1.3.8v140.1l42.6 41.1 5.7 4.3.2-140.4z"/><g opacity=".2"><path fill="#212333" d="M14.4 12.6l1.2 1.3 47.1 45.8v-9.2L15.6 4.6l-1.2.8"/></g><g><path class="st17" d="M14.4 10.3l1.2 1.2 47.1 45.9v-9.2L15.6 2.3l-1.2.8"/></g><g><path class="st7" d="M14.4 9.2l1.2 1.3 47.1 45.9v-9.3L15.6 1.2l-1.2.8"/></g><path class="st14" d="M294.8 47.1H62.7L16.3 1.2l-.6.4L62.3 48v139.7l.9.5V48h232.1z"/><path class="st11" d="M62.8 52.2h232.6v7.6H62.8z"/><path class="st17" d="M62.8 50.1h232.6v7.6H62.8z"/><path class="st0" d="M62.8 47.7h232.6v8.7H62.8z"/><path class="st1" d="M290.9 190.1H67.5l-5-1.8s-.1 0-.1-.1l-5.7-4.3-3.2-3.1c-.1-.1-.2-.1-.3-.3L14 142.7c-.1-.1-.1-.2-.1-.3V2.5c0-.1.1-.3.2-.4l3.2-2c.1-.1.2-.1.3-.1h226.9l2.4.6c.1 0 .1.1.2.1l48.5 46.5c.1.1.1.2.1.3v5.6l.4 133c0 .1-.1.3-.2.3L291 190c0 .1 0 .1-.1.1zm-223.2-.8h223l4.6-3.3-.4-132.8v-5.4L246.5 1.4l-2.2-.6H17.7l-2.9 1.9v139.7L54 180.2l3.3 3.1 5.6 4.2 4.8 1.8z"/><g><path class="st0" d="M33.1 121.6c-1.4 0-2.6 1.1-3.6 3H.5v17.5h29.1c1 1.8 2.2 3 3.6 3 3 0 5.4-5.2 5.4-11.7 0-6.5-2.5-11.8-5.5-11.8z"/><path class="st1" d="M33.1 145.5c-1.4 0-2.8-1-3.8-3H.4c-.2 0-.5-.2-.5-.5v-17.5c0-.2.2-.5.5-.5h28.8c1.1-1.9 2.4-3 3.8-3 3.3 0 5.9 5.3 5.9 12.2s-2.5 12.3-5.8 12.3zM.9 141.6h28.7c.2 0 .3.1.4.2.9 1.8 2 2.7 3.2 2.7 2.7 0 5-5.2 5-11.3s-2.3-11.3-5-11.3c-1.1 0-2.3 1-3.2 2.7-.1.1-.2.2-.4.2H.9v16.8z"/><ellipse class="st2" cx="33.2" cy="133.2" rx="4.8" ry="10.6"/></g></g></switch></svg>