<svg version="1.1" id="图层_1" xmlns="http://www.w3.org/2000/svg" x="0" y="0" width="250.1" height="131.1" xml:space="preserve"><style>.st0{fill:#afafaf}.st1{fill:#747577}.st2{fill:#d6d7d7}.st4{fill:#c4c4c4}.st7{fill:#eaeaea}</style><switch><g><path class="st0" d="M244 130.7H50.4l-6.9-5.7h193.7z"/><path class="st1" d="M244 131.1H50.4c-.1 0-.2 0-.2-.1l-6.8-5.8c-.1-.1-.2-.3-.1-.4.1-.1.2-.2.3-.2h193.7c.1 0 .2 0 .2.1l6.8 5.8c.1.1.2.3.1.4-.1.1-.2.2-.4.2zm-193.5-.7h192.6l-6-5.1H44.5l6 5.1z"/><path class="st0" d="M231.6 117.8H38l-6.9-5.8h193.7z"/><path class="st1" d="M231.6 118.2H38c-.1 0-.2 0-.2-.1l-6.8-5.8c-.1-.1-.2-.3-.1-.4.1-.1.2-.2.3-.2h193.7c.1 0 .2 0 .2.1l6.8 5.8c.1.1.2.3.1.4-.1.1-.2.2-.4.2zm-193.5-.8h192.6l-6-5.1H32.1l6 5.1z"/><path class="st2" d="M249.6 67c0-23.9-12.6-49-27.5-48.3H41.2l4.7 97.1h180.9c15-.8 22.8-21 22.8-48.8z"/><path class="st2" d="M76.8 18.7c14.9-.7 28.1 20.4 29.4 47.2 1.3 26.8-9.7 49.1-24.6 49.9m98.1-97.1c12.5-.6 23.6 20.6 24.9 47.4s-7.7 49-20.2 49.6m33.3-97c12.6-.6 23.9 20.6 25.2 47.4 1.3 26.8-7.9 49-20.5 49.7"/><path class="st1" d="M222.3 116.2v-.9c12.3-.6 21.3-22.7 20-49.2-.6-12.9-3.6-24.9-8.3-33.8-4.7-8.8-10.5-13.5-16.4-13.2v-.9h.6c6.1 0 12 4.8 16.7 13.7 4.8 9 7.8 21.2 8.4 34.2 1.2 27-8.1 49.5-21 50.1z"/><path d="M239.7 108.7c.8-1 .9-2 1.7-3.1H45.5l.1 3.1h194.1z" opacity=".08" fill="#4d4d4d"/><path class="st1" d="M46 116.2h-.4v-.4l-4.8-97.6h181.4c4.4-.2 9.2 1.9 13.7 6.2 9.9 9.5 14.3 27.2 14.3 42.5 0 23-7.1 48.5-23.2 49.3H46zm.4-.9h180.5c15-.7 22.3-25.7 22.3-48.3 0-15.1-4.2-32.5-14-41.8-4.3-4.1-8.8-6.2-13-6H41.7l4.7 96.1z"/><ellipse transform="rotate(-2.795 43.589 67.697) scale(.99999)" class="st2" cx="43.6" cy="67.7" rx="27" ry="48.6"/><path class="st1" d="M45.2 116.2c-14.8 0-27.8-21.1-29.1-47.7-.6-13 1.6-25.5 6.3-34.9 4.7-9.6 11.4-15 18.8-15.4h.8c14.8 0 27.8 21.1 29.1 47.7.6 13-1.6 25.5-6.3 34.9-4.7 9.6-11.4 15-18.8 15.4h-.8zM42 19.1h-.7c-7 .3-13.4 5.6-18 14.9s-6.8 21.6-6.2 34.5c1.3 26.1 13.8 46.8 28.2 46.8h.7c7-.3 13.4-5.6 18-14.9s6.8-21.6 6.2-34.5c-1.3-26-13.9-46.8-28.2-46.8z"/><path class="st2" d="M167.4 18.2v-11h43.7v11"/><path class="st1" d="M211.1 18.7c-.3 0-.5-.2-.5-.5V7.7h-42.8v10.5c0 .3-.2.5-.5.5s-.5-.2-.5-.5v-11c0-.3.2-.5.5-.5H211c.3 0 .5.2.5.5v11c.1.3-.1.5-.4.5z"/><path class="st2" d="M156.9 18.4V.5h10.5v17.9"/><path class="st1" d="M167.4 18.9c-.3 0-.5-.2-.5-.5V.9h-9.5v17.5c0 .3-.2.5-.5.5s-.5-.2-.5-.5V.4c0-.3.2-.5.5-.5h10.5c.3 0 .5.2.5.5v18c-.1.3-.3.5-.5.5z"/><path class="st4" d="M76.5 102.2s-.9 7.3-9.9 13.1h6.3s7.1-3.7 9.4-13.1h-5.8z"/><path class="st1" d="M65.4 115.7l1-.7c8.7-5.6 9.7-12.7 9.7-12.8v-.3h6.7l-.1.4c-2.3 9.5-9.5 13.3-9.6 13.3h-.2l-7.5.1zm11.4-13.1c-.3 1.4-1.8 7.3-9 12.4h5.1c.7-.4 6.8-4 9.1-12.4h-5.2z"/><path fill="gray" d="M66.7 115.1v1.3l9.7 8.5v-1.3z"/><path fill="#999" d="M76.4 123.7l-9.9-8.6H73l9.9 8.6z"/><path class="st7" d="M76.3 102h6.5v25.9h-6.5z"/><path class="st1" d="M77.1 102.6v25.2h-.8V102m6.5 0h.7v25.9h-.7z"/><path class="st1" d="M77 102.6h5.8v-.6h-6.5"/><path class="st4" d="M212.5 102.2s-.9 7.3-9.9 13.1h6.3s7.1-3.7 9.4-13.1h-5.8z"/><path class="st1" d="M201.4 115.7l1-.7c8.7-5.6 9.7-12.7 9.7-12.8v-.3h6.7l-.1.4c-2.3 9.5-9.5 13.3-9.6 13.3h-.2l-7.5.1zm11.4-13.1c-.3 1.4-1.8 7.3-9 12.4h5.1c.7-.4 6.8-4 9.1-12.4h-5.2z"/><path class="st1" d="M202.6 115.1v1.3l9.8 8.5v-1.3z"/><path fill="#adadad" d="M212.4 123.7l-9.9-8.6h6.5l9.9 8.6z"/><path class="st7" d="M212.3 102h6.5v25.9h-6.5z"/><path class="st1" d="M213 102.6v25.2h-.7V102m6.5 0h.7v25.9h-.7z"/><path class="st1" d="M213 102.6h5.8v-.6h-6.5"/><circle class="st2" cx="150.3" cy="67.2" r="28.4"/><path class="st1" d="M150.3 96c-15.9 0-28.8-12.9-28.8-28.8s12.9-28.8 28.8-28.8 28.8 12.9 28.8 28.8S166.2 96 150.3 96zm0-56.9c-15.5 0-28.1 12.6-28.1 28.1 0 15.5 12.6 28.1 28.1 28.1 15.5 0 28.1-12.6 28.1-28.1 0-15.5-12.6-28.1-28.1-28.1z"/><path d="M161 56.9c-4.7 1.4-5.6 5.5-5.3 8-3.4-4.2-3.2-9-3.2-16-10.8 4.3-8.3 16.8-8.6 20.5-2.7-2.4-3.2-8-3.2-8-2.9 1.6-4.3 5.7-4.3 9.1 0 8.2 6.3 14.8 14 14.8 7.8 0 14-6.6 14-14.8-.1-4.7-3.5-7-3.4-13.6zm0 0" fill="#faa33a"/><path d="M150.3 85.8c-7.9 0-14.4-6.8-14.4-15.2 0-3.4 1.4-7.8 4.5-9.4l.5-.3v.5c0 .1.5 4.7 2.6 7.2v-1.7c-.1-5.1-.4-14.7 8.9-18.4l.5-.2v1.3c0 5.9 0 10.3 2.5 14 .1-2.8 1.5-6 5.6-7.2l.5-.1v.5c0 3.5.9 5.7 1.8 7.9.8 1.8 1.5 3.6 1.5 5.9-.1 8.4-6.6 15.2-14.5 15.2zm-10-23.7c-2.4 1.7-3.7 5.5-3.7 8.5 0 8 6.1 14.5 13.7 14.5S164 78.6 164 70.7c0-2.2-.7-3.8-1.5-5.6-.9-2-1.8-4.3-1.9-7.7-5 1.8-4.7 6.6-4.6 7.5l.1 1.2-.8-1C152 61 152 56.2 152 49.7v-.3c-8.3 3.6-8.1 12.3-7.9 17.5 0 1 .1 1.9 0 2.6l-.1.7-.5-.5c-2.2-1.9-3-6.1-3.2-7.6z" fill="#fff"/><g><path class="st2" d="M33.4 27.1c-1.4 0-2.6 1.1-3.6 3H.7v17.5h29.1c1 1.8 2.2 3 3.6 3 3 0 5.4-5.2 5.4-11.7s-2.4-11.8-5.4-11.8z"/><path class="st1" d="M33.4 50.8c-1.4 0-2.7-1-3.7-3H.7c-.2 0-.3-.1-.3-.3V30c0-.2.1-.3.3-.3h28.9c1-1.9 2.4-3 3.7-3 3.2 0 5.7 5.3 5.7 12s-2.4 12.1-5.6 12.1zM1 47.3h28.8c.1 0 .2.1.3.2 1 1.8 2.1 2.8 3.3 2.8 2.8 0 5.1-5.1 5.1-11.4s-2.3-11.4-5.1-11.4c-1.2 0-2.4 1-3.3 2.8 0 .1-.1.2-.3.2H1v16.8z"/><ellipse class="st4" cx="33.4" cy="38.7" rx="4.8" ry="10.6"/></g><g><path class="st2" d="M33 81.4c-1.4 0-2.6 1.1-3.6 3H.3v17.5h29.1c1 1.8 2.2 3 3.6 3 3 0 5.4-5.2 5.4-11.7S36 81.4 33 81.4z"/><path class="st1" d="M33 105.2c-1.4 0-2.7-1-3.7-3H.3c-.2 0-.3-.1-.3-.3V84.4c0-.2.1-.3.3-.3h28.9c1-1.9 2.4-3 3.7-3 3.2 0 5.7 5.3 5.7 12s-2.4 12.1-5.6 12.1zM.6 101.6h28.8c.1 0 .2.1.3.2 1 1.8 2.1 2.8 3.3 2.8 2.8 0 5.1-5.1 5.1-11.4S35.8 81.7 33 81.7c-1.2 0-2.4 1-3.3 2.8 0 .1-.1.2-.3.2H.6v16.9z"/><ellipse class="st4" cx="33" cy="93" rx="4.8" ry="10.6"/></g></g></switch></svg>