<?xml version="1.0" encoding="utf-8"?>
<!-- Generator: Adobe Illustrator 23.0.2, SVG Export Plug-In . SVG Version: 6.00 Build 0)  -->
<svg version="1.1" xmlns="http://www.w3.org/2000/svg" xmlns:xlink="http://www.w3.org/1999/xlink" x="0px" y="0px" width="262.7px"
	 height="257.1px" viewBox="0 0 262.7 257.1" style="enable-background:new 0 0 262.7 257.1;" xml:space="preserve">
<style type="text/css">
	.st0{fill:#C4C4C4;}
	.st1{fill:#D6D7D7;}
	.st2{fill:#CDCEC6;}
	.st3{fill:#B2B2B2;}
	.st4{fill:none;stroke:#747577;stroke-width:0.9189;stroke-linecap:round;stroke-linejoin:round;stroke-miterlimit:10;}
	.st5{display:none;}
	.st6{display:inline;}
	.st7{fill:#5B8DC9;}
	.st8{fill:#35649E;}
	.st9{fill:#4271B7;}
	.st10{fill:none;stroke:#FFFFFF;stroke-width:1.3295;stroke-linecap:round;stroke-linejoin:round;stroke-miterlimit:10;}
</style>
<g id="水箱">
	<path class="st0" d="M260,254.2l-57.3-62.9H2.8l57.4,65.3h198.7C260.2,256.7,260.8,255.1,260,254.2z"/>
	<rect x="2.8" y="0.7" class="st1" width="199.9" height="190.7"/>
	<rect x="60.2" y="66" class="st2" width="199.9" height="0"/>
	<rect x="60.2" y="66" class="st1" width="199.9" height="0"/>
	<path class="st3" d="M202.7,0.7v190.7l56.9,62.5c0.9,1,2.6,0.4,2.6-1V66L202.7,0.7z"/>
	<path class="st4" d="M60.2,256.7L60.2,256.7L60.2,256.7h2.1l0,0h195.5c2.5,0,4.5-2,4.5-4.5V66l0,0l-19.8-21.8L202.7,0.7l0,0H0.7
		l0,0v189c0,1.1,0.4,2.2,1.2,3L60.2,256.7"/>
	<g id="图层_3">
	</g>
</g>
<g id="低液位" class="st5">
	<g class="st6">
		<path class="st7" d="M59.9,216.2c7.7-2.8,16.8-4.8,26.8-4.2c18.7,1.2,21,10.2,39.1,11.7c24.6,2,31.2-13.6,54-9.5
			c15.1,2.8,14.9,10.1,28.2,10.2c16,0.1,22.3-10.5,37.6-9.5c6.4,0.4,11.8,2.7,16.1,5.3v31.8c0,2.4-1.9,4.3-4.3,4.3H59.9V216.2z"/>
		<path class="st8" d="M261.7,220.3c-4.3-2.6-9.8-4.9-16.1-5.3c-15.2-1-21.6,9.6-37.6,9.5c-13.3-0.1-13.1-7.4-28.2-10.2
			c-22.8-4.2-29.4,11.5-54,9.5c-18.1-1.5-20.5-10.5-39.1-11.7c-10.1-0.6-19.2,1.4-26.8,4.2L2.5,150.9c7.6-2.8,16.8-4.8,26.8-4.2
			c18.7,1.2,21,10.2,39.1,11.7c24.6,2,31.2-13.6,54-9.5c15.1,2.8,14.9,10.1,28.2,10.2c16,0.1,22.3-10.5,37.6-9.5
			c6.4,0.4,11.8,2.7,16.1,5.3L261.7,220.3z"/>
		<path class="st9" d="M208,222.4c-6.4,0-9.3-1.9-12.9-4.1c-3.5-2.2-7.4-4.6-14.9-6c-2.7-0.5-5.3-0.7-7.8-0.7
			c-8.1,0-14.2,2.6-20.2,5c-6.3,2.6-12.8,5.3-22,5.3c-1.4,0-2.8-0.1-4.2-0.2c-8.5-0.7-13.3-3.1-18.3-5.6c-5.4-2.7-10.9-5.4-20.8-6.1
			c-1.3-0.1-2.6-0.1-3.9-0.1c-7.4,0-14.9,1.3-22.4,4L5.9,151.8c6.6-2.1,13.2-3.2,19.6-3.2c1.2,0,2.5,0,3.7,0.1
			c9.1,0.6,14.1,3,19.3,5.7c5.2,2.6,10.5,5.2,19.8,6c1.5,0.1,3,0.2,4.5,0.2c10,0,16.9-2.9,23.5-5.6c5.9-2.4,11.4-4.7,18.7-4.7
			c2.3,0,4.6,0.2,7.1,0.7c6.8,1.2,10.2,3.4,13.5,5.5c3.8,2.4,7.5,4.7,15,4.7l0.3,0c8.1,0,13.8-2.6,19.3-5.1c5-2.3,9.7-4.4,15.9-4.4
			c0.6,0,1.2,0,1.9,0.1c5.1,0.3,10.1,2,15,4.9l51,58c-2.7-0.9-5.5-1.4-8.3-1.6c-0.7,0-1.4-0.1-2.1-0.1c-7.1,0-12.5,2.4-17.6,4.8
			c-5.3,2.4-10.4,4.8-17.7,4.8L208,222.4z"/>
	</g>
</g>
<g id="高液位" class="st5">
	<g class="st6">
		<path class="st7" d="M59.9,99.6c7.7-2.8,16.8-4.8,26.8-4.2c18.7,1.2,21,10.2,39.1,11.7c24.6,2,31.2-13.6,54-9.5
			c15.1,2.8,14.9,10.1,28.2,10.2c16,0.1,22.3-10.5,37.6-9.5c6.4,0.4,11.8,2.7,16.1,5.3v148.4c0,2.4-1.9,4.3-4.3,4.3H59.9V99.6z"/>
		<path class="st8" d="M261.7,103.7c-4.3-2.6-9.8-4.9-16.1-5.3c-15.2-1-21.6,9.6-37.6,9.5c-13.3-0.1-13.1-7.4-28.2-10.2
			c-22.8-4.2-29.4,11.5-54,9.5c-18.1-1.5-20.5-10.5-39.1-11.7c-10.1-0.6-19.2,1.4-26.8,4.2L2.5,34.3c7.6-2.8,16.8-4.8,26.8-4.2
			c18.7,1.2,21,10.2,39.1,11.7c24.6,2,31.2-13.6,54-9.5c15.1,2.8,14.9,10.1,28.2,10.2c16,0.1,22.3-10.5,37.6-9.5
			c6.4,0.4,11.8,2.7,16.1,5.3L261.7,103.7z"/>
		<path class="st9" d="M208,105.8c-6.4,0-9.3-1.9-12.9-4.1c-3.5-2.2-7.4-4.6-14.9-6c-2.7-0.5-5.3-0.7-7.8-0.7
			c-8.1,0-14.2,2.6-20.2,5c-6.3,2.6-12.8,5.3-22,5.3c-1.4,0-2.8-0.1-4.2-0.2c-8.5-0.7-13.3-3.1-18.3-5.6c-5.4-2.7-10.9-5.4-20.8-6.1
			c-1.3-0.1-2.6-0.1-3.9-0.1c-7.4,0-14.9,1.3-22.4,4L5.9,35.2c6.6-2.1,13.2-3.2,19.6-3.2c1.2,0,2.5,0,3.7,0.1
			c9.1,0.6,14.1,3,19.3,5.7c5.2,2.6,10.5,5.2,19.8,6c1.5,0.1,3,0.2,4.5,0.2c10,0,16.9-2.9,23.5-5.6c5.9-2.4,11.4-4.7,18.7-4.7
			c2.3,0,4.6,0.2,7.1,0.7c6.8,1.2,10.2,3.4,13.5,5.5c3.8,2.4,7.5,4.7,15,4.7l0.3,0c8.1,0,13.8-2.6,19.3-5.1c5-2.3,9.7-4.4,15.9-4.4
			c0.6,0,1.2,0,1.9,0.1c5.1,0.3,10.1,2,15,4.9l51,58c-2.7-0.9-5.5-1.4-8.3-1.6c-0.7,0-1.4-0.1-2.1-0.1c-7.1,0-12.5,2.4-17.6,4.8
			c-5.3,2.4-10.4,4.8-17.7,4.8L208,105.8z"/>
	</g>
</g>
<g id="侧边">
	<polygon class="st3" points="0.7,0.7 0.7,191.3 60.2,256.7 60.2,66 	"/>
	<g>
		<line class="st10" x1="60.2" y1="66" x2="60.2" y2="254.8"/>
		<polyline class="st10" points="0.7,0.7 60.2,66 260.1,66 		"/>
	</g>
</g>
</svg>
