<svg version="1.1" id="图层_1" xmlns="http://www.w3.org/2000/svg" x="0" y="0" width="38" height="82" xml:space="preserve"><style>.st2{opacity:.4}</style><circle transform="rotate(-.992 18.848 20.283) scale(1.00005)" cx="18.8" cy="20.3" fill="#adadad" r="18.2"/><path d="M18.8 38.5C8.7 38.5.6 30.3.6 20.3S8.8 2 18.8 2 37 10.2 37 20.2s-8.1 18.3-18.2 18.3zm0-36.3C8.8 2.2.7 10.3.7 20.3c0 10 8.1 18.1 18.1 18.1S37 30.3 37 20.3c0-10-8.2-18.1-18.2-18.1z"/><circle transform="matrix(.9996 -.02951 .02951 .9996 -.59 .565)" cx="18.8" cy="20.3" fill="#c1c1c1" r="10.1"/><path class="st2" d="M19 39c10.5 0 19-8.5 19-19S29.5 1 19 1 0 9.5 0 20s8.5 19 19 19zm0-35c8.8 0 16 7.2 16 16s-7.2 16-16 16S3 28.8 3 20 10.2 4 19 4z"/><path d="M26 75.1V6.9C26 3.1 22.9 0 19 0s-7 3.1-7 6.9v68.3c0 3.8 3.1 6.9 7 6.9 3.9-.1 7-3.2 7-7z" fill="#e54038"/><path d="M25.6 38.4v-1.7c0-3.7-3-6.8-6.8-6.8-3.7 0-6.8 3-6.8 6.8v1.7c0 3.7 3 6.8 6.8 6.8s6.8-3 6.8-6.8z" opacity=".7"/><circle transform="rotate(-2.966 18.848 20.284) scale(1.00004)" cx="18.8" cy="20.3" fill="#fbc118" r="6.1"/><path class="st2" d="M18.8 26.4c3.4 0 6.1-2.7 6.1-6.1 0-3.4-2.7-6.1-6.1-6.1-3.4 0-6.1 2.7-6.1 6.1.1 3.3 2.8 6.1 6.1 6.1zm1.5-7.8c1.9 0 3.5 1.6 3.5 3.5s-1.6 3.5-3.5 3.5-3.5-1.6-3.5-3.5c0-2 1.6-3.5 3.5-3.5z"/></svg>