<svg version="1.1" id="图层_1" xmlns="http://www.w3.org/2000/svg" x="0" y="0" width="285" height="166.8" xml:space="preserve"><style>.st0{fill:#d6d7d7}.st1{fill:#747577}.st2{fill:#f3f2ed}.st3{fill:#b2b2b2}.st4{fill:#b4b5b1}.st5{fill:#bababa}.st6{fill:#fff}.st7{fill:#7e7f7f}.st8{fill:#7a7b76}.st9{fill:#adadad}.st10{fill:#eaeaea}.st12{fill:#d1d1d1}.st13{fill:#e5e5e5}.st14{fill:#e8e8e8}.st16{fill:#ddd}.st17{fill:#c4c4c4}</style><switch><g><path class="st0" d="M280.3 104.4h-22.9s4.7-2.1 4.9-8.8c.2-6.6-4.9-8.6-4.9-8.6h22.9s4.5 1.8 4.5 8.7-4.5 8.7-4.5 8.7z"/><path class="st1" d="M280.3 104.7h-22.9c-.1 0-.3-.1-.3-.2s0-.3.2-.3c0 0 4.6-2.2 4.7-8.5.2-6.3-4.7-8.3-4.7-8.3-.1-.1-.2-.2-.2-.3 0-.1.2-.2.3-.2h23c.2.1 4.7 1.9 4.7 8.9s-4.5 8.9-4.7 9l-.1-.1zm-21.9-.6h21.8c.5-.2 4.2-2.1 4.2-8.4 0-6.3-3.7-8.1-4.2-8.4h-21.7c1.5 1 4.2 3.5 4.1 8.3-.2 4.9-2.8 7.4-4.2 8.5z"/><path class="st0" d="M280.3 127.1h-22.9s4.7-2.1 4.9-8.8c.2-6.6-4.9-8.6-4.9-8.6h22.9s4.5 1.8 4.5 8.7-4.5 8.7-4.5 8.7z"/><path class="st1" d="M280.3 127.4h-22.9c-.1 0-.3-.1-.3-.2s0-.3.2-.3c0 0 4.6-2.2 4.7-8.5.2-6.3-4.7-8.3-4.7-8.3-.1-.1-.2-.2-.2-.3 0-.1.2-.2.3-.2h23c.2.1 4.7 1.9 4.7 8.9s-4.5 8.9-4.7 9l-.1-.1zm-21.9-.6h21.8c.5-.2 4.2-2.1 4.2-8.4 0-6.3-3.7-8.1-4.2-8.4h-21.7c1.5 1 4.2 3.5 4.1 8.3-.2 4.9-2.8 7.5-4.2 8.5z"/><path class="st2" d="M271.3 159.3v5.9l.2-76.6-32.2-13h-1.9v57.9h-4.9v1.5l32 31.7h12.7v-1.5z"/><path class="st0" d="M271.5 88.6l-32.2-13h-1.9l.1 57.9h-5v1.5l32 31.7h12.7v-1.5h-5.9z"/><path class="st3" d="M269.5 89.5l-32.1-13.9.1 57.9 31.9 31.7z"/><path class="st4" d="M271.5 88.6l-2 .9-32.1-13.9h1.9z"/><path class="st5" d="M269.4 165.2h-4.9l-32-31.7h5z"/><path class="st3" d="M264.5 166.7l-32-31.7v-1.5l32 31.7z"/><path class="st6" d="M264.4 165.3l-31.9-31.7.1-.1 32 31.7z"/><path class="st7" d="M269.3 165.4l-32-31.8v-.1l-.1-57.3h.5l.1 57.2 31.8 31.7z"/><path class="st1" d="M277.2 166.8h-12.7c-.1 0-.2 0-.2-.1l-32-31.7s-.1-.1-.1-.2v-1.4c0-.1.1-.3.3-.3h4.7l-.1-57.5c0-.1.1-.2.2-.3l1.9-.1h.1l32.2 13c.1 0 .2.1.2.2l-.1 70.6 5.8 5.8s.1.1.1.2v1.5c0 .2-.1.3-.3.3zm-12.6-.5H277v-1.1l-5.7-5.7s-.1 0-.1-.1c0 0-.1-.1-.1-.2l.1-70.6-32-12.9-1.6.1.1 57.5c0 .1 0 .1-.1.2s-.1.1-.2.1h-4.7v1.1l31.9 31.6z"/><path class="st2" d="M269.4 89.6l-32-13.9v-.2l32.1 13.9z"/><path class="st3" d="M227.7 143.1l-.1-4.3-9.6.2-.2-13.2h-4.4l.2 13.3-149.8 2.8-.3-13.2h-4.4l.4 17.6 2.2-.1z"/><path class="st1" d="M59.1 146.2l-.2-18.2 5-.1.2 13.2 149.3-2.1-.2-13.2 5-.1.2 13.2 9.6-.1.1 5h-.3l-166.3 2.3-2.4.1zm.4-17.5l.2 16.9h2.2l165.4-2.3-.1-3.7-9.6.1-.2-13.2-3.7.1.2 13.2h-.3l-150.2 2.1-.2-13.2h-3.7z"/><path class="st0" d="M23.8 119.5c-.2 0-.4-.1-.5-.2-.2-.2-.2-.4-.2-.6l1.1-41.4c0-.4.4-.8.8-.8l199.8-1.1h.2c3.9 1.2 6.8 3.6 8.6 7.2 5.5 11-.6 28.9-.8 29.7-.1.3-.4.5-.7.5-.1.2-208.3 6.7-208.3 6.7z"/><path class="st1" d="M23.8 119.8c-.3 0-.5-.1-.7-.3-.2-.2-.3-.5-.3-.8l1.1-41.4c0-.6.5-1.1 1.1-1.1l199.8-1.1h.3c4 1.2 6.9 3.7 8.8 7.4 5.6 11.1-.5 29.2-.8 30-.1.4-.5.7-1 .7-200.6 6.4-208 6.6-208.3 6.6zm200.9-44c-.3 0-197.8 1-199.8 1.1-.2 0-.4.2-.5.4l-1.1 41.4c0 .1 0 .2.1.3.1.1.2.1.3.1 1.6 0 206.1-6.4 208.2-6.5.2 0 .4-.1.4-.3.3-.8 6.3-18.6.8-29.5-1.8-3.5-4.6-5.9-8.4-7.1.1.1.1.1 0 .1z"/><path class="st8" d="M132.4 117.3l-.1-.5c3.9-.5 6.1-9.8 4.8-20.8-1.2-10.8-5.3-19.2-9.1-19.2h-.3l-.1-.5c4.2-.5 8.6 8.1 9.9 19.6 1.4 11.6-.8 20.9-5.1 21.4z"/><path class="st8" d="M131.2 117.3l-.1-.5c3.9-.5 6.1-9.8 4.8-20.8-1.2-10.8-5.3-19.2-9.1-19.2h-.3l-.1-.5c4.3-.5 8.6 8.1 9.9 19.6 1.4 11.6-.8 20.9-5.1 21.4z"/><path class="st9" d="M80.1 118.7l-.1-.5c3.9-.5 6.1-9.8 4.8-20.8-1.3-11-5.5-19.7-9.4-19.2l-.1-.5c4.2-.5 8.6 8.1 9.9 19.6 1.4 11.6-.9 20.9-5.1 21.4z"/><path class="st9" d="M78.9 118.7l-.1-.5c3.9-.5 6.1-9.8 4.8-20.8-1.3-11-5.5-19.7-9.4-19.2l-.1-.5h.3c4.1 0 8.3 8.5 9.6 19.6 1.4 11.6-.9 20.9-5.1 21.4z"/><path class="st8" d="M189.9 113.6l-.1-.5c3.8-.4 5.9-9.6 4.7-20.3-1.2-10.5-5.2-18.8-8.9-18.8h-.3l-.1-.5c4.2-.5 8.4 7.9 9.7 19.1 1.4 11.3-.9 20.5-5 21z"/><path class="st8" d="M188.7 113.6l-.1-.5c3.8-.4 5.9-9.6 4.7-20.3-1.2-10.8-5.3-19.2-9.1-18.8l-.1-.5c4.2-.5 8.4 7.9 9.7 19.1 1.3 11.3-.9 20.5-5.1 21z"/><path class="st0" d="M127.9 122.5l-58.7.9c-1.4.2-2.2 3.6-1.7 7.6.5 4 2.1 7.1 3.6 6.9l58.7-.9c1.4-.2 2.2-3.6 1.7-7.6-.6-4-2.2-7.1-3.6-6.9z"/><ellipse transform="rotate(-7.52 69.79 130.725)" class="st3" cx="69.8" cy="130.7" rx="2.4" ry="7.3"/><path class="st10" d="M70.9 138.3l-.1-.6c1-.1 1.7-2.6 1.2-6.1-.5-3.4-2-5.7-2.9-5.6l-.1-.6c1.8-.2 3.3 3 3.7 6.1.5 3.1 0 6.6-1.8 6.8z"/><path class="st1" d="M71 138.3c-1.6 0-3.2-3-3.7-7.2-.3-2-.2-3.9.1-5.3.3-1.6 1-2.5 1.8-2.6l58.7-.9c1.7-.2 3.4 2.9 3.9 7.2.3 2 .2 3.9-.1 5.3-.3 1.6-1 2.5-1.8 2.6l-58.7 1c-.1-.1-.2-.1-.2-.1zm57-15.5s-.1 0 0 0h-.1l-58.7.9c-.5.1-1 .9-1.3 2.1-.3 1.4-.3 3.2-.1 5.1.5 4.1 2.1 6.8 3.2 6.6l58.7-1c.5-.1 1-.9 1.3-2.1.3-1.4.3-3.2.1-5.1-.5-3.8-2-6.5-3.1-6.5zm-.1-.3z"/><path class="st0" d="M202.4 121.6l-58.7 1.2c-1.4.2-2.2 3.6-1.6 7.6.5 4 2.2 7.1 3.6 6.9l58.7-1.2c1.4-.2 2.2-3.6 1.6-7.6-.6-4-2.2-7.1-3.6-6.9z"/><ellipse transform="rotate(-6.636 144.34 129.511)" class="st3" cx="144.3" cy="129.5" rx="2.4" ry="7.3"/><path class="st10" d="M145.2 137.1l-.1-.8c1.1-.1 1.9-3.1 1.4-7.1-.5-4.1-2-6.7-3-6.6l-.1-.8c2-.2 3.5 3.6 3.9 7.3.4 3.7-.2 7.8-2.1 8z"/><path class="st1" d="M145.5 137.6c-1.6 0-3.2-3-3.7-7.2-.3-2-.2-3.9.1-5.3.3-1.6 1-2.5 1.8-2.6l58.7-1c1.7-.2 3.4 2.9 3.9 7.2.3 2 .2 3.9-.1 5.3-.3 1.6-1 2.5-1.8 2.6l-58.7 1h-.2zm57-15.6h-.1l-58.7 1c-.5.1-1 .9-1.3 2.1-.3 1.4-.3 3.2-.1 5.1.5 4.1 2.1 6.8 3.2 6.6l58.7-1c.5-.1 1-.9 1.3-2.1.3-1.4.3-3.2.1-5.1-.5-3.9-2-6.6-3.1-6.6zm-.1-.3z"/><path class="st0" d="M39.1 131.3c-.2 0-.4-.1-.5-.2-.1-.2-.2-.4-.2-.6l1.7-38.4c0-.4.4-.7.8-.7h200.3c3.8 1.3 7.1 6.3 8.8 9.9 5.2 11.1-.8 25.5-1 26.3-.1.3-.4.5-.7.5-.1 0-209.2 3.2-209.2 3.2z"/><path class="st9" d="M205.3 128.7v-.4c3.8-.2 6.4-8.5 5.8-18.5-.6-10-4.3-18-8.1-17.9v-.4c4.1-.2 8 7.8 8.6 18.3.6 10.4-2.1 18.7-6.3 18.9z"/><path class="st9" d="M204.2 128.7v-.4c3.8-.2 6.4-8.5 5.8-18.5-.6-10-4.3-18-8.1-17.9v-.4c4.2-.2 8 7.8 8.6 18.3.5 10.3-2.2 18.7-6.3 18.9zm-56 .9v-.4c3.8-.2 6.4-8.7 5.8-19-.6-10.3-4.3-18.4-8.1-18.3v-.4c4.1-.2 7.9 8 8.6 18.7.6 10.7-2.1 19.2-6.3 19.4z"/><path class="st9" d="M147.1 129.5v-.4c3.8-.2 6.4-8.7 5.8-19-.6-10.3-4.3-18.4-8.1-18.3v-.4c4.2-.2 7.9 8 8.6 18.7.6 10.7-2.2 19.2-6.3 19.4zm-55.3 1v-.4c3.8-.2 6.5-8.9 5.8-19.4-.6-10.5-4.2-18.9-8.1-18.7v-.4c4.1-.2 7.9 8.2 8.6 19.1.6 10.8-2.2 19.5-6.3 19.8z"/><path class="st9" d="M90.6 130.4v-.4c3.8-.2 6.5-8.9 5.8-19.4-.6-10.5-4.2-18.9-8.1-18.7v-.4c4.2-.2 7.9 8.2 8.6 19.1.6 10.8-2.1 19.6-6.3 19.8z"/><path class="st1" d="M39.1 131.6c-.3 0-.5-.1-.7-.3-.2-.2-.3-.5-.3-.8l2.2-38.4c0-.6.5-1 1.1-1h199.7c4 1.4 7.9 6.4 9.2 10.1 4.1 12.6 1.2 21.8-.9 26.2-.1.1-.1.2-.1.3-.2.4-.6.7-1 .7-206.4 3.1-209.1 3.2-209.2 3.2zm2.3-39.9c-.2 0-.4.2-.5.4l-2.2 38.4c0 .1 0 .3.1.3.1.1.2.1.3.1 1.8 0 206.9-3.2 209-3.2.2 0 .4-.1.4-.3 0-.1.1-.2.1-.3 2-4.3 4.9-13.4.9-25.8-1.2-3.6-5-8.4-8.8-9.7l-199.3.1z"/><path class="st0" d="M246.6 58.5c0-6.8-4.3-12.5-10.3-14.6l.4-4.8-189.2-2.7c-.6-.1-1.2-.1-1.7-.1h-9c-.4 0-.8.1-1.2.1-4.2.5-7.9 2.7-10.5 5.8-.7.8-1.2 1.7-1.7 2.6-2.7 4.3-4.3 9.6-4.3 15.4 0 5.5 1.4 10.6 3.9 14.8 2.5 5.2 7.7 9 13.8 9.2v.1l5.7-.1h3.2c.4 0 .9 0 1.3-.1h189.2v-11c6.1-2.1 10.4-7.9 10.4-14.6z"/><path class="st10" d="M46.7 71.2v-.8l152.6-.6v.8z"/><path class="st9" d="M82.3 83.5V83c4.3-.5 6.7-11.1 5.3-23.6-1.1-9.7-4.2-18-7.7-20.8-.9-.7-1.8-1-2.6-.9l-.1-.5c1-.1 2 .2 3 1 3.6 2.9 6.8 11.4 7.9 21.2 1.4 12.9-1.1 23.5-5.8 24.1z"/><path class="st9" d="M81 83.5V83c4.3-.5 6.7-11.1 5.3-23.6-1.1-9.7-4.2-18-7.7-20.8-.9-.7-1.8-1-2.6-.9l-.1-.5c1-.1 2 .2 3 1 3.6 2.9 6.8 11.4 7.9 21.2 1.3 12.7-1.2 23.5-5.8 24.1z"/><path class="st1" d="M36.8 84.6c-.1 0-.2 0-.2-.1-6-.4-11.3-4-13.8-9.4-2.5-4.4-3.9-9.5-3.9-14.9 0-5.7 1.5-11.1 4.3-15.6.5-.9 1.1-1.8 1.7-2.6 2.7-3.3 6.5-5.3 10.7-5.9.4 0 .7-.1 1.1-.1h9.1c.6 0 1.2 0 1.8.1l189.2 2.7c.1 0 .2 0 .2.1.1.1.1.2.1.2l-.4 4.6c6.2 2.2 10.3 8.2 10.3 14.8 0 6.6-4.1 12.6-10.3 14.8l.1 9.8c0 .1 0 .2-.1.2-.1.1-.1.1-.2.1L47.1 84.5c-.4 0-.9.1-1.3.1h-9zm.1-48h-.1c-.4 0-.8.1-1.2.1-4 .5-7.7 2.5-10.3 5.6-.6.8-1.2 1.6-1.7 2.5-2.8 4.5-4.2 9.7-4.2 15.3 0 5.3 1.3 10.3 3.8 14.6 2.5 5.3 7.7 8.8 13.6 9.1.1 0 .2.1.2.1l5.5-.1h3.2c.5 0 .9 0 1.3-.1l189.1-1.1-.1-9.7c0-.1.1-.3.2-.3 6-2.1 10.1-7.8 10.1-14.3 0-6.5-4-12.2-10.1-14.3-.1 0-.2-.2-.2-.3l.4-4.5-188.9-2.5c-.6-.1-1.2-.1-1.7-.1H36.9z"/><path class="st10" d="M45.1 84.1l-.7-.1c8.2-34.8-2.7-46.8-2.8-46.9l.6-.5c.3.4 11.2 12.4 2.9 47.5z"/><path class="st2" d="M52.8 158.3v5.9h-.1l.2-76.6-32-14.6H19l-.1 59.5h-5v1.5l32 31.7h12.7v-1.5h.1z"/><path class="st0" d="M52.9 87.6L21 73h-1.9l-.2 59.5H14v1.5l32 31.7h12.6v-1.5h-5.8z"/><path class="st3" d="M51 87.6L19.1 73l-.2 59.5 32 31.7z"/><path class="st4" d="M52.9 87.6H51L19.1 73H21z"/><path class="st5" d="M50.9 164.2h-5L14 132.5h4.9z"/><path class="st2" d="M58.7 164.2h-5.9v-5.9z"/><path class="st3" d="M46 165.7L14 134v-1.5l31.9 31.7z"/><path class="st6" d="M45.9 164.3l-32-31.7.2-.1L46 164.2z"/><path class="st7" d="M50.8 164.4l-32-31.8V74.4h.5l-.1 58 31.9 31.7z"/><path class="st1" d="M58.7 165.8H46c-.1 0-.2 0-.2-.1l-32-31.7s-.1-.1-.1-.2v-1.4c0-.1.1-.3.3-.3h4.7l.2-59.3c0-.1.1-.3.3-.3h1.9l32 14.7c.1 0 .1.1.1.2l-.1 70.6 5.8 5.8s.1.1.1.2v1.5c-.1.2-.2.3-.3.3zm-12.6-.5h12.3v-1.1l-5.7-5.7s-.1 0-.1-.1c0 0-.1-.1-.1-.2l.1-70.6-31.7-14.5h-1.6l-.2 59.3c0 .1-.1.3-.3.3h-4.7v1.1l32 31.5z"/><path class="st2" d="M50.9 87.7L19 73.1l.1-.2L51 87.5z"/><path class="st12" d="M58.5 93.7v-9.1c0 1.2 1.7 2.2 3.7 2.2s3.7-1 3.7-2.2v9.1c0 2.1-2.2 2.5-3.7 2.5-1.4-.1-3.7-.4-3.7-2.5"/><path class="st13" d="M60.4 95.9v-9.5s.9.3 1.8.3 1.8-.3 1.8-.3v9.5c-.4.2-1.2.3-1.8.3-.7-.1-1.3-.1-1.8-.3z"/><ellipse class="st14" cx="62.2" cy="84.8" rx="3.7" ry="2.2"/><path class="st12" d="M71.6 93.7v-9.1c0 1.2 1.7 2.2 3.7 2.2 2.1 0 3.7-1 3.7-2.2v9.1c0 2.1-2.2 2.5-3.7 2.5-1.4-.1-3.7-.4-3.7-2.5"/><path class="st13" d="M73.5 95.9v-9.5s.9.3 1.8.3 1.8-.3 1.8-.3v9.5c-.4.2-1.2.3-1.8.3-.6-.1-1.3-.1-1.8-.3z"/><ellipse class="st14" cx="75.3" cy="84.8" rx="3.7" ry="2.2"/><path class="st1" d="M58.5 94c-.2 0-.3-.1-.3-.3v-9c0-.1 0-.1.1-.2.3-1.2 2-2 4-2s3.6.9 4 2c0 .1.1.1.1.2v9.1c0 .2-.1.3-.3.3-.2 0-.3-.1-.3-.3v-8.9c-.1-1-1.6-1.8-3.4-1.8-1.8 0-3.3.8-3.4 1.8v8.9c0 .1 0 .2-.1.2h-.4zm13.1 0c-.2 0-.3-.1-.3-.3v-9c0-.1 0-.1.1-.2.3-1.2 2-2 4-2s3.6.9 4 2c0 .1.1.1.1.2v9.1c0 .2-.1.3-.3.3-.2 0-.3-.1-.3-.3v-8.9c-.1-1-1.6-1.8-3.4-1.8-1.8 0-3.3.8-3.4 1.8v8.9c0 .1 0 .2-.1.2h-.4z"/><path class="st3" d="M80.9 14.5h25.5c1.7 0 3 2.3 3 5.2s-1.3 5.2-3 5.2H80.9"/><path class="st1" d="M106.4 25.2H80.9v-.6h25.5c1.5 0 2.7-2.2 2.7-4.9 0-2.6-1.2-4.8-2.6-4.9H80.9v-.6h25.5c1.9 0 3.3 2.4 3.3 5.5s-1.5 5.5-3.3 5.5z"/><path class="st3" d="M82.1 24.9H69.2c-1.4-.1-2.6 1.1-2.5 2.5v14.2s-.9 2-5 2.1-5.3-2.1-5.3-2.1V27.4c0-7.1 5.7-12.9 12.8-12.9h12.9"/><path class="st1" d="M61.5 44c-4.1 0-5.3-2.2-5.4-2.3V27.4c0-7.3 5.9-13.2 13.1-13.2h12.9c.2 0 .3.1.3.3s-.1.3-.3.3H69.2c-6.9 0-12.5 5.6-12.5 12.5v14.1c.2.4 1.5 2 5 1.9 3.5-.1 4.5-1.6 4.7-1.9V27.3c-.1-.7.2-1.5.8-2 .5-.6 1.3-.8 2.1-.8h12.9c.2 0 .3.1.3.3 0 .2-.1.3-.3.3H69.3c-.6 0-1.2.2-1.6.6-.4.4-.6 1-.6 1.6v14.3c0 .1-1 2.2-5.3 2.3-.1.1-.2.1-.3.1z"/><path transform="matrix(1 -.00767 .00767 1 -.792 1.282)" opacity=".08" fill="#212333" d="M107 98.2h119.4v11.5H107z"/><path class="st16" d="M223.3 93.1h2.3v15h-2.3z"/><path class="st1" d="M225.8 108.2H223V92.8h2.8v15.4zm-2.3-.4h1.9V93.3h-1.9v14.5z"/><path class="st17" d="M223.3 108s-.2-5.1-2.1-9.3-4.1-5.6-4.1-5.6h6.3l-.1 14.9z"/><path class="st1" d="M223.1 108c0-.1-.2-5.1-2.1-9.3-1.9-4.1-4-5.5-4.1-5.5l-.6-.4h7.2V108h-.4zm-5.4-14.7c.8.7 2.3 2.3 3.7 5.3.9 2 1.4 4.1 1.7 5.9V93.3h-5.4z"/><path class="st16" d="M217.5 93.1h2.3v15h-2.3z"/><path class="st1" d="M220.1 108.2h-2.8V92.8h2.8v15.4zm-2.4-.4h1.9V93.3h-1.9v14.5z"/><path class="st17" d="M217.5 108s-.2-5.1-2.1-9.3c-1.9-4.2-4.1-5.6-4.1-5.6h6.3l-.1 14.9z"/><path class="st1" d="M217.3 108c0-.1-.2-5.1-2.1-9.3-1.9-4.1-4-5.5-4.1-5.5l-.6-.4h7.2V108h-.4zm-5.4-14.7c.8.7 2.3 2.3 3.7 5.3.9 2 1.4 4.1 1.7 5.9V93.3h-5.4z"/><path class="st16" d="M119 93.7h2.3v15H119z"/><path class="st1" d="M121.5 108.9h-2.8V93.5h2.8v15.4zm-2.3-.5h1.9V93.9h-1.9v14.5z"/><path class="st17" d="M119 108.6s-.2-5.1-2.1-9.3c-1.9-4.2-4.1-5.6-4.1-5.6h6.3l-.1 14.9z"/><path class="st1" d="M118.8 108.7c0-.1-.2-5.1-2.1-9.3-1.9-4.1-4-5.5-4.1-5.5l-.6-.4h7.2v15.2h-.4zm-5.4-14.8c.8.7 2.3 2.3 3.7 5.3.9 2 1.4 4.1 1.7 5.9V93.9h-5.4z"/><path class="st16" d="M113.2 93.7h2.3v15h-2.3z"/><path class="st1" d="M115.8 108.9H113V93.5h2.8v15.4zm-2.4-.5h1.9V93.9h-1.9v14.5z"/><path class="st17" d="M113.2 108.6s-.2-5.1-2.1-9.3c-1.9-4.2-4.1-5.6-4.1-5.6h6.3l-.1 14.9z"/><path class="st1" d="M113 108.7c0-.1-.2-5.1-2.1-9.3-1.9-4.1-4-5.5-4.1-5.5l-.6-.4h7.2v15.2h-.4zm-5.4-14.8c.8.7 2.3 2.3 3.7 5.3.9 2 1.4 4.1 1.7 5.9V93.9h-5.4z"/><path fill="#878787" d="M91.8.5l9.5 2.3v95.4l-9.5-3.7z"/><path class="st0" d="M101.3 2.9l136.8.9-1.4 93.1-135.4 1.4z"/><path class="st7" d="M147.6 3.2h.7v94.4h-.7zm47.4.7h.6v93h-.6z"/><path class="st7" d="M147.9 50.1h47.6v.6h-47.6z"/><path class="st3" d="M161.1 22.4h22.5V42h-22.5z"/><path class="st7" d="M184.2 42.3h-23.1V22.1h23.1v20.2zm-22.5-.6h21.8v-19h-21.8v19z"/><path fill="#d8d8d8" d="M164.4 25H181v14.4h-16.6z"/><circle class="st0" cx="212.2" cy="72.4" r="24.5"/><path class="st1" d="M212.2 97.2c-13.7 0-24.8-11.1-24.8-24.8s11.1-24.8 24.8-24.8S237 58.7 237 72.4s-11.1 24.8-24.8 24.8zm0-49C198.9 48.2 188 59 188 72.4s10.8 24.2 24.2 24.2 24.2-10.8 24.2-24.2-10.9-24.2-24.2-24.2z"/><path class="st1" d="M214 69.3l9 3.1-17.1 14.9 6.7-12.3-8.6-3.2 16-16.2z"/><path class="st6" d="M204.8 88.7l7.3-13.5-8.7-3.3L221 54.1l-6.5 15 9.2 3.2-18.9 16.4zm-.2-17l8.4 3.2-6 11.1 15.3-13.4-8.8-3L219 57l-14.4 14.7z"/><g><path class="st0" d="M39.7 142.1h3c3.9-.6 6.1-12.5 4.8-26.5-1.3-14-5.5-25-9.4-24.4h-3"/><ellipse transform="matrix(.9965 -.08378 .08378 .9965 -9.647 3.544)" class="st3" cx="37.4" cy="116.7" rx="7.2" ry="25.5"/><path class="st7" d="M42.7 142.3l-.1-.4c3.8-.6 5.9-12.4 4.7-26.3-1-11.3-4-21-7.3-23.6-.6-.5-1.3-.7-1.9-.6L38 91c.7-.1 1.4.1 2.2.7 3.4 2.6 6.4 12.4 7.4 23.8 1.4 14.5-.8 26.2-4.9 26.8z"/><path class="st6" d="M39.7 142.3v-.3c3.8-.6 6-12.4 4.7-26.3-1-11.3-4-21-7.3-23.6-.6-.5-1.3-.7-1.9-.6v-.3c.7-.1 1.4.1 2.1.7 3.4 2.6 6.4 12.4 7.4 23.8 1.2 14-1 26-5 26.6z"/><path class="st1" d="M39.3 142.5c-.6 0-1.2-.3-1.9-.8C34 139 31 129.4 30 117.8c-1.3-14.4.9-26.1 5-26.8h3c.2 0 .3.1.4.3 0 .2-.1.3-.3.3h-3c-3.7.6-5.8 12.5-4.6 26.2 1 11.3 4 20.9 7.2 23.5.6.5 1.2.7 1.8.6h3c.2 0 .3.1.4.3 0 .2-.1.3-.3.3h-3.3z"/></g><path fill="#a09f9f" d="M238.1 3.5l-9.9-1.7L91.8.3l9.5 2.2"/><path class="st1" d="M238.1 3.8l-10-1.7L91.8.6c-.2 0-.3-.1-.3-.3 0-.2.1-.3.3-.3l136.4 1.5 10 1.7c.2 0 .3.2.3.4-.1.1-.2.2-.4.2z"/><path class="st6" d="M101 2.9h.5v94.9h-.5z"/><path class="st1" d="M101.5 98.5l-10-3.7V.5h.6v93.8l9.5 3.5 134.8-1.3 1.4-92.8h.6L237 97.2h-.3z"/><path class="st6" d="M238.3 4L101.2 3 92 .8c-.1 0-.2-.1-.2-.3 0-.1.1-.2.3-.2l9.2 2.2 137.1 1c.1 0 .2.1.2.2 0 .2-.1.3-.3.3z"/><g><path class="st0" d="M23.2 104.4H.3s4.7-2.1 4.9-8.8C5.4 89 .3 87 .3 87h22.9s4.5 1.8 4.5 8.7-4.5 8.7-4.5 8.7z"/><path class="st1" d="M23.2 104.7H.3c-.1 0-.3-.1-.3-.2s0-.3.2-.3c0 0 4.6-2.2 4.7-8.5.2-6.3-4.7-8.3-4.7-8.3-.1-.2-.2-.3-.2-.5s.2-.2.3-.2h23c.2.1 4.7 1.9 4.7 8.9s-4.5 8.9-4.7 9c0 .1 0 .1-.1.1zm-21.8-.6h21.8c.5-.2 4.2-2.1 4.2-8.4 0-6.3-3.7-8.1-4.2-8.4H1.5c1.5 1 4.2 3.5 4.1 8.3-.2 4.9-2.8 7.4-4.2 8.5z"/></g><g><path class="st0" d="M23.2 127.1H.3s4.7-2.1 4.9-8.8c.2-6.6-4.9-8.6-4.9-8.6h22.9s4.5 1.8 4.5 8.7-4.5 8.7-4.5 8.7z"/><path class="st1" d="M23.2 127.4H.3c-.1 0-.3-.1-.3-.2s0-.3.2-.3c0 0 4.6-2.2 4.7-8.5.2-6.3-4.7-8.3-4.7-8.3-.1-.1-.2-.3-.2-.4s.2-.2.3-.2h23c.2.1 4.7 1.9 4.7 8.9s-4.5 8.9-4.7 9h-.1zm-21.8-.6h21.8c.5-.2 4.2-2.1 4.2-8.4 0-6.3-3.7-8.1-4.2-8.4H1.5c1.5 1 4.2 3.5 4.1 8.3-.2 4.9-2.8 7.5-4.2 8.5z"/></g></g></switch></svg>