<svg version="1.1" id="图层_1" xmlns="http://www.w3.org/2000/svg" x="0" y="0" width="195.7" height="131.5" xml:space="preserve"><style>.st0{fill:#d6d7d7}.st1{fill:#747577}.st2{fill:#c4c4c4}.st5{fill:#b2b2b2}.st6{fill:#bababa}.st7{fill:#fff}</style><switch><g><path class="st0" d="M190 38.2c-1.4 0-2.6 1.1-3.6 3h-29.1v17.5h29.1c1 1.8 2.2 3 3.6 3 3 0 5.4-5.2 5.4-11.7S193 38.2 190 38.2z"/><path class="st1" d="M190 61.9c-1.4 0-2.7-1-3.7-3h-28.9c-.2 0-.3-.1-.3-.3V41.2c0-.2.1-.3.3-.3h28.9c1-1.9 2.4-3 3.7-3 3.2 0 5.7 5.3 5.7 12s-2.5 12-5.7 12zm-32.4-3.5h28.8c.1 0 .2.1.3.2 1 1.8 2.1 2.8 3.3 2.8 2.8 0 5.1-5.1 5.1-11.4s-2.3-11.4-5.1-11.4c-1.2 0-2.4 1-3.3 2.8-.1.1-.1.2-.3.2h-28.8v16.8z"/><ellipse class="st2" cx="190" cy="49.8" rx="4.8" ry="10.6"/><path class="st0" d="M190 80c-1.4 0-2.6 1.1-3.6 3h-29.1v17.5h29.1c1 1.8 2.2 3 3.6 3 3 0 5.4-5.2 5.4-11.7S193 80 190 80z"/><path class="st1" d="M190 103.8c-1.4 0-2.7-1-3.7-3h-28.9c-.2 0-.3-.1-.3-.3V83c0-.2.1-.3.3-.3h28.9c1-1.9 2.4-3 3.7-3 3.2 0 5.7 5.3 5.7 12s-2.5 12.1-5.7 12.1zm-32.4-3.6h28.8c.1 0 .2.1.3.2 1 1.8 2.1 2.8 3.3 2.8 2.8 0 5.1-5.1 5.1-11.4s-2.3-11.4-5.1-11.4c-1.2 0-2.4 1-3.3 2.8-.1.1-.1.2-.3.2h-28.8v16.8z"/><ellipse class="st2" cx="190" cy="91.6" rx="4.8" ry="10.6"/><path fill="#edede8" d="M63.3 33.3h94v89.5h-94z"/><path fill="#d3d3cf" d="M30.5 10.3h94l32.8 23h-94z"/><path class="st1" d="M157.3 123.3h-94c-.2 0-.4-.2-.4-.4V33.5L30.2 10.7c-.2-.1-.2-.3-.2-.5.1-.2.2-.3.4-.3h94c.1 0 .2 0 .2.1l32.8 23c.1.1.2.2.2.4v89.5c0 .1 0 .2-.1.3 0 0-.1.1-.2.1zm-93.6-.9h93.2V33.5l-32.5-22.8H31.9l31.6 22.2c.1.1.2.2.2.4v89.1z"/><path class="st0" d="M60.5 28.2h5.3v102.9h-5.3z"/><path class="st5" d="M21.8.4v102.9L60.5 131V28.2z"/><path class="st6" d="M60.5 28.2h5.2L27 .4h-5.2z"/><path class="st7" d="M65.7 28.5h-5.3l-.1-.1L21.6.7l.4-.5 38.6 27.6h5.1z"/><path class="st7" d="M60.1 28.2h.7v102.9h-.7z"/><path class="st1" d="M65.7 131.5h-5.3c-.1 0-.2 0-.3-.1l-38.7-27.7c-.1-.1-.2-.2-.2-.4V.4c0-.2.2-.4.4-.4H27c.1 0 .2 0 .3.1L66 27.8c.1.1.2.2.2.4V131c0 .3-.2.5-.5.5zm-5.1-.9h4.7V28.4L26.9.9h-4.7v102.2l38.4 27.5z"/><path class="st0" d="M129.5 28.2h5.3v102.9h-5.3z"/><path class="st6" d="M129.5 28.2h5.2L96 .4h-5.2z"/><path class="st5" d="M90.8.4v9.9l32.7 23v89.5H118l11.5 8.2V28.2z"/><path class="st7" d="M129.1 28.2h.7v102.9h-.7z"/><path class="st7" d="M134.7 28.5h-5.3l-.1-.1L90.6.7l.4-.5 38.6 27.6h5.1z"/><path class="st1" d="M134.7 131.5h-5.3c-.1 0-.2 0-.3-.1l-11.5-8.2c-.2-.1-.2-.3-.2-.5s.2-.3.4-.3h5.1V33.5L90.5 10.7c-.1-.1-.2-.2-.2-.4V.4c0-.2.2-.4.4-.4H96c.1 0 .2 0 .3.1L135 27.8c.1.1.2.2.2.4V131c0 .3-.2.5-.5.5zm-5.1-.9h4.7V28.4L95.9.9h-4.7v9.2l32.6 22.8c.1.1.2.2.2.4v89.5c0 .2-.2.4-.4.4h-4.2l10.2 7.4z"/><path class="st0" d="M94.8 28.2h5.3v102.9h-5.3z"/><path class="st6" d="M94.8 28.2h5.3L61.4.4h-5.3z"/><path class="st5" d="M56.1.4v9.9l32.8 23v89.5h-5.5l11.4 8.2V28.2z"/><path class="st7" d="M94.5 28.2h.7v102.9h-.7z"/><path class="st7" d="M100.1 28.5h-5.4l-.1-.1L55.9.7l.4-.5 38.6 27.6h5.2z"/><path class="st1" d="M100.1 131.5h-5.3c-.1 0-.2 0-.3-.1L83 123.2c-.2-.1-.2-.3-.2-.5.1-.2.2-.3.4-.3h5.1V33.5L55.9 10.7c-.1-.1-.2-.2-.2-.4V.4c0-.2.2-.4.4-.4h5.3c.1 0 .2 0 .3.1l38.7 27.7c.1.1.2.2.2.4V131c-.1.3-.3.5-.5.5zm-5.1-.9h4.7V28.4L61.3.9h-4.7v9.2l32.6 22.8c.1.1.2.2.2.4v89.5c0 .2-.2.4-.4.4h-4.2l10.2 7.4z"/><g><path class="st0" d="M163.1 28.2h5.3v102.9h-5.3z"/><path class="st6" d="M163.1 28.2h5.3L129.7.4h-5.3z"/><path class="st5" d="M124.4.4v9.9l32.8 23v89.5h-5.5l11.4 8.2V28.2z"/><path class="st7" d="M162.8 28.2h.7v102.9h-.7z"/><path class="st7" d="M168.4 28.5H163l-.1-.1L124.2.7l.4-.5 38.6 27.6h5.2z"/><path class="st1" d="M168.4 131.5h-5.3c-.1 0-.2 0-.3-.1l-11.5-8.2c-.2-.1-.2-.3-.2-.5s.2-.3.4-.3h5.1V33.5L124 10.7c-.1-.1-.2-.2-.2-.4V.4c0-.2.2-.4.4-.4h5.3c.1 0 .2 0 .3.1l38.7 27.7c.1.1.2.2.2.4V131c.1.3-.1.5-.3.5zm-5.2-.9h4.7V28.4L129.5.9h-4.7v9.2l32.6 22.8c.1.1.2.2.2.4v89.5c0 .2-.2.4-.4.4H153l10.2 7.4z"/></g><g><path class="st1" d="M90.8 42.2h-25c-.2 0-.4-.2-.4-.4v-3.2c0-.2.2-.4.4-.4h25c1 0 1.9.8 1.9 1.9v.3c0 .9-.9 1.8-1.9 1.8zm-24.5-.9h24.5c.5 0 1-.4 1-1V40c0-.5-.4-1-1-1H66.3v2.3z"/><path class="st0" d="M90.8 41.7h-25v-3.2h25c.8 0 1.4.6 1.4 1.4v.3c0 .9-.6 1.5-1.4 1.5z"/><path class="st1" d="M125.3 42.2h-25c-.2 0-.4-.2-.4-.4v-3.2c0-.2.2-.4.4-.4h25c1 0 1.9.8 1.9 1.9v.3c-.1.9-.9 1.8-1.9 1.8zm-24.6-.9h24.5c.5 0 1-.4 1-1V40c0-.5-.4-1-1-1h-24.5v2.3z"/><path class="st0" d="M125.3 41.7h-25v-3.2h25c.8 0 1.4.6 1.4 1.4v.3c0 .9-.7 1.5-1.4 1.5z"/><path class="st1" d="M159.7 42.2h-25c-.2 0-.4-.2-.4-.4v-3.2c0-.2.2-.4.4-.4h25c1 0 1.9.8 1.9 1.9v.3c0 .9-.9 1.8-1.9 1.8zm-24.5-.9h24.5c.5 0 1-.4 1-1V40c0-.5-.4-1-1-1h-24.5v2.3z"/><path class="st0" d="M159.7 41.7h-25v-3.2h25c.8 0 1.4.6 1.4 1.4v.3c0 .9-.6 1.5-1.4 1.5z"/></g><g><path class="st1" d="M90.8 117.9h-25c-.2 0-.4-.2-.4-.4v-3.2c0-.2.2-.4.4-.4h25c1 0 1.9.8 1.9 1.9v.3c0 1-.9 1.8-1.9 1.8zm-24.5-.8h24.5c.5 0 1-.4 1-1v-.3c0-.5-.4-1-1-1H66.3v2.3z"/><path class="st0" d="M90.8 117.5h-25v-3.2h25c.8 0 1.4.6 1.4 1.4v.3c0 .9-.6 1.5-1.4 1.5z"/><path class="st1" d="M125.3 117.9h-25c-.2 0-.4-.2-.4-.4v-3.2c0-.2.2-.4.4-.4h25c1 0 1.9.8 1.9 1.9v.3c-.1 1-.9 1.8-1.9 1.8zm-24.6-.8h24.5c.5 0 1-.4 1-1v-.3c0-.5-.4-1-1-1h-24.5v2.3z"/><path class="st0" d="M125.3 117.5h-25v-3.2h25c.8 0 1.4.6 1.4 1.4v.3c0 .9-.7 1.5-1.4 1.5z"/><path class="st1" d="M159.7 117.9h-25c-.2 0-.4-.2-.4-.4v-3.2c0-.2.2-.4.4-.4h25c1 0 1.9.8 1.9 1.9v.3c0 1-.9 1.8-1.9 1.8zm-24.5-.8h24.5c.5 0 1-.4 1-1v-.3c0-.5-.4-1-1-1h-24.5v2.3z"/><path class="st0" d="M159.7 117.5h-25v-3.2h25c.8 0 1.4.6 1.4 1.4v.3c0 .9-.6 1.5-1.4 1.5z"/></g><g><path class="st0" d="M33 28c-1.4 0-2.6 1.1-3.6 3H.3v17.5h29.1c1 1.8 2.2 3 3.6 3 3 0 5.4-5.2 5.4-11.7S36 28 33 28z"/><path class="st1" d="M33 51.7c-1.4 0-2.7-1-3.7-3H.3c-.2 0-.3-.1-.3-.3V31c0-.2.1-.3.3-.3h28.9c1-1.9 2.4-3 3.7-3 3.2 0 5.7 5.3 5.7 12s-2.4 12-5.6 12zM.6 48.2h28.8c.1 0 .2.1.3.2 1 1.8 2.1 2.8 3.3 2.8 2.8 0 5.1-5.1 5.1-11.4S35.8 28.3 33 28.3c-1.2 0-2.4 1-3.3 2.8 0 .1-.1.2-.3.2H.6v16.9z"/><ellipse class="st2" cx="33" cy="39.6" rx="4.8" ry="10.6"/><path class="st0" d="M33 69.8c-1.4 0-2.6 1.1-3.6 3H.3v17.5h29.1c1 1.8 2.2 3 3.6 3 3 0 5.4-5.2 5.4-11.7S36 69.8 33 69.8z"/><path class="st1" d="M33 93.6c-1.4 0-2.7-1-3.7-3H.3c-.2 0-.3-.1-.3-.3V72.8c0-.2.1-.3.3-.3h28.9c1-1.9 2.4-3 3.7-3 3.2 0 5.7 5.3 5.7 12S36.2 93.6 33 93.6zM.6 90h28.8c.1 0 .2.1.3.2 1 1.8 2.1 2.8 3.3 2.8 2.8 0 5.1-5.1 5.1-11.4S35.8 70.1 33 70.1c-1.2 0-2.4 1-3.3 2.8 0 .1-.1.2-.3.2H.6V90z"/><ellipse class="st2" cx="33" cy="81.4" rx="4.8" ry="10.6"/></g><path class="st1" d="M46.6 61.7c-3.1 0-5.5-5.2-5.5-11.9s2.4-11.9 5.5-11.9 5.5 5.2 5.5 11.9-2.4 11.9-5.5 11.9zm0-23.2c-2.7 0-5 5.2-5 11.3s2.3 11.3 5 11.3 5-5.2 5-11.3-2.3-11.3-5-11.3zm0 65.3c-3.1 0-5.5-5.2-5.5-11.9S43.5 80 46.6 80s5.5 5.2 5.5 11.9c0 6.6-2.4 11.9-5.5 11.9zm0-23.2c-2.7 0-5 5.1-5 11.3 0 6.1 2.3 11.3 5 11.3s5-5.2 5-11.3-2.3-11.3-5-11.3z"/></g></switch></svg>