<svg version="1.1" id="图层_1" xmlns="http://www.w3.org/2000/svg" x="0" y="0" width="105" height="159.3" xml:space="preserve"><style>.st1{opacity:.68;fill:#add4f3}.st2{fill:#eaeaea;stroke-linecap:round;stroke-linejoin:round}.st2,.st3,.st4{stroke:#747577;stroke-width:.9;stroke-miterlimit:10}.st3{fill:#adadad;stroke-linecap:round;stroke-linejoin:round}.st4{fill:none}.st5{fill:#6aa9dc}</style><path d="M104.5 32.7V10.5l-3-2.9H78V3.8C77.3 1.9 66.3.4 52.9.4 39.5.4 28.5 1.9 27.8 3.8v3.8H3.7L.5 10.5v22.2c0 1.8.8 3.5 2.4 5.1v1.9C1.3 41.1.5 42.6.5 44.2v15.3c0 1.7.9 3.3 2.4 4.9v1.5C1.3 67.3.5 68.8.5 70.4v15.3c0 1.7.9 3.3 2.4 4.9v1.5C1.3 93.5.5 95 .5 96.6v15.3c0 1.7.9 3.3 2.4 4.9v1.5c-1.6 1.4-2.4 2.9-2.4 4.5v20c0 8.8 23.3 16 52 16s52-7.2 52-16v-20.1c0-1.6-.8-3.1-2.4-4.5v-1.5c1.6-1.5 2.4-3.2 2.4-4.9V96.5c0-1.6-.8-3.1-2.4-4.5v-1.5c1.6-1.5 2.4-3.2 2.4-4.9V70.3c0-1.6-.8-3.1-2.4-4.5v-1.5c1.6-1.5 2.4-3.2 2.4-4.9V44.1c0-1.6-.8-3.1-2.4-4.5v-1.9c1.6-1.5 2.4-3.2 2.4-5z" opacity=".66" fill="#fff"/><ellipse class="st1" cx="52.9" cy="61.4" rx="46.6" ry="12.3"/><path class="st2" d="M.5 10.5h104.1v22.2H.5z"/><path class="st3" d="M101.5 7.6H3.7L.5 10.5h104z"/><path class="st4" d="M.5 122.8v15.3c0 8.9 23.3 16.1 52 16.1s52-7.2 52-16.1v-15.3"/><path class="st2" d="M52.5 153.8c-28.7 0-52-7.2-52-16.1v5.1c0 8.8 23.3 16 52 16s52-7.2 52-16v-5.1c0 8.9-23.3 16.1-52 16.1z"/><path class="st1" d="M100.3 99v13c0 7.5-21.4 13.6-47.9 13.6S4.6 119.5 4.6 112V99c0-1.3.8-2.6 2.2-3.8v-1.7h.5c6.5 5.4 24.3 9.2 45.1 9.2s38.6-3.8 45.1-9.2h.5v1.7c1.6 1.2 2.3 2.5 2.3 3.8z"/><path class="st5" d="M104.5 96.6c0 8.3-23.3 15-52 15s-52-6.7-52-15c0-1.6.8-3.1 2.4-4.5v3.5c0 7.7 22.2 14 49.6 14 27.4 0 49.6-6.3 49.6-14v-3.5c1.6 1.4 2.4 2.9 2.4 4.5z"/><path class="st4" d="M2.9 92.1C1.3 93.5.5 95 .5 96.6c0 8.3 23.3 15 52 15s52-6.7 52-15c0-1.6-.8-3.1-2.4-4.5"/><path class="st4" d="M102.1 90v5.5c0 7.7-22.2 14-49.6 14s-49.6-6.3-49.6-14V90"/><path class="st1" d="M100.3 72.9v12.9c0 7.5-21.4 13.6-47.9 13.6S4.6 93.3 4.6 85.8V72.9c0-1.3.8-2.6 2.2-3.8v-1.7h.5c6.5 5.4 24.3 9.2 45.1 9.2s38.6-3.8 45.1-9.2h.5V69c1.6 1.2 2.3 2.5 2.3 3.9z"/><path class="st5" d="M104.5 70.4c0 8.3-23.3 15-52 15s-52-6.7-52-15c0-1.6.8-3.1 2.4-4.5v3.5c0 7.7 22.2 14 49.6 14 27.4 0 49.6-6.3 49.6-14v-3.5c1.6 1.4 2.4 2.9 2.4 4.5z"/><path class="st4" d="M.5 70.4v15.3c0 8.9 23.3 16.1 52 16.1s52-7.2 52-16.1V70.4"/><path class="st4" d="M2.9 65.9C1.3 67.3.5 68.8.5 70.4c0 8.3 23.3 15 52 15s52-6.7 52-15c0-1.6-.8-3.1-2.4-4.5"/><path class="st4" d="M102.1 63.9v5.5c0 7.7-22.2 14-49.6 14s-49.6-6.3-49.6-14v-5.5"/><path class="st4" d="M.5 44.2v15.3c0 8.9 23.3 16.1 52 16.1s52-7.2 52-16.1V44.2"/><path class="st4" d="M2.9 39.7C1.3 41.1.5 42.6.5 44.2c0 8.3 23.3 15 52 15s52-6.7 52-15c0-1.6-.8-3.1-2.4-4.5"/><path class="st4" d="M102.1 37.7v5.5c0 7.7-22.2 14-49.6 14S2.9 51 2.9 43.2v-5.5"/><path d="M104.5 32.7c0-9.2-22.9-22.2-51.6-22.2S.5 23.5.5 32.7s23.3 16.7 52 16.7 52-7.4 52-16.7z" fill="#fff" stroke="#747577" stroke-width=".9" stroke-miterlimit="10"/><path class="st2" d="M27.8 3.8v6.9c0 2.2 11.2 4 25.1 4 13.9 0 25.1-1.8 25.1-4V3.8H27.8z"/><ellipse class="st3" cx="52.9" cy="4" rx="25.1" ry="3.6"/><path class="st2" d="M62.4 21.1H43.3v28.1c6.2.4 12.6.3 19.1 0V21.1z"/><path class="st3" d="M61.9 14.8h-18l-.6 6.3h19.1z"/><path class="st1" d="M100.3 125.2v12.9c0 7.5-21.4 13.6-47.9 13.6s-47.9-6.1-47.9-13.6v-12.9c0-1.3.8-2.6 2.2-3.8v-1.7h.5c6.5 5.4 24.3 9.2 45.1 9.2s38.6-3.8 45.1-9.2h.5v1.7c1.7 1.2 2.4 2.5 2.4 3.8z"/><path class="st4" d="M.5 96.6v15.3c0 8.9 23.3 16.1 52 16.1s52-7.2 52-16.1V96.6"/><path class="st5" d="M104.5 122.8c0 8.3-23.3 15-52 15s-52-6.7-52-15c0-1.6.8-3.1 2.4-4.5v3.5c0 7.7 22.2 14 49.6 14 27.4 0 49.6-6.3 49.6-14v-3.5c1.6 1.4 2.4 2.9 2.4 4.5z"/><path class="st4" d="M2.9 118.2c-1.6 1.4-2.4 2.9-2.4 4.5 0 8.3 23.3 15 52 15s52-6.7 52-15c0-1.6-.8-3.1-2.4-4.5"/><path class="st4" d="M102.1 116.2v5.5c0 7.7-22.2 14-49.6 14s-49.6-6.3-49.6-14v-5.5"/></svg>