<svg version="1.1" id="图层_1" xmlns="http://www.w3.org/2000/svg" xmlns:xlink="http://www.w3.org/1999/xlink" x="0" y="0" width="217" height="115.4" xml:space="preserve"><style>.st0{fill:#d6d7d7}.st1{fill:#747577}.st2{fill:#eaeaea}.st3{fill:#fff}</style><switch><g><path class="st0" d="M212.3 73.3h-22.9s4.7-2.1 4.9-8.8c.2-6.6-4.9-8.6-4.9-8.6h22.9s4.5 1.8 4.5 8.7-4.5 8.7-4.5 8.7z"/><path class="st1" d="M212.3 73.6h-22.9c-.1 0-.3-.1-.3-.2s0-.3.2-.3c0 0 4.6-2.2 4.7-8.5.2-6.3-4.5-8.3-4.7-8.3-.1-.1-.2-.2-.2-.3 0-.1.2-.2.3-.2h23c.2.1 4.7 1.9 4.7 8.9s-4.5 8.9-4.7 9c-.1-.2-.1-.1-.1-.1zm-21.9-.6h21.8c.5-.2 4.2-2.1 4.2-8.4 0-6.3-3.7-8.1-4.2-8.4h-21.7c1.5 1 4.2 3.5 4.1 8.3-.2 4.9-2.8 7.4-4.2 8.5z"/><path class="st0" d="M156.5 115.1h33.2c7.5-3.1 13.3-24.8 13.3-50.6s-5.8-47.5-13.3-50.6h-33.2v101.2z"/><ellipse class="st2" cx="156.5" cy="64.6" rx="15.2" ry="50.6"/><path class="st3" d="M156.5 115.4c-8.5 0-15.5-22.8-15.5-50.9s6.9-50.9 15.5-50.9c8.5 0 15.5 22.8 15.5 50.9s-7 50.9-15.5 50.9zm0-101.1c-8.2 0-14.9 22.6-14.9 50.3 0 27.7 6.7 50.3 14.9 50.3s14.9-22.6 14.9-50.3c0-27.8-6.7-50.3-14.9-50.3z"/><path class="st0" d="M144 96.8h7v-.1c6.1-1.5 10.8-15.3 10.8-32.1S157.1 34 151 32.5v-.1h-7v64.4z"/><path class="st1" d="M151 97.1h-7c-.2 0-.3-.1-.3-.3V32.3c0-.2.1-.3.3-.3h7c.1 0 .3.1.3.2 6.2 1.8 10.8 15.6 10.8 32.3s-4.6 30.5-10.8 32.3c0 .2-.2.3-.3.3zm-6.7-.6h6.5c0-.1.1-.1.2-.1 5.9-1.5 10.6-15.4 10.6-31.8S157 34.2 151 32.8c-.1 0-.1-.1-.2-.1h-6.5v63.8z"/><path class="st2" d="M137.2 27.6c-3.2 7.6-5.4 21.3-5.4 37s2.2 29.5 5.4 37v6.2h5.7c6.1 0 11.1-19.3 11.1-43.2s-5-43.2-11.1-43.2h-5.7v6.2z"/><ellipse class="st1" cx="137.2" cy="64.6" rx="11.1" ry="43.2"/><path class="st2" d="M129 27.6c-3.2 7.6-5.4 21.3-5.4 37s2.2 29.5 5.4 37v6.2h5.7c6.1 0 11.1-19.3 11.1-43.2s-5-43.2-11.1-43.2H129v6.2z"/><ellipse class="st0" cx="128.9" cy="64.6" rx="11.1" ry="43.2"/><path class="st3" d="M128.9 108.1c-6.4 0-11.4-19.1-11.4-43.5s5-43.5 11.4-43.5 11.4 19.1 11.4 43.5-5 43.5-11.4 43.5zm0-86.4c-5.9 0-10.8 19.2-10.8 42.9s4.8 42.9 10.8 42.9c5.9 0 10.8-19.2 10.8-42.9s-4.8-42.9-10.8-42.9z"/><path class="st1" d="M118.3 24.9H30.7V107h87.7c.1 0 .2.1.3.1 7.2 0 13.1-18.4 13.1-41.1 0-22.7-5.9-41.1-13.1-41.1-.1-.1-.2 0-.4 0z"/><defs><path id="SVGID_1_" d="M34.7 24.9C42.6 25.5 49 43.7 49 66s-6.3 40.5-14.3 41.1h79.5c.1 0 .2.1.3.1 7.2 0 13.1-18.4 13.1-41.1 0-22.7-5.9-41.1-13.1-41.1-.1 0-.2 0-.3.1H34.7z"/></defs><clipPath id="SVGID_2_"><use xlink:href="#SVGID_1_" overflow="visible"/></clipPath><g clip-path="url(#SVGID_2_)"><path class="st0" d="M6.5 65.1h148.3v1.8H6.5zm0 39.9h148.3v1.8H6.5zm0-3.6h148.3v1.8H6.5zm0-4h148.3v1.8H6.5zm0-4.6h148.3v1.8H6.5zm0-4.6h148.3V90H6.5zm0-11.1h148.3v1.8H6.5zm0 5.9h148.3v1.8H6.5zm0-12h148.3v1.8H6.5zm0-46.5h148.3v1.8H6.5zm0 3.6h148.3v1.8H6.5zm0 4h148.3v1.8H6.5zm0 4.6h148.3v1.8H6.5zm0 4.6h148.3v1.8H6.5zm0 5.2h148.3v1.8H6.5zm0 5.9h148.3v1.8H6.5zm0 6.2h148.3v1.8H6.5z"/></g><circle class="st0" cx="87.8" cy="65.9" r="24.2"/><path class="st1" d="M87.8 90.4c-13.5 0-24.5-11-24.5-24.5s11-24.5 24.5-24.5 24.5 11 24.5 24.5-11 24.5-24.5 24.5zm0-48.4c-13.2 0-23.9 10.7-23.9 23.9s10.7 23.9 23.9 23.9 23.9-10.7 23.9-23.9C111.7 52.8 101 42 87.8 42z"/><ellipse class="st2" cx="29.9" cy="65.9" rx="15.2" ry="41.1"/><path transform="rotate(-90 23.233 65.986)" class="st2" d="M-17.8 58.6h82.1v14.9h-82.1z"/><ellipse class="st2" cx="15.5" cy="65.9" rx="15.2" ry="41.1"/><path class="st1" d="M15.2 107.4c-.2 0-.3-.1-.3-.3s.1-.3.3-.3c7.9 0 14.3-18.3 14.3-40.8 0-22.5-6.4-40.8-14.3-40.8-.2 0-.3-.1-.3-.3s.1-.3.3-.3c8.2 0 14.9 18.6 14.9 41.4.1 22.8-6.6 41.4-14.9 41.4z"/><ellipse class="st0" cx="9.5" cy="66.2" rx="9.2" ry="34.5"/><path class="st1" d="M189.7 115.4h-33.2c-3.5 0-6.7-3.6-9.4-10.4-1.3 2-2.8 3-4.2 3h-5.7c-.4 0-.8-.1-1.3-.3-.5.2-.9.3-1.3.3H129c-1.7 0-3.4-1.4-4.9-4.1-1.7 2.3-3.5 3.4-5.4 3.4H30.8s-.1.1-.2.1h-15c-.2 0-.5.1-.6-.1-3.4-.3-6.6-3.4-9.2-9C2.3 92.9 0 80.3 0 66.2v-1c0-1 0-2 .1-3.1v-.9C.5 50.5 2.3 41 4.8 35.9c2.9-7.3 6.7-11.3 10.7-11.3.2 0 .4 0 .6.1h13.1c.4-.1.8-.1 1.2 0h88.3c1.5 0 3 .8 4.5 2.4 1.7-3.9 3.7-5.8 5.7-5.8h5.7c.4 0 .8.1 1.3.3.5-.2.9-.3 1.3-.3h5.7c1.5 0 2.9 1 4.2 3 2.7-6.8 5.9-10.4 9.4-10.4h33.3c7.7 3.2 13.5 25.1 13.5 50.8s-5.8 47.7-13.5 50.8c0-.1 0-.1-.1-.1zm-42.5-11.3c.1 0 .2.1.3.2 2.6 6.8 5.8 10.6 9.1 10.6h33.2c7.4-3.2 13-24.8 13-50.3s-5.6-47.1-13-50.3h-33.2c-3.2 0-6.4 3.8-9.1 10.6 0 .1-.1.2-.3.2-.1 0-.2 0-.3-.1-1.3-2.2-2.7-3.3-4.1-3.3h-5.7c-.4 0-.7.1-1.1.3h-.2c-.4-.2-.8-.3-1.1-.3h-5.9c-1.8 0-3.6 2.1-5.3 5.9 0 .1-.1.2-.2.2s-.2 0-.3-.1c-1.4-1.7-2.9-2.5-4.4-2.5H30.7c-.1 0-.1.1-.2 0h-.3c-.3-.1-.7-.1-1 0H15.8c-.2 0-.3-.1-.5-.1-3.7 0-7.3 3.9-10.1 11C2.7 41.2.9 50.6.5 61.2v.9c0 1 0 2-.1 3v1.1c0 14 2.2 26.5 5.7 31.8 2.6 5.6 5.7 8.6 8.9 8.7.1 0 .1 0 .2.1h15s.1-.1.2-.1h88c1.8 0 3.5-1.2 5.2-3.5.1-.1.2-.1.3-.1.1 0 .2.1.2.2 1.4 2.8 3 4.2 4.6 4.2h5.7c.4 0 .7-.1 1.1-.3h.2c.4.2.8.3 1.1.3h5.7c1.4 0 2.7-1.1 4.1-3.3.4-.1.5-.1.6-.1z"/><path class="st0" d="M171.1 23.2V.3s2.1 4.7 8.8 4.9c6.6.2 8.6-4.9 8.6-4.9v22.9s-1.8 4.5-8.7 4.5-8.7-4.5-8.7-4.5z"/><path class="st1" d="M179.8 28c-7 0-8.9-4.5-9-4.7V.3c0-.1.1-.3.2-.3s.3 0 .3.2c0 0 2.2 4.6 8.5 4.7h.3c6.1 0 8-4.7 8-4.7.1-.1.2-.2.3-.2.1 0 .2.2.2.3v23c.1.2-1.8 4.7-8.8 4.7zm-8.4-4.8c.2.5 2.1 4.2 8.4 4.2 6.3 0 8.1-3.7 8.4-4.2V1.5c-1 1.5-3.4 4.1-8 4.1h-.3c-4.9-.1-7.4-2.7-8.5-4.2v21.8z"/><g><circle cx="87.8" cy="65.9" r="24.2" fill="#fc3a3a"/><path class="st3" d="M90.4 70.5h-5.2l-.5-18.9h6.2z"/><circle class="st3" cx="87.8" cy="76.1" r="4.1"/></g></g></switch></svg>