<svg version="1.1" id="图层_1" xmlns="http://www.w3.org/2000/svg" x="0" y="0" width="673" height="252.6" xml:space="preserve"><style>.st0{fill:#d6d7d7}.st1{fill:#747577}.st2,.st3{opacity:.1;fill:#212333}.st3{opacity:.3}.st4{fill:#959596}.st5{fill:#fff}.st6{opacity:.2;fill:#212333}.st7{fill:#e8e8e8}.st8{fill:#adadad}.st9{fill:#c4c4c4}.st10{fill:#bababa}.st12{fill:#888889}</style><path class="st0" d="M131.7 132.2h-58c-.6 0-1-.4-1-1v-58c0-.6.4-1 1-1h58c.6 0 1 .4 1 1v58c0 .6-.5 1-1 1z"/><path class="st1" d="M131.7 132.6h-58c-.8 0-1.4-.6-1.4-1.4v-58c0-.8.6-1.4 1.4-1.4h58c.8 0 1.4.6 1.4 1.4v58c-.1.8-.7 1.4-1.4 1.4zm-58-60c-.3 0-.6.3-.6.6v58c0 .3.3.6.6.6h58c.3 0 .6-.3.6-.6v-58c0-.3-.3-.6-.6-.6h-58z"/><path class="st2" d="M124.7 129.2h-44c-2.8 0-5-2.2-5-5v-44c0-2.8 2.2-5 5-5h44c2.8 0 5 2.2 5 5v44c0 2.8-2.3 5-5 5z"/><path class="st3" d="M76.9 126.5V80.8c0-2.4 1.9-4.3 4.3-4.3h46.7c-.9-.8-2-1.2-3.3-1.2h-44c-2.8 0-5 2.2-5 5v44c0 1.4.6 2.6 1.4 3.5 0-.4-.1-.8-.1-1.3z"/><path class="st0" d="M76.9 124V80.5c0-2.2 1.8-4 4-4h43.5c2.2 0 4 1.8 4 4V124c0 2.2-1.8 4-4 4H80.9c-2.2 0-4-1.8-4-4z"/><path class="st4" d="M124.4 128.3H80.9c-2.3 0-4.3-1.9-4.3-4.3V80.5c0-2.3 1.9-4.3 4.3-4.3h43.5c2.3 0 4.3 1.9 4.3 4.3V124c0 2.3-1.9 4.3-4.3 4.3zM80.9 76.7c-2.1 0-3.8 1.7-3.8 3.8V124c0 2.1 1.7 3.8 3.8 3.8h43.5c2.1 0 3.8-1.7 3.8-3.8V80.5c0-2.1-1.7-3.8-3.8-3.8H80.9z"/><path class="st5" d="M76.9 124.3c-.1 0-.3-.1-.3-.3V80.5c0-2.3 1.9-4.3 4.3-4.3h43.5c.1 0 .3.1.3.3s-.1.3-.3.3H80.9c-2.1 0-3.8 1.7-3.8 3.8V124c.1.1 0 .3-.2.3z"/><circle class="st6" cx="103.2" cy="102.8" r="21.2"/><circle class="st7" cx="102.7" cy="102.2" r="21.2"/><path class="st0" d="M131.7 192.2h-58c-.6 0-1-.4-1-1v-58c0-.6.4-1 1-1h58c.6 0 1 .4 1 1v58c0 .6-.5 1-1 1z"/><path class="st1" d="M131.7 192.6h-58c-.8 0-1.4-.6-1.4-1.4v-58c0-.8.6-1.4 1.4-1.4h58c.8 0 1.4.6 1.4 1.4v58c-.1.8-.7 1.4-1.4 1.4zm-58-60c-.3 0-.6.3-.6.6v58c0 .3.3.6.6.6h58c.3 0 .6-.3.6-.6v-58c0-.3-.3-.6-.6-.6h-58z"/><path class="st2" d="M124.7 189.2h-44c-2.8 0-5-2.2-5-5v-44c0-2.8 2.2-5 5-5h44c2.8 0 5 2.2 5 5v44c0 2.8-2.3 5-5 5z"/><path class="st3" d="M76.9 186.5v-45.8c0-2.4 1.9-4.3 4.3-4.3h46.7c-.9-.8-2-1.2-3.3-1.2h-44c-2.8 0-5 2.2-5 5v44c0 1.4.6 2.6 1.4 3.5 0-.3-.1-.7-.1-1.2z"/><path class="st0" d="M76.9 184v-43.5c0-2.2 1.8-4 4-4h43.5c2.2 0 4 1.8 4 4V184c0 2.2-1.8 4-4 4H80.9c-2.2 0-4-1.8-4-4z"/><path class="st4" d="M124.4 188.3H80.9c-2.3 0-4.3-1.9-4.3-4.3v-43.5c0-2.3 1.9-4.3 4.3-4.3h43.5c2.3 0 4.3 1.9 4.3 4.3V184c0 2.3-1.9 4.3-4.3 4.3zm-43.5-51.6c-2.1 0-3.8 1.7-3.8 3.8V184c0 2.1 1.7 3.8 3.8 3.8h43.5c2.1 0 3.8-1.7 3.8-3.8v-43.5c0-2.1-1.7-3.8-3.8-3.8H80.9z"/><path class="st5" d="M76.9 184.3c-.1 0-.3-.1-.3-.3v-43.5c0-2.3 1.9-4.3 4.3-4.3h43.5c.1 0 .3.1.3.3s-.1.3-.3.3H80.9c-2.1 0-3.8 1.7-3.8 3.8V184c.1.1 0 .3-.2.3z"/><circle class="st6" cx="103.2" cy="162.8" r="21.2"/><circle class="st7" cx="102.7" cy="162.2" r="21.2"/><path class="st0" d="M131.7 252.2h-58c-.6 0-1-.4-1-1v-58c0-.6.4-1 1-1h58c.6 0 1 .4 1 1v58c0 .6-.5 1-1 1z"/><path class="st1" d="M131.7 252.6h-58c-.8 0-1.4-.6-1.4-1.4v-58c0-.8.6-1.4 1.4-1.4h58c.8 0 1.4.6 1.4 1.4v58c-.1.8-.7 1.4-1.4 1.4zm-58-60c-.3 0-.6.3-.6.6v58c0 .3.3.6.6.6h58c.3 0 .6-.3.6-.6v-58c0-.3-.3-.6-.6-.6h-58z"/><path class="st2" d="M124.7 249.2h-44c-2.8 0-5-2.2-5-5v-44c0-2.8 2.2-5 5-5h44c2.8 0 5 2.2 5 5v44c0 2.8-2.3 5-5 5z"/><path class="st3" d="M76.9 246.5v-45.8c0-2.4 1.9-4.3 4.3-4.3h46.7c-.9-.8-2-1.2-3.3-1.2h-44c-2.8 0-5 2.2-5 5v44c0 1.4.6 2.6 1.4 3.5 0-.3-.1-.7-.1-1.2z"/><path class="st0" d="M76.9 244v-43.5c0-2.2 1.8-4 4-4h43.5c2.2 0 4 1.8 4 4V244c0 2.2-1.8 4-4 4H80.9c-2.2 0-4-1.8-4-4z"/><path class="st4" d="M124.4 248.3H80.9c-2.3 0-4.3-1.9-4.3-4.3v-43.5c0-2.3 1.9-4.3 4.3-4.3h43.5c2.3 0 4.3 1.9 4.3 4.3V244c0 2.3-1.9 4.3-4.3 4.3zm-43.5-51.6c-2.1 0-3.8 1.7-3.8 3.8V244c0 2.1 1.7 3.8 3.8 3.8h43.5c2.1 0 3.8-1.7 3.8-3.8v-43.5c0-2.1-1.7-3.8-3.8-3.8H80.9z"/><path class="st5" d="M76.9 244.3c-.1 0-.3-.1-.3-.3v-43.5c0-2.3 1.9-4.3 4.3-4.3h43.5c.1 0 .3.1.3.3s-.1.3-.3.3H80.9c-2.1 0-3.8 1.7-3.8 3.8V244c.1.1 0 .3-.2.3z"/><circle class="st6" cx="103.2" cy="222.8" r="21.2"/><circle class="st7" cx="102.7" cy="222.2" r="21.2"/><g><path class="st0" d="M191.7 132.2h-58c-.6 0-1-.4-1-1v-58c0-.6.4-1 1-1h58c.6 0 1 .4 1 1v58c0 .6-.5 1-1 1z"/><path class="st1" d="M191.7 132.6h-58c-.8 0-1.4-.6-1.4-1.4v-58c0-.8.6-1.4 1.4-1.4h58c.8 0 1.4.6 1.4 1.4v58c-.1.8-.7 1.4-1.4 1.4zm-58-60c-.3 0-.6.3-.6.6v58c0 .3.3.6.6.6h58c.3 0 .6-.3.6-.6v-58c0-.3-.3-.6-.6-.6h-58z"/><path class="st2" d="M184.7 129.2h-44c-2.8 0-5-2.2-5-5v-44c0-2.8 2.2-5 5-5h44c2.8 0 5 2.2 5 5v44c0 2.8-2.3 5-5 5z"/><path class="st3" d="M136.9 126.5V80.8c0-2.4 1.9-4.3 4.3-4.3h46.7c-.9-.8-2-1.2-3.3-1.2h-44c-2.8 0-5 2.2-5 5v44c0 1.4.6 2.6 1.4 3.5 0-.4-.1-.8-.1-1.3z"/><path class="st0" d="M136.9 124V80.5c0-2.2 1.8-4 4-4h43.5c2.2 0 4 1.8 4 4V124c0 2.2-1.8 4-4 4h-43.5c-2.2 0-4-1.8-4-4z"/><path class="st4" d="M184.4 128.3h-43.5c-2.3 0-4.3-1.9-4.3-4.3V80.5c0-2.3 1.9-4.3 4.3-4.3h43.5c2.3 0 4.3 1.9 4.3 4.3V124c0 2.3-1.9 4.3-4.3 4.3zm-43.5-51.6c-2.1 0-3.8 1.7-3.8 3.8V124c0 2.1 1.7 3.8 3.8 3.8h43.5c2.1 0 3.8-1.7 3.8-3.8V80.5c0-2.1-1.7-3.8-3.8-3.8h-43.5z"/><path class="st5" d="M136.9 124.3c-.1 0-.3-.1-.3-.3V80.5c0-2.3 1.9-4.3 4.3-4.3h43.5c.1 0 .3.1.3.3s-.1.3-.3.3h-43.5c-2.1 0-3.8 1.7-3.8 3.8V124c.1.1 0 .3-.2.3z"/><circle class="st6" cx="163.2" cy="102.8" r="21.2"/><circle class="st7" cx="162.7" cy="102.2" r="21.2"/><g><path class="st0" d="M191.7 192.2h-58c-.6 0-1-.4-1-1v-58c0-.6.4-1 1-1h58c.6 0 1 .4 1 1v58c0 .6-.5 1-1 1z"/><path class="st1" d="M191.7 192.6h-58c-.8 0-1.4-.6-1.4-1.4v-58c0-.8.6-1.4 1.4-1.4h58c.8 0 1.4.6 1.4 1.4v58c-.1.8-.7 1.4-1.4 1.4zm-58-60c-.3 0-.6.3-.6.6v58c0 .3.3.6.6.6h58c.3 0 .6-.3.6-.6v-58c0-.3-.3-.6-.6-.6h-58z"/><path class="st2" d="M184.7 189.2h-44c-2.8 0-5-2.2-5-5v-44c0-2.8 2.2-5 5-5h44c2.8 0 5 2.2 5 5v44c0 2.8-2.3 5-5 5z"/><path class="st3" d="M136.9 186.5v-45.8c0-2.4 1.9-4.3 4.3-4.3h46.7c-.9-.8-2-1.2-3.3-1.2h-44c-2.8 0-5 2.2-5 5v44c0 1.4.6 2.6 1.4 3.5 0-.3-.1-.7-.1-1.2z"/><path class="st0" d="M136.9 184v-43.5c0-2.2 1.8-4 4-4h43.5c2.2 0 4 1.8 4 4V184c0 2.2-1.8 4-4 4h-43.5c-2.2 0-4-1.8-4-4z"/><path class="st4" d="M184.4 188.3h-43.5c-2.3 0-4.3-1.9-4.3-4.3v-43.5c0-2.3 1.9-4.3 4.3-4.3h43.5c2.3 0 4.3 1.9 4.3 4.3V184c0 2.3-1.9 4.3-4.3 4.3zm-43.5-51.6c-2.1 0-3.8 1.7-3.8 3.8V184c0 2.1 1.7 3.8 3.8 3.8h43.5c2.1 0 3.8-1.7 3.8-3.8v-43.5c0-2.1-1.7-3.8-3.8-3.8h-43.5z"/><path class="st5" d="M136.9 184.3c-.1 0-.3-.1-.3-.3v-43.5c0-2.3 1.9-4.3 4.3-4.3h43.5c.1 0 .3.1.3.3s-.1.3-.3.3h-43.5c-2.1 0-3.8 1.7-3.8 3.8V184c.1.1 0 .3-.2.3z"/><circle class="st6" cx="163.2" cy="162.8" r="21.2"/><circle class="st7" cx="162.7" cy="162.2" r="21.2"/></g><g><path class="st0" d="M191.7 252.2h-58c-.6 0-1-.4-1-1v-58c0-.6.4-1 1-1h58c.6 0 1 .4 1 1v58c0 .6-.5 1-1 1z"/><path class="st1" d="M191.7 252.6h-58c-.8 0-1.4-.6-1.4-1.4v-58c0-.8.6-1.4 1.4-1.4h58c.8 0 1.4.6 1.4 1.4v58c-.1.8-.7 1.4-1.4 1.4zm-58-60c-.3 0-.6.3-.6.6v58c0 .3.3.6.6.6h58c.3 0 .6-.3.6-.6v-58c0-.3-.3-.6-.6-.6h-58z"/><path class="st2" d="M184.7 249.2h-44c-2.8 0-5-2.2-5-5v-44c0-2.8 2.2-5 5-5h44c2.8 0 5 2.2 5 5v44c0 2.8-2.3 5-5 5z"/><path class="st3" d="M136.9 246.5v-45.8c0-2.4 1.9-4.3 4.3-4.3h46.7c-.9-.8-2-1.2-3.3-1.2h-44c-2.8 0-5 2.2-5 5v44c0 1.4.6 2.6 1.4 3.5 0-.3-.1-.7-.1-1.2z"/><path class="st0" d="M136.9 244v-43.5c0-2.2 1.8-4 4-4h43.5c2.2 0 4 1.8 4 4V244c0 2.2-1.8 4-4 4h-43.5c-2.2 0-4-1.8-4-4z"/><path class="st4" d="M184.4 248.3h-43.5c-2.3 0-4.3-1.9-4.3-4.3v-43.5c0-2.3 1.9-4.3 4.3-4.3h43.5c2.3 0 4.3 1.9 4.3 4.3V244c0 2.3-1.9 4.3-4.3 4.3zm-43.5-51.6c-2.1 0-3.8 1.7-3.8 3.8V244c0 2.1 1.7 3.8 3.8 3.8h43.5c2.1 0 3.8-1.7 3.8-3.8v-43.5c0-2.1-1.7-3.8-3.8-3.8h-43.5z"/><path class="st5" d="M136.9 244.3c-.1 0-.3-.1-.3-.3v-43.5c0-2.3 1.9-4.3 4.3-4.3h43.5c.1 0 .3.1.3.3s-.1.3-.3.3h-43.5c-2.1 0-3.8 1.7-3.8 3.8V244c.1.1 0 .3-.2.3z"/><circle class="st6" cx="163.2" cy="222.8" r="21.2"/><circle class="st7" cx="162.7" cy="222.2" r="21.2"/></g></g><g><path class="st0" d="M251.7 132.2h-58c-.6 0-1-.4-1-1v-58c0-.6.4-1 1-1h58c.6 0 1 .4 1 1v58c0 .6-.5 1-1 1z"/><path class="st1" d="M251.7 132.6h-58c-.8 0-1.4-.6-1.4-1.4v-58c0-.8.6-1.4 1.4-1.4h58c.8 0 1.4.6 1.4 1.4v58c-.1.8-.7 1.4-1.4 1.4zm-58-60c-.3 0-.6.3-.6.6v58c0 .3.3.6.6.6h58c.3 0 .6-.3.6-.6v-58c0-.3-.3-.6-.6-.6h-58z"/><path class="st2" d="M244.7 129.2h-44c-2.8 0-5-2.2-5-5v-44c0-2.8 2.2-5 5-5h44c2.8 0 5 2.2 5 5v44c0 2.8-2.3 5-5 5z"/><path class="st3" d="M196.9 126.5V80.8c0-2.4 1.9-4.3 4.3-4.3h46.7c-.9-.8-2-1.2-3.3-1.2h-44c-2.8 0-5 2.2-5 5v44c0 1.4.6 2.6 1.4 3.5 0-.4-.1-.8-.1-1.3z"/><path class="st0" d="M196.9 124V80.5c0-2.2 1.8-4 4-4h43.5c2.2 0 4 1.8 4 4V124c0 2.2-1.8 4-4 4h-43.5c-2.2 0-4-1.8-4-4z"/><path class="st4" d="M244.4 128.3h-43.5c-2.3 0-4.3-1.9-4.3-4.3V80.5c0-2.3 1.9-4.3 4.3-4.3h43.5c2.3 0 4.3 1.9 4.3 4.3V124c0 2.3-1.9 4.3-4.3 4.3zm-43.5-51.6c-2.1 0-3.8 1.7-3.8 3.8V124c0 2.1 1.7 3.8 3.8 3.8h43.5c2.1 0 3.8-1.7 3.8-3.8V80.5c0-2.1-1.7-3.8-3.8-3.8h-43.5z"/><path class="st5" d="M196.9 124.3c-.1 0-.3-.1-.3-.3V80.5c0-2.3 1.9-4.3 4.3-4.3h43.5c.1 0 .3.1.3.3s-.1.3-.3.3h-43.5c-2.1 0-3.8 1.7-3.8 3.8V124c.1.1 0 .3-.2.3z"/><circle class="st6" cx="223.2" cy="102.8" r="21.2"/><circle class="st7" cx="222.7" cy="102.2" r="21.2"/><g><path class="st0" d="M251.7 192.2h-58c-.6 0-1-.4-1-1v-58c0-.6.4-1 1-1h58c.6 0 1 .4 1 1v58c0 .6-.5 1-1 1z"/><path class="st1" d="M251.7 192.6h-58c-.8 0-1.4-.6-1.4-1.4v-58c0-.8.6-1.4 1.4-1.4h58c.8 0 1.4.6 1.4 1.4v58c-.1.8-.7 1.4-1.4 1.4zm-58-60c-.3 0-.6.3-.6.6v58c0 .3.3.6.6.6h58c.3 0 .6-.3.6-.6v-58c0-.3-.3-.6-.6-.6h-58z"/><path class="st2" d="M244.7 189.2h-44c-2.8 0-5-2.2-5-5v-44c0-2.8 2.2-5 5-5h44c2.8 0 5 2.2 5 5v44c0 2.8-2.3 5-5 5z"/><path class="st3" d="M196.9 186.5v-45.8c0-2.4 1.9-4.3 4.3-4.3h46.7c-.9-.8-2-1.2-3.3-1.2h-44c-2.8 0-5 2.2-5 5v44c0 1.4.6 2.6 1.4 3.5 0-.3-.1-.7-.1-1.2z"/><path class="st0" d="M196.9 184v-43.5c0-2.2 1.8-4 4-4h43.5c2.2 0 4 1.8 4 4V184c0 2.2-1.8 4-4 4h-43.5c-2.2 0-4-1.8-4-4z"/><path class="st4" d="M244.4 188.3h-43.5c-2.3 0-4.3-1.9-4.3-4.3v-43.5c0-2.3 1.9-4.3 4.3-4.3h43.5c2.3 0 4.3 1.9 4.3 4.3V184c0 2.3-1.9 4.3-4.3 4.3zm-43.5-51.6c-2.1 0-3.8 1.7-3.8 3.8V184c0 2.1 1.7 3.8 3.8 3.8h43.5c2.1 0 3.8-1.7 3.8-3.8v-43.5c0-2.1-1.7-3.8-3.8-3.8h-43.5z"/><path class="st5" d="M196.9 184.3c-.1 0-.3-.1-.3-.3v-43.5c0-2.3 1.9-4.3 4.3-4.3h43.5c.1 0 .3.1.3.3s-.1.3-.3.3h-43.5c-2.1 0-3.8 1.7-3.8 3.8V184c.1.1 0 .3-.2.3z"/><circle class="st6" cx="223.2" cy="162.8" r="21.2"/><circle class="st7" cx="222.7" cy="162.2" r="21.2"/></g><g><path class="st0" d="M251.7 252.2h-58c-.6 0-1-.4-1-1v-58c0-.6.4-1 1-1h58c.6 0 1 .4 1 1v58c0 .6-.5 1-1 1z"/><path class="st1" d="M251.7 252.6h-58c-.8 0-1.4-.6-1.4-1.4v-58c0-.8.6-1.4 1.4-1.4h58c.8 0 1.4.6 1.4 1.4v58c-.1.8-.7 1.4-1.4 1.4zm-58-60c-.3 0-.6.3-.6.6v58c0 .3.3.6.6.6h58c.3 0 .6-.3.6-.6v-58c0-.3-.3-.6-.6-.6h-58z"/><path class="st2" d="M244.7 249.2h-44c-2.8 0-5-2.2-5-5v-44c0-2.8 2.2-5 5-5h44c2.8 0 5 2.2 5 5v44c0 2.8-2.3 5-5 5z"/><path class="st3" d="M196.9 246.5v-45.8c0-2.4 1.9-4.3 4.3-4.3h46.7c-.9-.8-2-1.2-3.3-1.2h-44c-2.8 0-5 2.2-5 5v44c0 1.4.6 2.6 1.4 3.5 0-.3-.1-.7-.1-1.2z"/><path class="st0" d="M196.9 244v-43.5c0-2.2 1.8-4 4-4h43.5c2.2 0 4 1.8 4 4V244c0 2.2-1.8 4-4 4h-43.5c-2.2 0-4-1.8-4-4z"/><path class="st4" d="M244.4 248.3h-43.5c-2.3 0-4.3-1.9-4.3-4.3v-43.5c0-2.3 1.9-4.3 4.3-4.3h43.5c2.3 0 4.3 1.9 4.3 4.3V244c0 2.3-1.9 4.3-4.3 4.3zm-43.5-51.6c-2.1 0-3.8 1.7-3.8 3.8V244c0 2.1 1.7 3.8 3.8 3.8h43.5c2.1 0 3.8-1.7 3.8-3.8v-43.5c0-2.1-1.7-3.8-3.8-3.8h-43.5z"/><path class="st5" d="M196.9 244.3c-.1 0-.3-.1-.3-.3v-43.5c0-2.3 1.9-4.3 4.3-4.3h43.5c.1 0 .3.1.3.3s-.1.3-.3.3h-43.5c-2.1 0-3.8 1.7-3.8 3.8V244c.1.1 0 .3-.2.3z"/><circle class="st6" cx="223.2" cy="222.8" r="21.2"/><circle class="st7" cx="222.7" cy="222.2" r="21.2"/></g></g><g><path class="st0" d="M311.7 132.2h-58c-.6 0-1-.4-1-1v-58c0-.6.4-1 1-1h58c.6 0 1 .4 1 1v58c0 .6-.5 1-1 1z"/><path class="st1" d="M311.7 132.6h-58c-.8 0-1.4-.6-1.4-1.4v-58c0-.8.6-1.4 1.4-1.4h58c.8 0 1.4.6 1.4 1.4v58c-.1.8-.7 1.4-1.4 1.4zm-58-60c-.3 0-.6.3-.6.6v58c0 .3.3.6.6.6h58c.3 0 .6-.3.6-.6v-58c0-.3-.3-.6-.6-.6h-58z"/><path class="st2" d="M304.7 129.2h-44c-2.8 0-5-2.2-5-5v-44c0-2.8 2.2-5 5-5h44c2.8 0 5 2.2 5 5v44c0 2.8-2.3 5-5 5z"/><path class="st3" d="M256.9 126.5V80.8c0-2.4 1.9-4.3 4.3-4.3h46.7c-.9-.8-2-1.2-3.3-1.2h-44c-2.8 0-5 2.2-5 5v44c0 1.4.6 2.6 1.4 3.5 0-.4-.1-.8-.1-1.3z"/><path class="st0" d="M256.9 124V80.5c0-2.2 1.8-4 4-4h43.5c2.2 0 4 1.8 4 4V124c0 2.2-1.8 4-4 4h-43.5c-2.2 0-4-1.8-4-4z"/><path class="st4" d="M304.4 128.3h-43.5c-2.3 0-4.3-1.9-4.3-4.3V80.5c0-2.3 1.9-4.3 4.3-4.3h43.5c2.3 0 4.3 1.9 4.3 4.3V124c0 2.3-1.9 4.3-4.3 4.3zm-43.5-51.6c-2.1 0-3.8 1.7-3.8 3.8V124c0 2.1 1.7 3.8 3.8 3.8h43.5c2.1 0 3.8-1.7 3.8-3.8V80.5c0-2.1-1.7-3.8-3.8-3.8h-43.5z"/><path class="st5" d="M256.9 124.3c-.1 0-.3-.1-.3-.3V80.5c0-2.3 1.9-4.3 4.3-4.3h43.5c.1 0 .3.1.3.3s-.1.3-.3.3h-43.5c-2.1 0-3.8 1.7-3.8 3.8V124c.1.1 0 .3-.2.3z"/><circle class="st6" cx="283.2" cy="102.8" r="21.2"/><circle class="st7" cx="282.7" cy="102.2" r="21.2"/><g><path class="st0" d="M311.7 192.2h-58c-.6 0-1-.4-1-1v-58c0-.6.4-1 1-1h58c.6 0 1 .4 1 1v58c0 .6-.5 1-1 1z"/><path class="st1" d="M311.7 192.6h-58c-.8 0-1.4-.6-1.4-1.4v-58c0-.8.6-1.4 1.4-1.4h58c.8 0 1.4.6 1.4 1.4v58c-.1.8-.7 1.4-1.4 1.4zm-58-60c-.3 0-.6.3-.6.6v58c0 .3.3.6.6.6h58c.3 0 .6-.3.6-.6v-58c0-.3-.3-.6-.6-.6h-58z"/><path class="st2" d="M304.7 189.2h-44c-2.8 0-5-2.2-5-5v-44c0-2.8 2.2-5 5-5h44c2.8 0 5 2.2 5 5v44c0 2.8-2.3 5-5 5z"/><path class="st3" d="M256.9 186.5v-45.8c0-2.4 1.9-4.3 4.3-4.3h46.7c-.9-.8-2-1.2-3.3-1.2h-44c-2.8 0-5 2.2-5 5v44c0 1.4.6 2.6 1.4 3.5 0-.3-.1-.7-.1-1.2z"/><path class="st0" d="M256.9 184v-43.5c0-2.2 1.8-4 4-4h43.5c2.2 0 4 1.8 4 4V184c0 2.2-1.8 4-4 4h-43.5c-2.2 0-4-1.8-4-4z"/><path class="st4" d="M304.4 188.3h-43.5c-2.3 0-4.3-1.9-4.3-4.3v-43.5c0-2.3 1.9-4.3 4.3-4.3h43.5c2.3 0 4.3 1.9 4.3 4.3V184c0 2.3-1.9 4.3-4.3 4.3zm-43.5-51.6c-2.1 0-3.8 1.7-3.8 3.8V184c0 2.1 1.7 3.8 3.8 3.8h43.5c2.1 0 3.8-1.7 3.8-3.8v-43.5c0-2.1-1.7-3.8-3.8-3.8h-43.5z"/><path class="st5" d="M256.9 184.3c-.1 0-.3-.1-.3-.3v-43.5c0-2.3 1.9-4.3 4.3-4.3h43.5c.1 0 .3.1.3.3s-.1.3-.3.3h-43.5c-2.1 0-3.8 1.7-3.8 3.8V184c.1.1 0 .3-.2.3z"/><circle class="st6" cx="283.2" cy="162.8" r="21.2"/><circle class="st7" cx="282.7" cy="162.2" r="21.2"/></g><g><path class="st0" d="M311.7 252.2h-58c-.6 0-1-.4-1-1v-58c0-.6.4-1 1-1h58c.6 0 1 .4 1 1v58c0 .6-.5 1-1 1z"/><path class="st1" d="M311.7 252.6h-58c-.8 0-1.4-.6-1.4-1.4v-58c0-.8.6-1.4 1.4-1.4h58c.8 0 1.4.6 1.4 1.4v58c-.1.8-.7 1.4-1.4 1.4zm-58-60c-.3 0-.6.3-.6.6v58c0 .3.3.6.6.6h58c.3 0 .6-.3.6-.6v-58c0-.3-.3-.6-.6-.6h-58z"/><path class="st2" d="M304.7 249.2h-44c-2.8 0-5-2.2-5-5v-44c0-2.8 2.2-5 5-5h44c2.8 0 5 2.2 5 5v44c0 2.8-2.3 5-5 5z"/><path class="st3" d="M256.9 246.5v-45.8c0-2.4 1.9-4.3 4.3-4.3h46.7c-.9-.8-2-1.2-3.3-1.2h-44c-2.8 0-5 2.2-5 5v44c0 1.4.6 2.6 1.4 3.5 0-.3-.1-.7-.1-1.2z"/><path class="st0" d="M256.9 244v-43.5c0-2.2 1.8-4 4-4h43.5c2.2 0 4 1.8 4 4V244c0 2.2-1.8 4-4 4h-43.5c-2.2 0-4-1.8-4-4z"/><path class="st4" d="M304.4 248.3h-43.5c-2.3 0-4.3-1.9-4.3-4.3v-43.5c0-2.3 1.9-4.3 4.3-4.3h43.5c2.3 0 4.3 1.9 4.3 4.3V244c0 2.3-1.9 4.3-4.3 4.3zm-43.5-51.6c-2.1 0-3.8 1.7-3.8 3.8V244c0 2.1 1.7 3.8 3.8 3.8h43.5c2.1 0 3.8-1.7 3.8-3.8v-43.5c0-2.1-1.7-3.8-3.8-3.8h-43.5z"/><path class="st5" d="M256.9 244.3c-.1 0-.3-.1-.3-.3v-43.5c0-2.3 1.9-4.3 4.3-4.3h43.5c.1 0 .3.1.3.3s-.1.3-.3.3h-43.5c-2.1 0-3.8 1.7-3.8 3.8V244c.1.1 0 .3-.2.3z"/><circle class="st6" cx="283.2" cy="222.8" r="21.2"/><circle class="st7" cx="282.7" cy="222.2" r="21.2"/></g></g><g><path class="st0" d="M371.7 132.2h-58c-.6 0-1-.4-1-1v-58c0-.6.4-1 1-1h58c.6 0 1 .4 1 1v58c0 .6-.5 1-1 1z"/><path class="st1" d="M371.7 132.6h-58c-.8 0-1.4-.6-1.4-1.4v-58c0-.8.6-1.4 1.4-1.4h58c.8 0 1.4.6 1.4 1.4v58c-.1.8-.7 1.4-1.4 1.4zm-58-60c-.3 0-.6.3-.6.6v58c0 .3.3.6.6.6h58c.3 0 .6-.3.6-.6v-58c0-.3-.3-.6-.6-.6h-58z"/><path class="st2" d="M364.7 129.2h-44c-2.8 0-5-2.2-5-5v-44c0-2.8 2.2-5 5-5h44c2.8 0 5 2.2 5 5v44c0 2.8-2.3 5-5 5z"/><path class="st3" d="M316.9 126.5V80.8c0-2.4 1.9-4.3 4.3-4.3h46.7c-.9-.8-2-1.2-3.3-1.2h-44c-2.8 0-5 2.2-5 5v44c0 1.4.6 2.6 1.4 3.5 0-.4-.1-.8-.1-1.3z"/><path class="st0" d="M316.9 124V80.5c0-2.2 1.8-4 4-4h43.5c2.2 0 4 1.8 4 4V124c0 2.2-1.8 4-4 4h-43.5c-2.2 0-4-1.8-4-4z"/><path class="st4" d="M364.4 128.3h-43.5c-2.3 0-4.3-1.9-4.3-4.3V80.5c0-2.3 1.9-4.3 4.3-4.3h43.5c2.3 0 4.3 1.9 4.3 4.3V124c0 2.3-1.9 4.3-4.3 4.3zm-43.5-51.6c-2.1 0-3.8 1.7-3.8 3.8V124c0 2.1 1.7 3.8 3.8 3.8h43.5c2.1 0 3.8-1.7 3.8-3.8V80.5c0-2.1-1.7-3.8-3.8-3.8h-43.5z"/><path class="st5" d="M316.9 124.3c-.1 0-.3-.1-.3-.3V80.5c0-2.3 1.9-4.3 4.3-4.3h43.5c.1 0 .3.1.3.3s-.1.3-.3.3h-43.5c-2.1 0-3.8 1.7-3.8 3.8V124c.1.1 0 .3-.2.3z"/><circle class="st6" cx="343.2" cy="102.8" r="21.2"/><circle class="st7" cx="342.7" cy="102.2" r="21.2"/><g><path class="st0" d="M371.7 192.2h-58c-.6 0-1-.4-1-1v-58c0-.6.4-1 1-1h58c.6 0 1 .4 1 1v58c0 .6-.5 1-1 1z"/><path class="st1" d="M371.7 192.6h-58c-.8 0-1.4-.6-1.4-1.4v-58c0-.8.6-1.4 1.4-1.4h58c.8 0 1.4.6 1.4 1.4v58c-.1.8-.7 1.4-1.4 1.4zm-58-60c-.3 0-.6.3-.6.6v58c0 .3.3.6.6.6h58c.3 0 .6-.3.6-.6v-58c0-.3-.3-.6-.6-.6h-58z"/><path class="st2" d="M364.7 189.2h-44c-2.8 0-5-2.2-5-5v-44c0-2.8 2.2-5 5-5h44c2.8 0 5 2.2 5 5v44c0 2.8-2.3 5-5 5z"/><path class="st3" d="M316.9 186.5v-45.8c0-2.4 1.9-4.3 4.3-4.3h46.7c-.9-.8-2-1.2-3.3-1.2h-44c-2.8 0-5 2.2-5 5v44c0 1.4.6 2.6 1.4 3.5 0-.3-.1-.7-.1-1.2z"/><path class="st0" d="M316.9 184v-43.5c0-2.2 1.8-4 4-4h43.5c2.2 0 4 1.8 4 4V184c0 2.2-1.8 4-4 4h-43.5c-2.2 0-4-1.8-4-4z"/><path class="st4" d="M364.4 188.3h-43.5c-2.3 0-4.3-1.9-4.3-4.3v-43.5c0-2.3 1.9-4.3 4.3-4.3h43.5c2.3 0 4.3 1.9 4.3 4.3V184c0 2.3-1.9 4.3-4.3 4.3zm-43.5-51.6c-2.1 0-3.8 1.7-3.8 3.8V184c0 2.1 1.7 3.8 3.8 3.8h43.5c2.1 0 3.8-1.7 3.8-3.8v-43.5c0-2.1-1.7-3.8-3.8-3.8h-43.5z"/><path class="st5" d="M316.9 184.3c-.1 0-.3-.1-.3-.3v-43.5c0-2.3 1.9-4.3 4.3-4.3h43.5c.1 0 .3.1.3.3s-.1.3-.3.3h-43.5c-2.1 0-3.8 1.7-3.8 3.8V184c.1.1 0 .3-.2.3z"/><circle class="st6" cx="343.2" cy="162.8" r="21.2"/><circle class="st7" cx="342.7" cy="162.2" r="21.2"/></g><g><path class="st0" d="M371.7 252.2h-58c-.6 0-1-.4-1-1v-58c0-.6.4-1 1-1h58c.6 0 1 .4 1 1v58c0 .6-.5 1-1 1z"/><path class="st1" d="M371.7 252.6h-58c-.8 0-1.4-.6-1.4-1.4v-58c0-.8.6-1.4 1.4-1.4h58c.8 0 1.4.6 1.4 1.4v58c-.1.8-.7 1.4-1.4 1.4zm-58-60c-.3 0-.6.3-.6.6v58c0 .3.3.6.6.6h58c.3 0 .6-.3.6-.6v-58c0-.3-.3-.6-.6-.6h-58z"/><path class="st2" d="M364.7 249.2h-44c-2.8 0-5-2.2-5-5v-44c0-2.8 2.2-5 5-5h44c2.8 0 5 2.2 5 5v44c0 2.8-2.3 5-5 5z"/><path class="st3" d="M316.9 246.5v-45.8c0-2.4 1.9-4.3 4.3-4.3h46.7c-.9-.8-2-1.2-3.3-1.2h-44c-2.8 0-5 2.2-5 5v44c0 1.4.6 2.6 1.4 3.5 0-.3-.1-.7-.1-1.2z"/><path class="st0" d="M316.9 244v-43.5c0-2.2 1.8-4 4-4h43.5c2.2 0 4 1.8 4 4V244c0 2.2-1.8 4-4 4h-43.5c-2.2 0-4-1.8-4-4z"/><path class="st4" d="M364.4 248.3h-43.5c-2.3 0-4.3-1.9-4.3-4.3v-43.5c0-2.3 1.9-4.3 4.3-4.3h43.5c2.3 0 4.3 1.9 4.3 4.3V244c0 2.3-1.9 4.3-4.3 4.3zm-43.5-51.6c-2.1 0-3.8 1.7-3.8 3.8V244c0 2.1 1.7 3.8 3.8 3.8h43.5c2.1 0 3.8-1.7 3.8-3.8v-43.5c0-2.1-1.7-3.8-3.8-3.8h-43.5z"/><path class="st5" d="M316.9 244.3c-.1 0-.3-.1-.3-.3v-43.5c0-2.3 1.9-4.3 4.3-4.3h43.5c.1 0 .3.1.3.3s-.1.3-.3.3h-43.5c-2.1 0-3.8 1.7-3.8 3.8V244c.1.1 0 .3-.2.3z"/><circle class="st6" cx="343.2" cy="222.8" r="21.2"/><circle class="st7" cx="342.7" cy="222.2" r="21.2"/></g></g><g><path class="st0" d="M431.7 132.2h-58c-.6 0-1-.4-1-1v-58c0-.6.4-1 1-1h58c.6 0 1 .4 1 1v58c0 .6-.5 1-1 1z"/><path class="st1" d="M431.7 132.6h-58c-.8 0-1.4-.6-1.4-1.4v-58c0-.8.6-1.4 1.4-1.4h58c.8 0 1.4.6 1.4 1.4v58c-.1.8-.7 1.4-1.4 1.4zm-58-60c-.3 0-.6.3-.6.6v58c0 .3.3.6.6.6h58c.3 0 .6-.3.6-.6v-58c0-.3-.3-.6-.6-.6h-58z"/><path class="st2" d="M424.7 129.2h-44c-2.8 0-5-2.2-5-5v-44c0-2.8 2.2-5 5-5h44c2.8 0 5 2.2 5 5v44c0 2.8-2.3 5-5 5z"/><path class="st3" d="M376.9 126.5V80.8c0-2.4 1.9-4.3 4.3-4.3h46.7c-.9-.8-2-1.2-3.3-1.2h-44c-2.8 0-5 2.2-5 5v44c0 1.4.6 2.6 1.4 3.5 0-.4-.1-.8-.1-1.3z"/><path class="st0" d="M376.9 124V80.5c0-2.2 1.8-4 4-4h43.5c2.2 0 4 1.8 4 4V124c0 2.2-1.8 4-4 4h-43.5c-2.2 0-4-1.8-4-4z"/><path class="st4" d="M424.4 128.3h-43.5c-2.3 0-4.3-1.9-4.3-4.3V80.5c0-2.3 1.9-4.3 4.3-4.3h43.5c2.3 0 4.3 1.9 4.3 4.3V124c0 2.3-1.9 4.3-4.3 4.3zm-43.5-51.6c-2.1 0-3.8 1.7-3.8 3.8V124c0 2.1 1.7 3.8 3.8 3.8h43.5c2.1 0 3.8-1.7 3.8-3.8V80.5c0-2.1-1.7-3.8-3.8-3.8h-43.5z"/><path class="st5" d="M376.9 124.3c-.1 0-.3-.1-.3-.3V80.5c0-2.3 1.9-4.3 4.3-4.3h43.5c.1 0 .3.1.3.3s-.1.3-.3.3h-43.5c-2.1 0-3.8 1.7-3.8 3.8V124c.1.1 0 .3-.2.3z"/><circle class="st6" cx="403.2" cy="102.8" r="21.2"/><circle class="st7" cx="402.7" cy="102.2" r="21.2"/><g><path class="st0" d="M431.7 192.2h-58c-.6 0-1-.4-1-1v-58c0-.6.4-1 1-1h58c.6 0 1 .4 1 1v58c0 .6-.5 1-1 1z"/><path class="st1" d="M431.7 192.6h-58c-.8 0-1.4-.6-1.4-1.4v-58c0-.8.6-1.4 1.4-1.4h58c.8 0 1.4.6 1.4 1.4v58c-.1.8-.7 1.4-1.4 1.4zm-58-60c-.3 0-.6.3-.6.6v58c0 .3.3.6.6.6h58c.3 0 .6-.3.6-.6v-58c0-.3-.3-.6-.6-.6h-58z"/><path class="st2" d="M424.7 189.2h-44c-2.8 0-5-2.2-5-5v-44c0-2.8 2.2-5 5-5h44c2.8 0 5 2.2 5 5v44c0 2.8-2.3 5-5 5z"/><path class="st3" d="M376.9 186.5v-45.8c0-2.4 1.9-4.3 4.3-4.3h46.7c-.9-.8-2-1.2-3.3-1.2h-44c-2.8 0-5 2.2-5 5v44c0 1.4.6 2.6 1.4 3.5 0-.3-.1-.7-.1-1.2z"/><path class="st0" d="M376.9 184v-43.5c0-2.2 1.8-4 4-4h43.5c2.2 0 4 1.8 4 4V184c0 2.2-1.8 4-4 4h-43.5c-2.2 0-4-1.8-4-4z"/><path class="st4" d="M424.4 188.3h-43.5c-2.3 0-4.3-1.9-4.3-4.3v-43.5c0-2.3 1.9-4.3 4.3-4.3h43.5c2.3 0 4.3 1.9 4.3 4.3V184c0 2.3-1.9 4.3-4.3 4.3zm-43.5-51.6c-2.1 0-3.8 1.7-3.8 3.8V184c0 2.1 1.7 3.8 3.8 3.8h43.5c2.1 0 3.8-1.7 3.8-3.8v-43.5c0-2.1-1.7-3.8-3.8-3.8h-43.5z"/><path class="st5" d="M376.9 184.3c-.1 0-.3-.1-.3-.3v-43.5c0-2.3 1.9-4.3 4.3-4.3h43.5c.1 0 .3.1.3.3s-.1.3-.3.3h-43.5c-2.1 0-3.8 1.7-3.8 3.8V184c.1.1 0 .3-.2.3z"/><circle class="st6" cx="403.2" cy="162.8" r="21.2"/><circle class="st7" cx="402.7" cy="162.2" r="21.2"/></g><g><path class="st0" d="M431.7 252.2h-58c-.6 0-1-.4-1-1v-58c0-.6.4-1 1-1h58c.6 0 1 .4 1 1v58c0 .6-.5 1-1 1z"/><path class="st1" d="M431.7 252.6h-58c-.8 0-1.4-.6-1.4-1.4v-58c0-.8.6-1.4 1.4-1.4h58c.8 0 1.4.6 1.4 1.4v58c-.1.8-.7 1.4-1.4 1.4zm-58-60c-.3 0-.6.3-.6.6v58c0 .3.3.6.6.6h58c.3 0 .6-.3.6-.6v-58c0-.3-.3-.6-.6-.6h-58z"/><path class="st2" d="M424.7 249.2h-44c-2.8 0-5-2.2-5-5v-44c0-2.8 2.2-5 5-5h44c2.8 0 5 2.2 5 5v44c0 2.8-2.3 5-5 5z"/><path class="st3" d="M376.9 246.5v-45.8c0-2.4 1.9-4.3 4.3-4.3h46.7c-.9-.8-2-1.2-3.3-1.2h-44c-2.8 0-5 2.2-5 5v44c0 1.4.6 2.6 1.4 3.5 0-.3-.1-.7-.1-1.2z"/><path class="st0" d="M376.9 244v-43.5c0-2.2 1.8-4 4-4h43.5c2.2 0 4 1.8 4 4V244c0 2.2-1.8 4-4 4h-43.5c-2.2 0-4-1.8-4-4z"/><path class="st4" d="M424.4 248.3h-43.5c-2.3 0-4.3-1.9-4.3-4.3v-43.5c0-2.3 1.9-4.3 4.3-4.3h43.5c2.3 0 4.3 1.9 4.3 4.3V244c0 2.3-1.9 4.3-4.3 4.3zm-43.5-51.6c-2.1 0-3.8 1.7-3.8 3.8V244c0 2.1 1.7 3.8 3.8 3.8h43.5c2.1 0 3.8-1.7 3.8-3.8v-43.5c0-2.1-1.7-3.8-3.8-3.8h-43.5z"/><path class="st5" d="M376.9 244.3c-.1 0-.3-.1-.3-.3v-43.5c0-2.3 1.9-4.3 4.3-4.3h43.5c.1 0 .3.1.3.3s-.1.3-.3.3h-43.5c-2.1 0-3.8 1.7-3.8 3.8V244c.1.1 0 .3-.2.3z"/><circle class="st6" cx="403.2" cy="222.8" r="21.2"/><circle class="st7" cx="402.7" cy="222.2" r="21.2"/></g></g><g><path class="st0" d="M491.7 132.2h-58c-.6 0-1-.4-1-1v-58c0-.6.4-1 1-1h58c.6 0 1 .4 1 1v58c0 .6-.5 1-1 1z"/><path class="st1" d="M491.7 132.6h-58c-.8 0-1.4-.6-1.4-1.4v-58c0-.8.6-1.4 1.4-1.4h58c.8 0 1.4.6 1.4 1.4v58c-.1.8-.7 1.4-1.4 1.4zm-58-60c-.3 0-.6.3-.6.6v58c0 .3.3.6.6.6h58c.3 0 .6-.3.6-.6v-58c0-.3-.3-.6-.6-.6h-58z"/><path class="st2" d="M484.7 129.2h-44c-2.8 0-5-2.2-5-5v-44c0-2.8 2.2-5 5-5h44c2.8 0 5 2.2 5 5v44c0 2.8-2.3 5-5 5z"/><path class="st3" d="M436.9 126.5V80.8c0-2.4 1.9-4.3 4.3-4.3h46.7c-.9-.8-2-1.2-3.3-1.2h-44c-2.8 0-5 2.2-5 5v44c0 1.4.6 2.6 1.4 3.5 0-.4-.1-.8-.1-1.3z"/><path class="st0" d="M436.9 124V80.5c0-2.2 1.8-4 4-4h43.5c2.2 0 4 1.8 4 4V124c0 2.2-1.8 4-4 4h-43.5c-2.2 0-4-1.8-4-4z"/><path class="st4" d="M484.4 128.3h-43.5c-2.3 0-4.3-1.9-4.3-4.3V80.5c0-2.3 1.9-4.3 4.3-4.3h43.5c2.3 0 4.3 1.9 4.3 4.3V124c0 2.3-1.9 4.3-4.3 4.3zm-43.5-51.6c-2.1 0-3.8 1.7-3.8 3.8V124c0 2.1 1.7 3.8 3.8 3.8h43.5c2.1 0 3.8-1.7 3.8-3.8V80.5c0-2.1-1.7-3.8-3.8-3.8h-43.5z"/><path class="st5" d="M436.9 124.3c-.1 0-.3-.1-.3-.3V80.5c0-2.3 1.9-4.3 4.3-4.3h43.5c.1 0 .3.1.3.3s-.1.3-.3.3h-43.5c-2.1 0-3.8 1.7-3.8 3.8V124c.1.1 0 .3-.2.3z"/><circle class="st6" cx="463.2" cy="102.8" r="21.2"/><circle class="st7" cx="462.7" cy="102.2" r="21.2"/><g><path class="st0" d="M491.7 192.2h-58c-.6 0-1-.4-1-1v-58c0-.6.4-1 1-1h58c.6 0 1 .4 1 1v58c0 .6-.5 1-1 1z"/><path class="st1" d="M491.7 192.6h-58c-.8 0-1.4-.6-1.4-1.4v-58c0-.8.6-1.4 1.4-1.4h58c.8 0 1.4.6 1.4 1.4v58c-.1.8-.7 1.4-1.4 1.4zm-58-60c-.3 0-.6.3-.6.6v58c0 .3.3.6.6.6h58c.3 0 .6-.3.6-.6v-58c0-.3-.3-.6-.6-.6h-58z"/><path class="st2" d="M484.7 189.2h-44c-2.8 0-5-2.2-5-5v-44c0-2.8 2.2-5 5-5h44c2.8 0 5 2.2 5 5v44c0 2.8-2.3 5-5 5z"/><path class="st3" d="M436.9 186.5v-45.8c0-2.4 1.9-4.3 4.3-4.3h46.7c-.9-.8-2-1.2-3.3-1.2h-44c-2.8 0-5 2.2-5 5v44c0 1.4.6 2.6 1.4 3.5 0-.3-.1-.7-.1-1.2z"/><path class="st0" d="M436.9 184v-43.5c0-2.2 1.8-4 4-4h43.5c2.2 0 4 1.8 4 4V184c0 2.2-1.8 4-4 4h-43.5c-2.2 0-4-1.8-4-4z"/><path class="st4" d="M484.4 188.3h-43.5c-2.3 0-4.3-1.9-4.3-4.3v-43.5c0-2.3 1.9-4.3 4.3-4.3h43.5c2.3 0 4.3 1.9 4.3 4.3V184c0 2.3-1.9 4.3-4.3 4.3zm-43.5-51.6c-2.1 0-3.8 1.7-3.8 3.8V184c0 2.1 1.7 3.8 3.8 3.8h43.5c2.1 0 3.8-1.7 3.8-3.8v-43.5c0-2.1-1.7-3.8-3.8-3.8h-43.5z"/><path class="st5" d="M436.9 184.3c-.1 0-.3-.1-.3-.3v-43.5c0-2.3 1.9-4.3 4.3-4.3h43.5c.1 0 .3.1.3.3s-.1.3-.3.3h-43.5c-2.1 0-3.8 1.7-3.8 3.8V184c.1.1 0 .3-.2.3z"/><circle class="st6" cx="463.2" cy="162.8" r="21.2"/><circle class="st7" cx="462.7" cy="162.2" r="21.2"/></g><g><path class="st0" d="M491.7 252.2h-58c-.6 0-1-.4-1-1v-58c0-.6.4-1 1-1h58c.6 0 1 .4 1 1v58c0 .6-.5 1-1 1z"/><path class="st1" d="M491.7 252.6h-58c-.8 0-1.4-.6-1.4-1.4v-58c0-.8.6-1.4 1.4-1.4h58c.8 0 1.4.6 1.4 1.4v58c-.1.8-.7 1.4-1.4 1.4zm-58-60c-.3 0-.6.3-.6.6v58c0 .3.3.6.6.6h58c.3 0 .6-.3.6-.6v-58c0-.3-.3-.6-.6-.6h-58z"/><path class="st2" d="M484.7 249.2h-44c-2.8 0-5-2.2-5-5v-44c0-2.8 2.2-5 5-5h44c2.8 0 5 2.2 5 5v44c0 2.8-2.3 5-5 5z"/><path class="st3" d="M436.9 246.5v-45.8c0-2.4 1.9-4.3 4.3-4.3h46.7c-.9-.8-2-1.2-3.3-1.2h-44c-2.8 0-5 2.2-5 5v44c0 1.4.6 2.6 1.4 3.5 0-.3-.1-.7-.1-1.2z"/><path class="st0" d="M436.9 244v-43.5c0-2.2 1.8-4 4-4h43.5c2.2 0 4 1.8 4 4V244c0 2.2-1.8 4-4 4h-43.5c-2.2 0-4-1.8-4-4z"/><path class="st4" d="M484.4 248.3h-43.5c-2.3 0-4.3-1.9-4.3-4.3v-43.5c0-2.3 1.9-4.3 4.3-4.3h43.5c2.3 0 4.3 1.9 4.3 4.3V244c0 2.3-1.9 4.3-4.3 4.3zm-43.5-51.6c-2.1 0-3.8 1.7-3.8 3.8V244c0 2.1 1.7 3.8 3.8 3.8h43.5c2.1 0 3.8-1.7 3.8-3.8v-43.5c0-2.1-1.7-3.8-3.8-3.8h-43.5z"/><path class="st5" d="M436.9 244.3c-.1 0-.3-.1-.3-.3v-43.5c0-2.3 1.9-4.3 4.3-4.3h43.5c.1 0 .3.1.3.3s-.1.3-.3.3h-43.5c-2.1 0-3.8 1.7-3.8 3.8V244c.1.1 0 .3-.2.3z"/><circle class="st6" cx="463.2" cy="222.8" r="21.2"/><circle class="st7" cx="462.7" cy="222.2" r="21.2"/></g></g><g><path class="st0" d="M551.7 132.2h-58c-.6 0-1-.4-1-1v-58c0-.6.4-1 1-1h58c.6 0 1 .4 1 1v58c0 .6-.5 1-1 1z"/><path class="st1" d="M551.7 132.6h-58c-.8 0-1.4-.6-1.4-1.4v-58c0-.8.6-1.4 1.4-1.4h58c.8 0 1.4.6 1.4 1.4v58c-.1.8-.7 1.4-1.4 1.4zm-58-60c-.3 0-.6.3-.6.6v58c0 .3.3.6.6.6h58c.3 0 .6-.3.6-.6v-58c0-.3-.3-.6-.6-.6h-58z"/><path class="st2" d="M544.7 129.2h-44c-2.8 0-5-2.2-5-5v-44c0-2.8 2.2-5 5-5h44c2.8 0 5 2.2 5 5v44c0 2.8-2.3 5-5 5z"/><path class="st3" d="M496.9 126.5V80.8c0-2.4 1.9-4.3 4.3-4.3h46.7c-.9-.8-2-1.2-3.3-1.2h-44c-2.8 0-5 2.2-5 5v44c0 1.4.6 2.6 1.4 3.5 0-.4-.1-.8-.1-1.3z"/><path class="st0" d="M496.9 124V80.5c0-2.2 1.8-4 4-4h43.5c2.2 0 4 1.8 4 4V124c0 2.2-1.8 4-4 4h-43.5c-2.2 0-4-1.8-4-4z"/><path class="st4" d="M544.4 128.3h-43.5c-2.3 0-4.3-1.9-4.3-4.3V80.5c0-2.3 1.9-4.3 4.3-4.3h43.5c2.3 0 4.3 1.9 4.3 4.3V124c0 2.3-1.9 4.3-4.3 4.3zm-43.5-51.6c-2.1 0-3.8 1.7-3.8 3.8V124c0 2.1 1.7 3.8 3.8 3.8h43.5c2.1 0 3.8-1.7 3.8-3.8V80.5c0-2.1-1.7-3.8-3.8-3.8h-43.5z"/><path class="st5" d="M496.9 124.3c-.1 0-.3-.1-.3-.3V80.5c0-2.3 1.9-4.3 4.3-4.3h43.5c.1 0 .3.1.3.3s-.1.3-.3.3h-43.5c-2.1 0-3.8 1.7-3.8 3.8V124c.1.1 0 .3-.2.3z"/><circle class="st6" cx="523.2" cy="102.8" r="21.2"/><circle class="st7" cx="522.7" cy="102.2" r="21.2"/><g><path class="st0" d="M551.7 192.2h-58c-.6 0-1-.4-1-1v-58c0-.6.4-1 1-1h58c.6 0 1 .4 1 1v58c0 .6-.5 1-1 1z"/><path class="st1" d="M551.7 192.6h-58c-.8 0-1.4-.6-1.4-1.4v-58c0-.8.6-1.4 1.4-1.4h58c.8 0 1.4.6 1.4 1.4v58c-.1.8-.7 1.4-1.4 1.4zm-58-60c-.3 0-.6.3-.6.6v58c0 .3.3.6.6.6h58c.3 0 .6-.3.6-.6v-58c0-.3-.3-.6-.6-.6h-58z"/><path class="st2" d="M544.7 189.2h-44c-2.8 0-5-2.2-5-5v-44c0-2.8 2.2-5 5-5h44c2.8 0 5 2.2 5 5v44c0 2.8-2.3 5-5 5z"/><path class="st3" d="M496.9 186.5v-45.8c0-2.4 1.9-4.3 4.3-4.3h46.7c-.9-.8-2-1.2-3.3-1.2h-44c-2.8 0-5 2.2-5 5v44c0 1.4.6 2.6 1.4 3.5 0-.3-.1-.7-.1-1.2z"/><path class="st0" d="M496.9 184v-43.5c0-2.2 1.8-4 4-4h43.5c2.2 0 4 1.8 4 4V184c0 2.2-1.8 4-4 4h-43.5c-2.2 0-4-1.8-4-4z"/><path class="st4" d="M544.4 188.3h-43.5c-2.3 0-4.3-1.9-4.3-4.3v-43.5c0-2.3 1.9-4.3 4.3-4.3h43.5c2.3 0 4.3 1.9 4.3 4.3V184c0 2.3-1.9 4.3-4.3 4.3zm-43.5-51.6c-2.1 0-3.8 1.7-3.8 3.8V184c0 2.1 1.7 3.8 3.8 3.8h43.5c2.1 0 3.8-1.7 3.8-3.8v-43.5c0-2.1-1.7-3.8-3.8-3.8h-43.5z"/><path class="st5" d="M496.9 184.3c-.1 0-.3-.1-.3-.3v-43.5c0-2.3 1.9-4.3 4.3-4.3h43.5c.1 0 .3.1.3.3s-.1.3-.3.3h-43.5c-2.1 0-3.8 1.7-3.8 3.8V184c.1.1 0 .3-.2.3z"/><circle class="st6" cx="523.2" cy="162.8" r="21.2"/><circle class="st7" cx="522.7" cy="162.2" r="21.2"/></g><g><path class="st0" d="M551.7 252.2h-58c-.6 0-1-.4-1-1v-58c0-.6.4-1 1-1h58c.6 0 1 .4 1 1v58c0 .6-.5 1-1 1z"/><path class="st1" d="M551.7 252.6h-58c-.8 0-1.4-.6-1.4-1.4v-58c0-.8.6-1.4 1.4-1.4h58c.8 0 1.4.6 1.4 1.4v58c-.1.8-.7 1.4-1.4 1.4zm-58-60c-.3 0-.6.3-.6.6v58c0 .3.3.6.6.6h58c.3 0 .6-.3.6-.6v-58c0-.3-.3-.6-.6-.6h-58z"/><path class="st2" d="M544.7 249.2h-44c-2.8 0-5-2.2-5-5v-44c0-2.8 2.2-5 5-5h44c2.8 0 5 2.2 5 5v44c0 2.8-2.3 5-5 5z"/><path class="st3" d="M496.9 246.5v-45.8c0-2.4 1.9-4.3 4.3-4.3h46.7c-.9-.8-2-1.2-3.3-1.2h-44c-2.8 0-5 2.2-5 5v44c0 1.4.6 2.6 1.4 3.5 0-.3-.1-.7-.1-1.2z"/><path class="st0" d="M496.9 244v-43.5c0-2.2 1.8-4 4-4h43.5c2.2 0 4 1.8 4 4V244c0 2.2-1.8 4-4 4h-43.5c-2.2 0-4-1.8-4-4z"/><path class="st4" d="M544.4 248.3h-43.5c-2.3 0-4.3-1.9-4.3-4.3v-43.5c0-2.3 1.9-4.3 4.3-4.3h43.5c2.3 0 4.3 1.9 4.3 4.3V244c0 2.3-1.9 4.3-4.3 4.3zm-43.5-51.6c-2.1 0-3.8 1.7-3.8 3.8V244c0 2.1 1.7 3.8 3.8 3.8h43.5c2.1 0 3.8-1.7 3.8-3.8v-43.5c0-2.1-1.7-3.8-3.8-3.8h-43.5z"/><path class="st5" d="M496.9 244.3c-.1 0-.3-.1-.3-.3v-43.5c0-2.3 1.9-4.3 4.3-4.3h43.5c.1 0 .3.1.3.3s-.1.3-.3.3h-43.5c-2.1 0-3.8 1.7-3.8 3.8V244c.1.1 0 .3-.2.3z"/><circle class="st6" cx="523.2" cy="222.8" r="21.2"/><circle class="st7" cx="522.7" cy="222.2" r="21.2"/></g></g><g><path class="st0" d="M611.7 132.2h-58c-.6 0-1-.4-1-1v-58c0-.6.4-1 1-1h58c.6 0 1 .4 1 1v58c0 .6-.5 1-1 1z"/><path class="st1" d="M611.7 132.6h-58c-.8 0-1.4-.6-1.4-1.4v-58c0-.8.6-1.4 1.4-1.4h58c.8 0 1.4.6 1.4 1.4v58c-.1.8-.7 1.4-1.4 1.4zm-58-60c-.3 0-.6.3-.6.6v58c0 .3.3.6.6.6h58c.3 0 .6-.3.6-.6v-58c0-.3-.3-.6-.6-.6h-58z"/><path class="st2" d="M604.7 129.2h-44c-2.8 0-5-2.2-5-5v-44c0-2.8 2.2-5 5-5h44c2.8 0 5 2.2 5 5v44c0 2.8-2.3 5-5 5z"/><path class="st3" d="M556.9 126.5V80.8c0-2.4 1.9-4.3 4.3-4.3h46.7c-.9-.8-2-1.2-3.3-1.2h-44c-2.8 0-5 2.2-5 5v44c0 1.4.6 2.6 1.4 3.5 0-.4-.1-.8-.1-1.3z"/><path class="st0" d="M556.9 124V80.5c0-2.2 1.8-4 4-4h43.5c2.2 0 4 1.8 4 4V124c0 2.2-1.8 4-4 4h-43.5c-2.2 0-4-1.8-4-4z"/><path class="st4" d="M604.4 128.3h-43.5c-2.3 0-4.3-1.9-4.3-4.3V80.5c0-2.3 1.9-4.3 4.3-4.3h43.5c2.3 0 4.3 1.9 4.3 4.3V124c0 2.3-1.9 4.3-4.3 4.3zm-43.5-51.6c-2.1 0-3.8 1.7-3.8 3.8V124c0 2.1 1.7 3.8 3.8 3.8h43.5c2.1 0 3.8-1.7 3.8-3.8V80.5c0-2.1-1.7-3.8-3.8-3.8h-43.5z"/><path class="st5" d="M556.9 124.3c-.1 0-.3-.1-.3-.3V80.5c0-2.3 1.9-4.3 4.3-4.3h43.5c.1 0 .3.1.3.3s-.1.3-.3.3h-43.5c-2.1 0-3.8 1.7-3.8 3.8V124c.1.1 0 .3-.2.3z"/><circle class="st6" cx="583.2" cy="102.8" r="21.2"/><circle class="st7" cx="582.7" cy="102.2" r="21.2"/><g><path class="st0" d="M611.7 192.2h-58c-.6 0-1-.4-1-1v-58c0-.6.4-1 1-1h58c.6 0 1 .4 1 1v58c0 .6-.5 1-1 1z"/><path class="st1" d="M611.7 192.6h-58c-.8 0-1.4-.6-1.4-1.4v-58c0-.8.6-1.4 1.4-1.4h58c.8 0 1.4.6 1.4 1.4v58c-.1.8-.7 1.4-1.4 1.4zm-58-60c-.3 0-.6.3-.6.6v58c0 .3.3.6.6.6h58c.3 0 .6-.3.6-.6v-58c0-.3-.3-.6-.6-.6h-58z"/><path class="st2" d="M604.7 189.2h-44c-2.8 0-5-2.2-5-5v-44c0-2.8 2.2-5 5-5h44c2.8 0 5 2.2 5 5v44c0 2.8-2.3 5-5 5z"/><path class="st3" d="M556.9 186.5v-45.8c0-2.4 1.9-4.3 4.3-4.3h46.7c-.9-.8-2-1.2-3.3-1.2h-44c-2.8 0-5 2.2-5 5v44c0 1.4.6 2.6 1.4 3.5 0-.3-.1-.7-.1-1.2z"/><path class="st0" d="M556.9 184v-43.5c0-2.2 1.8-4 4-4h43.5c2.2 0 4 1.8 4 4V184c0 2.2-1.8 4-4 4h-43.5c-2.2 0-4-1.8-4-4z"/><path class="st4" d="M604.4 188.3h-43.5c-2.3 0-4.3-1.9-4.3-4.3v-43.5c0-2.3 1.9-4.3 4.3-4.3h43.5c2.3 0 4.3 1.9 4.3 4.3V184c0 2.3-1.9 4.3-4.3 4.3zm-43.5-51.6c-2.1 0-3.8 1.7-3.8 3.8V184c0 2.1 1.7 3.8 3.8 3.8h43.5c2.1 0 3.8-1.7 3.8-3.8v-43.5c0-2.1-1.7-3.8-3.8-3.8h-43.5z"/><path class="st5" d="M556.9 184.3c-.1 0-.3-.1-.3-.3v-43.5c0-2.3 1.9-4.3 4.3-4.3h43.5c.1 0 .3.1.3.3s-.1.3-.3.3h-43.5c-2.1 0-3.8 1.7-3.8 3.8V184c.1.1 0 .3-.2.3z"/><circle class="st6" cx="583.2" cy="162.8" r="21.2"/><circle class="st7" cx="582.7" cy="162.2" r="21.2"/></g><g><path class="st0" d="M611.7 252.2h-58c-.6 0-1-.4-1-1v-58c0-.6.4-1 1-1h58c.6 0 1 .4 1 1v58c0 .6-.5 1-1 1z"/><path class="st1" d="M611.7 252.6h-58c-.8 0-1.4-.6-1.4-1.4v-58c0-.8.6-1.4 1.4-1.4h58c.8 0 1.4.6 1.4 1.4v58c-.1.8-.7 1.4-1.4 1.4zm-58-60c-.3 0-.6.3-.6.6v58c0 .3.3.6.6.6h58c.3 0 .6-.3.6-.6v-58c0-.3-.3-.6-.6-.6h-58z"/><path class="st2" d="M604.7 249.2h-44c-2.8 0-5-2.2-5-5v-44c0-2.8 2.2-5 5-5h44c2.8 0 5 2.2 5 5v44c0 2.8-2.3 5-5 5z"/><path class="st3" d="M556.9 246.5v-45.8c0-2.4 1.9-4.3 4.3-4.3h46.7c-.9-.8-2-1.2-3.3-1.2h-44c-2.8 0-5 2.2-5 5v44c0 1.4.6 2.6 1.4 3.5 0-.3-.1-.7-.1-1.2z"/><path class="st0" d="M556.9 244v-43.5c0-2.2 1.8-4 4-4h43.5c2.2 0 4 1.8 4 4V244c0 2.2-1.8 4-4 4h-43.5c-2.2 0-4-1.8-4-4z"/><path class="st4" d="M604.4 248.3h-43.5c-2.3 0-4.3-1.9-4.3-4.3v-43.5c0-2.3 1.9-4.3 4.3-4.3h43.5c2.3 0 4.3 1.9 4.3 4.3V244c0 2.3-1.9 4.3-4.3 4.3zm-43.5-51.6c-2.1 0-3.8 1.7-3.8 3.8V244c0 2.1 1.7 3.8 3.8 3.8h43.5c2.1 0 3.8-1.7 3.8-3.8v-43.5c0-2.1-1.7-3.8-3.8-3.8h-43.5z"/><path class="st5" d="M556.9 244.3c-.1 0-.3-.1-.3-.3v-43.5c0-2.3 1.9-4.3 4.3-4.3h43.5c.1 0 .3.1.3.3s-.1.3-.3.3h-43.5c-2.1 0-3.8 1.7-3.8 3.8V244c.1.1 0 .3-.2.3z"/><circle class="st6" cx="583.2" cy="222.8" r="21.2"/><circle class="st7" cx="582.7" cy="222.2" r="21.2"/></g></g><g><path class="st0" d="M671.7 132.2h-58c-.6 0-1-.4-1-1v-58c0-.6.4-1 1-1h58c.6 0 1 .4 1 1v58c0 .6-.5 1-1 1z"/><path class="st1" d="M671.7 132.6h-58c-.8 0-1.4-.6-1.4-1.4v-58c0-.8.6-1.4 1.4-1.4h58c.8 0 1.4.6 1.4 1.4v58c-.1.8-.7 1.4-1.4 1.4zm-58-60c-.3 0-.6.3-.6.6v58c0 .3.3.6.6.6h58c.3 0 .6-.3.6-.6v-58c0-.3-.3-.6-.6-.6h-58z"/><path class="st2" d="M664.7 129.2h-44c-2.8 0-5-2.2-5-5v-44c0-2.8 2.2-5 5-5h44c2.8 0 5 2.2 5 5v44c0 2.8-2.3 5-5 5z"/><path class="st3" d="M616.9 126.5V80.8c0-2.4 1.9-4.3 4.3-4.3h46.7c-.9-.8-2-1.2-3.3-1.2h-44c-2.8 0-5 2.2-5 5v44c0 1.4.6 2.6 1.4 3.5 0-.4-.1-.8-.1-1.3z"/><path class="st0" d="M616.9 124V80.5c0-2.2 1.8-4 4-4h43.5c2.2 0 4 1.8 4 4V124c0 2.2-1.8 4-4 4h-43.5c-2.2 0-4-1.8-4-4z"/><path class="st4" d="M664.4 128.3h-43.5c-2.3 0-4.3-1.9-4.3-4.3V80.5c0-2.3 1.9-4.3 4.3-4.3h43.5c2.3 0 4.3 1.9 4.3 4.3V124c0 2.3-1.9 4.3-4.3 4.3zm-43.5-51.6c-2.1 0-3.8 1.7-3.8 3.8V124c0 2.1 1.7 3.8 3.8 3.8h43.5c2.1 0 3.8-1.7 3.8-3.8V80.5c0-2.1-1.7-3.8-3.8-3.8h-43.5z"/><path class="st5" d="M616.9 124.3c-.1 0-.3-.1-.3-.3V80.5c0-2.3 1.9-4.3 4.3-4.3h43.5c.1 0 .3.1.3.3s-.1.3-.3.3h-43.5c-2.1 0-3.8 1.7-3.8 3.8V124c.1.1 0 .3-.2.3z"/><circle class="st6" cx="643.2" cy="102.8" r="21.2"/><circle class="st7" cx="642.7" cy="102.2" r="21.2"/><g><path class="st0" d="M671.7 192.2h-58c-.6 0-1-.4-1-1v-58c0-.6.4-1 1-1h58c.6 0 1 .4 1 1v58c0 .6-.5 1-1 1z"/><path class="st1" d="M671.7 192.6h-58c-.8 0-1.4-.6-1.4-1.4v-58c0-.8.6-1.4 1.4-1.4h58c.8 0 1.4.6 1.4 1.4v58c-.1.8-.7 1.4-1.4 1.4zm-58-60c-.3 0-.6.3-.6.6v58c0 .3.3.6.6.6h58c.3 0 .6-.3.6-.6v-58c0-.3-.3-.6-.6-.6h-58z"/><path class="st2" d="M664.7 189.2h-44c-2.8 0-5-2.2-5-5v-44c0-2.8 2.2-5 5-5h44c2.8 0 5 2.2 5 5v44c0 2.8-2.3 5-5 5z"/><path class="st3" d="M616.9 186.5v-45.8c0-2.4 1.9-4.3 4.3-4.3h46.7c-.9-.8-2-1.2-3.3-1.2h-44c-2.8 0-5 2.2-5 5v44c0 1.4.6 2.6 1.4 3.5 0-.3-.1-.7-.1-1.2z"/><path class="st0" d="M616.9 184v-43.5c0-2.2 1.8-4 4-4h43.5c2.2 0 4 1.8 4 4V184c0 2.2-1.8 4-4 4h-43.5c-2.2 0-4-1.8-4-4z"/><path class="st4" d="M664.4 188.3h-43.5c-2.3 0-4.3-1.9-4.3-4.3v-43.5c0-2.3 1.9-4.3 4.3-4.3h43.5c2.3 0 4.3 1.9 4.3 4.3V184c0 2.3-1.9 4.3-4.3 4.3zm-43.5-51.6c-2.1 0-3.8 1.7-3.8 3.8V184c0 2.1 1.7 3.8 3.8 3.8h43.5c2.1 0 3.8-1.7 3.8-3.8v-43.5c0-2.1-1.7-3.8-3.8-3.8h-43.5z"/><path class="st5" d="M616.9 184.3c-.1 0-.3-.1-.3-.3v-43.5c0-2.3 1.9-4.3 4.3-4.3h43.5c.1 0 .3.1.3.3s-.1.3-.3.3h-43.5c-2.1 0-3.8 1.7-3.8 3.8V184c.1.1 0 .3-.2.3z"/><circle class="st6" cx="643.2" cy="162.8" r="21.2"/><circle class="st7" cx="642.7" cy="162.2" r="21.2"/></g><g><path class="st0" d="M671.7 252.2h-58c-.6 0-1-.4-1-1v-58c0-.6.4-1 1-1h58c.6 0 1 .4 1 1v58c0 .6-.5 1-1 1z"/><path class="st1" d="M671.7 252.6h-58c-.8 0-1.4-.6-1.4-1.4v-58c0-.8.6-1.4 1.4-1.4h58c.8 0 1.4.6 1.4 1.4v58c-.1.8-.7 1.4-1.4 1.4zm-58-60c-.3 0-.6.3-.6.6v58c0 .3.3.6.6.6h58c.3 0 .6-.3.6-.6v-58c0-.3-.3-.6-.6-.6h-58z"/><path class="st2" d="M664.7 249.2h-44c-2.8 0-5-2.2-5-5v-44c0-2.8 2.2-5 5-5h44c2.8 0 5 2.2 5 5v44c0 2.8-2.3 5-5 5z"/><path class="st3" d="M616.9 246.5v-45.8c0-2.4 1.9-4.3 4.3-4.3h46.7c-.9-.8-2-1.2-3.3-1.2h-44c-2.8 0-5 2.2-5 5v44c0 1.4.6 2.6 1.4 3.5 0-.3-.1-.7-.1-1.2z"/><path class="st0" d="M616.9 244v-43.5c0-2.2 1.8-4 4-4h43.5c2.2 0 4 1.8 4 4V244c0 2.2-1.8 4-4 4h-43.5c-2.2 0-4-1.8-4-4z"/><path class="st4" d="M664.4 248.3h-43.5c-2.3 0-4.3-1.9-4.3-4.3v-43.5c0-2.3 1.9-4.3 4.3-4.3h43.5c2.3 0 4.3 1.9 4.3 4.3V244c0 2.3-1.9 4.3-4.3 4.3zm-43.5-51.6c-2.1 0-3.8 1.7-3.8 3.8V244c0 2.1 1.7 3.8 3.8 3.8h43.5c2.1 0 3.8-1.7 3.8-3.8v-43.5c0-2.1-1.7-3.8-3.8-3.8h-43.5z"/><path class="st5" d="M616.9 244.3c-.1 0-.3-.1-.3-.3v-43.5c0-2.3 1.9-4.3 4.3-4.3h43.5c.1 0 .3.1.3.3s-.1.3-.3.3h-43.5c-2.1 0-3.8 1.7-3.8 3.8V244c.1.1 0 .3-.2.3z"/><circle class="st6" cx="643.2" cy="222.8" r="21.2"/><circle class="st7" cx="642.7" cy="222.2" r="21.2"/></g></g><g><path class="st8" d="M71.7 251.2l-33.9-34.4c-.6-.6-1-1.4-1-2v-58c0-.6.4-.6 1 0l33.9 34.4c.6.6 1 1.4 1 2v58c0 .6-.5.6-1 0z"/><path class="st1" d="M72.4 252c-.3 0-.6-.2-1-.5l-33.9-34.4c-.6-.6-1.1-1.6-1.1-2.3v-58c0-.5.3-.7.4-.7.3-.1.8 0 1.2.5L71.9 191c.6.6 1.1 1.6 1.1 2.3v58c0 .5-.3.7-.4.7h-.2zm-.5-1c.2.2.3.2.4.3v-58c0-.4-.4-1.2-.9-1.7l-33.9-34.4c-.2-.2-.3-.2-.4-.3v58c0 .4.4 1.2.9 1.7L71.9 251z"/><path class="st2" d="M64.7 241.2l-19.9-20.4c-2.8-2.8-5-7.2-5-10v-44c0-2.8 2.2-2.8 5 0l19.9 20.4c2.8 2.8 5 7.2 5 10v44c0 2.8-2.3 2.8-5 0z"/><path class="st3" d="M41 214.4v-45.8c0-2.4 1.9-2.4 4.3 0l22.6 23.1c-.9-1.6-2-3.3-3.3-4.5l-19.9-20.4c-2.8-2.8-5-2.8-5 0v44c0 1.4.6 3.2 1.4 5 0-.5-.1-1-.1-1.4z"/><path class="st9" d="M41 211.9v-43.5c0-2.2 1.8-2.2 4 0l19.4 19.9c2.2 2.2 4 5.8 4 8v43.5c0 2.2-1.8 2.2-4 0L45 219.9c-2.2-2.2-4-5.8-4-8z"/><path class="st4" d="M67.3 241.7c-.8 0-1.9-.6-3-1.7l-19.4-19.9c-2.2-2.2-4.1-5.9-4.1-8.2v-43.5c0-1.2.5-1.6.9-1.8.9-.4 2.1.2 3.5 1.6l19.4 19.9c2.2 2.2 4.1 5.9 4.1 8.2v43.5c0 1.2-.5 1.6-.9 1.8-.2 0-.4.1-.5.1zM42.2 167c-.1 0-.2 0-.3.1-.5.2-.6.8-.6 1.3v43.5c0 2.1 1.8 5.7 3.9 7.8l19.4 19.9c1.2 1.2 2.4 1.8 3 1.5.5-.2.6-.8.6-1.3v-43.5c0-2.1-1.8-5.7-3.9-7.8l-19.4-19.9c-1-1.1-2-1.6-2.7-1.6z"/><path class="st5" d="M41 212.1c-.1 0-.3-.1-.3-.3v-43.5c0-1.2.5-1.6.9-1.8.9-.4 2.1.2 3.5 1.6L64.5 188c.1.1.1.3 0 .4-.1.1-.3.1-.4 0l-19.4-19.9c-1.2-1.2-2.4-1.8-3-1.5-.5.2-.6.8-.6 1.3v43.5c.2.2.1.3-.1.3z"/><ellipse transform="rotate(-15.302 55.007 204.483)" class="st6" cx="55" cy="204.5" rx="9.9" ry="18.7"/><ellipse transform="rotate(-15.302 54.74 203.746)" class="st7" cx="54.7" cy="203.7" rx="10.1" ry="19"/><g><path class="st8" d="M71.7 191.2l-33.9-34.4c-.6-.6-1-1.4-1-2v-58c0-.6.4-.6 1 0l33.9 34.4c.6.6 1 1.4 1 2v58c0 .6-.5.6-1 0z"/><path class="st1" d="M72.4 192c-.3 0-.6-.2-1-.5l-33.9-34.4c-.6-.6-1.1-1.6-1.1-2.3v-58c0-.5.3-.7.4-.7.3-.1.8 0 1.2.5L71.9 131c.6.6 1.1 1.6 1.1 2.3v58c0 .5-.3.7-.4.7h-.2zm-.5-1c.2.2.3.2.4.3v-58c0-.4-.4-1.2-.9-1.7L37.5 97.1c-.2-.2-.3-.2-.4-.3v58c0 .4.4 1.2.9 1.7L71.9 191z"/><path class="st2" d="M64.7 181.2l-19.9-20.4c-2.8-2.8-5-7.2-5-10v-44c0-2.8 2.2-2.8 5 0l19.9 20.4c2.8 2.8 5 7.2 5 10v44c0 2.8-2.3 2.8-5 0z"/><path class="st3" d="M41 154.4v-45.8c0-2.4 1.9-2.4 4.3 0l22.6 23.1c-.9-1.6-2-3.3-3.3-4.5l-19.9-20.4c-2.8-2.8-5-2.8-5 0v44c0 1.4.6 3.2 1.4 5 0-.5-.1-1-.1-1.4z"/><path class="st9" d="M41 151.9v-43.5c0-2.2 1.8-2.2 4 0l19.4 19.9c2.2 2.2 4 5.8 4 8v43.5c0 2.2-1.8 2.2-4 0L45 159.9c-2.2-2.2-4-5.8-4-8z"/><path class="st4" d="M67.3 181.7c-.8 0-1.9-.6-3-1.7l-19.4-19.9c-2.2-2.2-4.1-5.9-4.1-8.2v-43.5c0-1.2.5-1.6.9-1.8.9-.4 2.1.2 3.5 1.6l19.4 19.9c2.2 2.2 4.1 5.9 4.1 8.2v43.5c0 1.2-.5 1.6-.9 1.8-.2 0-.4.1-.5.1zM42.2 107c-.1 0-.2 0-.3.1-.5.2-.6.8-.6 1.3v43.5c0 2.1 1.8 5.7 3.9 7.8l19.4 19.9c1.2 1.2 2.4 1.8 3 1.5.5-.2.6-.8.6-1.3v-43.5c0-2.1-1.8-5.7-3.9-7.8l-19.4-19.9c-1-1.1-2-1.6-2.7-1.6z"/><path class="st5" d="M41 152.1c-.1 0-.3-.1-.3-.3v-43.5c0-1.2.5-1.6.9-1.8.9-.4 2.1.2 3.5 1.6L64.5 128c.1.1.1.3 0 .4-.1.1-.3.1-.4 0l-19.4-19.9c-1.2-1.2-2.4-1.8-3-1.5-.5.2-.6.8-.6 1.3v43.5c.2.2.1.3-.1.3z"/><ellipse transform="rotate(-15.302 55.007 144.477)" class="st6" cx="55" cy="144.5" rx="9.9" ry="18.7"/><ellipse transform="rotate(-15.302 54.74 143.74)" class="st7" cx="54.7" cy="143.7" rx="10.1" ry="19"/></g><g><path class="st8" d="M71.7 131.8L37.8 97.5c-.6-.6-1-1.4-1-2v-58c0-.6.4-.6 1 0l33.9 34.4c.6.6 1 1.4 1 2v58c0 .5-.5.5-1-.1z"/><path class="st1" d="M72.4 132.6c-.3 0-.6-.2-1-.5L37.5 97.7c-.6-.6-1.1-1.6-1.1-2.3v-58c0-.5.3-.7.4-.7.3-.1.8 0 1.2.5l33.9 34.4c.6.6 1.1 1.6 1.1 2.3v58c0 .5-.3.7-.4.7h-.2zm-.5-1c.2.2.3.2.4.3v-58c0-.4-.4-1.2-.9-1.7L37.5 37.7c-.2-.2-.3-.2-.4-.3v58c0 .4.4 1.2.9 1.7l33.9 34.5z"/><path class="st2" d="M64.7 121.8l-19.9-20.4c-2.8-2.8-5-7.2-5-10v-44c0-2.8 2.2-2.8 5 0l19.9 20.4c2.8 2.8 5 7.2 5 10v44c0 2.8-2.3 2.8-5 0z"/><path class="st3" d="M41 95V49.2c0-2.4 1.9-2.4 4.3 0l22.6 23.1c-.9-1.6-2-3.3-3.3-4.5L44.8 47.5c-2.8-2.8-5-2.8-5 0v44c0 1.4.6 3.2 1.4 5-.1-.6-.2-1.1-.2-1.5z"/><path class="st9" d="M41 92.5V49c0-2.2 1.8-2.2 4 0l19.4 19.9c2.2 2.2 4 5.8 4 8v43.5c0 2.2-1.8 2.2-4 0L45 100.5c-2.2-2.2-4-5.8-4-8z"/><path class="st4" d="M67.3 122.2c-.8 0-1.9-.6-3-1.7l-19.4-19.9c-2.2-2.2-4.1-5.9-4.1-8.2V49c0-1.2.5-1.6.9-1.8.9-.4 2.1.2 3.5 1.6l19.4 19.9c2.2 2.2 4.1 5.9 4.1 8.2v43.5c0 1.2-.5 1.6-.9 1.8h-.5zM42.2 47.5c-.1 0-.2 0-.3.1-.5.2-.6.8-.6 1.3v43.5c0 2.1 1.8 5.7 3.9 7.8l19.4 19.9c1.2 1.2 2.4 1.8 3 1.5.5-.2.6-.8.6-1.3V76.8c0-2.1-1.8-5.7-3.9-7.8L44.9 49.1c-1-1-2-1.6-2.7-1.6z"/><path class="st5" d="M41 92.7c-.1 0-.3-.1-.3-.3V49c0-1.2.5-1.6.9-1.8.9-.4 2.1.2 3.5 1.6l19.4 19.9c.1.1.1.3 0 .4-.1.1-.3.1-.4 0l-19.2-20c-1.2-1.2-2.4-1.8-3-1.5-.5.2-.6.8-.6 1.3v43.5c0 .2-.1.3-.3.3z"/><ellipse transform="rotate(-15.302 55.006 85.058)" class="st6" cx="55" cy="85.1" rx="9.9" ry="18.7"/><ellipse transform="rotate(-15.302 54.74 84.321)" class="st7" cx="54.7" cy="84.3" rx="10.1" ry="19"/></g></g><g><path class="st8" d="M35.7 214.7L1.9 180.3c-.6-.6-1-1.4-1-2v-58c0-.6.4-.6 1 0l33.9 34.4c.6.6 1 1.4 1 2v58c-.1.6-.5.6-1.1 0z"/><path class="st1" d="M36.5 215.5c-.3 0-.6-.2-1-.5L1.6 180.6C1 180 .5 179 .5 178.3v-58c0-.5.3-.7.4-.7.3-.1.8 0 1.2.5L36 154.4c.6.6 1.1 1.6 1.1 2.3v58c0 .5-.3.7-.4.7-.1.1-.2.1-.2.1zm-.5-1.1c.2.2.3.2.4.3v-58c0-.4-.4-1.2-.9-1.7L1.6 120.6c-.2-.2-.3-.2-.4-.3v58c0 .4.4 1.2.9 1.7L36 214.4z"/><path class="st2" d="M28.7 204.7L8.9 184.3c-2.8-2.8-5-7.2-5-10v-44c0-2.8 2.2-2.8 5 0l19.9 20.4c2.8 2.8 5 7.2 5 10v44c-.1 2.8-2.3 2.8-5.1 0z"/><path class="st3" d="M5.1 177.9v-45.8c0-2.4 1.9-2.4 4.3 0L32 155.2c-.9-1.6-2-3.3-3.3-4.5L8.9 130.3c-2.8-2.8-5-2.8-5 0v44c0 1.4.6 3.2 1.4 5-.1-.5-.2-1-.2-1.4z"/><path class="st9" d="M5.1 175.3v-43.5c0-2.2 1.8-2.2 4 0l19.4 19.9c2.2 2.2 4 5.8 4 8v43.5c0 2.2-1.8 2.2-4 0L9.1 183.3c-2.2-2.2-4-5.7-4-8z"/><path class="st4" d="M31.3 205.1c-.8 0-1.9-.6-3-1.7L8.9 183.5c-2.2-2.2-4.1-5.9-4.1-8.2v-43.5c0-1.2.5-1.6.9-1.8.9-.4 2.1.2 3.5 1.6l19.4 19.9c2.2 2.2 4.1 5.9 4.1 8.2v43.5c0 1.2-.5 1.6-.9 1.8-.1.1-.3.1-.5.1zm-25-74.7c-.1 0-.2 0-.3.1-.5.2-.6.8-.6 1.3v43.5c0 2.1 1.8 5.7 3.9 7.8L28.7 203c1.2 1.2 2.4 1.8 3 1.5.5-.2.6-.8.6-1.3v-43.5c0-2.1-1.8-5.7-3.9-7.8L8.9 132c-1-1-1.9-1.6-2.6-1.6z"/><path class="st5" d="M5.1 175.6c-.1 0-.3-.1-.3-.3v-43.5c0-1.2.5-1.6.9-1.8.9-.4 2.1.2 3.5 1.6l19.4 19.9c.1.1.1.3 0 .4-.1.1-.3.1-.4 0L8.9 132c-1.2-1.2-2.4-1.8-3-1.5-.5.2-.6.8-.6 1.3v43.5c.1.2 0 .3-.2.3z"/><ellipse transform="rotate(-15.302 19.074 167.944)" class="st6" cx="19.1" cy="167.9" rx="9.9" ry="18.7"/><ellipse transform="rotate(-15.302 18.807 167.207)" class="st7" cx="18.8" cy="167.2" rx="10.1" ry="19"/><g><path class="st8" d="M35.7 154.7L1.9 120.3c-.6-.6-1-1.4-1-2v-58c0-.6.4-.6 1 0l33.9 34.4c.6.6 1 1.4 1 2v58c-.1.6-.5.6-1.1 0z"/><path class="st1" d="M36.5 155.5c-.3 0-.6-.2-1-.5L1.6 120.6C1 120 .5 119 .5 118.3v-58c0-.5.3-.7.4-.7.3-.1.8 0 1.2.5L36 94.4c.6.6 1.1 1.6 1.1 2.3v58c0 .5-.3.7-.4.7-.1.1-.2.1-.2.1zm-.5-1.1c.2.2.3.2.4.3v-58c0-.4-.4-1.2-.9-1.7L1.6 60.6c-.2-.2-.3-.2-.4-.3v58c0 .4.4 1.2.9 1.7L36 154.4z"/><path class="st2" d="M28.7 144.7L8.9 124.3c-2.8-2.8-5-7.2-5-10v-44c0-2.8 2.2-2.8 5 0l19.9 20.4c2.8 2.8 5 7.2 5 10v44c-.1 2.8-2.3 2.8-5.1 0z"/><path class="st3" d="M5.1 117.9V72.1c0-2.4 1.9-2.4 4.3 0L32 95.2c-.9-1.6-2-3.3-3.3-4.5L8.9 70.3c-2.8-2.8-5-2.8-5 0v44c0 1.4.6 3.2 1.4 5-.1-.5-.2-1-.2-1.4z"/><path class="st9" d="M5.1 115.3V71.8c0-2.2 1.8-2.2 4 0l19.4 19.9c2.2 2.2 4 5.8 4 8v43.5c0 2.2-1.8 2.2-4 0L9.1 123.3c-2.2-2.2-4-5.7-4-8z"/><path class="st4" d="M31.3 145.1c-.8 0-1.9-.6-3-1.7L8.9 123.5c-2.2-2.2-4.1-5.9-4.1-8.2V71.8c0-1.2.5-1.6.9-1.8.9-.4 2.1.2 3.5 1.6l19.4 19.9c2.2 2.2 4.1 5.9 4.1 8.2v43.5c0 1.2-.5 1.6-.9 1.8-.1.1-.3.1-.5.1zm-25-74.7c-.1 0-.2 0-.3.1-.5.2-.6.8-.6 1.3v43.5c0 2.1 1.8 5.7 3.9 7.8L28.7 143c1.2 1.2 2.4 1.8 3 1.5.5-.2.6-.8.6-1.3V99.7c0-2.1-1.8-5.7-3.9-7.8L8.9 72c-1-1-1.9-1.6-2.6-1.6z"/><path class="st5" d="M5.1 115.6c-.1 0-.3-.1-.3-.3V71.8c0-1.2.5-1.6.9-1.8.9-.4 2.1.2 3.5 1.6l19.4 19.9c.1.1.1.3 0 .4-.1.1-.3.1-.4 0L8.9 72c-1.2-1.2-2.4-1.8-3-1.5-.5.2-.6.8-.6 1.3v43.5c.1.2 0 .3-.2.3z"/><ellipse transform="rotate(-15.302 19.074 107.939)" class="st6" cx="19.1" cy="107.9" rx="9.9" ry="18.7"/><ellipse transform="rotate(-15.302 18.807 107.202)" class="st7" cx="18.8" cy="107.2" rx="10.1" ry="19"/></g><g><path class="st8" d="M35.7 95.3L1.9 60.9c-.6-.6-1-1.4-1-2V.9c0-.6.4-.6 1 0l33.9 34.4c.6.6 1 1.4 1 2v58c-.1.5-.5.5-1.1 0z"/><path class="st1" d="M36.5 96.1c-.3 0-.6-.2-1-.5L1.6 61.2C1 60.6.5 59.6.5 58.9V.9C.5.4.8.2.9.2c.3-.1.8 0 1.2.5L36 35c.6.6 1.1 1.6 1.1 2.3v58c0 .5-.3.7-.4.7-.1.1-.2.1-.2.1zM36 95c.2.2.3.2.4.3v-58c0-.4-.4-1.2-.9-1.7L1.6 1.2C1.4 1 1.3.9 1.2.9v58c0 .4.4 1.2.9 1.7L36 95z"/><path class="st2" d="M28.7 85.3L8.9 64.9c-2.8-2.8-5-7.2-5-10v-44c0-2.8 2.2-2.8 5 0l19.9 20.4c2.8 2.8 5 7.2 5 10v44c-.1 2.8-2.3 2.8-5.1 0z"/><path class="st3" d="M5.1 58.5V12.7c0-2.4 1.9-2.4 4.3 0L32 35.8c-.9-1.6-2-3.3-3.3-4.5L8.9 10.9c-2.8-2.8-5-2.8-5 0v44c0 1.4.6 3.2 1.4 5-.1-.5-.2-1-.2-1.4z"/><path class="st9" d="M5.1 55.9V12.4c0-2.2 1.8-2.2 4 0l19.4 19.9c2.2 2.2 4 5.8 4 8v43.5c0 2.2-1.8 2.2-4 0L9.1 63.9c-2.2-2.2-4-5.8-4-8z"/><path class="st4" d="M31.3 85.7c-.8 0-1.9-.6-3-1.7L8.9 64.1c-2.2-2.2-4.1-5.9-4.1-8.2V12.4c0-1.2.5-1.6.9-1.8.9-.4 2.1.2 3.5 1.6l19.4 19.9c2.2 2.2 4.1 5.9 4.1 8.2v43.5c0 1.2-.5 1.6-.9 1.8-.1.1-.3.1-.5.1zM6.3 11c-.1 0-.2 0-.3.1-.5.2-.6.8-.6 1.3v43.5c0 2.1 1.8 5.7 3.9 7.8l19.4 19.9c1.2 1.2 2.4 1.8 3 1.5.5-.2.6-.8.6-1.3V40.3c0-2.1-1.8-5.7-3.9-7.8L8.9 12.6c-1-1-1.9-1.6-2.6-1.6z"/><path class="st5" d="M5.1 56.2c-.1 0-.3-.1-.3-.3V12.4c0-1.2.5-1.6.9-1.8.9-.4 2.1.2 3.5 1.6l19.4 19.9c.1.1.1.3 0 .4-.1.1-.3.1-.4 0L8.9 12.6c-1.2-1.2-2.4-1.8-3-1.5-.5.2-.6.8-.6 1.3v43.5c.1.2 0 .3-.2.3z"/><ellipse transform="rotate(-15.302 19.074 48.52)" class="st6" cx="19.1" cy="48.5" rx="9.9" ry="18.7"/><ellipse transform="rotate(-15.302 18.807 47.782)" class="st7" cx="18.8" cy="47.8" rx="10.1" ry="19"/></g></g><g><path class="st10" d="M37.2 37.4l34.4 33.9c.6.6 1.4 1 2 1h58c.6 0 .6-.4 0-1L97.2 37.4c-.6-.6-1.4-1-2-1h-58c-.6 0-.6.4 0 1z"/><path class="st1" d="M131.5 72.6h-58c-.6 0-1.6-.5-2.3-1.1L36.9 37.6c-.4-.4-.6-.9-.5-1.2.1-.1.2-.4.7-.4h58c.6 0 1.6.5 2.3 1.1L131.8 71c.5.5.6.9.5 1.2-.1.1-.2.4-.8.4zM37.4 37.1L71.8 71c.5.5 1.3.9 1.7.9h58c0-.1-.1-.2-.3-.4L96.9 37.6c-.5-.5-1.3-.9-1.7-.9h-58c0 .1.1.2.2.4z"/><path class="st2" d="M47.2 44.4l20.4 19.9c2.8 2.8 7.2 5 10 5h44c2.8 0 2.8-2.2 0-5l-20.4-19.9c-2.8-2.8-7.2-5-10-5h-44c-2.8 0-2.8 2.2 0 5z"/><path class="st3" d="M94.7 40.6H49c-2.4 0-2.4 1.9 0 4.3l23.1 22.6c-1.6-.9-3.3-2-4.5-3.3L47.2 44.4c-2.8-2.8-2.8-5 0-5h44c1.4 0 3.2.6 5 1.4-.6-.1-1.1-.2-1.5-.2z"/><path class="st9" d="M76.5 68H120c2.2 0 2.2-1.8 0-4l-19.9-19.4c-2.2-2.2-5.8-4-8-4H48.7c-2.2 0-2.2 1.8 0 4L68.5 64c2.3 2.2 5.8 4 8 4z"/><path class="st4" d="M120.1 68.2H76.5c-2.3 0-5.9-1.8-8.2-4.1L48.5 44.8c-1.4-1.4-2-2.7-1.6-3.5.2-.4.6-.9 1.8-.9h43.5c2.3 0 5.9 1.8 8.2 4.1l19.9 19.4c1.4 1.4 2 2.7 1.6 3.5-.2.4-.7.8-1.8.8zM48.7 40.9c-.5 0-1.1.1-1.3.6-.3.6.3 1.8 1.5 3l19.9 19.4c2.2 2.2 5.7 3.9 7.8 3.9h43.5c.5 0 1.1-.1 1.3-.6.3-.6-.3-1.8-1.5-3L100 44.8c-2.2-2.2-5.7-3.9-7.8-3.9H48.7z"/><path class="st5" d="M68.5 64.2c-.1 0-.1 0-.2-.1L48.5 44.8c-1.4-1.4-2-2.7-1.6-3.5.2-.4.6-.9 1.8-.9h43.5c.1 0 .3.1.3.3s-.1.3-.3.3H48.7c-.5 0-1.1.1-1.3.6-.3.6.3 1.8 1.5 3L68.8 64c.1.1.1.3 0 .4-.1-.2-.2-.2-.3-.2z"/><ellipse transform="rotate(-72.668 85.625 55.248)" class="st6" cx="85.6" cy="55.2" rx="10.2" ry="20.5"/><ellipse transform="rotate(-72.668 85.225 54.448)" class="st7" cx="85.2" cy="54.4" rx="10.2" ry="20.5"/><g><path class="st10" d="M1.3 1.5l34.4 33.9c.6.6 1.4 1 2 1h58c.6 0 .6-.4 0-1L61.3 1.5c-.6-.6-1.4-1-2-1h-58c-.5 0-.5.5 0 1z"/><path class="st1" d="M95.7 36.8h-58c-.6 0-1.6-.5-2.3-1.1L1.1 1.8C.6 1.3.4.9.6.5.7.4.8.1 1.3.1h58c.6 0 1.6.5 2.3 1.1L96 35.1c.5.5.6.9.5 1.2-.1.2-.3.5-.8.5zM1.6 1.2L36 35.1c.5.5 1.3.9 1.7.9h58c0-.1-.1-.2-.3-.4L61.1 1.8c-.5-.5-1.3-.9-1.7-.9h-58c-.1.1 0 .2.2.3z"/><path class="st2" d="M11.3 8.5l20.4 19.9c2.8 2.8 7.2 5 10 5h44c2.8 0 2.8-2.2 0-5L65.3 8.5c-2.8-2.8-7.2-5-10-5h-44c-2.7 0-2.7 2.2 0 5z"/><path class="st3" d="M58.9 4.8H13.1c-2.4 0-2.4 1.9 0 4.3l23.1 22.6c-1.6-.9-3.3-2-4.5-3.3L11.3 8.5c-2.8-2.8-2.8-5 0-5h44c1.4 0 3.2.6 5 1.4-.5-.1-1-.1-1.4-.1z"/><path class="st9" d="M40.7 32.1h43.5c2.2 0 2.2-1.8 0-4L64.3 8.8c-2.2-2.2-5.8-4-8-4H12.8c-2.2 0-2.2 1.8 0 4l19.9 19.4c2.2 2.1 5.8 3.9 8 3.9z"/><path class="st4" d="M84.2 32.4H40.7c-2.3 0-5.9-1.8-8.2-4.1L12.6 8.9c-1.4-1.4-2-2.7-1.6-3.5.2-.4.6-.9 1.8-.9h43.5c2.3 0 5.9 1.8 8.2 4.1L84.4 28c1.4 1.4 2 2.7 1.6 3.5-.2.4-.6.9-1.8.9zM12.8 5c-.5 0-1.1.1-1.3.6-.3.6.3 1.8 1.5 3L32.9 28c2.2 2.2 5.7 3.9 7.8 3.9h43.5c.5 0 1.1-.1 1.3-.6.3-.6-.3-1.8-1.5-3L64.2 8.9C62 6.8 58.5 5 56.3 5H12.8z"/><path class="st5" d="M32.7 28.4c-.1 0-.1 0-.2-.1L12.6 8.9c-1.4-1.4-2-2.7-1.6-3.5.2-.4.6-.9 1.8-.9h43.5c.1 0 .3.1.3.3s-.1.2-.3.2H12.8c-.5 0-1.1.1-1.3.6-.3.6.3 1.8 1.5 3L32.9 28c.1.1.1.3 0 .4h-.2z"/><ellipse transform="rotate(-72.668 49.767 19.39)" class="st6" cx="49.8" cy="19.4" rx="10.2" ry="20.5"/><ellipse transform="rotate(-72.668 49.367 18.59)" class="st7" cx="49.4" cy="18.6" rx="10.2" ry="20.5"/></g></g><g><path class="st10" d="M97.2 37.4l34.4 33.9c.6.6 1.4 1 2 1h58c.6 0 .6-.4 0-1l-34.4-33.9c-.6-.6-1.4-1-2-1h-58c-.6 0-.6.4 0 1z"/><path class="st1" d="M191.6 72.6h-58c-.6 0-1.6-.5-2.3-1.1L96.9 37.6c-.4-.4-.6-.9-.5-1.2.1-.1.2-.4.7-.4h58c.6 0 1.6.5 2.3 1.1L191.8 71c.5.5.6.9.5 1.2 0 .1-.2.4-.7.4zM97.5 37.1L131.8 71c.5.5 1.3.9 1.7.9h58c0-.1-.1-.2-.3-.4l-34.4-33.9c-.5-.5-1.3-.9-1.7-.9h-58l.4.4z"/><path class="st2" d="M107.2 44.4l20.4 19.9c2.8 2.8 7.2 5 10 5h44c2.8 0 2.8-2.2 0-5l-20.4-19.9c-2.8-2.8-7.2-5-10-5h-44c-2.8 0-2.8 2.2 0 5z"/><path class="st3" d="M154.7 40.6H109c-2.4 0-2.4 1.9 0 4.3l23.1 22.6c-1.6-.9-3.3-2-4.5-3.3l-20.4-19.9c-2.8-2.8-2.8-5 0-5h44c1.4 0 3.2.6 5 1.4-.6 0-1-.1-1.5-.1z"/><path class="st9" d="M136.6 68h43.5c2.2 0 2.2-1.8 0-4l-19.9-19.4c-2.2-2.2-5.8-4-8-4h-43.5c-2.2 0-2.2 1.8 0 4L128.6 64c2.2 2.2 5.7 4 8 4z"/><path class="st4" d="M180.1 68.2h-43.5c-2.3 0-5.9-1.8-8.2-4.1l-19.9-19.4c-1.4-1.4-2-2.7-1.6-3.5.2-.4.6-.9 1.8-.9h43.5c2.3 0 5.9 1.8 8.2 4.1l19.9 19.4c1.4 1.4 2 2.7 1.6 3.5-.2.5-.6.9-1.8.9zm-71.4-27.3c-.5 0-1.1.1-1.3.6-.3.6.3 1.8 1.5 3l19.9 19.4c2.2 2.2 5.7 3.9 7.8 3.9h43.5c.5 0 1.1-.1 1.3-.6.3-.6-.3-1.8-1.5-3L160 44.8c-2.2-2.2-5.7-3.9-7.8-3.9h-43.5z"/><path class="st5" d="M128.6 64.2c-.1 0-.1 0-.2-.1l-19.9-19.4c-1.4-1.4-2-2.7-1.6-3.5.2-.4.6-.9 1.8-.9h43.5c.1 0 .3.1.3.3s-.1.3-.3.3h-43.5c-.5 0-1.1.1-1.3.6-.3.6.3 1.8 1.5 3l19.9 19.4c.1.1.1.3 0 .4-.1-.1-.2-.1-.2-.1z"/><ellipse transform="rotate(-72.668 145.64 55.246)" class="st6" cx="145.6" cy="55.2" rx="10.2" ry="20.5"/><ellipse transform="rotate(-72.668 145.24 54.446)" class="st7" cx="145.2" cy="54.4" rx="10.2" ry="20.5"/><g><path class="st10" d="M61.3 1.5l34.4 33.9c.6.6 1.4 1 2 1h58c.6 0 .6-.4 0-1L121.3 1.5c-.6-.6-1.4-1-2-1h-58c-.5 0-.5.5 0 1z"/><path class="st1" d="M155.7 36.8h-58c-.6 0-1.6-.5-2.3-1.1L61.1 1.8c-.4-.4-.6-.9-.5-1.2.1-.1.2-.4.7-.4h58c.6 0 1.6.5 2.3 1.1L156 35.1c.5.5.6.9.5 1.2-.1.2-.3.5-.8.5zM61.6 1.2L96 35.1c.5.5 1.3.9 1.7.9h58c0-.1-.1-.2-.3-.4L121.1 1.8c-.5-.5-1.3-.9-1.7-.9h-58c0 .1 0 .2.2.3z"/><path class="st2" d="M71.3 8.5l20.4 19.9c2.8 2.8 7.2 5 10 5h44c2.8 0 2.8-2.2 0-5L125.3 8.5c-2.8-2.8-7.2-5-10-5h-44c-2.7 0-2.7 2.2 0 5z"/><path class="st3" d="M118.9 4.8H73.1c-2.4 0-2.4 1.9 0 4.3l23.1 22.6c-1.6-.9-3.3-2-4.5-3.3L71.3 8.5c-2.8-2.8-2.8-5 0-5h44c1.4 0 3.2.6 5 1.4-.5-.1-1-.1-1.4-.1z"/><path class="st9" d="M100.7 32.1h43.5c2.2 0 2.2-1.8 0-4L124.3 8.8c-2.2-2.2-5.8-4-8-4H72.8c-2.2 0-2.2 1.8 0 4l19.9 19.4c2.2 2.1 5.8 3.9 8 3.9z"/><path class="st4" d="M144.2 32.4h-43.5c-2.3 0-5.9-1.8-8.2-4.1L72.7 8.9c-1.4-1.4-2-2.7-1.6-3.5.2-.4.6-.9 1.8-.9h43.5c2.3 0 5.9 1.8 8.2 4.1L144.4 28c1.4 1.4 2 2.7 1.6 3.5-.1.4-.6.9-1.8.9zM72.8 5c-.5 0-1.1.1-1.3.6-.3.6.3 1.8 1.5 3L92.9 28c2.2 2.2 5.7 3.9 7.8 3.9h43.5c.5 0 1.1-.1 1.3-.6.3-.6-.3-1.8-1.5-3L124.2 8.9C122 6.8 118.5 5 116.3 5H72.8z"/><path class="st5" d="M92.7 28.4c-.1 0-.1 0-.2-.1L72.7 8.9c-1.4-1.4-2-2.7-1.6-3.5.2-.4.6-.9 1.8-.9h43.5c.1 0 .3.1.3.3s-.2.2-.4.2H72.8c-.5 0-1.1.1-1.3.6-.3.6.3 1.8 1.5 3L92.9 28c.1.1.1.3 0 .4h-.2z"/><ellipse transform="rotate(-72.668 109.783 19.39)" class="st6" cx="109.8" cy="19.4" rx="10.2" ry="20.5"/><ellipse transform="rotate(-72.668 109.382 18.59)" class="st7" cx="109.4" cy="18.6" rx="10.2" ry="20.5"/></g></g><g><path class="st10" d="M157.2 37.4l34.4 33.9c.6.6 1.4 1 2 1h58c.6 0 .6-.4 0-1l-34.4-33.9c-.6-.6-1.4-1-2-1h-58c-.5 0-.5.4 0 1z"/><path class="st1" d="M251.6 72.6h-58c-.6 0-1.6-.5-2.3-1.1l-34.4-33.9c-.4-.4-.6-.9-.5-1.2.1-.1.2-.4.7-.4h58c.6 0 1.6.5 2.3 1.1L251.8 71c.5.5.6.9.5 1.2 0 .1-.2.4-.7.4zm-94.1-35.5L191.8 71c.5.5 1.3.9 1.7.9h58c0-.1-.1-.2-.3-.4l-34.4-33.9c-.5-.5-1.3-.9-1.7-.9h-58l.4.4z"/><path class="st2" d="M167.2 44.4l20.4 19.9c2.8 2.8 7.2 5 10 5h44c2.8 0 2.8-2.2 0-5l-20.4-19.9c-2.8-2.8-7.2-5-10-5h-44c-2.8 0-2.8 2.2 0 5z"/><path class="st3" d="M214.8 40.6H169c-2.4 0-2.4 1.9 0 4.3l23.1 22.6c-1.6-.9-3.3-2-4.5-3.3l-20.4-19.9c-2.8-2.8-2.8-5 0-5h44c1.4 0 3.2.6 5 1.4-.5 0-1-.1-1.4-.1z"/><path class="st9" d="M196.6 68h43.5c2.2 0 2.2-1.8 0-4l-19.9-19.4c-2.2-2.2-5.8-4-8-4h-43.5c-2.2 0-2.2 1.8 0 4L188.6 64c2.2 2.2 5.8 4 8 4z"/><path class="st4" d="M240.1 68.2h-43.5c-2.3 0-5.9-1.8-8.2-4.1l-19.9-19.4c-1.4-1.4-2-2.7-1.6-3.5.2-.4.6-.9 1.8-.9h43.5c2.3 0 5.9 1.8 8.2 4.1l19.9 19.4c1.4 1.4 2 2.7 1.6 3.5-.2.5-.6.9-1.8.9zm-71.4-27.3c-.5 0-1.1.1-1.3.6-.3.6.3 1.8 1.5 3l19.9 19.4c2.2 2.2 5.7 3.9 7.8 3.9h43.5c.5 0 1.1-.1 1.3-.6.3-.6-.3-1.8-1.5-3L220 44.8c-2.2-2.2-5.7-3.9-7.8-3.9h-43.5z"/><path class="st5" d="M188.6 64.2c-.1 0-.1 0-.2-.1l-19.9-19.4c-1.4-1.4-2-2.7-1.6-3.5.2-.4.6-.9 1.8-.9h43.5c.1 0 .3.1.3.3s-.1.3-.3.3h-43.5c-.5 0-1.1.1-1.3.6-.3.6.3 1.8 1.5 3l19.9 19.4c.1.1.1.3 0 .4-.1-.1-.2-.1-.2-.1z"/><ellipse transform="rotate(-72.668 205.657 55.245)" class="st6" cx="205.7" cy="55.2" rx="10.2" ry="20.5"/><ellipse transform="rotate(-72.668 205.257 54.445)" class="st7" cx="205.3" cy="54.4" rx="10.2" ry="20.5"/><g><path class="st10" d="M121.3 1.5l34.4 33.9c.6.6 1.4 1 2 1h58c.6 0 .6-.4 0-1L181.3 1.5c-.6-.6-1.4-1-2-1h-58c-.5 0-.5.5 0 1z"/><path class="st1" d="M215.7 36.8h-58c-.6 0-1.6-.5-2.3-1.1L121.1 1.8c-.4-.4-.6-.9-.5-1.2.1-.1.2-.4.7-.4h58c.6 0 1.6.5 2.3 1.1L216 35.1c.5.5.6.9.5 1.2-.1.2-.3.5-.8.5zM121.6 1.2L156 35.1c.5.5 1.3.9 1.7.9h58c0-.1-.1-.2-.3-.4L181.1 1.8c-.5-.5-1.3-.9-1.7-.9h-58c0 .1.1.2.2.3z"/><path class="st2" d="M131.3 8.5l20.4 19.9c2.8 2.8 7.2 5 10 5h44c2.8 0 2.8-2.2 0-5L185.3 8.5c-2.8-2.8-7.2-5-10-5h-44c-2.7 0-2.7 2.2 0 5z"/><path class="st3" d="M178.9 4.8h-45.8c-2.4 0-2.4 1.9 0 4.3l23.1 22.6c-1.6-.9-3.3-2-4.5-3.3L131.3 8.5c-2.8-2.8-2.8-5 0-5h44c1.4 0 3.2.6 5 1.4-.5-.1-1-.1-1.4-.1z"/><path class="st9" d="M160.7 32.1h43.5c2.2 0 2.2-1.8 0-4L184.4 8.8c-2.2-2.2-5.8-4-8-4h-43.5c-2.2 0-2.2 1.8 0 4l19.9 19.4c2.1 2.1 5.7 3.9 7.9 3.9z"/><path class="st4" d="M204.2 32.4h-43.5c-2.3 0-5.9-1.8-8.2-4.1L132.7 8.9c-1.4-1.4-2-2.7-1.6-3.5.2-.4.6-.9 1.8-.9h43.5c2.3 0 5.9 1.8 8.2 4.1L204.4 28c1.4 1.4 2 2.7 1.6 3.5-.1.4-.6.9-1.8.9zM132.8 5c-.5 0-1.1.1-1.3.6-.3.6.3 1.8 1.5 3L152.9 28c2.2 2.2 5.7 3.9 7.8 3.9h43.5c.5 0 1.1-.1 1.3-.6.3-.6-.3-1.8-1.5-3L184.2 8.9C182 6.8 178.5 5 176.4 5h-43.6z"/><path class="st5" d="M152.7 28.4c-.1 0-.1 0-.2-.1L132.7 8.9c-1.4-1.4-2-2.7-1.6-3.5.2-.4.6-.9 1.8-.9h43.5c.1 0 .3.1.3.3s-.2.2-.3.2h-43.5c-.5 0-1.1.1-1.3.6-.3.6.3 1.8 1.5 3L152.9 28c.1.1.1.3 0 .4h-.2z"/><ellipse transform="rotate(-72.668 169.798 19.388)" class="st6" cx="169.8" cy="19.4" rx="10.2" ry="20.5"/><ellipse transform="rotate(-72.668 169.398 18.588)" class="st7" cx="169.4" cy="18.6" rx="10.2" ry="20.5"/></g></g><g><path class="st10" d="M217.7 37.4l34.4 33.9c.6.6 1.4 1 2 1h58c.6 0 .6-.4 0-1l-34.4-33.9c-.6-.6-1.4-1-2-1h-58c-.5 0-.5.4 0 1z"/><path class="st1" d="M312.1 72.6h-58c-.6 0-1.6-.5-2.3-1.1l-34.4-33.9c-.4-.4-.6-.9-.5-1.2.1-.1.2-.4.7-.4h58c.6 0 1.6.5 2.3 1.1L312.4 71c.5.5.6.9.5 1.2-.1.1-.3.4-.8.4zM218 37.1L252.4 71c.5.5 1.3.9 1.7.9h58c0-.1-.1-.2-.3-.4l-34.4-33.9c-.5-.5-1.3-.9-1.7-.9h-58c.1.1.1.2.3.4z"/><path class="st2" d="M227.7 44.4l20.4 19.9c2.8 2.8 7.2 5 10 5h44c2.8 0 2.8-2.2 0-5l-20.4-19.9c-2.8-2.8-7.2-5-10-5h-44c-2.7 0-2.7 2.2 0 5z"/><path class="st3" d="M275.3 40.6h-45.8c-2.4 0-2.4 1.9 0 4.3l23.1 22.6c-1.6-.9-3.3-2-4.5-3.3l-20.4-19.9c-2.8-2.8-2.8-5 0-5h44c1.4 0 3.2.6 5 1.4-.5 0-1-.1-1.4-.1z"/><path class="st9" d="M257.1 68h43.5c2.2 0 2.2-1.8 0-4l-19.9-19.4c-2.2-2.2-5.8-4-8-4h-43.5c-2.2 0-2.2 1.8 0 4L249.1 64c2.2 2.2 5.8 4 8 4z"/><path class="st4" d="M300.6 68.2h-43.5c-2.3 0-5.9-1.8-8.2-4.1L229 44.7c-1.4-1.4-2-2.7-1.6-3.5.2-.4.6-.9 1.8-.9h43.5c2.3 0 5.9 1.8 8.2 4.1l19.9 19.4c1.4 1.4 2 2.7 1.6 3.5-.1.5-.6.9-1.8.9zm-71.4-27.3c-.5 0-1.1.1-1.3.6-.3.6.3 1.8 1.5 3l19.9 19.4c2.2 2.2 5.7 3.9 7.8 3.9h43.5c.5 0 1.1-.1 1.3-.6.3-.6-.3-1.8-1.5-3l-19.9-19.4c-2.2-2.2-5.7-3.9-7.8-3.9h-43.5z"/><path class="st5" d="M249.1 64.2c-.1 0-.1 0-.2-.1L229 44.7c-1.4-1.4-2-2.7-1.6-3.5.2-.4.6-.9 1.8-.9h43.5c.1 0 .3.1.3.3s-.1.3-.3.3h-43.5c-.5 0-1.1.1-1.3.6-.3.6.3 1.8 1.5 3l19.9 19.4c.1.1.1.3 0 .4-.1-.1-.1-.1-.2-.1z"/><ellipse transform="rotate(-72.668 266.194 55.244)" class="st6" cx="266.2" cy="55.2" rx="10.2" ry="20.5"/><ellipse transform="rotate(-72.668 265.794 54.444)" class="st7" cx="265.8" cy="54.4" rx="10.2" ry="20.5"/><g><path class="st10" d="M181.9 1.5l34.4 33.9c.6.6 1.4 1 2 1h58c.6 0 .6-.4 0-1L241.9 1.5c-.6-.6-1.4-1-2-1h-58c-.6 0-.6.5 0 1z"/><path class="st1" d="M276.3 36.8h-58c-.6 0-1.6-.5-2.3-1.1L181.6 1.8c-.4-.4-.6-.9-.5-1.2.1-.1.2-.4.7-.4h58c.6 0 1.6.5 2.3 1.1l34.4 33.9c.5.5.6.9.5 1.2-.1.1-.2.4-.7.4zM182.1 1.2l34.4 33.9c.5.5 1.3.9 1.7.9h58c0-.1-.1-.2-.3-.4L241.6 1.8c-.5-.5-1.3-.9-1.7-.9h-58c0 .1.1.2.2.3z"/><path class="st2" d="M191.9 8.5l20.4 19.9c2.8 2.8 7.2 5 10 5h44c2.8 0 2.8-2.2 0-5L245.9 8.5c-2.8-2.8-7.2-5-10-5h-44c-2.8 0-2.8 2.2 0 5z"/><path class="st3" d="M239.4 4.8h-45.8c-2.4 0-2.4 1.9 0 4.3l23.1 22.6c-1.6-.9-3.3-2-4.5-3.3L191.9 8.5c-2.8-2.8-2.8-5 0-5h44c1.4 0 3.2.6 5 1.4-.6-.1-1-.1-1.5-.1z"/><path class="st9" d="M221.2 32.1h43.5c2.2 0 2.2-1.8 0-4L244.9 8.8c-2.2-2.2-5.8-4-8-4h-43.5c-2.2 0-2.2 1.8 0 4l19.9 19.4c2.2 2.1 5.7 3.9 7.9 3.9z"/><path class="st4" d="M264.8 32.4h-43.5c-2.3 0-5.9-1.8-8.2-4.1L193.2 8.9c-1.4-1.4-2-2.7-1.6-3.5.2-.4.6-.9 1.8-.9h43.5c2.3 0 5.9 1.8 8.2 4.1L264.9 28c1.4 1.4 2 2.7 1.6 3.5-.1.4-.5.9-1.7.9zM193.4 5c-.5 0-1.1.1-1.3.6-.3.6.3 1.8 1.5 3L213.4 28c2.2 2.2 5.7 3.9 7.8 3.9h43.5c.5 0 1.1-.1 1.3-.6.3-.6-.3-1.8-1.5-3L244.7 8.9C242.6 6.8 239 5 236.9 5h-43.5z"/><path class="st5" d="M213.2 28.4c-.1 0-.1 0-.2-.1L193.2 8.9c-1.4-1.4-2-2.7-1.6-3.5.2-.4.6-.9 1.8-.9h43.5c.1 0 .3.1.3.3s-.2.2-.3.2h-43.5c-.5 0-1.1.1-1.3.6-.3.6.3 1.8 1.5 3L213.4 28c.1.1.1.3 0 .4h-.2z"/><ellipse transform="rotate(-72.668 230.336 19.387)" class="st6" cx="230.3" cy="19.4" rx="10.2" ry="20.5"/><ellipse transform="rotate(-72.668 229.936 18.587)" class="st7" cx="229.9" cy="18.6" rx="10.2" ry="20.5"/></g></g><g><path class="st10" d="M273.6 37.4l39.1 33.9c.6.6 1.6 1 2.1 1h58c.6 0 .5-.4-.1-1l-39.1-33.9c-.6-.6-1.6-1-2.1-1h-58c-.6 0-.5.4.1 1z"/><path class="st1" d="M372.9 72.6h-58c-.6 0-1.7-.5-2.4-1.1l-39.1-33.9c-.7-.6-.7-1-.6-1.2 0-.1.2-.4.7-.4h58c.6 0 1.7.5 2.4 1.1L373 71c.7.6.7 1 .6 1.3-.1 0-.2.3-.7.3zm-99.1-35.5L313 71c.6.5 1.5.9 1.9.9h57.9l-.3-.3-39.1-33.9c-.6-.5-1.5-.9-1.9-.9h-57.9s.1.1.2.3z"/><path class="st2" d="M284.6 44.4l23.2 19.9c3.1 2.8 7.9 5 10.7 5h44c2.8 0 2.4-2.2-.7-5l-23.2-19.9c-3.1-2.8-7.9-5-10.7-5h-44c-2.8 0-2.5 2.2.7 5z"/><path class="st3" d="M331.6 40.6h-45.8c-2.4 0-2.1 1.9.6 4.3l26.3 22.6c-1.8-.9-3.5-2-5-3.3l-23.2-19.9c-3.1-2.8-3.5-5-.7-5h44c1.4 0 3.2.6 5.2 1.4-.5 0-1-.1-1.4-.1z"/><path class="st9" d="M317.3 68h43.5c2.2 0 2-1.8-.6-4l-22.6-19.4c-2.5-2.2-6.4-4-8.6-4h-43.5c-2.2 0-2 1.8.6 4L308.7 64c2.5 2.2 6.4 4 8.6 4z"/><path class="st4" d="M360.8 68.2h-43.5c-2.3 0-6.2-1.8-8.7-4.1L286 44.8c-1.6-1.4-2.4-2.8-2.1-3.6.1-.4.5-.8 1.7-.8h43.5c2.3 0 6.2 1.8 8.7 4.1l22.6 19.4c1.6 1.4 2.4 2.8 2.1 3.6-.2.3-.6.7-1.7.7zm-75.2-27.3c-.5 0-1.1.1-1.2.5-.2.5.2 1.6 1.9 3.1l22.6 19.4c2.5 2.2 6.2 3.9 8.4 3.9h43.5c.5 0 1.1-.1 1.2-.5.2-.5-.2-1.6-1.9-3.1l-22.6-19.4c-2.5-2.2-6.2-3.9-8.4-3.9h-43.5z"/><path class="st5" d="M308.7 64.2c-.1 0-.1 0-.2-.1l-22.6-19.4c-1.6-1.4-2.4-2.8-2.1-3.6.1-.4.5-.8 1.7-.8H329c.1 0 .3.1.3.3s-.1.3-.3.3h-43.5c-.5 0-1.1.1-1.2.5-.2.5.2 1.6 1.9 3.1l22.6 19.4c.1.1.1.2 0 .4 0-.1 0-.1-.1-.1z"/><ellipse transform="rotate(-71.53 324.563 55.245)" class="st6" cx="324.6" cy="55.2" rx="9.7" ry="21.4"/><ellipse transform="rotate(-71.53 324.05 54.444)" class="st7" cx="324" cy="54.4" rx="9.7" ry="21.4"/><g><path class="st10" d="M232.7 1.5l39.1 33.9c.6.6 1.6 1 2.1 1h58c.6 0 .5-.4-.1-1L292.7 1.5c-.6-.6-1.6-1-2.1-1h-58c-.6 0-.5.5.1 1z"/><path class="st1" d="M332 36.8h-58c-.6 0-1.7-.5-2.4-1.1L232.5 1.8c-.7-.6-.7-1-.6-1.2 0-.1.2-.4.7-.4h58c.6 0 1.7.5 2.4 1.1l39.1 33.9c.7.6.7 1 .6 1.3-.1 0-.2.3-.7.3zM233 1.2l39.1 33.9c.6.5 1.5.9 1.9.9h57.9l-.3-.3-39.1-33.9c-.6-.5-1.5-.9-1.9-.9h-57.9c0 .1.1.2.3.3z"/><path class="st2" d="M243.7 8.5l23.2 19.9c3.1 2.8 7.9 5 10.7 5h44c2.8 0 2.4-2.2-.7-5L297.7 8.5c-3.1-2.8-7.9-5-10.7-5h-44c-2.8 0-2.5 2.2.7 5z"/><path class="st3" d="M290.7 4.8h-45.8c-2.4 0-2.1 1.9.6 4.3l26.3 22.6c-1.8-.9-3.5-2-5-3.3L243.7 8.5c-3.1-2.8-3.5-5-.7-5h44c1.4 0 3.2.6 5.2 1.4-.6-.1-1.1-.1-1.5-.1z"/><path class="st9" d="M276.4 32.1h43.5c2.2 0 2-1.8-.6-4L296.7 8.8c-2.5-2.2-6.4-4-8.6-4h-43.5c-2.2 0-2 1.8.6 4l22.6 19.4c2.5 2.1 6.4 3.9 8.6 3.9z"/><path class="st4" d="M319.9 32.4h-43.5c-2.3 0-6.2-1.8-8.7-4.1L245.1 8.9c-1.6-1.4-2.4-2.8-2.1-3.6.1-.4.5-.8 1.7-.8h43.5c2.3 0 6.2 1.8 8.7 4.1L319.5 28c1.6 1.4 2.4 2.8 2.1 3.6-.2.3-.6.8-1.7.8zM244.7 5c-.5 0-1.1.1-1.2.5-.2.5.2 1.6 1.9 3.1L268 27.9c2.5 2.2 6.2 3.9 8.4 3.9h43.5c.5 0 1.1-.1 1.2-.5.2-.5-.2-1.6-1.9-3.1L296.6 8.9c-2.5-2.2-6.2-3.9-8.4-3.9h-43.5z"/><path class="st5" d="M267.8 28.4c-.1 0-.1 0-.2-.1L245.1 8.9c-1.6-1.4-2.4-2.8-2.1-3.6.1-.4.5-.8 1.7-.8h43.5c.1 0 .3.1.3.3s-.2.2-.3.2h-43.5c-.5 0-1.1.1-1.2.5-.2.5.2 1.6 1.9 3.1L268 27.9c.1.1.1.2 0 .4 0 .1-.1.1-.2.1z"/><ellipse transform="rotate(-71.53 283.667 19.388)" class="st6" cx="283.7" cy="19.4" rx="9.7" ry="21.4"/><ellipse transform="rotate(-71.53 283.154 18.588)" class="st7" cx="283.2" cy="18.6" rx="9.7" ry="21.4"/></g></g><g><path class="st10" d="M333.2 37.4l39.1 33.9c.6.6 1.6 1 2.1 1h58c.6 0 .5-.4-.1-1l-39.1-33.9c-.6-.6-1.6-1-2.1-1h-58c-.6 0-.6.4.1 1z"/><path class="st1" d="M432.4 72.6h-58c-.6 0-1.7-.5-2.4-1.1l-39.1-33.9c-.7-.6-.7-1-.6-1.2 0-.1.2-.4.7-.4h58c.6 0 1.7.5 2.4 1.1L432.6 71c.7.6.7 1 .6 1.3-.1 0-.2.3-.8.3zm-99-35.5L372.6 71c.6.5 1.5.9 1.9.9h57.9l-.3-.3L393 37.7c-.6-.5-1.5-.9-1.9-.9h-57.9s.1.1.2.3z"/><path class="st2" d="M344.2 44.4l23.2 19.9c3.1 2.8 7.9 5 10.7 5h44c2.8 0 2.4-2.2-.7-5l-23.2-19.9c-3.1-2.8-7.9-5-10.7-5h-44c-2.8 0-2.5 2.2.7 5z"/><path class="st3" d="M391.2 40.6h-45.8c-2.4 0-2.1 1.9.6 4.3l26.3 22.6c-1.8-.9-3.5-2-5-3.3l-23.2-19.9c-3.1-2.8-3.5-5-.7-5h44c1.4 0 3.2.6 5.2 1.4-.5 0-1-.1-1.4-.1z"/><path class="st9" d="M376.8 68h43.5c2.2 0 2-1.8-.6-4l-22.6-19.4c-2.5-2.2-6.4-4-8.6-4H345c-2.2 0-2 1.8.6 4L368.3 64c2.5 2.2 6.3 4 8.5 4z"/><path class="st4" d="M420.4 68.2h-43.5c-2.3 0-6.2-1.8-8.7-4.1l-22.6-19.4c-1.6-1.4-2.4-2.8-2.1-3.6.1-.4.5-.8 1.7-.8h43.5c2.3 0 6.2 1.8 8.7 4.1L420 63.8c1.6 1.4 2.4 2.8 2.1 3.6-.2.4-.6.8-1.7.8zm-75.3-27.3c-.5 0-1.1.1-1.2.5-.2.5.2 1.6 1.9 3.1l22.6 19.4c2.5 2.2 6.2 3.9 8.4 3.9h43.5c.5 0 1.1-.1 1.2-.5.2-.5-.2-1.6-1.9-3.1L397 44.8c-2.5-2.2-6.2-3.9-8.4-3.9h-43.5z"/><path class="st5" d="M368.3 64.2c-.1 0-.1 0-.2-.1l-22.6-19.4c-1.6-1.4-2.4-2.8-2.1-3.6.1-.4.5-.8 1.7-.8h43.5c.1 0 .3.1.3.3s-.1.3-.3.3h-43.5c-.5 0-1.1.1-1.2.5-.2.5.2 1.6 1.9 3.1l22.6 19.4c.1.1.1.2 0 .4 0-.1 0-.1-.1-.1z"/><ellipse transform="rotate(-71.53 384.136 55.244)" class="st6" cx="384.1" cy="55.2" rx="9.7" ry="21.4"/><ellipse transform="rotate(-71.53 383.623 54.444)" class="st7" cx="383.6" cy="54.4" rx="9.7" ry="21.4"/><g><path class="st10" d="M292.3 1.5l39.1 33.9c.6.6 1.6 1 2.1 1h58c.6 0 .5-.4-.1-1L352.3 1.5c-.6-.6-1.6-1-2.1-1h-58c-.6 0-.6.5.1 1z"/><path class="st1" d="M391.6 36.8h-58c-.6 0-1.7-.5-2.4-1.1L292 1.8c-.7-.6-.7-1-.6-1.2 0-.1.2-.4.7-.4h58c.6 0 1.7.5 2.4 1.1l39.1 33.9c.7.6.7 1 .6 1.3 0 0-.1.3-.6.3zM292.5 1.2l39.1 33.9c.6.5 1.5.9 1.9.9h57.9l-.3-.3L352 1.8c-.6-.5-1.5-.9-1.9-.9h-57.9l.3.3z"/><path class="st2" d="M303.3 8.5l23.2 19.9c3.1 2.8 7.9 5 10.7 5h44c2.8 0 2.4-2.2-.7-5L357.3 8.5c-3.1-2.8-7.9-5-10.7-5h-44c-2.8 0-2.5 2.2.7 5z"/><path class="st3" d="M350.3 4.8h-45.8c-2.4 0-2.1 1.9.6 4.3l26.3 22.6c-1.8-.9-3.5-2-5-3.3L303.3 8.5c-3.1-2.8-3.5-5-.7-5h44c1.4 0 3.2.6 5.2 1.4-.6-.1-1.1-.1-1.5-.1z"/><path class="st9" d="M335.9 32.1h43.5c2.2 0 2-1.8-.6-4L356.3 8.8c-2.5-2.2-6.4-4-8.6-4h-43.5c-2.2 0-2 1.8.6 4l22.6 19.4c2.5 2.1 6.3 3.9 8.5 3.9z"/><path class="st4" d="M379.5 32.4H336c-2.3 0-6.2-1.8-8.7-4.1L304.6 8.9c-1.6-1.4-2.4-2.8-2.1-3.6.1-.4.5-.8 1.7-.8h43.5c2.3 0 6.2 1.8 8.7 4.1L379 28c1.6 1.4 2.4 2.8 2.1 3.6-.1.3-.5.8-1.6.8zM304.2 5c-.5 0-1.1.1-1.2.5-.2.5.2 1.6 1.9 3.1L327.5 28c2.5 2.2 6.2 3.9 8.4 3.9h43.5c.5 0 1.1-.1 1.2-.5.2-.5-.2-1.6-1.9-3.1L356.1 8.9c-2.5-2.2-6.2-3.9-8.4-3.9h-43.5z"/><path class="st5" d="M327.4 28.4c-.1 0-.1 0-.2-.1L304.6 8.9c-1.6-1.4-2.4-2.8-2.1-3.6.1-.4.5-.8 1.7-.8h43.5c.1 0 .3.1.3.3s-.1.2-.3.2h-43.5c-.5 0-1.1.1-1.2.5-.2.5.2 1.6 1.9 3.1L327.5 28c.1.1.1.2 0 .4h-.1z"/><ellipse transform="rotate(-71.53 343.239 19.387)" class="st6" cx="343.2" cy="19.4" rx="9.7" ry="21.4"/><ellipse transform="rotate(-71.53 342.726 18.587)" class="st7" cx="342.7" cy="18.6" rx="9.7" ry="21.4"/></g></g><g><path class="st10" d="M389.9 37.4l40.3 33.9c.6.6 1.6 1 2.2 1h58c.6 0 .5-.4-.2-1l-40.3-33.9c-.6-.6-1.6-1-2.2-1h-58c-.6 0-.5.4.2 1z"/><path class="st1" d="M490.4 72.6h-58c-.6 0-1.7-.5-2.4-1.1l-40.3-33.9c-.7-.6-.7-1-.6-1.3 0-.1.2-.4.7-.4h58c.6 0 1.7.5 2.4 1.1l40.3 34c.7.6.7 1 .6 1.3 0 0-.2.3-.7.3zM390.1 37.1L430.5 71c.6.5 1.5.9 1.9.9h57.9l-.3-.3-40.3-33.9c-.6-.5-1.5-.9-1.9-.9h-57.9c-.1 0 0 .1.2.3z"/><path class="st2" d="M401.1 44.4L425 64.2c3.2 2.8 8.1 5 10.9 5h44c2.8 0 2.4-2.2-.9-5l-23.9-19.9c-3.2-2.8-8.1-5-10.9-5h-44c-2.7.1-2.3 2.3.9 5.1z"/><path class="st3" d="M448 40.6h-45.8c-2.4 0-2 1.9.8 4.3l27.1 22.6c-1.8-.9-3.6-2-5.1-3.3l-23.9-19.9c-3.2-2.8-3.6-5-.9-5h44c1.4 0 3.3.6 5.2 1.4-.5 0-1-.1-1.4-.1z"/><path class="st9" d="M434.6 68h43.5c2.2 0 1.9-1.8-.7-4l-23.3-19.4c-2.6-2.2-6.5-4-8.7-4h-43.5c-2.2 0-1.9 1.8.7 4L425.9 64c2.6 2.2 6.5 4 8.7 4z"/><path class="st4" d="M478.2 68.2h-43.5c-2.3 0-6.2-1.8-8.9-4.1l-23.3-19.4c-1.7-1.5-2.5-2.8-2.2-3.6.1-.4.5-.8 1.7-.8h43.5c2.3 0 6.2 1.8 8.9 4.1l23.3 19.4c1.7 1.5 2.5 2.8 2.2 3.6-.2.4-.6.8-1.7.8zm-76.3-27.3c-.5 0-1 .1-1.2.5-.2.5.3 1.6 2.1 3.1l23.3 19.4c2.6 2.2 6.4 3.9 8.5 3.9h43.5c.5 0 1-.1 1.2-.5.2-.5-.3-1.6-2.1-3.1L454 44.8c-2.6-2.2-6.4-3.9-8.5-3.9h-43.6z"/><path class="st5" d="M425.9 64.2c-.1 0-.1 0-.2-.1l-23.3-19.4c-1.7-1.5-2.5-2.8-2.2-3.6.1-.4.5-.8 1.7-.8h43.5c.1 0 .3.1.3.3s-.1.3-.3.3h-43.5c-.5 0-1 .1-1.2.5-.2.5.3 1.6 2.1 3.1l23.3 19.4c.1.1.1.2 0 .4 0-.1-.1-.1-.2-.1z"/><ellipse transform="rotate(-71.324 441.485 55.254)" class="st6" cx="441.5" cy="55.2" rx="9.6" ry="21.6"/><ellipse transform="rotate(-71.324 440.944 54.454)" class="st7" cx="440.9" cy="54.4" rx="9.6" ry="21.6"/><g><path class="st10" d="M347.7 1.5L388 35.4c.6.6 1.6 1 2.2 1h58c.6 0 .5-.4-.2-1L407.7 1.5c-.6-.6-1.6-1-2.2-1h-58c-.5 0-.5.5.2 1z"/><path class="st1" d="M448.2 36.8h-58c-.6 0-1.7-.5-2.4-1.1L347.4 1.8c-.7-.6-.7-1-.6-1.3 0-.1.2-.4.7-.4h58c.6 0 1.7.5 2.4 1.1l40.3 33.9c.7.6.7 1 .6 1.3.1.1-.1.4-.6.4zM347.9 1.2l40.3 33.9c.6.5 1.5.9 1.9.9H448l-.3-.3-40.3-33.9c-.6-.5-1.5-.9-1.9-.9h-57.9l.3.3z"/><path class="st2" d="M358.9 8.5l23.9 19.9c3.2 2.8 8.1 5 10.9 5h44c2.8 0 2.4-2.2-.9-5L412.9 8.5c-3.2-2.8-8.1-5-10.9-5h-44c-2.7 0-2.3 2.2.9 5z"/><path class="st3" d="M405.8 4.8H360c-2.4 0-2 1.9.8 4.3l27.1 22.6c-1.8-.9-3.6-2-5.1-3.3L358.9 8.5c-3.2-2.8-3.6-5-.9-5h44c1.4 0 3.3.6 5.2 1.4-.5-.1-1-.1-1.4-.1z"/><path class="st9" d="M392.5 32.1H436c2.2 0 1.9-1.8-.7-4L412 8.8c-2.6-2.2-6.5-4-8.7-4h-43.5c-2.2 0-1.9 1.8.7 4l23.3 19.4c2.6 2.1 6.4 3.9 8.7 3.9z"/><path class="st4" d="M436 32.4h-43.5c-2.3 0-6.2-1.8-8.9-4.1L360.3 9c-1.7-1.5-2.5-2.8-2.2-3.6.1-.4.5-.8 1.7-.8h43.5c2.3 0 6.2 1.8 8.9 4.1l23.3 19.4c1.7 1.5 2.5 2.8 2.2 3.6-.2.3-.6.7-1.7.7zM359.8 5c-.5 0-1 .1-1.2.5-.2.5.3 1.6 2.1 3.1L384 28c2.6 2.2 6.4 3.9 8.5 3.9H436c.5 0 1-.1 1.2-.5.2-.5-.3-1.6-2.1-3.1L411.8 9c-2.6-2.2-6.4-3.9-8.5-3.9h-43.5z"/><path class="st5" d="M383.8 28.4c-.1 0-.1 0-.2-.1L360.3 9c-1.7-1.5-2.5-2.8-2.2-3.6.1-.4.5-.8 1.7-.8h43.5c.1 0 .3.1.3.3s-.2.1-.3.1h-43.5c-.5 0-1 .1-1.2.5-.2.5.3 1.6 2.1 3.1L384 28c.1.1.1.2 0 .4h-.2z"/><ellipse transform="rotate(-71.324 399.305 19.396)" class="st6" cx="399.3" cy="19.4" rx="9.6" ry="21.6"/><ellipse transform="rotate(-71.324 398.764 18.595)" class="st7" cx="398.8" cy="18.6" rx="9.6" ry="21.6"/></g></g><g><path class="st10" d="M449.2 37.4l41.6 33.9c.7.6 1.7 1 2.2 1h58c.6 0 .5-.4-.2-1l-41.6-33.9c-.7-.6-1.7-1-2.2-1h-58c-.5 0-.4.4.2 1z"/><path class="st1" d="M551 72.6h-58c-.6 0-1.7-.5-2.5-1.1L449 37.7c-.6-.5-.8-.9-.7-1.3 0-.1.2-.4.7-.4h58c.6 0 1.7.5 2.5 1.1L551.1 71c.6.5.8.9.7 1.3-.1 0-.3.3-.8.3zM449.5 37.1L491.1 71c.7.5 1.6.9 2 .9H551l-.3-.3L509 37.7c-.7-.5-1.6-.9-2-.9h-57.9c.1 0 .2.1.4.3z"/><path class="st2" d="M460.7 44.4l24.6 19.9c3.3 2.8 8.3 5 11.1 5h44c2.8 0 2.3-2.2-1.1-5l-24.6-19.9c-3.3-2.8-8.3-5-11.1-5h-44c-2.7 0-2.2 2.2 1.1 5z"/><path class="st3" d="M507.5 40.6h-45.8c-2.4 0-2 1.9.9 4.3l27.9 22.6c-1.8-.9-3.7-2-5.2-3.3l-24.6-19.9c-3.3-2.8-3.8-5-1.1-5h44c1.4 0 3.3.6 5.3 1.4-.5 0-1-.1-1.4-.1z"/><path class="st9" d="M495.1 68h43.5c2.2 0 1.8-1.8-.9-4l-24-19.4c-2.7-2.2-6.6-4-8.9-4h-43.5c-2.2 0-1.8 1.8.9 4l24 19.4c2.7 2.2 6.7 4 8.9 4z"/><path class="st4" d="M538.6 68.2h-43.5c-2.3 0-6.3-1.8-9-4.1l-24-19.4c-1.8-1.5-2.6-2.8-2.3-3.7.1-.4.5-.8 1.6-.8h43.5c2.3 0 6.3 1.8 9 4.1l24 19.4c1.8 1.5 2.6 2.8 2.3 3.7-.1.4-.5.8-1.6.8zm-77.2-27.3c-.4 0-1 .1-1.2.5-.2.5.3 1.6 2.2 3.1l24 19.4c2.6 2.2 6.5 3.9 8.7 3.9h43.5c.5 0 1-.1 1.2-.5.2-.5-.3-1.6-2.2-3.1l-24-19.4c-2.6-2.2-6.5-3.9-8.7-3.9h-43.5z"/><path class="st5" d="M486.3 64.2c-.1 0-.1 0-.2-.1l-24-19.4c-1.8-1.5-2.6-2.8-2.3-3.7.1-.4.5-.8 1.6-.8h43.5c.1 0 .3.1.3.3s-.1.3-.3.3h-43.5c-.5 0-1 .1-1.2.5-.2.5.3 1.6 2.2 3.1l24 19.4c.1.1.1.2 0 .4h-.1z"/><ellipse transform="rotate(-71.143 501.49 55.257)" class="st6" cx="501.5" cy="55.2" rx="9.5" ry="21.9"/><ellipse transform="rotate(-71.143 500.92 54.457)" class="st7" cx="500.9" cy="54.4" rx="9.5" ry="21.9"/><g><path class="st10" d="M405.8 1.5l41.6 33.9c.7.6 1.7 1 2.2 1h58c.6 0 .5-.4-.2-1L465.8 1.5c-.7-.6-1.7-1-2.2-1h-58c-.6 0-.5.5.2 1z"/><path class="st1" d="M507.5 36.8h-58c-.6 0-1.7-.5-2.5-1.1L405.5 1.8c-.6-.5-.8-.9-.7-1.3 0-.1.2-.4.7-.4h58c.6 0 1.7.5 2.5 1.1l41.6 33.9c.6.5.8.9.7 1.3-.1.1-.2.4-.8.4zM406 1.2l41.6 33.9c.7.5 1.6.9 2 .9h57.9l-.3-.3-41.7-33.9c-.7-.5-1.6-.9-2-.9h-57.9c.1.1.2.2.4.3z"/><path class="st2" d="M417.3 8.5l24.6 19.9c3.3 2.8 8.3 5 11.1 5h44c2.8 0 2.3-2.2-1.1-5L471.3 8.5c-3.3-2.8-8.3-5-11.1-5h-44c-2.8 0-2.3 2.2 1.1 5z"/><path class="st3" d="M464 4.8h-45.8c-2.4 0-2 1.9.9 4.3L447 31.7c-1.8-.9-3.7-2-5.2-3.3L417.3 8.5c-3.3-2.8-3.8-5-1.1-5h44c1.4 0 3.3.6 5.3 1.4-.6-.1-1.1-.1-1.5-.1z"/><path class="st9" d="M451.6 32.1h43.5c2.2 0 1.8-1.8-.9-4l-24-19.4c-2.7-2.2-6.6-4-8.9-4h-43.5c-2.2 0-1.8 1.8.9 4l24 19.4c2.8 2.2 6.7 4 8.9 4z"/><path class="st4" d="M495.2 32.4h-43.5c-2.3 0-6.3-1.8-9-4.1L418.6 9c-1.8-1.5-2.6-2.8-2.3-3.7.1-.4.5-.8 1.6-.8h43.5c2.3 0 6.3 1.8 9 4.1l24 19.4c1.8 1.5 2.6 2.8 2.3 3.7-.1.3-.4.7-1.5.7zM417.9 5c-.5 0-1 .1-1.2.5-.2.5.3 1.6 2.2 3.1l24 19.4c2.6 2.2 6.5 3.9 8.7 3.9h43.5c.4 0 1-.1 1.2-.5.2-.5-.3-1.6-2.2-3.1L470.2 9c-2.6-2.2-6.5-3.9-8.7-3.9h-43.6z"/><path class="st5" d="M442.8 28.4c-.1 0-.1 0-.2-.1L418.6 9c-1.8-1.5-2.6-2.8-2.3-3.7.1-.4.5-.8 1.6-.8h43.5c.1 0 .3.1.3.3s-.1.2-.2.2H418c-.5 0-1 .1-1.2.5-.2.5.3 1.6 2.2 3.1L443 28c.1.1.1.2 0 .4h-.2z"/><ellipse transform="rotate(-71.143 458.012 19.4)" class="st6" cx="458" cy="19.4" rx="9.5" ry="21.9"/><ellipse transform="rotate(-71.143 457.442 18.6)" class="st7" cx="457.4" cy="18.6" rx="9.5" ry="21.9"/></g></g><g><path class="st10" d="M508.6 37.4l42.8 33.9c.7.6 1.7 1 2.2 1h58c.6 0 .4-.4-.2-1l-42.8-33.9c-.7-.6-1.7-1-2.2-1h-58c-.6 0-.5.4.2 1z"/><path class="st1" d="M611.7 72.6h-58c-.6 0-1.7-.5-2.5-1.1l-42.8-33.9c-.6-.5-.8-.9-.7-1.3 0-.1.2-.4.7-.4h58c.6 0 1.7.5 2.5 1.1l42.7 34c.6.5.8.9.7 1.3 0 0-.1.3-.6.3zM508.8 37.1L551.6 71c.7.5 1.6.9 2 .9h57.9c-.1-.1-.2-.2-.4-.3l-42.8-33.9c-.7-.5-1.6-.9-2-.9h-57.9c.1 0 .3.1.4.3z"/><path class="st2" d="M520.3 44.4l25.3 19.9c3.4 2.8 8.5 5 11.2 5h44c2.8 0 2.2-2.2-1.2-5l-25.3-19.9c-3.4-2.8-8.5-5-11.2-5h-44c-2.8 0-2.2 2.2 1.2 5z"/><path class="st3" d="M566.9 40.6h-45.8c-2.4 0-1.9 1.9 1.1 4.3L551 67.5c-1.9-.9-3.8-2-5.3-3.3l-25.3-19.9c-3.4-2.8-4-5-1.2-5h44c1.4 0 3.3.6 5.3 1.4-.6 0-1.1-.1-1.6-.1z"/><path class="st9" d="M555.6 68h43.5c2.2 0 1.8-1.8-1-4l-24.7-19.4c-2.8-2.2-6.8-4-9-4h-43.5c-2.2 0-1.8 1.8 1 4L546.6 64c2.8 2.2 6.8 4 9 4z"/><path class="st4" d="M599.1 68.2h-43.5c-2.3 0-6.4-1.8-9.2-4.1l-24.7-19.4c-1.9-1.5-2.7-2.8-2.4-3.7.1-.4.5-.8 1.6-.8h43.5c2.3 0 6.4 1.8 9.2 4.1l24.7 19.4c1.9 1.5 2.7 2.8 2.4 3.7-.1.4-.5.8-1.6.8zm-78.2-27.3c-.4 0-1 .1-1.1.4-.2.5.3 1.6 2.3 3.1l24.7 19.4c2.7 2.2 6.7 3.9 8.8 3.9h43.5c.4 0 1-.1 1.1-.4.2-.5-.3-1.6-2.3-3.1l-24.7-19.4c-2.7-2.2-6.7-3.9-8.8-3.9h-43.5z"/><path class="st5" d="M546.6 64.2c-.1 0-.1 0-.2-.1l-24.7-19.4c-1.9-1.5-2.7-2.8-2.4-3.7.1-.4.5-.8 1.6-.8h43.5c.1 0 .3.1.3.3s-.1.3-.3.3h-43.5c-.4 0-1 .1-1.1.4-.2.5.3 1.6 2.3 3.1l24.7 19.4c.1.1.1.2 0 .4-.1.1-.1.1-.2.1z"/><ellipse transform="rotate(-70.985 561.495 55.259)" class="st6" cx="561.5" cy="55.2" rx="9.4" ry="22.1"/><ellipse transform="rotate(-70.985 560.896 54.459)" class="st7" cx="560.9" cy="54.4" rx="9.4" ry="22.1"/><g><path class="st10" d="M463.8 1.5l42.8 33.9c.7.6 1.7 1 2.2 1h58c.6 0 .4-.4-.2-1L523.8 1.5c-.7-.6-1.7-1-2.2-1h-58c-.6 0-.5.5.2 1z"/><path class="st1" d="M566.9 36.8h-58c-.6 0-1.7-.5-2.5-1.1L463.6 1.8c-.6-.5-.8-.9-.7-1.3 0-.1.2-.4.7-.4h58c.6 0 1.7.5 2.5 1.1l42.8 33.9c.6.5.8.9.7 1.3-.1.1-.2.4-.7.4zM464 1.2l42.8 33.9c.7.5 1.6.9 2 .9h57.9c-.1-.1-.2-.2-.4-.3L523.6 1.8c-.7-.5-1.6-.9-2-.9h-57.9c0 .1.2.2.3.3z"/><path class="st2" d="M475.5 8.5l25.3 19.9c3.4 2.8 8.5 5 11.2 5h44c2.8 0 2.2-2.2-1.2-5L529.5 8.5c-3.4-2.8-8.5-5-11.2-5h-44c-2.8 0-2.2 2.2 1.2 5z"/><path class="st3" d="M522.1 4.8h-45.8c-2.4 0-1.9 1.9 1.1 4.3l28.7 22.6c-1.9-.9-3.8-2-5.3-3.3L475.5 8.5c-3.4-2.8-4-5-1.2-5h44c1.4 0 3.3.6 5.3 1.4-.5-.1-1-.1-1.5-.1z"/><path class="st9" d="M510.8 32.1h43.5c2.2 0 1.8-1.8-1-4L528.6 8.8c-2.8-2.2-6.8-4-9-4h-43.5c-2.2 0-1.8 1.8 1 4l24.7 19.4c2.8 2.1 6.8 3.9 9 3.9z"/><path class="st4" d="M554.3 32.4h-43.5c-2.3 0-6.4-1.8-9.2-4.1L476.9 9c-1.9-1.5-2.7-2.8-2.4-3.7.1-.4.5-.8 1.6-.8h43.5c2.3 0 6.4 1.8 9.2 4.1L553.5 28c1.9 1.5 2.7 2.8 2.4 3.7-.1.3-.5.7-1.6.7zM476.1 5c-.4 0-1 .1-1.1.4-.2.5.3 1.6 2.3 3.1L502 27.9c2.7 2.2 6.7 3.9 8.8 3.9h43.5c.4 0 1-.1 1.1-.4.2-.5-.3-1.6-2.3-3.1L528.4 9c-2.7-2.2-6.7-3.9-8.8-3.9h-43.5z"/><path class="st5" d="M501.8 28.4c-.1 0-.1 0-.2-.1L476.9 9c-1.9-1.5-2.7-2.8-2.4-3.7.1-.4.5-.8 1.6-.8h43.5c.1 0 .3.1.3.3s-.2.2-.3.2h-43.5c-.4 0-1 .1-1.1.4-.2.5.3 1.6 2.3 3.1L502 27.9c.1.1.1.2 0 .4-.1.1-.1.1-.2.1z"/><ellipse transform="rotate(-70.985 516.699 19.4)" class="st6" cx="516.7" cy="19.4" rx="9.4" ry="22.1"/><ellipse transform="rotate(-70.985 516.1 18.6)" class="st7" cx="516.1" cy="18.6" rx="9.4" ry="22.1"/></g></g><g><path class="st10" d="M567.9 37.4l43.5 33.9c.7.6 1.7 1 2.3 1h58c.6 0 .4-.4-.3-1l-43.5-33.9c-.7-.6-1.7-1-2.3-1h-58c-.5 0-.4.4.3 1z"/><path class="st1" d="M671.6 72.6h-58c-.6 0-1.7-.5-2.5-1.1l-43.5-33.9c-.6-.5-.9-.9-.7-1.3 0-.1.2-.4.7-.4h58c.6 0 1.7.5 2.5 1.1l43.5 34c.6.5.9.9.7 1.3 0 0-.2.3-.7.3zM568.1 37.1L611.6 71c.7.5 1.6.9 2 .9h57.9c-.1-.1-.2-.2-.4-.3l-43.5-33.9c-.7-.5-1.6-.9-2-.9h-57.9c.1 0 .2.1.4.3z"/><path class="st2" d="M579.8 44.4l25.7 19.9c3.5 2.8 8.6 5 11.3 5h44c2.8 0 2.2-2.2-1.3-5l-25.7-19.9c-3.5-2.8-8.6-5-11.3-5h-44c-2.8 0-2.2 2.2 1.3 5z"/><path class="st3" d="M626.3 40.6h-45.8c-2.4 0-1.9 1.9 1.2 4.3l29.1 22.6c-1.9-.9-3.8-2-5.4-3.3l-25.7-19.9c-3.5-2.8-4.1-5-1.3-5h44c1.4 0 3.3.6 5.3 1.4-.5 0-1-.1-1.4-.1z"/><path class="st9" d="M615.5 68H659c2.2 0 1.7-1.8-1.1-4l-25.1-19.4c-2.8-2.2-6.9-4-9.1-4h-43.5c-2.2 0-1.7 1.8 1.1 4L606.4 64c2.8 2.2 6.9 4 9.1 4z"/><path class="st4" d="M659 68.2h-43.5c-2.3 0-6.4-1.8-9.2-4.1l-25.1-19.4c-1.9-1.5-2.8-2.8-2.5-3.7.1-.3.5-.8 1.6-.8h43.5c2.3 0 6.4 1.8 9.2 4.1l25.1 19.4c1.9 1.5 2.8 2.8 2.5 3.7-.2.4-.5.8-1.6.8zm-78.7-27.3c-.4 0-1 .1-1.1.4-.2.5.4 1.6 2.3 3.1l25.1 19.4c2.8 2.2 6.8 3.9 8.9 3.9H659c.4 0 1-.1 1.1-.4.2-.5-.4-1.6-2.3-3.1l-25.1-19.4c-2.8-2.2-6.8-3.9-8.9-3.9h-43.5z"/><path class="st5" d="M606.4 64.2c-.1 0-.1 0-.2-.1l-25.1-19.4c-1.9-1.5-2.8-2.8-2.5-3.7.1-.3.5-.8 1.6-.8h43.5c.1 0 .3.1.3.3s-.1.3-.3.3h-43.5c-.4 0-1 .1-1.1.4-.2.5.4 1.6 2.3 3.1l25.1 19.4c.1.1.1.2 0 .4 0 .1 0 .1-.1.1z"/><ellipse transform="rotate(-70.91 621.133 55.257)" class="st6" cx="621.1" cy="55.2" rx="9.4" ry="22.2"/><ellipse transform="rotate(-70.91 620.519 54.457)" class="st7" cx="620.5" cy="54.4" rx="9.4" ry="22.2"/><g><path class="st10" d="M522.4 1.5l43.5 33.9c.7.6 1.7 1 2.3 1h58c.6 0 .4-.4-.3-1L582.4 1.5c-.7-.6-1.7-1-2.3-1h-58c-.5 0-.4.5.3 1z"/><path class="st1" d="M626.1 36.8h-58c-.6 0-1.7-.5-2.5-1.1L522.2 1.8c-.6-.5-.9-.9-.7-1.3 0-.1.2-.4.7-.4h58c.6 0 1.7.5 2.5 1.1l43.4 33.9c.6.5.9.9.7 1.3 0 .1-.2.4-.7.4zM522.7 1.2l43.5 33.9c.7.5 1.6.9 2 .9H626c-.1-.1-.2-.2-.4-.3L582.2 1.8c-.7-.5-1.6-.9-2-.9h-57.9c.1.1.2.2.4.3z"/><path class="st2" d="M534.3 8.5L560 28.4c3.5 2.8 8.6 5 11.3 5h44c2.8 0 2.2-2.2-1.3-5L588.3 8.5c-3.5-2.8-8.6-5-11.3-5h-44c-2.8 0-2.2 2.2 1.3 5z"/><path class="st3" d="M580.8 4.8H535c-2.4 0-1.9 1.9 1.2 4.3l29.1 22.6c-1.9-.9-3.8-2-5.4-3.3L534.3 8.5c-3.5-2.8-4.1-5-1.3-5h44c1.4 0 3.3.6 5.3 1.4-.5-.1-1-.1-1.5-.1z"/><path class="st9" d="M570 32.1h43.5c2.2 0 1.7-1.8-1.1-4l-25-19.3c-2.8-2.2-6.9-4-9.1-4h-43.5c-2.2 0-1.7 1.8 1.1 4L561 28.2c2.7 2.1 6.8 3.9 9 3.9z"/><path class="st4" d="M613.5 32.4H570c-2.3 0-6.4-1.8-9.2-4.1L535.7 9c-1.9-1.5-2.8-2.8-2.5-3.7.1-.3.5-.8 1.6-.8h43.5c2.3 0 6.4 1.8 9.2 4.1L612.6 28c1.9 1.5 2.8 2.8 2.5 3.7-.1.3-.5.7-1.6.7zM534.8 5c-.4 0-1 .1-1.1.4-.2.5.3 1.6 2.3 3.2L561.1 28c2.8 2.2 6.8 3.9 8.9 3.9h43.5c.4 0 1-.1 1.1-.4.2-.5-.4-1.6-2.3-3.1L587.2 9c-2.8-2.2-6.8-3.9-8.9-3.9h-43.5z"/><path class="st5" d="M560.9 28.4c-.1 0-.1 0-.2-.1L535.7 9c-1.9-1.5-2.8-2.8-2.5-3.7.1-.3.5-.8 1.6-.8h43.5c.1 0 .3.1.3.3s-.2.2-.3.2h-43.5c-.4 0-1 .1-1.1.4-.2.5.3 1.6 2.3 3.2L561.1 28c.1.1.1.2 0 .4h-.2z"/><ellipse transform="rotate(-70.91 575.669 19.4)" class="st6" cx="575.7" cy="19.4" rx="9.4" ry="22.2"/><ellipse transform="rotate(-70.91 575.054 18.6)" class="st7" cx="575" cy="18.6" rx="9.4" ry="22.2"/></g></g><g><path d="M73.1 72.1c37.4 1.2 203.1-.7 285.1-17.9C429.2 39.3 449.4.4 449.4.4H.9l72.2 71.7z" fill="#4271b7"/><path class="st1" d="M97.1 72.8c-10.5 0-18.7-.1-24-.3H73l-.1-.1L0 0h450l-.3.5c-.2.4-21.1 39.2-91.5 54C288 69.3 156.6 72.8 97.1 72.8zm-23.8-1.1c35.6 1.1 202.3-.6 284.8-17.9C423.6 40 446 5.5 448.8.7H1.8l71.5 71z"/></g><g><path class="st12" d="M50.1 229.1c-.6 0-1-.4-1-1V39.8c0-.6.4-1 1-1s1 .4 1 1v188.3c0 .6-.5 1-1 1zM65.7 244.6c-.6 0-1-.4-1-1V55.3c0-.6.4-1 1-1s1 .4 1 1v188.3c0 .5-.4 1-1 1z"/><path class="st12" d="M65.7 75.4c-.3 0-.5-.1-.7-.3L49.4 59.4c-.4-.4-.4-1 0-1.4s1-.4 1.4 0l15.7 15.7c.4.4.4 1 0 1.4-.2.2-.5.3-.8.3zM65.7 113.7c-.3 0-.5-.1-.7-.3L49.4 97.8c-.4-.4-.4-1 0-1.4s1-.4 1.4 0L66.4 112c.4.4.4 1 0 1.4-.1.2-.4.3-.7.3zM65.7 154c-.3 0-.5-.1-.7-.3L49.3 138c-.4-.4-.4-1 0-1.4s1-.4 1.4 0l15.7 15.7c.4.4.4 1 0 1.4-.1.2-.4.3-.7.3zM65.7 192.3c-.3 0-.5-.1-.7-.3l-15.7-15.7c-.4-.4-.4-1 0-1.4s1-.4 1.4 0l15.7 15.7c.4.4.4 1 0 1.4-.1.2-.4.3-.7.3zM65.7 221.7c-.3 0-.5-.1-.7-.3l-15.7-15.7c-.4-.4-.4-1 0-1.4s1-.4 1.4 0L66.4 220c.4.4.4 1 0 1.4-.1.2-.4.3-.7.3z"/></g><path d="M.5.5l72.2 71.7c37.4 1.2 203.1-.7 285.1-17.9C428.8 39.4 449 .5 449 .5H.5zM357 50.4C288.9 64.7 161.9 68.5 97.5 68.5c-9.2 0-17.3-.1-23.1-.2L10.2 4.5h431.2c-8.6 11.1-32.7 35-84.4 45.9z" opacity=".1"/></svg>