<svg version="1.1" id="图层_1" xmlns="http://www.w3.org/2000/svg" x="0" y="0" width="260.8" height="134.2" xml:space="preserve"><style>.st0{fill:#d6d7d7}.st1{fill:#747577}.st4{fill:#adadad}.st6{fill:#c4c4c4}.st7{fill:#eaeaea}.st8{fill:#b2b2b2}</style><switch><g><path class="st0" d="M260.4 65.5c0-24.8-17-54.2-33.4-53.4H27.7L32.9 119h199.2c16.5-.8 28.3-26.9 28.3-53.5z"/><path class="st0" d="M66.9 12.1c16.4-.8 30.9 22.5 32.4 52S88.5 118.2 72.1 119"/><path class="st1" d="M72.1 119.3l-.1-1c7.7-.4 14.8-6.2 19.8-16.4 5.1-10.3 7.5-23.8 6.8-38-1.4-28.7-15.2-51.5-31-51.5h-.8l-.1-1h.8c16.3 0 30.6 23.3 32.1 52.5.7 14.4-1.8 28-6.9 38.5-5.1 10.5-12.4 16.5-20.6 16.9z"/><path class="st0" d="M180.2 12.1c13.7-.7 26 22.7 27.5 52.2 1.4 29.5-8.5 54-22.2 54.7"/><path class="st1" d="M185.4 119.3l-.1-1c6.4-.3 12.2-6.1 16.4-16.2 4.2-10.3 6.1-23.7 5.4-37.9-1.4-28.8-13.2-51.8-26.4-51.8h-.6l-.1-1h.6c13.7 0 26 23.4 27.4 52.7.7 14.4-1.2 28-5.5 38.4-4.1 10.5-10.2 16.5-17.1 16.8z"/><path class="st0" d="M222.1 12.1c13.9-.7 26.3 22.7 27.8 52.2 1.4 29.5-8.7 54-22.6 54.7"/><path class="st1" d="M227.3 119.3l-.1-1c13.6-.7 23.5-24.9 22.1-54.1-.7-14.2-3.9-27.4-9.2-37.2-5.1-9.7-11.6-14.9-18.1-14.5l-.1-1h.6c6.7 0 13.2 5.3 18.4 15.1 5.3 9.9 8.6 23.3 9.3 37.7 1.6 29.5-8.7 54.3-22.9 55z"/><path d="M246.2 111.2c.9-1 1.8-2.2 2.7-3.4H32.4l.2 3.4h213.6z" opacity=".08" fill="#4d4d4d"/><ellipse transform="rotate(-2.795 30.305 65.546) scale(.99999)" class="st0" cx="30.3" cy="65.5" rx="29.8" ry="53.5"/><path d="M197.1 62c0-.7-.1-1.3-.2-1.9H109c0 .7.1 1.3.2 1.9.2 4.8.1 9.4-.4 13.9h87.9c.5-4.4.7-9.1.4-13.9z" fill="#fbb03b"/><path class="st4" d="M193.3 40h-87.9c1.4 4.7 2.5 9.7 3.2 15h87.9c-.6-5.3-1.7-10.4-3.2-15z"/><path d="M102.3 100.4h87.9c2.7-5.5 4.7-12.1 5.9-19.4h-87.9c-1.2 7.3-3.2 13.9-5.9 19.4z" fill="#f7c17f"/><path class="st4" d="M184.1 21.1H96.2c2.9 3.8 5.4 8.5 7.5 13.8h87.9c-2.1-5.3-4.6-10-7.5-13.8z"/><path class="st1" d="M103.4 97.7l-1.2 2.7h87.9l1.2-2.7h-87.9z"/><path class="st1" d="M197.1 62c-.8-16.7-5.8-31.5-13-40.9H182c6.3 10.5 10.6 25 11.3 41.1.7 14.3-1.5 27.6-5.6 38.2h2.4c5.1-10 7.8-23.5 7-38.4z"/><path class="st0" d="M109.4 75.9c-.2 1.7-.4 3.4-.7 5.1h87.9c.3-1.7.5-3.4.7-5.1h-87.9zM197 55h-87.9c.2 1.7.3 3.4.5 5.1h87.9c-.1-1.7-.3-3.4-.5-5.1zm-4.9-20.1h-87.9c.6 1.6 1.2 3.3 1.8 5.1h87.9c-.6-1.8-1.2-3.5-1.8-5.1z"/><path class="st6" d="M216.3 104.1s-1 8.1-10.9 14.4h7s7.8-4 10.4-14.4h-6.5z"/><path class="st1" d="M204.3 118.9l1-.6c9.6-6.2 10.7-14.1 10.7-14.2v-.3h7.2l-.1.4c-2.6 10.4-10.5 14.6-10.6 14.6h-.2l-8 .1zm12.3-14.4c-.3 1.5-1.9 8.1-10 13.7h5.8c.8-.4 7.6-4.5 10-13.7h-5.8z"/><path class="st1" d="M205.4 118.2v1.5l10.7 9.4v-1.5z"/><path class="st4" d="M216.1 127.7l-10.8-9.5h7.2l10.8 9.5z"/><path class="st1" d="M222.9 130.8h-10l3.5 3h10z"/><path class="st7" d="M216.1 103.8h7.2v28.5h-7.2z"/><path class="st1" d="M216.9 104.5v27.8h-.8v-28.5m7.1 0h.8v28.5h-.8z"/><path class="st1" d="M216.8 104.5h6.4v-.7h-7.1"/><path class="st6" d="M64.6 104.3s-1 8.1-10.9 14.4h7s7.8-4 10.4-14.4h-6.5z"/><path class="st1" d="M52.6 119l1-.6c9.6-6.2 10.7-14.1 10.7-14.2v-.3h7.2l-.1.4C68.9 114.7 61 118.9 60.9 119h-8.3zm12.3-14.4c-.3 1.5-1.9 8.1-10 13.7h5.8c.8-.4 7.6-4.5 10-13.7h-5.8z"/><path class="st1" d="M53.8 118.4v1.5l10.7 9.4v-1.5z"/><path class="st4" d="M64.5 127.9l-10.9-9.5h7.2l10.9 9.5z"/><path class="st1" d="M71.3 130.9h-10l3.4 3.1h10z"/><path class="st7" d="M64.4 104h7.2v28.5h-7.2z"/><path class="st1" d="M65.2 104.7v27.8h-.8V104m7.2 0h.8v28.5h-.8z"/><path class="st1" d="M65.2 104.7h6.4v-.7h-7.2"/><path class="st1" d="M74.7 134.2h-10c-.1 0-.2 0-.3-.1L61 131c-.1-.1-.2-.3-.1-.5s.2-.3.4-.3H64v-1.1L53.5 120c-.1-.1-.2-.2-.2-.3v-.5H32.9c-8.1.4-16-4.9-22.2-14.8C4.6 94.5.8 81.1.1 66.8-1.3 37 11 12.2 27.7 11.4h199.2c4.9-.2 10.1 2.1 15 6.9 10.9 10.4 18.9 30.2 18.9 47 0 16.2-4.3 32.1-11.5 42.6l-.1.1c-4.9 7.1-10.8 11-17.1 11.3h-7.7v12.1l2.2 1.9c.1.1.2.3.1.5s-.2.3-.4.3h-10c-.1 0-.2 0-.3-.1l-3.5-3.1c-.1-.1-.2-.3-.1-.5s.2-.3.4-.3h2.7V129l-10.5-9.2c-.1-.1-.2-.2-.2-.3v-.3h-132v12.3l2.2 1.9c.1.1.2.3.1.5 0 .2-.2.3-.4.3zm-9.8-.9h8.6L72 132c-.1-.1-.2-.2-.2-.3v-12.9c0-.2.2-.4.4-.4h133.1c.2 0 .4.2.4.4v.5l10.5 9.2c.1.1.2.2.2.3v1.7c0 .2-.2.4-.4.4h-2l2.5 2.2h8.6l-1.5-1.3c-.1-.1-.2-.2-.2-.3v-12.8c0-.2.2-.4.4-.4h8.1c5.9-.3 11.6-4.1 16.4-11l.4.3-.4-.3c7.1-10.3 11.4-26 11.4-42 0-16.6-7.8-36.1-18.6-46.4-4.8-4.6-9.7-6.8-14.4-6.6H27.4C11.6 13.1-.4 37.5 1 66.7c.7 14.2 4.4 27.4 10.5 37.2 6 9.7 13.6 14.8 21.4 14.4h20.9c.2 0 .4.2.4.4v.7l10.5 9.2c.1.1.2.2.2.3v1.7c0 .2-.2.4-.4.4h-2l2.4 2.3z"/><path class="st1" d="M32.1 118.8c-16.3 0-30.6-23.2-32-52.4C-.6 52 1.9 38.4 7 28c5.2-10.6 12.6-16.6 20.7-17 8.1-.4 16 4.9 22.2 14.8C56 35.7 59.8 49 60.5 63.4c.7 14.4-1.8 28-6.9 38.4-5.2 10.5-12.5 16.5-20.6 16.9-.3.1-.6.1-.9.1zM28.5 11.9h-.8c-7.8.4-14.8 6.2-19.9 16.4C2.7 38.7.3 52.1 1 66.3c1.4 29.2 15.7 52.3 31.9 51.6 7.8-.4 14.8-6.2 19.9-16.4 5.1-10.3 7.5-23.8 6.8-38s-4.4-27.4-10.5-37.2C43.3 17 36 11.9 28.5 11.9z"/><path class="st0" d="M196.9 17.7V4.4h16.5v13.3"/><path class="st1" d="M213.9 17.7h-1V4.9h-15.5v12.8h-1V4h17.5z"/><ellipse class="st8" cx="205.2" cy="4.4" rx="10.2" ry="4"/><path class="st1" d="M205.2 8.9c-6 0-10.7-2-10.7-4.4 0-2.5 4.7-4.4 10.7-4.4s10.7 2 10.7 4.4c-.1 2.4-4.7 4.4-10.7 4.4zm0-7.9c-5.7 0-9.7 1.8-9.7 3.5s4 3.5 9.7 3.5c5.7 0 9.7-1.8 9.7-3.5s-4-3.5-9.7-3.5z"/><path class="st0" d="M47.4 17.7V4.4h16.5v13.3"/><path class="st1" d="M64.4 17.7h-1V4.9H47.9v12.8h-1V4h17.5z"/><ellipse class="st8" cx="55.6" cy="4.4" rx="10.2" ry="4"/><path class="st1" d="M55.6 8.9c-6 0-10.7-2-10.7-4.4C45 2 49.7 0 55.6 0s10.7 2 10.7 4.4c0 2.5-4.7 4.5-10.7 4.5zm0-7.9c-5.7 0-9.7 1.8-9.7 3.5s4 3.5 9.7 3.5 9.7-1.8 9.7-3.5S61.4 1 55.6 1z"/></g></switch></svg>