<?xml version="1.0" encoding="utf-8"?>
<!-- Generator: Adobe Illustrator 22.1.0, SVG Export Plug-In . SVG Version: 6.00 Build 0)  -->
<svg version="1.1" id="图层_1" xmlns="http://www.w3.org/2000/svg" xmlns:xlink="http://www.w3.org/1999/xlink" x="0px" y="0px"
	 width="50px" height="50px" viewBox="0 0 50 50" style="enable-background:new 0 0 50 50;" xml:space="preserve">
<style type="text/css">
	.st0{fill:#F1921C;}
</style>
<path class="st0" d="M25,50C11.2,50,0,38.8,0,25S11.2,0,25,0c7.1,0,13.9,3.1,18.7,8.4c0.4,0.4,0.3,1-0.1,1.4c-0.4,0.4-1,0.3-1.4-0.1
	C37.8,4.8,31.6,2,25,2C12.3,2,2,12.3,2,25c0,12.7,10.3,23,23,23s23-10.3,23-23c0-1.9-0.2-3.8-0.7-5.7c-0.1-0.5,0.2-1.1,0.7-1.2
	c0.5-0.1,1.1,0.2,1.2,0.7c0.5,2,0.8,4.1,0.8,6.2C50,38.8,38.8,50,25,50z"/>
<g>
	<path class="st0" d="M22,34.4c-3.6,0-6.6-2.9-6.6-6.6c0-3.6,2.9-6.6,6.6-6.6c3.6,0,6.6,2.9,6.6,6.6C28.6,31.5,25.7,34.4,22,34.4z
		 M22,23.3c-2.5,0-4.6,2.1-4.6,4.6s2.1,4.6,4.6,4.6s4.6-2.1,4.6-4.6S24.6,23.3,22,23.3z"/>
	<path class="st0" d="M18.1,19.6c-2.4,0-4.3-1.9-4.3-4.3s1.9-4.3,4.3-4.3s4.3,1.9,4.3,4.3S20.5,19.6,18.1,19.6z M18.1,13
		c-1.3,0-2.3,1-2.3,2.3s1,2.3,2.3,2.3s2.3-1,2.3-2.3S19.4,13,18.1,13z"/>
	<path class="st0" d="M11.3,39c-2.4,0-4.3-1.9-4.3-4.3s1.9-4.3,4.3-4.3s4.3,1.9,4.3,4.3S13.7,39,11.3,39z M11.3,32.4
		c-1.3,0-2.3,1-2.3,2.3c0,1.3,1,2.3,2.3,2.3s2.3-1,2.3-2.3C13.6,33.5,12.6,32.4,11.3,32.4z"/>
	<path class="st0" d="M36.7,35.2c-3.4,0-6.2-2.8-6.2-6.2c0-3.4,2.8-6.2,6.2-6.2s6.2,2.8,6.2,6.2C42.9,32.4,40.1,35.2,36.7,35.2z
		 M36.7,24.8c-2.3,0-4.2,1.9-4.2,4.2c0,2.3,1.9,4.2,4.2,4.2s4.2-1.9,4.2-4.2C40.9,26.7,39,24.8,36.7,24.8z"/>
	<path class="st0" d="M20.4,23.5c-0.4,0-0.8-0.3-1-0.7l-1.3-4.1c-0.2-0.5,0.1-1.1,0.7-1.3c0.5-0.2,1.1,0.1,1.3,0.7l1.3,4.1
		c0.2,0.5-0.1,1.1-0.7,1.3C20.6,23.5,20.5,23.5,20.4,23.5z"/>
	<path class="st0" d="M31.6,29.6C31.5,29.6,31.5,29.6,31.6,29.6l-4.1-0.3c-0.6,0-1-0.5-0.9-1.1c0-0.5,0.5-1,1.1-0.9l4,0.3
		c0.6,0,1,0.5,0.9,1.1C32.5,29.2,32.1,29.6,31.6,29.6z"/>
	<path class="st0" d="M14.1,33.9c-0.3,0-0.7-0.2-0.8-0.5c-0.3-0.5-0.2-1.1,0.3-1.4l3.3-2.1c0.5-0.3,1.1-0.2,1.4,0.3
		c0.3,0.5,0.2,1.1-0.3,1.4l-3.3,2.1C14.5,33.9,14.3,33.9,14.1,33.9z"/>
</g>
</svg>
