<?xml version="1.0" encoding="utf-8"?>
<!-- Generator: Adobe Illustrator 22.1.0, SVG Export Plug-In . SVG Version: 6.00 Build 0)  -->
<svg version="1.1" id="图层_1" xmlns="http://www.w3.org/2000/svg" xmlns:xlink="http://www.w3.org/1999/xlink" x="0px" y="0px"
	 width="50px" height="50px" viewBox="0 0 50 50" style="enable-background:new 0 0 50 50;" xml:space="preserve">
<style type="text/css">
	.st0{fill:#F1921C;}
</style>
<path class="st0" d="M25,50C11.2,50,0,38.8,0,25S11.2,0,25,0c7.1,0,13.9,3.1,18.7,8.4c0.4,0.4,0.3,1-0.1,1.4c-0.4,0.4-1,0.3-1.4-0.1
	C37.8,4.8,31.6,2,25,2C12.3,2,2,12.3,2,25c0,12.7,10.3,23,23,23s23-10.3,23-23c0-1.9-0.2-3.8-0.7-5.7c-0.1-0.5,0.2-1.1,0.7-1.2
	c0.5-0.1,1.1,0.2,1.2,0.7c0.5,2,0.8,4.1,0.8,6.2C50,38.8,38.8,50,25,50z"/>
<path class="st0" d="M10.4,27c-0.7,0-1.3,0.6-1.3,1.3s0.6,1.3,1.3,1.3c0.7,0,1.3-0.6,1.3-1.3S11.1,27,10.4,27L10.4,27z M15.3,25
	c-0.6,0-1,0.4-1,1c0,0.5,0.5,1,1,1c0.6,0,1-0.4,1-1C16.4,25.5,15.9,25,15.3,25L15.3,25z M14,13.5c0.7,0,1.3-0.6,1.3-1.3
	c0-0.7-0.6-1.3-1.3-1.3c-0.7,0-1.3,0.6-1.3,1.3C12.7,13,13.3,13.5,14,13.5L14,13.5z M37.3,15.5c0.6,0,1-0.4,1-1c0-0.5-0.5-1-1-1
	c-0.6,0-1,0.4-1,1C36.3,15.1,36.7,15.5,37.3,15.5L37.3,15.5z M29.2,18c1,0,1.8-0.8,1.8-1.7s-0.8-1.7-1.8-1.7c-1,0-1.8,0.8-1.8,1.7
	C27.4,17.2,28.2,18,29.2,18L29.2,18z M21.6,15.5c-0.9,0-1.6,0.7-1.6,1.5c0,0.8,0.7,1.5,1.6,1.5c0.9,0,1.6-0.7,1.6-1.5
	C23.2,16.2,22.5,15.5,21.6,15.5L21.6,15.5z M35.3,29.1c-1.2,0-2.2,0.9-2.2,2.1c0,1.2,1,2.1,2.2,2.1c1.2,0,2.2-0.9,2.2-2.1
	C37.5,30,36.6,29.1,35.3,29.1L35.3,29.1z M26.3,31c-0.6,0-1,0.4-1,1c0,0.5,0.5,1,1,1s1-0.4,1-1C27.4,31.4,26.9,31,26.3,31L26.3,31z
	 M28.4,27.1c0.6,0,1,0.4,1,1c0,0.5-0.5,1-1,1c-0.6,0-1-0.4-1-1C27.4,27.5,27.9,27.1,28.4,27.1L28.4,27.1z M33.3,39
	c-3.6,0-6.2-1.4-6.3-1.5C16.5,31,9.9,37.3,9.6,37.5c-0.4,0.4-1.1,0.4-1.5,0c-0.4-0.4-0.4-1-0.1-1.4c0,0,0,0,0-0.1
	c0.1-0.1,8-7.7,20-0.4c0.2,0.1,5.9,3.3,12.3-1.1c0.2-0.2,0.5-0.2,0.8-0.2c0.3,0,0.5,0.2,0.7,0.4c0.3,0.4,0.2,1.1-0.2,1.4
	C38.6,38.3,35.8,39,33.3,39L33.3,39z M12,19.9h2.7c1.5,0,2.2,0.6,2.2,1.9c0,1.3-0.8,1.9-2.3,1.9h-1.9v2.7H12L12,19.9L12,19.9z
	 M12.7,20.6v2.6h1.9c0.5,0,0.9-0.1,1.2-0.3c0.2-0.2,0.4-0.5,0.4-1c0-0.4-0.1-0.8-0.4-0.9c-0.3-0.2-0.6-0.3-1.2-0.3
	C14.6,20.6,12.7,20.6,12.7,20.6L12.7,20.6z M17.8,19.9v6.5h0.8v-5.2h0l2.3,5.2h0.7l2.3-5.2h0v5.2h0.8v-6.5h-0.9l-2.4,5.6h0l-2.4-5.6
	H17.8z M28.1,19.8c-0.6,0-1.2,0.2-1.6,0.6c-0.4,0.4-0.6,1-0.6,1.7h0.8c0-0.6,0.2-1,0.4-1.3c0.2-0.3,0.6-0.5,1-0.5
	c0.4,0,0.8,0.1,1,0.3c0.2,0.2,0.4,0.5,0.4,0.9c0,0.4-0.2,0.8-0.5,1.2c-0.2,0.2-0.5,0.4-1,0.8c-0.7,0.5-1.2,0.9-1.4,1.2
	c-0.4,0.5-0.7,1-0.7,1.6h4.3v-0.7h-3.4c0.1-0.4,0.6-0.9,1.4-1.5c0.7-0.5,1.1-0.8,1.4-1c0.4-0.5,0.6-1,0.6-1.5c0-0.6-0.2-1-0.6-1.4
	C29.2,20,28.7,19.8,28.1,19.8L28.1,19.8z M31.9,25.4c-0.2,0-0.3,0.1-0.4,0.2c-0.1,0.1-0.2,0.2-0.2,0.4c0,0.2,0.1,0.3,0.2,0.4
	c0.1,0.1,0.2,0.2,0.4,0.2c0.2,0,0.3-0.1,0.4-0.2c0.1-0.1,0.2-0.2,0.2-0.4c0-0.2-0.1-0.3-0.2-0.4C32.2,25.4,32.1,25.3,31.9,25.4
	L31.9,25.4z M34.1,19.9l-0.3,3.6h0.7c0.1-0.3,0.3-0.5,0.6-0.6c0.2-0.1,0.5-0.2,0.8-0.2c0.5,0,0.9,0.1,1.1,0.4
	c0.3,0.3,0.4,0.7,0.4,1.2c0,0.5-0.2,0.8-0.4,1.1c-0.3,0.3-0.7,0.4-1.1,0.4c-0.4,0-0.7-0.1-1-0.3c-0.3-0.2-0.5-0.5-0.5-0.9h-0.7
	c0.1,0.6,0.3,1.1,0.8,1.4c0.4,0.3,0.9,0.5,1.5,0.5c0.6,0,1.2-0.2,1.6-0.6c0.5-0.4,0.7-1,0.7-1.6c0-0.7-0.2-1.3-0.6-1.7
	c-0.4-0.4-0.9-0.6-1.5-0.6c-0.3,0-0.6,0.1-0.8,0.2c-0.3,0.1-0.5,0.3-0.7,0.5h0l0.2-2.2h3.2v-0.7H34.1z M34.1,19.9"/>
</svg>
