<svg version="1.1" id="图层_1" xmlns="http://www.w3.org/2000/svg" x="0" y="0" width="50" height="50" xml:space="preserve"><style>.st0{fill:#f1921c}</style><path class="st0" d="M25 50C11.2 50 0 38.8 0 25S11.2 0 25 0c7.1 0 13.9 3.1 18.7 8.4.4.4.3 1-.1 1.4-.4.4-1 .3-1.4-.1C37.8 4.8 31.6 2 25 2 12.3 2 2 12.3 2 25s10.3 23 23 23 23-10.3 23-23c0-1.9-.2-3.8-.7-5.7-.1-.5.2-1.1.7-1.2.5-.1 1.1.2 1.2.7.5 2 .8 4.1.8 6.2 0 13.8-11.2 25-25 25z"/><path class="st0" d="M12.5 29.6c-.2.9-.4 1.9-.6 2.8-.2-.9-.4-1.8-.6-2.8L8 14.7H6l5 20.5v.1h1.9l5-20.4v-.1H16l-3.5 14.8zm15.6-13.8c-1-.9-2.1-1.4-3.3-1.4-1.8 0-3.3 1-4.5 2.9-1.1 1.9-1.7 4.6-1.7 8 0 1.8.2 3.5.7 5.1.5 1.6 1.2 2.9 2.2 3.8 1 .9 2.1 1.4 3.3 1.4 1.1 0 2.2-.4 3.2-1.3 1-.8 1.7-2.1 2.2-3.7.5-1.6.8-3.5.8-5.6 0-2-.3-3.9-.7-5.5-.5-1.6-1.2-2.8-2.2-3.7zm1 9.2c0 2.6-.4 4.6-1.2 6-.8 1.4-1.8 2.1-3 2.1s-2.2-.7-3-2.1c-.8-1.4-1.2-3.3-1.2-5.7 0-3 .4-5.2 1.3-6.5.8-1.3 1.8-1.9 3-1.9.8 0 1.6.3 2.2 1 .7.7 1.2 1.6 1.5 2.8.2 1.2.4 2.7.4 4.3zm13 2.9v.1c-.2 1.7-.7 3-1.3 3.8-.6.8-1.4 1.3-2.3 1.3-.7 0-1.5-.3-2.1-.9-.7-.6-1.1-1.6-1.4-2.8-.3-1.3-.5-2.8-.5-4.5 0-1.3.1-2.6.4-3.9.3-1.2.7-2.2 1.4-3 .6-.7 1.4-1.1 2.4-1.1.8 0 1.5.3 2 1 .6.7 1 1.7 1.3 3.2v.1l1.8-.7v-.1c-.3-1.9-1-3.4-1.8-4.4-.9-1.1-2-1.6-3.3-1.6-1.1 0-2.2.4-3.2 1.3-.9.8-1.7 2.1-2.2 3.6-.5 1.6-.8 3.5-.8 5.6 0 1.9.2 3.8.7 5.5.5 1.7 1.1 3 2 3.9.9.9 2 1.4 3.4 1.4s2.5-.6 3.4-1.8c.9-1.2 1.6-2.9 1.9-5.1v-.1l-1.8-.8z"/></svg>