<?xml version="1.0" encoding="utf-8"?>
<!-- Generator: Adobe Illustrator 22.1.0, SVG Export Plug-In . SVG Version: 6.00 Build 0)  -->
<svg version="1.1" id="图层_1" xmlns="http://www.w3.org/2000/svg" xmlns:xlink="http://www.w3.org/1999/xlink" x="0px" y="0px"
	 width="50px" height="50px" viewBox="0 0 50 50" style="enable-background:new 0 0 50 50;" xml:space="preserve">
<style type="text/css">
	.st0{fill:#F1921C;}
</style>
<path class="st0" d="M25,50C11.2,50,0,38.8,0,25S11.2,0,25,0c7.1,0,13.9,3.1,18.7,8.4c0.4,0.4,0.3,1-0.1,1.4c-0.4,0.4-1,0.3-1.4-0.1
	C37.8,4.8,31.6,2,25,2C12.3,2,2,12.3,2,25c0,12.7,10.3,23,23,23s23-10.3,23-23c0-1.9-0.2-3.8-0.7-5.7c-0.1-0.5,0.2-1.1,0.7-1.2
	s1.1,0.2,1.2,0.7c0.5,2,0.8,4.1,0.8,6.2C50,38.8,38.8,50,25,50z"/>
<g>
	<path class="st0" d="M25,40.8c-6.6,0-11.9-5.4-11.9-12.1c0-2.2,0.6-4.4,1.7-6.3c0.2-0.5,0.6-1.1,1.2-2c0,0,0,0,0,0
		c0.6-0.9,3.2-4.4,8.2-10.7c0.2-0.2,0.5-0.4,0.8-0.4c0,0,0,0,0,0c0.3,0,0.6,0.1,0.8,0.4c4.7,6.2,7.3,9.6,7.9,10.4
		c0.5,0.7,1,1.5,1.4,2.2c1.2,1.9,1.8,4.1,1.8,6.4C36.9,35.3,31.6,40.8,25,40.8z M17.7,21.5c-0.5,0.8-0.9,1.4-1.1,1.9
		c-1,1.6-1.5,3.5-1.5,5.3c0,5.6,4.4,10.1,9.9,10.1c5.5,0,9.9-4.5,9.9-10.1c0-1.9-0.5-3.8-1.5-5.4c-0.4-0.7-0.9-1.4-1.3-2.1
		c-0.5-0.8-2.9-3.9-7.1-9.3C20.7,17.5,18.2,20.7,17.7,21.5L17.7,21.5z"/>
	<g>
		<path class="st0" d="M22.3,28.3c-1.6,0-2.8-1.3-2.8-2.8c0-1.6,1.3-2.8,2.8-2.8s2.8,1.3,2.8,2.8C25.1,27,23.9,28.3,22.3,28.3z
			 M22.3,24.6c-0.5,0-0.8,0.4-0.8,0.8c0,0.5,0.4,0.8,0.8,0.8s0.8-0.4,0.8-0.8C23.1,25,22.8,24.6,22.3,24.6z"/>
		<path class="st0" d="M27.7,34.7c-1.6,0-2.8-1.3-2.8-2.8c0-1.6,1.3-2.8,2.8-2.8c1.6,0,2.8,1.3,2.8,2.8
			C30.6,33.5,29.3,34.7,27.7,34.7z M27.7,31c-0.5,0-0.8,0.4-0.8,0.8c0,0.5,0.4,0.8,0.8,0.8s0.8-0.4,0.8-0.8
			C28.6,31.4,28.2,31,27.7,31z"/>
		<path class="st0" d="M22,34.9c-0.2,0-0.4,0-0.5-0.1c-0.5-0.3-0.6-0.9-0.3-1.4l6.3-10.3c0.3-0.5,0.9-0.6,1.4-0.3
			c0.5,0.3,0.6,0.9,0.3,1.4l-6.3,10.3C22.6,34.8,22.3,34.9,22,34.9z"/>
	</g>
</g>
</svg>
