<svg version="1.1" id="图层_1" xmlns="http://www.w3.org/2000/svg" x="0" y="0" width="264" height="220" xml:space="preserve"><style>.st0{fill:#eaeaea}.st1{fill:#e5e5e5}.st2{fill:#adadad}.st3{fill:#747577}.st4{fill:#d6d7d7}.st6{fill:#fff}</style><path class="st0" d="M0 0v220h264V0H0z"/><path class="st1" d="M0 164h264v56H0z"/><path class="st2" d="M0 164h264v3H0z"/><path class="st3" d="M0 217h264v3H0z"/><path class="st2" d="M134.8 193.1l50.9-35.4c15.8-13.1 26.2-37.3 26.2-58.5l-78 16.1.9 77.8"/><path class="st3" d="M133 115.3v-.7l78.7-16.3 1-.2v1c0 21.9-10.9 46.2-26.5 59.1L134 194.6l-1-79.3zm1.6.7l.9 75.6 49.7-34.5c15-12.4 25.5-35.7 25.9-56.9L134.6 116z"/><path class="st2" d="M249.6 82.4l-68.4 44.4V44.5L249.6 0z"/><path class="st0" d="M249.6 0h4.2v82.4h-4.2z"/><circle class="st4" cx="89.5" cy="128" r="79.2"/><path class="st3" d="M9.4 128c0-44.1 35.9-80 80-80s80 35.9 80 80-35.9 80-80 80-80-35.8-80-80zm1.6 0c0 43.3 35.2 78.5 78.5 78.5S168 171.3 168 128s-35.2-78.5-78.5-78.5S11 84.8 11 128z"/><path class="st4" d="M73.9 44.4h111.4v82.4H73.9z"/><path class="st3" d="M167.9 125.2h17.4v1.6h-17.4z"/><path fill="#9e9e9e" d="M185.3 79.9h64.3v4.6h-64.3z"/><path class="st0" d="M249.6 82.4l-68.4 44.4h4.1l68.5-44.4z"/><path class="st0" d="M179.7 44.4h5.6v82.4h-5.6z"/><path class="st6" d="M139.9 190.3c18.8-15.9 29.6-38.5 29.6-62 0-1 0-2-.1-3.1l-1.6.1c0 1 .1 2 .1 3 0 23-10.6 45.2-29.1 60.8l1.1 1.2z"/><path fill="none" d="M153.9 179.8l-15.4 10.5"/><path transform="rotate(-34.34 146.177 184.996)" class="st3" d="M136.9 184.2h18.6v1.6h-18.6z"/><path d="M35.2 128c0-29.9 24.4-54.3 54.3-54.3s54.3 24.4 54.3 54.3-24.4 54.3-54.3 54.3S35.2 158 35.2 128zm2.4 0c0 28.6 23.3 51.9 51.9 51.9s51.9-23.3 51.9-51.9-23.3-51.9-51.9-51.9S37.6 99.4 37.6 128z" fill="#62605e"/><circle class="st3" cx="89.5" cy="128" r="53.1"/><path class="st4" d="M88.6 77c-12 22.4-5.4 37.3-5.4 37.3s7.5 16.8 8.9 0 11.8-32.8 11.8-32.8L88.6 77zm-43 25.9c13.3 21.6 29.6 23.3 29.6 23.3s18.4 1.9 4.5-7.7-22.5-26.6-22.5-26.6l-11.6 11zm1 50.3c25.4-.8 35-14 35-14s10.8-14.8-4.5-7.7-34.3 6.1-34.3 6.1l3.8 15.6zm43.8 24.2c12-22.4 5.4-37.3 5.4-37.3s-7.5-16.8-8.9 0-11.8 32.8-11.8 32.8l15.3 4.5zm43.1-25.9c-13.3-21.6-29.6-23.3-29.6-23.3s-18.4-1.9-4.5 7.7 22.5 26.6 22.5 26.6l11.6-11zm-1-50.2c-25.4.8-35 14-35 14s-10.8 14.8 4.5 7.7c15.3-7.1 34.3-6.1 34.3-6.1l-3.8-15.6z"/><path class="st4" d="M89.5 115.2c-6.6 0-12 5.4-12 12s5.4 12 12 12 12-5.4 12-12-5.4-12-12-12zm-.1 17.1c-2.8 0-5.1-2.3-5.1-5.1s2.3-5.1 5.1-5.1 5.1 2.3 5.1 5.1-2.3 5.1-5.1 5.1z"/><path class="st6" d="M90.6 177.6L74.9 173l.1-.2c.1-.2 10.4-16.1 11.8-32.7 0-.4.1-.7.1-1-1.4-.3-2.8-.9-4-1.7-.7 1.1-1.2 1.8-1.2 1.8-.1.2-10 13.3-35.2 14.1h-.1v-.1l-3.8-15.8h.2c.2 0 19.1.9 34.2-6.1l.6-.3c.1 0 .2-.1.3-.1-.4-1.3-.6-2.5-.6-3.7v-.7c-1.2 0-2.1-.1-2.1-.1-.2 0-16.5-2-29.8-23.4l-.1-.1.1-.1 11.8-11.2.1.2c.1.2 8.8 17.1 22.4 26.6.3.2.5.4.8.6 1-1.1 2.2-1.9 3.5-2.6-.6-1.1-1-2-1-2-.1-.2-6.5-15.3 5.4-37.5l.1-.1h.1l15.6 4.6-.1.2c-.1.2-10.4 16.1-11.9 32.8 0 .3-.1.7-.1 1 1.4.3 2.8.9 4 1.7.6-1.1 1.2-1.9 1.2-1.9.1-.2 10-13.3 35.2-14.1h.1v.1l3.8 15.8h-.2c-.2 0-19.1-.9-34.2 6.1-.3.2-.5.3-.8.4 0 0-.1.1-.2.1.4 1.3.6 2.5.6 3.6v.7c1.3 0 2.3.1 2.3.1.1 0 16.5 2 29.7 23.5l.1.1-.1.1-11.8 11.2-.1-.2c-.1-.2-8.8-17.1-22.4-26.6-.3-.3-.6-.5-.9-.7-1 1-2.1 1.9-3.4 2.6.6 1.1 1 2 1 2 .1.2 6.5 15.3-5.4 37.5v.1zm-15.1-4.7l15 4.5c11.7-22 5.4-37 5.3-37.1 0 0-.4-1-1.1-2.2l-.1-.1.1-.1c1.4-.6 2.6-1.6 3.6-2.7l.1-.1.1.1c.3.2.6.4 1 .7 12.9 9 21.4 24.6 22.4 26.5l11.4-10.8c-13.2-21.2-29.3-23.2-29.5-23.2 0 0-1.1-.1-2.5-.1h-.2v-1.1c0-1.2-.2-2.4-.6-3.7v-.1l.1-.1c.2 0 .3-.1.4-.1.2-.2.5-.3.8-.4 14.3-6.7 32.1-6.3 34.2-6.2l-3.6-15.2c-25 .8-34.7 13.8-34.8 13.9 0 0-.6.9-1.3 2l-.1.1-.1-.1c-1.3-.9-2.7-1.5-4.2-1.8h-.1v-.1c0-.4.1-.8.1-1.2 1.3-15.7 10.6-30.9 11.7-32.7l-15-4.5c-11.7 22-5.4 37-5.3 37.1 0 0 .4.9 1 2.1l.1.1-.2.1c-1.4.6-2.7 1.6-3.7 2.7l-.1.1-.1-.1-.9-.6C66.5 109.5 58 93.9 57 92l-11.4 10.8C58.8 124.1 74.9 126 75.1 126c0 0 1 .1 2.3.1h.2v1.1c0 1.1.3 2.4.7 3.7v.1l-.1.1c-.1.1-.3.1-.4.2l-.6.3c-14.3 6.7-32.1 6.3-34.2 6.2l3.6 15.2c25-.8 34.7-13.8 34.8-13.9 0 0 .6-.8 1.3-1.9l.1-.1.1.1c1.3.8 2.7 1.4 4.2 1.7h.1v.1c0 .4-.1.7-.1 1.1-1.4 15.7-10.6 30.9-11.6 32.8zm13.9-40.4c-2.9 0-5.3-2.4-5.3-5.3s2.4-5.3 5.3-5.3 5.3 2.4 5.3 5.3-2.4 5.3-5.3 5.3zm0-10.3c-2.8 0-5 2.3-5 5 0 2.8 2.3 5 5 5 2.8 0 5-2.3 5-5s-2.2-5-5-5z"/><path d="M35.6 128c0-29.7 24.2-53.9 53.9-53.9s53.9 24.2 53.9 53.9-24.2 53.9-53.9 53.9-53.9-24.2-53.9-53.9zm1.6 0c0 28.8 23.5 52.3 52.3 52.3s52.3-23.5 52.3-52.3-23.5-52.3-52.3-52.3S37.2 99.2 37.2 128z" fill="#666768"/><path class="st3" d="M72.3 44.4h1.6V51h-1.6z"/><g><path class="st3" d="M179.7 127.6h5.6c.2 0 .3 0 .4-.1L254.2 83c.2-.1.4-.4.4-.7V53.6c0-.4-.4-.8-.8-.8s-.8.4-.8.8v28.3L185.1 126h-4.6V53.6c0-.4-.4-.8-.8-.8s-.8.4-.8.8v73.2c0 .5.4.8.8.8z"/></g><g><path class="st1" d="M0 0h264v56H0z"/><path class="st2" d="M0 0h264v3H0z"/><path class="st3" d="M0 53h264v3H0z"/></g></svg>