<svg version="1.1" id="图层_1" xmlns="http://www.w3.org/2000/svg" xmlns:xlink="http://www.w3.org/1999/xlink" x="0" y="0" width="220" height="433" xml:space="preserve"><style>.st0{fill:#e5e5e5}.st1{fill:#eaeaea}.st3{fill:#747577}.st4{fill:#adadad}</style><path class="st0" d="M54 433v-31l14.1-118.5.1-92.2-14.6-128V0H3v32.1l43.4 136.8-1.4 97.5L3 370.6V433z"/><path class="st1" d="M167 0v30.7l-24.2 115.4v139.8l24.2 80.2V433H51v-30.7l17.1-119.8.1-90.7L52.6 63.2V0z"/><path class="st0" d="M218.6 0v62.3l-60.8 107.4v92.9L218.6 401v32h-54v-67.2l-22.8-80.2v-139l22.7-115.4.1-31.2z"/><path d="M102.1 199.1c-33 0-58.8-12.9-58.8-29.4h3c0 14.1 25.5 26.1 55.7 26.1 30.2 0 55.7-12 55.7-26.1h3c.1 16.5-25.7 29.4-58.6 29.4z" fill="#666"/><path class="st3" d="M220 433h-3v-32l-60.8-138.4v-93.3l.3-.4L217 62.3V0h3v63.2l-.2.4-60.5 106.6v91.6L220 400.3z"/><path class="st4" d="M3 433H0l.1-63.4 43.2-107.7V170L0 32.6V0h3v32.1l43.3 137.4-.1 93.4L3 370.6zm164 0h-3v-66.9l-22.8-80.2V146.1l23-115.2V0h3v31l-23 115.7v139l22.8 80.1z"/><path d="M44.8 171.5v87.7c0 15.4 25.6 27.9 57.3 27.9s57.3-12.5 57.3-27.9v-87.7H44.8z" fill="#d6d7d7"/><defs><path id="SVGID_1_" d="M44.5 171.5v87.7c0 15.4 25.6 27.9 57.3 27.9s57.3-12.5 57.3-27.9v-87.7H44.5z"/></defs><clipPath id="SVGID_2_"><use xlink:href="#SVGID_1_" overflow="visible"/></clipPath><path class="st4" d="M102.1 288.8c-33 0-58.8-13-58.8-29.7v-89.4h117.5v89.4c0 16.7-25.8 29.7-58.7 29.7zM46.3 173.2v85.9c0 14.2 25.5 26.2 55.7 26.2s55.7-12 55.7-26.2v-85.9H46.3z"/><ellipse class="st4" cx="102.1" cy="169.7" rx="57.3" ry="24.5"/><path d="M102.1 192.7c30.2 0 55.7-10.5 55.7-22.9 0-12.4-25.5-22.9-55.7-22.9-13.1 0-25.3 2-34.9 5.2v35.4c9.6 3.2 21.8 5.2 34.9 5.2z" fill="none"/><path class="st3" d="M102.1 143.6c-13.2 0-25.7 2-35.4 5.2l.2 3.6c9.6-3.2 22.2-5.5 35.3-5.5 30.2 0 55.7 10.5 55.7 22.9 0 12.4-25.5 22.9-55.7 22.9-13.1 0-25.3-2-34.9-5.2v3.5c9.7 3.1 21.7 5 34.9 5 33 0 58.8-11.5 58.8-26.2-.2-14.7-26-26.2-58.9-26.2z"/><path class="st0" d="M46.3 169.7c0 7.8 10.9 15.1 23.6 18.6l-3.1-36c-11.7 4.1-20.5 9.9-20.5 17.4z"/><path class="st4" d="M46.7 169.7l-1.9-5.8c-.9 1.9-1.4 3.8-1.4 5.8 0 3.1 1.2 6 3.3 8.7 4.3 5.4 12.5 10.1 23.3 13.3v-3.6c-14.2-4.3-23.3-11-23.3-18.4z"/><path class="st0" d="M66.8 152.3l-.2-3.6c-12.9 4.5-18.6 8.5-21.9 15.2l1.9 5.8c.1-7.3 6.4-12.3 20.2-17.4z"/><path class="st3" d="M142.5 204.3V257c-12.2 5.3-27.8 8.5-44.9 8.5-10.9 0-19.5-1.3-27.6-3.6v-52.7c8.1 2.3 16.7 3.6 27.6 3.6 17.1 0 32.7-3.1 44.9-8.5z"/><path class="st1" d="M109.6 242.1s3 15-8.3 21.5c-5.5 3.1-14.9-8.1-14.4-15.3.3-3.5 6.9 7.4 17.4-8.3 1.3-2.1 5.3 2.1 5.3 2.1z"/><path class="st1" d="M110.6 239.5s14.9 1.7 17.4 14.7c1.2 6.3-12.2 12-18.7 9.3-3.2-1.3 9-4.5-2.4-19.4-1.4-2 3.7-4.6 3.7-4.6z"/><path class="st1" d="M108.5 237.7s6.2-13.9 19.1-12.4c6.2.8 7.4 15.5 2.9 21-2.2 2.7-1.4-10.1-18.8-3.7-2.4.9-3.2-4.9-3.2-4.9z"/><path class="st1" d="M106.2 239.2s-11.1-10.4-5.6-22.4c2.6-5.8 16.7-2.4 20.4 3.7 1.8 3-9.9-1.8-9.3 17.2.1 2.5-5.5 1.5-5.5 1.5z"/><path class="st1" d="M106.9 241.9s-13.1 7.5-22.6-1.5c-4.6-4.3 3-17 9.8-18.7 3.4-.8-4.7 9 13.1 14.3 2.3.8-.3 5.9-.3 5.9z"/><path d="M113.2 264.3c-1.4 0-2.8-.2-4-.7-.4-.2-.6-.3-.6-.6-.1-.4.3-.9.8-1.6 1.4-1.9 4.1-5.4.5-12.4-.4 4.8-2.3 11-8.7 14.6-1.7 1-3.8.7-6.1-.8-4.3-2.7-8.9-9.5-8.5-14.6 0-.4.1-.7.4-.8.4-.2 1 0 1.8.3 2.2.8 6.3 2.3 11.6-3.3-4.6 1-11 1.1-16.3-3.9-1.5-1.4-1.8-3.6-1.1-6.5 1.3-4.9 6.1-11.3 10.9-12.5.4-.1.7-.1.8.1.3.3.3.9.3 1.8-.1 2.4-.2 6.8 6.7 10.3-2.4-4.1-4.5-10.3-1.4-17 .8-1.8 2.8-2.9 5.6-3 5-.3 12.4 2.4 15.1 6.7.2.3.3.6.2.9-.2.4-.8.6-1.6.8-2.2.7-6.4 1.9-7.5 9.6 3.1-3.6 8.2-7.5 15.4-6.6 1.9.2 3.5 1.7 4.5 4.4 1.9 4.8 1.6 13-1.6 16.9-.3.3-.5.5-.7.4-.4 0-.8-.5-1.3-1.3-1.3-2-3.7-5.6-11.3-4.3 4.3 1.9 9.5 5.7 10.9 12.9.4 2-.7 4.1-2.9 6-2.8 2.4-7.7 4.2-11.9 4.2zm-3.5-16.3l.3.5c4 7.5 1.2 11.2-.3 13.2-.5.6-.8 1.1-.7 1.4 0 .1.2.3.5.4 4.4 1.9 11.8-.3 15.6-3.4 2.2-1.8 3.2-3.8 2.8-5.6-1.4-7.4-6.9-11.1-11.2-12.9l-.5-.2.5-.1c8.2-1.6 10.7 2.3 12.1 4.4.4.6.8 1.1 1 1.1.1 0 .3-.1.5-.3 3.1-3.8 3.4-11.9 1.5-16.6-.7-1.7-2-3.9-4.3-4.2-7.3-.9-12.4 3.3-15.5 6.9l-.3.4.1-.5c1.1-8.4 5.5-9.7 7.8-10.4.7-.2 1.3-.4 1.4-.7.1-.1 0-.3-.2-.6-2.6-4.2-9.9-6.9-14.8-6.6-1.9.1-4.4.7-5.4 2.9-3.1 6.8-.8 13.1 1.7 17.2l.3.5-.5-.2c-7.6-3.6-7.4-8.3-7.3-10.9 0-.8 0-1.4-.2-1.5-.1-.1-.3-.1-.6 0-4.7 1.2-9.4 7.4-10.7 12.2-.5 1.9-.7 4.5 1 6.2 5.4 5.1 11.9 4.8 16.5 3.7l.5-.1-.4.4c-5.7 6.2-10 4.6-12.3 3.7-.7-.3-1.3-.5-1.5-.3-.1.1-.2.3-.2.6-.4 5 4.1 11.6 8.3 14.3 1.6 1 3.8 1.9 5.8.8 6.4-3.7 8.2-10.1 8.5-14.9l.2-.8z" fill="#fff"/><ellipse class="st3" cx="108.4" cy="240.3" rx="4.6" ry="4.7"/><circle class="st4" cx="108.4" cy="240.3" r="3.5"/><g><path class="st3" d="M56 433h-3v-31l14.7-119.8v-90.3L53.1 63.3V0H56l.1 62.9L71 191.8v90.7L56 402.3z"/></g></svg>