<svg version="1.1" id="图层_1" xmlns="http://www.w3.org/2000/svg" x="0" y="0" width="190" height="220" xml:space="preserve"><style>.st0{fill:#eaeaea}.st1{fill:#e5e5e5}.st2{fill:#adadad}.st3{fill:#747577}.st4{opacity:.7;fill:#295ba9}.st5{fill:#cecece}.st6{fill:#fff}.st7{fill:#c5c6bf}</style><path class="st0" d="M0 0v220h190V0H0z"/><path class="st1" d="M0 164h190v56H0z"/><path class="st2" d="M0 164h190v3H0z"/><path class="st3" d="M0 217h190v3H0z"/><path class="st4" d="M38.5 48.4h52.3v115.8H38.5z"/><path class="st5" d="M31.5 48.4h7v118.9h-7zm7 114.4h52.3v9.1H38.5z"/><path class="st3" d="M90.9 162.8H38.5l67.6 44.4h52.4z"/><path class="st5" d="M106.1 207.2h52.3v9.1h-52.3z"/><path class="st5" d="M106.1 207.2v9.1l-74.6-49h14z"/><path class="st6" d="M106.3 216.2h-.4v-9l-67.5-44.3V48.5h.3v114.2l67.5 44.3.1.1z"/><path class="st6" d="M106.1 206.9h52.3v.4h-52.3z"/><path class="st3" d="M158.5 216.5h-52.4l-74.6-49c-.1 0-.1-.1-.1-.2V48.4c0-.1.1-.2.2-.2s.2.1.2.2v118.8l74.5 48.9h52.1v-8.8l-67.5-44.4c-.1 0-.1-.1-.1-.2V60.6c0-.1.1-.2.2-.2s.2.1.2.2v102.1l67.5 44.4c.1 0 .1.1.1.2v9.1c-.2 0-.2.1-.3.1z"/><path class="st7" d="M135.6 173.6l-67.8-43.9-26.6 25 67.8 43.9z"/><path class="st0" d="M135.6 170.9l-67.8-44-26.6 25 67.8 44z"/><path class="st6" d="M135.6 170.9v2.7l-26.6 25-67.8-43.9v-2.8l67.8 44z"/><path class="st4" d="M135.6 170.9v2.7l-26.6 25-67.8-43.9v-2.8l67.8 44z"/><path class="st3" d="M109 198.8c-.1 0-.1 0 0 0l-67.9-43.9c-.1 0-.1-.1-.1-.2v-2.8s0-.1.1-.1l26.6-25c.1-.1.2-.1.2 0l67.8 43.9c.1 0 .1.1.1.2v2.8s0 .1-.1.1l-26.6 25h-.1zm-67.6-44.2l67.6 43.8 26.5-24.9V171l-67.6-43.8L41.4 152v2.6z"/><path class="st7" d="M135.6 138.5L67.8 94.6l-26.6 25 67.8 43.9z"/><path class="st0" d="M135.6 135.8L67.8 91.9l-26.6 25 67.8 43.9z"/><path class="st6" d="M135.6 135.8v2.7l-26.6 25-67.8-43.9v-2.7l67.8 43.9z"/><path class="st4" d="M135.6 135.8v2.7l-26.6 25-67.8-43.9v-2.7l67.8 43.9z"/><path class="st3" d="M109 163.7c-.1 0-.1 0 0 0l-67.9-43.9c-.1 0-.1-.1-.1-.2v-2.8s0-.1.1-.1l26.6-25c.1-.1.2-.1.2 0l67.8 43.9c.1 0 .1.1.1.2v2.8s0 .1-.1.1l-26.6 25h-.1zm-67.6-44.2l67.6 43.8 26.5-24.9v-2.6L67.9 92.1 41.4 117v2.5z"/><path class="st7" d="M135.6 103.3L67.8 59.4l-26.6 25 67.8 43.9z"/><path class="st0" d="M135.6 100.6l-67.8-44-26.6 25.1 67.8 43.9z"/><path class="st6" d="M135.6 100.6v2.7l-26.6 25-67.8-43.9v-2.7l67.8 43.9z"/><path class="st4" d="M135.6 100.6v2.7l-26.6 25-67.8-43.9v-2.7l67.8 43.9z"/><path class="st3" d="M109 128.5c-.1 0-.1 0 0 0L41.1 84.6c-.1 0-.1-.1-.1-.2v-2.8s0-.1.1-.1l26.6-25c.1-.1.2-.1.2 0l67.8 43.9c.1 0 .1.1.1.2v2.8s0 .1-.1.1l-26.6 25h-.1zM41.4 84.3l67.6 43.8 26.5-24.9v-2.6L67.9 56.9 41.4 81.7v2.6z"/><path class="st7" d="M135.6 68L67.8 24 41.2 49 109 93z"/><path class="st0" d="M135.6 65.2L67.8 21.3l-26.6 25L109 90.2z"/><path class="st6" d="M135.6 65.2V68L109 93 41.2 49v-2.7L109 90.2z"/><path class="st4" d="M135.6 65.2V68L109 93 41.2 49v-2.7L109 90.2z"/><path class="st3" d="M109 93.1c-.1 0-.1 0 0 0L41.1 49.2c-.1 0-.1-.1-.1-.2v-2.8s0-.1.1-.1l26.6-25c.1-.1.2-.1.2 0L135.7 65c.1 0 .1.1.1.2V68s0 .1-.1.1l-26.6 25h-.1zM41.4 48.9L109 92.7l26.5-24.9v-2.6L67.9 21.5 41.4 46.4v2.5z"/><path class="st5" d="M106.1 61.5h52.3v9.1h-52.3z"/><path class="st3" d="M86.2 48.4l19.9 13.1h52.4l-20-13.1z"/><path class="st5" d="M72.3 48.4l33.8 22.2v-9.1L86.2 48.4z"/><path class="st6" d="M106.1 70.8c-.1 0-.2-.1-.2-.2v-9.1c0-.1.1-.2.2-.2h52.3c.1 0 .2.1.2.2s-.1.2-.2.2h-52.1v8.9c0 .1-.1.2-.2.2z"/><path transform="rotate(-56.688 96.15 54.96)" class="st6" d="M96 43h.4v23.9H96z"/><path class="st3" d="M158.5 70.8h-52.4L72.2 48.6c-.1-.1-.1-.2-.1-.2.1-.1.2-.1.2-.1l33.8 22.2h52.1v-8.8l-19.9-13.1c-.1-.1-.1-.2-.1-.2l.2-.1 20 13.1c.1 0 .1.1.1.2v9.1c.1 0 .1.1 0 .1z"/><g><path class="st1" d="M0 0h190v56H0z"/><path class="st2" d="M0 0h190v3H0z"/><path class="st3" d="M0 53h190v3H0z"/></g></svg>