<svg version="1.1" id="图层_1" xmlns="http://www.w3.org/2000/svg" x="0" y="0" width="190" height="220" xml:space="preserve"><style>.st0{fill:#eaeaea}.st1{fill:#e5e5e5}.st2{fill:#adadad}.st3{fill:#747577}.st6{fill:#cecece}.st7{fill:#fff}.st8{opacity:.8;fill:#295ba9}.st9{fill:#c5c6bf}</style><path class="st0" d="M0 0v220h190V0H0z"/><path class="st1" d="M0 164h190v56H0z"/><path class="st2" d="M0 164h190v3H0z"/><path class="st3" d="M0 217h190v3H0z"/><path opacity=".7" fill="#295ba9" d="M43.6 53.5h47.6v112.3H43.6z"/><path class="st6" d="M37.3 53.5h6.4v115.3h-6.4z"/><path class="st6" d="M43.6 164.4h47.6v8.8H43.6z"/><path class="st3" d="M91.2 164.4H43.6l61.5 43.1h47.6z"/><path class="st6" d="M105.1 207.5h47.6v8.8h-47.6zm0 0v8.8l-67.8-47.5h12.6z"/><path class="st7" d="M105.3 216.2h-.3v-8.7l-61.5-43V53.6h.3v110.7l61.4 43 .1.1z"/><path class="st7" d="M105.1 207.2h47.6v.3h-47.6z"/><path class="st3" d="M152.7 216.5H105L37.2 169l-.1-.1V53.5c0-.1.1-.2.2-.2s.2.1.2.2v115.2l67.7 47.4h47.4v-8.6l-61.4-43-.1-.1V65.3c0-.1.1-.2.2-.2s.2.1.2.2v99l61.4 43 .1.1v8.8c-.1.2-.2.3-.3.3z"/><path class="st7" d="M129.6 173.1h2.4v34.3h-2.4z"/><path class="st8" d="M129.6 173.1h2.4v34.3h-2.4z"/><path class="st0" d="M129.6 173.1l-61.7-42.5v34.2l61.7 42.6z"/><path class="st9" d="M67.9 130.6l61.7 42.5h2.4l-61.7-42.5z"/><path class="st7" d="M129.6 138.8h2.4v34.3h-2.4z"/><path class="st8" d="M129.6 138.8h2.4v34.3h-2.4z"/><path class="st0" d="M129.6 138.8L67.9 96.3v34.3l61.7 42.5z"/><path class="st9" d="M67.9 96.3l61.7 42.5h2.4L70.3 96.3z"/><path class="st7" d="M129.6 104.6h2.4v34.3h-2.4z"/><path class="st8" d="M129.6 104.6h2.4v34.3h-2.4z"/><path class="st0" d="M129.6 104.6L67.9 62v34.3l61.7 42.5z"/><path class="st9" d="M67.9 62l61.7 42.6h2.4L70.3 62z"/><path class="st7" d="M129.6 70.3h2.4v34.3h-2.4z"/><path class="st8" d="M129.6 70.3h2.4v34.3h-2.4z"/><path class="st0" d="M129.6 70.3L67.9 27.7V62l61.7 42.6z"/><path class="st2" d="M67.9 27.7l61.7 42.6h2.4L70.3 27.7z"/><path class="st3" d="M132 207.6h-2.5L67.8 165l-.1-.1V27.7c0-.1.1-.2.2-.2h2.5l61.7 42.6.1.1v137.1c-.1.2-.1.3-.2.3zm-2.4-.4h2.1V70.4L70.2 27.9h-2.1v136.9l61.5 42.4z"/><path class="st3" d="M132 104.7h-2.5L67.8 62.1c-.1-.1-.1-.2 0-.2.1-.1.2-.1.2 0l61.6 42.5h2.3c.1 0 .2.1.2.2s0 .1-.1.1zm0 34.3h-2.5L67.8 96.4c-.1-.1-.1-.2 0-.2.1-.1.2-.1.2 0l61.6 42.5h2.3c.1 0 .2.1.2.2s0 .1-.1.1zm0 34.3h-2.5l-61.7-42.6c-.1-.1-.1-.2 0-.2.1-.1.2-.1.2 0l61.6 42.5h2.3c.1 0 .2.1.2.2s0 .1-.1.1z"/><path class="st6" d="M105.1 66.2h47.6V75h-47.6z"/><path class="st3" d="M87 53.5l18.1 12.7h47.6l-18.1-12.7z"/><path class="st6" d="M74.3 53.5l30.8 21.6v-8.9L87 53.5z"/><path class="st7" d="M105.1 75.2c-.1 0-.2-.1-.2-.2v-8.8c0-.1.1-.2.2-.2h47.6c.1 0 .2.1.2.2s-.1.2-.2.2h-47.4V75c0 .2-.1.2-.2.2z"/><path transform="rotate(-55 96.038 59.88)" class="st7" d="M95.9 48.8h.3V71h-.3z"/><path class="st3" d="M152.7 75.2H105L74.2 53.7c-.1-.1-.1-.2 0-.2.1-.1.2-.1.2 0L105.1 75h47.4v-8.6l-18.1-12.7c-.1-.1-.1-.2 0-.2.1-.1.2-.1.2 0l18.2 12.7.1.1v8.8c0 .1-.1.1-.2.1z"/><g><path class="st1" d="M0 0h190v56H0z"/><path class="st2" d="M0 0h190v3H0z"/><path class="st3" d="M0 53h190v3H0z"/></g></svg>