<svg version="1.1" id="图层_1" xmlns="http://www.w3.org/2000/svg" x="0" y="0" width="190" height="220" xml:space="preserve"><style>.st0{fill:#eaeaea}.st1{fill:#e5e5e5}.st2{fill:#adadad}.st3{fill:#747577}.st4{opacity:.7;fill:#295ba9}.st5{fill:#cecece}.st6{fill:#fff}</style><path class="st0" d="M0 0v220h190V0H0z"/><path class="st1" d="M0 164h190v56H0z"/><path class="st2" d="M0 164h190v3H0z"/><path class="st3" d="M0 217h190v3H0z"/><path class="st4" d="M36 54.3h54.7v111.8H36z"/><path class="st5" d="M28.7 54.3H36v114.8h-7.3zM36 164.7h54.7v8.8H36z"/><path class="st3" d="M90.7 164.7H36l70.6 42.8h54.7z"/><path class="st5" d="M106.6 207.5h54.7v8.8h-54.7zm0 0v8.8l-77.9-47.2h14.5z"/><path class="st6" d="M106.8 216.2h-.3v-8.6l-70.6-42.8V54.4h.3v110.1l70.5 42.8.1.2z"/><path class="st6" d="M106.6 207.3h54.7v.3h-54.7z"/><path class="st3" d="M161.3 216.5H106.5l-77.9-47.2c-.1 0-.1-.1-.1-.1V54.3c0-.1.1-.2.2-.2s.2.1.2.2V169l77.8 47.2h54.4v-8.5l-70.5-42.8c-.1 0-.1-.1-.1-.1V66.2c0-.1.1-.2.2-.2s.2.1.2.2v98.5l70.5 42.8.1.1v8.8s-.1.1-.2.1z"/><path class="st0" d="M134.9 173.2l-70.8-42.4-13.5 32.1 70.8 42.3z"/><path class="st6" d="M64.1 130.8l70.8 42.4-13.5 32h2.5l13.5-32-70.8-42.4z"/><path class="st4" d="M64.1 130.8l70.8 42.4-13.5 32h2.5l13.5-32-70.8-42.4z"/><path class="st3" d="M123.9 205.4h-2.6L50.6 163c-.1 0-.1-.1-.1-.2L64 130.7c0-.1.1-.1.2-.1h2.6l70.8 42.4c.1 0 .1.1.1.2l-13.5 32.1c-.1.1-.2.1-.3.1zm-2.5-.3h2.4l13.4-31.8L66.6 131h-2.4l-13.4 31.8 70.6 42.3z"/><path class="st0" d="M134.9 139.2L64.1 96.8l-13.5 32.1 70.8 42.4z"/><path class="st6" d="M64.1 96.8l70.8 42.4-13.5 32.1h2.5l13.5-32.1-70.8-42.4z"/><path class="st4" d="M64.1 96.8l70.8 42.4-13.5 32.1h2.5l13.5-32.1-70.8-42.4z"/><path class="st3" d="M123.9 171.4h-2.6L50.6 129c-.1 0-.1-.1-.1-.2l13.5-32c0-.1.1-.1.2-.1h2.6l70.8 42.4c.1 0 .1.1.1.2l-13.5 32.1h-.3zm-2.5-.3h2.4l13.4-31.8L66.6 97h-2.4l-13.4 31.8 70.6 42.3z"/><path class="st0" d="M134.9 105.1L64.1 62.7 50.6 94.8l70.8 42.4z"/><path class="st6" d="M64.1 62.7l70.8 42.4-13.5 32.1h2.5l13.5-32.1-70.8-42.4z"/><path class="st4" d="M64.1 62.7l70.8 42.4-13.5 32.1h2.5l13.5-32.1-70.8-42.4z"/><path class="st3" d="M123.9 137.3h-2.6L50.6 94.9c-.1 0-.1-.1-.1-.2L64 62.6c0-.1.1-.1.2-.1h2.6l70.8 42.4c.1 0 .1.1.1.2l-13.5 32.1c-.1.1-.2.1-.3.1zm-2.5-.3h2.4l13.4-31.8-70.6-42.3h-2.4L50.9 94.7l70.5 42.3z"/><path class="st0" d="M134.9 71L64.1 28.6l-13.5 32 70.8 42.4z"/><path class="st6" d="M64.1 28.6L134.9 71l-13.5 32h2.5l13.5-32-70.8-42.4z"/><path class="st4" d="M64.1 28.6L134.9 71l-13.5 32h2.5l13.5-32-70.8-42.4z"/><path class="st3" d="M123.9 103.2h-2.6L50.6 60.8c-.1 0-.1-.1-.1-.2L64 28.5c0-.1.1-.1.2-.1h2.6l70.8 42.4c.1 0 .1.1.1.2l-13.5 32.1c-.1.1-.2.1-.3.1zm-2.5-.3h2.4L137.2 71 66.6 28.8h-2.4L50.9 60.6l70.5 42.3z"/><path class="st5" d="M106.6 66.9h54.7v8.8h-54.7z"/><path class="st3" d="M85.8 54.3l20.8 12.6h54.7l-20.9-12.6z"/><path class="st5" d="M71.3 54.3l35.3 21.4v-8.8L85.8 54.3z"/><path class="st6" d="M106.6 75.9c-.1 0-.2-.1-.2-.2v-8.8c0-.1.1-.2.2-.2h54.7c.1 0 .2.1.2.2s-.1.2-.2.2h-54.5v8.6c0 .1-.1.2-.2.2z"/><path transform="rotate(-58.74 96.2 60.619)" class="st6" d="M96 48.4h.3v24.4H96z"/><path class="st3" d="M161.3 75.9H106.5L71.2 54.4c-.1 0-.1-.2-.1-.2 0-.1.2-.1.2-.1l35.3 21.4H161V67l-20.8-12.6c-.1 0-.1-.2-.1-.2 0-.1.2-.1.2-.1l20.8 12.7.1.1v8.8c.3.1.2.2.1.2z"/><g><path class="st1" d="M0 0h190v56H0z"/><path class="st2" d="M0 0h190v3H0z"/><path class="st3" d="M0 53h190v3H0z"/></g></svg>