<svg version="1.1" id="图层_1" xmlns="http://www.w3.org/2000/svg" x="0" y="0" width="220" height="190" xml:space="preserve"><style>.st0{fill:#eaeaea}.st1{fill:#e5e5e5}.st2{fill:#747577}.st3{fill:#adadad}.st4{fill:#cecece}.st5{fill:#fff}.st6{fill:#6a8dc3}</style><path class="st0" d="M220 0H0v190h220V0z"/><path class="st1" d="M164 0h56v190h-56z"/><path class="st2" d="M217 0h3v190h-3z"/><path class="st3" d="M164 0h3v190h-3z"/><path transform="rotate(90 110.596 58.834)" class="st4" d="M108.9 3.5h3.5v110.7h-3.5z"/><path class="st5" d="M166 60.7H55.2c-.1 0-.2-.1-.2-.2s.1-.2.2-.2H166c.1 0 .2.1.2.2s-.1.2-.2.2z"/><path class="st2" d="M166 57.3H55.2c-.1 0-.2-.1-.2-.2s.1-.2.2-.2H166c.1 0 .2.1.2.2s-.1.2-.2.2z"/><path transform="rotate(90 110.596 77.818)" class="st6" d="M93.3 22.5h34.5v110.7H93.3z"/><path transform="rotate(90 214.717 115.675)" class="st4" d="M197.4 113.5h34.5v4.3h-34.5z"/><path class="st2" d="M166.1 95.2V60.7l46.5 37.7v34.5z"/><path class="st4" d="M166.1 60.7l46.5 37.7h4.3l-50.8-41.2z"/><path class="st5" d="M212.6 133.1c-.1 0-.1-.1-.1-.1V98.5l-46.4-37.7c-.1 0-.1-.1 0-.2 0-.1.1-.1.2 0l46.4 37.7v34.6c0 .1-.1.2-.1.2z"/><path class="st5" d="M216.9 98.5h-4.3c-.1 0-.1-.1-.1-.1l.1-.1h4.3c.1 0 .1.1.1.1l-.1.1z"/><path class="st2" d="M216.9 133.1H212.5l-46.4-37.8c-.1 0-.1-.1 0-.2 0-.1.1-.1.2 0l46.4 37.8h4.1V98.5l-50.7-41.2c-.1 0-.1-.1 0-.2 0-.1.1-.1.2 0L217 98.3v34.6c0 .1-.1.2-.1.2z"/><path class="st0" d="M166 81.9l46.4 37.8-15.5 26.7-46.4-37.7z"/><path class="st0" d="M166 77l46.4 37.8-15.5 26.7-46.4-37.7z"/><path class="st6" d="M212.4 114.8l-15.5 26.7-46.4-37.7v4.9l46.4 37.7 15.5-26.7z"/><path class="st2" d="M196.9 146.6s0-.1 0 0l-46.5-37.8v-5.1L165.9 77l.1-.1h.1l46.4 37.7v5.1L197 146.5l-.1.1zm-46.3-38l46.3 37.6 15.4-26.6v-4.8L166 77.2l-15.4 26.6v4.8z"/><path class="st0" d="M135.1 81.9l46.4 37.8-15.5 26.7-46.5-37.7z"/><path class="st0" d="M135.1 77l46.4 37.8-15.5 26.7-46.5-37.7z"/><path class="st6" d="M181.5 114.8L166 141.5l-46.5-37.7v4.9l46.5 37.7 15.5-26.7z"/><path class="st2" d="M166 146.6c-.1 0-.1-.1 0 0l-46.5-37.8v-5.1L135 77l.1-.1h.1l46.4 37.7v5.1l-15.5 26.8s-.1 0-.1.1zm-46.3-38l46.3 37.6 15.4-26.6v-4.8l-46.3-37.6-15.4 26.6v4.8z"/><g><path class="st0" d="M104.1 81.9l46.4 37.8-15.5 26.7-46.4-37.7z"/><path class="st0" d="M104.1 77l46.4 37.8-15.5 26.7-46.4-37.7z"/><path class="st6" d="M150.5 114.8L135 141.5l-46.4-37.7v4.9l46.4 37.7 15.5-26.7z"/><path class="st2" d="M135 146.6s-.1-.1 0 0l-46.5-37.8v-5.1L104 77l.1-.1h.1l46.4 37.7v5.1l-15.5 26.8-.1.1zm-46.3-38l46.3 37.6 15.4-26.6v-4.8l-46.3-37.6-15.4 26.6v4.8z"/></g><g><path class="st0" d="M73.1 81.9l46.4 37.8-15.5 26.7-46.4-37.7z"/><path class="st0" d="M73.1 77l46.4 37.8-15.5 26.7-46.4-37.7z"/><path class="st6" d="M119.5 114.8L104 141.5l-46.4-37.7v4.9l46.4 37.7 15.5-26.7z"/><path class="st2" d="M104 146.6s0-.1 0 0l-46.5-37.8v-5.1L73 77l.1-.1h.1l46.4 37.7v5.1l-15.5 26.8-.1.1c.1 0 0 0 0 0zm-46.3-38l46.3 37.6 15.4-26.6v-4.8L73.2 77.2l-15.4 26.6v4.8z"/></g><g><path transform="rotate(90 91.023 115.675)" class="st4" d="M73.8 113.5h34.5v4.3H73.8z"/><path class="st2" d="M42.5 95.2V60.7l46.4 37.7v34.5z"/><path class="st4" d="M42.5 60.7l46.4 37.7h4.3L42.5 57.2z"/><path class="st5" d="M88.9 133.1c-.1 0-.1-.1-.1-.1V98.5L42.4 60.8c-.1 0-.1-.1 0-.2 0-.1.1-.1.2 0L89 98.3v34.6c0 .1-.1.2-.1.2z"/><path class="st5" d="M93.2 98.5h-4.3c-.1 0-.1-.1-.1-.1l.1-.1h4.3c.1 0 .1.1.1.1l-.1.1z"/><path class="st2" d="M93.2 133.1H88.8L42.4 95.3c-.1 0-.1-.1 0-.2 0-.1.1-.1.2 0L89 132.9h4.1V98.5L42.4 57.3c-.1 0-.1-.1 0-.2 0-.1.1-.1.2 0l50.7 41.2v34.6c0 .1-.1.2-.1.2z"/></g><g><path class="st1" d="M0 0h56v190H0z"/><path class="st2" d="M53 0h3v190h-3z"/><path class="st3" d="M0 0h3v190H0z"/></g></svg>