<svg version="1.1" id="图层_1" xmlns="http://www.w3.org/2000/svg" x="0" y="0" width="190" height="220" xml:space="preserve"><style>.st0{fill:#eaeaea}.st1{fill:#e5e5e5}.st2{fill:#adadad}.st3{fill:#747577}.st4{opacity:.7;fill:#295ba9}.st5{fill:#cecece}.st6{fill:#fff}</style><path class="st0" d="M0 0v220h190V0H0z"/><path class="st1" d="M0 164h190v56H0z"/><path class="st2" d="M0 164h190v3H0z"/><path class="st3" d="M0 217h190v3H0z"/><path class="st4" d="M43.6 53.5h47.6v112.3H43.6z"/><path class="st5" d="M37.3 53.5h6.4v115.3h-6.4z"/><path class="st5" d="M43.6 164.4h47.6v8.8H43.6z"/><path class="st3" d="M91.2 164.4H43.6l61.5 43.1h47.6z"/><path class="st5" d="M105.1 207.5h47.6v8.8h-47.6zm0 0v8.8l-67.8-47.5h12.6z"/><path class="st6" d="M105.3 216.2h-.3v-8.7l-61.5-43V53.6h.3v110.7l61.4 43 .1.1z"/><path class="st6" d="M105.1 207.2h47.6v.3h-47.6z"/><path class="st3" d="M152.7 216.5H105L37.2 169l-.1-.1V53.5c0-.1.1-.2.2-.2s.2.1.2.2v115.2l67.7 47.4h47.4v-8.6l-61.4-43-.1-.1V65.3c0-.1.1-.2.2-.2s.2.1.2.2v99l61.4 43 .1.1v8.8c-.1.2-.2.3-.3.3z"/><path class="st0" d="M137.7 180.4L76 137.8H41.8l61.6 42.6z"/><path class="st6" d="M103.4 180.4l-61.6-42.6v2.4l61.6 42.6h34.3v-2.4z"/><path class="st4" d="M103.4 180.4l-61.6-42.6v2.4l61.6 42.6h34.3v-2.4z"/><path class="st3" d="M137.7 182.9h-34.4l-61.7-42.6-.1-.1v-2.4c0-.1.1-.2.2-.2h34.4l61.7 42.6c.1 0 .1.1.1.2v2.3c0 .2-.1.2-.2.2zm-34.2-.3h34.1v-2.1L76 138H41.9v2.1l61.6 42.5z"/><path class="st0" d="M137.7 147.2L76 104.6H41.8l61.6 42.6z"/><path class="st6" d="M103.4 147.2l-61.6-42.6v2.4l61.6 42.5h34.3v-2.3z"/><path class="st4" d="M103.4 147.2l-61.6-42.6v2.4l61.6 42.5h34.3v-2.3z"/><path class="st3" d="M137.7 149.7h-34.4l-61.7-42.6-.1-.1v-2.4c0-.1.1-.2.2-.2h34.4l61.7 42.6c.1 0 .1.1.1.2v2.3c0 .1-.1.2-.2.2zm-34.2-.3h34.1v-2.1L76 104.8H41.9v2.1l61.6 42.5z"/><path class="st0" d="M137.7 112.2L76 69.7H41.8l61.6 42.5z"/><path class="st6" d="M103.4 112.2L41.8 69.7V72l61.6 42.6h34.3v-2.4z"/><path class="st4" d="M103.4 112.2L41.8 69.7V72l61.6 42.6h34.3v-2.4z"/><path class="st3" d="M137.7 114.8h-34.4L41.7 72.2l-.1-.1v-2.4c0-.1.1-.2.2-.2h34.3l61.7 42.6c.1 0 .1.1.1.2v2.3c0 .1-.1.2-.2.2zm-34.2-.4h34.1v-2.1L76 69.8H41.9v2.1l61.6 42.5z"/><path class="st0" d="M137.7 77.8L76 35.2H41.8l61.6 42.6z"/><path class="st6" d="M103.4 77.8L41.8 35.2v2.4l61.6 42.5h34.3v-2.3z"/><path class="st4" d="M103.4 77.8L41.8 35.2v2.4l61.6 42.5h34.3v-2.3z"/><path class="st3" d="M137.7 80.3h-34.4L41.7 37.7l-.1-.1v-2.4c0-.1.1-.2.2-.2h34.3l61.7 42.6c.1 0 .1.1.1.2v2.3c0 .1-.1.2-.2.2zm-34.2-.3h34.1v-2.1L76 35.4H41.9v2.1L103.5 80z"/><path class="st5" d="M105.1 66.2h47.6V75h-47.6z"/><path class="st3" d="M87 53.5l18.1 12.7h47.6l-18.1-12.7z"/><path class="st5" d="M74.3 53.5l30.8 21.6v-8.9L87 53.5z"/><path class="st6" d="M105.1 75.2c-.1 0-.2-.1-.2-.2v-8.8c0-.1.1-.2.2-.2h47.6c.1 0 .2.1.2.2s-.1.2-.2.2h-47.4V75c0 .2-.1.2-.2.2z"/><path transform="rotate(-55 96.038 59.88)" class="st6" d="M95.9 48.8h.3V71h-.3z"/><path class="st3" d="M152.7 75.2H105L74.2 53.7c-.1-.1-.1-.2 0-.2.1-.1.2-.1.2 0L105.1 75h47.4v-8.6l-18.1-12.7c-.1-.1-.1-.2 0-.2.1-.1.2-.1.2 0l18.2 12.7.1.1v8.8c0 .1-.1.1-.2.1z"/><g><path class="st1" d="M0 0h190v56H0z"/><path class="st2" d="M0 0h190v3H0z"/><path class="st3" d="M0 53h190v3H0z"/></g></svg>