<svg version="1.1" id="图层_1" xmlns="http://www.w3.org/2000/svg" x="0" y="0" width="190" height="270" xml:space="preserve"><style>.st3{fill:#e5e5e5}.st4{fill:#adadad}.st5{fill:#747577}.st6{fill:#d6d7d7}</style><path fill="#4c739b" d="M87 218h16v52H87z"/><path fill="#295ba9" d="M88.3 218h13.3v52H88.3z"/><path d="M0 0v220h190V0H0z" fill="#eaeaea"/><path class="st3" d="M0 0h190v56H0z"/><path class="st4" d="M0 0h190v3H0z"/><path class="st5" d="M0 53h190v3H0z"/><path class="st3" d="M0 164h190v56H0z"/><path class="st4" d="M0 164h190v3H0z"/><path class="st5" d="M0 217h190v3H0z"/><path class="st6" d="M87.3 55.6h15.3V195H87.3z"/><path class="st5" d="M103 195.3H87V55.2h16v140.1zm-15.3-.7h14.6V55.9H87.7v138.7z"/><ellipse class="st5" cx="95" cy="195.1" rx="8" ry="4"/><ellipse class="st5" cx="95" cy="36.6" rx="7.4" ry="3.8"/><path transform="rotate(-90 105.383 83.5)" class="st6" d="M98.1 66.6h14.6v33.8H98.1z"/><path class="st5" d="M122.5 91H88.3V76h34.2v15zm-33.9-.4h33.5V76.4H88.6v14.2z"/><path class="st5" d="M108 76h-4v-7H87v29h17v-7h4z"/><ellipse class="st5" cx="121.9" cy="83.7" rx="1.9" ry="7"/><path transform="rotate(-90 105.383 136.5)" class="st6" d="M98.1 119.6h14.6v33.8H98.1z"/><path class="st5" d="M122.5 144H88.3v-15h34.2v15zm-33.9-.4h33.5v-14.2H88.6v14.2z"/><path class="st5" d="M108 129h-4v-7H87v29h17v-7h4z"/><ellipse class="st5" cx="122" cy="136.7" rx="2" ry="7"/></svg>