<svg version="1.1" id="图层_1" xmlns="http://www.w3.org/2000/svg" xmlns:xlink="http://www.w3.org/1999/xlink" x="0" y="0" width="190" height="220" xml:space="preserve"><style>.st0{fill:#eaeaea}.st1{fill:#e5e5e5}.st2{fill:#adadad}.st3{fill:#747577}.st7{fill:#fff}</style><path class="st0" d="M0 0v220h190V0H0z"/><path class="st1" d="M0 0h190v56H0z"/><path class="st2" d="M0 0h190v3H0z"/><path class="st3" d="M0 53h190v3H0z"/><path class="st1" d="M0 164h190v56H0z"/><path class="st2" d="M0 164h190v3H0z"/><path class="st3" d="M0 217h190v3H0z"/><g><path fill="#d6d7d7" d="M150 214.7h-4.6l-3.2-1.4h-30.4l-2.8 1.4h-5.1V58.8H150z"/><path fill="#c1c1c1" d="M39.8 55.2v116.2l64.1 43.3V58.8l-5.7-3.6z"/><path fill="#cecece" d="M98.2 55.2l5.7 3.6h4.9l2.9 1.2 30.7.1 3.2-1.3h4.4l-5.5-3.6z"/><path class="st7" d="M89.8 55.2l9.9 6.7v140.3l-55.8-37.3V55.2z"/><path class="st0" d="M139.2 55.1l5.8 4v154.6h1.2V58.5l-5.1-3.4H140zm-35.7 0h-2l6.7 4v154.7h1.2V58.4z"/><path class="st7" d="M145.6 58.2l-3.3 1.3h-30.5l-2.8-1.2h-5.2l-4.6-3h-1.9l5.7 3.9v156.2h5.6l2.9-1.4h30.2l3.1 1.3h5.4V58.2h-4.6zm3.4 155.9h-3.9l-3.1-1.3h-30.7l-2.9 1.4h-4.3V59.4h4.4l2.8 1.2 31 .1 3.3-1.3h3.3v154.7z"/><path fill="none" d="M39.8 55.2v116.2l64.1 43.3V58.8l-5.7-3.6z"/><defs><path id="SVGID_1_" d="M89.9 55.2l9.9 6.7v140.3l-55.7-37.3V55.2z"/></defs><clipPath id="SVGID_2_"><use xlink:href="#SVGID_1_" overflow="visible"/></clipPath><path d="M179 126.9l.7-.7-2-2 2-2-.7-.7-2 2-3.8-3.8 2-2-.7-.7-2 2-3.8-3.8 2-2-.7-.7-2 2-3.8-3.8 2-2-.7-.7-2 2-3.8-3.8 2-2-.7-.7-2 2-3.8-3.8 2-2-.7-.7-2 2-3.8-3.8 2-2-.7-.7-2 2-3.8-3.8 2-2-.7-.7-2 2-3.8-3.8 2-2-.7-.7-2 2-3.8-3.8 2-2-.7-.7-2 2-3.8-3.8 2-2-.7-.7-2 2-3.8-3.8 2-2-.7-.7-2 2-3.8-3.8 2-2-.7-.7-2 2-3.8-3.8 2-2-.7-.7-2 2-3.8-3.8 2-2-.7-.7-2 2-3.8-3.8 2-2-.7-.7-2 2-3.8-3.8 2-2-.7-.7-2 2-3.8-3.8 2-2-.7-.7-2 2-3.9-4 2-2-.7-.7-2 2-3.8-3.8 2-2-.7-.7-2 2-3.8-3.8 2-2-.7-.7-2 2-3.8-3.8 2-2-.7-.7-2 2-3.8-3.8 2-2-.7-.7-2 2-2-2-.9.6 2 2-3.8 3.8-2-2-.7.7 2 2-3.8 3.8-2-2-.7.7 2 2-3.8 3.8-2-2-.7.7 2 2-3.8 3.8-2-2-.7.8 2 2-3.8 3.8-2-2-.7.7 2 2-3.8 3.8-2-2-.7.7 2 2-3.8 3.8-2-2-.7.7 2 2-3.8 3.8-2-2-.7.7 2 2-3.8 3.8-2-2-.7.7 2 2-3.8 3.8-2-2-.8.7 2 2-3.8 3.8-2-2-.7.7 2 2-3.8 3.8-2-2-.7.7 2 2-3.8 3.8-2-2-.7.7 2 2-3.8 3.8-2-2-.7.7 2 2-3.8 3.8-2-2-.7.7 2 2-3.8 3.8-2-2-.7.7 2 2-3.8 3.8-2-2-.7.7 2 2-3.8 3.8-2-2-.7.7 2 2-3.8 3.8-2-2-.7.7 2 2-3.8 3.8-2-2-.7.7 2 2-3.8 3.8-2-2-.7.7 2 2-3.8 3.8-2-2-.7.7 2 2-2 2 .7.7 2-2 3.8 3.8-2 2 .7.7 2-2 3.8 3.8-2 2 .7.7 2-2 3.8 3.8-2 2 .7.7 2-2 3.8 3.8-2 2 .7.7 2-2 3.8 3.8-2 2 .7.7 2-2 3.8 3.8-2 2 .7.7 2-2 3.8 3.8-2 2 .7.7 2-2 3.8 3.8-2 2 .7.7 2-2 3.8 3.8-2 2 .7.7 2-2 3.8 3.8-2 2 .7.7 2-2 3.8 3.8-2 2 .7.7 2-2 3.8 3.8-2 2 .7.7 2-2 3.8 3.8-2 2 .7.7 2-2 3.8 3.8-2 2 .7.7 2-2 3.8 3.8-2 2 .7.7 2-2 3.8 3.8-2 2 .7.7 2-2 3.8 3.8-2 2 .7.7 2-2 3.8 3.8-2 2 .7.7 2-2 3.8 3.8-2 2 .7.7 2-2 3.8 3.8-2 2 .7.7 2-2 3.8 3.8-2 2 .7.7 2-2 3.8 3.8-2 2 .7.7 2-2 2 2 .7-.7-2-2 3.8-3.8 2 2 .7-.7-2-2 3.8-3.8 2 2 .7-.7-2-2 3.8-3.8 2 2 .7-.7-2-2 3.8-3.8 2 2 .7-.7-2-2 3.8-3.8 2 2 .7-.7-2-2 3.8-3.8 2 2 .7-.7-2-2 3.8-3.8 2 2 .7-.7-2-2 3.8-3.8 2 2 .7-.7-2-2 3.8-3.8 2 2 .7-.7-2-2 3.8-3.8 2 2 .7-.7-2-2 3.8-3.8 2 2 .7-.7-2-2 3.8-3.8 2 2 .7-.7-2-2 3.8-3.8 2 2 .7-.7-2-2 3.8-3.8 2 2 .7-.7-2-2 3.8-3.8 2 2 .7-.7-2-2 3.8-3.8 2 2 .7-.7-2-2 3.8-3.8 2 2 .7-.7-2-2 3.8-3.8 2 2 .7-.7-2-2 3.8-3.8 2 2 .7-.7-2-2 3.8-3.8 2 2 .7-.7-2-2 3.8-3.8 2 2 .7-.7-2-2 3.8-3.8 2.4 2.2zm-7.2-7.3l-3.8 3.8-3.8-3.8 3.8-3.8 3.8 3.8zm-94.7 4.6l-3.8 3.8-3.8-3.8 3.8-3.8 3.8 3.8zm-3.1-4.6l3.8-3.8 3.8 3.8-3.8 3.8-3.8-3.8zm3.8 5.3l3.8 3.8-3.8 3.8-3.8-3.8 3.8-3.8zm.8-.7l3.8-3.8 3.8 3.8-3.8 3.8-3.8-3.8zm4.5-4.6l3.8-3.8 3.8 3.8-3.8 3.8-3.8-3.8zm-.8-.7l-3.8-3.8 3.8-3.8 3.8 3.8-3.8 3.8zm-4.5-4.5l-3.8-3.8 3.8-3.8 3.8 3.8-3.8 3.8zm-.7.7l-3.8 3.8-3.8-3.8 3.8-3.8 3.8 3.8zm-4.5 4.5l-3.8 3.8-3.8-3.8 3.8-3.8 3.8 3.8zm-4.5 4.5l-3.8 3.8-3.8-3.8 3.8-3.8 3.8 3.8zm.7.8l3.8 3.8-3.8 3.8-3.8-3.8 3.8-3.8zm4.5 4.5l3.8 3.8-3.8 3.8-3.8-3.8 3.8-3.8zm4.5 4.5l3.8 3.8-3.8 3.8-3.8-3.8 3.8-3.8zm.8-.7l3.8-3.8 3.8 3.8-3.8 3.8-3.8-3.8zm4.5-4.5l3.8-3.8 3.8 3.8-3.8 3.8-3.8-3.8zm4.5-4.6l3.8-3.8 3.8 3.8-3.8 3.8-3.8-3.8zm4.5-4.5l3.8-3.8 3.8 3.8-3.8 3.8-3.8-3.8zm-.8-.7l-3.8-3.8 3.8-3.8 3.8 3.8-3.8 3.8zm-4.5-4.5l-3.8-3.8 3.8-3.8 3.8 3.8-3.8 3.8zm-4.5-4.5l-3.8-3.8 3.8-3.8 3.8 3.8-3.8 3.8zm-4.5-4.5l-3.8-3.8 3.8-3.8 3.8 3.8-3.8 3.8zm-.7.7l-3.8 3.8-3.8-3.8 3.8-3.8 3.8 3.8zm-4.5 4.5l-3.8 3.8-3.8-3.8 3.8-3.8 3.8 3.8zm-4.5 4.5l-3.8 3.8-3.8-3.8 3.8-3.8 3.8 3.8zm-4.6 4.5l-3.8 3.8-3.8-3.8 3.8-3.8 3.8 3.8zm-4.5 4.5l-3.8 3.8-3.8-3.8 3.8-3.8 3.8 3.8zm.8.8l3.8 3.8-3.8 3.8-3.8-3.8 3.8-3.8zm4.5 4.5l3.8 3.8-3.8 3.8-3.8-3.8 3.8-3.8zm4.5 4.5l3.8 3.8-3.8 3.8-3.8-3.8 3.8-3.8zm4.5 4.5l3.8 3.8-3.8 3.8-3.8-3.8 3.8-3.8zm4.5 4.5l3.8 3.8-3.8 3.8-3.8-3.8 3.8-3.8zm.8-.7l3.8-3.8 3.8 3.8-3.8 3.8-3.8-3.8zm4.5-4.5l3.8-3.8 3.8 3.8-3.8 3.8-3.8-3.8zm4.5-4.5l3.8-3.8 3.8 3.8-3.8 3.8-3.8-3.8zm4.5-4.5l3.8-3.8 3.8 3.8-3.8 3.8-3.8-3.8zm4.5-4.6l3.8-3.8 3.8 3.8-3.8 3.8-3.8-3.8zm4.5-4.5l3.8-3.8 3.8 3.8-3.8 3.8-3.8-3.8zm-.7-.7l-3.8-3.8 3.8-3.8 3.8 3.8-3.8 3.8zm-4.6-4.5l-3.8-3.8 3.8-3.8 3.8 3.8-3.8 3.8zm-4.5-4.5l-3.8-3.8 3.8-3.8 3.8 3.8-3.8 3.8zm-4.5-4.5l-3.8-3.8 3.8-3.8 3.8 3.8-3.8 3.8zm-4.5-4.5l-3.8-3.8 3.8-3.8 3.8 3.8-3.8 3.8zm-4.5-4.5L74 92.6l3.8-3.8 3.8 3.8-3.8 3.8zm-.7.7l-3.8 3.8-3.8-3.8 3.8-3.8 3.8 3.8zm-4.5 4.5l-3.8 3.8-3.8-3.8 3.8-3.8 3.8 3.8zm-4.5 4.5l-3.8 3.8-3.8-3.8 3.8-3.8 3.8 3.8zm-4.6 4.5l-3.8 3.8-3.8-3.8 3.8-3.8 3.8 3.8zm-4.5 4.5l-3.8 3.8-3.8-3.8 3.8-3.8 3.8 3.8zm-4.5 4.5l-3.8 3.8-3.8-3.8 3.8-3.8 3.8 3.8zm-4.5 4.6l-3.8 3.8-3.8-3.8 3.8-3.8 3.8 3.8zm.8.7l3.8 3.8-3.8 3.8-3.8-3.8 3.8-3.8zm4.5 4.5l3.8 3.8-3.8 3.8-3.8-3.8 3.8-3.8zm4.5 4.5l3.8 3.8-3.8 3.8-3.8-3.8 3.8-3.8zm4.5 4.5l3.8 3.8-3.8 3.8-3.8-3.8 3.8-3.8zm4.5 4.5l3.8 3.8-3.8 3.8-3.8-3.8 3.8-3.8zm4.5 4.5l3.8 3.8-3.8 3.8-3.8-3.8 3.8-3.8zm4.5 4.5l3.8 3.8-3.8 3.8-3.8-3.8 3.8-3.8zm.8-.7l3.8-3.8 3.8 3.8-3.8 3.8-3.8-3.8zm4.5-4.5l3.8-3.8 3.8 3.8-3.8 3.8-3.8-3.8zm4.5-4.5l3.8-3.8 3.8 3.8-3.8 3.8-3.8-3.8zm4.5-4.5l3.8-3.8 3.8 3.8-3.8 3.8-3.8-3.8zm4.5-4.5l3.8-3.8 3.8 3.8-3.8 3.8-3.8-3.8zm4.5-4.5l3.8-3.8 3.8 3.8-3.8 3.8-3.8-3.8zm4.5-4.5l3.8-3.8 3.8 3.8-3.8 3.8-3.8-3.8zm4.5-4.6l3.8-3.8 3.8 3.8-3.8 3.8-3.8-3.8zm-.7-.7l-3.8-3.8 3.8-3.8 3.8 3.8-3.8 3.8zm-4.5-4.5l-3.8-3.8 3.8-3.8 3.8 3.8-3.8 3.8zm-4.5-4.5l-3.8-3.8 3.8-3.8 3.8 3.8-3.8 3.8zm-4.6-4.5l-3.8-3.8 3.8-3.8 3.8 3.8-3.8 3.8zm-4.5-4.5l-3.8-3.8 3.8-3.8 3.8 3.8-3.8 3.8zm-4.5-4.5L83 92.6l3.8-3.8 3.8 3.8-3.8 3.8zm-4.5-4.5l-3.8-3.8 3.8-3.8 3.8 3.8-3.8 3.8zm-4.5-4.6L74 83.6l3.8-3.8 3.8 3.8-3.8 3.7zm-.7.8l-3.8 3.8-3.8-3.8 3.8-3.8 3.8 3.8zm-4.5 4.5l-3.8 3.8-3.8-3.8 3.8-3.8 3.8 3.8zm-4.5 4.5l-3.8 3.8-3.8-3.8 3.8-3.8 3.8 3.8zm-4.6 4.5l-3.8 3.8-3.8-3.8 3.8-3.8 3.8 3.8zm-4.5 4.5l-3.8 3.8-3.8-3.8 3.8-3.8 3.8 3.8zm-4.5 4.5l-3.8 3.8-3.8-3.8 3.8-3.8 3.8 3.8zm-4.5 4.5l-3.8 3.8-3.8-3.8 3.8-3.8 3.8 3.8zm-4.5 4.5l-3.8 3.8-3.8-3.8 3.8-3.8 3.8 3.8zm-4.5 4.5l-3.8 3.8-3.8-3.8 3.8-3.8 3.8 3.8zm.7.8l3.8 3.8-3.8 3.8-3.8-3.8 3.8-3.8zm4.6 4.5l3.8 3.8-3.8 3.8-3.8-3.8 3.8-3.8zm4.5 4.5l3.8 3.8-3.8 3.8-3.8-3.8 3.8-3.8zm4.5 4.5l3.8 3.8-3.8 3.8-3.8-3.8 3.8-3.8zm4.5 4.5l3.8 3.8-3.8 3.8-3.8-3.8 3.8-3.8zm4.5 4.5l3.8 3.8-3.8 3.8-3.8-3.8 3.8-3.8zm4.5 4.5l3.8 3.8-3.8 3.8-3.8-3.8 3.8-3.8zm4.5 4.5l3.8 3.8-3.8 3.8-3.8-3.8 3.8-3.8zm4.5 4.6l3.8 3.8-3.8 3.8-3.8-3.8 3.8-3.8zm.8-.8l3.8-3.8 3.8 3.8-3.8 3.8-3.8-3.8zm4.5-4.5l3.8-3.8 3.8 3.8-3.8 3.8-3.8-3.8zm4.5-4.5l3.8-3.8 3.8 3.8-3.8 3.8-3.8-3.8zm4.5-4.5l3.8-3.8 3.8 3.8-3.8 3.8-3.8-3.8zm4.5-4.5l3.8-3.8 3.8 3.8-3.8 3.8-3.8-3.8zm4.5-4.5l3.8-3.8 3.8 3.8-3.8 3.8-3.8-3.8zm4.5-4.5l3.8-3.8 3.8 3.8-3.8 3.8-3.8-3.8zm4.5-4.5l3.8-3.8 3.8 3.8-3.8 3.8-3.8-3.8zm4.5-4.6l3.8-3.8 3.8 3.8-3.8 3.8-3.8-3.8zm4.5-4.5l3.8-3.8 3.8 3.8-3.8 3.8-3.8-3.8zm-.7-.7l-3.8-3.8 3.8-3.8 3.8 3.8-3.8 3.8zm-4.5-4.5l-3.8-3.8 3.8-3.8 3.8 3.8-3.8 3.8zm-4.5-4.5l-3.8-3.8 3.8-3.8 3.8 3.8-3.8 3.8zm-4.5-4.5l-3.8-3.8 3.8-3.8 3.8 3.8-3.8 3.8zm-4.5-4.5l-3.8-3.8 3.8-3.8 3.8 3.8-3.8 3.8zm-4.6-4.5L92 92.6l3.8-3.8 3.8 3.8-3.8 3.8zm-4.5-4.5l-3.8-3.8 3.8-3.8 3.8 3.8-3.8 3.8zm-4.5-4.6L83 83.5l3.8-3.8 3.8 3.8-3.8 3.8zm-4.5-4.5L78.5 79l3.8-3.8 3.8 3.8-3.8 3.8zm-4.5-4.5L74 74.6l3.8-3.8 3.8 3.8-3.8 3.7zm-.7.8l-3.8 3.8-3.8-3.8 3.8-3.8 3.8 3.8zm-4.5 4.5l-3.8 3.8-3.8-3.8 3.8-3.8 3.8 3.8zm-4.5 4.5l-3.8 3.8-3.8-3.8 3.8-3.8 3.8 3.8zm-4.6 4.5l-3.8 3.8-3.7-3.8 3.8-3.8 3.7 3.8zM59 97.1l-3.8 3.8-3.8-3.8 3.8-3.8 3.8 3.8zm-4.5 4.5l-3.8 3.8-3.8-3.8 3.8-3.8 3.8 3.8zm-4.5 4.5l-3.8 3.8-3.8-3.8 3.8-3.8 3.8 3.8zm-4.5 4.5l-3.8 3.8-3.8-3.8 3.8-3.8 3.8 3.8zm-4.5 4.5l-3.8 3.8-3.8-3.8 3.8-3.8 3.8 3.8zm-4.5 4.5l-3.8 3.8-3.8-3.8 3.8-3.8 3.8 3.8zm-4.5 4.5l-3.8 3.8-3.8-3.8 3.8-3.8 3.8 3.8zm.7.8l3.8 3.8-3.8 3.8-3.8-3.8 3.8-3.8zm4.5 4.5l3.8 3.8-3.8 3.8-3.8-3.8 3.8-3.8zm4.5 4.5l3.8 3.8-3.8 3.8-3.8-3.8 3.8-3.8zm4.6 4.5l3.8 3.8-3.8 3.8-3.8-3.8 3.8-3.8zm4.5 4.5l3.8 3.8-3.8 3.8-3.8-3.8 3.8-3.8zm4.5 4.5l3.8 3.8-3.8 3.8-3.8-3.8 3.8-3.8zm4.5 4.5l3.8 3.8-3.8 3.8-3.8-3.8 3.8-3.8zm4.5 4.5l3.8 3.8-3.8 3.8-3.8-3.8 3.8-3.8zm4.5 4.6l3.8 3.8-3.8 3.8-3.8-3.8 3.8-3.8zm4.5 4.5l3.8 3.8-3.8 3.8-3.8-3.8 3.8-3.8zm4.5 4.5l3.8 3.8-3.8 3.8-3.8-3.8 3.8-3.8zm.8-.8l3.8-3.8 3.8 3.8-3.8 3.8-3.8-3.8zm4.5-4.5l3.8-3.8 3.8 3.8-3.8 3.8-3.8-3.8zm4.5-4.5l3.8-3.8 3.8 3.8-3.8 3.8-3.8-3.8zm4.5-4.5l3.8-3.8 3.8 3.8-3.8 3.8-3.8-3.8zm4.5-4.5l3.8-3.8 3.8 3.8-3.8 3.8-3.8-3.8zm4.5-4.5l3.8-3.8 3.8 3.8-3.8 3.8-3.8-3.8zm4.5-4.5l3.8-3.8 3.8 3.8-3.8 3.8-3.8-3.8zm4.5-4.5l3.8-3.8 3.8 3.8-3.8 3.8-3.8-3.8zm4.5-4.5l3.8-3.8 3.8 3.8-3.8 3.8-3.8-3.8zm4.5-4.5l3.8-3.8 3.8 3.8-3.8 3.8-3.8-3.8zm4.5-4.6l3.8-3.8 3.8 3.8-3.8 3.8-3.8-3.8zm4.5-4.5l3.8-3.8 3.8 3.8-3.8 3.8-3.8-3.8zm-.7-.7l-3.8-3.8 3.8-3.8 3.8 3.8-3.8 3.8zm-4.5-4.5l-3.8-3.8 3.8-3.8 3.8 3.8-3.8 3.8zm-4.5-4.5l-3.8-3.8 3.8-3.8 3.8 3.8-3.8 3.8zm-4.5-4.5l-3.8-3.8 3.8-3.8 3.8 3.8-3.8 3.8zm-4.5-4.5l-3.8-3.8 3.8-3.8 3.8 3.8-3.8 3.8zm-4.5-4.5l-3.8-3.8 3.8-3.8 3.8 3.8-3.8 3.8zm-4.5-4.5l-3.8-3.8 3.8-3.8 3.8 3.8-3.8 3.8zm-4.6-4.6L92 83.5l3.8-3.8 3.8 3.8-3.8 3.8zm-4.5-4.5L87.5 79l3.8-3.8 3.8 3.8-3.8 3.8zm-4.5-4.5L83 74.5l3.8-3.8 3.8 3.8-3.8 3.8zm-4.5-4.5L78.6 70l3.8-3.8 3.8 3.8-3.9 3.8zm-4.5-4.5L74 65.5l3.8-3.8 3.8 3.8-3.8 3.8zm-.7.7l-3.8 3.8-3.8-3.8 3.8-3.8 3.8 3.8zm-4.5 4.6l-3.8 3.8-3.8-3.8 3.8-3.8 3.8 3.8zm-4.5 4.5l-3.8 3.8-3.8-3.8 3.8-3.8 3.8 3.8zm-4.6 4.5l-3.8 3.8-3.7-3.8 3.8-3.8 3.7 3.8zM59 88.1l-3.8 3.8-3.8-3.8 3.8-3.8 3.8 3.8zm-4.5 4.5l-3.8 3.8-3.7-3.8 3.8-3.8 3.7 3.8zM50 97.1l-3.8 3.8-3.8-3.8 3.8-3.8 3.8 3.8zm-4.5 4.5l-3.8 3.8-3.8-3.8 3.8-3.8 3.8 3.8zm-4.5 4.5l-3.8 3.8-3.8-3.8 3.8-3.8 3.8 3.8zm-4.5 4.5l-3.8 3.8-3.8-3.8 3.8-3.8 3.8 3.8zm-4.5 4.5l-3.8 3.8-3.8-3.8 3.8-3.8 3.8 3.8zm-4.5 4.5l-3.8 3.8-3.8-3.8 3.8-3.8 3.8 3.8zm-4.5 4.6l-3.8 3.8-3.8-3.8 3.8-3.8 3.8 3.8zm.7.7l3.8 3.8-3.8 3.8-3.8-3.8 3.8-3.8zm4.5 4.5l3.8 3.8-3.8 3.8-3.8-3.8 3.8-3.8zm4.5 4.5l3.8 3.8-3.8 3.8-3.8-3.8 3.8-3.8zm4.5 4.5l3.8 3.8-3.8 3.8-3.8-3.8 3.8-3.8zm4.5 4.5l3.8 3.8-3.8 3.8-3.8-3.8 3.8-3.8zm4.6 4.5l3.8 3.8-3.8 3.8-3.8-3.8 3.8-3.8zm4.5 4.5l3.8 3.8-3.8 3.8-3.8-3.8 3.8-3.8zm4.5 4.5l3.8 3.8-3.8 3.8-3.8-3.8 3.8-3.8zm4.5 4.6l3.8 3.8-3.8 3.8-3.8-3.8 3.8-3.8zm4.5 4.5l3.8 3.8-3.8 3.8-3.8-3.8 3.8-3.8zm4.5 4.5l3.8 3.8-3.8 3.8-3.8-3.8 3.8-3.8zm4.5 4.5l3.8 3.8-3.8 3.8-3.8-3.8 3.8-3.8zm4.5 4.5l3.8 3.8-3.8 3.8-3.8-3.8 3.8-3.8zm.8-.7l3.8-3.8 3.8 3.8-3.8 3.8-3.8-3.8zm4.5-4.6l3.8-3.8 3.8 3.8-3.8 3.8-3.8-3.8zm4.5-4.5l3.8-3.8 3.8 3.8-3.8 3.8-3.8-3.8zm4.5-4.5l3.8-3.8 3.8 3.8-3.8 3.8-3.8-3.8zm4.5-4.5l3.8-3.8 3.8 3.8-3.8 3.8-3.8-3.8zm4.5-4.5l3.8-3.8 3.8 3.8-3.8 3.8-3.8-3.8zm4.5-4.5l3.8-3.8 3.8 3.8-3.8 3.8-3.8-3.8zm4.5-4.5l3.8-3.8 3.8 3.8-3.8 3.8-3.8-3.8zm4.5-4.5l3.8-3.8 3.8 3.8-3.8 3.8-3.8-3.8zm4.5-4.5l3.8-3.8 3.8 3.8-3.8 3.8-3.8-3.8zm4.5-4.5l3.8-3.8 3.8 3.8-3.8 3.8-3.8-3.8zm4.5-4.5l3.8-3.8 3.8 3.8-3.8 3.8-3.8-3.8zm4.6-4.5l3.8-3.8 3.8 3.8-3.8 3.8-3.8-3.8zm4.5-4.6l3.8-3.8 3.8 3.8-3.8 3.8-3.8-3.8zm-.8-.7l-3.8-3.8 3.8-3.8 3.8 3.8-3.8 3.8zm-4.5-4.5l-3.8-3.8 3.8-3.8 3.8 3.8-3.8 3.8zm-4.5-4.5l-3.8-3.8 3.8-3.8 3.8 3.8-3.8 3.8zm-4.5-4.5l-3.8-3.8 3.8-3.8 3.8 3.8-3.8 3.8zm-4.5-4.5l-3.8-3.8 3.8-3.8 3.8 3.8-3.8 3.8zm-4.5-4.5l-3.8-3.8 3.8-3.8 3.8 3.8-3.8 3.8zm-4.5-4.5l-3.8-3.8 3.8-3.8 3.8 3.8-3.8 3.8zm-4.5-4.6l-3.8-3.8 3.8-3.8 3.8 3.8-3.8 3.8zm-4.5-4.5L96.6 79l3.8-3.8 3.8 3.8-3.8 3.8zm-4.6-4.5L92 74.5l3.8-3.8 3.8 3.8-3.8 3.8zm-4.5-4.5L87.6 70l3.8-3.8 3.8 3.8-3.9 3.8zm-4.5-4.5L83 65.5l3.8-3.8 3.8 3.8-3.8 3.8zm-4.5-4.5L78.6 61l3.8-3.8 3.8 3.8-3.9 3.8zm-4.5-4.5L74 56.5l3.8-3.8 3.8 3.8-3.8 3.8zm-.7.7l-3.8 3.8-3.8-3.8 3.8-3.8 3.8 3.8zm-4.5 4.5l-3.8 3.8-3.8-3.8 3.8-3.8 3.8 3.8zM68.1 70l-3.8 3.8-3.8-3.8 3.8-3.8 3.8 3.8zm-4.6 4.6l-3.8 3.8-3.7-3.8 3.8-3.8 3.7 3.8zM59 79.1l-3.8 3.8-3.8-3.8 3.8-3.8 3.8 3.8zm-4.5 4.5l-3.8 3.8-3.7-3.8 3.8-3.8 3.7 3.8zM50 88.1l-3.8 3.8-3.8-3.8 3.8-3.8 3.8 3.8zm-4.5 4.5l-3.8 3.8-3.7-3.8 3.8-3.8 3.7 3.8zM41 97.1l-3.8 3.8-3.8-3.8 3.8-3.8 3.8 3.8zm-4.5 4.5l-3.8 3.8-3.8-3.8 3.8-3.8 3.8 3.8zm-4.5 4.5l-3.8 3.8-3.8-3.8 3.8-3.8 3.8 3.8zm-4.5 4.5l-3.8 3.8-3.8-3.8 3.8-3.8 3.8 3.8zm-4.5 4.5l-3.8 3.8-3.8-3.8 3.8-3.8 3.8 3.8zm-4.5 4.5l-3.8 3.8-3.8-3.8 3.8-3.8 3.8 3.8zm-4.5 4.5l-3.8 3.8-3.8-3.8 3.8-3.8 3.8 3.8zm.7.8l3.8 3.8-3.8 3.8-3.8-3.8 3.8-3.8zm4.5 4.5l3.8 3.8-3.8 3.8-3.8-3.8 3.8-3.8zm4.5 4.5l3.8 3.8-3.8 3.8-3.8-3.8 3.8-3.8zm4.5 4.5l3.8 3.8-3.8 3.8-3.8-3.8 3.8-3.8zm4.5 4.5l3.8 3.8-3.8 3.8-3.8-3.8 3.8-3.8zm4.5 4.5l3.8 3.8-3.8 3.8-3.8-3.8 3.8-3.8zm4.5 4.5l3.8 3.8-3.8 3.8-3.8-3.8 3.8-3.8zm4.6 4.5l3.8 3.8-3.8 3.8-3.8-3.8 3.8-3.8zm4.5 4.6l3.8 3.8-3.8 3.8-3.8-3.8 3.8-3.8zm4.5 4.5l3.8 3.8-3.8 3.8-3.8-3.8 3.8-3.8zm4.5 4.5l3.8 3.8-3.8 3.8-3.8-3.8 3.8-3.8zm4.5 4.5l3.8 3.8-3.8 3.8-3.8-3.8 3.8-3.8zm4.5 4.5l3.8 3.8-3.8 3.8-3.8-3.8 3.8-3.8zm4.5 4.5l3.8 3.8-3.8 3.8-3.8-3.8 3.8-3.8zm4.5 4.5l3.8 3.8-3.8 3.8-3.8-3.8 3.8-3.8zm.8-.7l3.8-3.8 3.8 3.8-3.8 3.8-3.8-3.8zm4.5-4.5l3.8-3.8 3.8 3.8-3.8 3.8-3.8-3.8zm4.5-4.5l3.8-3.8 3.8 3.8-3.8 3.8-3.8-3.8zm4.5-4.6l3.8-3.8 3.8 3.8-3.8 3.8-3.8-3.8zm4.5-4.5l3.8-3.8 3.8 3.8-3.8 3.8-3.8-3.8zm4.5-4.5l3.8-3.8 3.8 3.8-3.8 3.8-3.8-3.8zm4.5-4.5l3.8-3.8 3.8 3.8-3.8 3.8-3.8-3.8zm4.5-4.5l3.8-3.8 3.8 3.8-3.8 3.8-3.8-3.8zm4.5-4.5l3.8-3.8 3.8 3.8-3.8 3.8-3.8-3.8zm4.5-4.5l3.8-3.8 3.8 3.8-3.8 3.8-3.8-3.8zm4.5-4.5l3.8-3.8 3.8 3.8-3.8 3.8-3.8-3.8zm4.5-4.5l3.8-3.8 3.8 3.8-3.8 3.8-3.8-3.8zm4.6-4.5l3.8-3.8 3.8 3.8-3.8 3.8-3.8-3.8zm4.5-4.5l3.8-3.8 3.8 3.8-3.8 3.8-3.8-3.8zm4.5-4.6l3.8-3.8 3.8 3.8-3.8 3.8-3.8-3.8zm4.5-4.5l3.8-3.8 3.8 3.8-3.8 3.8-3.8-3.8zm-.8-.7l-3.8-3.8 3.8-3.8 3.8 3.8-3.8 3.8zm-4.5-4.5l-3.8-3.8 3.8-3.8 3.8 3.8-3.8 3.8zm-4.5-4.5l-3.8-3.8 3.8-3.8 3.8 3.8-3.8 3.8zm-4.5-4.5l-3.8-3.8 3.8-3.8 3.8 3.8-3.8 3.8zm-4.5-4.5l-3.8-3.8 3.8-3.8 3.8 3.8-3.8 3.8zm-4.5-4.5l-3.8-3.8 3.8-3.8 3.8 3.8-3.8 3.8zm-4.5-4.5l-3.8-3.8 3.8-3.8 3.8 3.8-3.8 3.8zm-4.5-4.6l-3.8-3.8 3.8-3.8 3.8 3.8-3.8 3.8zm-4.5-4.5l-3.8-3.8 3.8-3.8 3.8 3.8-3.8 3.8zm-4.5-4.5l-3.8-3.8 3.8-3.8 3.8 3.8-3.8 3.8zm-4.5-4.5L96.6 70l3.8-3.8 3.8 3.8-3.8 3.8zm-4.6-4.5L92 65.5l3.8-3.8 3.8 3.8-3.8 3.8zm-4.5-4.5L87.6 61l3.8-3.8 3.8 3.8-3.9 3.8zm-4.5-4.5L83 56.5l3.8-3.8 3.8 3.8-3.8 3.8zm-4.5-4.5L78.6 52l3.8-3.8 3.8 3.8-3.9 3.8zm-4.5-4.5L74 47.5l3.8-3.8 3.8 3.8-3.8 3.8zm-.7.7l-3.8 3.8-3.8-3.8 3.8-3.8 3.8 3.8zm-4.5 4.5l-3.8 3.8-3.8-3.8 3.8-3.8 3.8 3.8zM68.1 61l-3.8 3.8-3.8-3.8 3.8-3.8 3.8 3.8zm-4.6 4.5l-3.8 3.8-3.7-3.8 3.8-3.8 3.7 3.8zM59 70l-3.8 3.8-3.7-3.8 3.8-3.8L59 70zm-4.5 4.6l-3.8 3.8-3.7-3.8 3.8-3.8 3.7 3.8zM50 79.1l-3.8 3.8-3.8-3.8 3.8-3.8 3.8 3.8zm-4.5 4.5l-3.8 3.8-3.7-3.8 3.8-3.8 3.7 3.8zM41 88.1l-3.8 3.8-3.8-3.8 3.8-3.8 3.8 3.8zm-4.5 4.5l-3.8 3.8-3.7-3.8 3.8-3.8 3.7 3.8zM32 97.1l-3.8 3.8-3.8-3.8 3.8-3.8 3.8 3.8zm-4.5 4.5l-3.8 3.8-3.8-3.8 3.8-3.8 3.8 3.8zm-4.5 4.5l-3.8 3.8-3.8-3.8 3.8-3.8 3.8 3.8zm-4.5 4.5l-3.8 3.8-3.8-3.8 3.8-3.8 3.8 3.8zm-4.5 4.5l-3.8 3.8-3.8-3.8 3.8-3.8 3.8 3.8zm-4.6 4.5l-3.8 3.8-3.8-3.8 3.8-3.8 3.8 3.8zm-4.5 4.5l-3.8 3.8-3.8-3.8 3.8-3.8 3.8 3.8zm.8.8l3.8 3.8-3.8 3.8-3.8-3.8 3.8-3.8zm4.5 4.5l3.8 3.8-3.8 3.8-3.8-3.8 3.8-3.8zm4.5 4.5l3.8 3.8-3.8 3.8-3.8-3.8 3.8-3.8zm4.5 4.5l3.8 3.8-3.8 3.8-3.8-3.8 3.8-3.8zm4.5 4.5l3.8 3.8-3.8 3.8-3.8-3.8 3.8-3.8zm4.5 4.5l3.8 3.8-3.8 3.8-3.8-3.8 3.8-3.8zm4.5 4.5l3.8 3.8-3.8 3.8-3.8-3.8 3.8-3.8zm4.5 4.5l3.8 3.8-3.8 3.8-3.8-3.8 3.8-3.8zm4.5 4.6l3.8 3.8-3.8 3.8-3.8-3.8 3.8-3.8zm4.6 4.5l3.8 3.8-3.8 3.8-3.8-3.8 3.8-3.8zm4.5 4.5l3.8 3.8-3.8 3.8-3.8-3.8 3.8-3.8zm4.5 4.5l3.8 3.8-3.8 3.8-3.8-3.8 3.8-3.8zm4.5 4.5l3.8 3.8-3.8 3.8-3.8-3.8 3.8-3.8zm4.5 4.5l3.8 3.8-3.8 3.8-3.8-3.8 3.8-3.8zm4.5 4.5l3.8 3.8-3.8 3.8-3.8-3.8 3.8-3.8zm4.5 4.5l3.8 3.8-3.8 3.8-3.8-3.8 3.8-3.8zm4.5 4.5l3.8 3.8-3.8 3.8-3.8-3.8 3.8-3.8zm.8-.7l3.8-3.8 3.8 3.8-3.8 3.8-3.8-3.8zm4.5-4.5l3.8-3.8 3.8 3.8-3.8 3.8-3.8-3.8zm4.5-4.5l3.8-3.8 3.8 3.8-3.8 3.8-3.8-3.8zm4.5-4.5l3.8-3.8 3.8 3.8-3.8 3.8-3.8-3.8zm4.5-4.5l3.8-3.8 3.8 3.8-3.8 3.8-3.8-3.8zm4.5-4.6l3.8-3.8 3.8 3.8-3.8 3.8-3.8-3.8zm4.5-4.5l3.8-3.8 3.8 3.8-3.8 3.8-3.8-3.8zm4.5-4.5l3.8-3.8 3.8 3.8-3.8 3.8-3.8-3.8zm4.5-4.5l3.8-3.8 3.8 3.8-3.8 3.8-3.8-3.8zm4.5-4.5l3.8-3.8 3.8 3.8-3.8 3.8-3.8-3.8zm4.5-4.5l3.8-3.8 3.8 3.8-3.8 3.8-3.8-3.8zm4.5-4.5l3.8-3.8 3.8 3.8-3.8 3.8-3.8-3.8zm4.6-4.5l3.8-3.8 3.8 3.8-3.8 3.8-3.8-3.8zm4.5-4.5l3.8-3.8 3.8 3.8-3.8 3.8-3.8-3.8zm4.5-4.5l3.8-3.8 3.8 3.8-3.8 3.8-3.8-3.8zm4.5-4.5l3.8-3.8 3.8 3.8-3.8 3.8-3.8-3.8zm4.5-4.6l3.8-3.8 3.8 3.8-3.8 3.8-3.8-3.8zm4.5-4.5l3.8-3.8 3.8 3.8-3.8 3.8-3.8-3.8zm-.7-.7l-3.8-3.8 3.8-3.8 3.8 3.8-3.8 3.8zm-4.6-4.5l-3.8-3.8 3.8-3.8 3.8 3.8-3.8 3.8zm-4.5-4.5l-3.8-3.8 3.8-3.8 3.8 3.8-3.8 3.8zm-4.5-4.5l-3.8-3.8 3.8-3.8 3.8 3.8-3.8 3.8zm-4.5-4.5l-3.8-3.8 3.8-3.8 3.8 3.8-3.8 3.8zm-4.5-4.5l-3.8-3.8 3.8-3.8 3.8 3.8-3.8 3.8zm-4.5-4.5l-3.8-3.8 3.8-3.8 3.8 3.8-3.8 3.8zm-4.5-4.6l-3.8-3.8 3.8-3.8 3.8 3.8-3.8 3.8zm-4.5-4.5l-3.8-3.8 3.8-3.8 3.8 3.8-3.8 3.8zm-4.5-4.5l-3.8-3.8 3.8-3.8 3.8 3.8-3.8 3.8zm-4.5-4.5l-3.8-3.8 3.8-3.8 3.8 3.8-3.8 3.8zm-4.5-4.5l-3.8-3.8 3.8-3.8 3.8 3.8-3.8 3.8zm-4.5-4.5L96.6 61l3.8-3.8 3.8 3.8-3.8 3.8zm-4.6-4.5L92 56.5l3.8-3.8 3.8 3.8-3.8 3.8zm-4.5-4.5L87.6 52l3.8-3.8 3.8 3.8-3.9 3.8zm-4.5-4.5L83 47.5l3.8-3.8 3.8 3.8-3.8 3.8zm-4.5-4.5L78.6 43l3.8-3.8 3.8 3.8-3.9 3.8zm-4.5-4.5L74 38.5l3.8-3.8 3.8 3.8-3.8 3.8zm-.7.7l-3.8 3.8-3.8-3.8 3.8-3.8 3.8 3.8zm-4.5 4.5l-3.8 3.8-3.8-3.8 3.8-3.8 3.8 3.8zM68.1 52l-3.8 3.8-3.8-3.8 3.8-3.8 3.8 3.8zm-4.6 4.5l-3.8 3.8-3.7-3.8 3.8-3.8 3.7 3.8zM59 61l-3.8 3.8-3.7-3.8 3.8-3.8L59 61zm-4.5 4.5l-3.8 3.8-3.7-3.8 3.8-3.8 3.7 3.8zM50 70l-3.8 3.8-3.7-3.8 3.8-3.8L50 70zm-4.5 4.6l-3.8 3.8-3.7-3.8 3.8-3.8 3.7 3.8zM41 79.1l-3.8 3.8-3.8-3.8 3.8-3.8 3.8 3.8zm-4.5 4.5l-3.8 3.8-3.7-3.8 3.8-3.8 3.7 3.8zM32 88.1l-3.8 3.8-3.8-3.8 3.8-3.8 3.8 3.8zm-4.5 4.5l-3.8 3.8-3.8-3.8 3.8-3.8 3.8 3.8zM23 97.1l-3.8 3.8-3.8-3.8 3.8-3.8 3.8 3.8zm-4.5 4.5l-3.8 3.8-3.8-3.8 3.8-3.8 3.8 3.8zm-4.5 4.5l-3.8 3.8-3.8-3.8 3.8-3.8 3.8 3.8zm-4.6 4.5l-3.8 3.8-3.8-3.8 3.8-3.8 3.8 3.8zm-4.5 4.5l-3.8 3.8-3.8-3.8 3.8-3.8 3.8 3.8zm-4.5 4.5l-3.8 3.8-3.8-3.8 3.8-3.8 3.8 3.8zm-4.5 4.6l-3.8 3.8-3.8-3.8 3.8-3.8 3.8 3.8zm.8.7l3.8 3.8-3.8 3.8-3.8-3.8 3.8-3.8zm4.5 4.5l3.8 3.8-3.8 3.8-3.8-3.8 3.8-3.8zm4.5 4.5l3.8 3.8-3.8 3.8-3.8-3.8 3.8-3.8zm4.5 4.5l3.8 3.8-3.8 3.8-3.8-3.8 3.8-3.8zm4.5 4.5l3.8 3.8-3.8 3.8-3.8-3.8 3.8-3.8zm4.5 4.5l3.8 3.8-3.8 3.8-3.8-3.8 3.8-3.8zm4.5 4.5l3.8 3.8-3.8 3.8-3.8-3.8 3.8-3.8zm4.5 4.5l3.8 3.8-3.8 3.8-3.8-3.8 3.8-3.8zm4.5 4.6l3.8 3.8-3.8 3.8-3.8-3.8 3.8-3.8zm4.5 4.5l3.8 3.8-3.8 3.8-3.8-3.8 3.8-3.8zm4.5 4.5l3.8 3.8-3.8 3.8-3.8-3.8 3.8-3.8zm4.6 4.5l3.8 3.8-3.8 3.8-3.8-3.8 3.8-3.8zm4.5 4.5l3.8 3.8-3.8 3.8-3.8-3.8 3.8-3.8zm4.5 4.5l3.8 3.8-3.8 3.8-3.8-3.8 3.8-3.8zm4.5 4.5l3.8 3.8-3.8 3.8-3.8-3.8 3.8-3.8zm4.5 4.5l3.8 3.8-3.8 3.8-3.8-3.8 3.8-3.8zm4.5 4.5l3.8 3.8-3.8 3.8-3.8-3.8 3.8-3.8zm4.5 4.5l3.8 3.8-3.8 3.8-3.8-3.8 3.8-3.8zm4.5 4.5l3.8 3.8-3.8 3.8-3.8-3.8 3.8-3.8zm.8-.7l3.8-3.8 3.8 3.8-3.8 3.8-3.8-3.8zm4.5-4.5l3.8-3.8 3.8 3.8-3.8 3.8-3.8-3.8zm4.5-4.5l3.8-3.8 3.8 3.8-3.8 3.8-3.8-3.8zm4.5-4.5l3.8-3.8 3.8 3.8-3.8 3.8-3.8-3.8zm4.5-4.5l3.8-3.8 3.8 3.8-3.8 3.8-3.8-3.8zm4.5-4.5l3.8-3.8 3.8 3.8-3.8 3.8-3.8-3.8zm4.5-4.5l3.8-3.8 3.8 3.8-3.8 3.8-3.8-3.8zm4.5-4.6l3.8-3.8 3.8 3.8-3.8 3.8-3.8-3.8zm4.5-4.5l3.8-3.8 3.8 3.8-3.8 3.8-3.8-3.8zm4.5-4.5l3.8-3.8 3.8 3.8-3.8 3.8-3.8-3.8zm4.5-4.5l3.8-3.8 3.8 3.8-3.8 3.8-3.8-3.8zm4.5-4.5l3.8-3.8 3.8 3.8-3.8 3.8-3.8-3.8zm4.6-4.5l3.8-3.8 3.8 3.8-3.8 3.8-3.8-3.8zm4.5-4.5l3.8-3.8 3.8 3.8-3.8 3.8-3.8-3.8zm4.5-4.5l3.8-3.8 3.8 3.8-3.8 3.8-3.8-3.8zm4.5-4.5l3.8-3.8 3.8 3.8-3.8 3.8-3.8-3.8zm4.5-4.5l3.8-3.8 3.8 3.8-3.8 3.8-3.8-3.8zm4.5-4.5l3.8-3.8 3.8 3.8-3.8 3.8-3.8-3.8zm4.5-4.5l3.8-3.8 3.8 3.8-3.8 3.8-3.8-3.8zm7.5-9.1l-3.8 3.8-3.8-3.8 3.8-3.8 3.8 3.8zm-4.5-4.5l-3.8 3.8-3.8-3.8 3.8-3.8 3.8 3.8zm-4.5-4.5l-3.8 3.8-3.8-3.8 3.8-3.8 3.8 3.8zm-4.5-4.5l-3.8 3.8-3.8-3.8 3.8-3.8 3.8 3.8zm-4.5-4.5l-3.8 3.8-3.8-3.8 3.8-3.8 3.8 3.8zm-4.5-4.5l-3.8 3.8-3.8-3.8 3.8-3.8 3.8 3.8zm-4.5-4.5l-3.8 3.8-3.8-3.8 3.8-3.8 3.8 3.8zm-4.5-4.5l-3.8 3.8-3.8-3.8 3.8-3.8 3.8 3.8zm-4.5-4.5l-3.8 3.8-3.8-3.8 3.8-3.8 3.8 3.8zm-4.5-4.5l-3.8 3.8-3.8-3.8 3.8-3.8 3.8 3.8zm-4.5-4.6l-3.8 3.8-3.8-3.8 3.8-3.8 3.8 3.8zm-4.5-4.5l-3.8 3.8-3.8-3.8 3.8-3.8 3.8 3.8zm-4.6-4.5l-3.8 3.8-3.8-3.8 3.8-3.8 3.8 3.8zm-4.5-4.5l-3.8 3.8-3.8-3.8 3.8-3.8 3.8 3.8zm-4.5-4.5l-3.8 3.8-3.7-3.8 3.8-3.8 3.7 3.8zm-4.5-4.5l-3.8 3.8-3.8-3.8 3.8-3.8 3.8 3.8zM95.1 43l-3.8 3.8-3.7-3.8 3.8-3.8 3.7 3.8zm-4.5-4.5l-3.8 3.8-3.8-3.8 3.8-3.8 3.8 3.8zM86.1 34l-3.8 3.8-3.7-3.8 3.8-3.8 3.7 3.8zm-8.3-8.3l3.8 3.8-3.8 3.8-3.8-3.8 3.8-3.8zm-4.5 4.5l3.8 3.8-3.8 3.8-3.8-3.8 3.8-3.8zm-4.5 4.5l3.8 3.8-3.8 3.8-3.8-3.8 3.8-3.8zm-4.5 4.5l3.8 3.8-3.8 3.8-3.8-3.8 3.8-3.8zm-4.5 4.5l3.8 3.8-3.8 3.8-3.8-3.8 3.8-3.8zm-4.5 4.5L59 52l-3.8 3.8-3.7-3.8 3.8-3.8zm-4.5 4.5l3.8 3.8-3.8 3.8-3.8-3.8 3.8-3.8zm-4.5 4.6L50 61l-3.8 3.8-3.7-3.8 3.8-3.7zm-4.6 4.5l3.8 3.8-3.8 3.8-3.7-3.9 3.7-3.7zm-4.5 4.5L41 70l-3.8 3.8-3.7-3.8 3.7-3.7zm-4.5 4.5l3.8 3.8-3.8 3.8-3.7-3.8 3.7-3.8zm-4.5 4.5l3.8 3.8-3.8 3.8-3.8-3.8 3.8-3.8zm-4.5 4.5l3.8 3.8-3.8 3.8-3.8-3.8 3.8-3.8zm-4.5 4.5l3.8 3.8-3.8 3.8-3.8-3.8 3.8-3.8zm-4.5 4.5l3.8 3.8-3.8 3.8-3.8-3.8 3.8-3.8zm-4.5 4.5l3.8 3.8-3.8 3.8-3.8-3.8 3.8-3.8zm-4.5 4.5l3.8 3.8-3.8 3.8-3.8-3.8 3.8-3.8zm-4.5 4.5l3.8 3.8-3.8 3.8-3.8-3.8 3.8-3.8zm-4.5 4.6l3.8 3.8-3.8 3.8-3.8-3.8 3.8-3.8zm-4.6 4.5l3.8 3.8-3.8 3.8-3.8-3.8 3.8-3.8zm-4.5 4.5l3.8 3.8-3.8 3.8-3.8-3.8 3.8-3.8zm-8.2 8.2l3.8-3.8 3.8 3.8-3.8 3.8-3.8-3.8zm4.5 4.6l3.8-3.8 3.8 3.8-3.8 3.8-3.8-3.8zm4.5 4.5l3.8-3.8 3.8 3.8-3.8 3.8-3.8-3.8zm4.5 4.5l3.8-3.8 3.8 3.8-3.8 3.8-3.8-3.8zm4.5 4.5l3.8-3.8 3.8 3.8-3.8 3.8-3.8-3.8zm4.5 4.5l3.8-3.8 3.8 3.8-3.8 3.8-3.8-3.8zm4.5 4.5l3.8-3.8 3.8 3.8-3.8 3.8-3.8-3.8zm4.5 4.5l3.8-3.8 3.8 3.8-3.8 3.8-3.8-3.8zm4.5 4.5l3.8-3.8 3.8 3.8-3.8 3.8-3.8-3.8zm4.5 4.5l3.8-3.8 3.8 3.8-3.8 3.8-3.8-3.8zm4.5 4.5l3.8-3.8 3.8 3.8-3.8 3.8-3.8-3.8zm4.6 4.5l3.8-3.8 3.8 3.8-3.8 3.8-3.8-3.8zm4.5 4.6l3.8-3.8 3.8 3.8-3.8 3.8-3.8-3.8zm4.5 4.5l3.8-3.8 3.8 3.8-3.8 3.8-3.8-3.8zm4.5 4.5l3.8-3.8 3.8 3.8-3.8 3.8-3.8-3.8zm4.5 4.5l3.8-3.8 3.8 3.8-3.8 3.8-3.8-3.8zm4.5 4.5l3.8-3.8 3.8 3.8-3.8 3.8-3.8-3.8zm4.5 4.5l3.8-3.8 3.8 3.8-3.8 3.8-3.8-3.8zm4.5 4.5l3.8-3.8 3.8 3.8-3.8 3.8-3.8-3.8zm4.5 4.5l3.8-3.8 3.8 3.8-3.8 3.8-3.8-3.8zm4.5 4.5l3.8-3.8 3.8 3.8-3.8 3.8-3.8-3.8zm8.3 8.3l-3.8-3.8 3.8-3.8 3.8 3.8-3.8 3.8zm4.5-4.5l-3.8-3.8 3.8-3.8 3.8 3.8-3.8 3.8zm4.5-4.5l-3.8-3.8 3.8-3.8 3.8 3.8-3.8 3.8zm4.5-4.5l-3.8-3.8 3.8-3.8 3.8 3.8-3.8 3.8zm4.5-4.5l-3.8-3.8 3.8-3.8 3.8 3.8-3.8 3.8zm4.6-4.5l-3.8-3.8 3.8-3.8 3.8 3.8-3.8 3.8zm4.5-4.5l-3.8-3.8 3.8-3.8 3.8 3.8-3.8 3.8zm4.5-4.6l-3.8-3.8 3.8-3.8 3.8 3.8-3.8 3.8zm4.5-4.5l-3.8-3.8 3.8-3.8 3.8 3.8-3.8 3.8zm4.5-4.5l-3.8-3.8 3.8-3.8 3.8 3.8-3.8 3.8zm4.5-4.5l-3.8-3.8 3.8-3.8 3.8 3.8-3.8 3.8zm4.5-4.5l-3.8-3.8 3.8-3.8 3.8 3.8-3.8 3.8zm4.5-4.5l-3.8-3.8 3.8-3.8 3.8 3.8-3.8 3.8zm4.5-4.5l-3.8-3.8 3.8-3.8 3.8 3.8-3.8 3.8zm4.5-4.5l-3.8-3.8 3.8-3.8 3.8 3.8-3.8 3.8zm4.5-4.5l-3.8-3.8 3.8-3.8 3.8 3.8-3.8 3.8zm4.6-4.5l-3.8-3.8 3.8-3.8 3.8 3.8-3.8 3.8zm4.5-4.5l-3.8-3.8 3.8-3.8 3.8 3.8-3.8 3.8zm4.5-4.6l-3.8-3.8 3.8-3.8 3.8 3.8-3.8 3.8zm4.5-4.5l-3.8-3.8 3.8-3.8 3.8 3.8-3.8 3.8zm4.5-4.5l-3.8-3.8 3.8-3.8 3.8 3.8-3.8 3.8zm4.5-4.5l-3.8-3.8 3.8-3.8 3.8 3.8-3.8 3.8z" clip-path="url(#SVGID_2_)" fill="#adadad"/><path d="M109.4 58.4v1l1.7 1v151.9h1.2V59.7l-8.2-4.6h-.6zm24.8-3.2l7.6 5.2v152h1.2V59.7l-6.9-4.6H135zm-12.9 5.2v151.9h1.2V59.7l-.3-.2h-2.4zm10.3 0v151.9h1.2V59.7l-.3-.2H130z" opacity=".8" fill="#295ba9"/><defs><path id="SVGID_3_" d="M99.7 203.4c-.1 0-.2 0-.3-.1L43.6 166c-.2-.1-.3-.3-.3-.5V55.7c0-.3.3-.6.6-.6s.6.3.6.6v109.4l54.6 36.5V62.9l-9.7-6.6c-.3-.2-.3-.6-.2-.8.2-.3.5-.3.8-.2l9.9 6.8c.2.1.3.3.3.5v140.2c0 .2-.1.4-.3.5 0 0-.1.1-.2.1z"/></defs><use xlink:href="#SVGID_3_" overflow="visible" fill="#747577"/><clipPath id="SVGID_4_"><use xlink:href="#SVGID_3_" overflow="visible"/></clipPath><path clip-path="url(#SVGID_4_)" fill="#747577" d="M39.8 55.8V172l64.1 43.3V59.4l-5.7-3.6z"/><path class="st3" d="M150.2 216h-5.4c-.1 0-.2 0-.3-.1l-2.9-1.3h-29.9l-2.7 1.3c-.1 0-.2.1-.3.1h-5.6c-.4 0-.7-.3-.7-.7v-.2l-63-42.6c-.2-.1-.3-.3-.3-.6V55.1c0-.2.1-.3.2-.5s.3-.2.5-.2h104.8c.1 0 .3 0 .4.1l4.5 2.9h.9c.4 0 .7.3.7.7v157.1c0 .2-.1.4-.2.5-.3.2-.5.3-.7.3zm-46.5-1.4h4.8l2.7-1.3c.1 0 .2-.1.3-.1h30.2c.1 0 .2 0 .3.1l2.9 1.3h4.6V58.9h-.5c-.1 0-.3 0-.4-.1l-4.5-2.9h-104v115.8l63 42.6c.5 0 .6.2.6.3z"/></g></svg>