<svg version="1.1" id="图层_1" xmlns="http://www.w3.org/2000/svg" xmlns:xlink="http://www.w3.org/1999/xlink" x="0" y="0" width="190" height="220" xml:space="preserve"><style>.st0{fill:#eaeaea}.st1{fill:#e5e5e5}.st2{fill:#adadad}.st3{fill:#747577}.st7{fill:#fff}</style><path class="st0" d="M0 0v220h190V0H0z"/><path class="st1" d="M0 0h190v56H0z"/><path class="st2" d="M0 0h190v3H0z"/><path class="st3" d="M0 53h190v3H0z"/><path class="st1" d="M0 164h190v56H0z"/><path class="st2" d="M0 164h190v3H0z"/><path class="st3" d="M0 217h190v3H0z"/><g><path fill="#d6d7d7" d="M150 214.7h-4.6l-3.2-1.4h-30.4l-2.8 1.4h-5.1V58.8H150z"/><path fill="#c1c1c1" d="M39.8 55.2v116.2l64.1 43.3V58.8l-5.7-3.6z"/><path fill="#cecece" d="M98.2 55.2l5.7 3.6h4.9l2.9 1.2 30.7.1 3.2-1.3h4.4l-5.5-3.6z"/><path class="st7" d="M89.8 55.2l9.9 6.7v140.3l-55.8-37.3V55.2z"/><path class="st0" d="M139.2 55.1l5.8 4v154.6h1.2V58.5l-5.1-3.4H140zm-35.7 0h-2l6.7 4v154.7h1.2V58.4z"/><path class="st7" d="M145.6 58.2l-3.3 1.3h-30.5l-2.8-1.2h-5.2l-4.6-3h-1.9l5.7 3.9v156.2h5.6l2.9-1.4h30.2l3.1 1.3h5.4V58.2h-4.6zm3.4 155.9h-3.9l-3.1-1.3h-30.7l-2.9 1.4h-4.3V59.4h4.4l2.8 1.2 31 .1 3.3-1.3h3.3v154.7z"/><path fill="none" d="M39.8 55.2v116.2l64.1 43.3V58.8l-5.7-3.6z"/><path d="M109.4 58.4v1l1.7 1v151.9h1.2V59.7l-8.2-4.6h-.6zm24.8-3.2l7.6 5.2v152h1.2V59.7l-6.9-4.6H135zm-12.9 5.2v151.9h1.2V59.7l-.3-.2h-2.4zm10.3 0v151.9h1.2V59.7l-.3-.2H130z" opacity=".8" fill="#295ba9"/><defs><path id="SVGID_1_" d="M99.7 203.4c-.1 0-.2 0-.3-.1L43.6 166c-.2-.1-.3-.3-.3-.5V55.7c0-.3.3-.6.6-.6s.6.3.6.6v109.4l54.6 36.5V62.9l-9.7-6.6c-.3-.2-.3-.6-.2-.8.2-.3.5-.3.8-.2l9.9 6.8c.2.1.3.3.3.5v140.2c0 .2-.1.4-.3.5 0 0-.1.1-.2.1z"/></defs><use xlink:href="#SVGID_1_" overflow="visible" fill="#747577"/><clipPath id="SVGID_2_"><use xlink:href="#SVGID_1_" overflow="visible"/></clipPath><path clip-path="url(#SVGID_2_)" fill="#747577" d="M39.8 55.8V172l64.1 43.3V59.4l-5.7-3.6z"/><path class="st3" d="M150.2 216h-5.4c-.1 0-.2 0-.3-.1l-2.9-1.3h-29.9l-2.7 1.3c-.1 0-.2.1-.3.1h-5.6c-.4 0-.7-.3-.7-.7v-.2l-63-42.6c-.2-.1-.3-.3-.3-.6V55.1c0-.2.1-.3.2-.5s.3-.2.5-.2h104.8c.1 0 .3 0 .4.1l4.5 2.9h.9c.4 0 .7.3.7.7v157.1c0 .2-.1.4-.2.5-.3.2-.5.3-.7.3zm-46.5-1.4h4.8l2.7-1.3c.1 0 .2-.1.3-.1h30.2c.1 0 .2 0 .3.1l2.9 1.3h4.6V58.9h-.5c-.1 0-.3 0-.4-.1l-4.5-2.9h-104v115.8l63 42.6c.5 0 .6.2.6.3z"/><defs><path id="SVGID_3_" d="M89.8 55.7l9.9 6.8v140.3l-55.8-37.3V55.7z"/></defs><clipPath id="SVGID_4_"><use xlink:href="#SVGID_3_" overflow="visible"/></clipPath><path d="M48.6 120.5h14.1v33.2H48.6zm0-64.8h14.1v33.2H48.6z" clip-path="url(#SVGID_4_)" fill="#747577"/><g clip-path="url(#SVGID_4_)"><path d="M57.1 124.4H53v6.5h-.1l59.1 37.9 4.2-6.6-59.1-37.8zm0 14.3v-.1H53v6.6h-.1l59.1 37.9 4.2-6.6-59.1-37.8zm59.1-41.3L57.1 59.5H53v6.6h-.1L112 104zM57.1 73.8H53v6.6h-.1l59.1 37.9 4.2-6.6-59.1-37.9z" fill="#0072ce"/></g><path opacity=".5" fill="#0072ce" d="M89.8 55.7l9.9 6.8v140.3l-55.8-37.3V55.7z"/></g></svg>