<svg version="1.1" id="图层_1" xmlns="http://www.w3.org/2000/svg" x="0" y="0" width="57.8" height="227.2" xml:space="preserve"><style>.st0{fill:#d1d2d4}.st1{fill:#747577}</style><path class="st0" d="M50.6 111.3L8.3 99.8c-.7-.3-1.3-.9-1.7-1.6H.9c.9 3.2 3.3 6.1 6.3 6.9l42.2 11.6c1.4.7 2.5 2.3 2.5 4 0 1.3-.7 2.2-1.6 2.5l-43.1-12c-3.6-1-6.6 1.5-6.6 5.6v2.6c0 4.1 2.9 8.3 6.6 9.4L49.4 141c1.4.7 2.5 2.4 2.5 4 0 1.3-.7 2.3-1.8 2.5L7.1 135c-3.6-1.1-6.6 1.4-6.6 5.6v2.6c0 4.1 2.9 8.4 6.6 9.5l42.2 12.7c1.4.7 2.5 2.4 2.5 4 0 1.3-.7 2.2-1.6 2.5L7.1 158.7c-3.6-1.1-6.6 1.3-6.6 5.5v2.6c0 4.1 2.9 8.4 6.6 9.5l42.2 13.2c1.4.7 2.5 2.4 2.5 4.1 0 1.3-.7 2.3-1.8 2.5L7.1 182.6C3.5 181.4.5 183.9.5 188v2.6c0 4.1 2.9 8.4 6.6 9.6L49.4 214c1.4.7 2.5 2.5 2.5 4.1 0 1.9-1.4 2.9-3 2.4L6.7 206.6s-.1 0-.1-.1v5.6l44 14.7c3.8 1.3 7-1.1 7-5.4v-2.7c0-4.3-3.1-8.7-7-10L8.3 195c-1.3-.7-2.3-2.4-2.3-4 0-1.3.7-2.2 1.7-2.4l43 13.8c3.8 1.2 7-1.2 7-5.5v-2.7c0-4.3-3.1-8.7-7-9.9L8.3 171.1c-1.3-.7-2.3-2.3-2.3-3.9 0-1.3.6-2.1 1.6-2.4l43 13.2c3.8 1.2 7-1.3 7-5.6v-2.7c0-4.3-3.1-8.6-7-9.8L8.3 147.4c-1.3-.7-2.3-2.3-2.3-3.9 0-1.3.7-2.2 1.7-2.5l43 12.6c3.8 1.1 7-1.4 7-5.7v-2.7c0-4.3-3.1-8.6-7-9.7l-42.3-12c-1.4-.6-2.4-2.2-2.4-3.8 0-1.3.6-2.2 1.6-2.5l43.1 12.1c3.8 1.1 7-1.5 7-5.8v-2.7c-.1-4.2-3.2-8.5-7.1-9.5z"/><path class="st1" d="M52.7 227.2c-.7 0-1.4-.1-2.1-.4L6.5 212.2v-5.9l.2.1h.1l42.1 13.9c.7.2 1.4.2 1.9-.2.6-.4.9-1.1.9-2 0-1.6-1-3.2-2.4-4L7.1 200.4c-3.7-1.2-6.7-5.6-6.7-9.8V188c0-2.1.8-3.9 2.2-5 1.3-.9 2.9-1.1 4.6-.6L50.1 196c1-.2 1.6-1.1 1.6-2.3 0-1.6-1-3.2-2.4-3.9L7.1 176.5c-3.7-1.2-6.7-5.5-6.7-9.7v-2.6c0-2.1.8-4 2.2-5 1.3-.9 2.9-1.2 4.6-.6l43 13.1c.9-.3 1.5-1.1 1.5-2.3 0-1.6-1-3.2-2.4-3.9L7.1 152.8c-3.7-1.1-6.7-5.4-6.7-9.6v-2.6c0-2.1.8-4 2.2-5 1.3-.9 2.9-1.2 4.6-.7l42.9 12.5c1-.2 1.6-1.1 1.6-2.4 0-1.6-1-3.2-2.4-3.9L7.1 129c-3.7-1.1-6.7-5.3-6.7-9.5v-2.6c0-2.1.8-4 2.2-5.1 1.3-1 2.9-1.2 4.6-.7l43 12c.9-.3 1.5-1.2 1.5-2.3 0-1.6-1-3.2-2.4-3.8L7.1 105.2c-2.9-.8-5.5-3.6-6.4-7L.6 98h6.1v.1c.4.7 1 1.3 1.6 1.6l42.3 11.5c3.9 1.1 7.1 5.4 7.1 9.8v2.7c0 2.2-.8 4-2.3 5.1-1.3 1-3.1 1.3-4.9.8l-43-12.1c-.9.3-1.4 1.2-1.4 2.3 0 1.5 1 3.1 2.3 3.7l42.3 12c3.9 1.1 7.1 5.5 7.1 9.8v2.7c0 2.2-.8 4-2.3 5.1-1.3 1-3.1 1.3-4.9.7L7.7 141.2c-.9.2-1.5 1.1-1.5 2.3 0 1.5 1 3.1 2.3 3.8l42.3 12.6c3.9 1.2 7.1 5.6 7.1 9.9v2.7c0 2.2-.8 4-2.3 5.1-1.3 1-3.1 1.2-4.9.7L7.6 165c-.9.3-1.4 1.1-1.4 2.2 0 1.5 1 3.1 2.3 3.8l42.3 13.1c3.9 1.2 7.1 5.7 7.1 10v2.7c0 2.2-.8 4-2.2 5-1.3 1-3.1 1.2-4.9.6L7.7 188.8c-.9.2-1.5 1.1-1.5 2.3 0 1.5 1 3.1 2.3 3.8l42.3 13.7c3.9 1.3 7.1 5.8 7.1 10.1v2.7c0 2.2-.8 4-2.2 5-1 .5-2 .8-3 .8zM6.8 211.9l43.9 14.6c1.7.6 3.4.4 4.6-.5 1.4-1 2.1-2.7 2.1-4.7v-2.7c0-4.2-3.1-8.6-6.8-9.8L8.3 195.1c-1.4-.8-2.5-2.5-2.5-4.1 0-1.3.7-2.4 1.8-2.6l43 13.8c1.7.6 3.4.4 4.6-.6 1.4-1 2.1-2.7 2.1-4.8v-2.7c0-4.2-3.1-8.5-6.8-9.7L8.3 171.3c-1.4-.8-2.5-2.5-2.5-4.1 0-1.3.6-2.3 1.7-2.6l43.1 13.2c1.7.5 3.4.3 4.6-.6 1.4-1 2.1-2.7 2.1-4.8v-2.7c0-4.2-3.1-8.5-6.8-9.6L8.3 147.5c-1.4-.7-2.5-2.4-2.5-4.1 0-1.3.7-2.4 1.8-2.6l43 12.6c1.7.5 3.4.3 4.6-.7 1.4-1 2.1-2.7 2.1-4.8v-2.7c0-4.2-3.1-8.5-6.8-9.5l-42.3-12c-1.4-.7-2.5-2.4-2.5-4 0-1.3.6-2.3 1.7-2.6l43.1 12.1c1.7.5 3.4.2 4.6-.7 1.4-1 2.1-2.8 2.1-4.9v-2.7c0-4.2-3.1-8.4-6.8-9.4L8.3 99.9c-.7-.3-1.3-.9-1.7-1.6H1.1c.9 3.2 3.3 5.8 6.1 6.6l42.2 11.6c1.5.7 2.6 2.5 2.6 4.1 0 1.3-.7 2.3-1.8 2.7l-43.1-12c-1.6-.4-3.1-.2-4.3.7-1.3 1-2.1 2.8-2.1 4.8v2.6c0 4.1 2.9 8.2 6.5 9.2l42.2 12.2c1.5.7 2.6 2.5 2.6 4.2 0 1.4-.7 2.4-1.9 2.7l-43-12.6c-1.6-.5-3.1-.2-4.3.6-1.3 1-2.1 2.7-2.1 4.8v2.6c0 4.1 2.9 8.2 6.5 9.3l42.2 12.7c1.5.8 2.6 2.5 2.6 4.2 0 1.3-.7 2.3-1.8 2.6l-43.1-13c-1.6-.5-3.1-.3-4.3.6-1.3 1-2.1 2.7-2.1 4.7v2.6c0 4.1 2.9 8.3 6.5 9.4l42.2 13.2c1.5.8 2.6 2.6 2.6 4.2 0 1.4-.7 2.4-1.9 2.6l-43-13.5c-1.6-.5-3.2-.3-4.3.5-1.3 1-2 2.7-2 4.7v2.6c0 4.1 2.9 8.3 6.5 9.5l42.2 13.8c1.5.8 2.6 2.6 2.6 4.3 0 1-.4 1.8-1 2.3-.6.4-1.4.5-2.2.3l-42-13.9v5.1z"/><path class="st0" d="M51.1 104.7s.1 0 5.3 1.5v-5.7l-8.8-2.3H26.5l24.6 6.5z"/><path class="st1" d="M56.6 106.4l-.2-.1c-4.4-1.2-5.2-1.4-5.3-1.4v-.2.2L25.3 98h22.4l8.9 2.4v6zm-5.5-1.8c.2.1 1 .3 5.1 1.4v-5.4l-8.6-2.3H27.7l23.4 6.3z"/><g><path class="st1" d="M23 24v24h3v36h5V48h3V24z"/><path class="st0" d="M33 24h-9v23h3v36h3V47h3z"/><path class="st1" d="M22 41.9h13c.6 0 1-.5 1-1V37c0-.6-.5-1-1-1H22c-.6 0-1 .5-1 1v3.8c0 .6.5 1.1 1 1.1zM2.3 24.5h52.5c1.3 0 2.3-1 2.3-2.3V2.3C57 1 56 0 54.7 0H2.3C1 0 0 1 0 2.3v19.9c0 1.3 1 2.3 2.3 2.3z"/></g></svg>