<svg version="1.1" id="图层_1" xmlns="http://www.w3.org/2000/svg" x="0" y="0" width="34" height="34" xml:space="preserve"><style>.st1{fill:#fff}</style><path fill="none" d="M0 0h34v34H0z"/><path class="st1" d="M22.7 17.1L16.8 12c-.3-.2-.3-.6-.1-.9.1-.1.2-.2.4-.2s.3 0 .4.1l6.3 5.6c.2.1.2.4.2.6 0 .2-.1.4-.2.6l-6.3 5.6c-.1.1-.3.2-.4.1-.2 0-.3-.1-.4-.2-.2-.3-.2-.7.1-.9l5.9-5.3zm0 0"/><path class="st1" d="M17.2 23.4c-.2 0-.4-.1-.5-.2-.2-.3-.2-.7.1-.9l5.9-5.1-5.9-5.2c-.3-.2-.3-.6-.1-.9.1-.1.3-.2.4-.2.2 0 .3 0 .5.1l6.3 5.6c.2.1.2.4.2.6 0 .2-.1.4-.2.6l-6.3 5.6h-.4zm0-12.5c-.2 0-.4.1-.5.2-.2.3-.2.7.1.9l5.9 5.2-5.9 5.2c-.3.2-.3.6-.1.9.1.1.2.2.4.2h.1c.1 0 .3-.1.4-.1l6.3-5.6c.2-.1.2-.4.2-.6 0-.2 0-.4-.2-.6L17.6 11c-.1-.1-.3-.1-.4-.1z"/><path class="st1" d="M22.7 17.6H8c-.3 0-.6-.3-.6-.6s.3-.6.6-.6h14.7c.3 0 .6.3.6.6s-.3.6-.6.6z"/><path class="st1" d="M22.7 17.6H8c-.3 0-.6-.3-.6-.6s.3-.6.6-.6h14.7c.3 0 .6.3.6.6s-.3.6-.6.6zM8 16.4c-.3 0-.6.3-.6.6s.3.6.6.6h14.7c.3 0 .6-.3.6-.6s-.3-.6-.6-.6H8z"/><g><path class="st1" d="M23.3 2.6H8c-.3 0-.5.3-.5.6s.2.5.5.6h15.3c1.2 0 2.2 1 2.2 2.3V28c0 1.3-.9 2.3-2.2 2.3H7.9c-.3 0-.5.3-.5.6s.2.5.5.6H23.2c1.8 0 3.4-1.5 3.4-3.5V6.1c0-2-1.4-3.5-3.3-3.5z"/><path class="st1" d="M23.3 31.5H7.9c-.3 0-.5-.3-.5-.6s.2-.6.5-.6h15.3c1.2 0 2.2-1 2.2-2.3V6.1c0-1.3-1-2.3-2.2-2.3H7.9c-.3 0-.5-.3-.5-.6s.2-.6.5-.6h15.3c.9 0 1.8.4 2.4 1 .6.7 1 1.5 1 2.5V28c0 1.9-1.5 3.5-3.3 3.5zm-15.4-.1h15.3c1.8 0 3.3-1.6 3.3-3.5V6.1c0-2-1.5-3.5-3.3-3.5H7.9c-.3 0-.5.3-.5.6s.2.5.5.6h15.3c1.2 0 2.2 1.1 2.2 2.3V28c0 1.3-1 2.3-2.2 2.3H7.9c-.3 0-.5.3-.5.6s.2.5.5.5z"/></g></svg>