<svg xmlns="http://www.w3.org/2000/svg" width="34" height="34"><path fill="none" d="M0 0h34v34H0z"/><path d="M2.6 20.2c-.3 0-.6-.3-.6-.6v-5.2c0-.3.3-.6.6-.6s.6.3.6.6v5.2c0 .3-.3.6-.6.6zm3.6 4.2c-.3 0-.6-.3-.6-.6V10.2c0-.3.3-.6.6-.6s.6.3.6.6v13.5c0 .4-.3.7-.6.7zM17 20.2c-.3 0-.6-.3-.6-.6v-5.2c0-.3.3-.6.6-.6s.6.3.6.6v5.2c0 .3-.3.6-.6.6zm7.2 6.2c-.3 0-.6-.3-.6-.6V8.2c0-.3.3-.6.6-.6s.6.3.6.6v17.7c0 .3-.3.5-.6.5zm-10.8-2c-.3 0-.6-.3-.6-.6V10.2c0-.3.3-.6.6-.6s.6.3.6.6v13.5c0 .4-.3.7-.6.7zm7.2 0c-.3 0-.6-.3-.6-.6V10.2c0-.3.3-.6.6-.6s.6.3.6.6v13.5c0 .4-.3.7-.6.7zm10.8-4.2c-.3 0-.6-.3-.6-.6v-5.2c0-.3.3-.6.6-.6s.6.3.6.6v5.2c0 .3-.3.6-.6.6zm-3.6 4.2c-.3 0-.6-.3-.6-.6V10.2c0-.3.3-.6.6-.6s.6.3.6.6v13.5c0 .4-.3.7-.6.7zm-18 5.1c-.3 0-.6-.3-.6-.6V5.1c0-.3.3-.6.6-.6s.6.3.6.6v23.8c0 .4-.3.6-.6.6z" fill="#fff"/></svg>