<svg version="1.1" id="图层_1" xmlns="http://www.w3.org/2000/svg" x="0" y="0" width="34" height="34" xml:space="preserve"><style>.st0{fill:#fff}</style><path class="st0" d="M17.5 31.4H9.2c-1.9 0-3.4-1.5-3.4-3.5V16.2c0-.3.3-.6.6-.6s.6.3.6.6v11.7c0 1.3 1 2.3 2.2 2.3h8.4c1.2 0 2.2-1 2.2-2.3V6.1c0-1.3-1-2.3-2.2-2.3H9.2C7.9 3.7 7 4.7 7 6.1v10.5c0 .3-.3-.7-.6-.7s-.6 1-.6.7V6.1c0-1.9 1.5-3.5 3.4-3.5h8.4c1.9 0 3.4 1.5 3.4 3.5V28c-.1 1.9-1.6 3.4-3.5 3.4zM25.8 2.6h-2.3c-1.3 0-2.4 1.1-2.4 2.4v24c0 1.3 1.1 2.4 2.4 2.4h2.3c1.3 0 2.4-1.1 2.4-2.3V5c0-1.4-1.1-2.4-2.4-2.4zm1.3 26.5c0 .7-.6 1.2-1.2 1.2h-2.3c-.7 0-1.2-.6-1.2-1.2V5c0-.7.6-1.2 1.2-1.2h2.3c.7 0 1.2.6 1.2 1.2v24.1z"/><path class="st0" d="M13.7 20.9c-2.6 0-4.7-2-4.7-4.6 0-2.6 2.1-4.6 4.7-4.6s4.7 2 4.7 4.6c-.1 2.6-2.1 4.6-4.7 4.6zm0-8.7c-2.3 0-4.2 1.9-4.2 4.2 0 2.3 1.9 4.2 4.2 4.2 2.3 0 4.2-1.9 4.2-4.2 0-2.3-1.9-4.2-4.2-4.2zm0 0"/><path class="st0" d="M13.7 20.3c-2.2 0-4-1.8-4-3.9 0-2.2 1.8-3.9 4-3.9s4 1.8 4 3.9c0 2.1-1.8 3.9-4 3.9zm0-7.5c-2 0-3.6 1.6-3.6 3.6s1.6 3.6 3.6 3.6 3.6-1.6 3.6-3.6-1.6-3.6-3.6-3.6zm0 0"/><path class="st0" d="M13.7 17.7c-.7 0-1.3-.6-1.3-1.3 0-.7.6-1.3 1.3-1.3.7 0 1.3.6 1.3 1.3 0 .7-.6 1.3-1.3 1.3zm0-2.3c-.5 0-.9.4-.9.9s.4.9.9.9.9-.4.9-.9-.4-.9-.9-.9zm0 0"/><path fill="none" d="M0 0h34v34H0z"/></svg>