<svg xmlns="http://www.w3.org/2000/svg" version="1.1" id="图层_1" x="0" y="0" width="34" height="34" xml:space="preserve"><style>.st1{fill:#fff}</style><path fill="none" d="M0 0h34v34H0z"/><path class="st1" d="M8.9 32h-.2c-.3-.1-.4-.5-.3-.8l8.1-19.4c.1-.3.5-.4.8-.3.3.1.4.5.3.8L9.4 31.6c-.1.3-.3.4-.5.4z"/><path class="st1" d="M25.1 32c-.2 0-.5-.1-.6-.4l-8.1-19.4c-.1-.3 0-.7.3-.8.3-.1.7 0 .8.3l8.1 19.4c.1.3 0 .7-.3.8 0 .1-.1.1-.2.1z"/><path class="st1" d="M21.9 24.4H12c-.3 0-.6-.3-.6-.6s.3-.6.6-.6h9.9c.3 0 .6.3.6.6s-.2.6-.6.6zM26.1 7H7.9c-.3 0-.6-.3-.6-.6s.3-.6.6-.6h16.7L22 3c-.2-.2-.2-.6 0-.8.2-.2.6-.2.8 0L26.5 6c.2.2.2.4.1.7s-.3.3-.5.3z"/><path class="st1" d="M22.4 10.8c-.2 0-.3-.1-.4-.2-.2-.2-.2-.6 0-.8L25.7 6c.2-.2.6-.2.8 0 .2.2.2.6 0 .8l-3.7 3.8c-.1.1-.2.2-.4.2z"/></svg>