<svg xmlns="http://www.w3.org/2000/svg" version="1.1" id="图层_1" x="0" y="0" width="34" height="34" xml:space="preserve"><style>.st1{fill:#fff}</style><path fill="none" d="M0 0h34v34H0z"/><path class="st1" d="M13.9 24.2h-.2c-.3-.1-.5-.5-.3-.8l5.5-13.1c.1-.3.5-.5.8-.3.3.1.5.5.3.8l-5.5 13.1c-.1.1-.3.3-.6.3z"/><path class="st1" d="M13.9 24.2c-.2 0-.5-.1-.6-.4L7.9 10.7c-.1-.3 0-.7.3-.8.3-.1.7 0 .8.3l5.5 13.1c.1.3 0 .7-.3.8-.1.1-.2.1-.3.1zm9.1 0c-.3 0-.6-.3-.6-.6V11.9l-1.5 1.5c-.2.2-.6.2-.8 0-.2-.2-.2-.6 0-.8l2.5-2.5c.2-.2.4-.2.7-.1.2.1.4.3.4.6v13.1c-.1.2-.4.5-.7.5z"/><path class="st1" d="M25.6 13.5c-.2 0-.3-.1-.4-.2l-2.5-2.5c-.2-.2-.2-.6 0-.8.2-.2.6-.2.8 0l2.5 2.5c.2.2.2.6 0 .8-.1.2-.3.2-.4.2z"/><path class="st1" d="M17 32.6c-8.6 0-15.6-7-15.6-15.6S8.4 1.4 17 1.4s15.6 7 15.6 15.6-7 15.6-15.6 15.6zm0-30C9.1 2.6 2.6 9.1 2.6 17S9.1 31.4 17 31.4 31.4 25 31.4 17c0-7.9-6.5-14.4-14.4-14.4z"/></svg>