<svg version="1.1" id="图层_1" xmlns="http://www.w3.org/2000/svg" x="0" y="0" width="34" height="34" xml:space="preserve"><style>.st0{fill:#fff}</style><path class="st0" d="M28.6 22.4H5.4c-2.1 0-3.8-1.7-3.8-3.8v-7.5c0-2.1 1.7-3.8 3.8-3.8h23.1c2.1 0 3.8 1.7 3.8 3.8v7.5c0 2.1-1.7 3.8-3.7 3.8zM5.4 8.5c-1.4 0-2.6 1.2-2.6 2.6v7.5c0 1.4 1.2 2.6 2.6 2.6h23.1c1.4 0 2.6-1.2 2.6-2.6v-7.5c0-1.4-1.2-2.6-2.6-2.6H5.4zM19.8 27.1c0 1.1-1.3 2.1-2.8 2.1-1.6 0-2.8-.9-2.8-2.1"/><path class="st0" d="M8.2 8.2c1.9-2.8 5.2-4.6 8.9-4.6 3.6 0 6.9 1.8 8.8 4.6h1.3C25.1 4.8 21.3 2.5 17 2.5c-4.3 0-8.1 2.3-10.1 5.7h1.3zM27.6 21.6c-.9 5-5.3 8.8-10.5 8.8H17c-5.2 0-9.6-3.8-10.5-8.8H5.3c.9 5.6 5.8 9.9 11.7 9.9 5.9 0 10.8-4.3 11.7-9.9h-1.1zM12.2 11.2H10c-.3 0-.6-.3-.6-.6s.3-.6.6-.6h2.3c.3 0 .6.3.6.6-.1.3-.3.6-.7.6zM14.4 11.1c-.3 0-.5-.2-.5-.5s.2-.5.5-.5.5.2.5.5-.2.5-.5.5z"/></svg>