<svg xmlns="http://www.w3.org/2000/svg" version="1.1" id="图层_1" x="0" y="0" width="34" height="34" xml:space="preserve"><style>.st1{fill:#fff}</style><path fill="none" d="M0 0h34v34H0z"/><path class="st1" d="M8.8 22.8h-.2c-.3-.1-.4-.5-.3-.8l8.2-19.6c.1-.3.5-.4.8-.3.3.1.4.5.3.8L9.3 22.4c-.1.3-.3.4-.5.4z"/><path class="st1" d="M25.2 22.8c-.2 0-.5-.1-.6-.4L16.4 2.8c-.1-.3 0-.7.3-.8.3-.1.7 0 .8.3L25.8 22c.1.3 0 .7-.3.8h-.3z"/><path class="st1" d="M22 15.1H12c-.3 0-.6-.3-.6-.6s.3-.6.6-.6h10c.3 0 .6.3.6.6s-.3.6-.6.6zM28.9 32c-.2 0-.4-.1-.5-.3-1.7-3.2-5.6-3.3-8.7-2.1-4 1.6-7 2.4-9.4 2.3-3.2-.1-5.5-2.2-5.6-2.3-.2-.2-.2-.6 0-.8.2-.2.6-.3.8 0 0 0 2.1 1.9 4.8 2 2.2 0 5-.7 8.9-2.3 3.6-1.5 8.1-1.2 10.2 2.6.2.3.1.7-.2.8-.1.1-.2.1-.3.1z"/></svg>