<svg version="1.1" id="图层_1" xmlns="http://www.w3.org/2000/svg" x="0" y="0" width="34" height="34" xml:space="preserve"><style>.st1{fill:#fff}</style><path fill="none" d="M0 0h34v34H0z"/><path class="st1" d="M30.5 14.5c-.1 0-.2.1-.3.2-.1.8-.4.9-.5.9-.1 0-.2.1-.2.3 0 .1.1.3.2.3 0 0 .8 0 .9-1.3.1-.3 0-.4-.1-.4z"/><path class="st1" d="M30.7 9.9C29.1 7 28.6 7 28.4 7c-.2 0-.8 0-2.3 2.9-.1.2-.2.4-.4.7V5.7c.8.3 1.1.9 1.1 1 .1.3.4.5.8.4.3-.1.5-.4.4-.8-.2-.7-1.1-2-3-2-1.2 0-1.8.7-2.2 1.2-.4.5-.7.9-1.5.9s-1.1-.3-1.5-.8c-.4-.6-1-1.2-2.3-1.3-1.3 0-2 .7-2.6 1.2-.5.5-.8.8-1.5.9-.7 0-1.1-.3-1.5-.8-.5-.5-1.1-1.2-2.3-1.3-1.2 0-1.8.7-2.2 1.2-.4.5-.7.9-1.6 1C4 6.6 3 4.8 3 4.7c-.2-.3-.5-.4-.8-.2-.3.1-.5.5-.3.8 0 .1.5 1.1 1.6 1.8v10c0 .3.3.6.6.6s.6-.2.6-.6V7.5h.8C7 7.3 7.7 6.6 8.1 6c.4-.5.6-.7 1.3-.7.7 0 1 .4 1.5.9.5.6 1.2 1.3 2.5 1.3s1.9-.7 2.5-1.3c.5-.5.9-.9 1.7-.9.8 0 1 .3 1.4.8.4.6 1 1.3 2.5 1.3h.1c1.4 0 2.1-.8 2.5-1.4.1-.2.2-.3.3-.4v6.8h-2.9c-.4 0-.6.3-.6.6 0 .4.3.6.6.6h2.9V17h-2.9c-.4 0-.6.3-.6.6 0 .4.3.6.6.6h2.9v3.4h-2.9c-.4 0-.6.3-.6.6 0 .4.3.6.6.6h2.9v3.7c0 .9-.8 1.7-1.7 1.7H6.4c-.9 0-1.7-.8-1.7-1.7V16.2c0-.3-.3-.6-.6-.6s-.6.2-.6.6v10.1c0 1.8 1.5 3.3 3.3 3.3h15.8c1.8 0 3.3-1.5 3.3-3.3v-9.5c.7.7 1.6 1.1 2.6 1.1 2.1 0 3.8-1.7 3.8-3.9-.1-1.1-1.1-3-1.6-4.1zm-2.3 7.2c-1.5 0-2.8-1.3-2.8-2.9 0-1.4 1.9-5 2.8-6.1.9 1.2 2.8 4.7 2.8 6.1 0 1.6-1.3 2.9-2.8 2.9z"/></svg>