<svg xmlns="http://www.w3.org/2000/svg" version="1.1" id="图层_1" x="0" y="0" width="34" height="34" xml:space="preserve"><style>.st1{fill:#fff}</style><path fill="none" d="M0 0h34v34H0z"/><path class="st1" d="M9.4 27.1c-.1 0-.2 0-.3-.1-3.7-2.6-5.9-6.8-5.9-11.3C3.2 8.2 9.4 2 17 2c3 0 5.9.9 8.3 2.7.3.2.3.6.1.8-.2.3-.6.3-.8.1-2.2-1.6-4.8-2.5-7.5-2.5-6.9 0-12.6 5.6-12.6 12.6 0 4.1 2 7.9 5.4 10.3.3.2.3.6.1.8-.2.3-.4.3-.6.3zm15.2.1c-.2 0-.4-.1-.5-.3-.2-.3-.1-.6.1-.8 3.4-2.3 5.4-6.2 5.4-10.3 0-2.7-.8-5.2-2.4-7.4-.2-.3-.1-.6.1-.8.3-.2.6-.1.8.1 1.7 2.4 2.6 5.2 2.6 8.1 0 4.5-2.2 8.7-5.9 11.3 0 0-.1.1-.2.1z"/><path class="st1" d="M15.6 14.9l12-9.6h.2v.2l-9.9 11.9c-.6.7-1.7.8-2.4.2-.7-.6-.8-1.7-.2-2.4.1-.2.2-.2.3-.3zm-2.7 13.8v3.2h-1.1v-8.5h2.4c.9 0 1.6.2 2.1.7.5.4.8 1.1.8 1.9 0 .8-.3 1.5-.9 2s-1.3.8-2.2.7h-1.1zm0-4.4v3.4h1c.7 0 1.2-.2 1.5-.5.4-.2.6-.7.6-1.2 0-1.1-.6-1.6-1.9-1.6h-1.2zm5.4 1.9c.6-.4 1.3-.6 2.1-.6 1.5 0 2.2.8 2.2 2.3v3.9h-1.1v-.9c-.4.7-1 1.1-1.9 1.1-.6 0-1.1-.2-1.4-.5s-.5-.7-.5-1.3c0-1.1.7-1.8 2-2l1.8-.3c0-1-.4-1.5-1.2-1.5-.7 0-1.4.2-2 .7v-.9zm1.8 2.8c-.5.1-.8.2-1 .4-.2.2-.3.4-.3.8 0 .3.1.5.3.7.2.2.5.3.8.3.5 0 .9-.2 1.2-.5s.5-.7.5-1.2v-.6l-1.5.1z"/></svg>