<?xml version="1.0" encoding="utf-8"?>
<!-- Generator: Adobe Illustrator 22.1.0, SVG Export Plug-In . SVG Version: 6.00 Build 0)  -->
<svg version="1.1" id="图层_1" xmlns="http://www.w3.org/2000/svg" xmlns:xlink="http://www.w3.org/1999/xlink" x="0px" y="0px"
	 width="50px" height="50px" viewBox="0 0 50 50" style="enable-background:new 0 0 50 50;" xml:space="preserve">
<style type="text/css">
	.st0{fill:#F1921C;}
</style>
<path class="st0" d="M25,50C11.2,50,0,38.8,0,25S11.2,0,25,0c7.1,0,13.9,3.1,18.7,8.4c0.4,0.4,0.3,1-0.1,1.4c-0.4,0.4-1,0.3-1.4-0.1
	C37.8,4.8,31.6,2,25,2C12.3,2,2,12.3,2,25c0,12.7,10.3,23,23,23c12.7,0,23-10.3,23-23c0-1.9-0.2-3.8-0.7-5.7
	c-0.1-0.5,0.2-1.1,0.7-1.2c0.5-0.1,1.1,0.2,1.2,0.7c0.5,2,0.8,4.1,0.8,6.2C50,38.8,38.8,50,25,50z"/>
<path class="st0" d="M21,31.9c-0.5,0.3-1.2,0.5-2.1,0.5c-1.1,0-1.9-0.4-2.6-1.1c-0.6-0.7-1-1.7-1-2.9c0-1.3,0.4-2.3,1.1-3.1
	c0.7-0.8,1.6-1.2,2.7-1.2c0.7,0,1.3,0.1,1.8,0.3v1.1c-0.5-0.3-1.1-0.5-1.8-0.5c-0.8,0-1.5,0.3-2,0.9c-0.5,0.6-0.8,1.4-0.8,2.4
	c0,1,0.2,1.7,0.7,2.3c0.5,0.6,1.1,0.8,1.9,0.8c0.7,0,1.4-0.2,1.9-0.5L21,31.9L21,31.9z M21.9,28.3c0-1.3,0.3-2.3,1-3.1
	c0.7-0.8,1.5-1.1,2.6-1.1c1,0,1.9,0.4,2.5,1.1C28.6,26,29,27,29,28.2c0,1.3-0.3,2.3-1,3.1c-0.6,0.8-1.5,1.1-2.6,1.1
	c-1.1,0-1.9-0.4-2.5-1.1C22.2,30.5,21.9,29.5,21.9,28.3L21.9,28.3z M22.9,28.3c0,1,0.2,1.7,0.7,2.3c0.5,0.6,1.1,0.9,1.8,0.9
	c0.8,0,1.4-0.3,1.9-0.8c0.5-0.6,0.7-1.3,0.7-2.3c0-1-0.2-1.8-0.7-2.4c-0.4-0.6-1.1-0.8-1.8-0.8c-0.8,0-1.4,0.3-1.8,0.9
	C23.1,26.5,22.9,27.3,22.9,28.3L22.9,28.3z M34.5,32.2h-4.5v-0.9l2.2-2.3c0.6-0.6,1-1.1,1.2-1.5c0.2-0.4,0.3-0.8,0.3-1.2
	c0-0.5-0.1-0.8-0.4-1c-0.2-0.2-0.6-0.4-1-0.4c-0.7,0-1.3,0.3-1.9,0.9v-1c0.6-0.5,1.3-0.7,2-0.7c0.7,0,1.2,0.2,1.6,0.6
	c0.4,0.4,0.6,0.9,0.6,1.6c0,0.5-0.1,1-0.4,1.5c-0.2,0.5-0.7,1.1-1.4,1.8l-1.7,1.8v0h3.4L34.5,32.2L34.5,32.2z M34.5,32.2"/>
<g>
	<path class="st0" d="M33.4,37.3c-0.1,0-0.1,0-0.1,0l-18.3,0c-0.1,0-0.1,0-0.2,0c-2.4-0.5-4.3-2-5.5-4c-1.1-2.1-1.3-4.7-0.4-7
		c1.2-3.2,3.6-4.3,4.7-4.7c1.5-5.8,6.1-9.3,11.8-8.8c4.7,0.4,7.4,4.1,8.3,5.5c2.7,0.3,5.1,1.9,6.6,4.6c1.7,3,1.9,6.5,0.4,9.3
		C38,37.1,34.2,37.3,33.4,37.3z M15.1,35.3h18.3c0.2,0,3.3,0.1,5.6-4.2c1.1-2.1,1-4.9-0.4-7.3c-1.3-2.2-3.3-3.6-5.5-3.6
		c-0.4,0-0.7-0.2-0.9-0.5c0-0.1-2.5-4.6-7-4.9c-4.8-0.4-8.7,2.7-9.8,7.9c-0.1,0.4-0.4,0.7-0.8,0.8c-0.1,0-2.7,0.5-3.8,3.6
		c-0.7,1.7-0.5,3.7,0.3,5.4C11.6,33.4,12.8,34.8,15.1,35.3z"/>
	<path class="st0" d="M27.5,23.8c-0.2,0-0.4-0.1-0.6-0.2c-0.5-0.3-0.6-0.9-0.3-1.4c0.1-0.2,2.7-3.8,6.5-4.1c0.6,0,1,0.4,1.1,0.9
		s-0.4,1-0.9,1.1c-2.8,0.2-5,3.2-5,3.3C28.2,23.6,27.9,23.8,27.5,23.8z"/>
</g>
</svg>
