<?xml version="1.0" encoding="utf-8"?>
<!-- Generator: Adobe Illustrator 22.1.0, SVG Export Plug-In . SVG Version: 6.00 Build 0)  -->
<svg version="1.1" id="图层_1" xmlns="http://www.w3.org/2000/svg" xmlns:xlink="http://www.w3.org/1999/xlink" x="0px" y="0px"
	 width="50px" height="50px" viewBox="0 0 50 50" style="enable-background:new 0 0 50 50;" xml:space="preserve">
<style type="text/css">
	.st0{fill:#F1921C;}
</style>
<path class="st0" d="M25,50C11.2,50,0,38.8,0,25S11.2,0,25,0c7.1,0,13.9,3.1,18.7,8.4c0.4,0.4,0.3,1-0.1,1.4c-0.4,0.4-1,0.3-1.4-0.1
	C37.8,4.8,31.6,2,25,2C12.3,2,2,12.3,2,25c0,12.7,10.3,23,23,23s23-10.3,23-23c0-1.9-0.2-3.8-0.7-5.7c-0.1-0.5,0.2-1.1,0.7-1.2
	c0.5-0.1,1.1,0.2,1.2,0.7c0.5,2,0.8,4.1,0.8,6.2C50,38.8,38.8,50,25,50z"/>
<g>
	<path class="st0" d="M24.7,16.4c-0.6,0-1-0.4-1-1v-3.7c0-0.6,0.4-1,1-1s1,0.4,1,1v3.7C25.7,16,25.3,16.4,24.7,16.4z"/>
	<g>
		<path class="st0" d="M25,39.3c-0.6,0-1-0.4-1-1s0.4-1,1-1c6.8,0,12.3-5.5,12.3-12.3c0-0.6,0.4-1,1-1s1,0.4,1,1
			C39.3,32.9,32.9,39.3,25,39.3z"/>
		<path class="st0" d="M25.3,35.6c-0.6,0-1-0.4-1-1s0.4-1,1-1c4.6,0,8.3-3.7,8.3-8.3c0-0.6,0.4-1,1-1s1,0.4,1,1
			C35.6,31,31,35.6,25.3,35.6z"/>
		<path class="st0" d="M24.7,31.6c-3.8,0-6.9-3.1-6.9-6.9s3.1-6.9,6.9-6.9c3.8,0,6.9,3.1,6.9,6.9S28.5,31.6,24.7,31.6z M24.7,19.8
			c-2.7,0-4.9,2.2-4.9,4.9s2.2,4.9,4.9,4.9c2.7,0,4.9-2.2,4.9-4.9S27.4,19.8,24.7,19.8z"/>
		<path class="st0" d="M18.1,19.1c-0.3,0-0.5-0.1-0.7-0.3l-2.6-2.6c-0.4-0.4-0.4-1,0-1.4s1-0.4,1.4,0l2.6,2.6c0.4,0.4,0.4,1,0,1.4
			C18.6,19,18.4,19.1,18.1,19.1z"/>
		<path class="st0" d="M15.4,25.7h-3.7c-0.6,0-1-0.4-1-1s0.4-1,1-1h3.7c0.6,0,1,0.4,1,1S16,25.7,15.4,25.7z"/>
		<path class="st0" d="M15.5,34.9c-0.3,0-0.5-0.1-0.7-0.3c-0.4-0.4-0.4-1,0-1.4l2.6-2.6c0.4-0.4,1-0.4,1.4,0s0.4,1,0,1.4l-2.6,2.6
			C16,34.8,15.8,34.9,15.5,34.9z"/>
		<path class="st0" d="M31.3,19.1c-0.3,0-0.5-0.1-0.7-0.3c-0.4-0.4-0.4-1,0-1.4l2.6-2.6c0.4-0.4,1-0.4,1.4,0s0.4,1,0,1.4L32,18.8
			C31.8,19,31.5,19.1,31.3,19.1z"/>
	</g>
</g>
</svg>
