<?xml version="1.0" encoding="utf-8"?>
<!-- Generator: Adobe Illustrator 22.1.0, SVG Export Plug-In . SVG Version: 6.00 Build 0)  -->
<svg version="1.1" id="图层_1" xmlns="http://www.w3.org/2000/svg" xmlns:xlink="http://www.w3.org/1999/xlink" x="0px" y="0px"
	 width="50px" height="50px" viewBox="0 0 50 50" style="enable-background:new 0 0 50 50;" xml:space="preserve">
<style type="text/css">
	.st0{fill:#F1921C;}
</style>
<path class="st0" d="M25,50C11.2,50,0,38.8,0,25C0,11.2,11.2,0,25,0c7.1,0,13.9,3.1,18.7,8.4c0.4,0.4,0.3,1-0.1,1.4
	c-0.4,0.4-1,0.3-1.4-0.1C37.8,4.8,31.6,2,25,2C12.3,2,2,12.3,2,25s10.3,23,23,23c12.7,0,23-10.3,23-23c0-1.9-0.2-3.8-0.7-5.7
	c-0.1-0.5,0.2-1.1,0.7-1.2c0.5-0.1,1.1,0.2,1.2,0.7c0.5,2,0.8,4.1,0.8,6.2C50,38.8,38.8,50,25,50z"/>
<path class="st0" d="M10.4,27c-0.7,0-1.3,0.6-1.3,1.3c0,0.7,0.6,1.3,1.3,1.3c0.7,0,1.3-0.6,1.3-1.3C11.7,27.6,11.1,27,10.4,27
	L10.4,27z"/>
<path class="st0" d="M15.3,25c-0.6,0-1,0.4-1,1c0,0.5,0.5,1,1,1c0.6,0,1-0.4,1-1C16.4,25.5,15.9,25,15.3,25L15.3,25z"/>
<path class="st0" d="M14,13.5c0.7,0,1.3-0.6,1.3-1.2c0-0.7-0.6-1.2-1.3-1.2c-0.7,0-1.3,0.6-1.3,1.2C12.7,13,13.3,13.5,14,13.5
	L14,13.5z"/>
<path class="st0" d="M37.4,15.5c0.6,0,1-0.4,1-1c0-0.5-0.5-1-1-1c-0.6,0-1,0.4-1,1C36.3,15.1,36.8,15.5,37.4,15.5L37.4,15.5z"/>
<path class="st0" d="M29.2,18c1,0,1.8-0.8,1.8-1.7s-0.8-1.7-1.8-1.7c-1,0-1.8,0.8-1.8,1.7C27.4,17.2,28.2,18,29.2,18L29.2,18z"/>
<path class="st0" d="M21.6,15.5c-0.9,0-1.6,0.7-1.6,1.5c0,0.8,0.7,1.5,1.6,1.5c0.9,0,1.6-0.7,1.6-1.5C23.2,16.2,22.5,15.5,21.6,15.5
	L21.6,15.5z"/>
<path class="st0" d="M35.4,29.1c-1.2,0-2.2,0.9-2.2,2.1c0,1.2,1,2.1,2.2,2.1c1.2,0,2.2-0.9,2.2-2.1C37.6,30,36.6,29.1,35.4,29.1
	L35.4,29.1z"/>
<path class="st0" d="M26.4,31c-0.6,0-1,0.4-1,1c0,0.5,0.5,1,1,1c0.6,0,1-0.4,1-1C27.4,31.5,26.9,31,26.4,31L26.4,31z"/>
<path class="st0" d="M28.5,27.1c0.6,0,1,0.4,1,1c0,0.5-0.5,1-1,1c-0.6,0-1-0.4-1-1C27.4,27.5,27.9,27.1,28.5,27.1L28.5,27.1z"/>
<path class="st0" d="M33.4,39c-3.6,0-6.2-1.4-6.3-1.5C16.5,31,9.9,37.3,9.6,37.6c-0.4,0.4-1.1,0.4-1.5,0c-0.4-0.4-0.4-1-0.1-1.4
	c0,0,0,0,0-0.1c0.1-0.1,8-7.8,20-0.4c0.2,0.1,6,3.3,12.4-1.1c0.2-0.2,0.5-0.2,0.8-0.2c0.3,0,0.5,0.2,0.7,0.4
	c0.3,0.4,0.2,1.1-0.2,1.4C38.7,38.4,35.8,39,33.4,39L33.4,39z"/>
<path class="st0" d="M14.7,19.9H12v6.5h0.8v-2.7h1.9c1.5,0,2.3-0.7,2.3-1.9C16.9,20.5,16.2,19.9,14.7,19.9z M15.8,22.8
	c-0.3,0.2-0.6,0.3-1.2,0.3h-1.9v-2.6c0,0,1.9,0,1.9,0c0.5,0,0.9,0.1,1.2,0.3c0.3,0.2,0.4,0.5,0.4,0.9C16.2,22.3,16,22.6,15.8,22.8z"
	/>
<polygon class="st0" points="17.9,19.9 17.9,26.4 18.6,26.4 18.6,21.2 18.6,21.2 20.9,26.4 21.6,26.4 23.8,21.2 23.9,21.2 
	23.9,26.4 24.6,26.4 24.6,19.9 23.7,19.9 21.3,25.5 21.2,25.5 18.8,19.9 "/>
<path d="M34.1,19.9"/>
<path class="st0" d="M35.5,19.9c2.5,0,2.3,2.5,2.3,3.4c0,1.5-0.2,3.2-2.4,3.2c-2.1,0-2.3-1.5-2.3-3.3C33.1,20.4,34.2,19.9,35.5,19.9
	z M35.4,26c0.6,0,1.6,0,1.6-2.8c0-1.7-0.1-2.9-1.6-2.9c-1.1,0-1.5,0.7-1.5,2.9C33.9,25.3,34.4,26,35.4,26z"/>
<g>
	<path class="st0" d="M30.3,19.9v6.5h-0.7v-4.9l-1.2,0.1h-0.3v-0.4c0,0,0,0,0,0c0,0,0,0,0,0c0,0,0,0,0,0c0,0,0,0,0,0c0,0,0,0,0,0
		c0.5,0,0.9-0.1,1.1-0.2c0.2-0.2,0.3-0.3,0.4-0.5c0-0.1,0-0.2,0-0.2c0-0.1,0-0.1,0-0.2v-0.1H30.3z"/>
</g>
</svg>
