<?xml version="1.0" encoding="utf-8"?>
<!-- Generator: Adobe Illustrator 22.1.0, SVG Export Plug-In . SVG Version: 6.00 Build 0)  -->
<svg version="1.1" id="图层_1" xmlns="http://www.w3.org/2000/svg" xmlns:xlink="http://www.w3.org/1999/xlink" x="0px" y="0px"
	 width="50px" height="50px" viewBox="0 0 50 50" style="enable-background:new 0 0 50 50;" xml:space="preserve">
<style type="text/css">
	.st0{fill:#F1921C;}
</style>
<path class="st0" d="M25,50C11.2,50,0,38.8,0,25C0,11.2,11.2,0,25,0c7.1,0,13.9,3.1,18.7,8.4c0.4,0.4,0.3,1-0.1,1.4
	c-0.4,0.4-1,0.3-1.4-0.1C37.8,4.8,31.6,2,25,2C12.3,2,2,12.3,2,25s10.3,23,23,23s23-10.3,23-23c0-1.9-0.2-3.8-0.7-5.7
	c-0.1-0.5,0.2-1.1,0.7-1.2c0.5-0.1,1.1,0.2,1.2,0.7c0.5,2,0.8,4.1,0.8,6.2C50,38.8,38.8,50,25,50z"/>
<g>
	<path class="st0" d="M25,41.9c-4.5,0-8.1-3.6-8.1-8.1c0-2.6,1.2-5,3.3-6.5V12.9c0-2.6,2.2-4.8,4.8-4.8s4.8,2.2,4.8,4.8v14.4
		c2.1,1.5,3.3,3.9,3.3,6.5C33.1,38.3,29.5,41.9,25,41.9z M25,10.1c-1.5,0-2.8,1.3-2.8,2.8v14.9c0,0.3-0.2,0.7-0.5,0.8
		c-1.8,1.1-2.9,3.1-2.9,5.2c0,3.4,2.7,6.1,6.1,6.1s6.1-2.7,6.1-6.1c0-2.1-1.1-4-2.9-5.2c-0.3-0.2-0.5-0.5-0.5-0.8V12.9
		C27.8,11.3,26.5,10.1,25,10.1z"/>
	<path class="st0" d="M25.6,38.7c-0.6,0-1-0.4-1-1s0.4-1,1-1c1.4,0,2.5-1.1,2.5-2.5c0-0.6,0.4-1,1-1s1,0.4,1,1
		C30.1,36.7,28.1,38.7,25.6,38.7z"/>
	<g>
		<path class="st0" d="M25,22.5h-3.2c-0.4,0-0.7-0.3-0.7-0.7v0c0-0.4,0.3-0.7,0.7-0.7H25c0.4,0,0.7,0.3,0.7,0.7v0
			C25.7,22.2,25.4,22.5,25,22.5z"/>
		<path class="st0" d="M25,19.1h-3.2c-0.4,0-0.7-0.3-0.7-0.7v0c0-0.4,0.3-0.7,0.7-0.7H25c0.4,0,0.7,0.3,0.7,0.7v0
			C25.7,18.8,25.4,19.1,25,19.1z"/>
	</g>
</g>
</svg>
