<svg version="1.1" id="图层_1" xmlns="http://www.w3.org/2000/svg" x="0" y="0" width="80" height="80" xml:space="preserve"><style>.st0{fill:#b2ddff}</style><path class="st0" d="M40.6 62.5c-12.5 0-22.7-10.2-22.7-22.7s10.2-22.7 22.7-22.7 22.7 10.2 22.7 22.7-10.2 22.7-22.7 22.7zm0-42.2c-10.8 0-19.5 8.8-19.5 19.5 0 10.8 8.8 19.5 19.5 19.5 10.8 0 19.5-8.8 19.5-19.5 0-10.8-8.7-19.5-19.5-19.5zm0 0"/><path class="st0" d="M26.9 35.6c-.2.1-.4.1-.6.1-.6-.1-1-.6-.9-1.2.7-4.3 3.6-8 7.6-9.6.6-.2 1.2 0 1.4.6.2.6 0 1.2-.6 1.4-3.3 1.3-5.8 4.4-6.3 7.9 0 .3-.3.7-.6.8zm0 0M41.5 76c-1.2 0-2.1-1-2.1-2.1v-6.4c0-1.2 1-2.1 2.1-2.1 1.2 0 2.1 1 2.1 2.1v6.4c0 1.1-.9 2.1-2.1 2.1zm0-61.2c-1.2 0-2.1-1-2.1-2.1V6.2c0-1.2 1-2.1 2.1-2.1 1.2 0 2.1 1 2.1 2.1v6.4c0 1.2-.9 2.2-2.1 2.2zM16.6 65.9c-.5 0-1.1-.2-1.5-.6-.8-.8-.8-2.2 0-3l4.6-4.6c.8-.8 2.2-.8 3 0 .8.8.8 2.2 0 3l-4.6 4.6c-.4.4-.9.6-1.5.6zm43.3-43.3c-.5 0-1.1-.2-1.5-.6-.8-.8-.8-2.2 0-3l4.6-4.6c.8-.8 2.2-.8 3 0 .8.8.8 2.2 0 3L61.4 22c-.4.4-1 .6-1.5.6zm-38.7 0c-.5 0-1.1-.2-1.5-.6l-4.6-4.6c-.8-.8-.8-2.2 0-3 .8-.8 2.2-.8 3 0l4.6 4.6c.8.8.8 2.2 0 3-.4.4-1 .6-1.5.6zm43.2 43.3c-.5 0-1.1-.2-1.5-.6l-4.6-4.6c-.8-.8-.8-2.2 0-3 .8-.8 2.2-.8 3 0l4.6 4.6c.8.8.8 2.2 0 3-.4.4-.9.6-1.5.6zM12.6 42.7H6.2c-1.2 0-2.1-1-2.1-2.1 0-1.2 1-2.1 2.1-2.1h6.4c1.2 0 2.1 1 2.1 2.1.1 1.1-.9 2.1-2.1 2.1zm61.2 0h-6.4c-1.2 0-2.1-1-2.1-2.1 0-1.2 1-2.1 2.1-2.1h6.4c1.2 0 2.1 1 2.1 2.1.1 1.1-.9 2.1-2.1 2.1zm0 0"/></svg>