<svg version="1.1" id="图层_1" xmlns="http://www.w3.org/2000/svg" x="0" y="0" width="80" height="79.9" xml:space="preserve"><style>.st0{fill:#b2ddff}</style><path class="st0" d="M40 75.4c-4.4 0-8.7-.9-12.7-2.6-3.9-1.6-7.4-4-10.4-7s-5.4-6.5-7-10.4c-1.7-4-2.6-8.3-2.6-12.7 0-5.7 1.5-11.2 4.3-16.1 2.7-4.7 6.6-8.8 11.2-11.7.6-.4 1.5-.2 1.8.4.4.6.2 1.5-.4 1.8C15.3 22.7 10 32.2 10 42.7c0 16.6 13.5 30 30 30s30-13.5 30-30c0-10.5-5.3-20-14.2-25.5-.6-.4-.8-1.2-.4-1.8.4-.6 1.2-.8 1.8-.4 4.6 2.9 8.5 6.9 11.2 11.7 2.8 4.9 4.3 10.5 4.3 16.1 0 4.4-.9 8.7-2.6 12.7-1.6 3.9-4 7.4-7 10.4s-6.5 5.4-10.4 7c-4 1.6-8.3 2.5-12.7 2.5zm0 0"/><path class="st0" d="M34.4 54.3c-.2 0-.3 0-.5-.1s-5.1-2.7-6.4-7.7C25.8 39 30 34.4 30.2 34.2c.4-.4 1.1-.5 1.6-.1.4.4.5 1.1.1 1.6 0 0-.9 1-1.6 2.8-.9 2.4-1.1 4.9-.4 7.5 1 4 5.2 6.2 5.2 6.2.5.3.8.9.5 1.5-.4.4-.7.6-1.2.6z"/><path class="st0" d="M44.1 21.1c.5 0 .9.4.9.9v4c0 .9.6 1.8 1.4 2.1 6.4 2.6 10.5 8.7 10.5 15.6 0 4.5-1.8 8.8-4.9 11.9-3.2 3.2-7.4 4.9-11.9 4.9-2.6 0-5.3-.6-7.9-1.8-3.2-1.5-5.8-4.1-7.3-7.3-2.1-4.7-2.3-9.7-.5-14 1.7-4.2 5.1-7.6 9.3-9.4.9-.4 1.4-1.2 1.4-2.1v-4c0-.5.4-.9.9-.9h8.1m0-3H36c-2.2 0-4 1.8-4 4v3.5c-4.8 2.1-8.6 6-10.5 10.9-2.1 5.2-1.9 11 .6 16.5 1.8 4 4.9 7.1 8.9 8.9 3 1.4 6.1 2.1 9.2 2.1 5.4 0 10.4-2.1 14.2-5.9 3.8-3.8 5.9-8.8 5.9-14.2 0-8-4.7-15.1-11.9-18.3V22c-.3-2.2-2.1-4-4.3-4zM46.2 14.3H33.8c-.9 0-1.6-.7-1.6-1.6s.7-1.6 1.6-1.6h12.4c.9 0 1.6.7 1.6 1.6s-.7 1.6-1.6 1.6zM46.2 7.9H33.8c-.9 0-1.6-.7-1.6-1.6s.7-1.6 1.6-1.6h12.4c.9 0 1.6.7 1.6 1.6s-.7 1.6-1.6 1.6z"/></svg>