<svg version="1.1" id="图层_1" xmlns="http://www.w3.org/2000/svg" x="0" y="0" width="80" height="80" xml:space="preserve"><style>.st0{fill:#b2ddff}</style><path class="st0" d="M19.8 69.6h-.3c-2.4-.6-4.5-1.7-6.1-3.4-1.4-1.4-2.5-3.2-3.1-5.2-.2-.6.1-1.2.7-1.4.6-.2 1.2.1 1.4.7.5 1.7 1.4 3.1 2.6 4.3 1.4 1.4 3.1 2.3 5.1 2.8.6.1 1 .7.8 1.4-.2.5-.6.8-1.1.8zM41.9 50.3h-.1c-3.6-.4-6.6-1.7-8.8-3.9-1.9-1.9-3.2-4.4-3.7-7.4-.1-.6.3-1.2.9-1.3.6-.1 1.2.3 1.3.9.5 2.6 1.5 4.7 3.1 6.2 1.8 1.8 4.3 2.9 7.5 3.2.6.1 1.1.6 1 1.2-.1.7-.6 1.1-1.2 1.1zM65.4 39.1c-12.3 0-22.3-10-22.3-22.3 0-2.7.5-5.3 1.4-7.7.2-.6.9-.9 1.4-.7.6.2.9.9.7 1.4-.8 2.2-1.2 4.6-1.2 7 0 11 9 20 20 20 1 0 2-.1 3-.2.6-.1 1.2.3 1.3.9.1.6-.3 1.2-.9 1.3-1.2.2-2.3.3-3.4.3z"/><g><path class="st0" d="M54.2 46.1C43.1 46.1 34 37.1 34 26c0-11.1 9-20.2 20.2-20.2s20.1 9 20.1 20.2c0 11.1-9 20.1-20.1 20.1zm0-37.2c-9.4 0-17 7.6-17 17s7.6 17 17 17 17-7.6 17-17c0-9.3-7.6-17-17-17zM15.1 74.2c-.1 0-.3 0-.4-.1-2.3-.6-4.3-1.7-5.9-3.4-1.4-1.4-2.4-3.1-3.1-5-.3-.8.2-1.7 1-2 .8-.3 1.7.2 2 1 .5 1.5 1.3 2.7 2.3 3.8 1.2 1.2 2.7 2.1 4.5 2.5.8.2 1.3 1.1 1.1 1.9-.1.9-.8 1.3-1.5 1.3z"/><path class="st0" d="M15.1 74.2c-.4 0-.9-.2-1.2-.5-.6-.7-.5-1.6.1-2.2L46.6 43c.7-.6 1.6-.5 2.2.1.6.7.5 1.6-.1 2.2L16.2 73.8c-.3.3-.7.4-1.1.4zM7.2 66.9c-.4 0-.7-.1-1-.4-.7-.6-.7-1.6-.1-2.2l28.7-32.9c.6-.7 1.6-.7 2.2-.1.7.6.7 1.6.1 2.2L8.4 66.3c-.3.4-.7.6-1.2.6z"/></g></svg>