<svg version="1.1" id="图层_1" xmlns="http://www.w3.org/2000/svg" x="0" y="0" width="80" height="80" xml:space="preserve"><style>.st0{fill:#b2ddff}</style><path class="st0" d="M40 52.2c-.6 0-1.1-.5-1.1-1.1V30.2c0-.6.5-1.1 1.1-1.1s1.1.5 1.1 1.1v20.9c0 .6-.5 1.1-1.1 1.1z"/><path class="st0" d="M39.8 52.2H24.7c-.6 0-1.1-.5-1.1-1.1S24 50 24.7 50h15.1c.6 0 1.1.5 1.1 1.1s-.5 1.1-1.1 1.1z"/><g><path class="st0" d="M73.8 64.2H6.2c-.9 0-1.6-.7-1.6-1.6S5.3 61 6.2 61h67.6c.9 0 1.6.7 1.6 1.6s-.7 1.6-1.6 1.6zM57.6 75.9H22.4c-.9 0-1.6-.7-1.6-1.6s.7-1.6 1.6-1.6h35.3c.9 0 1.6.7 1.6 1.6s-.8 1.6-1.7 1.6z"/><g><path class="st0" d="M72 54.7c-.9 0-1.6-.7-1.6-1.6 0-16.8-13.6-30.4-30.4-30.4-16.8 0-30.4 13.6-30.4 30.4 0 .9-.7 1.6-1.6 1.6s-1.5-.7-1.5-1.5c0-18.5 15-33.5 33.5-33.5s33.5 15 33.5 33.5c0 .8-.7 1.5-1.5 1.5zM40 17c-.9 0-1.6-.7-1.6-1.6V5.6c0-.8.7-1.6 1.6-1.6s1.6.7 1.6 1.6v9.8c0 .9-.7 1.6-1.6 1.6z"/><path class="st0" d="M65.3 27.9c-.4 0-.8-.2-1.1-.5-.6-.6-.6-1.6 0-2.2l7-7c.6-.6 1.6-.6 2.2 0 .6.6.6 1.6 0 2.2l-7 7c-.3.3-.7.5-1.1.5zM14.7 27.9c-.4 0-.8-.2-1.1-.5l-7-7c-.6-.6-.6-1.6 0-2.2.6-.6 1.6-.6 2.2 0l7 7c.6.6.6 1.6 0 2.2-.3.3-.7.5-1.1.5z"/></g></g></svg>