<svg version="1.1" id="图层_1" xmlns="http://www.w3.org/2000/svg" x="0" y="0" width="80" height="80" xml:space="preserve"><style>.st0{fill:#b2ddff}</style><path class="st0" d="M41.1 73.9c-13.9 0-26.6-8.7-31.6-21.7-1.5-3.9-2.3-8-2.3-12.2 0-18.7 15.2-33.9 33.9-33.9 13.9 0 26.6 8.7 31.6 21.7.3.8-.1 1.7-.9 2-.8.3-1.7-.1-2-.9C65.2 17.1 53.7 9.2 41.1 9.2 24.1 9.2 10.3 23 10.3 40c0 3.8.7 7.6 2.1 11.1C17 62.9 28.5 70.8 41.1 70.8c12.6 0 24.2-7.9 28.7-19.7.3-.8 1.2-1.2 2-.9.8.3 1.2 1.2.9 2-5 13-17.7 21.7-31.6 21.7z"/><path class="st0" d="M71.3 29.9c-.9 0-1.6-.7-1.6-1.6v-15c0-.9.7-1.6 1.6-1.6s1.6.7 1.6 1.6v15c0 .9-.8 1.6-1.6 1.6z"/><path class="st0" d="M71.3 29.9h-15c-.9 0-1.6-.7-1.6-1.6s.7-1.6 1.6-1.6h15c.9 0 1.6.7 1.6 1.6s-.8 1.6-1.6 1.6z"/><g><path class="st0" d="M28.7 54.4c-.1 0-.3 0-.4-.1-.6-.2-.8-.9-.6-1.5L39 26.2c.2-.6.9-.8 1.5-.6.6.2.8.9.6 1.5L29.7 53.8c-.2.4-.6.6-1 .6z"/><path class="st0" d="M51.3 54.4c-.4 0-.9-.3-1-.7L38.9 27.1c-.2-.6 0-1.2.6-1.5.6-.2 1.2 0 1.5.6l11.3 26.6c.2.6 0 1.2-.6 1.5-.1.1-.3.1-.4.1z"/><path class="st0" d="M47.5 45.7H32.4c-.6 0-1.1-.5-1.1-1.1s.5-1.1 1.1-1.1h15.2c.6 0 1.1.5 1.1 1.1s-.5 1.1-1.2 1.1z"/></g></svg>