<svg version="1.1" id="图层_1" xmlns="http://www.w3.org/2000/svg" x="0" y="0" width="80" height="80" xml:space="preserve"><style>.st0{fill:#b2ddff}</style><path class="st0" d="M65.9 74H14.3c-2.6 0-4.8-2.2-4.8-4.8V37.3c0-.9.7-1.6 1.6-1.6s1.6.7 1.6 1.6v31.9c0 .9.7 1.6 1.6 1.6h51.5c.9 0 1.6-.7 1.6-1.6V37.3c0-.9.7-1.6 1.6-1.6s1.6.7 1.6 1.6v31.9c.1 2.7-2.1 4.8-4.7 4.8z"/><path class="st0" d="M4.7 45.4c-.4 0-.8-.1-1.1-.4-.6-.6-.6-1.6 0-2.2L39 6.5c.6-.6 1.6-.6 2.2 0 .6.6.6 1.6 0 2.2L5.8 44.9c-.3.3-.7.5-1.1.5z"/><path class="st0" d="M75.6 45.4c-.4 0-.8-.2-1.1-.5L39 8.7c-.6-.7-.6-1.7 0-2.3.6-.6 1.6-.6 2.2 0l35.4 36.3c.6.6.6 1.6 0 2.2-.2.3-.6.5-1 .5z"/><g><path class="st0" d="M33.8 51.2c1 0 1.7-.8 1.7-1.7 0-.9-.8-1.7-1.7-1.7-1 0-1.7.8-1.7 1.7 0 .9.8 1.7 1.7 1.7zm12.6-3.4c-1 0-1.7.8-1.7 1.7 0 1 .8 1.7 1.7 1.7 1 0 1.7-.8 1.7-1.7 0-1-.7-1.7-1.7-1.7zm0 0"/><path class="st0" d="M52.9 61.1H27.3c-.6 0-1.1-.5-1.1-1.1V39c0-.6.5-1.1 1.1-1.1h25.6c.6 0 1.1.5 1.1 1.1v21c0 .6-.5 1.1-1.1 1.1zm-24.5-2.2h23.4V40.1H28.4v18.8z"/><path class="st0" d="M40.1 61.1c-.6 0-1.1-.5-1.1-1.1V39c0-.6.5-1.1 1.1-1.1s1.1.5 1.1 1.1v21c0 .6-.5 1.1-1.1 1.1z"/></g></svg>