<svg version="1.1" height="75" width="157" id="图层_1"  xmlns="http://www.w3.org/2000/svg" x="0" y="0"  xml:space="preserve"><style>.st0{fill:#ffffff}</style><path class="st0" d="M151.5 0H5.5C2.4 0 0 2.4 0 5.5v62.8c0 3 2.4 5.5 5.5 5.5h146.1c3 0 5.5-2.4 5.5-5.5V5.5c-.1-3.1-2.5-5.5-5.6-5.5zm2.6 68c0 1.6-1.3 2.8-2.8 2.8H5.7c-1.6 0-2.8-1.3-2.8-2.8V5.7c0-1.6 1.3-2.8 2.8-2.8h145.6c1.6 0 2.8 1.3 2.8 2.8V68z"/><path class="st0" d="M1.7 50.9h152.4v2.9H1.7zM54.2 35.8h48.6v2.9H54.2z"/><circle class="st0" cx="14.2" cy="12.4" r="3.1"/><circle class="st0" cx="24.5" cy="12.4" r="3.1"/><circle class="st0" cx="34.9" cy="12.4" r="3.1"/><path class="st0" d="M24.3 73.3v-7.6c0-1.6 1.3-2.8 2.8-2.8h102.8c1.6 0 2.8 1.3 2.8 2.8v7.6h2.9v-7.8c0-3-2.4-5.5-5.5-5.5H26.9c-3 0-5.5 2.4-5.5 5.5v7.8h2.9z"/></svg>