<svg xmlns="http://www.w3.org/2000/svg" width="81.8" height="36.9"><linearGradient id="a" gradientUnits="userSpaceOnUse" x1="40.883" y1="-7.662" x2="40.883" y2="51.939"><stop offset="0" stop-color="#555e67"/><stop offset=".291" stop-color="#bcc5cd"/><stop offset=".623" stop-color="#a1a9af"/><stop offset="1" stop-color="#555e67"/></linearGradient><path d="M2.7 36.9c-1.5 0-2.7-1.2-2.7-2.7V2.7C0 1.2 1.2 0 2.7 0H79c1.5 0 2.7 1.2 2.7 2.7v31.4c0 1.5-1.2 2.7-2.7 2.7H2.7z" fill="url(#a)"/><linearGradient id="b" gradientUnits="userSpaceOnUse" x1="40.882" y1="-19.113" x2="40.882" y2="62.054"><stop offset="0" stop-color="#879099"/><stop offset=".291" stop-color="#eef7ff"/><stop offset=".623" stop-color="#d3dbe1"/><stop offset="1" stop-color="#879099"/></linearGradient><path d="M80.9 34.2c0 1-.8 1.8-1.8 1.8H2.7c-1 0-1.8-.8-1.8-1.8V2.7c0-1 .8-1.8 1.8-1.8H79c1 0 1.8.8 1.8 1.8v31.5z" fill="url(#b)"/><path fill="#2f3333" d="M14.5 8.7h52.8v19.6H14.5z"/><path opacity=".2" d="M14.5 27.3h52.8v.9H14.5z"/></svg>