<svg xmlns="http://www.w3.org/2000/svg" width="64.9" height="51"><path d="M27.7 19.3c5.5 0 10.1 4.2 10.7 9.5l6.4.5c1.3-4.2 5.2-7.2 9.8-7.2 5.7 0 10.3 4.6 10.3 10.3 0 5.7-4.6 10.2-10.3 10.2-5.4 0-9.9-4.2-10.2-9.5l-6.1-.5c-1.1 4.7-5.4 8.3-10.5 8.3-3.1 0-5.8-1.3-7.8-3.3L14.7 41c.3.8.4 1.6.4 2.5 0 4.2-3.4 7.5-7.6 7.5C3.4 51 0 47.6 0 43.5 0 39.3 3.4 36 7.5 36c1.9 0 3.7.7 5 1.9l5.3-3.5c-.6-1.3-.9-2.7-.9-4.3 0-4.1 2.4-7.7 5.8-9.5l-2.2-6c-.7 0-1.4 0-2.1-.2-3.9-1-6.3-4.9-5.4-8.8 1-3.9 4.9-6.3 8.8-5.4 3.9 1 6.3 4.9 5.4 8.8-.5 1.9-1.6 3.4-3.1 4.4l2.2 6c.5-.1 1-.1 1.4-.1zm0 0" fill="#fff"/></svg>