<svg version="1.1" id="图层_1" xmlns="http://www.w3.org/2000/svg" x="0" y="0" width="59" height="59" xml:space="preserve"><style>.st0{fill:#fff}</style><path class="st0" d="M29.5 59C13.2 59 0 45.8 0 29.5S13.2 0 29.5 0c8 0 15.4 3.1 21 8.8C56 14.4 59 21.7 59 29.6 59 45.8 45.8 59 29.5 59zm0-56.3c-14.8 0-26.8 12-26.8 26.8s12 26.8 26.8 26.8 26.8-12 26.8-26.8c.1-7.1-2.7-13.8-7.7-18.8-5.1-5.2-11.9-8-19.1-8z"/><path class="st0" d="M41.3 44.6c-7 3.6-15.6 4.2-22.3 0l11.2-15.7-20.2.2c1.1-7.8 6.3-14.6 13.6-17.7l6.6 17.7 7.1-17.7c7 3.6 11.3 10.2 11.8 17.7h-19l11.2 15.5zm0 0"/></svg>