<svg version="1.1" id="图层_1" xmlns="http://www.w3.org/2000/svg" x="0" y="0" width="53.2" height="59.1" xml:space="preserve"><style>.st0{fill:#fff}</style><path class="st0" d="M30.4 59.1c-6.9 0-12.4-5.6-12.4-12.4 0-4.1 2-7.8 5.3-10.1V7.2c0-3.9 3.2-7.2 7.2-7.2s7.2 3.2 7.2 7.2v29.3C41 38.8 43 42.6 43 46.6c-.2 6.9-5.8 12.5-12.6 12.5zm0-56.8c-2.7 0-4.9 2.2-4.9 4.9v29.9c0 .4-.2.7-.5 1-3 1.9-4.7 5.1-4.7 8.6 0 5.6 4.6 10.2 10.2 10.2s10.2-4.6 10.2-10.2c0-3.5-1.8-6.7-4.7-8.6-.3-.2-.5-.6-.5-1V7.2c-.2-2.7-2.4-4.9-5.1-4.9z"/><path class="st0" d="M32.2 37.8V7.3c0-.8-.4-1.5-1.1-1.8-1.3-.5-2.6.4-2.6 1.7v30.6c0 .9-.5 1.7-1.3 2-2.8 1.3-4.7 4.3-4.4 7.6.3 3.5 3.2 6.3 6.6 6.7 4.5.5 8.4-3 8.4-7.5 0-3-1.8-5.6-4.3-6.8-.7-.4-1.3-1.1-1.3-2zM15.2 36.6c-.2 0-.4-.1-.6-.2-.4-.3-.5-1-.2-1.4 1.3-1.6 1.8-3.1 1.7-4.6-.1-1.5-.9-2.5-1.7-3.7-.9-1.2-1.9-2.5-2.1-4.4-.2-1.8-.2-3.5 2.6-6.7.4-.4 1-.5 1.4-.1.4.4.5 1 .1 1.4-2.4 2.8-2.3 4-2.1 5.2.2 1.4.9 2.4 1.7 3.5.9 1.3 2 2.7 2.1 4.8.1 2-.6 4-2.2 6-.1.1-.4.2-.7.2zM9.1 36.6c-.2 0-.4-.1-.6-.2-.4-.3-.5-1-.2-1.4 1.3-1.6 1.8-3.1 1.8-4.6-.1-1.5-.9-2.5-1.7-3.7-.9-1.2-1.9-2.5-2.1-4.4-.3-1.9-.3-3.5 2.5-6.8.4-.4 1-.5 1.4-.1.4.4.5 1 .1 1.4-2.4 2.8-2.3 4-2.1 5.2.2 1.4.9 2.4 1.7 3.5.9 1.3 2 2.7 2.1 4.8.1 2-.6 4-2.2 6-.1.2-.4.3-.7.3zM3 36.6c-.2 0-.4-.1-.6-.2-.4-.3-.5-1-.2-1.4C3.5 33.4 4 31.9 4 30.4c-.1-1.5-.9-2.5-1.7-3.7-.9-1.2-1.9-2.5-2.1-4.4-.2-1.9-.2-3.5 2.6-6.7.4-.4 1-.5 1.4-.1.4.4.5 1 .1 1.4-2.4 2.8-2.3 4-2.1 5.2.2 1.4.9 2.4 1.7 3.5.9 1.3 2 2.7 2.1 4.8.1 2-.6 4-2.2 6-.2.1-.5.2-.8.2z"/><g><path class="st0" d="M51.6 12.9c.8.7 1.3 1.7 1.4 2.8h-1.7c-.1-.7-.5-1.2-1-1.7-.6-.4-1.2-.5-1.9-.5-1-.1-2 .4-2.6 1.2-.6.9-.9 2-.8 3.1-.1 1.1.2 2.2.8 3.1.6.8 1.6 1.3 2.7 1.2.7 0 1.4-.2 1.9-.6.6-.5 1-1.2 1.1-2h1.7c-.2 1.2-.8 2.3-1.7 3.1-.8.7-1.9 1.1-3 1.1-1.6.1-3.1-.6-4.1-1.8-.8-1.2-1.2-2.7-1.2-4.1-.1-1.5.4-2.9 1.2-4.1.9-1.2 2.4-1.9 4-1.8 1.2-.1 2.3.3 3.2 1zM41.4 12.9c-1.3 0-2.4-1.1-2.4-2.4s1.1-2.4 2.4-2.4 2.4 1.1 2.4 2.4-1.1 2.4-2.4 2.4zm0-3.8c-.8 0-1.4.6-1.4 1.4s.6 1.4 1.4 1.4c.8 0 1.4-.6 1.4-1.4s-.7-1.4-1.4-1.4z"/></g></svg>