<svg xmlns="http://www.w3.org/2000/svg" width="89.2" height="89.2"><path d="M74.6 42.6c.3-6-.1-9-.1-9-.2-1.4.7-2.8 2.2-3 .7-.1 1.4 0 1.9.4.6.4.9 1 1.1 1.7 0 .2.6 3.6.1 10.6 4.5 2.4 10.3 8 9.3 17.6C87.7 74 76 82.8 65.6 86.6c-4.3 1.6-8 2.4-10.9 2.4-2.2 0-3.3-.5-3.7-.7-.9-.5-1.4-1.5-1.4-2.5.1-1 .8-1.9 1.7-2.3.3-.1 7.7-2.9 8.4-13.6.6-8.2 1.7-13.8 3.5-17.5 3.5-6.9 8.6-9.1 11.4-9.8zM29.7 78.4c4.2 4.3 6.7 6 6.7 6 1 .6 1.4 1.8 1.1 2.9-.3 1.1-1.3 1.9-2.5 1.9-.5 0-1-.1-1.4-.4-.1-.1-3.1-2-7.9-7-1.5.5-3.8 1.1-6.3 1.1-4.9 0-9.4-2.1-12.9-6.1C-2.2 66.9-.8 52.4 3.4 42c4-9.7 7.6-11.6 8.6-11.9 1-.3 2.1-.1 2.8.7.7.8.9 1.9.5 2.8-.1.3-3 7.7 4.4 15.4 5.7 6 9 10.6 10.5 14.4 2.6 7.2.9 12.4-.5 15zm-2.8-55.7c-5.5 2.4-8 4.1-8 4.1-.6.4-1.3.6-1.9.5-.7-.1-1.3-.5-1.7-1.1-.8-1.2-.6-2.8.6-3.6.1-.1 3-2.1 9.4-4.8.1-5.1 2.5-12.8 11.6-16.2C39.7.6 42.6.1 45.5.1c11.8 0 21.3 7.8 24.9 11.2 7.6 7.2 8 11.3 8 12.3s-.7 1.9-1.6 2.3c-1 .4-2 .2-2.8-.5-.1-.1-3.2-3-8.7-3-2.5 0-4.9.6-7.2 1.5-7.6 3.2-13.1 4.7-17.2 4.7-7.8-.1-12.1-3.7-14-5.9zm0 0" fill="#fff"/></svg>